<?xml version="1.0" encoding="UTF-8" standalone="no"?>
<!DOCTYPE svg PUBLIC "-//W3C//DTD SVG 1.1//EN"
 "http://www.w3.org/Graphics/SVG/1.1/DTD/svg11.dtd">
<!-- Generated by graphviz version 14.1.2 (20260124.0452)
 -->
<!-- Title: EvolutionTree Pages: 1 -->
<svg width="626pt" height="152pt"
 viewBox="0.00 0.00 626.00 152.00" xmlns="http://www.w3.org/2000/svg" xmlns:xlink="http://www.w3.org/1999/xlink">
<g id="graph0" class="graph" transform="scale(1 1) rotate(0) translate(4 148)">
<title>EvolutionTree</title>
<polygon fill="white" stroke="none" points="-4,4 -4,-148 621.5,-148 621.5,4 -4,4"/>
<!-- corrupt_baby -->
<g id="node1" class="node">
<title>corrupt_baby</title>
<path fill="#ef5350" stroke="black" d="M76,-90C76,-90 12,-90 12,-90 6,-90 0,-84 0,-78 0,-78 0,-66 0,-66 0,-60 6,-54 12,-54 12,-54 76,-54 76,-54 82,-54 88,-60 88,-66 88,-66 88,-78 88,-78 88,-84 82,-90 76,-90"/>
<text xml:space="preserve" text-anchor="middle" x="44" y="-66.95" font-family="Times New Roman,serif" font-size="14.00">corrupt_baby</text>
</g>
<!-- corrupt_rookie -->
<g id="node2" class="node">
<title>corrupt_rookie</title>
<path fill="#ef5350" stroke="black" d="M208.25,-90C208.25,-90 136,-90 136,-90 130,-90 124,-84 124,-78 124,-78 124,-66 124,-66 124,-60 130,-54 136,-54 136,-54 208.25,-54 208.25,-54 214.25,-54 220.25,-60 220.25,-66 220.25,-66 220.25,-78 220.25,-78 220.25,-84 214.25,-90 208.25,-90"/>
<text xml:space="preserve" text-anchor="middle" x="172.12" y="-66.95" font-family="Times New Roman,serif" font-size="14.00">corrupt_rookie</text>
</g>
<!-- corrupt_baby&#45;&gt;corrupt_rookie -->
<g id="edge1" class="edge">
<title>corrupt_baby&#45;&gt;corrupt_rookie</title>
<path fill="none" stroke="black" d="M88.41,-72C96.15,-72 104.34,-72 112.44,-72"/>
<polygon fill="black" stroke="black" points="112.24,-75.5 122.24,-72 112.24,-68.5 112.24,-75.5"/>
</g>
<!-- corrupt_champion_glitch -->
<g id="node3" class="node">
<title>corrupt_champion_glitch</title>
<path fill="#ef5350" stroke="black" d="M405.75,-144C405.75,-144 276.5,-144 276.5,-144 270.5,-144 264.5,-138 264.5,-132 264.5,-132 264.5,-120 264.5,-120 264.5,-114 270.5,-108 276.5,-108 276.5,-108 405.75,-108 405.75,-108 411.75,-108 417.75,-114 417.75,-120 417.75,-120 417.75,-132 417.75,-132 417.75,-138 411.75,-144 405.75,-144"/>
<text xml:space="preserve" text-anchor="middle" x="341.12" y="-120.95" font-family="Times New Roman,serif" font-size="14.00">corrupt_champion_glitch</text>
</g>
<!-- corrupt_rookie&#45;&gt;corrupt_champion_glitch -->
<g id="edge2" class="edge">
<title>corrupt_rookie&#45;&gt;corrupt_champion_glitch</title>
<path fill="none" stroke="#7e57c2" d="M220.59,-87.44C232.25,-91.23 244.7,-95.27 256.25,-99 261.35,-100.65 266.62,-102.35 271.93,-104.06"/>
<polygon fill="#7e57c2" stroke="#7e57c2" points="270.79,-107.37 281.38,-107.11 272.93,-100.71 270.79,-107.37"/>
</g>
<!-- corrupt_champion_error -->
<g id="node4" class="node">
<title>corrupt_champion_error</title>
<path fill="#ef5350" stroke="black" d="M403.5,-90C403.5,-90 278.75,-90 278.75,-90 272.75,-90 266.75,-84 266.75,-78 266.75,-78 266.75,-66 266.75,-66 266.75,-60 272.75,-54 278.75,-54 278.75,-54 403.5,-54 403.5,-54 409.5,-54 415.5,-60 415.5,-66 415.5,-66 415.5,-78 415.5,-78 415.5,-84 409.5,-90 403.5,-90"/>
<text xml:space="preserve" text-anchor="middle" x="341.12" y="-66.95" font-family="Times New Roman,serif" font-size="14.00">corrupt_champion_error</text>
</g>
<!-- corrupt_rookie&#45;&gt;corrupt_champion_error -->
<g id="edge3" class="edge">
<title>corrupt_rookie&#45;&gt;corrupt_champion_error</title>
<path fill="none" stroke="#7e57c2" d="M220.53,-72C231.35,-72 243.16,-72 255.02,-72"/>
<polygon fill="#7e57c2" stroke="#7e57c2" points="254.86,-75.5 264.86,-72 254.86,-68.5 254.86,-75.5"/>
</g>
<!-- corrupt_champion_patchfail -->
<g id="node5" class="node">
<title>corrupt_champion_patchfail</title>
<path fill="#ef5350" stroke="black" d="M414,-36C414,-36 268.25,-36 268.25,-36 262.25,-36 256.25,-30 256.25,-24 256.25,-24 256.25,-12 256.25,-12 256.25,-6 262.25,0 268.25,0 268.25,0 414,0 414,0 420,0 426,-6 426,-12 426,-12 426,-24 426,-24 426,-30 420,-36 414,-36"/>
<text xml:space="preserve" text-anchor="middle" x="341.12" y="-12.95" font-family="Times New Roman,serif" font-size="14.00">corrupt_champion_patchfail</text>
</g>
<!-- corrupt_rookie&#45;&gt;corrupt_champion_patchfail -->
<g id="edge4" class="edge">
<title>corrupt_rookie&#45;&gt;corrupt_champion_patchfail</title>
<path fill="none" stroke="#7e57c2" d="M220.59,-56.56C232.25,-52.77 244.7,-48.73 256.25,-45 261.35,-43.35 266.62,-41.65 271.93,-39.94"/>
<polygon fill="#7e57c2" stroke="#7e57c2" points="272.93,-43.29 281.38,-36.89 270.79,-36.63 272.93,-43.29"/>
</g>
<!-- corrupt_final_corruptcore -->
<g id="node6" class="node">
<title>corrupt_final_corruptcore</title>
<path fill="lightgrey" stroke="black" d="M605.5,-117C605.5,-117 474,-117 474,-117 468,-117 462,-111 462,-105 462,-105 462,-93 462,-93 462,-87 468,-81 474,-81 474,-81 605.5,-81 605.5,-81 611.5,-81 617.5,-87 617.5,-93 617.5,-93 617.5,-105 617.5,-105 617.5,-111 611.5,-117 605.5,-117"/>
<text xml:space="preserve" text-anchor="middle" x="539.75" y="-93.95" font-family="Times New Roman,serif" font-size="14.00">corrupt_final_corruptcore</text>
</g>
<!-- corrupt_champion_glitch&#45;&gt;corrupt_final_corruptcore -->
<g id="edge5" class="edge">
<title>corrupt_champion_glitch&#45;&gt;corrupt_final_corruptcore</title>
<path fill="none" stroke="#7e57c2" d="M418.15,-115.56C428.73,-114.11 439.68,-112.6 450.47,-111.12"/>
<polygon fill="#7e57c2" stroke="#7e57c2" points="450.7,-114.62 460.13,-109.8 449.75,-107.69 450.7,-114.62"/>
</g>
<!-- corrupt_final_overrun -->
<g id="node7" class="node">
<title>corrupt_final_overrun</title>
<path fill="lightgrey" stroke="black" d="M595.38,-63C595.38,-63 484.12,-63 484.12,-63 478.12,-63 472.12,-57 472.12,-51 472.12,-51 472.12,-39 472.12,-39 472.12,-33 478.12,-27 484.12,-27 484.12,-27 595.38,-27 595.38,-27 601.38,-27 607.38,-33 607.38,-39 607.38,-39 607.38,-51 607.38,-51 607.38,-57 601.38,-63 595.38,-63"/>
<text xml:space="preserve" text-anchor="middle" x="539.75" y="-39.95" font-family="Times New Roman,serif" font-size="14.00">corrupt_final_overrun</text>
</g>
<!-- corrupt_champion_glitch&#45;&gt;corrupt_final_overrun -->
<g id="edge6" class="edge">
<title>corrupt_champion_glitch&#45;&gt;corrupt_final_overrun</title>
<path fill="none" stroke="#7e57c2" d="M406.68,-107.66C413.33,-105.05 419.89,-102.16 426,-99 443.76,-89.81 444.36,-81.43 462,-72 464.65,-70.58 467.4,-69.21 470.19,-67.89"/>
<polygon fill="#7e57c2" stroke="#7e57c2" points="471.39,-71.19 479.13,-63.96 468.57,-64.79 471.39,-71.19"/>
</g>
<!-- corrupt_champion_error&#45;&gt;corrupt_final_corruptcore -->
<g id="edge8" class="edge">
<title>corrupt_champion_error&#45;&gt;corrupt_final_corruptcore</title>
<path fill="none" stroke="#7e57c2" d="M415.9,-82.13C427.1,-83.67 438.75,-85.27 450.22,-86.84"/>
<polygon fill="#7e57c2" stroke="#7e57c2" points="449.72,-90.31 460.11,-88.2 450.68,-83.37 449.72,-90.31"/>
</g>
<!-- corrupt_champion_error&#45;&gt;corrupt_final_overrun -->
<g id="edge7" class="edge">
<title>corrupt_champion_error&#45;&gt;corrupt_final_overrun</title>
<path fill="none" stroke="#7e57c2" d="M415.9,-61.87C430.49,-59.87 445.85,-57.76 460.58,-55.73"/>
<polygon fill="#7e57c2" stroke="#7e57c2" points="460.76,-59.24 470.19,-54.41 459.81,-52.31 460.76,-59.24"/>
</g>
<!-- corrupt_champion_patchfail&#45;&gt;corrupt_final_corruptcore -->
<g id="edge9" class="edge">
<title>corrupt_champion_patchfail&#45;&gt;corrupt_final_corruptcore</title>
<path fill="none" stroke="#7e57c2" d="M406.68,-36.34C413.33,-38.95 419.89,-41.84 426,-45 443.76,-54.19 444.36,-62.57 462,-72 464.65,-73.42 467.4,-74.79 470.19,-76.11"/>
<polygon fill="#7e57c2" stroke="#7e57c2" points="468.57,-79.21 479.13,-80.04 471.39,-72.81 468.57,-79.21"/>
</g>
<!-- corrupt_champion_patchfail&#45;&gt;corrupt_final_overrun -->
<g id="edge10" class="edge">
<title>corrupt_champion_patchfail&#45;&gt;corrupt_final_overrun</title>
<path fill="none" stroke="#7e57c2" d="M426.37,-29.57C437.78,-31.14 449.45,-32.74 460.75,-34.29"/>
<polygon fill="#7e57c2" stroke="#7e57c2" points="460.02,-37.72 470.4,-35.61 460.97,-30.79 460.02,-37.72"/>
</g>
</g>
</svg>
