<?xml version="1.0" encoding="UTF-8" standalone="no"?>
<!DOCTYPE svg PUBLIC "-//W3C//DTD SVG 1.1//EN"
 "http://www.w3.org/Graphics/SVG/1.1/DTD/svg11.dtd">
<!-- Generated by graphviz version 2.43.0 (0)
 -->
<!-- Title: EvolutionTree Pages: 1 -->
<svg width="665pt" height="152pt"
 viewBox="0.00 0.00 665.00 152.00" xmlns="http://www.w3.org/2000/svg" xmlns:xlink="http://www.w3.org/1999/xlink">
<g id="graph0" class="graph" transform="scale(1 1) rotate(0) translate(4 148)">
<title>EvolutionTree</title>
<polygon fill="white" stroke="transparent" points="-4,4 -4,-148 661,-148 661,4 -4,4"/>
<!-- cloud_baby -->
<g id="node1" class="node">
<title>cloud_baby</title>
<path fill="#90caf9" stroke="black" d="M84,-90C84,-90 12,-90 12,-90 6,-90 0,-84 0,-78 0,-78 0,-66 0,-66 0,-60 6,-54 12,-54 12,-54 84,-54 84,-54 90,-54 96,-60 96,-66 96,-66 96,-78 96,-78 96,-84 90,-90 84,-90"/>
<text text-anchor="middle" x="48" y="-68.3" font-family="Times,serif" font-size="14.00">cloud_baby</text>
</g>
<!-- cloud_rookie -->
<g id="node2" class="node">
<title>cloud_rookie</title>
<path fill="#90caf9" stroke="black" d="M226,-90C226,-90 144,-90 144,-90 138,-90 132,-84 132,-78 132,-78 132,-66 132,-66 132,-60 138,-54 144,-54 144,-54 226,-54 226,-54 232,-54 238,-60 238,-66 238,-66 238,-78 238,-78 238,-84 232,-90 226,-90"/>
<text text-anchor="middle" x="185" y="-68.3" font-family="Times,serif" font-size="14.00">cloud_rookie</text>
</g>
<!-- cloud_baby&#45;&gt;cloud_rookie -->
<g id="edge1" class="edge">
<title>cloud_baby&#45;&gt;cloud_rookie</title>
<path fill="none" stroke="black" d="M96.22,-72C104.52,-72 113.28,-72 121.92,-72"/>
<polygon fill="black" stroke="black" points="121.97,-75.5 131.97,-72 121.97,-68.5 121.97,-75.5"/>
</g>
<!-- cloud_champion_wind -->
<g id="node3" class="node">
<title>cloud_champion_wind</title>
<path fill="#90caf9" stroke="black" d="M437.5,-90C437.5,-90 289.5,-90 289.5,-90 283.5,-90 277.5,-84 277.5,-78 277.5,-78 277.5,-66 277.5,-66 277.5,-60 283.5,-54 289.5,-54 289.5,-54 437.5,-54 437.5,-54 443.5,-54 449.5,-60 449.5,-66 449.5,-66 449.5,-78 449.5,-78 449.5,-84 443.5,-90 437.5,-90"/>
<text text-anchor="middle" x="363.5" y="-68.3" font-family="Times,serif" font-size="14.00">cloud_champion_wind</text>
</g>
<!-- cloud_rookie&#45;&gt;cloud_champion_wind -->
<g id="edge2" class="edge">
<title>cloud_rookie&#45;&gt;cloud_champion_wind</title>
<path fill="none" stroke="#7e57c2" d="M238,-72C247.31,-72 257.26,-72 267.34,-72"/>
<polygon fill="#7e57c2" stroke="#7e57c2" points="267.43,-75.5 277.43,-72 267.43,-68.5 267.43,-75.5"/>
</g>
<!-- cloud_champion_rain -->
<g id="node4" class="node">
<title>cloud_champion_rain</title>
<path fill="#90caf9" stroke="black" d="M434.5,-36C434.5,-36 292.5,-36 292.5,-36 286.5,-36 280.5,-30 280.5,-24 280.5,-24 280.5,-12 280.5,-12 280.5,-6 286.5,0 292.5,0 292.5,0 434.5,0 434.5,0 440.5,0 446.5,-6 446.5,-12 446.5,-12 446.5,-24 446.5,-24 446.5,-30 440.5,-36 434.5,-36"/>
<text text-anchor="middle" x="363.5" y="-14.3" font-family="Times,serif" font-size="14.00">cloud_champion_rain</text>
</g>
<!-- cloud_rookie&#45;&gt;cloud_champion_rain -->
<g id="edge3" class="edge">
<title>cloud_rookie&#45;&gt;cloud_champion_rain</title>
<path fill="none" stroke="#7e57c2" d="M238.11,-56C249.91,-52.38 262.39,-48.55 274,-45 280.3,-43.07 286.84,-41.07 293.4,-39.07"/>
<polygon fill="#7e57c2" stroke="#7e57c2" points="294.45,-42.41 302.99,-36.14 292.4,-35.71 294.45,-42.41"/>
</g>
<!-- cloud_champion_storm -->
<g id="node5" class="node">
<title>cloud_champion_storm</title>
<path fill="#90caf9" stroke="black" d="M441,-144C441,-144 286,-144 286,-144 280,-144 274,-138 274,-132 274,-132 274,-120 274,-120 274,-114 280,-108 286,-108 286,-108 441,-108 441,-108 447,-108 453,-114 453,-120 453,-120 453,-132 453,-132 453,-138 447,-144 441,-144"/>
<text text-anchor="middle" x="363.5" y="-122.3" font-family="Times,serif" font-size="14.00">cloud_champion_storm</text>
</g>
<!-- cloud_rookie&#45;&gt;cloud_champion_storm -->
<g id="edge4" class="edge">
<title>cloud_rookie&#45;&gt;cloud_champion_storm</title>
<path fill="none" stroke="#7e57c2" d="M238.11,-88C249.91,-91.62 262.39,-95.45 274,-99 280.3,-100.93 286.84,-102.93 293.4,-104.93"/>
<polygon fill="#7e57c2" stroke="#7e57c2" points="292.4,-108.29 302.99,-107.86 294.45,-101.59 292.4,-108.29"/>
</g>
<!-- cloud_final_jetstream -->
<g id="node6" class="node">
<title>cloud_final_jetstream</title>
<path fill="lightgrey" stroke="black" d="M645,-144C645,-144 501,-144 501,-144 495,-144 489,-138 489,-132 489,-132 489,-120 489,-120 489,-114 495,-108 501,-108 501,-108 645,-108 645,-108 651,-108 657,-114 657,-120 657,-120 657,-132 657,-132 657,-138 651,-144 645,-144"/>
<text text-anchor="middle" x="573" y="-122.3" font-family="Times,serif" font-size="14.00">cloud_final_jetstream</text>
</g>
<!-- cloud_champion_wind&#45;&gt;cloud_final_jetstream -->
<g id="edge5" class="edge">
<title>cloud_champion_wind&#45;&gt;cloud_final_jetstream</title>
<path fill="none" stroke="#7e57c2" d="M433.88,-90.06C452.83,-94.99 473.5,-100.37 492.95,-105.43"/>
<polygon fill="#7e57c2" stroke="#7e57c2" points="492.12,-108.83 502.68,-107.96 493.89,-102.05 492.12,-108.83"/>
</g>
<!-- cloud_final_halo -->
<g id="node7" class="node">
<title>cloud_final_halo</title>
<path fill="lightgrey" stroke="black" d="M625.5,-36C625.5,-36 520.5,-36 520.5,-36 514.5,-36 508.5,-30 508.5,-24 508.5,-24 508.5,-12 508.5,-12 508.5,-6 514.5,0 520.5,0 520.5,0 625.5,0 625.5,0 631.5,0 637.5,-6 637.5,-12 637.5,-12 637.5,-24 637.5,-24 637.5,-30 631.5,-36 625.5,-36"/>
<text text-anchor="middle" x="573" y="-14.3" font-family="Times,serif" font-size="14.00">cloud_final_halo</text>
</g>
<!-- cloud_champion_wind&#45;&gt;cloud_final_halo -->
<g id="edge6" class="edge">
<title>cloud_champion_wind&#45;&gt;cloud_final_halo</title>
<path fill="none" stroke="#7e57c2" d="M433.88,-53.94C454.63,-48.54 477.45,-42.61 498.45,-37.14"/>
<polygon fill="#7e57c2" stroke="#7e57c2" points="499.49,-40.49 508.28,-34.58 497.72,-33.71 499.49,-40.49"/>
</g>
<!-- cloud_champion_rain&#45;&gt;cloud_final_halo -->
<g id="edge7" class="edge">
<title>cloud_champion_rain&#45;&gt;cloud_final_halo</title>
<path fill="none" stroke="#7e57c2" d="M446.51,-18C463.49,-18 481.28,-18 497.96,-18"/>
<polygon fill="#7e57c2" stroke="#7e57c2" points="498.18,-21.5 508.18,-18 498.18,-14.5 498.18,-21.5"/>
</g>
<!-- cloud_final_tempest -->
<g id="node8" class="node">
<title>cloud_final_tempest</title>
<path fill="lightgrey" stroke="black" d="M640,-90C640,-90 506,-90 506,-90 500,-90 494,-84 494,-78 494,-78 494,-66 494,-66 494,-60 500,-54 506,-54 506,-54 640,-54 640,-54 646,-54 652,-60 652,-66 652,-66 652,-78 652,-78 652,-84 646,-90 640,-90"/>
<text text-anchor="middle" x="573" y="-68.3" font-family="Times,serif" font-size="14.00">cloud_final_tempest</text>
</g>
<!-- cloud_champion_rain&#45;&gt;cloud_final_tempest -->
<g id="edge8" class="edge">
<title>cloud_champion_rain&#45;&gt;cloud_final_tempest</title>
<path fill="none" stroke="#7e57c2" d="M433.88,-36.06C452.83,-40.99 473.5,-46.37 492.95,-51.43"/>
<polygon fill="#7e57c2" stroke="#7e57c2" points="492.12,-54.83 502.68,-53.96 493.89,-48.05 492.12,-54.83"/>
</g>
<!-- cloud_champion_storm&#45;&gt;cloud_final_jetstream -->
<g id="edge10" class="edge">
<title>cloud_champion_storm&#45;&gt;cloud_final_jetstream</title>
<path fill="none" stroke="#7e57c2" d="M453.1,-126C461.65,-126 470.34,-126 478.93,-126"/>
<polygon fill="#7e57c2" stroke="#7e57c2" points="478.96,-129.5 488.96,-126 478.96,-122.5 478.96,-129.5"/>
</g>
<!-- cloud_champion_storm&#45;&gt;cloud_final_tempest -->
<g id="edge9" class="edge">
<title>cloud_champion_storm&#45;&gt;cloud_final_tempest</title>
<path fill="none" stroke="#7e57c2" d="M433.88,-107.94C452.83,-103.01 473.5,-97.63 492.95,-92.57"/>
<polygon fill="#7e57c2" stroke="#7e57c2" points="493.89,-95.95 502.68,-90.04 492.12,-89.17 493.89,-95.95"/>
</g>
</g>
</svg>
