<?xml version="1.0" encoding="UTF-8" standalone="no"?>
<!DOCTYPE svg PUBLIC "-//W3C//DTD SVG 1.1//EN"
 "http://www.w3.org/Graphics/SVG/1.1/DTD/svg11.dtd">
<!-- Generated by graphviz version 2.43.0 (0)
 -->
<!-- Title: EvolutionTree Pages: 1 -->
<svg width="807pt" height="2021pt"
 viewBox="0.00 0.00 807.00 2021.00" xmlns="http://www.w3.org/2000/svg" xmlns:xlink="http://www.w3.org/1999/xlink">
<g id="graph0" class="graph" transform="scale(1 1) rotate(0) translate(4 2017)">
<title>EvolutionTree</title>
<polygon fill="white" stroke="transparent" points="-4,4 -4,-2017 803,-2017 803,4 -4,4"/>
<g id="clust1" class="cluster">
<title>cluster_firewall</title>
<path fill="#f5f5f5" stroke="black" d="M26.5,-8C26.5,-8 555,-8 555,-8 561,-8 567,-14 567,-20 567,-20 567,-179 567,-179 567,-185 561,-191 555,-191 555,-191 26.5,-191 26.5,-191 20.5,-191 14.5,-185 14.5,-179 14.5,-179 14.5,-20 14.5,-20 14.5,-14 20.5,-8 26.5,-8"/>
<text text-anchor="middle" x="290.75" y="-175.8" font-family="Times,serif" font-size="14.00">FIREWALL</text>
</g>
<g id="clust2" class="cluster">
<title>cluster_dream</title>
<path fill="#f5f5f5" stroke="black" d="M30,-199C30,-199 561,-199 561,-199 567,-199 573,-205 573,-211 573,-211 573,-370 573,-370 573,-376 567,-382 561,-382 561,-382 30,-382 30,-382 24,-382 18,-376 18,-370 18,-370 18,-211 18,-211 18,-205 24,-199 30,-199"/>
<text text-anchor="middle" x="295.5" y="-366.8" font-family="Times,serif" font-size="14.00">DREAM</text>
</g>
<g id="clust3" class="cluster">
<title>cluster_void</title>
<path fill="#f5f5f5" stroke="black" d="M38,-390C38,-390 544,-390 544,-390 550,-390 556,-396 556,-402 556,-402 556,-561 556,-561 556,-567 550,-573 544,-573 544,-573 38,-573 38,-573 32,-573 26,-567 26,-561 26,-561 26,-402 26,-402 26,-396 32,-390 38,-390"/>
<text text-anchor="middle" x="291" y="-557.8" font-family="Times,serif" font-size="14.00">VOID</text>
</g>
<g id="clust4" class="cluster">
<title>cluster_codeborn</title>
<path fill="#f5f5f5" stroke="black" d="M20,-581C20,-581 530.5,-581 530.5,-581 536.5,-581 542.5,-587 542.5,-593 542.5,-593 542.5,-644 542.5,-644 542.5,-650 536.5,-656 530.5,-656 530.5,-656 20,-656 20,-656 14,-656 8,-650 8,-644 8,-644 8,-593 8,-593 8,-587 14,-581 20,-581"/>
<text text-anchor="middle" x="275.25" y="-640.8" font-family="Times,serif" font-size="14.00">CODEBORN</text>
</g>
<g id="clust5" class="cluster">
<title>cluster_root</title>
<path fill="#f5f5f5" stroke="black" d="M38.5,-676C38.5,-676 537.5,-676 537.5,-676 543.5,-676 549.5,-682 549.5,-688 549.5,-688 549.5,-847 549.5,-847 549.5,-853 543.5,-859 537.5,-859 537.5,-859 38.5,-859 38.5,-859 32.5,-859 26.5,-853 26.5,-847 26.5,-847 26.5,-688 26.5,-688 26.5,-682 32.5,-676 38.5,-676"/>
<text text-anchor="middle" x="288" y="-843.8" font-family="Times,serif" font-size="14.00">ROOT</text>
</g>
<g id="clust6" class="cluster">
<title>cluster_cloud</title>
<path fill="#f5f5f5" stroke="black" d="M34,-867C34,-867 541,-867 541,-867 547,-867 553,-873 553,-879 553,-879 553,-1038 553,-1038 553,-1044 547,-1050 541,-1050 541,-1050 34,-1050 34,-1050 28,-1050 22,-1044 22,-1038 22,-1038 22,-879 22,-879 22,-873 28,-867 34,-867"/>
<text text-anchor="middle" x="287.5" y="-1034.8" font-family="Times,serif" font-size="14.00">CLOUD</text>
</g>
<g id="clust7" class="cluster">
<title>cluster_archive</title>
<path fill="#f5f5f5" stroke="black" d="M27,-1058C27,-1058 560.5,-1058 560.5,-1058 566.5,-1058 572.5,-1064 572.5,-1070 572.5,-1070 572.5,-1229 572.5,-1229 572.5,-1235 566.5,-1241 560.5,-1241 560.5,-1241 27,-1241 27,-1241 21,-1241 15,-1235 15,-1229 15,-1229 15,-1070 15,-1070 15,-1064 21,-1058 27,-1058"/>
<text text-anchor="middle" x="293.75" y="-1225.8" font-family="Times,serif" font-size="14.00">ARCHIVE</text>
</g>
<g id="clust8" class="cluster">
<title>cluster_corrupt</title>
<path fill="#f5f5f5" stroke="black" d="M26.5,-1249C26.5,-1249 559,-1249 559,-1249 565,-1249 571,-1255 571,-1261 571,-1261 571,-1420 571,-1420 571,-1426 565,-1432 559,-1432 559,-1432 26.5,-1432 26.5,-1432 20.5,-1432 14.5,-1426 14.5,-1420 14.5,-1420 14.5,-1261 14.5,-1261 14.5,-1255 20.5,-1249 26.5,-1249"/>
<text text-anchor="middle" x="292.75" y="-1416.8" font-family="Times,serif" font-size="14.00">CORRUPT</text>
</g>
<g id="clust9" class="cluster">
<title>cluster_echo</title>
<path fill="#f5f5f5" stroke="black" d="M36.5,-1440C36.5,-1440 548.5,-1440 548.5,-1440 554.5,-1440 560.5,-1446 560.5,-1452 560.5,-1452 560.5,-1611 560.5,-1611 560.5,-1617 554.5,-1623 548.5,-1623 548.5,-1623 36.5,-1623 36.5,-1623 30.5,-1623 24.5,-1617 24.5,-1611 24.5,-1611 24.5,-1452 24.5,-1452 24.5,-1446 30.5,-1440 36.5,-1440"/>
<text text-anchor="middle" x="292.5" y="-1607.8" font-family="Times,serif" font-size="14.00">ECHO</text>
</g>
<g id="clust10" class="cluster">
<title>cluster_core</title>
<path fill="#f5f5f5" stroke="black" d="M37.5,-1631C37.5,-1631 538.5,-1631 538.5,-1631 544.5,-1631 550.5,-1637 550.5,-1643 550.5,-1643 550.5,-1802 550.5,-1802 550.5,-1808 544.5,-1814 538.5,-1814 538.5,-1814 37.5,-1814 37.5,-1814 31.5,-1814 25.5,-1808 25.5,-1802 25.5,-1802 25.5,-1643 25.5,-1643 25.5,-1637 31.5,-1631 37.5,-1631"/>
<text text-anchor="middle" x="288" y="-1798.8" font-family="Times,serif" font-size="14.00">CORE</text>
</g>
<g id="clust11" class="cluster">
<title>cluster_pulse</title>
<path fill="#f5f5f5" stroke="black" d="M34,-1822C34,-1822 556.5,-1822 556.5,-1822 562.5,-1822 568.5,-1828 568.5,-1834 568.5,-1834 568.5,-1993 568.5,-1993 568.5,-1999 562.5,-2005 556.5,-2005 556.5,-2005 34,-2005 34,-2005 28,-2005 22,-1999 22,-1993 22,-1993 22,-1834 22,-1834 22,-1828 28,-1822 34,-1822"/>
<text text-anchor="middle" x="295.25" y="-1989.8" font-family="Times,serif" font-size="14.00">PULSE</text>
</g>
<!-- firewall_baby -->
<g id="node1" class="node">
<title>firewall_baby</title>
<path fill="#ff8a65" stroke="black" d="M121.5,-106C121.5,-106 34.5,-106 34.5,-106 28.5,-106 22.5,-100 22.5,-94 22.5,-94 22.5,-82 22.5,-82 22.5,-76 28.5,-70 34.5,-70 34.5,-70 121.5,-70 121.5,-70 127.5,-70 133.5,-76 133.5,-82 133.5,-82 133.5,-94 133.5,-94 133.5,-100 127.5,-106 121.5,-106"/>
<text text-anchor="middle" x="78" y="-84.3" font-family="Times,serif" font-size="14.00">firewall_baby</text>
</g>
<!-- firewall_rookie -->
<g id="node2" class="node">
<title>firewall_rookie</title>
<path fill="#ff8a65" stroke="black" d="M291.5,-106C291.5,-106 194.5,-106 194.5,-106 188.5,-106 182.5,-100 182.5,-94 182.5,-94 182.5,-82 182.5,-82 182.5,-76 188.5,-70 194.5,-70 194.5,-70 291.5,-70 291.5,-70 297.5,-70 303.5,-76 303.5,-82 303.5,-82 303.5,-94 303.5,-94 303.5,-100 297.5,-106 291.5,-106"/>
<text text-anchor="middle" x="243" y="-84.3" font-family="Times,serif" font-size="14.00">firewall_rookie</text>
</g>
<!-- firewall_baby&#45;&gt;firewall_rookie -->
<g id="edge1" class="edge">
<title>firewall_baby&#45;&gt;firewall_rookie</title>
<path fill="none" stroke="black" d="M133.73,-88C146.06,-88 159.32,-88 172.17,-88"/>
<polygon fill="black" stroke="black" points="172.38,-91.5 182.38,-88 172.38,-84.5 172.38,-91.5"/>
</g>
<!-- firewall_champion_barrier -->
<g id="node3" class="node">
<title>firewall_champion_barrier</title>
<path fill="#ff8a65" stroke="black" d="M545,-52C545,-52 366,-52 366,-52 360,-52 354,-46 354,-40 354,-40 354,-28 354,-28 354,-22 360,-16 366,-16 366,-16 545,-16 545,-16 551,-16 557,-22 557,-28 557,-28 557,-40 557,-40 557,-46 551,-52 545,-52"/>
<text text-anchor="middle" x="455.5" y="-30.3" font-family="Times,serif" font-size="14.00">firewall_champion_barrier</text>
</g>
<!-- firewall_rookie&#45;&gt;firewall_champion_barrier -->
<g id="edge2" class="edge">
<title>firewall_rookie&#45;&gt;firewall_champion_barrier</title>
<path fill="none" stroke="#7e57c2" d="M303.56,-72.07C317.48,-68.4 332.25,-64.53 346,-61 354.33,-58.86 363.03,-56.65 371.72,-54.46"/>
<polygon fill="#7e57c2" stroke="#7e57c2" points="372.66,-57.84 381.51,-52.01 370.96,-51.05 372.66,-57.84"/>
</g>
<!-- firewall_champion_counter -->
<g id="node4" class="node">
<title>firewall_champion_counter</title>
<path fill="#ff8a65" stroke="black" d="M547,-160C547,-160 364,-160 364,-160 358,-160 352,-154 352,-148 352,-148 352,-136 352,-136 352,-130 358,-124 364,-124 364,-124 547,-124 547,-124 553,-124 559,-130 559,-136 559,-136 559,-148 559,-148 559,-154 553,-160 547,-160"/>
<text text-anchor="middle" x="455.5" y="-138.3" font-family="Times,serif" font-size="14.00">firewall_champion_counter</text>
</g>
<!-- firewall_rookie&#45;&gt;firewall_champion_counter -->
<g id="edge3" class="edge">
<title>firewall_rookie&#45;&gt;firewall_champion_counter</title>
<path fill="none" stroke="#7e57c2" d="M303.56,-103.93C317.48,-107.6 332.25,-111.47 346,-115 354.33,-117.14 363.03,-119.35 371.72,-121.54"/>
<polygon fill="#7e57c2" stroke="#7e57c2" points="370.96,-124.95 381.51,-123.99 372.66,-118.16 370.96,-124.95"/>
</g>
<!-- firewall_champion_patch -->
<g id="node5" class="node">
<title>firewall_champion_patch</title>
<path fill="#ff8a65" stroke="black" d="M539.5,-106C539.5,-106 371.5,-106 371.5,-106 365.5,-106 359.5,-100 359.5,-94 359.5,-94 359.5,-82 359.5,-82 359.5,-76 365.5,-70 371.5,-70 371.5,-70 539.5,-70 539.5,-70 545.5,-70 551.5,-76 551.5,-82 551.5,-82 551.5,-94 551.5,-94 551.5,-100 545.5,-106 539.5,-106"/>
<text text-anchor="middle" x="455.5" y="-84.3" font-family="Times,serif" font-size="14.00">firewall_champion_patch</text>
</g>
<!-- firewall_rookie&#45;&gt;firewall_champion_patch -->
<g id="edge4" class="edge">
<title>firewall_rookie&#45;&gt;firewall_champion_patch</title>
<path fill="none" stroke="#7e57c2" d="M303.76,-88C317.92,-88 333.43,-88 348.96,-88"/>
<polygon fill="#7e57c2" stroke="#7e57c2" points="349.15,-91.5 359.15,-88 349.15,-84.5 349.15,-91.5"/>
</g>
<!-- firewall_final_fortress -->
<g id="node54" class="node">
<title>firewall_final_fortress</title>
<path fill="lightgrey" stroke="black" d="M773,-52C773,-52 627,-52 627,-52 621,-52 615,-46 615,-40 615,-40 615,-28 615,-28 615,-22 621,-16 627,-16 627,-16 773,-16 773,-16 779,-16 785,-22 785,-28 785,-28 785,-40 785,-40 785,-46 779,-52 773,-52"/>
<text text-anchor="middle" x="700" y="-30.3" font-family="Times,serif" font-size="14.00">firewall_final_fortress</text>
</g>
<!-- firewall_champion_barrier&#45;&gt;firewall_final_fortress -->
<g id="edge5" class="edge">
<title>firewall_champion_barrier&#45;&gt;firewall_final_fortress</title>
<path fill="none" stroke="#7e57c2" d="M557.24,-34C572.93,-34 589.09,-34 604.63,-34"/>
<polygon fill="#7e57c2" stroke="#7e57c2" points="604.75,-37.5 614.75,-34 604.75,-30.5 604.75,-37.5"/>
</g>
<!-- firewall_final_protocol -->
<g id="node55" class="node">
<title>firewall_final_protocol</title>
<path fill="lightgrey" stroke="black" d="M774.5,-106C774.5,-106 625.5,-106 625.5,-106 619.5,-106 613.5,-100 613.5,-94 613.5,-94 613.5,-82 613.5,-82 613.5,-76 619.5,-70 625.5,-70 625.5,-70 774.5,-70 774.5,-70 780.5,-70 786.5,-76 786.5,-82 786.5,-82 786.5,-94 786.5,-94 786.5,-100 780.5,-106 774.5,-106"/>
<text text-anchor="middle" x="700" y="-84.3" font-family="Times,serif" font-size="14.00">firewall_final_protocol</text>
</g>
<!-- firewall_champion_barrier&#45;&gt;firewall_final_protocol -->
<g id="edge6" class="edge">
<title>firewall_champion_barrier&#45;&gt;firewall_final_protocol</title>
<path fill="none" stroke="#7e57c2" d="M537.59,-52.06C560.24,-57.1 584.99,-62.61 608.17,-67.77"/>
<polygon fill="#7e57c2" stroke="#7e57c2" points="607.47,-71.2 617.99,-69.96 608.99,-64.37 607.47,-71.2"/>
</g>
<!-- firewall_champion_counter&#45;&gt;firewall_final_protocol -->
<g id="edge8" class="edge">
<title>firewall_champion_counter&#45;&gt;firewall_final_protocol</title>
<path fill="none" stroke="#7e57c2" d="M537.59,-123.94C560.24,-118.9 584.99,-113.39 608.17,-108.23"/>
<polygon fill="#7e57c2" stroke="#7e57c2" points="608.99,-111.63 617.99,-106.04 607.47,-104.8 608.99,-111.63"/>
</g>
<!-- firewall_final_retaliate -->
<g id="node56" class="node">
<title>firewall_final_retaliate</title>
<path fill="lightgrey" stroke="black" d="M775.5,-160C775.5,-160 624.5,-160 624.5,-160 618.5,-160 612.5,-154 612.5,-148 612.5,-148 612.5,-136 612.5,-136 612.5,-130 618.5,-124 624.5,-124 624.5,-124 775.5,-124 775.5,-124 781.5,-124 787.5,-130 787.5,-136 787.5,-136 787.5,-148 787.5,-148 787.5,-154 781.5,-160 775.5,-160"/>
<text text-anchor="middle" x="700" y="-138.3" font-family="Times,serif" font-size="14.00">firewall_final_retaliate</text>
</g>
<!-- firewall_champion_counter&#45;&gt;firewall_final_retaliate -->
<g id="edge7" class="edge">
<title>firewall_champion_counter&#45;&gt;firewall_final_retaliate</title>
<path fill="none" stroke="#7e57c2" d="M559.34,-142C573.57,-142 588.15,-142 602.27,-142"/>
<polygon fill="#7e57c2" stroke="#7e57c2" points="602.45,-145.5 612.45,-142 602.45,-138.5 602.45,-145.5"/>
</g>
<!-- firewall_champion_patch&#45;&gt;firewall_final_fortress -->
<g id="edge10" class="edge">
<title>firewall_champion_patch&#45;&gt;firewall_final_fortress</title>
<path fill="none" stroke="#7e57c2" d="M537.59,-69.94C560.24,-64.9 584.99,-59.39 608.17,-54.23"/>
<polygon fill="#7e57c2" stroke="#7e57c2" points="608.99,-57.63 617.99,-52.04 607.47,-50.8 608.99,-57.63"/>
</g>
<!-- firewall_champion_patch&#45;&gt;firewall_final_protocol -->
<g id="edge9" class="edge">
<title>firewall_champion_patch&#45;&gt;firewall_final_protocol</title>
<path fill="none" stroke="#7e57c2" d="M551.65,-88C568.46,-88 585.97,-88 602.81,-88"/>
<polygon fill="#7e57c2" stroke="#7e57c2" points="603.2,-91.5 613.2,-88 603.2,-84.5 603.2,-91.5"/>
</g>
<!-- dream_baby -->
<g id="node6" class="node">
<title>dream_baby</title>
<path fill="#9575cd" stroke="black" d="M118,-297C118,-297 38,-297 38,-297 32,-297 26,-291 26,-285 26,-285 26,-273 26,-273 26,-267 32,-261 38,-261 38,-261 118,-261 118,-261 124,-261 130,-267 130,-273 130,-273 130,-285 130,-285 130,-291 124,-297 118,-297"/>
<text text-anchor="middle" x="78" y="-275.3" font-family="Times,serif" font-size="14.00">dream_baby</text>
</g>
<!-- dream_rookie -->
<g id="node7" class="node">
<title>dream_rookie</title>
<path fill="#9575cd" stroke="black" d="M287.5,-297C287.5,-297 198.5,-297 198.5,-297 192.5,-297 186.5,-291 186.5,-285 186.5,-285 186.5,-273 186.5,-273 186.5,-267 192.5,-261 198.5,-261 198.5,-261 287.5,-261 287.5,-261 293.5,-261 299.5,-267 299.5,-273 299.5,-273 299.5,-285 299.5,-285 299.5,-291 293.5,-297 287.5,-297"/>
<text text-anchor="middle" x="243" y="-275.3" font-family="Times,serif" font-size="14.00">dream_rookie</text>
</g>
<!-- dream_baby&#45;&gt;dream_rookie -->
<g id="edge11" class="edge">
<title>dream_baby&#45;&gt;dream_rookie</title>
<path fill="none" stroke="black" d="M130.13,-279C144.62,-279 160.6,-279 175.84,-279"/>
<polygon fill="black" stroke="black" points="176.25,-282.5 186.25,-279 176.25,-275.5 176.25,-282.5"/>
</g>
<!-- dream_champion_lucid -->
<g id="node8" class="node">
<title>dream_champion_lucid</title>
<path fill="#9575cd" stroke="black" d="M533,-297C533,-297 378,-297 378,-297 372,-297 366,-291 366,-285 366,-285 366,-273 366,-273 366,-267 372,-261 378,-261 378,-261 533,-261 533,-261 539,-261 545,-267 545,-273 545,-273 545,-285 545,-285 545,-291 539,-297 533,-297"/>
<text text-anchor="middle" x="455.5" y="-275.3" font-family="Times,serif" font-size="14.00">dream_champion_lucid</text>
</g>
<!-- dream_rookie&#45;&gt;dream_champion_lucid -->
<g id="edge12" class="edge">
<title>dream_rookie&#45;&gt;dream_champion_lucid</title>
<path fill="none" stroke="#7e57c2" d="M299.58,-279C316.9,-279 336.56,-279 355.91,-279"/>
<polygon fill="#7e57c2" stroke="#7e57c2" points="355.98,-282.5 365.98,-279 355.98,-275.5 355.98,-282.5"/>
</g>
<!-- dream_champion_nightmare -->
<g id="node9" class="node">
<title>dream_champion_nightmare</title>
<path fill="#9575cd" stroke="black" d="M553,-351C553,-351 358,-351 358,-351 352,-351 346,-345 346,-339 346,-339 346,-327 346,-327 346,-321 352,-315 358,-315 358,-315 553,-315 553,-315 559,-315 565,-321 565,-327 565,-327 565,-339 565,-339 565,-345 559,-351 553,-351"/>
<text text-anchor="middle" x="455.5" y="-329.3" font-family="Times,serif" font-size="14.00">dream_champion_nightmare</text>
</g>
<!-- dream_rookie&#45;&gt;dream_champion_nightmare -->
<g id="edge13" class="edge">
<title>dream_rookie&#45;&gt;dream_champion_nightmare</title>
<path fill="none" stroke="#7e57c2" d="M299.55,-293.86C314.61,-297.85 330.92,-302.13 346,-306 354.33,-308.14 363.03,-310.35 371.72,-312.54"/>
<polygon fill="#7e57c2" stroke="#7e57c2" points="370.96,-315.95 381.51,-314.99 372.66,-309.16 370.96,-315.95"/>
</g>
<!-- dream_champion_whimsy -->
<g id="node10" class="node">
<title>dream_champion_whimsy</title>
<path fill="#9575cd" stroke="black" d="M543.5,-243C543.5,-243 367.5,-243 367.5,-243 361.5,-243 355.5,-237 355.5,-231 355.5,-231 355.5,-219 355.5,-219 355.5,-213 361.5,-207 367.5,-207 367.5,-207 543.5,-207 543.5,-207 549.5,-207 555.5,-213 555.5,-219 555.5,-219 555.5,-231 555.5,-231 555.5,-237 549.5,-243 543.5,-243"/>
<text text-anchor="middle" x="455.5" y="-221.3" font-family="Times,serif" font-size="14.00">dream_champion_whimsy</text>
</g>
<!-- dream_rookie&#45;&gt;dream_champion_whimsy -->
<g id="edge14" class="edge">
<title>dream_rookie&#45;&gt;dream_champion_whimsy</title>
<path fill="none" stroke="#7e57c2" d="M299.55,-264.14C314.61,-260.15 330.92,-255.87 346,-252 354.33,-249.86 363.03,-247.65 371.72,-245.46"/>
<polygon fill="#7e57c2" stroke="#7e57c2" points="372.66,-248.84 381.51,-243.01 370.96,-242.05 372.66,-248.84"/>
</g>
<!-- dream_final_ascended -->
<g id="node57" class="node">
<title>dream_final_ascended</title>
<path fill="lightgrey" stroke="black" d="M774.5,-324C774.5,-324 625.5,-324 625.5,-324 619.5,-324 613.5,-318 613.5,-312 613.5,-312 613.5,-300 613.5,-300 613.5,-294 619.5,-288 625.5,-288 625.5,-288 774.5,-288 774.5,-288 780.5,-288 786.5,-294 786.5,-300 786.5,-300 786.5,-312 786.5,-312 786.5,-318 780.5,-324 774.5,-324"/>
<text text-anchor="middle" x="700" y="-302.3" font-family="Times,serif" font-size="14.00">dream_final_ascended</text>
</g>
<!-- dream_champion_lucid&#45;&gt;dream_final_ascended -->
<g id="edge15" class="edge">
<title>dream_champion_lucid&#45;&gt;dream_final_ascended</title>
<path fill="none" stroke="#7e57c2" d="M545.08,-288.86C564.09,-290.98 584.26,-293.22 603.52,-295.37"/>
<polygon fill="#7e57c2" stroke="#7e57c2" points="603.17,-298.85 613.49,-296.48 603.94,-291.89 603.17,-298.85"/>
</g>
<!-- dream_final_chaos -->
<g id="node58" class="node">
<title>dream_final_chaos</title>
<path fill="lightgrey" stroke="black" d="M761.5,-270C761.5,-270 638.5,-270 638.5,-270 632.5,-270 626.5,-264 626.5,-258 626.5,-258 626.5,-246 626.5,-246 626.5,-240 632.5,-234 638.5,-234 638.5,-234 761.5,-234 761.5,-234 767.5,-234 773.5,-240 773.5,-246 773.5,-246 773.5,-258 773.5,-258 773.5,-264 767.5,-270 761.5,-270"/>
<text text-anchor="middle" x="700" y="-248.3" font-family="Times,serif" font-size="14.00">dream_final_chaos</text>
</g>
<!-- dream_champion_lucid&#45;&gt;dream_final_chaos -->
<g id="edge16" class="edge">
<title>dream_champion_lucid&#45;&gt;dream_final_chaos</title>
<path fill="none" stroke="#7e57c2" d="M545.08,-269.14C568.3,-266.55 593.24,-263.78 616.15,-261.22"/>
<polygon fill="#7e57c2" stroke="#7e57c2" points="616.62,-264.69 626.17,-260.11 615.84,-257.74 616.62,-264.69"/>
</g>
<!-- dream_champion_nightmare&#45;&gt;dream_final_ascended -->
<g id="edge18" class="edge">
<title>dream_champion_nightmare&#45;&gt;dream_final_ascended</title>
<path fill="none" stroke="#7e57c2" d="M565.34,-320.88C578.05,-319.47 590.95,-318.03 603.47,-316.64"/>
<polygon fill="#7e57c2" stroke="#7e57c2" points="603.87,-320.11 613.42,-315.53 603.09,-313.16 603.87,-320.11"/>
</g>
<!-- dream_champion_nightmare&#45;&gt;dream_final_chaos -->
<g id="edge17" class="edge">
<title>dream_champion_nightmare&#45;&gt;dream_final_chaos</title>
<path fill="none" stroke="#7e57c2" d="M553.39,-314.9C560.19,-312.32 566.8,-309.37 573,-306 588.19,-297.75 585.98,-287.56 601,-279 606.06,-276.12 611.44,-273.53 616.98,-271.21"/>
<polygon fill="#7e57c2" stroke="#7e57c2" points="618.36,-274.43 626.42,-267.55 615.83,-267.9 618.36,-274.43"/>
</g>
<!-- dream_champion_whimsy&#45;&gt;dream_final_ascended -->
<g id="edge19" class="edge">
<title>dream_champion_whimsy&#45;&gt;dream_final_ascended</title>
<path fill="none" stroke="#7e57c2" d="M553.39,-243.1C560.19,-245.68 566.8,-248.63 573,-252 588.19,-260.25 585.98,-270.44 601,-279 604.04,-280.73 607.2,-282.36 610.45,-283.89"/>
<polygon fill="#7e57c2" stroke="#7e57c2" points="609.2,-287.16 619.77,-287.93 611.99,-280.74 609.2,-287.16"/>
</g>
<!-- dream_champion_whimsy&#45;&gt;dream_final_chaos -->
<g id="edge20" class="edge">
<title>dream_champion_whimsy&#45;&gt;dream_final_chaos</title>
<path fill="none" stroke="#7e57c2" d="M555.83,-236.06C575.88,-238.29 596.76,-240.62 616.17,-242.78"/>
<polygon fill="#7e57c2" stroke="#7e57c2" points="615.85,-246.26 626.18,-243.89 616.62,-239.31 615.85,-246.26"/>
</g>
<!-- void_baby -->
<g id="node11" class="node">
<title>void_baby</title>
<path fill="#b0bec5" stroke="black" d="M110,-488C110,-488 46,-488 46,-488 40,-488 34,-482 34,-476 34,-476 34,-464 34,-464 34,-458 40,-452 46,-452 46,-452 110,-452 110,-452 116,-452 122,-458 122,-464 122,-464 122,-476 122,-476 122,-482 116,-488 110,-488"/>
<text text-anchor="middle" x="78" y="-466.3" font-family="Times,serif" font-size="14.00">void_baby</text>
</g>
<!-- void_rookie -->
<g id="node12" class="node">
<title>void_rookie</title>
<path fill="#b0bec5" stroke="black" d="M280,-488C280,-488 206,-488 206,-488 200,-488 194,-482 194,-476 194,-476 194,-464 194,-464 194,-458 200,-452 206,-452 206,-452 280,-452 280,-452 286,-452 292,-458 292,-464 292,-464 292,-476 292,-476 292,-482 286,-488 280,-488"/>
<text text-anchor="middle" x="243" y="-466.3" font-family="Times,serif" font-size="14.00">void_rookie</text>
</g>
<!-- void_baby&#45;&gt;void_rookie -->
<g id="edge21" class="edge">
<title>void_baby&#45;&gt;void_rookie</title>
<path fill="none" stroke="black" d="M122.25,-470C141.13,-470 163.55,-470 183.86,-470"/>
<polygon fill="black" stroke="black" points="183.95,-473.5 193.95,-470 183.95,-466.5 183.95,-473.5"/>
</g>
<!-- void_champion_entropy -->
<g id="node13" class="node">
<title>void_champion_entropy</title>
<path fill="#b0bec5" stroke="black" d="M536,-542C536,-542 375,-542 375,-542 369,-542 363,-536 363,-530 363,-530 363,-518 363,-518 363,-512 369,-506 375,-506 375,-506 536,-506 536,-506 542,-506 548,-512 548,-518 548,-518 548,-530 548,-530 548,-536 542,-542 536,-542"/>
<text text-anchor="middle" x="455.5" y="-520.3" font-family="Times,serif" font-size="14.00">void_champion_entropy</text>
</g>
<!-- void_rookie&#45;&gt;void_champion_entropy -->
<g id="edge22" class="edge">
<title>void_rookie&#45;&gt;void_champion_entropy</title>
<path fill="none" stroke="#7e57c2" d="M292.22,-482.92C309.2,-487.43 328.43,-492.49 346,-497 354.33,-499.14 363.03,-501.35 371.72,-503.54"/>
<polygon fill="#7e57c2" stroke="#7e57c2" points="370.96,-506.95 381.51,-505.99 372.66,-500.16 370.96,-506.95"/>
</g>
<!-- void_champion_gravity -->
<g id="node14" class="node">
<title>void_champion_gravity</title>
<path fill="#b0bec5" stroke="black" d="M533.5,-434C533.5,-434 377.5,-434 377.5,-434 371.5,-434 365.5,-428 365.5,-422 365.5,-422 365.5,-410 365.5,-410 365.5,-404 371.5,-398 377.5,-398 377.5,-398 533.5,-398 533.5,-398 539.5,-398 545.5,-404 545.5,-410 545.5,-410 545.5,-422 545.5,-422 545.5,-428 539.5,-434 533.5,-434"/>
<text text-anchor="middle" x="455.5" y="-412.3" font-family="Times,serif" font-size="14.00">void_champion_gravity</text>
</g>
<!-- void_rookie&#45;&gt;void_champion_gravity -->
<g id="edge23" class="edge">
<title>void_rookie&#45;&gt;void_champion_gravity</title>
<path fill="none" stroke="#7e57c2" d="M292.22,-457.08C309.2,-452.57 328.43,-447.51 346,-443 354.33,-440.86 363.03,-438.65 371.72,-436.46"/>
<polygon fill="#7e57c2" stroke="#7e57c2" points="372.66,-439.84 381.51,-434.01 370.96,-433.05 372.66,-439.84"/>
</g>
<!-- void_champion_null -->
<g id="node15" class="node">
<title>void_champion_null</title>
<path fill="#b0bec5" stroke="black" d="M521.5,-488C521.5,-488 389.5,-488 389.5,-488 383.5,-488 377.5,-482 377.5,-476 377.5,-476 377.5,-464 377.5,-464 377.5,-458 383.5,-452 389.5,-452 389.5,-452 521.5,-452 521.5,-452 527.5,-452 533.5,-458 533.5,-464 533.5,-464 533.5,-476 533.5,-476 533.5,-482 527.5,-488 521.5,-488"/>
<text text-anchor="middle" x="455.5" y="-466.3" font-family="Times,serif" font-size="14.00">void_champion_null</text>
</g>
<!-- void_rookie&#45;&gt;void_champion_null -->
<g id="edge24" class="edge">
<title>void_rookie&#45;&gt;void_champion_null</title>
<path fill="none" stroke="#7e57c2" d="M292.03,-470C314.31,-470 341.51,-470 367.23,-470"/>
<polygon fill="#7e57c2" stroke="#7e57c2" points="367.38,-473.5 377.38,-470 367.38,-466.5 367.38,-473.5"/>
</g>
<!-- corrupt_final_glitch -->
<g id="node59" class="node">
<title>corrupt_final_glitch</title>
<path fill="lightgrey" stroke="black" d="M765.5,-542C765.5,-542 634.5,-542 634.5,-542 628.5,-542 622.5,-536 622.5,-530 622.5,-530 622.5,-518 622.5,-518 622.5,-512 628.5,-506 634.5,-506 634.5,-506 765.5,-506 765.5,-506 771.5,-506 777.5,-512 777.5,-518 777.5,-518 777.5,-530 777.5,-530 777.5,-536 771.5,-542 765.5,-542"/>
<text text-anchor="middle" x="700" y="-520.3" font-family="Times,serif" font-size="14.00">corrupt_final_glitch</text>
</g>
<!-- void_champion_entropy&#45;&gt;corrupt_final_glitch -->
<g id="edge25" class="edge">
<title>void_champion_entropy&#45;&gt;corrupt_final_glitch</title>
<path fill="none" stroke="#7e57c2" d="M548.18,-524C569.16,-524 591.39,-524 612.16,-524"/>
<polygon fill="#7e57c2" stroke="#7e57c2" points="612.22,-527.5 622.22,-524 612.22,-520.5 612.22,-527.5"/>
</g>
<!-- void_final_oblivion -->
<g id="node60" class="node">
<title>void_final_oblivion</title>
<path fill="lightgrey" stroke="black" d="M761.5,-488C761.5,-488 638.5,-488 638.5,-488 632.5,-488 626.5,-482 626.5,-476 626.5,-476 626.5,-464 626.5,-464 626.5,-458 632.5,-452 638.5,-452 638.5,-452 761.5,-452 761.5,-452 767.5,-452 773.5,-458 773.5,-464 773.5,-464 773.5,-476 773.5,-476 773.5,-482 767.5,-488 761.5,-488"/>
<text text-anchor="middle" x="700" y="-466.3" font-family="Times,serif" font-size="14.00">void_final_oblivion</text>
</g>
<!-- void_champion_entropy&#45;&gt;void_final_oblivion -->
<g id="edge26" class="edge">
<title>void_champion_entropy&#45;&gt;void_final_oblivion</title>
<path fill="none" stroke="#7e57c2" d="M537.59,-505.94C562.87,-500.31 590.78,-494.1 616.18,-488.44"/>
<polygon fill="#7e57c2" stroke="#7e57c2" points="617.15,-491.81 626.15,-486.22 615.63,-484.98 617.15,-491.81"/>
</g>
<!-- void_champion_gravity&#45;&gt;void_final_oblivion -->
<g id="edge28" class="edge">
<title>void_champion_gravity&#45;&gt;void_final_oblivion</title>
<path fill="none" stroke="#7e57c2" d="M537.59,-434.06C562.87,-439.69 590.78,-445.9 616.18,-451.56"/>
<polygon fill="#7e57c2" stroke="#7e57c2" points="615.63,-455.02 626.15,-453.78 617.15,-448.19 615.63,-455.02"/>
</g>
<!-- void_final_singularity -->
<g id="node61" class="node">
<title>void_final_singularity</title>
<path fill="lightgrey" stroke="black" d="M772,-434C772,-434 628,-434 628,-434 622,-434 616,-428 616,-422 616,-422 616,-410 616,-410 616,-404 622,-398 628,-398 628,-398 772,-398 772,-398 778,-398 784,-404 784,-410 784,-410 784,-422 784,-422 784,-428 778,-434 772,-434"/>
<text text-anchor="middle" x="700" y="-412.3" font-family="Times,serif" font-size="14.00">void_final_singularity</text>
</g>
<!-- void_champion_gravity&#45;&gt;void_final_singularity -->
<g id="edge27" class="edge">
<title>void_champion_gravity&#45;&gt;void_final_singularity</title>
<path fill="none" stroke="#7e57c2" d="M545.76,-416C565.32,-416 586.06,-416 605.76,-416"/>
<polygon fill="#7e57c2" stroke="#7e57c2" points="605.96,-419.5 615.96,-416 605.96,-412.5 605.96,-419.5"/>
</g>
<!-- void_champion_null&#45;&gt;void_final_oblivion -->
<g id="edge29" class="edge">
<title>void_champion_null&#45;&gt;void_final_oblivion</title>
<path fill="none" stroke="#7e57c2" d="M533.56,-470C559.88,-470 589.41,-470 616.16,-470"/>
<polygon fill="#7e57c2" stroke="#7e57c2" points="616.27,-473.5 626.27,-470 616.27,-466.5 616.27,-473.5"/>
</g>
<!-- void_champion_null&#45;&gt;void_final_singularity -->
<g id="edge30" class="edge">
<title>void_champion_null&#45;&gt;void_final_singularity</title>
<path fill="none" stroke="#7e57c2" d="M533.56,-452.84C557.21,-447.57 583.45,-441.73 607.94,-436.28"/>
<polygon fill="#7e57c2" stroke="#7e57c2" points="608.95,-439.64 617.95,-434.05 607.43,-432.8 608.95,-439.64"/>
</g>
<!-- codeborn_baby -->
<g id="node16" class="node">
<title>codeborn_baby</title>
<path fill="#e0e0e0" stroke="black" d="M128,-625C128,-625 28,-625 28,-625 22,-625 16,-619 16,-613 16,-613 16,-601 16,-601 16,-595 22,-589 28,-589 28,-589 128,-589 128,-589 134,-589 140,-595 140,-601 140,-601 140,-613 140,-613 140,-619 134,-625 128,-625"/>
<text text-anchor="middle" x="78" y="-603.3" font-family="Times,serif" font-size="14.00">codeborn_baby</text>
</g>
<!-- codeborn_rookie -->
<g id="node17" class="node">
<title>codeborn_rookie</title>
<path fill="#e0e0e0" stroke="black" d="M298,-625C298,-625 188,-625 188,-625 182,-625 176,-619 176,-613 176,-613 176,-601 176,-601 176,-595 182,-589 188,-589 188,-589 298,-589 298,-589 304,-589 310,-595 310,-601 310,-601 310,-613 310,-613 310,-619 304,-625 298,-625"/>
<text text-anchor="middle" x="243" y="-603.3" font-family="Times,serif" font-size="14.00">codeborn_rookie</text>
</g>
<!-- codeborn_baby&#45;&gt;codeborn_rookie -->
<g id="edge31" class="edge">
<title>codeborn_baby&#45;&gt;codeborn_rookie</title>
<path fill="none" stroke="black" d="M140.16,-607C148.53,-607 157.22,-607 165.82,-607"/>
<polygon fill="black" stroke="black" points="165.86,-610.5 175.86,-607 165.86,-603.5 165.86,-610.5"/>
</g>
<!-- codeborn_champion -->
<g id="node18" class="node">
<title>codeborn_champion</title>
<path fill="#e0e0e0" stroke="black" d="M522.5,-625C522.5,-625 388.5,-625 388.5,-625 382.5,-625 376.5,-619 376.5,-613 376.5,-613 376.5,-601 376.5,-601 376.5,-595 382.5,-589 388.5,-589 388.5,-589 522.5,-589 522.5,-589 528.5,-589 534.5,-595 534.5,-601 534.5,-601 534.5,-613 534.5,-613 534.5,-619 528.5,-625 522.5,-625"/>
<text text-anchor="middle" x="455.5" y="-603.3" font-family="Times,serif" font-size="14.00">codeborn_champion</text>
</g>
<!-- codeborn_rookie&#45;&gt;codeborn_champion -->
<g id="edge32" class="edge">
<title>codeborn_rookie&#45;&gt;codeborn_champion</title>
<path fill="none" stroke="black" d="M310.03,-607C327.81,-607 347.34,-607 366.13,-607"/>
<polygon fill="black" stroke="black" points="366.17,-610.5 376.17,-607 366.17,-603.5 366.17,-610.5"/>
</g>
<!-- codeborn_final -->
<g id="node62" class="node">
<title>codeborn_final</title>
<path fill="lightgrey" stroke="black" d="M748,-625C748,-625 652,-625 652,-625 646,-625 640,-619 640,-613 640,-613 640,-601 640,-601 640,-595 646,-589 652,-589 652,-589 748,-589 748,-589 754,-589 760,-595 760,-601 760,-601 760,-613 760,-613 760,-619 754,-625 748,-625"/>
<text text-anchor="middle" x="700" y="-603.3" font-family="Times,serif" font-size="14.00">codeborn_final</text>
</g>
<!-- codeborn_champion&#45;&gt;codeborn_final -->
<g id="edge33" class="edge">
<title>codeborn_champion&#45;&gt;codeborn_final</title>
<path fill="none" stroke="black" d="M534.56,-607C565.16,-607 599.97,-607 629.66,-607"/>
<polygon fill="black" stroke="black" points="629.93,-610.5 639.93,-607 629.93,-603.5 629.93,-610.5"/>
</g>
<!-- root_baby -->
<g id="node19" class="node">
<title>root_baby</title>
<path fill="#81c784" stroke="black" d="M109.5,-774C109.5,-774 46.5,-774 46.5,-774 40.5,-774 34.5,-768 34.5,-762 34.5,-762 34.5,-750 34.5,-750 34.5,-744 40.5,-738 46.5,-738 46.5,-738 109.5,-738 109.5,-738 115.5,-738 121.5,-744 121.5,-750 121.5,-750 121.5,-762 121.5,-762 121.5,-768 115.5,-774 109.5,-774"/>
<text text-anchor="middle" x="78" y="-752.3" font-family="Times,serif" font-size="14.00">root_baby</text>
</g>
<!-- root_rookie -->
<g id="node20" class="node">
<title>root_rookie</title>
<path fill="#81c784" stroke="black" d="M279.5,-774C279.5,-774 206.5,-774 206.5,-774 200.5,-774 194.5,-768 194.5,-762 194.5,-762 194.5,-750 194.5,-750 194.5,-744 200.5,-738 206.5,-738 206.5,-738 279.5,-738 279.5,-738 285.5,-738 291.5,-744 291.5,-750 291.5,-750 291.5,-762 291.5,-762 291.5,-768 285.5,-774 279.5,-774"/>
<text text-anchor="middle" x="243" y="-752.3" font-family="Times,serif" font-size="14.00">root_rookie</text>
</g>
<!-- root_baby&#45;&gt;root_rookie -->
<g id="edge34" class="edge">
<title>root_baby&#45;&gt;root_rookie</title>
<path fill="none" stroke="black" d="M121.83,-756C140.87,-756 163.58,-756 184.1,-756"/>
<polygon fill="black" stroke="black" points="184.29,-759.5 194.29,-756 184.29,-752.5 184.29,-759.5"/>
</g>
<!-- root_champion_thorn -->
<g id="node21" class="node">
<title>root_champion_thorn</title>
<path fill="#81c784" stroke="black" d="M527,-720C527,-720 384,-720 384,-720 378,-720 372,-714 372,-708 372,-708 372,-696 372,-696 372,-690 378,-684 384,-684 384,-684 527,-684 527,-684 533,-684 539,-690 539,-696 539,-696 539,-708 539,-708 539,-714 533,-720 527,-720"/>
<text text-anchor="middle" x="455.5" y="-698.3" font-family="Times,serif" font-size="14.00">root_champion_thorn</text>
</g>
<!-- root_rookie&#45;&gt;root_champion_thorn -->
<g id="edge35" class="edge">
<title>root_rookie&#45;&gt;root_champion_thorn</title>
<path fill="none" stroke="#7e57c2" d="M291.7,-743.22C308.81,-738.67 328.26,-733.56 346,-729 354.33,-726.86 363.03,-724.65 371.72,-722.46"/>
<polygon fill="#7e57c2" stroke="#7e57c2" points="372.66,-725.84 381.51,-720.01 370.96,-719.05 372.66,-725.84"/>
</g>
<!-- root_champion_bloom -->
<g id="node22" class="node">
<title>root_champion_bloom</title>
<path fill="#81c784" stroke="black" d="M529.5,-828C529.5,-828 381.5,-828 381.5,-828 375.5,-828 369.5,-822 369.5,-816 369.5,-816 369.5,-804 369.5,-804 369.5,-798 375.5,-792 381.5,-792 381.5,-792 529.5,-792 529.5,-792 535.5,-792 541.5,-798 541.5,-804 541.5,-804 541.5,-816 541.5,-816 541.5,-822 535.5,-828 529.5,-828"/>
<text text-anchor="middle" x="455.5" y="-806.3" font-family="Times,serif" font-size="14.00">root_champion_bloom</text>
</g>
<!-- root_rookie&#45;&gt;root_champion_bloom -->
<g id="edge36" class="edge">
<title>root_rookie&#45;&gt;root_champion_bloom</title>
<path fill="none" stroke="#7e57c2" d="M291.7,-768.78C308.81,-773.33 328.26,-778.44 346,-783 354.33,-785.14 363.03,-787.35 371.72,-789.54"/>
<polygon fill="#7e57c2" stroke="#7e57c2" points="370.96,-792.95 381.51,-791.99 372.66,-786.16 370.96,-792.95"/>
</g>
<!-- root_champion_bark -->
<g id="node23" class="node">
<title>root_champion_bark</title>
<path fill="#81c784" stroke="black" d="M524,-774C524,-774 387,-774 387,-774 381,-774 375,-768 375,-762 375,-762 375,-750 375,-750 375,-744 381,-738 387,-738 387,-738 524,-738 524,-738 530,-738 536,-744 536,-750 536,-750 536,-762 536,-762 536,-768 530,-774 524,-774"/>
<text text-anchor="middle" x="455.5" y="-752.3" font-family="Times,serif" font-size="14.00">root_champion_bark</text>
</g>
<!-- root_rookie&#45;&gt;root_champion_bark -->
<g id="edge37" class="edge">
<title>root_rookie&#45;&gt;root_champion_bark</title>
<path fill="none" stroke="#7e57c2" d="M291.5,-756C313.14,-756 339.49,-756 364.64,-756"/>
<polygon fill="#7e57c2" stroke="#7e57c2" points="364.95,-759.5 374.95,-756 364.95,-752.5 364.95,-759.5"/>
</g>
<!-- root_final_bramble -->
<g id="node63" class="node">
<title>root_final_bramble</title>
<path fill="lightgrey" stroke="black" d="M762.5,-687C762.5,-687 637.5,-687 637.5,-687 631.5,-687 625.5,-681 625.5,-675 625.5,-675 625.5,-663 625.5,-663 625.5,-657 631.5,-651 637.5,-651 637.5,-651 762.5,-651 762.5,-651 768.5,-651 774.5,-657 774.5,-663 774.5,-663 774.5,-675 774.5,-675 774.5,-681 768.5,-687 762.5,-687"/>
<text text-anchor="middle" x="700" y="-665.3" font-family="Times,serif" font-size="14.00">root_final_bramble</text>
</g>
<!-- root_champion_thorn&#45;&gt;root_final_bramble -->
<g id="edge38" class="edge">
<title>root_champion_thorn&#45;&gt;root_final_bramble</title>
<path fill="none" stroke="#7e57c2" d="M539.28,-690.74C563.76,-687.4 590.57,-683.76 615.12,-680.41"/>
<polygon fill="#7e57c2" stroke="#7e57c2" points="615.69,-683.87 625.13,-679.05 614.75,-676.93 615.69,-683.87"/>
</g>
<!-- root_final_ancient -->
<g id="node64" class="node">
<title>root_final_ancient</title>
<path fill="lightgrey" stroke="black" d="M759.5,-795C759.5,-795 640.5,-795 640.5,-795 634.5,-795 628.5,-789 628.5,-783 628.5,-783 628.5,-771 628.5,-771 628.5,-765 634.5,-759 640.5,-759 640.5,-759 759.5,-759 759.5,-759 765.5,-759 771.5,-765 771.5,-771 771.5,-771 771.5,-783 771.5,-783 771.5,-789 765.5,-795 759.5,-795"/>
<text text-anchor="middle" x="700" y="-773.3" font-family="Times,serif" font-size="14.00">root_final_ancient</text>
</g>
<!-- root_champion_thorn&#45;&gt;root_final_ancient -->
<g id="edge39" class="edge">
<title>root_champion_thorn&#45;&gt;root_final_ancient</title>
<path fill="none" stroke="#7e57c2" d="M539.1,-716.62C550.75,-719.97 562.37,-724.05 573,-729 587.1,-735.56 587.04,-743.15 601,-750 606.67,-752.78 612.66,-755.31 618.79,-757.61"/>
<polygon fill="#7e57c2" stroke="#7e57c2" points="617.89,-761 628.48,-761.02 620.21,-754.4 617.89,-761"/>
</g>
<!-- root_champion_bloom&#45;&gt;root_final_ancient -->
<g id="edge40" class="edge">
<title>root_champion_bloom&#45;&gt;root_final_ancient</title>
<path fill="none" stroke="#7e57c2" d="M541.66,-798.41C566.6,-795.02 593.8,-791.32 618.45,-787.96"/>
<polygon fill="#7e57c2" stroke="#7e57c2" points="619.05,-791.41 628.48,-786.6 618.1,-784.48 619.05,-791.41"/>
</g>
<!-- root_final_verdant -->
<g id="node65" class="node">
<title>root_final_verdant</title>
<path fill="lightgrey" stroke="black" d="M761,-849C761,-849 639,-849 639,-849 633,-849 627,-843 627,-837 627,-837 627,-825 627,-825 627,-819 633,-813 639,-813 639,-813 761,-813 761,-813 767,-813 773,-819 773,-825 773,-825 773,-837 773,-837 773,-843 767,-849 761,-849"/>
<text text-anchor="middle" x="700" y="-827.3" font-family="Times,serif" font-size="14.00">root_final_verdant</text>
</g>
<!-- root_champion_bloom&#45;&gt;root_final_verdant -->
<g id="edge41" class="edge">
<title>root_champion_bloom&#45;&gt;root_final_verdant</title>
<path fill="none" stroke="#7e57c2" d="M541.66,-817.37C566.02,-819.48 592.51,-821.78 616.7,-823.87"/>
<polygon fill="#7e57c2" stroke="#7e57c2" points="616.65,-827.38 626.91,-824.76 617.25,-820.41 616.65,-827.38"/>
</g>
<!-- root_champion_bark&#45;&gt;root_final_ancient -->
<g id="edge43" class="edge">
<title>root_champion_bark&#45;&gt;root_final_ancient</title>
<path fill="none" stroke="#7e57c2" d="M536.24,-762.91C562.44,-765.17 591.58,-767.7 617.89,-769.98"/>
<polygon fill="#7e57c2" stroke="#7e57c2" points="617.93,-773.49 628.2,-770.87 618.54,-766.52 617.93,-773.49"/>
</g>
<!-- root_final_warden -->
<g id="node66" class="node">
<title>root_final_warden</title>
<path fill="lightgrey" stroke="black" d="M759.5,-741C759.5,-741 640.5,-741 640.5,-741 634.5,-741 628.5,-735 628.5,-729 628.5,-729 628.5,-717 628.5,-717 628.5,-711 634.5,-705 640.5,-705 640.5,-705 759.5,-705 759.5,-705 765.5,-705 771.5,-711 771.5,-717 771.5,-717 771.5,-729 771.5,-729 771.5,-735 765.5,-741 759.5,-741"/>
<text text-anchor="middle" x="700" y="-719.3" font-family="Times,serif" font-size="14.00">root_final_warden</text>
</g>
<!-- root_champion_bark&#45;&gt;root_final_warden -->
<g id="edge42" class="edge">
<title>root_champion_bark&#45;&gt;root_final_warden</title>
<path fill="none" stroke="#7e57c2" d="M536.24,-745.15C562.56,-741.57 591.84,-737.58 618.24,-733.99"/>
<polygon fill="#7e57c2" stroke="#7e57c2" points="618.76,-737.45 628.2,-732.63 617.82,-730.52 618.76,-737.45"/>
</g>
<!-- cloud_baby -->
<g id="node24" class="node">
<title>cloud_baby</title>
<path fill="#90caf9" stroke="black" d="M114,-965C114,-965 42,-965 42,-965 36,-965 30,-959 30,-953 30,-953 30,-941 30,-941 30,-935 36,-929 42,-929 42,-929 114,-929 114,-929 120,-929 126,-935 126,-941 126,-941 126,-953 126,-953 126,-959 120,-965 114,-965"/>
<text text-anchor="middle" x="78" y="-943.3" font-family="Times,serif" font-size="14.00">cloud_baby</text>
</g>
<!-- cloud_rookie -->
<g id="node25" class="node">
<title>cloud_rookie</title>
<path fill="#90caf9" stroke="black" d="M284,-965C284,-965 202,-965 202,-965 196,-965 190,-959 190,-953 190,-953 190,-941 190,-941 190,-935 196,-929 202,-929 202,-929 284,-929 284,-929 290,-929 296,-935 296,-941 296,-941 296,-953 296,-953 296,-959 290,-965 284,-965"/>
<text text-anchor="middle" x="243" y="-943.3" font-family="Times,serif" font-size="14.00">cloud_rookie</text>
</g>
<!-- cloud_baby&#45;&gt;cloud_rookie -->
<g id="edge44" class="edge">
<title>cloud_baby&#45;&gt;cloud_rookie</title>
<path fill="none" stroke="black" d="M126.15,-947C142.81,-947 161.82,-947 179.55,-947"/>
<polygon fill="black" stroke="black" points="179.82,-950.5 189.82,-947 179.82,-943.5 179.82,-950.5"/>
</g>
<!-- cloud_champion_wind -->
<g id="node26" class="node">
<title>cloud_champion_wind</title>
<path fill="#90caf9" stroke="black" d="M529.5,-911C529.5,-911 381.5,-911 381.5,-911 375.5,-911 369.5,-905 369.5,-899 369.5,-899 369.5,-887 369.5,-887 369.5,-881 375.5,-875 381.5,-875 381.5,-875 529.5,-875 529.5,-875 535.5,-875 541.5,-881 541.5,-887 541.5,-887 541.5,-899 541.5,-899 541.5,-905 535.5,-911 529.5,-911"/>
<text text-anchor="middle" x="455.5" y="-889.3" font-family="Times,serif" font-size="14.00">cloud_champion_wind</text>
</g>
<!-- cloud_rookie&#45;&gt;cloud_champion_wind -->
<g id="edge45" class="edge">
<title>cloud_rookie&#45;&gt;cloud_champion_wind</title>
<path fill="none" stroke="#7e57c2" d="M296.11,-933.05C312.11,-928.81 329.77,-924.17 346,-920 354.33,-917.86 363.03,-915.65 371.72,-913.46"/>
<polygon fill="#7e57c2" stroke="#7e57c2" points="372.66,-916.84 381.51,-911.01 370.96,-910.05 372.66,-916.84"/>
</g>
<!-- cloud_champion_rain -->
<g id="node27" class="node">
<title>cloud_champion_rain</title>
<path fill="#90caf9" stroke="black" d="M526.5,-965C526.5,-965 384.5,-965 384.5,-965 378.5,-965 372.5,-959 372.5,-953 372.5,-953 372.5,-941 372.5,-941 372.5,-935 378.5,-929 384.5,-929 384.5,-929 526.5,-929 526.5,-929 532.5,-929 538.5,-935 538.5,-941 538.5,-941 538.5,-953 538.5,-953 538.5,-959 532.5,-965 526.5,-965"/>
<text text-anchor="middle" x="455.5" y="-943.3" font-family="Times,serif" font-size="14.00">cloud_champion_rain</text>
</g>
<!-- cloud_rookie&#45;&gt;cloud_champion_rain -->
<g id="edge46" class="edge">
<title>cloud_rookie&#45;&gt;cloud_champion_rain</title>
<path fill="none" stroke="#7e57c2" d="M296.03,-947C316.08,-947 339.62,-947 362.33,-947"/>
<polygon fill="#7e57c2" stroke="#7e57c2" points="362.35,-950.5 372.35,-947 362.35,-943.5 362.35,-950.5"/>
</g>
<!-- cloud_champion_storm -->
<g id="node28" class="node">
<title>cloud_champion_storm</title>
<path fill="#90caf9" stroke="black" d="M533,-1019C533,-1019 378,-1019 378,-1019 372,-1019 366,-1013 366,-1007 366,-1007 366,-995 366,-995 366,-989 372,-983 378,-983 378,-983 533,-983 533,-983 539,-983 545,-989 545,-995 545,-995 545,-1007 545,-1007 545,-1013 539,-1019 533,-1019"/>
<text text-anchor="middle" x="455.5" y="-997.3" font-family="Times,serif" font-size="14.00">cloud_champion_storm</text>
</g>
<!-- cloud_rookie&#45;&gt;cloud_champion_storm -->
<g id="edge47" class="edge">
<title>cloud_rookie&#45;&gt;cloud_champion_storm</title>
<path fill="none" stroke="#7e57c2" d="M296.11,-960.95C312.11,-965.19 329.77,-969.83 346,-974 354.33,-976.14 363.03,-978.35 371.72,-980.54"/>
<polygon fill="#7e57c2" stroke="#7e57c2" points="370.96,-983.95 381.51,-982.99 372.66,-977.16 370.96,-983.95"/>
</g>
<!-- cloud_final_jetstream -->
<g id="node67" class="node">
<title>cloud_final_jetstream</title>
<path fill="lightgrey" stroke="black" d="M772,-965C772,-965 628,-965 628,-965 622,-965 616,-959 616,-953 616,-953 616,-941 616,-941 616,-935 622,-929 628,-929 628,-929 772,-929 772,-929 778,-929 784,-935 784,-941 784,-941 784,-953 784,-953 784,-959 778,-965 772,-965"/>
<text text-anchor="middle" x="700" y="-943.3" font-family="Times,serif" font-size="14.00">cloud_final_jetstream</text>
</g>
<!-- cloud_champion_wind&#45;&gt;cloud_final_jetstream -->
<g id="edge48" class="edge">
<title>cloud_champion_wind&#45;&gt;cloud_final_jetstream</title>
<path fill="none" stroke="#7e57c2" d="M537.59,-911.06C560.24,-916.1 584.99,-921.61 608.17,-926.77"/>
<polygon fill="#7e57c2" stroke="#7e57c2" points="607.47,-930.2 617.99,-928.96 608.99,-923.37 607.47,-930.2"/>
</g>
<!-- cloud_final_halo -->
<g id="node68" class="node">
<title>cloud_final_halo</title>
<path fill="lightgrey" stroke="black" d="M752.5,-911C752.5,-911 647.5,-911 647.5,-911 641.5,-911 635.5,-905 635.5,-899 635.5,-899 635.5,-887 635.5,-887 635.5,-881 641.5,-875 647.5,-875 647.5,-875 752.5,-875 752.5,-875 758.5,-875 764.5,-881 764.5,-887 764.5,-887 764.5,-899 764.5,-899 764.5,-905 758.5,-911 752.5,-911"/>
<text text-anchor="middle" x="700" y="-889.3" font-family="Times,serif" font-size="14.00">cloud_final_halo</text>
</g>
<!-- cloud_champion_wind&#45;&gt;cloud_final_halo -->
<g id="edge49" class="edge">
<title>cloud_champion_wind&#45;&gt;cloud_final_halo</title>
<path fill="none" stroke="#7e57c2" d="M541.66,-893C568.88,-893 598.78,-893 625.14,-893"/>
<polygon fill="#7e57c2" stroke="#7e57c2" points="625.43,-896.5 635.43,-893 625.43,-889.5 625.43,-896.5"/>
</g>
<!-- cloud_champion_rain&#45;&gt;cloud_final_halo -->
<g id="edge50" class="edge">
<title>cloud_champion_rain&#45;&gt;cloud_final_halo</title>
<path fill="none" stroke="#7e57c2" d="M537.59,-928.94C565.91,-922.64 597.54,-915.59 625.24,-909.43"/>
<polygon fill="#7e57c2" stroke="#7e57c2" points="626.25,-912.79 635.25,-907.2 624.73,-905.95 626.25,-912.79"/>
</g>
<!-- cloud_final_tempest -->
<g id="node69" class="node">
<title>cloud_final_tempest</title>
<path fill="lightgrey" stroke="black" d="M767,-1019C767,-1019 633,-1019 633,-1019 627,-1019 621,-1013 621,-1007 621,-1007 621,-995 621,-995 621,-989 627,-983 633,-983 633,-983 767,-983 767,-983 773,-983 779,-989 779,-995 779,-995 779,-1007 779,-1007 779,-1013 773,-1019 767,-1019"/>
<text text-anchor="middle" x="700" y="-997.3" font-family="Times,serif" font-size="14.00">cloud_final_tempest</text>
</g>
<!-- cloud_champion_rain&#45;&gt;cloud_final_tempest -->
<g id="edge51" class="edge">
<title>cloud_champion_rain&#45;&gt;cloud_final_tempest</title>
<path fill="none" stroke="#7e57c2" d="M537.59,-965.06C561.18,-970.31 587.07,-976.08 611.07,-981.42"/>
<polygon fill="#7e57c2" stroke="#7e57c2" points="610.35,-984.84 620.87,-983.6 611.87,-978.01 610.35,-984.84"/>
</g>
<!-- cloud_champion_storm&#45;&gt;cloud_final_jetstream -->
<g id="edge53" class="edge">
<title>cloud_champion_storm&#45;&gt;cloud_final_jetstream</title>
<path fill="none" stroke="#7e57c2" d="M537.59,-982.94C560.24,-977.9 584.99,-972.39 608.17,-967.23"/>
<polygon fill="#7e57c2" stroke="#7e57c2" points="608.99,-970.63 617.99,-965.04 607.47,-963.8 608.99,-970.63"/>
</g>
<!-- cloud_champion_storm&#45;&gt;cloud_final_tempest -->
<g id="edge52" class="edge">
<title>cloud_champion_storm&#45;&gt;cloud_final_tempest</title>
<path fill="none" stroke="#7e57c2" d="M545.08,-1001C566.45,-1001 589.29,-1001 610.65,-1001"/>
<polygon fill="#7e57c2" stroke="#7e57c2" points="610.68,-1004.5 620.68,-1001 610.68,-997.5 610.68,-1004.5"/>
</g>
<!-- archive_baby -->
<g id="node29" class="node">
<title>archive_baby</title>
<path fill="#ce93d8" stroke="black" d="M121,-1156C121,-1156 35,-1156 35,-1156 29,-1156 23,-1150 23,-1144 23,-1144 23,-1132 23,-1132 23,-1126 29,-1120 35,-1120 35,-1120 121,-1120 121,-1120 127,-1120 133,-1126 133,-1132 133,-1132 133,-1144 133,-1144 133,-1150 127,-1156 121,-1156"/>
<text text-anchor="middle" x="78" y="-1134.3" font-family="Times,serif" font-size="14.00">archive_baby</text>
</g>
<!-- archive_rookie -->
<g id="node30" class="node">
<title>archive_rookie</title>
<path fill="#ce93d8" stroke="black" d="M291,-1156C291,-1156 195,-1156 195,-1156 189,-1156 183,-1150 183,-1144 183,-1144 183,-1132 183,-1132 183,-1126 189,-1120 195,-1120 195,-1120 291,-1120 291,-1120 297,-1120 303,-1126 303,-1132 303,-1132 303,-1144 303,-1144 303,-1150 297,-1156 291,-1156"/>
<text text-anchor="middle" x="243" y="-1134.3" font-family="Times,serif" font-size="14.00">archive_rookie</text>
</g>
<!-- archive_baby&#45;&gt;archive_rookie -->
<g id="edge54" class="edge">
<title>archive_baby&#45;&gt;archive_rookie</title>
<path fill="none" stroke="black" d="M133.28,-1138C145.97,-1138 159.66,-1138 172.9,-1138"/>
<polygon fill="black" stroke="black" points="172.92,-1141.5 182.92,-1138 172.92,-1134.5 172.92,-1141.5"/>
</g>
<!-- archive_champion_logic -->
<g id="node31" class="node">
<title>archive_champion_logic</title>
<path fill="#ce93d8" stroke="black" d="M536,-1102C536,-1102 375,-1102 375,-1102 369,-1102 363,-1096 363,-1090 363,-1090 363,-1078 363,-1078 363,-1072 369,-1066 375,-1066 375,-1066 536,-1066 536,-1066 542,-1066 548,-1072 548,-1078 548,-1078 548,-1090 548,-1090 548,-1096 542,-1102 536,-1102"/>
<text text-anchor="middle" x="455.5" y="-1080.3" font-family="Times,serif" font-size="14.00">archive_champion_logic</text>
</g>
<!-- archive_rookie&#45;&gt;archive_champion_logic -->
<g id="edge55" class="edge">
<title>archive_rookie&#45;&gt;archive_champion_logic</title>
<path fill="none" stroke="#7e57c2" d="M303.02,-1122.22C317.09,-1118.5 332.07,-1114.58 346,-1111 354.33,-1108.86 363.03,-1106.65 371.72,-1104.46"/>
<polygon fill="#7e57c2" stroke="#7e57c2" points="372.66,-1107.84 381.51,-1102.01 370.96,-1101.05 372.66,-1107.84"/>
</g>
<!-- archive_champion_index -->
<g id="node32" class="node">
<title>archive_champion_index</title>
<path fill="#ce93d8" stroke="black" d="M539,-1156C539,-1156 372,-1156 372,-1156 366,-1156 360,-1150 360,-1144 360,-1144 360,-1132 360,-1132 360,-1126 366,-1120 372,-1120 372,-1120 539,-1120 539,-1120 545,-1120 551,-1126 551,-1132 551,-1132 551,-1144 551,-1144 551,-1150 545,-1156 539,-1156"/>
<text text-anchor="middle" x="455.5" y="-1134.3" font-family="Times,serif" font-size="14.00">archive_champion_index</text>
</g>
<!-- archive_rookie&#45;&gt;archive_champion_index -->
<g id="edge56" class="edge">
<title>archive_rookie&#45;&gt;archive_champion_index</title>
<path fill="none" stroke="#7e57c2" d="M303.2,-1138C317.66,-1138 333.57,-1138 349.47,-1138"/>
<polygon fill="#7e57c2" stroke="#7e57c2" points="349.91,-1141.5 359.91,-1138 349.91,-1134.5 349.91,-1141.5"/>
</g>
<!-- archive_champion_fragment -->
<g id="node33" class="node">
<title>archive_champion_fragment</title>
<path fill="#ce93d8" stroke="black" d="M552.5,-1210C552.5,-1210 358.5,-1210 358.5,-1210 352.5,-1210 346.5,-1204 346.5,-1198 346.5,-1198 346.5,-1186 346.5,-1186 346.5,-1180 352.5,-1174 358.5,-1174 358.5,-1174 552.5,-1174 552.5,-1174 558.5,-1174 564.5,-1180 564.5,-1186 564.5,-1186 564.5,-1198 564.5,-1198 564.5,-1204 558.5,-1210 552.5,-1210"/>
<text text-anchor="middle" x="455.5" y="-1188.3" font-family="Times,serif" font-size="14.00">archive_champion_fragment</text>
</g>
<!-- archive_rookie&#45;&gt;archive_champion_fragment -->
<g id="edge57" class="edge">
<title>archive_rookie&#45;&gt;archive_champion_fragment</title>
<path fill="none" stroke="#7e57c2" d="M303.02,-1153.78C317.09,-1157.5 332.07,-1161.42 346,-1165 354.33,-1167.14 363.03,-1169.35 371.72,-1171.54"/>
<polygon fill="#7e57c2" stroke="#7e57c2" points="370.96,-1174.95 381.51,-1173.99 372.66,-1168.16 370.96,-1174.95"/>
</g>
<!-- archive_final_compiler -->
<g id="node70" class="node">
<title>archive_final_compiler</title>
<path fill="lightgrey" stroke="black" d="M776,-1156C776,-1156 624,-1156 624,-1156 618,-1156 612,-1150 612,-1144 612,-1144 612,-1132 612,-1132 612,-1126 618,-1120 624,-1120 624,-1120 776,-1120 776,-1120 782,-1120 788,-1126 788,-1132 788,-1132 788,-1144 788,-1144 788,-1150 782,-1156 776,-1156"/>
<text text-anchor="middle" x="700" y="-1134.3" font-family="Times,serif" font-size="14.00">archive_final_compiler</text>
</g>
<!-- archive_champion_logic&#45;&gt;archive_final_compiler -->
<g id="edge58" class="edge">
<title>archive_champion_logic&#45;&gt;archive_final_compiler</title>
<path fill="none" stroke="#7e57c2" d="M537.59,-1102.06C560.24,-1107.1 584.99,-1112.61 608.17,-1117.77"/>
<polygon fill="#7e57c2" stroke="#7e57c2" points="607.47,-1121.2 617.99,-1119.96 608.99,-1114.37 607.47,-1121.2"/>
</g>
<!-- archive_final_librarian -->
<g id="node71" class="node">
<title>archive_final_librarian</title>
<path fill="lightgrey" stroke="black" d="M775.5,-1102C775.5,-1102 624.5,-1102 624.5,-1102 618.5,-1102 612.5,-1096 612.5,-1090 612.5,-1090 612.5,-1078 612.5,-1078 612.5,-1072 618.5,-1066 624.5,-1066 624.5,-1066 775.5,-1066 775.5,-1066 781.5,-1066 787.5,-1072 787.5,-1078 787.5,-1078 787.5,-1090 787.5,-1090 787.5,-1096 781.5,-1102 775.5,-1102"/>
<text text-anchor="middle" x="700" y="-1080.3" font-family="Times,serif" font-size="14.00">archive_final_librarian</text>
</g>
<!-- archive_champion_logic&#45;&gt;archive_final_librarian -->
<g id="edge59" class="edge">
<title>archive_champion_logic&#45;&gt;archive_final_librarian</title>
<path fill="none" stroke="#7e57c2" d="M548.18,-1084C565.78,-1084 584.27,-1084 602.03,-1084"/>
<polygon fill="#7e57c2" stroke="#7e57c2" points="602.4,-1087.5 612.4,-1084 602.4,-1080.5 602.4,-1087.5"/>
</g>
<!-- archive_champion_index&#45;&gt;archive_final_librarian -->
<g id="edge60" class="edge">
<title>archive_champion_index&#45;&gt;archive_final_librarian</title>
<path fill="none" stroke="#7e57c2" d="M537.59,-1119.94C560.24,-1114.9 584.99,-1109.39 608.17,-1104.23"/>
<polygon fill="#7e57c2" stroke="#7e57c2" points="608.99,-1107.63 617.99,-1102.04 607.47,-1100.8 608.99,-1107.63"/>
</g>
<!-- archive_final_corrupt -->
<g id="node72" class="node">
<title>archive_final_corrupt</title>
<path fill="lightgrey" stroke="black" d="M771.5,-1210C771.5,-1210 628.5,-1210 628.5,-1210 622.5,-1210 616.5,-1204 616.5,-1198 616.5,-1198 616.5,-1186 616.5,-1186 616.5,-1180 622.5,-1174 628.5,-1174 628.5,-1174 771.5,-1174 771.5,-1174 777.5,-1174 783.5,-1180 783.5,-1186 783.5,-1186 783.5,-1198 783.5,-1198 783.5,-1204 777.5,-1210 771.5,-1210"/>
<text text-anchor="middle" x="700" y="-1188.3" font-family="Times,serif" font-size="14.00">archive_final_corrupt</text>
</g>
<!-- archive_champion_index&#45;&gt;archive_final_corrupt -->
<g id="edge61" class="edge">
<title>archive_champion_index&#45;&gt;archive_final_corrupt</title>
<path fill="none" stroke="#7e57c2" d="M537.59,-1156.06C560.24,-1161.1 584.99,-1166.61 608.17,-1171.77"/>
<polygon fill="#7e57c2" stroke="#7e57c2" points="607.47,-1175.2 617.99,-1173.96 608.99,-1168.37 607.47,-1175.2"/>
</g>
<!-- archive_champion_fragment&#45;&gt;archive_final_compiler -->
<g id="edge63" class="edge">
<title>archive_champion_fragment&#45;&gt;archive_final_compiler</title>
<path fill="none" stroke="#7e57c2" d="M537.59,-1173.94C560.24,-1168.9 584.99,-1163.39 608.17,-1158.23"/>
<polygon fill="#7e57c2" stroke="#7e57c2" points="608.99,-1161.63 617.99,-1156.04 607.47,-1154.8 608.99,-1161.63"/>
</g>
<!-- archive_champion_fragment&#45;&gt;archive_final_corrupt -->
<g id="edge62" class="edge">
<title>archive_champion_fragment&#45;&gt;archive_final_corrupt</title>
<path fill="none" stroke="#7e57c2" d="M564.63,-1192C578.42,-1192 592.44,-1192 605.96,-1192"/>
<polygon fill="#7e57c2" stroke="#7e57c2" points="606.19,-1195.5 616.19,-1192 606.19,-1188.5 606.19,-1195.5"/>
</g>
<!-- corrupt_baby -->
<g id="node34" class="node">
<title>corrupt_baby</title>
<path fill="#ef5350" stroke="black" d="M121.5,-1347C121.5,-1347 34.5,-1347 34.5,-1347 28.5,-1347 22.5,-1341 22.5,-1335 22.5,-1335 22.5,-1323 22.5,-1323 22.5,-1317 28.5,-1311 34.5,-1311 34.5,-1311 121.5,-1311 121.5,-1311 127.5,-1311 133.5,-1317 133.5,-1323 133.5,-1323 133.5,-1335 133.5,-1335 133.5,-1341 127.5,-1347 121.5,-1347"/>
<text text-anchor="middle" x="78" y="-1325.3" font-family="Times,serif" font-size="14.00">corrupt_baby</text>
</g>
<!-- corrupt_rookie -->
<g id="node35" class="node">
<title>corrupt_rookie</title>
<path fill="#ef5350" stroke="black" d="M291.5,-1347C291.5,-1347 194.5,-1347 194.5,-1347 188.5,-1347 182.5,-1341 182.5,-1335 182.5,-1335 182.5,-1323 182.5,-1323 182.5,-1317 188.5,-1311 194.5,-1311 194.5,-1311 291.5,-1311 291.5,-1311 297.5,-1311 303.5,-1317 303.5,-1323 303.5,-1323 303.5,-1335 303.5,-1335 303.5,-1341 297.5,-1347 291.5,-1347"/>
<text text-anchor="middle" x="243" y="-1325.3" font-family="Times,serif" font-size="14.00">corrupt_rookie</text>
</g>
<!-- corrupt_baby&#45;&gt;corrupt_rookie -->
<g id="edge64" class="edge">
<title>corrupt_baby&#45;&gt;corrupt_rookie</title>
<path fill="none" stroke="black" d="M133.73,-1329C146.06,-1329 159.32,-1329 172.17,-1329"/>
<polygon fill="black" stroke="black" points="172.38,-1332.5 182.38,-1329 172.38,-1325.5 172.38,-1332.5"/>
</g>
<!-- corrupt_champion_glitch -->
<g id="node36" class="node">
<title>corrupt_champion_glitch</title>
<path fill="#ef5350" stroke="black" d="M540,-1347C540,-1347 371,-1347 371,-1347 365,-1347 359,-1341 359,-1335 359,-1335 359,-1323 359,-1323 359,-1317 365,-1311 371,-1311 371,-1311 540,-1311 540,-1311 546,-1311 552,-1317 552,-1323 552,-1323 552,-1335 552,-1335 552,-1341 546,-1347 540,-1347"/>
<text text-anchor="middle" x="455.5" y="-1325.3" font-family="Times,serif" font-size="14.00">corrupt_champion_glitch</text>
</g>
<!-- corrupt_rookie&#45;&gt;corrupt_champion_glitch -->
<g id="edge65" class="edge">
<title>corrupt_rookie&#45;&gt;corrupt_champion_glitch</title>
<path fill="none" stroke="#7e57c2" d="M303.76,-1329C317.82,-1329 333.22,-1329 348.63,-1329"/>
<polygon fill="#7e57c2" stroke="#7e57c2" points="348.75,-1332.5 358.75,-1329 348.75,-1325.5 348.75,-1332.5"/>
</g>
<!-- corrupt_champion_error -->
<g id="node37" class="node">
<title>corrupt_champion_error</title>
<path fill="#ef5350" stroke="black" d="M538,-1401C538,-1401 373,-1401 373,-1401 367,-1401 361,-1395 361,-1389 361,-1389 361,-1377 361,-1377 361,-1371 367,-1365 373,-1365 373,-1365 538,-1365 538,-1365 544,-1365 550,-1371 550,-1377 550,-1377 550,-1389 550,-1389 550,-1395 544,-1401 538,-1401"/>
<text text-anchor="middle" x="455.5" y="-1379.3" font-family="Times,serif" font-size="14.00">corrupt_champion_error</text>
</g>
<!-- corrupt_rookie&#45;&gt;corrupt_champion_error -->
<g id="edge66" class="edge">
<title>corrupt_rookie&#45;&gt;corrupt_champion_error</title>
<path fill="none" stroke="#7e57c2" d="M303.56,-1344.93C317.48,-1348.6 332.25,-1352.47 346,-1356 354.33,-1358.14 363.03,-1360.35 371.72,-1362.54"/>
<polygon fill="#7e57c2" stroke="#7e57c2" points="370.96,-1365.95 381.51,-1364.99 372.66,-1359.16 370.96,-1365.95"/>
</g>
<!-- corrupt_champion_patchfail -->
<g id="node38" class="node">
<title>corrupt_champion_patchfail</title>
<path fill="#ef5350" stroke="black" d="M551,-1293C551,-1293 360,-1293 360,-1293 354,-1293 348,-1287 348,-1281 348,-1281 348,-1269 348,-1269 348,-1263 354,-1257 360,-1257 360,-1257 551,-1257 551,-1257 557,-1257 563,-1263 563,-1269 563,-1269 563,-1281 563,-1281 563,-1287 557,-1293 551,-1293"/>
<text text-anchor="middle" x="455.5" y="-1271.3" font-family="Times,serif" font-size="14.00">corrupt_champion_patchfail</text>
</g>
<!-- corrupt_rookie&#45;&gt;corrupt_champion_patchfail -->
<g id="edge67" class="edge">
<title>corrupt_rookie&#45;&gt;corrupt_champion_patchfail</title>
<path fill="none" stroke="#7e57c2" d="M303.56,-1313.07C317.48,-1309.4 332.25,-1305.53 346,-1302 354.33,-1299.86 363.03,-1297.65 371.72,-1295.46"/>
<polygon fill="#7e57c2" stroke="#7e57c2" points="372.66,-1298.84 381.51,-1293.01 370.96,-1292.05 372.66,-1298.84"/>
</g>
<!-- corrupt_final_corruptcore -->
<g id="node73" class="node">
<title>corrupt_final_corruptcore</title>
<path fill="lightgrey" stroke="black" d="M787,-1374C787,-1374 613,-1374 613,-1374 607,-1374 601,-1368 601,-1362 601,-1362 601,-1350 601,-1350 601,-1344 607,-1338 613,-1338 613,-1338 787,-1338 787,-1338 793,-1338 799,-1344 799,-1350 799,-1350 799,-1362 799,-1362 799,-1368 793,-1374 787,-1374"/>
<text text-anchor="middle" x="700" y="-1352.3" font-family="Times,serif" font-size="14.00">corrupt_final_corruptcore</text>
</g>
<!-- corrupt_champion_glitch&#45;&gt;corrupt_final_corruptcore -->
<g id="edge68" class="edge">
<title>corrupt_champion_glitch&#45;&gt;corrupt_final_corruptcore</title>
<path fill="none" stroke="#7e57c2" d="M552.34,-1339.67C564.88,-1341.07 577.79,-1342.5 590.52,-1343.92"/>
<polygon fill="#7e57c2" stroke="#7e57c2" points="590.35,-1347.42 600.67,-1345.05 591.12,-1340.47 590.35,-1347.42"/>
</g>
<!-- corrupt_final_overrun -->
<g id="node74" class="node">
<title>corrupt_final_overrun</title>
<path fill="lightgrey" stroke="black" d="M773,-1320C773,-1320 627,-1320 627,-1320 621,-1320 615,-1314 615,-1308 615,-1308 615,-1296 615,-1296 615,-1290 621,-1284 627,-1284 627,-1284 773,-1284 773,-1284 779,-1284 785,-1290 785,-1296 785,-1296 785,-1308 785,-1308 785,-1314 779,-1320 773,-1320"/>
<text text-anchor="middle" x="700" y="-1298.3" font-family="Times,serif" font-size="14.00">corrupt_final_overrun</text>
</g>
<!-- corrupt_champion_glitch&#45;&gt;corrupt_final_overrun -->
<g id="edge69" class="edge">
<title>corrupt_champion_glitch&#45;&gt;corrupt_final_overrun</title>
<path fill="none" stroke="#7e57c2" d="M552.34,-1318.33C569.61,-1316.41 587.59,-1314.4 604.81,-1312.49"/>
<polygon fill="#7e57c2" stroke="#7e57c2" points="605.29,-1315.96 614.84,-1311.37 604.52,-1309 605.29,-1315.96"/>
</g>
<!-- corrupt_champion_error&#45;&gt;corrupt_final_corruptcore -->
<g id="edge71" class="edge">
<title>corrupt_champion_error&#45;&gt;corrupt_final_corruptcore</title>
<path fill="none" stroke="#7e57c2" d="M550.26,-1372.56C563.43,-1371.09 577.05,-1369.58 590.47,-1368.08"/>
<polygon fill="#7e57c2" stroke="#7e57c2" points="591.13,-1371.53 600.68,-1366.95 590.35,-1364.58 591.13,-1371.53"/>
</g>
<!-- corrupt_champion_error&#45;&gt;corrupt_final_overrun -->
<g id="edge70" class="edge">
<title>corrupt_champion_error&#45;&gt;corrupt_final_overrun</title>
<path fill="none" stroke="#7e57c2" d="M550.07,-1366.13C558.04,-1363.26 565.79,-1359.91 573,-1356 588.19,-1347.75 585.98,-1337.56 601,-1329 604.04,-1327.27 607.2,-1325.64 610.45,-1324.11"/>
<polygon fill="#7e57c2" stroke="#7e57c2" points="611.99,-1327.26 619.77,-1320.07 609.2,-1320.84 611.99,-1327.26"/>
</g>
<!-- corrupt_champion_patchfail&#45;&gt;corrupt_final_corruptcore -->
<g id="edge72" class="edge">
<title>corrupt_champion_patchfail&#45;&gt;corrupt_final_corruptcore</title>
<path fill="none" stroke="#7e57c2" d="M553.39,-1293.1C560.19,-1295.68 566.8,-1298.63 573,-1302 588.19,-1310.25 585.98,-1320.44 601,-1329 604.04,-1330.73 607.2,-1332.36 610.45,-1333.89"/>
<polygon fill="#7e57c2" stroke="#7e57c2" points="609.2,-1337.16 619.77,-1337.93 611.99,-1330.74 609.2,-1337.16"/>
</g>
<!-- corrupt_champion_patchfail&#45;&gt;corrupt_final_overrun -->
<g id="edge73" class="edge">
<title>corrupt_champion_patchfail&#45;&gt;corrupt_final_overrun</title>
<path fill="none" stroke="#7e57c2" d="M563.22,-1286.88C576.99,-1288.42 591.01,-1289.98 604.57,-1291.49"/>
<polygon fill="#7e57c2" stroke="#7e57c2" points="604.5,-1295 614.83,-1292.63 605.28,-1288.04 604.5,-1295"/>
</g>
<!-- echo_baby -->
<g id="node39" class="node">
<title>echo_baby</title>
<path fill="#ba68c8" stroke="black" d="M111.5,-1538C111.5,-1538 44.5,-1538 44.5,-1538 38.5,-1538 32.5,-1532 32.5,-1526 32.5,-1526 32.5,-1514 32.5,-1514 32.5,-1508 38.5,-1502 44.5,-1502 44.5,-1502 111.5,-1502 111.5,-1502 117.5,-1502 123.5,-1508 123.5,-1514 123.5,-1514 123.5,-1526 123.5,-1526 123.5,-1532 117.5,-1538 111.5,-1538"/>
<text text-anchor="middle" x="78" y="-1516.3" font-family="Times,serif" font-size="14.00">echo_baby</text>
</g>
<!-- echo_rookie -->
<g id="node40" class="node">
<title>echo_rookie</title>
<path fill="#ba68c8" stroke="black" d="M281.5,-1538C281.5,-1538 204.5,-1538 204.5,-1538 198.5,-1538 192.5,-1532 192.5,-1526 192.5,-1526 192.5,-1514 192.5,-1514 192.5,-1508 198.5,-1502 204.5,-1502 204.5,-1502 281.5,-1502 281.5,-1502 287.5,-1502 293.5,-1508 293.5,-1514 293.5,-1514 293.5,-1526 293.5,-1526 293.5,-1532 287.5,-1538 281.5,-1538"/>
<text text-anchor="middle" x="243" y="-1516.3" font-family="Times,serif" font-size="14.00">echo_rookie</text>
</g>
<!-- echo_baby&#45;&gt;echo_rookie -->
<g id="edge74" class="edge">
<title>echo_baby&#45;&gt;echo_rookie</title>
<path fill="none" stroke="black" d="M123.54,-1520C141.6,-1520 162.73,-1520 182.1,-1520"/>
<polygon fill="black" stroke="black" points="182.35,-1523.5 192.35,-1520 182.35,-1516.5 182.35,-1523.5"/>
</g>
<!-- echo_champion_resonate -->
<g id="node41" class="node">
<title>echo_champion_resonate</title>
<path fill="#ba68c8" stroke="black" d="M540.5,-1538C540.5,-1538 370.5,-1538 370.5,-1538 364.5,-1538 358.5,-1532 358.5,-1526 358.5,-1526 358.5,-1514 358.5,-1514 358.5,-1508 364.5,-1502 370.5,-1502 370.5,-1502 540.5,-1502 540.5,-1502 546.5,-1502 552.5,-1508 552.5,-1514 552.5,-1514 552.5,-1526 552.5,-1526 552.5,-1532 546.5,-1538 540.5,-1538"/>
<text text-anchor="middle" x="455.5" y="-1516.3" font-family="Times,serif" font-size="14.00">echo_champion_resonate</text>
</g>
<!-- echo_rookie&#45;&gt;echo_champion_resonate -->
<g id="edge75" class="edge">
<title>echo_rookie&#45;&gt;echo_champion_resonate</title>
<path fill="none" stroke="#7e57c2" d="M293.62,-1520C310,-1520 328.91,-1520 347.87,-1520"/>
<polygon fill="#7e57c2" stroke="#7e57c2" points="348.09,-1523.5 358.09,-1520 348.09,-1516.5 348.09,-1523.5"/>
</g>
<!-- echo_champion_reverb -->
<g id="node42" class="node">
<title>echo_champion_reverb</title>
<path fill="#ba68c8" stroke="black" d="M533,-1592C533,-1592 378,-1592 378,-1592 372,-1592 366,-1586 366,-1580 366,-1580 366,-1568 366,-1568 366,-1562 372,-1556 378,-1556 378,-1556 533,-1556 533,-1556 539,-1556 545,-1562 545,-1568 545,-1568 545,-1580 545,-1580 545,-1586 539,-1592 533,-1592"/>
<text text-anchor="middle" x="455.5" y="-1570.3" font-family="Times,serif" font-size="14.00">echo_champion_reverb</text>
</g>
<!-- echo_rookie&#45;&gt;echo_champion_reverb -->
<g id="edge76" class="edge">
<title>echo_rookie&#45;&gt;echo_champion_reverb</title>
<path fill="none" stroke="#7e57c2" d="M293.51,-1533.26C310.17,-1537.69 328.88,-1542.6 346,-1547 354.33,-1549.14 363.03,-1551.35 371.72,-1553.54"/>
<polygon fill="#7e57c2" stroke="#7e57c2" points="370.96,-1556.95 381.51,-1555.99 372.66,-1550.16 370.96,-1556.95"/>
</g>
<!-- echo_champion_distort -->
<g id="node43" class="node">
<title>echo_champion_distort</title>
<path fill="#ba68c8" stroke="black" d="M533.5,-1484C533.5,-1484 377.5,-1484 377.5,-1484 371.5,-1484 365.5,-1478 365.5,-1472 365.5,-1472 365.5,-1460 365.5,-1460 365.5,-1454 371.5,-1448 377.5,-1448 377.5,-1448 533.5,-1448 533.5,-1448 539.5,-1448 545.5,-1454 545.5,-1460 545.5,-1460 545.5,-1472 545.5,-1472 545.5,-1478 539.5,-1484 533.5,-1484"/>
<text text-anchor="middle" x="455.5" y="-1462.3" font-family="Times,serif" font-size="14.00">echo_champion_distort</text>
</g>
<!-- echo_rookie&#45;&gt;echo_champion_distort -->
<g id="edge77" class="edge">
<title>echo_rookie&#45;&gt;echo_champion_distort</title>
<path fill="none" stroke="#7e57c2" d="M293.51,-1506.74C310.17,-1502.31 328.88,-1497.4 346,-1493 354.33,-1490.86 363.03,-1488.65 371.72,-1486.46"/>
<polygon fill="#7e57c2" stroke="#7e57c2" points="372.66,-1489.84 381.51,-1484.01 370.96,-1483.05 372.66,-1489.84"/>
</g>
<!-- echo_final_harmonic -->
<g id="node75" class="node">
<title>echo_final_harmonic</title>
<path fill="lightgrey" stroke="black" d="M768.5,-1559C768.5,-1559 631.5,-1559 631.5,-1559 625.5,-1559 619.5,-1553 619.5,-1547 619.5,-1547 619.5,-1535 619.5,-1535 619.5,-1529 625.5,-1523 631.5,-1523 631.5,-1523 768.5,-1523 768.5,-1523 774.5,-1523 780.5,-1529 780.5,-1535 780.5,-1535 780.5,-1547 780.5,-1547 780.5,-1553 774.5,-1559 768.5,-1559"/>
<text text-anchor="middle" x="700" y="-1537.3" font-family="Times,serif" font-size="14.00">echo_final_harmonic</text>
</g>
<!-- echo_champion_resonate&#45;&gt;echo_final_harmonic -->
<g id="edge78" class="edge">
<title>echo_champion_resonate&#45;&gt;echo_final_harmonic</title>
<path fill="none" stroke="#7e57c2" d="M552.69,-1528.33C571.32,-1529.94 590.78,-1531.63 609.2,-1533.22"/>
<polygon fill="#7e57c2" stroke="#7e57c2" points="609.05,-1536.72 619.31,-1534.1 609.65,-1529.75 609.05,-1536.72"/>
</g>
<!-- echo_final_feedback -->
<g id="node76" class="node">
<title>echo_final_feedback</title>
<path fill="lightgrey" stroke="black" d="M767,-1505C767,-1505 633,-1505 633,-1505 627,-1505 621,-1499 621,-1493 621,-1493 621,-1481 621,-1481 621,-1475 627,-1469 633,-1469 633,-1469 767,-1469 767,-1469 773,-1469 779,-1475 779,-1481 779,-1481 779,-1493 779,-1493 779,-1499 773,-1505 767,-1505"/>
<text text-anchor="middle" x="700" y="-1483.3" font-family="Times,serif" font-size="14.00">echo_final_feedback</text>
</g>
<!-- echo_champion_resonate&#45;&gt;echo_final_feedback -->
<g id="edge79" class="edge">
<title>echo_champion_resonate&#45;&gt;echo_final_feedback</title>
<path fill="none" stroke="#7e57c2" d="M552.69,-1506.91C571.86,-1504.3 591.9,-1501.57 610.78,-1499"/>
<polygon fill="#7e57c2" stroke="#7e57c2" points="611.4,-1502.45 620.84,-1497.64 610.46,-1495.52 611.4,-1502.45"/>
</g>
<!-- echo_champion_reverb&#45;&gt;echo_final_harmonic -->
<g id="edge81" class="edge">
<title>echo_champion_reverb&#45;&gt;echo_final_harmonic</title>
<path fill="none" stroke="#7e57c2" d="M545.08,-1561.95C566.01,-1559.1 588.34,-1556.06 609.32,-1553.2"/>
<polygon fill="#7e57c2" stroke="#7e57c2" points="610.06,-1556.64 619.49,-1551.82 609.11,-1549.7 610.06,-1556.64"/>
</g>
<!-- echo_champion_reverb&#45;&gt;echo_final_feedback -->
<g id="edge80" class="edge">
<title>echo_champion_reverb&#45;&gt;echo_final_feedback</title>
<path fill="none" stroke="#7e57c2" d="M545.09,-1559.87C554.88,-1556.47 564.4,-1552.24 573,-1547 589.42,-1536.99 584.79,-1524.35 601,-1514 604.38,-1511.85 607.92,-1509.86 611.59,-1508.03"/>
<polygon fill="#7e57c2" stroke="#7e57c2" points="613.24,-1511.13 620.89,-1503.8 610.34,-1504.75 613.24,-1511.13"/>
</g>
<!-- echo_champion_distort&#45;&gt;echo_final_harmonic -->
<g id="edge83" class="edge">
<title>echo_champion_distort&#45;&gt;echo_final_harmonic</title>
<path fill="none" stroke="#7e57c2" d="M545.59,-1482.56C555.03,-1485.52 564.34,-1488.97 573,-1493 587.1,-1499.56 587.04,-1507.15 601,-1514 604.83,-1515.88 608.81,-1517.65 612.89,-1519.3"/>
<polygon fill="#7e57c2" stroke="#7e57c2" points="611.92,-1522.68 622.51,-1522.97 614.42,-1516.14 611.92,-1522.68"/>
</g>
<!-- echo_champion_distort&#45;&gt;echo_final_feedback -->
<g id="edge82" class="edge">
<title>echo_champion_distort&#45;&gt;echo_final_feedback</title>
<path fill="none" stroke="#7e57c2" d="M545.76,-1473.73C566.89,-1475.56 589.4,-1477.51 610.49,-1479.34"/>
<polygon fill="#7e57c2" stroke="#7e57c2" points="610.45,-1482.85 620.72,-1480.22 611.06,-1475.87 610.45,-1482.85"/>
</g>
<!-- core_baby -->
<g id="node44" class="node">
<title>core_baby</title>
<path fill="#4fc3f7" stroke="black" d="M110.5,-1729C110.5,-1729 45.5,-1729 45.5,-1729 39.5,-1729 33.5,-1723 33.5,-1717 33.5,-1717 33.5,-1705 33.5,-1705 33.5,-1699 39.5,-1693 45.5,-1693 45.5,-1693 110.5,-1693 110.5,-1693 116.5,-1693 122.5,-1699 122.5,-1705 122.5,-1705 122.5,-1717 122.5,-1717 122.5,-1723 116.5,-1729 110.5,-1729"/>
<text text-anchor="middle" x="78" y="-1707.3" font-family="Times,serif" font-size="14.00">core_baby</text>
</g>
<!-- core_rookie -->
<g id="node45" class="node">
<title>core_rookie</title>
<path fill="#4fc3f7" stroke="black" d="M280,-1729C280,-1729 206,-1729 206,-1729 200,-1729 194,-1723 194,-1717 194,-1717 194,-1705 194,-1705 194,-1699 200,-1693 206,-1693 206,-1693 280,-1693 280,-1693 286,-1693 292,-1699 292,-1705 292,-1705 292,-1717 292,-1717 292,-1723 286,-1729 280,-1729"/>
<text text-anchor="middle" x="243" y="-1707.3" font-family="Times,serif" font-size="14.00">core_rookie</text>
</g>
<!-- core_baby&#45;&gt;core_rookie -->
<g id="edge84" class="edge">
<title>core_baby&#45;&gt;core_rookie</title>
<path fill="none" stroke="black" d="M122.68,-1711C141.48,-1711 163.72,-1711 183.88,-1711"/>
<polygon fill="black" stroke="black" points="183.9,-1714.5 193.9,-1711 183.9,-1707.5 183.9,-1714.5"/>
</g>
<!-- core_champion_power -->
<g id="node46" class="node">
<title>core_champion_power</title>
<path fill="#4fc3f7" stroke="black" d="M530.5,-1675C530.5,-1675 380.5,-1675 380.5,-1675 374.5,-1675 368.5,-1669 368.5,-1663 368.5,-1663 368.5,-1651 368.5,-1651 368.5,-1645 374.5,-1639 380.5,-1639 380.5,-1639 530.5,-1639 530.5,-1639 536.5,-1639 542.5,-1645 542.5,-1651 542.5,-1651 542.5,-1663 542.5,-1663 542.5,-1669 536.5,-1675 530.5,-1675"/>
<text text-anchor="middle" x="455.5" y="-1653.3" font-family="Times,serif" font-size="14.00">core_champion_power</text>
</g>
<!-- core_rookie&#45;&gt;core_champion_power -->
<g id="edge85" class="edge">
<title>core_rookie&#45;&gt;core_champion_power</title>
<path fill="none" stroke="#7e57c2" d="M292.22,-1698.08C309.2,-1693.57 328.43,-1688.51 346,-1684 354.33,-1681.86 363.03,-1679.65 371.72,-1677.46"/>
<polygon fill="#7e57c2" stroke="#7e57c2" points="372.66,-1680.84 381.51,-1675.01 370.96,-1674.05 372.66,-1680.84"/>
</g>
<!-- core_champion_guard -->
<g id="node47" class="node">
<title>core_champion_guard</title>
<path fill="#4fc3f7" stroke="black" d="M529.5,-1783C529.5,-1783 381.5,-1783 381.5,-1783 375.5,-1783 369.5,-1777 369.5,-1771 369.5,-1771 369.5,-1759 369.5,-1759 369.5,-1753 375.5,-1747 381.5,-1747 381.5,-1747 529.5,-1747 529.5,-1747 535.5,-1747 541.5,-1753 541.5,-1759 541.5,-1759 541.5,-1771 541.5,-1771 541.5,-1777 535.5,-1783 529.5,-1783"/>
<text text-anchor="middle" x="455.5" y="-1761.3" font-family="Times,serif" font-size="14.00">core_champion_guard</text>
</g>
<!-- core_rookie&#45;&gt;core_champion_guard -->
<g id="edge86" class="edge">
<title>core_rookie&#45;&gt;core_champion_guard</title>
<path fill="none" stroke="#7e57c2" d="M292.22,-1723.92C309.2,-1728.43 328.43,-1733.49 346,-1738 354.33,-1740.14 363.03,-1742.35 371.72,-1744.54"/>
<polygon fill="#7e57c2" stroke="#7e57c2" points="370.96,-1747.95 381.51,-1746.99 372.66,-1741.16 370.96,-1747.95"/>
</g>
<!-- core_champion_speed -->
<g id="node48" class="node">
<title>core_champion_speed</title>
<path fill="#4fc3f7" stroke="black" d="M529.5,-1729C529.5,-1729 381.5,-1729 381.5,-1729 375.5,-1729 369.5,-1723 369.5,-1717 369.5,-1717 369.5,-1705 369.5,-1705 369.5,-1699 375.5,-1693 381.5,-1693 381.5,-1693 529.5,-1693 529.5,-1693 535.5,-1693 541.5,-1699 541.5,-1705 541.5,-1705 541.5,-1717 541.5,-1717 541.5,-1723 535.5,-1729 529.5,-1729"/>
<text text-anchor="middle" x="455.5" y="-1707.3" font-family="Times,serif" font-size="14.00">core_champion_speed</text>
</g>
<!-- core_rookie&#45;&gt;core_champion_speed -->
<g id="edge87" class="edge">
<title>core_rookie&#45;&gt;core_champion_speed</title>
<path fill="none" stroke="#7e57c2" d="M292.03,-1711C312.01,-1711 335.94,-1711 359.21,-1711"/>
<polygon fill="#7e57c2" stroke="#7e57c2" points="359.48,-1714.5 369.48,-1711 359.48,-1707.5 359.48,-1714.5"/>
</g>
<!-- core_final_overclock -->
<g id="node77" class="node">
<title>core_final_overclock</title>
<path fill="lightgrey" stroke="black" d="M767.5,-1635C767.5,-1635 632.5,-1635 632.5,-1635 626.5,-1635 620.5,-1629 620.5,-1623 620.5,-1623 620.5,-1611 620.5,-1611 620.5,-1605 626.5,-1599 632.5,-1599 632.5,-1599 767.5,-1599 767.5,-1599 773.5,-1599 779.5,-1605 779.5,-1611 779.5,-1611 779.5,-1623 779.5,-1623 779.5,-1629 773.5,-1635 767.5,-1635"/>
<text text-anchor="middle" x="700" y="-1613.3" font-family="Times,serif" font-size="14.00">core_final_overclock</text>
</g>
<!-- core_champion_power&#45;&gt;core_final_overclock -->
<g id="edge88" class="edge">
<title>core_champion_power&#45;&gt;core_final_overclock</title>
<path fill="none" stroke="#7e57c2" d="M542.68,-1642.78C564.64,-1639.16 588.27,-1635.26 610.35,-1631.62"/>
<polygon fill="#7e57c2" stroke="#7e57c2" points="611.08,-1635.05 620.38,-1629.97 609.94,-1628.14 611.08,-1635.05"/>
</g>
<!-- core_final_prime -->
<g id="node78" class="node">
<title>core_final_prime</title>
<path fill="lightgrey" stroke="black" d="M755,-1743C755,-1743 645,-1743 645,-1743 639,-1743 633,-1737 633,-1731 633,-1731 633,-1719 633,-1719 633,-1713 639,-1707 645,-1707 645,-1707 755,-1707 755,-1707 761,-1707 767,-1713 767,-1719 767,-1719 767,-1731 767,-1731 767,-1737 761,-1743 755,-1743"/>
<text text-anchor="middle" x="700" y="-1721.3" font-family="Times,serif" font-size="14.00">core_final_prime</text>
</g>
<!-- core_champion_power&#45;&gt;core_final_prime -->
<g id="edge89" class="edge">
<title>core_champion_power&#45;&gt;core_final_prime</title>
<path fill="none" stroke="#7e57c2" d="M542.74,-1674.56C553.05,-1677.37 563.33,-1680.52 573,-1684 586.09,-1688.71 588.01,-1693.02 601,-1698 608.13,-1700.73 615.64,-1703.31 623.21,-1705.71"/>
<polygon fill="#7e57c2" stroke="#7e57c2" points="622.21,-1709.07 632.8,-1708.66 624.27,-1702.38 622.21,-1709.07"/>
</g>
<!-- core_champion_guard&#45;&gt;core_final_prime -->
<g id="edge91" class="edge">
<title>core_champion_guard&#45;&gt;core_final_prime</title>
<path fill="none" stroke="#7e57c2" d="M541.66,-1750.95C568.04,-1746.6 596.93,-1741.84 622.68,-1737.59"/>
<polygon fill="#7e57c2" stroke="#7e57c2" points="623.46,-1741.01 632.75,-1735.93 622.32,-1734.1 623.46,-1741.01"/>
</g>
<!-- core_final_bastion -->
<g id="node79" class="node">
<title>core_final_bastion</title>
<path fill="lightgrey" stroke="black" d="M760,-1797C760,-1797 640,-1797 640,-1797 634,-1797 628,-1791 628,-1785 628,-1785 628,-1773 628,-1773 628,-1767 634,-1761 640,-1761 640,-1761 760,-1761 760,-1761 766,-1761 772,-1767 772,-1773 772,-1773 772,-1785 772,-1785 772,-1791 766,-1797 760,-1797"/>
<text text-anchor="middle" x="700" y="-1775.3" font-family="Times,serif" font-size="14.00">core_final_bastion</text>
</g>
<!-- core_champion_guard&#45;&gt;core_final_bastion -->
<g id="edge90" class="edge">
<title>core_champion_guard&#45;&gt;core_final_bastion</title>
<path fill="none" stroke="#7e57c2" d="M541.66,-1769.92C566.25,-1771.34 593.03,-1772.88 617.41,-1774.29"/>
<polygon fill="#7e57c2" stroke="#7e57c2" points="617.51,-1777.8 627.7,-1774.88 617.92,-1770.81 617.51,-1777.8"/>
</g>
<!-- core_champion_speed&#45;&gt;core_final_prime -->
<g id="edge93" class="edge">
<title>core_champion_speed&#45;&gt;core_final_prime</title>
<path fill="none" stroke="#7e57c2" d="M541.66,-1715.92C568.04,-1717.44 596.93,-1719.11 622.68,-1720.59"/>
<polygon fill="#7e57c2" stroke="#7e57c2" points="622.57,-1724.09 632.75,-1721.18 622.97,-1717.1 622.57,-1724.09"/>
</g>
<!-- core_final_photon -->
<g id="node80" class="node">
<title>core_final_photon</title>
<path fill="lightgrey" stroke="black" d="M758.5,-1689C758.5,-1689 641.5,-1689 641.5,-1689 635.5,-1689 629.5,-1683 629.5,-1677 629.5,-1677 629.5,-1665 629.5,-1665 629.5,-1659 635.5,-1653 641.5,-1653 641.5,-1653 758.5,-1653 758.5,-1653 764.5,-1653 770.5,-1659 770.5,-1665 770.5,-1665 770.5,-1677 770.5,-1677 770.5,-1683 764.5,-1689 758.5,-1689"/>
<text text-anchor="middle" x="700" y="-1667.3" font-family="Times,serif" font-size="14.00">core_final_photon</text>
</g>
<!-- core_champion_speed&#45;&gt;core_final_photon -->
<g id="edge92" class="edge">
<title>core_champion_speed&#45;&gt;core_final_photon</title>
<path fill="none" stroke="#7e57c2" d="M541.66,-1696.95C566.84,-1692.8 594.32,-1688.27 619.16,-1684.17"/>
<polygon fill="#7e57c2" stroke="#7e57c2" points="619.97,-1687.58 629.26,-1682.5 618.83,-1680.68 619.97,-1687.58"/>
</g>
<!-- pulse_baby -->
<g id="node49" class="node">
<title>pulse_baby</title>
<path fill="#f06292" stroke="black" d="M114,-1920C114,-1920 42,-1920 42,-1920 36,-1920 30,-1914 30,-1908 30,-1908 30,-1896 30,-1896 30,-1890 36,-1884 42,-1884 42,-1884 114,-1884 114,-1884 120,-1884 126,-1890 126,-1896 126,-1896 126,-1908 126,-1908 126,-1914 120,-1920 114,-1920"/>
<text text-anchor="middle" x="78" y="-1898.3" font-family="Times,serif" font-size="14.00">pulse_baby</text>
</g>
<!-- pulse_rookie -->
<g id="node50" class="node">
<title>pulse_rookie</title>
<path fill="#f06292" stroke="black" d="M284,-1920C284,-1920 202,-1920 202,-1920 196,-1920 190,-1914 190,-1908 190,-1908 190,-1896 190,-1896 190,-1890 196,-1884 202,-1884 202,-1884 284,-1884 284,-1884 290,-1884 296,-1890 296,-1896 296,-1896 296,-1908 296,-1908 296,-1914 290,-1920 284,-1920"/>
<text text-anchor="middle" x="243" y="-1898.3" font-family="Times,serif" font-size="14.00">pulse_rookie</text>
</g>
<!-- pulse_baby&#45;&gt;pulse_rookie -->
<g id="edge94" class="edge">
<title>pulse_baby&#45;&gt;pulse_rookie</title>
<path fill="none" stroke="black" d="M126.15,-1902C142.81,-1902 161.82,-1902 179.55,-1902"/>
<polygon fill="black" stroke="black" points="179.82,-1905.5 189.82,-1902 179.82,-1898.5 179.82,-1905.5"/>
</g>
<!-- pulse_champion_surge -->
<g id="node51" class="node">
<title>pulse_champion_surge</title>
<path fill="#f06292" stroke="black" d="M532.5,-1866C532.5,-1866 378.5,-1866 378.5,-1866 372.5,-1866 366.5,-1860 366.5,-1854 366.5,-1854 366.5,-1842 366.5,-1842 366.5,-1836 372.5,-1830 378.5,-1830 378.5,-1830 532.5,-1830 532.5,-1830 538.5,-1830 544.5,-1836 544.5,-1842 544.5,-1842 544.5,-1854 544.5,-1854 544.5,-1860 538.5,-1866 532.5,-1866"/>
<text text-anchor="middle" x="455.5" y="-1844.3" font-family="Times,serif" font-size="14.00">pulse_champion_surge</text>
</g>
<!-- pulse_rookie&#45;&gt;pulse_champion_surge -->
<g id="edge95" class="edge">
<title>pulse_rookie&#45;&gt;pulse_champion_surge</title>
<path fill="none" stroke="#7e57c2" d="M296.11,-1888.05C312.11,-1883.81 329.77,-1879.17 346,-1875 354.33,-1872.86 363.03,-1870.65 371.72,-1868.46"/>
<polygon fill="#7e57c2" stroke="#7e57c2" points="372.66,-1871.84 381.51,-1866.01 370.96,-1865.05 372.66,-1871.84"/>
</g>
<!-- pulse_champion_resonance -->
<g id="node52" class="node">
<title>pulse_champion_resonance</title>
<path fill="#f06292" stroke="black" d="M548.5,-1920C548.5,-1920 362.5,-1920 362.5,-1920 356.5,-1920 350.5,-1914 350.5,-1908 350.5,-1908 350.5,-1896 350.5,-1896 350.5,-1890 356.5,-1884 362.5,-1884 362.5,-1884 548.5,-1884 548.5,-1884 554.5,-1884 560.5,-1890 560.5,-1896 560.5,-1896 560.5,-1908 560.5,-1908 560.5,-1914 554.5,-1920 548.5,-1920"/>
<text text-anchor="middle" x="455.5" y="-1898.3" font-family="Times,serif" font-size="14.00">pulse_champion_resonance</text>
</g>
<!-- pulse_rookie&#45;&gt;pulse_champion_resonance -->
<g id="edge96" class="edge">
<title>pulse_rookie&#45;&gt;pulse_champion_resonance</title>
<path fill="none" stroke="#7e57c2" d="M296.03,-1902C309.62,-1902 324.8,-1902 340.25,-1902"/>
<polygon fill="#7e57c2" stroke="#7e57c2" points="340.43,-1905.5 350.43,-1902 340.43,-1898.5 340.43,-1905.5"/>
</g>
<!-- pulse_champion_static -->
<g id="node53" class="node">
<title>pulse_champion_static</title>
<path fill="#f06292" stroke="black" d="M532,-1974C532,-1974 379,-1974 379,-1974 373,-1974 367,-1968 367,-1962 367,-1962 367,-1950 367,-1950 367,-1944 373,-1938 379,-1938 379,-1938 532,-1938 532,-1938 538,-1938 544,-1944 544,-1950 544,-1950 544,-1962 544,-1962 544,-1968 538,-1974 532,-1974"/>
<text text-anchor="middle" x="455.5" y="-1952.3" font-family="Times,serif" font-size="14.00">pulse_champion_static</text>
</g>
<!-- pulse_rookie&#45;&gt;pulse_champion_static -->
<g id="edge97" class="edge">
<title>pulse_rookie&#45;&gt;pulse_champion_static</title>
<path fill="none" stroke="#7e57c2" d="M296.11,-1915.95C312.11,-1920.19 329.77,-1924.83 346,-1929 354.33,-1931.14 363.03,-1933.35 371.72,-1935.54"/>
<polygon fill="#7e57c2" stroke="#7e57c2" points="370.96,-1938.95 381.51,-1937.99 372.66,-1932.16 370.96,-1938.95"/>
</g>
<!-- pulse_final_overdrive -->
<g id="node81" class="node">
<title>pulse_final_overdrive</title>
<path fill="lightgrey" stroke="black" d="M771.5,-1920C771.5,-1920 628.5,-1920 628.5,-1920 622.5,-1920 616.5,-1914 616.5,-1908 616.5,-1908 616.5,-1896 616.5,-1896 616.5,-1890 622.5,-1884 628.5,-1884 628.5,-1884 771.5,-1884 771.5,-1884 777.5,-1884 783.5,-1890 783.5,-1896 783.5,-1896 783.5,-1908 783.5,-1908 783.5,-1914 777.5,-1920 771.5,-1920"/>
<text text-anchor="middle" x="700" y="-1898.3" font-family="Times,serif" font-size="14.00">pulse_final_overdrive</text>
</g>
<!-- pulse_champion_surge&#45;&gt;pulse_final_overdrive -->
<g id="edge98" class="edge">
<title>pulse_champion_surge&#45;&gt;pulse_final_overdrive</title>
<path fill="none" stroke="#7e57c2" d="M537.59,-1866.06C560.24,-1871.1 584.99,-1876.61 608.17,-1881.77"/>
<polygon fill="#7e57c2" stroke="#7e57c2" points="607.47,-1885.2 617.99,-1883.96 608.99,-1878.37 607.47,-1885.2"/>
</g>
<!-- pulse_final_sync -->
<g id="node82" class="node">
<title>pulse_final_sync</title>
<path fill="lightgrey" stroke="black" d="M753.5,-1866C753.5,-1866 646.5,-1866 646.5,-1866 640.5,-1866 634.5,-1860 634.5,-1854 634.5,-1854 634.5,-1842 634.5,-1842 634.5,-1836 640.5,-1830 646.5,-1830 646.5,-1830 753.5,-1830 753.5,-1830 759.5,-1830 765.5,-1836 765.5,-1842 765.5,-1842 765.5,-1854 765.5,-1854 765.5,-1860 759.5,-1866 753.5,-1866"/>
<text text-anchor="middle" x="700" y="-1844.3" font-family="Times,serif" font-size="14.00">pulse_final_sync</text>
</g>
<!-- pulse_champion_surge&#45;&gt;pulse_final_sync -->
<g id="edge99" class="edge">
<title>pulse_champion_surge&#45;&gt;pulse_final_sync</title>
<path fill="none" stroke="#7e57c2" d="M544.73,-1848C570.8,-1848 599.07,-1848 624.2,-1848"/>
<polygon fill="#7e57c2" stroke="#7e57c2" points="624.4,-1851.5 634.4,-1848 624.4,-1844.5 624.4,-1851.5"/>
</g>
<!-- pulse_champion_resonance&#45;&gt;pulse_final_sync -->
<g id="edge100" class="edge">
<title>pulse_champion_resonance&#45;&gt;pulse_final_sync</title>
<path fill="none" stroke="#7e57c2" d="M537.59,-1883.94C565.67,-1877.69 596.99,-1870.72 624.52,-1864.59"/>
<polygon fill="#7e57c2" stroke="#7e57c2" points="625.47,-1867.96 634.47,-1862.37 623.95,-1861.13 625.47,-1867.96"/>
</g>
<!-- pulse_final_staticstorm -->
<g id="node83" class="node">
<title>pulse_final_staticstorm</title>
<path fill="lightgrey" stroke="black" d="M778.5,-1974C778.5,-1974 621.5,-1974 621.5,-1974 615.5,-1974 609.5,-1968 609.5,-1962 609.5,-1962 609.5,-1950 609.5,-1950 609.5,-1944 615.5,-1938 621.5,-1938 621.5,-1938 778.5,-1938 778.5,-1938 784.5,-1938 790.5,-1944 790.5,-1950 790.5,-1950 790.5,-1962 790.5,-1962 790.5,-1968 784.5,-1974 778.5,-1974"/>
<text text-anchor="middle" x="700" y="-1952.3" font-family="Times,serif" font-size="14.00">pulse_final_staticstorm</text>
</g>
<!-- pulse_champion_resonance&#45;&gt;pulse_final_staticstorm -->
<g id="edge101" class="edge">
<title>pulse_champion_resonance&#45;&gt;pulse_final_staticstorm</title>
<path fill="none" stroke="#7e57c2" d="M537.59,-1920.06C560.24,-1925.1 584.99,-1930.61 608.17,-1935.77"/>
<polygon fill="#7e57c2" stroke="#7e57c2" points="607.47,-1939.2 617.99,-1937.96 608.99,-1932.37 607.47,-1939.2"/>
</g>
<!-- pulse_champion_static&#45;&gt;pulse_final_overdrive -->
<g id="edge103" class="edge">
<title>pulse_champion_static&#45;&gt;pulse_final_overdrive</title>
<path fill="none" stroke="#7e57c2" d="M537.59,-1937.94C560.24,-1932.9 584.99,-1927.39 608.17,-1922.23"/>
<polygon fill="#7e57c2" stroke="#7e57c2" points="608.99,-1925.63 617.99,-1920.04 607.47,-1918.8 608.99,-1925.63"/>
</g>
<!-- pulse_champion_static&#45;&gt;pulse_final_staticstorm -->
<g id="edge102" class="edge">
<title>pulse_champion_static&#45;&gt;pulse_final_staticstorm</title>
<path fill="none" stroke="#7e57c2" d="M544.05,-1956C561.91,-1956 580.82,-1956 599.07,-1956"/>
<polygon fill="#7e57c2" stroke="#7e57c2" points="599.13,-1959.5 609.13,-1956 599.13,-1952.5 599.13,-1959.5"/>
</g>
</g>
</svg>
