<?xml version="1.0" encoding="UTF-8" standalone="no"?>
<!DOCTYPE svg PUBLIC "-//W3C//DTD SVG 1.1//EN"
 "http://www.w3.org/Graphics/SVG/1.1/DTD/svg11.dtd">
<!-- Generated by graphviz version 14.1.2 (20260124.0452)
 -->
<!-- Title: EvolutionTree Pages: 1 -->
<svg width="668pt" height="2053pt"
 viewBox="0.00 0.00 668.00 2053.00" xmlns="http://www.w3.org/2000/svg" xmlns:xlink="http://www.w3.org/1999/xlink">
<g id="graph0" class="graph" transform="scale(1 1) rotate(0) translate(4 2049)">
<title>EvolutionTree</title>
<polygon fill="white" stroke="none" points="-4,4 -4,-2049 663.75,-2049 663.75,4 -4,4"/>
<g id="clust1" class="cluster">
<title>cluster_archive</title>
<path fill="#f5f5f5" stroke="black" d="M25.25,-8C25.25,-8 463.88,-8 463.88,-8 469.88,-8 475.88,-14 475.88,-20 475.88,-20 475.88,-181 475.88,-181 475.88,-187 469.88,-193 463.88,-193 463.88,-193 25.25,-193 25.25,-193 19.25,-193 13.25,-187 13.25,-181 13.25,-181 13.25,-20 13.25,-20 13.25,-14 19.25,-8 25.25,-8"/>
<text xml:space="preserve" text-anchor="middle" x="244.56" y="-175.7" font-family="Times New Roman,serif" font-size="14.00">ARCHIVE</text>
</g>
<g id="clust2" class="cluster">
<title>cluster_cloud</title>
<path fill="#f5f5f5" stroke="black" d="M30.12,-201C30.12,-201 450,-201 450,-201 456,-201 462,-207 462,-213 462,-213 462,-374 462,-374 462,-380 456,-386 450,-386 450,-386 30.12,-386 30.12,-386 24.12,-386 18.12,-380 18.12,-374 18.12,-374 18.12,-213 18.12,-213 18.12,-207 24.12,-201 30.12,-201"/>
<text xml:space="preserve" text-anchor="middle" x="240.06" y="-368.7" font-family="Times New Roman,serif" font-size="14.00">CLOUD</text>
</g>
<g id="clust3" class="cluster">
<title>cluster_core</title>
<path fill="#f5f5f5" stroke="black" d="M33.5,-405C33.5,-405 447.75,-405 447.75,-405 453.75,-405 459.75,-411 459.75,-417 459.75,-417 459.75,-578 459.75,-578 459.75,-584 453.75,-590 447.75,-590 447.75,-590 33.5,-590 33.5,-590 27.5,-590 21.5,-584 21.5,-578 21.5,-578 21.5,-417 21.5,-417 21.5,-411 27.5,-405 33.5,-405"/>
<text xml:space="preserve" text-anchor="middle" x="240.62" y="-572.7" font-family="Times New Roman,serif" font-size="14.00">CORE</text>
</g>
<g id="clust4" class="cluster">
<title>cluster_corrupt</title>
<path fill="#f5f5f5" stroke="black" d="M25.62,-598C25.62,-598 462.38,-598 462.38,-598 468.38,-598 474.38,-604 474.38,-610 474.38,-610 474.38,-771 474.38,-771 474.38,-777 468.38,-783 462.38,-783 462.38,-783 25.62,-783 25.62,-783 19.62,-783 13.62,-777 13.62,-771 13.62,-771 13.62,-610 13.62,-610 13.62,-604 19.62,-598 25.62,-598"/>
<text xml:space="preserve" text-anchor="middle" x="244" y="-765.7" font-family="Times New Roman,serif" font-size="14.00">CORRUPT</text>
</g>
<g id="clust5" class="cluster">
<title>cluster_dream</title>
<path fill="#f5f5f5" stroke="black" d="M27.88,-791C27.88,-791 464.25,-791 464.25,-791 470.25,-791 476.25,-797 476.25,-803 476.25,-803 476.25,-964 476.25,-964 476.25,-970 470.25,-976 464.25,-976 464.25,-976 27.88,-976 27.88,-976 21.88,-976 15.88,-970 15.88,-964 15.88,-964 15.88,-803 15.88,-803 15.88,-797 21.88,-791 27.88,-791"/>
<text xml:space="preserve" text-anchor="middle" x="246.06" y="-958.7" font-family="Times New Roman,serif" font-size="14.00">DREAM</text>
</g>
<g id="clust6" class="cluster">
<title>cluster_echo</title>
<path fill="#f5f5f5" stroke="black" d="M32.38,-984C32.38,-984 454.5,-984 454.5,-984 460.5,-984 466.5,-990 466.5,-996 466.5,-996 466.5,-1157 466.5,-1157 466.5,-1163 460.5,-1169 454.5,-1169 454.5,-1169 32.38,-1169 32.38,-1169 26.38,-1169 20.38,-1163 20.38,-1157 20.38,-1157 20.38,-996 20.38,-996 20.38,-990 26.38,-984 32.38,-984"/>
<text xml:space="preserve" text-anchor="middle" x="243.44" y="-1151.7" font-family="Times New Roman,serif" font-size="14.00">ECHO</text>
</g>
<g id="clust7" class="cluster">
<title>cluster_codeborn</title>
<path fill="#f5f5f5" stroke="black" d="M20,-1177C20,-1177 441,-1177 441,-1177 447,-1177 453,-1183 453,-1189 453,-1189 453,-1242 453,-1242 453,-1248 447,-1254 441,-1254 441,-1254 20,-1254 20,-1254 14,-1254 8,-1248 8,-1242 8,-1242 8,-1189 8,-1189 8,-1183 14,-1177 20,-1177"/>
<text xml:space="preserve" text-anchor="middle" x="230.5" y="-1236.7" font-family="Times New Roman,serif" font-size="14.00">CODEBORN</text>
</g>
<g id="clust8" class="cluster">
<title>cluster_firewall</title>
<path fill="#f5f5f5" stroke="black" d="M24.12,-1262C24.12,-1262 460.5,-1262 460.5,-1262 466.5,-1262 472.5,-1268 472.5,-1274 472.5,-1274 472.5,-1435 472.5,-1435 472.5,-1441 466.5,-1447 460.5,-1447 460.5,-1447 24.12,-1447 24.12,-1447 18.12,-1447 12.12,-1441 12.12,-1435 12.12,-1435 12.12,-1274 12.12,-1274 12.12,-1268 18.12,-1262 24.12,-1262"/>
<text xml:space="preserve" text-anchor="middle" x="242.31" y="-1429.7" font-family="Times New Roman,serif" font-size="14.00">FIREWALL</text>
</g>
<g id="clust9" class="cluster">
<title>cluster_pulse</title>
<path fill="#f5f5f5" stroke="black" d="M30.88,-1455C30.88,-1455 460.5,-1455 460.5,-1455 466.5,-1455 472.5,-1461 472.5,-1467 472.5,-1467 472.5,-1628 472.5,-1628 472.5,-1634 466.5,-1640 460.5,-1640 460.5,-1640 30.88,-1640 30.88,-1640 24.88,-1640 18.88,-1634 18.88,-1628 18.88,-1628 18.88,-1467 18.88,-1467 18.88,-1461 24.88,-1455 30.88,-1455"/>
<text xml:space="preserve" text-anchor="middle" x="245.69" y="-1622.7" font-family="Times New Roman,serif" font-size="14.00">PULSE</text>
</g>
<g id="clust10" class="cluster">
<title>cluster_root</title>
<path fill="#f5f5f5" stroke="black" d="M34.25,-1648C34.25,-1648 447.75,-1648 447.75,-1648 453.75,-1648 459.75,-1654 459.75,-1660 459.75,-1660 459.75,-1821 459.75,-1821 459.75,-1827 453.75,-1833 447.75,-1833 447.75,-1833 34.25,-1833 34.25,-1833 28.25,-1833 22.25,-1827 22.25,-1821 22.25,-1821 22.25,-1660 22.25,-1660 22.25,-1654 28.25,-1648 34.25,-1648"/>
<text xml:space="preserve" text-anchor="middle" x="241" y="-1815.7" font-family="Times New Roman,serif" font-size="14.00">ROOT</text>
</g>
<g id="clust11" class="cluster">
<title>cluster_void</title>
<path fill="#f5f5f5" stroke="black" d="M33.12,-1852C33.12,-1852 451.88,-1852 451.88,-1852 457.88,-1852 463.88,-1858 463.88,-1864 463.88,-1864 463.88,-2025 463.88,-2025 463.88,-2031 457.88,-2037 451.88,-2037 451.88,-2037 33.12,-2037 33.12,-2037 27.12,-2037 21.12,-2031 21.12,-2025 21.12,-2025 21.12,-1864 21.12,-1864 21.12,-1858 27.12,-1852 33.12,-1852"/>
<text xml:space="preserve" text-anchor="middle" x="242.5" y="-2019.7" font-family="Times New Roman,serif" font-size="14.00">VOID</text>
</g>
<!-- archive_baby -->
<g id="node1" class="node">
<title>archive_baby</title>
<path fill="#ce93d8" stroke="black" d="M98,-106C98,-106 33.25,-106 33.25,-106 27.25,-106 21.25,-100 21.25,-94 21.25,-94 21.25,-82 21.25,-82 21.25,-76 27.25,-70 33.25,-70 33.25,-70 98,-70 98,-70 104,-70 110,-76 110,-82 110,-82 110,-94 110,-94 110,-100 104,-106 98,-106"/>
<text xml:space="preserve" text-anchor="middle" x="65.62" y="-82.95" font-family="Times New Roman,serif" font-size="14.00">archive_baby</text>
</g>
<!-- archive_rookie -->
<g id="node2" class="node">
<title>archive_rookie</title>
<path fill="#ce93d8" stroke="black" d="M241.5,-106C241.5,-106 168.5,-106 168.5,-106 162.5,-106 156.5,-100 156.5,-94 156.5,-94 156.5,-82 156.5,-82 156.5,-76 162.5,-70 168.5,-70 168.5,-70 241.5,-70 241.5,-70 247.5,-70 253.5,-76 253.5,-82 253.5,-82 253.5,-94 253.5,-94 253.5,-100 247.5,-106 241.5,-106"/>
<text xml:space="preserve" text-anchor="middle" x="205" y="-82.95" font-family="Times New Roman,serif" font-size="14.00">archive_rookie</text>
</g>
<!-- archive_baby&#45;&gt;archive_rookie -->
<g id="edge1" class="edge">
<title>archive_baby&#45;&gt;archive_rookie</title>
<path fill="none" stroke="black" d="M110.47,-88C121.42,-88 133.35,-88 144.91,-88"/>
<polygon fill="black" stroke="black" points="144.78,-91.5 154.78,-88 144.78,-84.5 144.78,-91.5"/>
</g>
<!-- archive_champion_logic -->
<g id="node3" class="node">
<title>archive_champion_logic</title>
<path fill="#ce93d8" stroke="black" d="M444.62,-52C444.62,-52 318.38,-52 318.38,-52 312.38,-52 306.38,-46 306.38,-40 306.38,-40 306.38,-28 306.38,-28 306.38,-22 312.38,-16 318.38,-16 318.38,-16 444.62,-16 444.62,-16 450.62,-16 456.62,-22 456.62,-28 456.62,-28 456.62,-40 456.62,-40 456.62,-46 450.62,-52 444.62,-52"/>
<text xml:space="preserve" text-anchor="middle" x="381.5" y="-28.95" font-family="Times New Roman,serif" font-size="14.00">archive_champion_logic</text>
</g>
<!-- archive_rookie&#45;&gt;archive_champion_logic -->
<g id="edge2" class="edge">
<title>archive_rookie&#45;&gt;archive_champion_logic</title>
<path fill="none" stroke="#7e57c2" d="M253.68,-73.24C271.06,-67.87 291.09,-61.67 310.03,-55.81"/>
<polygon fill="#7e57c2" stroke="#7e57c2" points="311.06,-59.15 319.58,-52.85 308.99,-52.46 311.06,-59.15"/>
</g>
<!-- archive_champion_index -->
<g id="node4" class="node">
<title>archive_champion_index</title>
<path fill="#ce93d8" stroke="black" d="M446.12,-106C446.12,-106 316.88,-106 316.88,-106 310.88,-106 304.88,-100 304.88,-94 304.88,-94 304.88,-82 304.88,-82 304.88,-76 310.88,-70 316.88,-70 316.88,-70 446.12,-70 446.12,-70 452.12,-70 458.12,-76 458.12,-82 458.12,-82 458.12,-94 458.12,-94 458.12,-100 452.12,-106 446.12,-106"/>
<text xml:space="preserve" text-anchor="middle" x="381.5" y="-82.95" font-family="Times New Roman,serif" font-size="14.00">archive_champion_index</text>
</g>
<!-- archive_rookie&#45;&gt;archive_champion_index -->
<g id="edge3" class="edge">
<title>archive_rookie&#45;&gt;archive_champion_index</title>
<path fill="none" stroke="#7e57c2" d="M253.68,-88C265.98,-88 279.61,-88 293.24,-88"/>
<polygon fill="#7e57c2" stroke="#7e57c2" points="293.15,-91.5 303.15,-88 293.15,-84.5 293.15,-91.5"/>
</g>
<!-- archive_champion_fragment -->
<g id="node5" class="node">
<title>archive_champion_fragment</title>
<path fill="#ce93d8" stroke="black" d="M455.88,-160C455.88,-160 307.12,-160 307.12,-160 301.12,-160 295.12,-154 295.12,-148 295.12,-148 295.12,-136 295.12,-136 295.12,-130 301.12,-124 307.12,-124 307.12,-124 455.88,-124 455.88,-124 461.88,-124 467.88,-130 467.88,-136 467.88,-136 467.88,-148 467.88,-148 467.88,-154 461.88,-160 455.88,-160"/>
<text xml:space="preserve" text-anchor="middle" x="381.5" y="-136.95" font-family="Times New Roman,serif" font-size="14.00">archive_champion_fragment</text>
</g>
<!-- archive_rookie&#45;&gt;archive_champion_fragment -->
<g id="edge4" class="edge">
<title>archive_rookie&#45;&gt;archive_champion_fragment</title>
<path fill="none" stroke="#7e57c2" d="M253.68,-102.76C271.06,-108.13 291.09,-114.33 310.03,-120.19"/>
<polygon fill="#7e57c2" stroke="#7e57c2" points="308.99,-123.54 319.58,-123.15 311.06,-116.85 308.99,-123.54"/>
</g>
<!-- archive_final_compiler -->
<g id="node54" class="node">
<title>archive_final_compiler</title>
<path fill="lightgrey" stroke="black" d="M641.38,-106C641.38,-106 522.62,-106 522.62,-106 516.62,-106 510.62,-100 510.62,-94 510.62,-94 510.62,-82 510.62,-82 510.62,-76 516.62,-70 522.62,-70 522.62,-70 641.38,-70 641.38,-70 647.38,-70 653.38,-76 653.38,-82 653.38,-82 653.38,-94 653.38,-94 653.38,-100 647.38,-106 641.38,-106"/>
<text xml:space="preserve" text-anchor="middle" x="582" y="-82.95" font-family="Times New Roman,serif" font-size="14.00">archive_final_compiler</text>
</g>
<!-- archive_champion_logic&#45;&gt;archive_final_compiler -->
<g id="edge5" class="edge">
<title>archive_champion_logic&#45;&gt;archive_final_compiler</title>
<path fill="none" stroke="#7e57c2" d="M450.26,-52.43C467.09,-57.01 485.27,-61.96 502.57,-66.67"/>
<polygon fill="#7e57c2" stroke="#7e57c2" points="501.18,-69.91 511.75,-69.16 503.02,-63.16 501.18,-69.91"/>
</g>
<!-- archive_final_librarian -->
<g id="node55" class="node">
<title>archive_final_librarian</title>
<path fill="lightgrey" stroke="black" d="M639.88,-52C639.88,-52 524.12,-52 524.12,-52 518.12,-52 512.12,-46 512.12,-40 512.12,-40 512.12,-28 512.12,-28 512.12,-22 518.12,-16 524.12,-16 524.12,-16 639.88,-16 639.88,-16 645.88,-16 651.88,-22 651.88,-28 651.88,-28 651.88,-40 651.88,-40 651.88,-46 645.88,-52 639.88,-52"/>
<text xml:space="preserve" text-anchor="middle" x="582" y="-28.95" font-family="Times New Roman,serif" font-size="14.00">archive_final_librarian</text>
</g>
<!-- archive_champion_logic&#45;&gt;archive_final_librarian -->
<g id="edge6" class="edge">
<title>archive_champion_logic&#45;&gt;archive_final_librarian</title>
<path fill="none" stroke="#7e57c2" d="M456.98,-34C471.13,-34 485.99,-34 500.33,-34"/>
<polygon fill="#7e57c2" stroke="#7e57c2" points="500.17,-37.5 510.17,-34 500.17,-30.5 500.17,-37.5"/>
</g>
<!-- archive_champion_index&#45;&gt;archive_final_librarian -->
<g id="edge7" class="edge">
<title>archive_champion_index&#45;&gt;archive_final_librarian</title>
<path fill="none" stroke="#7e57c2" d="M450.26,-69.57C467.09,-64.99 485.27,-60.04 502.57,-55.33"/>
<polygon fill="#7e57c2" stroke="#7e57c2" points="503.02,-58.84 511.75,-52.84 501.18,-52.09 503.02,-58.84"/>
</g>
<!-- archive_final_corrupt -->
<g id="node56" class="node">
<title>archive_final_corrupt</title>
<path fill="lightgrey" stroke="black" d="M636.5,-160C636.5,-160 527.5,-160 527.5,-160 521.5,-160 515.5,-154 515.5,-148 515.5,-148 515.5,-136 515.5,-136 515.5,-130 521.5,-124 527.5,-124 527.5,-124 636.5,-124 636.5,-124 642.5,-124 648.5,-130 648.5,-136 648.5,-136 648.5,-148 648.5,-148 648.5,-154 642.5,-160 636.5,-160"/>
<text xml:space="preserve" text-anchor="middle" x="582" y="-136.95" font-family="Times New Roman,serif" font-size="14.00">archive_final_corrupt</text>
</g>
<!-- archive_champion_index&#45;&gt;archive_final_corrupt -->
<g id="edge8" class="edge">
<title>archive_champion_index&#45;&gt;archive_final_corrupt</title>
<path fill="none" stroke="#7e57c2" d="M450.26,-106.43C467.65,-111.16 486.48,-116.29 504.29,-121.13"/>
<polygon fill="#7e57c2" stroke="#7e57c2" points="503.2,-124.46 513.77,-123.71 505.04,-117.71 503.2,-124.46"/>
</g>
<!-- archive_champion_fragment&#45;&gt;archive_final_compiler -->
<g id="edge10" class="edge">
<title>archive_champion_fragment&#45;&gt;archive_final_compiler</title>
<path fill="none" stroke="#7e57c2" d="M450.26,-123.57C467.09,-118.99 485.27,-114.04 502.57,-109.33"/>
<polygon fill="#7e57c2" stroke="#7e57c2" points="503.02,-112.84 511.75,-106.84 501.18,-106.09 503.02,-112.84"/>
</g>
<!-- archive_champion_fragment&#45;&gt;archive_final_corrupt -->
<g id="edge9" class="edge">
<title>archive_champion_fragment&#45;&gt;archive_final_corrupt</title>
<path fill="none" stroke="#7e57c2" d="M468.12,-142C479.93,-142 491.99,-142 503.64,-142"/>
<polygon fill="#7e57c2" stroke="#7e57c2" points="503.6,-145.5 513.6,-142 503.6,-138.5 503.6,-145.5"/>
</g>
<!-- cloud_baby -->
<g id="node6" class="node">
<title>cloud_baby</title>
<path fill="#90caf9" stroke="black" d="M93.12,-299C93.12,-299 38.12,-299 38.12,-299 32.12,-299 26.12,-293 26.12,-287 26.12,-287 26.12,-275 26.12,-275 26.12,-269 32.12,-263 38.12,-263 38.12,-263 93.12,-263 93.12,-263 99.12,-263 105.12,-269 105.12,-275 105.12,-275 105.12,-287 105.12,-287 105.12,-293 99.12,-299 93.12,-299"/>
<text xml:space="preserve" text-anchor="middle" x="65.62" y="-275.95" font-family="Times New Roman,serif" font-size="14.00">cloud_baby</text>
</g>
<!-- cloud_rookie -->
<g id="node7" class="node">
<title>cloud_rookie</title>
<path fill="#90caf9" stroke="black" d="M236.62,-299C236.62,-299 173.38,-299 173.38,-299 167.38,-299 161.38,-293 161.38,-287 161.38,-287 161.38,-275 161.38,-275 161.38,-269 167.38,-263 173.38,-263 173.38,-263 236.62,-263 236.62,-263 242.62,-263 248.62,-269 248.62,-275 248.62,-275 248.62,-287 248.62,-287 248.62,-293 242.62,-299 236.62,-299"/>
<text xml:space="preserve" text-anchor="middle" x="205" y="-275.95" font-family="Times New Roman,serif" font-size="14.00">cloud_rookie</text>
</g>
<!-- cloud_baby&#45;&gt;cloud_rookie -->
<g id="edge11" class="edge">
<title>cloud_baby&#45;&gt;cloud_rookie</title>
<path fill="none" stroke="black" d="M105.62,-281C119.4,-281 135.16,-281 149.96,-281"/>
<polygon fill="black" stroke="black" points="149.53,-284.5 159.53,-281 149.53,-277.5 149.53,-284.5"/>
</g>
<!-- cloud_champion_wind -->
<g id="node8" class="node">
<title>cloud_champion_wind</title>
<path fill="#90caf9" stroke="black" d="M439.75,-245C439.75,-245 323.25,-245 323.25,-245 317.25,-245 311.25,-239 311.25,-233 311.25,-233 311.25,-221 311.25,-221 311.25,-215 317.25,-209 323.25,-209 323.25,-209 439.75,-209 439.75,-209 445.75,-209 451.75,-215 451.75,-221 451.75,-221 451.75,-233 451.75,-233 451.75,-239 445.75,-245 439.75,-245"/>
<text xml:space="preserve" text-anchor="middle" x="381.5" y="-221.95" font-family="Times New Roman,serif" font-size="14.00">cloud_champion_wind</text>
</g>
<!-- cloud_rookie&#45;&gt;cloud_champion_wind -->
<g id="edge12" class="edge">
<title>cloud_rookie&#45;&gt;cloud_champion_wind</title>
<path fill="none" stroke="#7e57c2" d="M248.69,-267.79C267.16,-262.07 289.28,-255.23 310.07,-248.8"/>
<polygon fill="#7e57c2" stroke="#7e57c2" points="310.83,-252.22 319.35,-245.92 308.76,-245.54 310.83,-252.22"/>
</g>
<!-- cloud_champion_rain -->
<g id="node9" class="node">
<title>cloud_champion_rain</title>
<path fill="#90caf9" stroke="black" d="M436.75,-299C436.75,-299 326.25,-299 326.25,-299 320.25,-299 314.25,-293 314.25,-287 314.25,-287 314.25,-275 314.25,-275 314.25,-269 320.25,-263 326.25,-263 326.25,-263 436.75,-263 436.75,-263 442.75,-263 448.75,-269 448.75,-275 448.75,-275 448.75,-287 448.75,-287 448.75,-293 442.75,-299 436.75,-299"/>
<text xml:space="preserve" text-anchor="middle" x="381.5" y="-275.95" font-family="Times New Roman,serif" font-size="14.00">cloud_champion_rain</text>
</g>
<!-- cloud_rookie&#45;&gt;cloud_champion_rain -->
<g id="edge13" class="edge">
<title>cloud_rookie&#45;&gt;cloud_champion_rain</title>
<path fill="none" stroke="#7e57c2" d="M248.69,-281C264.9,-281 283.91,-281 302.38,-281"/>
<polygon fill="#7e57c2" stroke="#7e57c2" points="302.26,-284.5 312.26,-281 302.26,-277.5 302.26,-284.5"/>
</g>
<!-- cloud_champion_storm -->
<g id="node10" class="node">
<title>cloud_champion_storm</title>
<path fill="#90caf9" stroke="black" d="M442,-353C442,-353 321,-353 321,-353 315,-353 309,-347 309,-341 309,-341 309,-329 309,-329 309,-323 315,-317 321,-317 321,-317 442,-317 442,-317 448,-317 454,-323 454,-329 454,-329 454,-341 454,-341 454,-347 448,-353 442,-353"/>
<text xml:space="preserve" text-anchor="middle" x="381.5" y="-329.95" font-family="Times New Roman,serif" font-size="14.00">cloud_champion_storm</text>
</g>
<!-- cloud_rookie&#45;&gt;cloud_champion_storm -->
<g id="edge14" class="edge">
<title>cloud_rookie&#45;&gt;cloud_champion_storm</title>
<path fill="none" stroke="#7e57c2" d="M248.69,-294.21C267.16,-299.93 289.28,-306.77 310.07,-313.2"/>
<polygon fill="#7e57c2" stroke="#7e57c2" points="308.76,-316.46 319.35,-316.08 310.83,-309.78 308.76,-316.46"/>
</g>
<!-- cloud_final_jetstream -->
<g id="node57" class="node">
<title>cloud_final_jetstream</title>
<path fill="lightgrey" stroke="black" d="M637.25,-299C637.25,-299 526.75,-299 526.75,-299 520.75,-299 514.75,-293 514.75,-287 514.75,-287 514.75,-275 514.75,-275 514.75,-269 520.75,-263 526.75,-263 526.75,-263 637.25,-263 637.25,-263 643.25,-263 649.25,-269 649.25,-275 649.25,-275 649.25,-287 649.25,-287 649.25,-293 643.25,-299 637.25,-299"/>
<text xml:space="preserve" text-anchor="middle" x="582" y="-275.95" font-family="Times New Roman,serif" font-size="14.00">cloud_final_jetstream</text>
</g>
<!-- cloud_champion_wind&#45;&gt;cloud_final_jetstream -->
<g id="edge15" class="edge">
<title>cloud_champion_wind&#45;&gt;cloud_final_jetstream</title>
<path fill="none" stroke="#7e57c2" d="M450.26,-245.43C467.46,-250.11 486.08,-255.18 503.72,-259.98"/>
<polygon fill="#7e57c2" stroke="#7e57c2" points="502.53,-263.28 513.1,-262.53 504.37,-256.52 502.53,-263.28"/>
</g>
<!-- cloud_final_halo -->
<g id="node58" class="node">
<title>cloud_final_halo</title>
<path fill="lightgrey" stroke="black" d="M623.75,-245C623.75,-245 540.25,-245 540.25,-245 534.25,-245 528.25,-239 528.25,-233 528.25,-233 528.25,-221 528.25,-221 528.25,-215 534.25,-209 540.25,-209 540.25,-209 623.75,-209 623.75,-209 629.75,-209 635.75,-215 635.75,-221 635.75,-221 635.75,-233 635.75,-233 635.75,-239 629.75,-245 623.75,-245"/>
<text xml:space="preserve" text-anchor="middle" x="582" y="-221.95" font-family="Times New Roman,serif" font-size="14.00">cloud_final_halo</text>
</g>
<!-- cloud_champion_wind&#45;&gt;cloud_final_halo -->
<g id="edge16" class="edge">
<title>cloud_champion_wind&#45;&gt;cloud_final_halo</title>
<path fill="none" stroke="#7e57c2" d="M452.2,-227C473.13,-227 495.98,-227 516.54,-227"/>
<polygon fill="#7e57c2" stroke="#7e57c2" points="516.52,-230.5 526.52,-227 516.52,-223.5 516.52,-230.5"/>
</g>
<!-- cloud_champion_rain&#45;&gt;cloud_final_halo -->
<g id="edge17" class="edge">
<title>cloud_champion_rain&#45;&gt;cloud_final_halo</title>
<path fill="none" stroke="#7e57c2" d="M449.15,-262.87C471.02,-256.92 495.26,-250.32 516.93,-244.43"/>
<polygon fill="#7e57c2" stroke="#7e57c2" points="517.81,-247.82 526.54,-241.81 515.98,-241.06 517.81,-247.82"/>
</g>
<!-- cloud_final_tempest -->
<g id="node59" class="node">
<title>cloud_final_tempest</title>
<path fill="lightgrey" stroke="black" d="M633.5,-353C633.5,-353 530.5,-353 530.5,-353 524.5,-353 518.5,-347 518.5,-341 518.5,-341 518.5,-329 518.5,-329 518.5,-323 524.5,-317 530.5,-317 530.5,-317 633.5,-317 633.5,-317 639.5,-317 645.5,-323 645.5,-329 645.5,-329 645.5,-341 645.5,-341 645.5,-347 639.5,-353 633.5,-353"/>
<text xml:space="preserve" text-anchor="middle" x="582" y="-329.95" font-family="Times New Roman,serif" font-size="14.00">cloud_final_tempest</text>
</g>
<!-- cloud_champion_rain&#45;&gt;cloud_final_tempest -->
<g id="edge18" class="edge">
<title>cloud_champion_rain&#45;&gt;cloud_final_tempest</title>
<path fill="none" stroke="#7e57c2" d="M449.15,-299.13C467.79,-304.2 488.16,-309.74 507.19,-314.92"/>
<polygon fill="#7e57c2" stroke="#7e57c2" points="506.19,-318.28 516.76,-317.52 508.03,-311.52 506.19,-318.28"/>
</g>
<!-- cloud_champion_storm&#45;&gt;cloud_final_jetstream -->
<g id="edge20" class="edge">
<title>cloud_champion_storm&#45;&gt;cloud_final_jetstream</title>
<path fill="none" stroke="#7e57c2" d="M450.26,-316.57C467.46,-311.89 486.08,-306.82 503.72,-302.02"/>
<polygon fill="#7e57c2" stroke="#7e57c2" points="504.37,-305.48 513.1,-299.47 502.53,-298.72 504.37,-305.48"/>
</g>
<!-- cloud_champion_storm&#45;&gt;cloud_final_tempest -->
<g id="edge19" class="edge">
<title>cloud_champion_storm&#45;&gt;cloud_final_tempest</title>
<path fill="none" stroke="#7e57c2" d="M454.44,-335C471.55,-335 489.84,-335 507.04,-335"/>
<polygon fill="#7e57c2" stroke="#7e57c2" points="506.65,-338.5 516.65,-335 506.65,-331.5 506.65,-338.5"/>
</g>
<!-- core_baby -->
<g id="node11" class="node">
<title>core_baby</title>
<path fill="#4fc3f7" stroke="black" d="M89.75,-503C89.75,-503 41.5,-503 41.5,-503 35.5,-503 29.5,-497 29.5,-491 29.5,-491 29.5,-479 29.5,-479 29.5,-473 35.5,-467 41.5,-467 41.5,-467 89.75,-467 89.75,-467 95.75,-467 101.75,-473 101.75,-479 101.75,-479 101.75,-491 101.75,-491 101.75,-497 95.75,-503 89.75,-503"/>
<text xml:space="preserve" text-anchor="middle" x="65.62" y="-479.95" font-family="Times New Roman,serif" font-size="14.00">core_baby</text>
</g>
<!-- core_rookie -->
<g id="node12" class="node">
<title>core_rookie</title>
<path fill="#4fc3f7" stroke="black" d="M233.25,-503C233.25,-503 176.75,-503 176.75,-503 170.75,-503 164.75,-497 164.75,-491 164.75,-491 164.75,-479 164.75,-479 164.75,-473 170.75,-467 176.75,-467 176.75,-467 233.25,-467 233.25,-467 239.25,-467 245.25,-473 245.25,-479 245.25,-479 245.25,-491 245.25,-491 245.25,-497 239.25,-503 233.25,-503"/>
<text xml:space="preserve" text-anchor="middle" x="205" y="-479.95" font-family="Times New Roman,serif" font-size="14.00">core_rookie</text>
</g>
<!-- core_baby&#45;&gt;core_rookie -->
<g id="edge21" class="edge">
<title>core_baby&#45;&gt;core_rookie</title>
<path fill="none" stroke="black" d="M102,-485C117.5,-485 135.99,-485 152.95,-485"/>
<polygon fill="black" stroke="black" points="152.87,-488.5 162.87,-485 152.87,-481.5 152.87,-488.5"/>
</g>
<!-- core_champion_power -->
<g id="node13" class="node">
<title>core_champion_power</title>
<path fill="#4fc3f7" stroke="black" d="M439.75,-449C439.75,-449 323.25,-449 323.25,-449 317.25,-449 311.25,-443 311.25,-437 311.25,-437 311.25,-425 311.25,-425 311.25,-419 317.25,-413 323.25,-413 323.25,-413 439.75,-413 439.75,-413 445.75,-413 451.75,-419 451.75,-425 451.75,-425 451.75,-437 451.75,-437 451.75,-443 445.75,-449 439.75,-449"/>
<text xml:space="preserve" text-anchor="middle" x="381.5" y="-425.95" font-family="Times New Roman,serif" font-size="14.00">core_champion_power</text>
</g>
<!-- core_rookie&#45;&gt;core_champion_power -->
<g id="edge22" class="edge">
<title>core_rookie&#45;&gt;core_champion_power</title>
<path fill="none" stroke="#7e57c2" d="M245.6,-472.75C264.61,-466.86 287.97,-459.63 309.88,-452.85"/>
<polygon fill="#7e57c2" stroke="#7e57c2" points="310.87,-456.21 319.39,-449.91 308.8,-449.52 310.87,-456.21"/>
</g>
<!-- core_champion_guard -->
<g id="node14" class="node">
<title>core_champion_guard</title>
<path fill="#4fc3f7" stroke="black" d="M438.25,-557C438.25,-557 324.75,-557 324.75,-557 318.75,-557 312.75,-551 312.75,-545 312.75,-545 312.75,-533 312.75,-533 312.75,-527 318.75,-521 324.75,-521 324.75,-521 438.25,-521 438.25,-521 444.25,-521 450.25,-527 450.25,-533 450.25,-533 450.25,-545 450.25,-545 450.25,-551 444.25,-557 438.25,-557"/>
<text xml:space="preserve" text-anchor="middle" x="381.5" y="-533.95" font-family="Times New Roman,serif" font-size="14.00">core_champion_guard</text>
</g>
<!-- core_rookie&#45;&gt;core_champion_guard -->
<g id="edge23" class="edge">
<title>core_rookie&#45;&gt;core_champion_guard</title>
<path fill="none" stroke="#7e57c2" d="M245.6,-497.25C264.61,-503.14 287.97,-510.37 309.88,-517.15"/>
<polygon fill="#7e57c2" stroke="#7e57c2" points="308.8,-520.48 319.39,-520.09 310.87,-513.79 308.8,-520.48"/>
</g>
<!-- core_champion_speed -->
<g id="node15" class="node">
<title>core_champion_speed</title>
<path fill="#4fc3f7" stroke="black" d="M438.25,-503C438.25,-503 324.75,-503 324.75,-503 318.75,-503 312.75,-497 312.75,-491 312.75,-491 312.75,-479 312.75,-479 312.75,-473 318.75,-467 324.75,-467 324.75,-467 438.25,-467 438.25,-467 444.25,-467 450.25,-473 450.25,-479 450.25,-479 450.25,-491 450.25,-491 450.25,-497 444.25,-503 438.25,-503"/>
<text xml:space="preserve" text-anchor="middle" x="381.5" y="-479.95" font-family="Times New Roman,serif" font-size="14.00">core_champion_speed</text>
</g>
<!-- core_rookie&#45;&gt;core_champion_speed -->
<g id="edge24" class="edge">
<title>core_rookie&#45;&gt;core_champion_speed</title>
<path fill="none" stroke="#7e57c2" d="M245.6,-485C262,-485 281.63,-485 300.78,-485"/>
<polygon fill="#7e57c2" stroke="#7e57c2" points="300.78,-488.5 310.78,-485 300.78,-481.5 300.78,-488.5"/>
</g>
<!-- core_final_overclock -->
<g id="node60" class="node">
<title>core_final_overclock</title>
<path fill="lightgrey" stroke="black" d="M635.38,-428C635.38,-428 528.62,-428 528.62,-428 522.62,-428 516.62,-422 516.62,-416 516.62,-416 516.62,-404 516.62,-404 516.62,-398 522.62,-392 528.62,-392 528.62,-392 635.38,-392 635.38,-392 641.38,-392 647.38,-398 647.38,-404 647.38,-404 647.38,-416 647.38,-416 647.38,-422 641.38,-428 635.38,-428"/>
<text xml:space="preserve" text-anchor="middle" x="582" y="-404.95" font-family="Times New Roman,serif" font-size="14.00">core_final_overclock</text>
</g>
<!-- core_champion_power&#45;&gt;core_final_overclock -->
<g id="edge25" class="edge">
<title>core_champion_power&#45;&gt;core_final_overclock</title>
<path fill="none" stroke="#7e57c2" d="M452.2,-423.63C469.34,-421.81 487.77,-419.86 505.18,-418.02"/>
<polygon fill="#7e57c2" stroke="#7e57c2" points="505.37,-421.52 514.94,-416.99 504.63,-414.56 505.37,-421.52"/>
</g>
<!-- core_final_prime -->
<g id="node61" class="node">
<title>core_final_prime</title>
<path fill="lightgrey" stroke="black" d="M624.88,-536C624.88,-536 539.12,-536 539.12,-536 533.12,-536 527.12,-530 527.12,-524 527.12,-524 527.12,-512 527.12,-512 527.12,-506 533.12,-500 539.12,-500 539.12,-500 624.88,-500 624.88,-500 630.88,-500 636.88,-506 636.88,-512 636.88,-512 636.88,-524 636.88,-524 636.88,-530 630.88,-536 624.88,-536"/>
<text xml:space="preserve" text-anchor="middle" x="582" y="-512.95" font-family="Times New Roman,serif" font-size="14.00">core_final_prime</text>
</g>
<!-- core_champion_power&#45;&gt;core_final_prime -->
<g id="edge26" class="edge">
<title>core_champion_power&#45;&gt;core_final_prime</title>
<path fill="none" stroke="#7e57c2" d="M452.13,-446C460.59,-449.27 468.85,-453.22 476.25,-458 492.4,-468.44 488.4,-480.1 504.25,-491 508.11,-493.66 512.26,-496.08 516.56,-498.28"/>
<polygon fill="#7e57c2" stroke="#7e57c2" points="514.88,-501.36 525.42,-502.4 517.83,-495.01 514.88,-501.36"/>
</g>
<!-- core_champion_guard&#45;&gt;core_final_prime -->
<g id="edge28" class="edge">
<title>core_champion_guard&#45;&gt;core_final_prime</title>
<path fill="none" stroke="#7e57c2" d="M450.53,-531.8C471.56,-529.58 494.66,-527.13 515.51,-524.93"/>
<polygon fill="#7e57c2" stroke="#7e57c2" points="515.75,-528.42 525.32,-523.89 515.01,-521.46 515.75,-528.42"/>
</g>
<!-- core_final_bastion -->
<g id="node62" class="node">
<title>core_final_bastion</title>
<path fill="lightgrey" stroke="black" d="M628.25,-590C628.25,-590 535.75,-590 535.75,-590 529.75,-590 523.75,-584 523.75,-578 523.75,-578 523.75,-566 523.75,-566 523.75,-560 529.75,-554 535.75,-554 535.75,-554 628.25,-554 628.25,-554 634.25,-554 640.25,-560 640.25,-566 640.25,-566 640.25,-578 640.25,-578 640.25,-584 634.25,-590 628.25,-590"/>
<text xml:space="preserve" text-anchor="middle" x="582" y="-566.95" font-family="Times New Roman,serif" font-size="14.00">core_final_bastion</text>
</g>
<!-- core_champion_guard&#45;&gt;core_final_bastion -->
<g id="edge27" class="edge">
<title>core_champion_guard&#45;&gt;core_final_bastion</title>
<path fill="none" stroke="#7e57c2" d="M450.53,-550.31C470.42,-553.62 492.17,-557.23 512.11,-560.55"/>
<polygon fill="#7e57c2" stroke="#7e57c2" points="511.37,-563.97 521.8,-562.16 512.51,-557.07 511.37,-563.97"/>
</g>
<!-- core_champion_speed&#45;&gt;core_final_prime -->
<g id="edge30" class="edge">
<title>core_champion_speed&#45;&gt;core_final_prime</title>
<path fill="none" stroke="#7e57c2" d="M450.53,-496.31C471.56,-499.81 494.66,-503.65 515.51,-507.11"/>
<polygon fill="#7e57c2" stroke="#7e57c2" points="514.9,-510.56 525.33,-508.75 516.04,-503.65 514.9,-510.56"/>
</g>
<!-- core_final_photon -->
<g id="node63" class="node">
<title>core_final_photon</title>
<path fill="lightgrey" stroke="black" d="M627.5,-482C627.5,-482 536.5,-482 536.5,-482 530.5,-482 524.5,-476 524.5,-470 524.5,-470 524.5,-458 524.5,-458 524.5,-452 530.5,-446 536.5,-446 536.5,-446 627.5,-446 627.5,-446 633.5,-446 639.5,-452 639.5,-458 639.5,-458 639.5,-470 639.5,-470 639.5,-476 633.5,-482 627.5,-482"/>
<text xml:space="preserve" text-anchor="middle" x="582" y="-458.95" font-family="Times New Roman,serif" font-size="14.00">core_final_photon</text>
</g>
<!-- core_champion_speed&#45;&gt;core_final_photon -->
<g id="edge29" class="edge">
<title>core_champion_speed&#45;&gt;core_final_photon</title>
<path fill="none" stroke="#7e57c2" d="M450.53,-477.8C470.71,-475.67 492.79,-473.33 512.96,-471.2"/>
<polygon fill="#7e57c2" stroke="#7e57c2" points="513.18,-474.69 522.76,-470.16 512.45,-467.73 513.18,-474.69"/>
</g>
<!-- corrupt_baby -->
<g id="node16" class="node">
<title>corrupt_baby</title>
<path fill="#ef5350" stroke="black" d="M97.62,-696C97.62,-696 33.62,-696 33.62,-696 27.62,-696 21.62,-690 21.62,-684 21.62,-684 21.62,-672 21.62,-672 21.62,-666 27.62,-660 33.62,-660 33.62,-660 97.62,-660 97.62,-660 103.62,-660 109.62,-666 109.62,-672 109.62,-672 109.62,-684 109.62,-684 109.62,-690 103.62,-696 97.62,-696"/>
<text xml:space="preserve" text-anchor="middle" x="65.62" y="-672.95" font-family="Times New Roman,serif" font-size="14.00">corrupt_baby</text>
</g>
<!-- corrupt_rookie -->
<g id="node17" class="node">
<title>corrupt_rookie</title>
<path fill="#ef5350" stroke="black" d="M241.12,-696C241.12,-696 168.88,-696 168.88,-696 162.88,-696 156.88,-690 156.88,-684 156.88,-684 156.88,-672 156.88,-672 156.88,-666 162.88,-660 168.88,-660 168.88,-660 241.12,-660 241.12,-660 247.12,-660 253.12,-666 253.12,-672 253.12,-672 253.12,-684 253.12,-684 253.12,-690 247.12,-696 241.12,-696"/>
<text xml:space="preserve" text-anchor="middle" x="205" y="-672.95" font-family="Times New Roman,serif" font-size="14.00">corrupt_rookie</text>
</g>
<!-- corrupt_baby&#45;&gt;corrupt_rookie -->
<g id="edge31" class="edge">
<title>corrupt_baby&#45;&gt;corrupt_rookie</title>
<path fill="none" stroke="black" d="M110.09,-678C121.29,-678 133.53,-678 145.36,-678"/>
<polygon fill="black" stroke="black" points="145.02,-681.5 155.02,-678 145.02,-674.5 145.02,-681.5"/>
</g>
<!-- corrupt_champion_glitch -->
<g id="node18" class="node">
<title>corrupt_champion_glitch</title>
<path fill="#ef5350" stroke="black" d="M446.12,-696C446.12,-696 316.88,-696 316.88,-696 310.88,-696 304.88,-690 304.88,-684 304.88,-684 304.88,-672 304.88,-672 304.88,-666 310.88,-660 316.88,-660 316.88,-660 446.12,-660 446.12,-660 452.12,-660 458.12,-666 458.12,-672 458.12,-672 458.12,-684 458.12,-684 458.12,-690 452.12,-696 446.12,-696"/>
<text xml:space="preserve" text-anchor="middle" x="381.5" y="-672.95" font-family="Times New Roman,serif" font-size="14.00">corrupt_champion_glitch</text>
</g>
<!-- corrupt_rookie&#45;&gt;corrupt_champion_glitch -->
<g id="edge32" class="edge">
<title>corrupt_rookie&#45;&gt;corrupt_champion_glitch</title>
<path fill="none" stroke="#7e57c2" d="M253.22,-678C265.73,-678 279.63,-678 293.53,-678"/>
<polygon fill="#7e57c2" stroke="#7e57c2" points="293.13,-681.5 303.13,-678 293.13,-674.5 293.13,-681.5"/>
</g>
<!-- corrupt_champion_error -->
<g id="node19" class="node">
<title>corrupt_champion_error</title>
<path fill="#ef5350" stroke="black" d="M443.88,-750C443.88,-750 319.12,-750 319.12,-750 313.12,-750 307.12,-744 307.12,-738 307.12,-738 307.12,-726 307.12,-726 307.12,-720 313.12,-714 319.12,-714 319.12,-714 443.88,-714 443.88,-714 449.88,-714 455.88,-720 455.88,-726 455.88,-726 455.88,-738 455.88,-738 455.88,-744 449.88,-750 443.88,-750"/>
<text xml:space="preserve" text-anchor="middle" x="381.5" y="-726.95" font-family="Times New Roman,serif" font-size="14.00">corrupt_champion_error</text>
</g>
<!-- corrupt_rookie&#45;&gt;corrupt_champion_error -->
<g id="edge33" class="edge">
<title>corrupt_rookie&#45;&gt;corrupt_champion_error</title>
<path fill="none" stroke="#7e57c2" d="M253.22,-692.61C270.68,-698.02 290.88,-704.27 309.96,-710.17"/>
<polygon fill="#7e57c2" stroke="#7e57c2" points="308.7,-713.45 319.29,-713.06 310.77,-706.76 308.7,-713.45"/>
</g>
<!-- corrupt_champion_patchfail -->
<g id="node20" class="node">
<title>corrupt_champion_patchfail</title>
<path fill="#ef5350" stroke="black" d="M454.38,-642C454.38,-642 308.62,-642 308.62,-642 302.62,-642 296.62,-636 296.62,-630 296.62,-630 296.62,-618 296.62,-618 296.62,-612 302.62,-606 308.62,-606 308.62,-606 454.38,-606 454.38,-606 460.38,-606 466.38,-612 466.38,-618 466.38,-618 466.38,-630 466.38,-630 466.38,-636 460.38,-642 454.38,-642"/>
<text xml:space="preserve" text-anchor="middle" x="381.5" y="-618.95" font-family="Times New Roman,serif" font-size="14.00">corrupt_champion_patchfail</text>
</g>
<!-- corrupt_rookie&#45;&gt;corrupt_champion_patchfail -->
<g id="edge34" class="edge">
<title>corrupt_rookie&#45;&gt;corrupt_champion_patchfail</title>
<path fill="none" stroke="#7e57c2" d="M253.22,-663.39C270.68,-657.98 290.88,-651.73 309.96,-645.83"/>
<polygon fill="#7e57c2" stroke="#7e57c2" points="310.77,-649.24 319.29,-642.94 308.7,-642.55 310.77,-649.24"/>
</g>
<!-- corrupt_final_corruptcore -->
<g id="node64" class="node">
<title>corrupt_final_corruptcore</title>
<path fill="lightgrey" stroke="black" d="M647.75,-724C647.75,-724 516.25,-724 516.25,-724 510.25,-724 504.25,-718 504.25,-712 504.25,-712 504.25,-700 504.25,-700 504.25,-694 510.25,-688 516.25,-688 516.25,-688 647.75,-688 647.75,-688 653.75,-688 659.75,-694 659.75,-700 659.75,-700 659.75,-712 659.75,-712 659.75,-718 653.75,-724 647.75,-724"/>
<text xml:space="preserve" text-anchor="middle" x="582" y="-700.95" font-family="Times New Roman,serif" font-size="14.00">corrupt_final_corruptcore</text>
</g>
<!-- corrupt_champion_glitch&#45;&gt;corrupt_final_corruptcore -->
<g id="edge35" class="edge">
<title>corrupt_champion_glitch&#45;&gt;corrupt_final_corruptcore</title>
<path fill="none" stroke="#7e57c2" d="M458.39,-688.71C469.56,-690.28 481.14,-691.91 492.53,-693.52"/>
<polygon fill="#7e57c2" stroke="#7e57c2" points="491.94,-696.97 502.33,-694.9 492.92,-690.04 491.94,-696.97"/>
</g>
<!-- corrupt_final_overrun -->
<g id="node65" class="node">
<title>corrupt_final_overrun</title>
<path fill="lightgrey" stroke="black" d="M637.62,-670C637.62,-670 526.38,-670 526.38,-670 520.38,-670 514.38,-664 514.38,-658 514.38,-658 514.38,-646 514.38,-646 514.38,-640 520.38,-634 526.38,-634 526.38,-634 637.62,-634 637.62,-634 643.62,-634 649.62,-640 649.62,-646 649.62,-646 649.62,-658 649.62,-658 649.62,-664 643.62,-670 637.62,-670"/>
<text xml:space="preserve" text-anchor="middle" x="582" y="-646.95" font-family="Times New Roman,serif" font-size="14.00">corrupt_final_overrun</text>
</g>
<!-- corrupt_champion_glitch&#45;&gt;corrupt_final_overrun -->
<g id="edge36" class="edge">
<title>corrupt_champion_glitch&#45;&gt;corrupt_final_overrun</title>
<path fill="none" stroke="#7e57c2" d="M458.39,-668.06C472.96,-666.15 488.24,-664.15 502.87,-662.23"/>
<polygon fill="#7e57c2" stroke="#7e57c2" points="502.95,-665.75 512.41,-660.98 502.04,-658.81 502.95,-665.75"/>
</g>
<!-- corrupt_champion_error&#45;&gt;corrupt_final_corruptcore -->
<g id="edge38" class="edge">
<title>corrupt_champion_error&#45;&gt;corrupt_final_corruptcore</title>
<path fill="none" stroke="#7e57c2" d="M456.13,-722.36C468.04,-720.8 480.48,-719.17 492.7,-717.57"/>
<polygon fill="#7e57c2" stroke="#7e57c2" points="492.87,-721.07 502.33,-716.3 491.96,-714.13 492.87,-721.07"/>
</g>
<!-- corrupt_champion_error&#45;&gt;corrupt_final_overrun -->
<g id="edge37" class="edge">
<title>corrupt_champion_error&#45;&gt;corrupt_final_overrun</title>
<path fill="none" stroke="#7e57c2" d="M456.04,-714.47C463.05,-711.72 469.91,-708.58 476.25,-705 491.03,-696.64 489.71,-687.78 504.25,-679 506.28,-677.77 508.38,-676.59 510.52,-675.45"/>
<polygon fill="#7e57c2" stroke="#7e57c2" points="511.99,-678.63 519.46,-671.11 508.93,-672.33 511.99,-678.63"/>
</g>
<!-- corrupt_champion_patchfail&#45;&gt;corrupt_final_corruptcore -->
<g id="edge39" class="edge">
<title>corrupt_champion_patchfail&#45;&gt;corrupt_final_corruptcore</title>
<path fill="none" stroke="#7e57c2" d="M459.09,-642.48C465.06,-644.99 470.85,-647.82 476.25,-651 491.41,-659.94 489.36,-669.62 504.25,-679 506.13,-680.19 508.07,-681.33 510.06,-682.43"/>
<polygon fill="#7e57c2" stroke="#7e57c2" points="508.44,-685.53 518.94,-686.89 511.58,-679.27 508.44,-685.53"/>
</g>
<!-- corrupt_champion_patchfail&#45;&gt;corrupt_final_overrun -->
<g id="edge40" class="edge">
<title>corrupt_champion_patchfail&#45;&gt;corrupt_final_overrun</title>
<path fill="none" stroke="#7e57c2" d="M466.68,-635.87C478.69,-637.57 491.01,-639.31 502.89,-640.98"/>
<polygon fill="#7e57c2" stroke="#7e57c2" points="502.25,-644.43 512.64,-642.36 503.23,-637.49 502.25,-644.43"/>
</g>
<!-- dream_baby -->
<g id="node21" class="node">
<title>dream_baby</title>
<path fill="#9575cd" stroke="black" d="M95.38,-889C95.38,-889 35.88,-889 35.88,-889 29.88,-889 23.88,-883 23.88,-877 23.88,-877 23.88,-865 23.88,-865 23.88,-859 29.88,-853 35.88,-853 35.88,-853 95.38,-853 95.38,-853 101.38,-853 107.38,-859 107.38,-865 107.38,-865 107.38,-877 107.38,-877 107.38,-883 101.38,-889 95.38,-889"/>
<text xml:space="preserve" text-anchor="middle" x="65.62" y="-865.95" font-family="Times New Roman,serif" font-size="14.00">dream_baby</text>
</g>
<!-- dream_rookie -->
<g id="node22" class="node">
<title>dream_rookie</title>
<path fill="#9575cd" stroke="black" d="M238.88,-889C238.88,-889 171.12,-889 171.12,-889 165.12,-889 159.12,-883 159.12,-877 159.12,-877 159.12,-865 159.12,-865 159.12,-859 165.12,-853 171.12,-853 171.12,-853 238.88,-853 238.88,-853 244.88,-853 250.88,-859 250.88,-865 250.88,-865 250.88,-877 250.88,-877 250.88,-883 244.88,-889 238.88,-889"/>
<text xml:space="preserve" text-anchor="middle" x="205" y="-865.95" font-family="Times New Roman,serif" font-size="14.00">dream_rookie</text>
</g>
<!-- dream_baby&#45;&gt;dream_rookie -->
<g id="edge41" class="edge">
<title>dream_baby&#45;&gt;dream_rookie</title>
<path fill="none" stroke="black" d="M107.84,-871C120.31,-871 134.23,-871 147.51,-871"/>
<polygon fill="black" stroke="black" points="147.46,-874.5 157.46,-871 147.46,-867.5 147.46,-874.5"/>
</g>
<!-- dream_champion_lucid -->
<g id="node23" class="node">
<title>dream_champion_lucid</title>
<path fill="#9575cd" stroke="black" d="M442,-889C442,-889 321,-889 321,-889 315,-889 309,-883 309,-877 309,-877 309,-865 309,-865 309,-859 315,-853 321,-853 321,-853 442,-853 442,-853 448,-853 454,-859 454,-865 454,-865 454,-877 454,-877 454,-883 448,-889 442,-889"/>
<text xml:space="preserve" text-anchor="middle" x="381.5" y="-865.95" font-family="Times New Roman,serif" font-size="14.00">dream_champion_lucid</text>
</g>
<!-- dream_rookie&#45;&gt;dream_champion_lucid -->
<g id="edge42" class="edge">
<title>dream_rookie&#45;&gt;dream_champion_lucid</title>
<path fill="none" stroke="#7e57c2" d="M250.94,-871C265.21,-871 281.49,-871 297.56,-871"/>
<polygon fill="#7e57c2" stroke="#7e57c2" points="297.12,-874.5 307.12,-871 297.12,-867.5 297.12,-874.5"/>
</g>
<!-- dream_champion_nightmare -->
<g id="node24" class="node">
<title>dream_champion_nightmare</title>
<path fill="#9575cd" stroke="black" d="M456.25,-943C456.25,-943 306.75,-943 306.75,-943 300.75,-943 294.75,-937 294.75,-931 294.75,-931 294.75,-919 294.75,-919 294.75,-913 300.75,-907 306.75,-907 306.75,-907 456.25,-907 456.25,-907 462.25,-907 468.25,-913 468.25,-919 468.25,-919 468.25,-931 468.25,-931 468.25,-937 462.25,-943 456.25,-943"/>
<text xml:space="preserve" text-anchor="middle" x="381.5" y="-919.95" font-family="Times New Roman,serif" font-size="14.00">dream_champion_nightmare</text>
</g>
<!-- dream_rookie&#45;&gt;dream_champion_nightmare -->
<g id="edge43" class="edge">
<title>dream_rookie&#45;&gt;dream_champion_nightmare</title>
<path fill="none" stroke="#7e57c2" d="M250.94,-884.91C268.92,-890.47 290.06,-897.01 309.99,-903.18"/>
<polygon fill="#7e57c2" stroke="#7e57c2" points="308.87,-906.5 319.46,-906.11 310.94,-899.81 308.87,-906.5"/>
</g>
<!-- dream_champion_whimsy -->
<g id="node25" class="node">
<title>dream_champion_whimsy</title>
<path fill="#9575cd" stroke="black" d="M450.25,-835C450.25,-835 312.75,-835 312.75,-835 306.75,-835 300.75,-829 300.75,-823 300.75,-823 300.75,-811 300.75,-811 300.75,-805 306.75,-799 312.75,-799 312.75,-799 450.25,-799 450.25,-799 456.25,-799 462.25,-805 462.25,-811 462.25,-811 462.25,-823 462.25,-823 462.25,-829 456.25,-835 450.25,-835"/>
<text xml:space="preserve" text-anchor="middle" x="381.5" y="-811.95" font-family="Times New Roman,serif" font-size="14.00">dream_champion_whimsy</text>
</g>
<!-- dream_rookie&#45;&gt;dream_champion_whimsy -->
<g id="edge44" class="edge">
<title>dream_rookie&#45;&gt;dream_champion_whimsy</title>
<path fill="none" stroke="#7e57c2" d="M250.94,-857.09C268.92,-851.53 290.06,-844.99 309.99,-838.82"/>
<polygon fill="#7e57c2" stroke="#7e57c2" points="310.94,-842.19 319.46,-835.89 308.87,-835.5 310.94,-842.19"/>
</g>
<!-- dream_final_ascended -->
<g id="node66" class="node">
<title>dream_final_ascended</title>
<path fill="lightgrey" stroke="black" d="M639.12,-916C639.12,-916 524.88,-916 524.88,-916 518.88,-916 512.88,-910 512.88,-904 512.88,-904 512.88,-892 512.88,-892 512.88,-886 518.88,-880 524.88,-880 524.88,-880 639.12,-880 639.12,-880 645.12,-880 651.12,-886 651.12,-892 651.12,-892 651.12,-904 651.12,-904 651.12,-910 645.12,-916 639.12,-916"/>
<text xml:space="preserve" text-anchor="middle" x="582" y="-892.95" font-family="Times New Roman,serif" font-size="14.00">dream_final_ascended</text>
</g>
<!-- dream_champion_lucid&#45;&gt;dream_final_ascended -->
<g id="edge45" class="edge">
<title>dream_champion_lucid&#45;&gt;dream_final_ascended</title>
<path fill="none" stroke="#7e57c2" d="M454.44,-880.79C469.71,-882.86 485.91,-885.07 501.44,-887.18"/>
<polygon fill="#7e57c2" stroke="#7e57c2" points="500.73,-890.61 511.11,-888.49 501.68,-883.68 500.73,-890.61"/>
</g>
<!-- dream_final_chaos -->
<g id="node67" class="node">
<title>dream_final_chaos</title>
<path fill="lightgrey" stroke="black" d="M629.75,-862C629.75,-862 534.25,-862 534.25,-862 528.25,-862 522.25,-856 522.25,-850 522.25,-850 522.25,-838 522.25,-838 522.25,-832 528.25,-826 534.25,-826 534.25,-826 629.75,-826 629.75,-826 635.75,-826 641.75,-832 641.75,-838 641.75,-838 641.75,-850 641.75,-850 641.75,-856 635.75,-862 629.75,-862"/>
<text xml:space="preserve" text-anchor="middle" x="582" y="-838.95" font-family="Times New Roman,serif" font-size="14.00">dream_final_chaos</text>
</g>
<!-- dream_champion_lucid&#45;&gt;dream_final_chaos -->
<g id="edge46" class="edge">
<title>dream_champion_lucid&#45;&gt;dream_final_chaos</title>
<path fill="none" stroke="#7e57c2" d="M454.44,-861.21C472.82,-858.71 492.55,-856.03 510.84,-853.54"/>
<polygon fill="#7e57c2" stroke="#7e57c2" points="511.07,-857.04 520.51,-852.23 510.13,-850.11 511.07,-857.04"/>
</g>
<!-- dream_champion_nightmare&#45;&gt;dream_final_ascended -->
<g id="edge48" class="edge">
<title>dream_champion_nightmare&#45;&gt;dream_final_ascended</title>
<path fill="none" stroke="#7e57c2" d="M468.7,-913.28C479.57,-911.8 490.65,-910.29 501.42,-908.82"/>
<polygon fill="#7e57c2" stroke="#7e57c2" points="501.56,-912.34 510.99,-907.52 500.61,-905.4 501.56,-912.34"/>
</g>
<!-- dream_champion_nightmare&#45;&gt;dream_final_chaos -->
<g id="edge47" class="edge">
<title>dream_champion_nightmare&#45;&gt;dream_final_chaos</title>
<path fill="none" stroke="#7e57c2" d="M458.54,-906.61C464.69,-904.08 470.68,-901.22 476.25,-898 491.22,-889.35 489.54,-880.08 504.25,-871 506.67,-869.51 509.18,-868.08 511.76,-866.72"/>
<polygon fill="#7e57c2" stroke="#7e57c2" points="513.1,-869.96 520.59,-862.47 510.07,-863.66 513.1,-869.96"/>
</g>
<!-- dream_champion_whimsy&#45;&gt;dream_final_ascended -->
<g id="edge49" class="edge">
<title>dream_champion_whimsy&#45;&gt;dream_final_ascended</title>
<path fill="none" stroke="#7e57c2" d="M458.54,-835.39C464.69,-837.92 470.68,-840.78 476.25,-844 491.22,-852.65 489.54,-861.92 504.25,-871 506.27,-872.25 508.35,-873.44 510.49,-874.6"/>
<polygon fill="#7e57c2" stroke="#7e57c2" points="508.88,-877.71 519.4,-878.98 511.97,-871.43 508.88,-877.71"/>
</g>
<!-- dream_champion_whimsy&#45;&gt;dream_final_chaos -->
<g id="edge50" class="edge">
<title>dream_champion_whimsy&#45;&gt;dream_final_chaos</title>
<path fill="none" stroke="#7e57c2" d="M462.67,-827.9C478.6,-830.07 495.21,-832.33 510.78,-834.45"/>
<polygon fill="#7e57c2" stroke="#7e57c2" points="510.03,-837.88 520.41,-835.76 510.97,-830.94 510.03,-837.88"/>
</g>
<!-- echo_baby -->
<g id="node26" class="node">
<title>echo_baby</title>
<path fill="#ba68c8" stroke="black" d="M90.88,-1082C90.88,-1082 40.38,-1082 40.38,-1082 34.38,-1082 28.38,-1076 28.38,-1070 28.38,-1070 28.38,-1058 28.38,-1058 28.38,-1052 34.38,-1046 40.38,-1046 40.38,-1046 90.88,-1046 90.88,-1046 96.88,-1046 102.88,-1052 102.88,-1058 102.88,-1058 102.88,-1070 102.88,-1070 102.88,-1076 96.88,-1082 90.88,-1082"/>
<text xml:space="preserve" text-anchor="middle" x="65.62" y="-1058.95" font-family="Times New Roman,serif" font-size="14.00">echo_baby</text>
</g>
<!-- echo_rookie -->
<g id="node27" class="node">
<title>echo_rookie</title>
<path fill="#ba68c8" stroke="black" d="M234.38,-1082C234.38,-1082 175.62,-1082 175.62,-1082 169.62,-1082 163.62,-1076 163.62,-1070 163.62,-1070 163.62,-1058 163.62,-1058 163.62,-1052 169.62,-1046 175.62,-1046 175.62,-1046 234.38,-1046 234.38,-1046 240.38,-1046 246.38,-1052 246.38,-1058 246.38,-1058 246.38,-1070 246.38,-1070 246.38,-1076 240.38,-1082 234.38,-1082"/>
<text xml:space="preserve" text-anchor="middle" x="205" y="-1058.95" font-family="Times New Roman,serif" font-size="14.00">echo_rookie</text>
</g>
<!-- echo_baby&#45;&gt;echo_rookie -->
<g id="edge51" class="edge">
<title>echo_baby&#45;&gt;echo_rookie</title>
<path fill="none" stroke="black" d="M103.08,-1064C118.19,-1064 136,-1064 152.41,-1064"/>
<polygon fill="black" stroke="black" points="151.99,-1067.5 161.99,-1064 151.99,-1060.5 151.99,-1067.5"/>
</g>
<!-- echo_champion_resonate -->
<g id="node28" class="node">
<title>echo_champion_resonate</title>
<path fill="#ba68c8" stroke="black" d="M446.5,-1082C446.5,-1082 316.5,-1082 316.5,-1082 310.5,-1082 304.5,-1076 304.5,-1070 304.5,-1070 304.5,-1058 304.5,-1058 304.5,-1052 310.5,-1046 316.5,-1046 316.5,-1046 446.5,-1046 446.5,-1046 452.5,-1046 458.5,-1052 458.5,-1058 458.5,-1058 458.5,-1070 458.5,-1070 458.5,-1076 452.5,-1082 446.5,-1082"/>
<text xml:space="preserve" text-anchor="middle" x="381.5" y="-1058.95" font-family="Times New Roman,serif" font-size="14.00">echo_champion_resonate</text>
</g>
<!-- echo_rookie&#45;&gt;echo_champion_resonate -->
<g id="edge52" class="edge">
<title>echo_rookie&#45;&gt;echo_champion_resonate</title>
<path fill="none" stroke="#7e57c2" d="M246.47,-1064C260.46,-1064 276.73,-1064 293,-1064"/>
<polygon fill="#7e57c2" stroke="#7e57c2" points="292.73,-1067.5 302.73,-1064 292.73,-1060.5 292.73,-1067.5"/>
</g>
<!-- echo_champion_reverb -->
<g id="node29" class="node">
<title>echo_champion_reverb</title>
<path fill="#ba68c8" stroke="black" d="M441.25,-1136C441.25,-1136 321.75,-1136 321.75,-1136 315.75,-1136 309.75,-1130 309.75,-1124 309.75,-1124 309.75,-1112 309.75,-1112 309.75,-1106 315.75,-1100 321.75,-1100 321.75,-1100 441.25,-1100 441.25,-1100 447.25,-1100 453.25,-1106 453.25,-1112 453.25,-1112 453.25,-1124 453.25,-1124 453.25,-1130 447.25,-1136 441.25,-1136"/>
<text xml:space="preserve" text-anchor="middle" x="381.5" y="-1112.95" font-family="Times New Roman,serif" font-size="14.00">echo_champion_reverb</text>
</g>
<!-- echo_rookie&#45;&gt;echo_champion_reverb -->
<g id="edge53" class="edge">
<title>echo_rookie&#45;&gt;echo_champion_reverb</title>
<path fill="none" stroke="#7e57c2" d="M246.47,-1076.52C265.33,-1082.36 288.34,-1089.48 309.93,-1096.16"/>
<polygon fill="#7e57c2" stroke="#7e57c2" points="308.69,-1099.44 319.28,-1099.05 310.76,-1092.75 308.69,-1099.44"/>
</g>
<!-- echo_champion_distort -->
<g id="node30" class="node">
<title>echo_champion_distort</title>
<path fill="#ba68c8" stroke="black" d="M441.25,-1028C441.25,-1028 321.75,-1028 321.75,-1028 315.75,-1028 309.75,-1022 309.75,-1016 309.75,-1016 309.75,-1004 309.75,-1004 309.75,-998 315.75,-992 321.75,-992 321.75,-992 441.25,-992 441.25,-992 447.25,-992 453.25,-998 453.25,-1004 453.25,-1004 453.25,-1016 453.25,-1016 453.25,-1022 447.25,-1028 441.25,-1028"/>
<text xml:space="preserve" text-anchor="middle" x="381.5" y="-1004.95" font-family="Times New Roman,serif" font-size="14.00">echo_champion_distort</text>
</g>
<!-- echo_rookie&#45;&gt;echo_champion_distort -->
<g id="edge54" class="edge">
<title>echo_rookie&#45;&gt;echo_champion_distort</title>
<path fill="none" stroke="#7e57c2" d="M246.47,-1051.48C265.33,-1045.64 288.34,-1038.52 309.93,-1031.84"/>
<polygon fill="#7e57c2" stroke="#7e57c2" points="310.76,-1035.25 319.28,-1028.95 308.69,-1028.56 310.76,-1035.25"/>
</g>
<!-- echo_final_harmonic -->
<g id="node68" class="node">
<title>echo_final_harmonic</title>
<path fill="lightgrey" stroke="black" d="M635.75,-1109C635.75,-1109 528.25,-1109 528.25,-1109 522.25,-1109 516.25,-1103 516.25,-1097 516.25,-1097 516.25,-1085 516.25,-1085 516.25,-1079 522.25,-1073 528.25,-1073 528.25,-1073 635.75,-1073 635.75,-1073 641.75,-1073 647.75,-1079 647.75,-1085 647.75,-1085 647.75,-1097 647.75,-1097 647.75,-1103 641.75,-1109 635.75,-1109"/>
<text xml:space="preserve" text-anchor="middle" x="582" y="-1085.95" font-family="Times New Roman,serif" font-size="14.00">echo_final_harmonic</text>
</g>
<!-- echo_champion_resonate&#45;&gt;echo_final_harmonic -->
<g id="edge55" class="edge">
<title>echo_champion_resonate&#45;&gt;echo_final_harmonic</title>
<path fill="none" stroke="#7e57c2" d="M458.96,-1074.4C473.93,-1076.44 489.63,-1078.57 504.6,-1080.61"/>
<polygon fill="#7e57c2" stroke="#7e57c2" points="504,-1084.06 514.38,-1081.94 504.94,-1077.12 504,-1084.06"/>
</g>
<!-- echo_final_feedback -->
<g id="node69" class="node">
<title>echo_final_feedback</title>
<path fill="lightgrey" stroke="black" d="M634.25,-1055C634.25,-1055 529.75,-1055 529.75,-1055 523.75,-1055 517.75,-1049 517.75,-1043 517.75,-1043 517.75,-1031 517.75,-1031 517.75,-1025 523.75,-1019 529.75,-1019 529.75,-1019 634.25,-1019 634.25,-1019 640.25,-1019 646.25,-1025 646.25,-1031 646.25,-1031 646.25,-1043 646.25,-1043 646.25,-1049 640.25,-1055 634.25,-1055"/>
<text xml:space="preserve" text-anchor="middle" x="582" y="-1031.95" font-family="Times New Roman,serif" font-size="14.00">echo_final_feedback</text>
</g>
<!-- echo_champion_resonate&#45;&gt;echo_final_feedback -->
<g id="edge56" class="edge">
<title>echo_champion_resonate&#45;&gt;echo_final_feedback</title>
<path fill="none" stroke="#7e57c2" d="M458.96,-1053.6C474.52,-1051.48 490.86,-1049.26 506.35,-1047.15"/>
<polygon fill="#7e57c2" stroke="#7e57c2" points="506.52,-1050.66 515.96,-1045.85 505.58,-1043.73 506.52,-1050.66"/>
</g>
<!-- echo_champion_reverb&#45;&gt;echo_final_harmonic -->
<g id="edge58" class="edge">
<title>echo_champion_reverb&#45;&gt;echo_final_harmonic</title>
<path fill="none" stroke="#7e57c2" d="M453.6,-1108.33C470.3,-1106.06 488.16,-1103.63 505.06,-1101.33"/>
<polygon fill="#7e57c2" stroke="#7e57c2" points="505.07,-1104.86 514.51,-1100.04 504.13,-1097.92 505.07,-1104.86"/>
</g>
<!-- echo_champion_reverb&#45;&gt;echo_final_feedback -->
<g id="edge57" class="edge">
<title>echo_champion_reverb&#45;&gt;echo_final_feedback</title>
<path fill="none" stroke="#7e57c2" d="M453.66,-1101.55C461.51,-1098.56 469.21,-1095.07 476.25,-1091 491.22,-1082.35 489.54,-1073.08 504.25,-1064 506.27,-1062.75 508.35,-1061.56 510.49,-1060.4"/>
<polygon fill="#7e57c2" stroke="#7e57c2" points="511.97,-1063.57 519.4,-1056.02 508.88,-1057.29 511.97,-1063.57"/>
</g>
<!-- echo_champion_distort&#45;&gt;echo_final_harmonic -->
<g id="edge60" class="edge">
<title>echo_champion_distort&#45;&gt;echo_final_harmonic</title>
<path fill="none" stroke="#7e57c2" d="M453.66,-1026.45C461.51,-1029.44 469.21,-1032.93 476.25,-1037 491.22,-1045.65 489.54,-1054.92 504.25,-1064 506.27,-1065.25 508.35,-1066.44 510.49,-1067.6"/>
<polygon fill="#7e57c2" stroke="#7e57c2" points="508.88,-1070.71 519.4,-1071.98 511.97,-1064.43 508.88,-1070.71"/>
</g>
<!-- echo_champion_distort&#45;&gt;echo_final_feedback -->
<g id="edge59" class="edge">
<title>echo_champion_distort&#45;&gt;echo_final_feedback</title>
<path fill="none" stroke="#7e57c2" d="M453.6,-1019.67C470.67,-1021.99 488.94,-1024.48 506.17,-1026.82"/>
<polygon fill="#7e57c2" stroke="#7e57c2" points="505.44,-1030.25 515.82,-1028.13 506.38,-1023.32 505.44,-1030.25"/>
</g>
<!-- codeborn_baby -->
<g id="node31" class="node">
<title>codeborn_baby</title>
<path fill="#e0e0e0" stroke="black" d="M103.25,-1221C103.25,-1221 28,-1221 28,-1221 22,-1221 16,-1215 16,-1209 16,-1209 16,-1197 16,-1197 16,-1191 22,-1185 28,-1185 28,-1185 103.25,-1185 103.25,-1185 109.25,-1185 115.25,-1191 115.25,-1197 115.25,-1197 115.25,-1209 115.25,-1209 115.25,-1215 109.25,-1221 103.25,-1221"/>
<text xml:space="preserve" text-anchor="middle" x="65.62" y="-1197.95" font-family="Times New Roman,serif" font-size="14.00">codeborn_baby</text>
</g>
<!-- codeborn_rookie -->
<g id="node32" class="node">
<title>codeborn_rookie</title>
<path fill="#e0e0e0" stroke="black" d="M246.75,-1221C246.75,-1221 163.25,-1221 163.25,-1221 157.25,-1221 151.25,-1215 151.25,-1209 151.25,-1209 151.25,-1197 151.25,-1197 151.25,-1191 157.25,-1185 163.25,-1185 163.25,-1185 246.75,-1185 246.75,-1185 252.75,-1185 258.75,-1191 258.75,-1197 258.75,-1197 258.75,-1209 258.75,-1209 258.75,-1215 252.75,-1221 246.75,-1221"/>
<text xml:space="preserve" text-anchor="middle" x="205" y="-1197.95" font-family="Times New Roman,serif" font-size="14.00">codeborn_rookie</text>
</g>
<!-- codeborn_baby&#45;&gt;codeborn_rookie -->
<g id="edge61" class="edge">
<title>codeborn_baby&#45;&gt;codeborn_rookie</title>
<path fill="none" stroke="black" d="M115.45,-1203C123.31,-1203 131.55,-1203 139.71,-1203"/>
<polygon fill="black" stroke="black" points="139.63,-1206.5 149.63,-1203 139.63,-1199.5 139.63,-1206.5"/>
</g>
<!-- codeborn_champion -->
<g id="node33" class="node">
<title>codeborn_champion</title>
<path fill="#e0e0e0" stroke="black" d="M433,-1221C433,-1221 330,-1221 330,-1221 324,-1221 318,-1215 318,-1209 318,-1209 318,-1197 318,-1197 318,-1191 324,-1185 330,-1185 330,-1185 433,-1185 433,-1185 439,-1185 445,-1191 445,-1197 445,-1197 445,-1209 445,-1209 445,-1215 439,-1221 433,-1221"/>
<text xml:space="preserve" text-anchor="middle" x="381.5" y="-1197.95" font-family="Times New Roman,serif" font-size="14.00">codeborn_champion</text>
</g>
<!-- codeborn_rookie&#45;&gt;codeborn_champion -->
<g id="edge62" class="edge">
<title>codeborn_rookie&#45;&gt;codeborn_champion</title>
<path fill="none" stroke="black" d="M258.83,-1203C273.76,-1203 290.3,-1203 306.24,-1203"/>
<polygon fill="black" stroke="black" points="306.2,-1206.5 316.2,-1203 306.2,-1199.5 306.2,-1206.5"/>
</g>
<!-- codeborn_final -->
<g id="node70" class="node">
<title>codeborn_final</title>
<path fill="lightgrey" stroke="black" d="M618.88,-1221C618.88,-1221 545.12,-1221 545.12,-1221 539.12,-1221 533.12,-1215 533.12,-1209 533.12,-1209 533.12,-1197 533.12,-1197 533.12,-1191 539.12,-1185 545.12,-1185 545.12,-1185 618.88,-1185 618.88,-1185 624.88,-1185 630.88,-1191 630.88,-1197 630.88,-1197 630.88,-1209 630.88,-1209 630.88,-1215 624.88,-1221 618.88,-1221"/>
<text xml:space="preserve" text-anchor="middle" x="582" y="-1197.95" font-family="Times New Roman,serif" font-size="14.00">codeborn_final</text>
</g>
<!-- codeborn_champion&#45;&gt;codeborn_final -->
<g id="edge63" class="edge">
<title>codeborn_champion&#45;&gt;codeborn_final</title>
<path fill="none" stroke="black" d="M445.31,-1203C469.61,-1203 497.3,-1203 521.3,-1203"/>
<polygon fill="black" stroke="black" points="521.25,-1206.5 531.25,-1203 521.25,-1199.5 521.25,-1206.5"/>
</g>
<!-- firewall_baby -->
<g id="node34" class="node">
<title>firewall_baby</title>
<path fill="#ff8a65" stroke="black" d="M99.12,-1360C99.12,-1360 32.12,-1360 32.12,-1360 26.12,-1360 20.12,-1354 20.12,-1348 20.12,-1348 20.12,-1336 20.12,-1336 20.12,-1330 26.12,-1324 32.12,-1324 32.12,-1324 99.12,-1324 99.12,-1324 105.12,-1324 111.12,-1330 111.12,-1336 111.12,-1336 111.12,-1348 111.12,-1348 111.12,-1354 105.12,-1360 99.12,-1360"/>
<text xml:space="preserve" text-anchor="middle" x="65.62" y="-1336.95" font-family="Times New Roman,serif" font-size="14.00">firewall_baby</text>
</g>
<!-- firewall_rookie -->
<g id="node35" class="node">
<title>firewall_rookie</title>
<path fill="#ff8a65" stroke="black" d="M242.62,-1360C242.62,-1360 167.38,-1360 167.38,-1360 161.38,-1360 155.38,-1354 155.38,-1348 155.38,-1348 155.38,-1336 155.38,-1336 155.38,-1330 161.38,-1324 167.38,-1324 167.38,-1324 242.62,-1324 242.62,-1324 248.62,-1324 254.62,-1330 254.62,-1336 254.62,-1336 254.62,-1348 254.62,-1348 254.62,-1354 248.62,-1360 242.62,-1360"/>
<text xml:space="preserve" text-anchor="middle" x="205" y="-1336.95" font-family="Times New Roman,serif" font-size="14.00">firewall_rookie</text>
</g>
<!-- firewall_baby&#45;&gt;firewall_rookie -->
<g id="edge64" class="edge">
<title>firewall_baby&#45;&gt;firewall_rookie</title>
<path fill="none" stroke="black" d="M111.61,-1342C121.84,-1342 132.86,-1342 143.62,-1342"/>
<polygon fill="black" stroke="black" points="143.61,-1345.5 153.61,-1342 143.61,-1338.5 143.61,-1345.5"/>
</g>
<!-- firewall_champion_barrier -->
<g id="node36" class="node">
<title>firewall_champion_barrier</title>
<path fill="#ff8a65" stroke="black" d="M450.25,-1306C450.25,-1306 312.75,-1306 312.75,-1306 306.75,-1306 300.75,-1300 300.75,-1294 300.75,-1294 300.75,-1282 300.75,-1282 300.75,-1276 306.75,-1270 312.75,-1270 312.75,-1270 450.25,-1270 450.25,-1270 456.25,-1270 462.25,-1276 462.25,-1282 462.25,-1282 462.25,-1294 462.25,-1294 462.25,-1300 456.25,-1306 450.25,-1306"/>
<text xml:space="preserve" text-anchor="middle" x="381.5" y="-1282.95" font-family="Times New Roman,serif" font-size="14.00">firewall_champion_barrier</text>
</g>
<!-- firewall_rookie&#45;&gt;firewall_champion_barrier -->
<g id="edge65" class="edge">
<title>firewall_rookie&#45;&gt;firewall_champion_barrier</title>
<path fill="none" stroke="#7e57c2" d="M255.07,-1326.81C272.1,-1321.55 291.54,-1315.53 309.95,-1309.83"/>
<polygon fill="#7e57c2" stroke="#7e57c2" points="310.99,-1313.18 319.5,-1306.88 308.92,-1306.49 310.99,-1313.18"/>
</g>
<!-- firewall_champion_counter -->
<g id="node37" class="node">
<title>firewall_champion_counter</title>
<path fill="#ff8a65" stroke="black" d="M452.5,-1414C452.5,-1414 310.5,-1414 310.5,-1414 304.5,-1414 298.5,-1408 298.5,-1402 298.5,-1402 298.5,-1390 298.5,-1390 298.5,-1384 304.5,-1378 310.5,-1378 310.5,-1378 452.5,-1378 452.5,-1378 458.5,-1378 464.5,-1384 464.5,-1390 464.5,-1390 464.5,-1402 464.5,-1402 464.5,-1408 458.5,-1414 452.5,-1414"/>
<text xml:space="preserve" text-anchor="middle" x="381.5" y="-1390.95" font-family="Times New Roman,serif" font-size="14.00">firewall_champion_counter</text>
</g>
<!-- firewall_rookie&#45;&gt;firewall_champion_counter -->
<g id="edge66" class="edge">
<title>firewall_rookie&#45;&gt;firewall_champion_counter</title>
<path fill="none" stroke="#7e57c2" d="M255.07,-1357.19C272.1,-1362.45 291.54,-1368.47 309.95,-1374.17"/>
<polygon fill="#7e57c2" stroke="#7e57c2" points="308.92,-1377.51 319.5,-1377.12 310.99,-1370.82 308.92,-1377.51"/>
</g>
<!-- firewall_champion_patch -->
<g id="node38" class="node">
<title>firewall_champion_patch</title>
<path fill="#ff8a65" stroke="black" d="M446.88,-1360C446.88,-1360 316.12,-1360 316.12,-1360 310.12,-1360 304.12,-1354 304.12,-1348 304.12,-1348 304.12,-1336 304.12,-1336 304.12,-1330 310.12,-1324 316.12,-1324 316.12,-1324 446.88,-1324 446.88,-1324 452.88,-1324 458.88,-1330 458.88,-1336 458.88,-1336 458.88,-1348 458.88,-1348 458.88,-1354 452.88,-1360 446.88,-1360"/>
<text xml:space="preserve" text-anchor="middle" x="381.5" y="-1336.95" font-family="Times New Roman,serif" font-size="14.00">firewall_champion_patch</text>
</g>
<!-- firewall_rookie&#45;&gt;firewall_champion_patch -->
<g id="edge67" class="edge">
<title>firewall_rookie&#45;&gt;firewall_champion_patch</title>
<path fill="none" stroke="#7e57c2" d="M255.07,-1342C266.77,-1342 279.6,-1342 292.46,-1342"/>
<polygon fill="#7e57c2" stroke="#7e57c2" points="292.22,-1345.5 302.22,-1342 292.22,-1338.5 292.22,-1345.5"/>
</g>
<!-- firewall_final_fortress -->
<g id="node71" class="node">
<title>firewall_final_fortress</title>
<path fill="lightgrey" stroke="black" d="M638.38,-1306C638.38,-1306 525.62,-1306 525.62,-1306 519.62,-1306 513.62,-1300 513.62,-1294 513.62,-1294 513.62,-1282 513.62,-1282 513.62,-1276 519.62,-1270 525.62,-1270 525.62,-1270 638.38,-1270 638.38,-1270 644.38,-1270 650.38,-1276 650.38,-1282 650.38,-1282 650.38,-1294 650.38,-1294 650.38,-1300 644.38,-1306 638.38,-1306"/>
<text xml:space="preserve" text-anchor="middle" x="582" y="-1282.95" font-family="Times New Roman,serif" font-size="14.00">firewall_final_fortress</text>
</g>
<!-- firewall_champion_barrier&#45;&gt;firewall_final_fortress -->
<g id="edge68" class="edge">
<title>firewall_champion_barrier&#45;&gt;firewall_final_fortress</title>
<path fill="none" stroke="#7e57c2" d="M462.67,-1288C475.65,-1288 489.08,-1288 502.04,-1288"/>
<polygon fill="#7e57c2" stroke="#7e57c2" points="501.76,-1291.5 511.76,-1288 501.76,-1284.5 501.76,-1291.5"/>
</g>
<!-- firewall_final_protocol -->
<g id="node72" class="node">
<title>firewall_final_protocol</title>
<path fill="lightgrey" stroke="black" d="M640.62,-1360C640.62,-1360 523.38,-1360 523.38,-1360 517.38,-1360 511.38,-1354 511.38,-1348 511.38,-1348 511.38,-1336 511.38,-1336 511.38,-1330 517.38,-1324 523.38,-1324 523.38,-1324 640.62,-1324 640.62,-1324 646.62,-1324 652.62,-1330 652.62,-1336 652.62,-1336 652.62,-1348 652.62,-1348 652.62,-1354 646.62,-1360 640.62,-1360"/>
<text xml:space="preserve" text-anchor="middle" x="582" y="-1336.95" font-family="Times New Roman,serif" font-size="14.00">firewall_final_protocol</text>
</g>
<!-- firewall_champion_barrier&#45;&gt;firewall_final_protocol -->
<g id="edge69" class="edge">
<title>firewall_champion_barrier&#45;&gt;firewall_final_protocol</title>
<path fill="none" stroke="#7e57c2" d="M450.26,-1306.43C467.09,-1311.01 485.27,-1315.96 502.57,-1320.67"/>
<polygon fill="#7e57c2" stroke="#7e57c2" points="501.18,-1323.91 511.75,-1323.16 503.02,-1317.16 501.18,-1323.91"/>
</g>
<!-- firewall_champion_counter&#45;&gt;firewall_final_protocol -->
<g id="edge71" class="edge">
<title>firewall_champion_counter&#45;&gt;firewall_final_protocol</title>
<path fill="none" stroke="#7e57c2" d="M450.26,-1377.57C467.09,-1372.99 485.27,-1368.04 502.57,-1363.33"/>
<polygon fill="#7e57c2" stroke="#7e57c2" points="503.02,-1366.84 511.75,-1360.84 501.18,-1360.09 503.02,-1366.84"/>
</g>
<!-- firewall_final_retaliate -->
<g id="node73" class="node">
<title>firewall_final_retaliate</title>
<path fill="lightgrey" stroke="black" d="M639.88,-1414C639.88,-1414 524.12,-1414 524.12,-1414 518.12,-1414 512.12,-1408 512.12,-1402 512.12,-1402 512.12,-1390 512.12,-1390 512.12,-1384 518.12,-1378 524.12,-1378 524.12,-1378 639.88,-1378 639.88,-1378 645.88,-1378 651.88,-1384 651.88,-1390 651.88,-1390 651.88,-1402 651.88,-1402 651.88,-1408 645.88,-1414 639.88,-1414"/>
<text xml:space="preserve" text-anchor="middle" x="582" y="-1390.95" font-family="Times New Roman,serif" font-size="14.00">firewall_final_retaliate</text>
</g>
<!-- firewall_champion_counter&#45;&gt;firewall_final_retaliate -->
<g id="edge70" class="edge">
<title>firewall_champion_counter&#45;&gt;firewall_final_retaliate</title>
<path fill="none" stroke="#7e57c2" d="M464.96,-1396C476.62,-1396 488.6,-1396 500.24,-1396"/>
<polygon fill="#7e57c2" stroke="#7e57c2" points="500.21,-1399.5 510.21,-1396 500.21,-1392.5 500.21,-1399.5"/>
</g>
<!-- firewall_champion_patch&#45;&gt;firewall_final_fortress -->
<g id="edge73" class="edge">
<title>firewall_champion_patch&#45;&gt;firewall_final_fortress</title>
<path fill="none" stroke="#7e57c2" d="M450.26,-1323.57C467.09,-1318.99 485.27,-1314.04 502.57,-1309.33"/>
<polygon fill="#7e57c2" stroke="#7e57c2" points="503.02,-1312.84 511.75,-1306.84 501.18,-1306.09 503.02,-1312.84"/>
</g>
<!-- firewall_champion_patch&#45;&gt;firewall_final_protocol -->
<g id="edge72" class="edge">
<title>firewall_champion_patch&#45;&gt;firewall_final_protocol</title>
<path fill="none" stroke="#7e57c2" d="M459.25,-1342C472.54,-1342 486.41,-1342 499.82,-1342"/>
<polygon fill="#7e57c2" stroke="#7e57c2" points="499.44,-1345.5 509.44,-1342 499.44,-1338.5 499.44,-1345.5"/>
</g>
<!-- pulse_baby -->
<g id="node39" class="node">
<title>pulse_baby</title>
<path fill="#f06292" stroke="black" d="M92.38,-1553C92.38,-1553 38.88,-1553 38.88,-1553 32.88,-1553 26.88,-1547 26.88,-1541 26.88,-1541 26.88,-1529 26.88,-1529 26.88,-1523 32.88,-1517 38.88,-1517 38.88,-1517 92.38,-1517 92.38,-1517 98.38,-1517 104.38,-1523 104.38,-1529 104.38,-1529 104.38,-1541 104.38,-1541 104.38,-1547 98.38,-1553 92.38,-1553"/>
<text xml:space="preserve" text-anchor="middle" x="65.62" y="-1529.95" font-family="Times New Roman,serif" font-size="14.00">pulse_baby</text>
</g>
<!-- pulse_rookie -->
<g id="node40" class="node">
<title>pulse_rookie</title>
<path fill="#f06292" stroke="black" d="M235.88,-1553C235.88,-1553 174.12,-1553 174.12,-1553 168.12,-1553 162.12,-1547 162.12,-1541 162.12,-1541 162.12,-1529 162.12,-1529 162.12,-1523 168.12,-1517 174.12,-1517 174.12,-1517 235.88,-1517 235.88,-1517 241.88,-1517 247.88,-1523 247.88,-1529 247.88,-1529 247.88,-1541 247.88,-1541 247.88,-1547 241.88,-1553 235.88,-1553"/>
<text xml:space="preserve" text-anchor="middle" x="205" y="-1529.95" font-family="Times New Roman,serif" font-size="14.00">pulse_rookie</text>
</g>
<!-- pulse_baby&#45;&gt;pulse_rookie -->
<g id="edge74" class="edge">
<title>pulse_baby&#45;&gt;pulse_rookie</title>
<path fill="none" stroke="black" d="M104.53,-1535C118.7,-1535 135.09,-1535 150.41,-1535"/>
<polygon fill="black" stroke="black" points="150.36,-1538.5 160.36,-1535 150.36,-1531.5 150.36,-1538.5"/>
</g>
<!-- pulse_champion_surge -->
<g id="node41" class="node">
<title>pulse_champion_surge</title>
<path fill="#f06292" stroke="black" d="M440.12,-1499C440.12,-1499 322.88,-1499 322.88,-1499 316.88,-1499 310.88,-1493 310.88,-1487 310.88,-1487 310.88,-1475 310.88,-1475 310.88,-1469 316.88,-1463 322.88,-1463 322.88,-1463 440.12,-1463 440.12,-1463 446.12,-1463 452.12,-1469 452.12,-1475 452.12,-1475 452.12,-1487 452.12,-1487 452.12,-1493 446.12,-1499 440.12,-1499"/>
<text xml:space="preserve" text-anchor="middle" x="381.5" y="-1475.95" font-family="Times New Roman,serif" font-size="14.00">pulse_champion_surge</text>
</g>
<!-- pulse_rookie&#45;&gt;pulse_champion_surge -->
<g id="edge75" class="edge">
<title>pulse_rookie&#45;&gt;pulse_champion_surge</title>
<path fill="none" stroke="#7e57c2" d="M248.24,-1521.93C266.79,-1516.19 289.09,-1509.29 310.04,-1502.81"/>
<polygon fill="#7e57c2" stroke="#7e57c2" points="310.88,-1506.21 319.4,-1499.91 308.81,-1499.52 310.88,-1506.21"/>
</g>
<!-- pulse_champion_resonance -->
<g id="node42" class="node">
<title>pulse_champion_resonance</title>
<path fill="#f06292" stroke="black" d="M452.5,-1553C452.5,-1553 310.5,-1553 310.5,-1553 304.5,-1553 298.5,-1547 298.5,-1541 298.5,-1541 298.5,-1529 298.5,-1529 298.5,-1523 304.5,-1517 310.5,-1517 310.5,-1517 452.5,-1517 452.5,-1517 458.5,-1517 464.5,-1523 464.5,-1529 464.5,-1529 464.5,-1541 464.5,-1541 464.5,-1547 458.5,-1553 452.5,-1553"/>
<text xml:space="preserve" text-anchor="middle" x="381.5" y="-1529.95" font-family="Times New Roman,serif" font-size="14.00">pulse_champion_resonance</text>
</g>
<!-- pulse_rookie&#45;&gt;pulse_champion_resonance -->
<g id="edge76" class="edge">
<title>pulse_rookie&#45;&gt;pulse_champion_resonance</title>
<path fill="none" stroke="#7e57c2" d="M248.24,-1535C260.06,-1535 273.4,-1535 286.94,-1535"/>
<polygon fill="#7e57c2" stroke="#7e57c2" points="286.82,-1538.5 296.82,-1535 286.82,-1531.5 286.82,-1538.5"/>
</g>
<!-- pulse_champion_static -->
<g id="node43" class="node">
<title>pulse_champion_static</title>
<path fill="#f06292" stroke="black" d="M439.75,-1607C439.75,-1607 323.25,-1607 323.25,-1607 317.25,-1607 311.25,-1601 311.25,-1595 311.25,-1595 311.25,-1583 311.25,-1583 311.25,-1577 317.25,-1571 323.25,-1571 323.25,-1571 439.75,-1571 439.75,-1571 445.75,-1571 451.75,-1577 451.75,-1583 451.75,-1583 451.75,-1595 451.75,-1595 451.75,-1601 445.75,-1607 439.75,-1607"/>
<text xml:space="preserve" text-anchor="middle" x="381.5" y="-1583.95" font-family="Times New Roman,serif" font-size="14.00">pulse_champion_static</text>
</g>
<!-- pulse_rookie&#45;&gt;pulse_champion_static -->
<g id="edge77" class="edge">
<title>pulse_rookie&#45;&gt;pulse_champion_static</title>
<path fill="none" stroke="#7e57c2" d="M248.24,-1548.07C266.79,-1553.81 289.09,-1560.71 310.04,-1567.19"/>
<polygon fill="#7e57c2" stroke="#7e57c2" points="308.81,-1570.48 319.4,-1570.09 310.88,-1563.79 308.81,-1570.48"/>
</g>
<!-- pulse_final_overdrive -->
<g id="node74" class="node">
<title>pulse_final_overdrive</title>
<path fill="lightgrey" stroke="black" d="M637.25,-1553C637.25,-1553 526.75,-1553 526.75,-1553 520.75,-1553 514.75,-1547 514.75,-1541 514.75,-1541 514.75,-1529 514.75,-1529 514.75,-1523 520.75,-1517 526.75,-1517 526.75,-1517 637.25,-1517 637.25,-1517 643.25,-1517 649.25,-1523 649.25,-1529 649.25,-1529 649.25,-1541 649.25,-1541 649.25,-1547 643.25,-1553 637.25,-1553"/>
<text xml:space="preserve" text-anchor="middle" x="582" y="-1529.95" font-family="Times New Roman,serif" font-size="14.00">pulse_final_overdrive</text>
</g>
<!-- pulse_champion_surge&#45;&gt;pulse_final_overdrive -->
<g id="edge78" class="edge">
<title>pulse_champion_surge&#45;&gt;pulse_final_overdrive</title>
<path fill="none" stroke="#7e57c2" d="M450.26,-1499.43C467.46,-1504.11 486.08,-1509.18 503.72,-1513.98"/>
<polygon fill="#7e57c2" stroke="#7e57c2" points="502.53,-1517.28 513.1,-1516.53 504.37,-1510.52 502.53,-1517.28"/>
</g>
<!-- pulse_final_sync -->
<g id="node75" class="node">
<title>pulse_final_sync</title>
<path fill="lightgrey" stroke="black" d="M623.75,-1499C623.75,-1499 540.25,-1499 540.25,-1499 534.25,-1499 528.25,-1493 528.25,-1487 528.25,-1487 528.25,-1475 528.25,-1475 528.25,-1469 534.25,-1463 540.25,-1463 540.25,-1463 623.75,-1463 623.75,-1463 629.75,-1463 635.75,-1469 635.75,-1475 635.75,-1475 635.75,-1487 635.75,-1487 635.75,-1493 629.75,-1499 623.75,-1499"/>
<text xml:space="preserve" text-anchor="middle" x="582" y="-1475.95" font-family="Times New Roman,serif" font-size="14.00">pulse_final_sync</text>
</g>
<!-- pulse_champion_surge&#45;&gt;pulse_final_sync -->
<g id="edge79" class="edge">
<title>pulse_champion_surge&#45;&gt;pulse_final_sync</title>
<path fill="none" stroke="#7e57c2" d="M452.48,-1481C473.29,-1481 495.99,-1481 516.44,-1481"/>
<polygon fill="#7e57c2" stroke="#7e57c2" points="516.35,-1484.5 526.35,-1481 516.35,-1477.5 516.35,-1484.5"/>
</g>
<!-- pulse_champion_resonance&#45;&gt;pulse_final_sync -->
<g id="edge80" class="edge">
<title>pulse_champion_resonance&#45;&gt;pulse_final_sync</title>
<path fill="none" stroke="#7e57c2" d="M450.26,-1516.57C471.87,-1510.69 495.71,-1504.2 517.05,-1498.4"/>
<polygon fill="#7e57c2" stroke="#7e57c2" points="517.76,-1501.83 526.49,-1495.83 515.92,-1495.08 517.76,-1501.83"/>
</g>
<!-- pulse_final_staticstorm -->
<g id="node76" class="node">
<title>pulse_final_staticstorm</title>
<path fill="lightgrey" stroke="black" d="M641.38,-1607C641.38,-1607 522.62,-1607 522.62,-1607 516.62,-1607 510.62,-1601 510.62,-1595 510.62,-1595 510.62,-1583 510.62,-1583 510.62,-1577 516.62,-1571 522.62,-1571 522.62,-1571 641.38,-1571 641.38,-1571 647.38,-1571 653.38,-1577 653.38,-1583 653.38,-1583 653.38,-1595 653.38,-1595 653.38,-1601 647.38,-1607 641.38,-1607"/>
<text xml:space="preserve" text-anchor="middle" x="582" y="-1583.95" font-family="Times New Roman,serif" font-size="14.00">pulse_final_staticstorm</text>
</g>
<!-- pulse_champion_resonance&#45;&gt;pulse_final_staticstorm -->
<g id="edge81" class="edge">
<title>pulse_champion_resonance&#45;&gt;pulse_final_staticstorm</title>
<path fill="none" stroke="#7e57c2" d="M450.26,-1553.43C467.09,-1558.01 485.27,-1562.96 502.57,-1567.67"/>
<polygon fill="#7e57c2" stroke="#7e57c2" points="501.18,-1570.91 511.75,-1570.16 503.02,-1564.16 501.18,-1570.91"/>
</g>
<!-- pulse_champion_static&#45;&gt;pulse_final_overdrive -->
<g id="edge83" class="edge">
<title>pulse_champion_static&#45;&gt;pulse_final_overdrive</title>
<path fill="none" stroke="#7e57c2" d="M450.26,-1570.57C467.46,-1565.89 486.08,-1560.82 503.72,-1556.02"/>
<polygon fill="#7e57c2" stroke="#7e57c2" points="504.37,-1559.48 513.1,-1553.47 502.53,-1552.72 504.37,-1559.48"/>
</g>
<!-- pulse_champion_static&#45;&gt;pulse_final_staticstorm -->
<g id="edge82" class="edge">
<title>pulse_champion_static&#45;&gt;pulse_final_staticstorm</title>
<path fill="none" stroke="#7e57c2" d="M452.2,-1589C467.4,-1589 483.6,-1589 499.22,-1589"/>
<polygon fill="#7e57c2" stroke="#7e57c2" points="498.94,-1592.5 508.94,-1589 498.94,-1585.5 498.94,-1592.5"/>
</g>
<!-- root_baby -->
<g id="node44" class="node">
<title>root_baby</title>
<path fill="#81c784" stroke="black" d="M89,-1746C89,-1746 42.25,-1746 42.25,-1746 36.25,-1746 30.25,-1740 30.25,-1734 30.25,-1734 30.25,-1722 30.25,-1722 30.25,-1716 36.25,-1710 42.25,-1710 42.25,-1710 89,-1710 89,-1710 95,-1710 101,-1716 101,-1722 101,-1722 101,-1734 101,-1734 101,-1740 95,-1746 89,-1746"/>
<text xml:space="preserve" text-anchor="middle" x="65.62" y="-1722.95" font-family="Times New Roman,serif" font-size="14.00">root_baby</text>
</g>
<!-- root_rookie -->
<g id="node45" class="node">
<title>root_rookie</title>
<path fill="#81c784" stroke="black" d="M232.5,-1746C232.5,-1746 177.5,-1746 177.5,-1746 171.5,-1746 165.5,-1740 165.5,-1734 165.5,-1734 165.5,-1722 165.5,-1722 165.5,-1716 171.5,-1710 177.5,-1710 177.5,-1710 232.5,-1710 232.5,-1710 238.5,-1710 244.5,-1716 244.5,-1722 244.5,-1722 244.5,-1734 244.5,-1734 244.5,-1740 238.5,-1746 232.5,-1746"/>
<text xml:space="preserve" text-anchor="middle" x="205" y="-1722.95" font-family="Times New Roman,serif" font-size="14.00">root_rookie</text>
</g>
<!-- root_baby&#45;&gt;root_rookie -->
<g id="edge84" class="edge">
<title>root_baby&#45;&gt;root_rookie</title>
<path fill="none" stroke="black" d="M101.29,-1728C117.25,-1728 136.5,-1728 153.99,-1728"/>
<polygon fill="black" stroke="black" points="153.96,-1731.5 163.96,-1728 153.96,-1724.5 153.96,-1731.5"/>
</g>
<!-- root_champion_thorn -->
<g id="node46" class="node">
<title>root_champion_thorn</title>
<path fill="#81c784" stroke="black" d="M436.38,-1692C436.38,-1692 326.62,-1692 326.62,-1692 320.62,-1692 314.62,-1686 314.62,-1680 314.62,-1680 314.62,-1668 314.62,-1668 314.62,-1662 320.62,-1656 326.62,-1656 326.62,-1656 436.38,-1656 436.38,-1656 442.38,-1656 448.38,-1662 448.38,-1668 448.38,-1668 448.38,-1680 448.38,-1680 448.38,-1686 442.38,-1692 436.38,-1692"/>
<text xml:space="preserve" text-anchor="middle" x="381.5" y="-1668.95" font-family="Times New Roman,serif" font-size="14.00">root_champion_thorn</text>
</g>
<!-- root_rookie&#45;&gt;root_champion_thorn -->
<g id="edge85" class="edge">
<title>root_rookie&#45;&gt;root_champion_thorn</title>
<path fill="none" stroke="#7e57c2" d="M244.73,-1716.02C263.97,-1710.06 287.83,-1702.68 310.15,-1695.77"/>
<polygon fill="#7e57c2" stroke="#7e57c2" points="311,-1699.17 319.52,-1692.87 308.93,-1692.48 311,-1699.17"/>
</g>
<!-- root_champion_bloom -->
<g id="node47" class="node">
<title>root_champion_bloom</title>
<path fill="#81c784" stroke="black" d="M439.75,-1800C439.75,-1800 323.25,-1800 323.25,-1800 317.25,-1800 311.25,-1794 311.25,-1788 311.25,-1788 311.25,-1776 311.25,-1776 311.25,-1770 317.25,-1764 323.25,-1764 323.25,-1764 439.75,-1764 439.75,-1764 445.75,-1764 451.75,-1770 451.75,-1776 451.75,-1776 451.75,-1788 451.75,-1788 451.75,-1794 445.75,-1800 439.75,-1800"/>
<text xml:space="preserve" text-anchor="middle" x="381.5" y="-1776.95" font-family="Times New Roman,serif" font-size="14.00">root_champion_bloom</text>
</g>
<!-- root_rookie&#45;&gt;root_champion_bloom -->
<g id="edge86" class="edge">
<title>root_rookie&#45;&gt;root_champion_bloom</title>
<path fill="none" stroke="#7e57c2" d="M244.73,-1739.98C263.97,-1745.94 287.83,-1753.32 310.15,-1760.23"/>
<polygon fill="#7e57c2" stroke="#7e57c2" points="308.93,-1763.52 319.52,-1763.13 311,-1756.83 308.93,-1763.52"/>
</g>
<!-- root_champion_bark -->
<g id="node48" class="node">
<title>root_champion_bark</title>
<path fill="#81c784" stroke="black" d="M434.12,-1746C434.12,-1746 328.88,-1746 328.88,-1746 322.88,-1746 316.88,-1740 316.88,-1734 316.88,-1734 316.88,-1722 316.88,-1722 316.88,-1716 322.88,-1710 328.88,-1710 328.88,-1710 434.12,-1710 434.12,-1710 440.12,-1710 446.12,-1716 446.12,-1722 446.12,-1722 446.12,-1734 446.12,-1734 446.12,-1740 440.12,-1746 434.12,-1746"/>
<text xml:space="preserve" text-anchor="middle" x="381.5" y="-1722.95" font-family="Times New Roman,serif" font-size="14.00">root_champion_bark</text>
</g>
<!-- root_rookie&#45;&gt;root_champion_bark -->
<g id="edge87" class="edge">
<title>root_rookie&#45;&gt;root_champion_bark</title>
<path fill="none" stroke="#7e57c2" d="M244.73,-1728C262.52,-1728 284.26,-1728 305.08,-1728"/>
<polygon fill="#7e57c2" stroke="#7e57c2" points="305.01,-1731.5 315.01,-1728 305.01,-1724.5 305.01,-1731.5"/>
</g>
<!-- root_final_bramble -->
<g id="node77" class="node">
<title>root_final_bramble</title>
<path fill="lightgrey" stroke="black" d="M630.5,-1671C630.5,-1671 533.5,-1671 533.5,-1671 527.5,-1671 521.5,-1665 521.5,-1659 521.5,-1659 521.5,-1647 521.5,-1647 521.5,-1641 527.5,-1635 533.5,-1635 533.5,-1635 630.5,-1635 630.5,-1635 636.5,-1635 642.5,-1641 642.5,-1647 642.5,-1647 642.5,-1659 642.5,-1659 642.5,-1665 636.5,-1671 630.5,-1671"/>
<text xml:space="preserve" text-anchor="middle" x="582" y="-1647.95" font-family="Times New Roman,serif" font-size="14.00">root_final_bramble</text>
</g>
<!-- root_champion_thorn&#45;&gt;root_final_bramble -->
<g id="edge88" class="edge">
<title>root_champion_thorn&#45;&gt;root_final_bramble</title>
<path fill="none" stroke="#7e57c2" d="M448.87,-1666.98C468.38,-1664.91 489.79,-1662.65 509.59,-1660.55"/>
<polygon fill="#7e57c2" stroke="#7e57c2" points="509.96,-1664.04 519.53,-1659.5 509.22,-1657.07 509.96,-1664.04"/>
</g>
<!-- root_final_ancient -->
<g id="node78" class="node">
<title>root_final_ancient</title>
<path fill="lightgrey" stroke="black" d="M627.5,-1779C627.5,-1779 536.5,-1779 536.5,-1779 530.5,-1779 524.5,-1773 524.5,-1767 524.5,-1767 524.5,-1755 524.5,-1755 524.5,-1749 530.5,-1743 536.5,-1743 536.5,-1743 627.5,-1743 627.5,-1743 633.5,-1743 639.5,-1749 639.5,-1755 639.5,-1755 639.5,-1767 639.5,-1767 639.5,-1773 633.5,-1779 627.5,-1779"/>
<text xml:space="preserve" text-anchor="middle" x="582" y="-1755.95" font-family="Times New Roman,serif" font-size="14.00">root_final_ancient</text>
</g>
<!-- root_champion_thorn&#45;&gt;root_final_ancient -->
<g id="edge89" class="edge">
<title>root_champion_thorn&#45;&gt;root_final_ancient</title>
<path fill="none" stroke="#7e57c2" d="M448.7,-1687.72C458.35,-1691.22 467.86,-1695.58 476.25,-1701 492.4,-1711.44 488.4,-1723.1 504.25,-1734 507.43,-1736.19 510.81,-1738.22 514.3,-1740.1"/>
<polygon fill="#7e57c2" stroke="#7e57c2" points="512.51,-1743.12 523.03,-1744.34 515.56,-1736.82 512.51,-1743.12"/>
</g>
<!-- root_champion_bloom&#45;&gt;root_final_ancient -->
<g id="edge90" class="edge">
<title>root_champion_bloom&#45;&gt;root_final_ancient</title>
<path fill="none" stroke="#7e57c2" d="M452.2,-1774.63C471.91,-1772.54 493.32,-1770.28 512.93,-1768.2"/>
<polygon fill="#7e57c2" stroke="#7e57c2" points="513.16,-1771.7 522.73,-1767.16 512.42,-1764.74 513.16,-1771.7"/>
</g>
<!-- root_final_verdant -->
<g id="node79" class="node">
<title>root_final_verdant</title>
<path fill="lightgrey" stroke="black" d="M628.25,-1833C628.25,-1833 535.75,-1833 535.75,-1833 529.75,-1833 523.75,-1827 523.75,-1821 523.75,-1821 523.75,-1809 523.75,-1809 523.75,-1803 529.75,-1797 535.75,-1797 535.75,-1797 628.25,-1797 628.25,-1797 634.25,-1797 640.25,-1803 640.25,-1809 640.25,-1809 640.25,-1821 640.25,-1821 640.25,-1827 634.25,-1833 628.25,-1833"/>
<text xml:space="preserve" text-anchor="middle" x="582" y="-1809.95" font-family="Times New Roman,serif" font-size="14.00">root_final_verdant</text>
</g>
<!-- root_champion_bloom&#45;&gt;root_final_verdant -->
<g id="edge91" class="edge">
<title>root_champion_bloom&#45;&gt;root_final_verdant</title>
<path fill="none" stroke="#7e57c2" d="M452.2,-1793.59C471.63,-1796.82 492.71,-1800.32 512.09,-1803.54"/>
<polygon fill="#7e57c2" stroke="#7e57c2" points="511.35,-1806.97 521.78,-1805.16 512.49,-1800.06 511.35,-1806.97"/>
</g>
<!-- root_champion_bark&#45;&gt;root_final_ancient -->
<g id="edge93" class="edge">
<title>root_champion_bark&#45;&gt;root_final_ancient</title>
<path fill="none" stroke="#7e57c2" d="M446.4,-1738.62C467.73,-1742.17 491.56,-1746.13 513.18,-1749.73"/>
<polygon fill="#7e57c2" stroke="#7e57c2" points="512.33,-1753.13 522.76,-1751.32 513.47,-1746.23 512.33,-1753.13"/>
</g>
<!-- root_final_warden -->
<g id="node80" class="node">
<title>root_final_warden</title>
<path fill="lightgrey" stroke="black" d="M627.88,-1725C627.88,-1725 536.12,-1725 536.12,-1725 530.12,-1725 524.12,-1719 524.12,-1713 524.12,-1713 524.12,-1701 524.12,-1701 524.12,-1695 530.12,-1689 536.12,-1689 536.12,-1689 627.88,-1689 627.88,-1689 633.88,-1689 639.88,-1695 639.88,-1701 639.88,-1701 639.88,-1713 639.88,-1713 639.88,-1719 633.88,-1725 627.88,-1725"/>
<text xml:space="preserve" text-anchor="middle" x="582" y="-1701.95" font-family="Times New Roman,serif" font-size="14.00">root_final_warden</text>
</g>
<!-- root_champion_bark&#45;&gt;root_final_warden -->
<g id="edge92" class="edge">
<title>root_champion_bark&#45;&gt;root_final_warden</title>
<path fill="none" stroke="#7e57c2" d="M446.4,-1721.24C467.53,-1719 491.13,-1716.51 512.59,-1714.24"/>
<polygon fill="#7e57c2" stroke="#7e57c2" points="512.85,-1717.73 522.42,-1713.2 512.11,-1710.77 512.85,-1717.73"/>
</g>
<!-- void_baby -->
<g id="node49" class="node">
<title>void_baby</title>
<path fill="#b0bec5" stroke="black" d="M90.12,-1950C90.12,-1950 41.12,-1950 41.12,-1950 35.12,-1950 29.12,-1944 29.12,-1938 29.12,-1938 29.12,-1926 29.12,-1926 29.12,-1920 35.12,-1914 41.12,-1914 41.12,-1914 90.12,-1914 90.12,-1914 96.12,-1914 102.12,-1920 102.12,-1926 102.12,-1926 102.12,-1938 102.12,-1938 102.12,-1944 96.12,-1950 90.12,-1950"/>
<text xml:space="preserve" text-anchor="middle" x="65.62" y="-1926.95" font-family="Times New Roman,serif" font-size="14.00">void_baby</text>
</g>
<!-- void_rookie -->
<g id="node50" class="node">
<title>void_rookie</title>
<path fill="#b0bec5" stroke="black" d="M233.62,-1950C233.62,-1950 176.38,-1950 176.38,-1950 170.38,-1950 164.38,-1944 164.38,-1938 164.38,-1938 164.38,-1926 164.38,-1926 164.38,-1920 170.38,-1914 176.38,-1914 176.38,-1914 233.62,-1914 233.62,-1914 239.62,-1914 245.62,-1920 245.62,-1926 245.62,-1926 245.62,-1938 245.62,-1938 245.62,-1944 239.62,-1950 233.62,-1950"/>
<text xml:space="preserve" text-anchor="middle" x="205" y="-1926.95" font-family="Times New Roman,serif" font-size="14.00">void_rookie</text>
</g>
<!-- void_baby&#45;&gt;void_rookie -->
<g id="edge94" class="edge">
<title>void_baby&#45;&gt;void_rookie</title>
<path fill="none" stroke="black" d="M102.36,-1932C117.73,-1932 135.99,-1932 152.76,-1932"/>
<polygon fill="black" stroke="black" points="152.57,-1935.5 162.57,-1932 152.57,-1928.5 152.57,-1935.5"/>
</g>
<!-- void_champion_entropy -->
<g id="node51" class="node">
<title>void_champion_entropy</title>
<path fill="#b0bec5" stroke="black" d="M443.88,-2004C443.88,-2004 319.12,-2004 319.12,-2004 313.12,-2004 307.12,-1998 307.12,-1992 307.12,-1992 307.12,-1980 307.12,-1980 307.12,-1974 313.12,-1968 319.12,-1968 319.12,-1968 443.88,-1968 443.88,-1968 449.88,-1968 455.88,-1974 455.88,-1980 455.88,-1980 455.88,-1992 455.88,-1992 455.88,-1998 449.88,-2004 443.88,-2004"/>
<text xml:space="preserve" text-anchor="middle" x="381.5" y="-1980.95" font-family="Times New Roman,serif" font-size="14.00">void_champion_entropy</text>
</g>
<!-- void_rookie&#45;&gt;void_champion_entropy -->
<g id="edge95" class="edge">
<title>void_rookie&#45;&gt;void_champion_entropy</title>
<path fill="none" stroke="#7e57c2" d="M246.03,-1944.39C264.97,-1950.25 288.16,-1957.42 309.91,-1964.15"/>
<polygon fill="#7e57c2" stroke="#7e57c2" points="308.75,-1967.46 319.33,-1967.07 310.81,-1960.77 308.75,-1967.46"/>
</g>
<!-- void_champion_gravity -->
<g id="node52" class="node">
<title>void_champion_gravity</title>
<path fill="#b0bec5" stroke="black" d="M442.38,-1896C442.38,-1896 320.62,-1896 320.62,-1896 314.62,-1896 308.62,-1890 308.62,-1884 308.62,-1884 308.62,-1872 308.62,-1872 308.62,-1866 314.62,-1860 320.62,-1860 320.62,-1860 442.38,-1860 442.38,-1860 448.38,-1860 454.38,-1866 454.38,-1872 454.38,-1872 454.38,-1884 454.38,-1884 454.38,-1890 448.38,-1896 442.38,-1896"/>
<text xml:space="preserve" text-anchor="middle" x="381.5" y="-1872.95" font-family="Times New Roman,serif" font-size="14.00">void_champion_gravity</text>
</g>
<!-- void_rookie&#45;&gt;void_champion_gravity -->
<g id="edge96" class="edge">
<title>void_rookie&#45;&gt;void_champion_gravity</title>
<path fill="none" stroke="#7e57c2" d="M246.03,-1919.61C264.97,-1913.75 288.16,-1906.58 309.91,-1899.85"/>
<polygon fill="#7e57c2" stroke="#7e57c2" points="310.81,-1903.23 319.33,-1896.93 308.75,-1896.54 310.81,-1903.23"/>
</g>
<!-- void_champion_null -->
<g id="node53" class="node">
<title>void_champion_null</title>
<path fill="#b0bec5" stroke="black" d="M433.75,-1950C433.75,-1950 329.25,-1950 329.25,-1950 323.25,-1950 317.25,-1944 317.25,-1938 317.25,-1938 317.25,-1926 317.25,-1926 317.25,-1920 323.25,-1914 329.25,-1914 329.25,-1914 433.75,-1914 433.75,-1914 439.75,-1914 445.75,-1920 445.75,-1926 445.75,-1926 445.75,-1938 445.75,-1938 445.75,-1944 439.75,-1950 433.75,-1950"/>
<text xml:space="preserve" text-anchor="middle" x="381.5" y="-1926.95" font-family="Times New Roman,serif" font-size="14.00">void_champion_null</text>
</g>
<!-- void_rookie&#45;&gt;void_champion_null -->
<g id="edge97" class="edge">
<title>void_rookie&#45;&gt;void_champion_null</title>
<path fill="none" stroke="#7e57c2" d="M246.03,-1932C263.78,-1932 285.25,-1932 305.78,-1932"/>
<polygon fill="#7e57c2" stroke="#7e57c2" points="305.54,-1935.5 315.54,-1932 305.54,-1928.5 305.54,-1935.5"/>
</g>
<!-- corrupt_final_glitch -->
<g id="node81" class="node">
<title>corrupt_final_glitch</title>
<path fill="lightgrey" stroke="black" d="M632,-2004C632,-2004 532,-2004 532,-2004 526,-2004 520,-1998 520,-1992 520,-1992 520,-1980 520,-1980 520,-1974 526,-1968 532,-1968 532,-1968 632,-1968 632,-1968 638,-1968 644,-1974 644,-1980 644,-1980 644,-1992 644,-1992 644,-1998 638,-2004 632,-2004"/>
<text xml:space="preserve" text-anchor="middle" x="582" y="-1980.95" font-family="Times New Roman,serif" font-size="14.00">corrupt_final_glitch</text>
</g>
<!-- void_champion_entropy&#45;&gt;corrupt_final_glitch -->
<g id="edge98" class="edge">
<title>void_champion_entropy&#45;&gt;corrupt_final_glitch</title>
<path fill="none" stroke="#7e57c2" d="M456.13,-1986C473.08,-1986 491.09,-1986 508,-1986"/>
<polygon fill="#7e57c2" stroke="#7e57c2" points="508,-1989.5 518,-1986 508,-1982.5 508,-1989.5"/>
</g>
<!-- void_final_oblivion -->
<g id="node82" class="node">
<title>void_final_oblivion</title>
<path fill="lightgrey" stroke="black" d="M631.62,-1950C631.62,-1950 532.38,-1950 532.38,-1950 526.38,-1950 520.38,-1944 520.38,-1938 520.38,-1938 520.38,-1926 520.38,-1926 520.38,-1920 526.38,-1914 532.38,-1914 532.38,-1914 631.62,-1914 631.62,-1914 637.62,-1914 643.62,-1920 643.62,-1926 643.62,-1926 643.62,-1938 643.62,-1938 643.62,-1944 637.62,-1950 631.62,-1950"/>
<text xml:space="preserve" text-anchor="middle" x="582" y="-1926.95" font-family="Times New Roman,serif" font-size="14.00">void_final_oblivion</text>
</g>
<!-- void_champion_entropy&#45;&gt;void_final_oblivion -->
<g id="edge99" class="edge">
<title>void_champion_entropy&#45;&gt;void_final_oblivion</title>
<path fill="none" stroke="#7e57c2" d="M450.26,-1967.57C469.22,-1962.41 489.9,-1956.78 509.09,-1951.56"/>
<polygon fill="#7e57c2" stroke="#7e57c2" points="510.01,-1954.94 518.74,-1948.94 508.17,-1948.18 510.01,-1954.94"/>
</g>
<!-- void_champion_gravity&#45;&gt;void_final_oblivion -->
<g id="edge101" class="edge">
<title>void_champion_gravity&#45;&gt;void_final_oblivion</title>
<path fill="none" stroke="#7e57c2" d="M450.26,-1896.43C469.22,-1901.59 489.9,-1907.22 509.09,-1912.44"/>
<polygon fill="#7e57c2" stroke="#7e57c2" points="508.17,-1915.82 518.74,-1915.06 510.01,-1909.06 508.17,-1915.82"/>
</g>
<!-- void_final_singularity -->
<g id="node83" class="node">
<title>void_final_singularity</title>
<path fill="lightgrey" stroke="black" d="M638,-1896C638,-1896 526,-1896 526,-1896 520,-1896 514,-1890 514,-1884 514,-1884 514,-1872 514,-1872 514,-1866 520,-1860 526,-1860 526,-1860 638,-1860 638,-1860 644,-1860 650,-1866 650,-1872 650,-1872 650,-1884 650,-1884 650,-1890 644,-1896 638,-1896"/>
<text xml:space="preserve" text-anchor="middle" x="582" y="-1872.95" font-family="Times New Roman,serif" font-size="14.00">void_final_singularity</text>
</g>
<!-- void_champion_gravity&#45;&gt;void_final_singularity -->
<g id="edge100" class="edge">
<title>void_champion_gravity&#45;&gt;void_final_singularity</title>
<path fill="none" stroke="#7e57c2" d="M454.72,-1878C470.25,-1878 486.72,-1878 502.47,-1878"/>
<polygon fill="#7e57c2" stroke="#7e57c2" points="502.27,-1881.5 512.27,-1878 502.27,-1874.5 502.27,-1881.5"/>
</g>
<!-- void_champion_null&#45;&gt;void_final_oblivion -->
<g id="edge102" class="edge">
<title>void_champion_null&#45;&gt;void_final_oblivion</title>
<path fill="none" stroke="#7e57c2" d="M446.13,-1932C466.03,-1932 488.14,-1932 508.6,-1932"/>
<polygon fill="#7e57c2" stroke="#7e57c2" points="508.59,-1935.5 518.59,-1932 508.59,-1928.5 508.59,-1935.5"/>
</g>
<!-- void_champion_null&#45;&gt;void_final_singularity -->
<g id="edge103" class="edge">
<title>void_champion_null&#45;&gt;void_final_singularity</title>
<path fill="none" stroke="#7e57c2" d="M446.13,-1914.69C464.14,-1909.79 483.95,-1904.4 502.72,-1899.3"/>
<polygon fill="#7e57c2" stroke="#7e57c2" points="503.44,-1902.73 512.17,-1896.73 501.6,-1895.97 503.44,-1902.73"/>
</g>
</g>
</svg>
