<?xml version="1.0" encoding="UTF-8" standalone="no"?>
<!DOCTYPE svg PUBLIC "-//W3C//DTD SVG 1.1//EN"
 "http://www.w3.org/Graphics/SVG/1.1/DTD/svg11.dtd">
<!-- Generated by graphviz version 2.43.0 (0)
 -->
<!-- Title: EvolutionTree Pages: 1 -->
<svg width="655pt" height="152pt"
 viewBox="0.00 0.00 655.00 152.00" xmlns="http://www.w3.org/2000/svg" xmlns:xlink="http://www.w3.org/1999/xlink">
<g id="graph0" class="graph" transform="scale(1 1) rotate(0) translate(4 148)">
<title>EvolutionTree</title>
<polygon fill="white" stroke="transparent" points="-4,4 -4,-148 651,-148 651,4 -4,4"/>
<!-- void_baby -->
<g id="node1" class="node">
<title>void_baby</title>
<path fill="#b0bec5" stroke="black" d="M76,-90C76,-90 12,-90 12,-90 6,-90 0,-84 0,-78 0,-78 0,-66 0,-66 0,-60 6,-54 12,-54 12,-54 76,-54 76,-54 82,-54 88,-60 88,-66 88,-66 88,-78 88,-78 88,-84 82,-90 76,-90"/>
<text text-anchor="middle" x="44" y="-68.3" font-family="Times,serif" font-size="14.00">void_baby</text>
</g>
<!-- void_rookie -->
<g id="node2" class="node">
<title>void_rookie</title>
<path fill="#b0bec5" stroke="black" d="M210,-90C210,-90 136,-90 136,-90 130,-90 124,-84 124,-78 124,-78 124,-66 124,-66 124,-60 130,-54 136,-54 136,-54 210,-54 210,-54 216,-54 222,-60 222,-66 222,-66 222,-78 222,-78 222,-84 216,-90 210,-90"/>
<text text-anchor="middle" x="173" y="-68.3" font-family="Times,serif" font-size="14.00">void_rookie</text>
</g>
<!-- void_baby&#45;&gt;void_rookie -->
<g id="edge1" class="edge">
<title>void_baby&#45;&gt;void_rookie</title>
<path fill="none" stroke="black" d="M88.35,-72C96.42,-72 104.98,-72 113.42,-72"/>
<polygon fill="black" stroke="black" points="113.61,-75.5 123.61,-72 113.61,-68.5 113.61,-75.5"/>
</g>
<!-- void_champion_entropy -->
<g id="node3" class="node">
<title>void_champion_entropy</title>
<path fill="#b0bec5" stroke="black" d="M431,-144C431,-144 270,-144 270,-144 264,-144 258,-138 258,-132 258,-132 258,-120 258,-120 258,-114 264,-108 270,-108 270,-108 431,-108 431,-108 437,-108 443,-114 443,-120 443,-120 443,-132 443,-132 443,-138 437,-144 431,-144"/>
<text text-anchor="middle" x="350.5" y="-122.3" font-family="Times,serif" font-size="14.00">void_champion_entropy</text>
</g>
<!-- void_rookie&#45;&gt;void_champion_entropy -->
<g id="edge2" class="edge">
<title>void_rookie&#45;&gt;void_champion_entropy</title>
<path fill="none" stroke="#7e57c2" d="M222.35,-87.76C234.01,-91.5 246.44,-95.44 258,-99 264.38,-100.97 271.02,-102.98 277.68,-104.99"/>
<polygon fill="#7e57c2" stroke="#7e57c2" points="276.84,-108.39 287.42,-107.9 278.85,-101.68 276.84,-108.39"/>
</g>
<!-- void_champion_gravity -->
<g id="node4" class="node">
<title>void_champion_gravity</title>
<path fill="#b0bec5" stroke="black" d="M428.5,-36C428.5,-36 272.5,-36 272.5,-36 266.5,-36 260.5,-30 260.5,-24 260.5,-24 260.5,-12 260.5,-12 260.5,-6 266.5,0 272.5,0 272.5,0 428.5,0 428.5,0 434.5,0 440.5,-6 440.5,-12 440.5,-12 440.5,-24 440.5,-24 440.5,-30 434.5,-36 428.5,-36"/>
<text text-anchor="middle" x="350.5" y="-14.3" font-family="Times,serif" font-size="14.00">void_champion_gravity</text>
</g>
<!-- void_rookie&#45;&gt;void_champion_gravity -->
<g id="edge3" class="edge">
<title>void_rookie&#45;&gt;void_champion_gravity</title>
<path fill="none" stroke="#7e57c2" d="M222.35,-56.24C234.01,-52.5 246.44,-48.56 258,-45 264.38,-43.03 271.02,-41.02 277.68,-39.01"/>
<polygon fill="#7e57c2" stroke="#7e57c2" points="278.85,-42.32 287.42,-36.1 276.84,-35.61 278.85,-42.32"/>
</g>
<!-- void_champion_null -->
<g id="node5" class="node">
<title>void_champion_null</title>
<path fill="#b0bec5" stroke="black" d="M416.5,-90C416.5,-90 284.5,-90 284.5,-90 278.5,-90 272.5,-84 272.5,-78 272.5,-78 272.5,-66 272.5,-66 272.5,-60 278.5,-54 284.5,-54 284.5,-54 416.5,-54 416.5,-54 422.5,-54 428.5,-60 428.5,-66 428.5,-66 428.5,-78 428.5,-78 428.5,-84 422.5,-90 416.5,-90"/>
<text text-anchor="middle" x="350.5" y="-68.3" font-family="Times,serif" font-size="14.00">void_champion_null</text>
</g>
<!-- void_rookie&#45;&gt;void_champion_null -->
<g id="edge4" class="edge">
<title>void_rookie&#45;&gt;void_champion_null</title>
<path fill="none" stroke="#7e57c2" d="M222.42,-72C234.71,-72 248.3,-72 261.88,-72"/>
<polygon fill="#7e57c2" stroke="#7e57c2" points="262.24,-75.5 272.24,-72 262.24,-68.5 262.24,-75.5"/>
</g>
<!-- corrupt_final_glitch -->
<g id="node6" class="node">
<title>corrupt_final_glitch</title>
<path fill="lightgrey" stroke="black" d="M628.5,-144C628.5,-144 497.5,-144 497.5,-144 491.5,-144 485.5,-138 485.5,-132 485.5,-132 485.5,-120 485.5,-120 485.5,-114 491.5,-108 497.5,-108 497.5,-108 628.5,-108 628.5,-108 634.5,-108 640.5,-114 640.5,-120 640.5,-120 640.5,-132 640.5,-132 640.5,-138 634.5,-144 628.5,-144"/>
<text text-anchor="middle" x="563" y="-122.3" font-family="Times,serif" font-size="14.00">corrupt_final_glitch</text>
</g>
<!-- void_champion_entropy&#45;&gt;corrupt_final_glitch -->
<g id="edge5" class="edge">
<title>void_champion_entropy&#45;&gt;corrupt_final_glitch</title>
<path fill="none" stroke="#7e57c2" d="M443.22,-126C453.88,-126 464.73,-126 475.32,-126"/>
<polygon fill="#7e57c2" stroke="#7e57c2" points="475.38,-129.5 485.38,-126 475.38,-122.5 475.38,-129.5"/>
</g>
<!-- void_final_oblivion -->
<g id="node7" class="node">
<title>void_final_oblivion</title>
<path fill="lightgrey" stroke="black" d="M624.5,-90C624.5,-90 501.5,-90 501.5,-90 495.5,-90 489.5,-84 489.5,-78 489.5,-78 489.5,-66 489.5,-66 489.5,-60 495.5,-54 501.5,-54 501.5,-54 624.5,-54 624.5,-54 630.5,-54 636.5,-60 636.5,-66 636.5,-66 636.5,-78 636.5,-78 636.5,-84 630.5,-90 624.5,-90"/>
<text text-anchor="middle" x="563" y="-68.3" font-family="Times,serif" font-size="14.00">void_final_oblivion</text>
</g>
<!-- void_champion_entropy&#45;&gt;void_final_oblivion -->
<g id="edge6" class="edge">
<title>void_champion_entropy&#45;&gt;void_final_oblivion</title>
<path fill="none" stroke="#7e57c2" d="M421.89,-107.94C441.11,-103.01 462.08,-97.63 481.8,-92.57"/>
<polygon fill="#7e57c2" stroke="#7e57c2" points="482.86,-95.91 491.68,-90.04 481.12,-89.13 482.86,-95.91"/>
</g>
<!-- void_champion_gravity&#45;&gt;void_final_oblivion -->
<g id="edge8" class="edge">
<title>void_champion_gravity&#45;&gt;void_final_oblivion</title>
<path fill="none" stroke="#7e57c2" d="M421.89,-36.06C441.11,-40.99 462.08,-46.37 481.8,-51.43"/>
<polygon fill="#7e57c2" stroke="#7e57c2" points="481.12,-54.87 491.68,-53.96 482.86,-48.09 481.12,-54.87"/>
</g>
<!-- void_final_singularity -->
<g id="node8" class="node">
<title>void_final_singularity</title>
<path fill="lightgrey" stroke="black" d="M635,-36C635,-36 491,-36 491,-36 485,-36 479,-30 479,-24 479,-24 479,-12 479,-12 479,-6 485,0 491,0 491,0 635,0 635,0 641,0 647,-6 647,-12 647,-12 647,-24 647,-24 647,-30 641,-36 635,-36"/>
<text text-anchor="middle" x="563" y="-14.3" font-family="Times,serif" font-size="14.00">void_final_singularity</text>
</g>
<!-- void_champion_gravity&#45;&gt;void_final_singularity -->
<g id="edge7" class="edge">
<title>void_champion_gravity&#45;&gt;void_final_singularity</title>
<path fill="none" stroke="#7e57c2" d="M440.77,-18C450.07,-18 459.54,-18 468.88,-18"/>
<polygon fill="#7e57c2" stroke="#7e57c2" points="468.95,-21.5 478.95,-18 468.95,-14.5 468.95,-21.5"/>
</g>
<!-- void_champion_null&#45;&gt;void_final_oblivion -->
<g id="edge9" class="edge">
<title>void_champion_null&#45;&gt;void_final_oblivion</title>
<path fill="none" stroke="#7e57c2" d="M428.69,-72C445.11,-72 462.51,-72 479.14,-72"/>
<polygon fill="#7e57c2" stroke="#7e57c2" points="479.37,-75.5 489.37,-72 479.37,-68.5 479.37,-75.5"/>
</g>
<!-- void_champion_null&#45;&gt;void_final_singularity -->
<g id="edge10" class="edge">
<title>void_champion_null&#45;&gt;void_final_singularity</title>
<path fill="none" stroke="#7e57c2" d="M421.89,-53.94C441.11,-49.01 462.08,-43.63 481.8,-38.57"/>
<polygon fill="#7e57c2" stroke="#7e57c2" points="482.86,-41.91 491.68,-36.04 481.12,-35.13 482.86,-41.91"/>
</g>
</g>
</svg>
