<?xml version="1.0" encoding="UTF-8" standalone="no"?>
<!DOCTYPE svg PUBLIC "-//W3C//DTD SVG 1.1//EN"
 "http://www.w3.org/Graphics/SVG/1.1/DTD/svg11.dtd">
<!-- Generated by graphviz version 14.1.2 (20260124.0452)
 -->
<!-- Title: EvolutionTree Pages: 1 -->
<svg width="548pt" height="44pt"
 viewBox="0.00 0.00 548.00 44.00" xmlns="http://www.w3.org/2000/svg" xmlns:xlink="http://www.w3.org/1999/xlink">
<g id="graph0" class="graph" transform="scale(1 1) rotate(0) translate(4 40)">
<title>EvolutionTree</title>
<polygon fill="white" stroke="none" points="-4,4 -4,-40 543.5,-40 543.5,4 -4,4"/>
<!-- codeborn_baby -->
<g id="node1" class="node">
<title>codeborn_baby</title>
<path fill="#e0e0e0" stroke="black" d="M87.25,-36C87.25,-36 12,-36 12,-36 6,-36 0,-30 0,-24 0,-24 0,-12 0,-12 0,-6 6,0 12,0 12,0 87.25,0 87.25,0 93.25,0 99.25,-6 99.25,-12 99.25,-12 99.25,-24 99.25,-24 99.25,-30 93.25,-36 87.25,-36"/>
<text xml:space="preserve" text-anchor="middle" x="49.62" y="-12.95" font-family="Times New Roman,serif" font-size="14.00">codeborn_baby</text>
</g>
<!-- codeborn_rookie -->
<g id="node2" class="node">
<title>codeborn_rookie</title>
<path fill="#e0e0e0" stroke="black" d="M230.75,-36C230.75,-36 147.25,-36 147.25,-36 141.25,-36 135.25,-30 135.25,-24 135.25,-24 135.25,-12 135.25,-12 135.25,-6 141.25,0 147.25,0 147.25,0 230.75,0 230.75,0 236.75,0 242.75,-6 242.75,-12 242.75,-12 242.75,-24 242.75,-24 242.75,-30 236.75,-36 230.75,-36"/>
<text xml:space="preserve" text-anchor="middle" x="189" y="-12.95" font-family="Times New Roman,serif" font-size="14.00">codeborn_rookie</text>
</g>
<!-- codeborn_baby&#45;&gt;codeborn_rookie -->
<g id="edge1" class="edge">
<title>codeborn_baby&#45;&gt;codeborn_rookie</title>
<path fill="none" stroke="black" d="M99.45,-18C107.31,-18 115.55,-18 123.71,-18"/>
<polygon fill="black" stroke="black" points="123.63,-21.5 133.63,-18 123.63,-14.5 123.63,-21.5"/>
</g>
<!-- codeborn_champion -->
<g id="node3" class="node">
<title>codeborn_champion</title>
<path fill="#e0e0e0" stroke="black" d="M393.75,-36C393.75,-36 290.75,-36 290.75,-36 284.75,-36 278.75,-30 278.75,-24 278.75,-24 278.75,-12 278.75,-12 278.75,-6 284.75,0 290.75,0 290.75,0 393.75,0 393.75,0 399.75,0 405.75,-6 405.75,-12 405.75,-12 405.75,-24 405.75,-24 405.75,-30 399.75,-36 393.75,-36"/>
<text xml:space="preserve" text-anchor="middle" x="342.25" y="-12.95" font-family="Times New Roman,serif" font-size="14.00">codeborn_champion</text>
</g>
<!-- codeborn_rookie&#45;&gt;codeborn_champion -->
<g id="edge2" class="edge">
<title>codeborn_rookie&#45;&gt;codeborn_champion</title>
<path fill="none" stroke="black" d="M242.9,-18C250.72,-18 258.89,-18 267.04,-18"/>
<polygon fill="black" stroke="black" points="267,-21.5 277,-18 267,-14.5 267,-21.5"/>
</g>
<!-- codeborn_final -->
<g id="node4" class="node">
<title>codeborn_final</title>
<path fill="lightgrey" stroke="black" d="M527.5,-36C527.5,-36 453.75,-36 453.75,-36 447.75,-36 441.75,-30 441.75,-24 441.75,-24 441.75,-12 441.75,-12 441.75,-6 447.75,0 453.75,0 453.75,0 527.5,0 527.5,0 533.5,0 539.5,-6 539.5,-12 539.5,-12 539.5,-24 539.5,-24 539.5,-30 533.5,-36 527.5,-36"/>
<text xml:space="preserve" text-anchor="middle" x="490.62" y="-12.95" font-family="Times New Roman,serif" font-size="14.00">codeborn_final</text>
</g>
<!-- codeborn_champion&#45;&gt;codeborn_final -->
<g id="edge3" class="edge">
<title>codeborn_champion&#45;&gt;codeborn_final</title>
<path fill="none" stroke="black" d="M406.18,-18C414.09,-18 422.17,-18 430.03,-18"/>
<polygon fill="black" stroke="black" points="429.83,-21.5 439.83,-18 429.83,-14.5 429.83,-21.5"/>
</g>
</g>
</svg>
