<?xml version="1.0" encoding="UTF-8" standalone="no"?>
<!DOCTYPE svg PUBLIC "-//W3C//DTD SVG 1.1//EN"
 "http://www.w3.org/Graphics/SVG/1.1/DTD/svg11.dtd">
<!-- Generated by graphviz version 2.43.0 (0)
 -->
<!-- Title: EvolutionTree Pages: 1 -->
<svg width="761pt" height="152pt"
 viewBox="0.00 0.00 761.00 152.00" xmlns="http://www.w3.org/2000/svg" xmlns:xlink="http://www.w3.org/1999/xlink">
<g id="graph0" class="graph" transform="scale(1 1) rotate(0) translate(4 148)">
<title>EvolutionTree</title>
<polygon fill="white" stroke="transparent" points="-4,4 -4,-148 757,-148 757,4 -4,4"/>
<!-- corrupt_baby -->
<g id="node1" class="node">
<title>corrupt_baby</title>
<path fill="#ef5350" stroke="black" d="M99,-90C99,-90 12,-90 12,-90 6,-90 0,-84 0,-78 0,-78 0,-66 0,-66 0,-60 6,-54 12,-54 12,-54 99,-54 99,-54 105,-54 111,-60 111,-66 111,-66 111,-78 111,-78 111,-84 105,-90 99,-90"/>
<text text-anchor="middle" x="55.5" y="-68.3" font-family="Times,serif" font-size="14.00">corrupt_baby</text>
</g>
<!-- corrupt_rookie -->
<g id="node2" class="node">
<title>corrupt_rookie</title>
<path fill="#ef5350" stroke="black" d="M256,-90C256,-90 159,-90 159,-90 153,-90 147,-84 147,-78 147,-78 147,-66 147,-66 147,-60 153,-54 159,-54 159,-54 256,-54 256,-54 262,-54 268,-60 268,-66 268,-66 268,-78 268,-78 268,-84 262,-90 256,-90"/>
<text text-anchor="middle" x="207.5" y="-68.3" font-family="Times,serif" font-size="14.00">corrupt_rookie</text>
</g>
<!-- corrupt_baby&#45;&gt;corrupt_rookie -->
<g id="edge1" class="edge">
<title>corrupt_baby&#45;&gt;corrupt_rookie</title>
<path fill="none" stroke="black" d="M111.08,-72C119.45,-72 128.18,-72 136.82,-72"/>
<polygon fill="black" stroke="black" points="136.9,-75.5 146.9,-72 136.9,-68.5 136.9,-75.5"/>
</g>
<!-- corrupt_champion_glitch -->
<g id="node3" class="node">
<title>corrupt_champion_glitch</title>
<path fill="#ef5350" stroke="black" d="M496,-144C496,-144 327,-144 327,-144 321,-144 315,-138 315,-132 315,-132 315,-120 315,-120 315,-114 321,-108 327,-108 327,-108 496,-108 496,-108 502,-108 508,-114 508,-120 508,-120 508,-132 508,-132 508,-138 502,-144 496,-144"/>
<text text-anchor="middle" x="411.5" y="-122.3" font-family="Times,serif" font-size="14.00">corrupt_champion_glitch</text>
</g>
<!-- corrupt_rookie&#45;&gt;corrupt_champion_glitch -->
<g id="edge2" class="edge">
<title>corrupt_rookie&#45;&gt;corrupt_champion_glitch</title>
<path fill="none" stroke="#7e57c2" d="M268.03,-89.1C279.93,-92.44 292.35,-95.88 304,-99 311.95,-101.13 320.24,-103.31 328.53,-105.46"/>
<polygon fill="#7e57c2" stroke="#7e57c2" points="327.69,-108.86 338.25,-107.97 329.44,-102.08 327.69,-108.86"/>
</g>
<!-- corrupt_champion_error -->
<g id="node4" class="node">
<title>corrupt_champion_error</title>
<path fill="#ef5350" stroke="black" d="M494,-90C494,-90 329,-90 329,-90 323,-90 317,-84 317,-78 317,-78 317,-66 317,-66 317,-60 323,-54 329,-54 329,-54 494,-54 494,-54 500,-54 506,-60 506,-66 506,-66 506,-78 506,-78 506,-84 500,-90 494,-90"/>
<text text-anchor="middle" x="411.5" y="-68.3" font-family="Times,serif" font-size="14.00">corrupt_champion_error</text>
</g>
<!-- corrupt_rookie&#45;&gt;corrupt_champion_error -->
<g id="edge3" class="edge">
<title>corrupt_rookie&#45;&gt;corrupt_champion_error</title>
<path fill="none" stroke="#7e57c2" d="M268.01,-72C280.26,-72 293.48,-72 306.77,-72"/>
<polygon fill="#7e57c2" stroke="#7e57c2" points="306.93,-75.5 316.93,-72 306.93,-68.5 306.93,-75.5"/>
</g>
<!-- corrupt_champion_patchfail -->
<g id="node5" class="node">
<title>corrupt_champion_patchfail</title>
<path fill="#ef5350" stroke="black" d="M507,-36C507,-36 316,-36 316,-36 310,-36 304,-30 304,-24 304,-24 304,-12 304,-12 304,-6 310,0 316,0 316,0 507,0 507,0 513,0 519,-6 519,-12 519,-12 519,-24 519,-24 519,-30 513,-36 507,-36"/>
<text text-anchor="middle" x="411.5" y="-14.3" font-family="Times,serif" font-size="14.00">corrupt_champion_patchfail</text>
</g>
<!-- corrupt_rookie&#45;&gt;corrupt_champion_patchfail -->
<g id="edge4" class="edge">
<title>corrupt_rookie&#45;&gt;corrupt_champion_patchfail</title>
<path fill="none" stroke="#7e57c2" d="M268.03,-54.9C279.93,-51.56 292.35,-48.12 304,-45 311.95,-42.87 320.24,-40.69 328.53,-38.54"/>
<polygon fill="#7e57c2" stroke="#7e57c2" points="329.44,-41.92 338.25,-36.03 327.69,-35.14 329.44,-41.92"/>
</g>
<!-- corrupt_final_corruptcore -->
<g id="node6" class="node">
<title>corrupt_final_corruptcore</title>
<path fill="lightgrey" stroke="black" d="M741,-117C741,-117 567,-117 567,-117 561,-117 555,-111 555,-105 555,-105 555,-93 555,-93 555,-87 561,-81 567,-81 567,-81 741,-81 741,-81 747,-81 753,-87 753,-93 753,-93 753,-105 753,-105 753,-111 747,-117 741,-117"/>
<text text-anchor="middle" x="654" y="-95.3" font-family="Times,serif" font-size="14.00">corrupt_final_corruptcore</text>
</g>
<!-- corrupt_champion_glitch&#45;&gt;corrupt_final_corruptcore -->
<g id="edge5" class="edge">
<title>corrupt_champion_glitch&#45;&gt;corrupt_final_corruptcore</title>
<path fill="none" stroke="#7e57c2" d="M508.24,-115.25C520.22,-113.91 532.53,-112.52 544.68,-111.16"/>
<polygon fill="#7e57c2" stroke="#7e57c2" points="545.28,-114.61 554.83,-110.02 544.5,-107.66 545.28,-114.61"/>
</g>
<!-- corrupt_final_overrun -->
<g id="node7" class="node">
<title>corrupt_final_overrun</title>
<path fill="lightgrey" stroke="black" d="M727,-63C727,-63 581,-63 581,-63 575,-63 569,-57 569,-51 569,-51 569,-39 569,-39 569,-33 575,-27 581,-27 581,-27 727,-27 727,-27 733,-27 739,-33 739,-39 739,-39 739,-51 739,-51 739,-57 733,-63 727,-63"/>
<text text-anchor="middle" x="654" y="-41.3" font-family="Times,serif" font-size="14.00">corrupt_final_overrun</text>
</g>
<!-- corrupt_champion_glitch&#45;&gt;corrupt_final_overrun -->
<g id="edge6" class="edge">
<title>corrupt_champion_glitch&#45;&gt;corrupt_final_overrun</title>
<path fill="none" stroke="#7e57c2" d="M496.75,-107.99C504.42,-105.36 511.94,-102.37 519,-99 537.04,-90.37 537.05,-80.81 555,-72 558.83,-70.12 562.81,-68.35 566.89,-66.7"/>
<polygon fill="#7e57c2" stroke="#7e57c2" points="568.42,-69.86 576.51,-63.03 565.92,-63.32 568.42,-69.86"/>
</g>
<!-- corrupt_champion_error&#45;&gt;corrupt_final_corruptcore -->
<g id="edge8" class="edge">
<title>corrupt_champion_error&#45;&gt;corrupt_final_corruptcore</title>
<path fill="none" stroke="#7e57c2" d="M506.17,-82.52C518.76,-83.93 531.77,-85.39 544.59,-86.83"/>
<polygon fill="#7e57c2" stroke="#7e57c2" points="544.49,-90.34 554.82,-87.98 545.27,-83.38 544.49,-90.34"/>
</g>
<!-- corrupt_champion_error&#45;&gt;corrupt_final_overrun -->
<g id="edge7" class="edge">
<title>corrupt_champion_error&#45;&gt;corrupt_final_overrun</title>
<path fill="none" stroke="#7e57c2" d="M506.17,-61.48C523.48,-59.54 541.57,-57.51 558.89,-55.57"/>
<polygon fill="#7e57c2" stroke="#7e57c2" points="559.44,-59.03 568.99,-54.43 558.66,-52.07 559.44,-59.03"/>
</g>
<!-- corrupt_champion_patchfail&#45;&gt;corrupt_final_corruptcore -->
<g id="edge9" class="edge">
<title>corrupt_champion_patchfail&#45;&gt;corrupt_final_corruptcore</title>
<path fill="none" stroke="#7e57c2" d="M496.75,-36.01C504.42,-38.64 511.94,-41.63 519,-45 537.04,-53.63 537.05,-63.19 555,-72 558.83,-73.88 562.81,-75.65 566.89,-77.3"/>
<polygon fill="#7e57c2" stroke="#7e57c2" points="565.92,-80.68 576.51,-80.97 568.42,-74.14 565.92,-80.68"/>
</g>
<!-- corrupt_champion_patchfail&#45;&gt;corrupt_final_overrun -->
<g id="edge10" class="edge">
<title>corrupt_champion_patchfail&#45;&gt;corrupt_final_overrun</title>
<path fill="none" stroke="#7e57c2" d="M519.04,-29.96C532.22,-31.44 545.63,-32.95 558.62,-34.4"/>
<polygon fill="#7e57c2" stroke="#7e57c2" points="558.6,-37.92 568.93,-35.56 559.38,-30.97 558.6,-37.92"/>
</g>
</g>
</svg>
