<?xml version="1.0" encoding="UTF-8" standalone="no"?>
<!DOCTYPE svg PUBLIC "-//W3C//DTD SVG 1.1//EN"
 "http://www.w3.org/Graphics/SVG/1.1/DTD/svg11.dtd">
<!-- Generated by graphviz version 14.1.2 (20260124.0452)
 -->
<!-- Title: EvolutionTree Pages: 1 -->
<svg width="540pt" height="206pt"
 viewBox="0.00 0.00 540.00 206.00" xmlns="http://www.w3.org/2000/svg" xmlns:xlink="http://www.w3.org/1999/xlink">
<g id="graph0" class="graph" transform="scale(1 1) rotate(0) translate(4 202)">
<title>EvolutionTree</title>
<polygon fill="white" stroke="none" points="-4,4 -4,-202 536,-202 536,4 -4,4"/>
<!-- core_baby -->
<g id="node1" class="node">
<title>core_baby</title>
<path fill="#4fc3f7" stroke="black" d="M60.25,-117C60.25,-117 12,-117 12,-117 6,-117 0,-111 0,-105 0,-105 0,-93 0,-93 0,-87 6,-81 12,-81 12,-81 60.25,-81 60.25,-81 66.25,-81 72.25,-87 72.25,-93 72.25,-93 72.25,-105 72.25,-105 72.25,-111 66.25,-117 60.25,-117"/>
<text xml:space="preserve" text-anchor="middle" x="36.12" y="-93.95" font-family="Times New Roman,serif" font-size="14.00">core_baby</text>
</g>
<!-- core_rookie -->
<g id="node2" class="node">
<title>core_rookie</title>
<path fill="#4fc3f7" stroke="black" d="M176.75,-117C176.75,-117 120.25,-117 120.25,-117 114.25,-117 108.25,-111 108.25,-105 108.25,-105 108.25,-93 108.25,-93 108.25,-87 114.25,-81 120.25,-81 120.25,-81 176.75,-81 176.75,-81 182.75,-81 188.75,-87 188.75,-93 188.75,-93 188.75,-105 188.75,-105 188.75,-111 182.75,-117 176.75,-117"/>
<text xml:space="preserve" text-anchor="middle" x="148.5" y="-93.95" font-family="Times New Roman,serif" font-size="14.00">core_rookie</text>
</g>
<!-- core_baby&#45;&gt;core_rookie -->
<g id="edge1" class="edge">
<title>core_baby&#45;&gt;core_rookie</title>
<path fill="none" stroke="black" d="M72.66,-99C80.28,-99 88.48,-99 96.56,-99"/>
<polygon fill="black" stroke="black" points="96.31,-102.5 106.31,-99 96.31,-95.5 96.31,-102.5"/>
</g>
<!-- core_champion_power -->
<g id="node3" class="node">
<title>core_champion_power</title>
<path fill="#4fc3f7" stroke="black" d="M353.25,-171C353.25,-171 236.75,-171 236.75,-171 230.75,-171 224.75,-165 224.75,-159 224.75,-159 224.75,-147 224.75,-147 224.75,-141 230.75,-135 236.75,-135 236.75,-135 353.25,-135 353.25,-135 359.25,-135 365.25,-141 365.25,-147 365.25,-147 365.25,-159 365.25,-159 365.25,-165 359.25,-171 353.25,-171"/>
<text xml:space="preserve" text-anchor="middle" x="295" y="-147.95" font-family="Times New Roman,serif" font-size="14.00">core_champion_power</text>
</g>
<!-- core_rookie&#45;&gt;core_champion_power -->
<g id="edge2" class="edge">
<title>core_rookie&#45;&gt;core_champion_power</title>
<path fill="none" stroke="#7e57c2" d="M188.99,-113.76C202.97,-118.98 219.04,-124.99 234.33,-130.7"/>
<polygon fill="#7e57c2" stroke="#7e57c2" points="232.74,-133.84 243.33,-134.07 235.19,-127.29 232.74,-133.84"/>
</g>
<!-- core_champion_guard -->
<g id="node4" class="node">
<title>core_champion_guard</title>
<path fill="#4fc3f7" stroke="black" d="M351.75,-117C351.75,-117 238.25,-117 238.25,-117 232.25,-117 226.25,-111 226.25,-105 226.25,-105 226.25,-93 226.25,-93 226.25,-87 232.25,-81 238.25,-81 238.25,-81 351.75,-81 351.75,-81 357.75,-81 363.75,-87 363.75,-93 363.75,-93 363.75,-105 363.75,-105 363.75,-111 357.75,-117 351.75,-117"/>
<text xml:space="preserve" text-anchor="middle" x="295" y="-93.95" font-family="Times New Roman,serif" font-size="14.00">core_champion_guard</text>
</g>
<!-- core_rookie&#45;&gt;core_champion_guard -->
<g id="edge3" class="edge">
<title>core_rookie&#45;&gt;core_champion_guard</title>
<path fill="none" stroke="#7e57c2" d="M188.99,-99C197.03,-99 205.77,-99 214.65,-99"/>
<polygon fill="#7e57c2" stroke="#7e57c2" points="214.43,-102.5 224.43,-99 214.43,-95.5 214.43,-102.5"/>
</g>
<!-- core_champion_speed -->
<g id="node5" class="node">
<title>core_champion_speed</title>
<path fill="#4fc3f7" stroke="black" d="M351.75,-63C351.75,-63 238.25,-63 238.25,-63 232.25,-63 226.25,-57 226.25,-51 226.25,-51 226.25,-39 226.25,-39 226.25,-33 232.25,-27 238.25,-27 238.25,-27 351.75,-27 351.75,-27 357.75,-27 363.75,-33 363.75,-39 363.75,-39 363.75,-51 363.75,-51 363.75,-57 357.75,-63 351.75,-63"/>
<text xml:space="preserve" text-anchor="middle" x="295" y="-39.95" font-family="Times New Roman,serif" font-size="14.00">core_champion_speed</text>
</g>
<!-- core_rookie&#45;&gt;core_champion_speed -->
<g id="edge4" class="edge">
<title>core_rookie&#45;&gt;core_champion_speed</title>
<path fill="none" stroke="#7e57c2" d="M188.99,-84.24C202.97,-79.02 219.04,-73.01 234.33,-67.3"/>
<polygon fill="#7e57c2" stroke="#7e57c2" points="235.19,-70.71 243.33,-63.93 232.74,-64.16 235.19,-70.71"/>
</g>
<!-- core_final_overclock -->
<g id="node6" class="node">
<title>core_final_overclock</title>
<path fill="lightgrey" stroke="black" d="M520,-198C520,-198 413.25,-198 413.25,-198 407.25,-198 401.25,-192 401.25,-186 401.25,-186 401.25,-174 401.25,-174 401.25,-168 407.25,-162 413.25,-162 413.25,-162 520,-162 520,-162 526,-162 532,-168 532,-174 532,-174 532,-186 532,-186 532,-192 526,-198 520,-198"/>
<text xml:space="preserve" text-anchor="middle" x="466.62" y="-174.95" font-family="Times New Roman,serif" font-size="14.00">core_final_overclock</text>
</g>
<!-- core_champion_power&#45;&gt;core_final_overclock -->
<g id="edge5" class="edge">
<title>core_champion_power&#45;&gt;core_final_overclock</title>
<path fill="none" stroke="#7e57c2" d="M365.48,-164.06C373.44,-165.33 381.59,-166.62 389.63,-167.9"/>
<polygon fill="#7e57c2" stroke="#7e57c2" points="388.97,-171.34 399.4,-169.46 390.07,-164.43 388.97,-171.34"/>
</g>
<!-- core_final_prime -->
<g id="node7" class="node">
<title>core_final_prime</title>
<path fill="lightgrey" stroke="black" d="M509.5,-144C509.5,-144 423.75,-144 423.75,-144 417.75,-144 411.75,-138 411.75,-132 411.75,-132 411.75,-120 411.75,-120 411.75,-114 417.75,-108 423.75,-108 423.75,-108 509.5,-108 509.5,-108 515.5,-108 521.5,-114 521.5,-120 521.5,-120 521.5,-132 521.5,-132 521.5,-138 515.5,-144 509.5,-144"/>
<text xml:space="preserve" text-anchor="middle" x="466.62" y="-120.95" font-family="Times New Roman,serif" font-size="14.00">core_final_prime</text>
</g>
<!-- core_champion_power&#45;&gt;core_final_prime -->
<g id="edge6" class="edge">
<title>core_champion_power&#45;&gt;core_final_prime</title>
<path fill="none" stroke="#7e57c2" d="M365.48,-141.94C376.94,-140.12 388.79,-138.23 400.14,-136.42"/>
<polygon fill="#7e57c2" stroke="#7e57c2" points="400.49,-139.91 409.81,-134.88 399.39,-133 400.49,-139.91"/>
</g>
<!-- core_champion_guard&#45;&gt;core_final_prime -->
<g id="edge8" class="edge">
<title>core_champion_guard&#45;&gt;core_final_prime</title>
<path fill="none" stroke="#7e57c2" d="M364.02,-109.83C375.96,-111.73 388.37,-113.7 400.24,-115.59"/>
<polygon fill="#7e57c2" stroke="#7e57c2" points="399.5,-119.02 409.93,-117.13 400.6,-112.11 399.5,-119.02"/>
</g>
<!-- core_final_bastion -->
<g id="node8" class="node">
<title>core_final_bastion</title>
<path fill="lightgrey" stroke="black" d="M512.88,-90C512.88,-90 420.38,-90 420.38,-90 414.38,-90 408.38,-84 408.38,-78 408.38,-78 408.38,-66 408.38,-66 408.38,-60 414.38,-54 420.38,-54 420.38,-54 512.88,-54 512.88,-54 518.88,-54 524.88,-60 524.88,-66 524.88,-66 524.88,-78 524.88,-78 524.88,-84 518.88,-90 512.88,-90"/>
<text xml:space="preserve" text-anchor="middle" x="466.62" y="-66.95" font-family="Times New Roman,serif" font-size="14.00">core_final_bastion</text>
</g>
<!-- core_champion_guard&#45;&gt;core_final_bastion -->
<g id="edge7" class="edge">
<title>core_champion_guard&#45;&gt;core_final_bastion</title>
<path fill="none" stroke="#7e57c2" d="M364.02,-88.17C374.82,-86.45 386.01,-84.67 396.84,-82.95"/>
<polygon fill="#7e57c2" stroke="#7e57c2" points="397.14,-86.45 406.46,-81.42 396.04,-79.53 397.14,-86.45"/>
</g>
<!-- core_champion_speed&#45;&gt;core_final_prime -->
<g id="edge10" class="edge">
<title>core_champion_speed&#45;&gt;core_final_prime</title>
<path fill="none" stroke="#7e57c2" d="M347.77,-63.38C353.78,-66.04 359.72,-68.93 365.25,-72 382.73,-81.72 383.9,-89.06 401.25,-99 403.3,-100.18 405.42,-101.33 407.57,-102.46"/>
<polygon fill="#7e57c2" stroke="#7e57c2" points="406,-105.58 416.51,-106.87 409.09,-99.31 406,-105.58"/>
</g>
<!-- core_final_photon -->
<g id="node9" class="node">
<title>core_final_photon</title>
<path fill="lightgrey" stroke="black" d="M512.12,-36C512.12,-36 421.12,-36 421.12,-36 415.12,-36 409.12,-30 409.12,-24 409.12,-24 409.12,-12 409.12,-12 409.12,-6 415.12,0 421.12,0 421.12,0 512.12,0 512.12,0 518.12,0 524.12,-6 524.12,-12 524.12,-12 524.12,-24 524.12,-24 524.12,-30 518.12,-36 512.12,-36"/>
<text xml:space="preserve" text-anchor="middle" x="466.62" y="-12.95" font-family="Times New Roman,serif" font-size="14.00">core_final_photon</text>
</g>
<!-- core_champion_speed&#45;&gt;core_final_photon -->
<g id="edge9" class="edge">
<title>core_champion_speed&#45;&gt;core_final_photon</title>
<path fill="none" stroke="#7e57c2" d="M364.02,-34.17C375.03,-32.42 386.44,-30.6 397.45,-28.85"/>
<polygon fill="#7e57c2" stroke="#7e57c2" points="397.94,-32.32 407.27,-27.29 396.84,-25.4 397.94,-32.32"/>
</g>
</g>
</svg>
