<?xml version="1.0" encoding="UTF-8" standalone="no"?>
<!DOCTYPE svg PUBLIC "-//W3C//DTD SVG 1.1//EN"
 "http://www.w3.org/Graphics/SVG/1.1/DTD/svg11.dtd">
<!-- Generated by graphviz version 14.1.2 (20260124.0452)
 -->
<!-- Title: EvolutionTree Pages: 1 -->
<svg width="652pt" height="1765pt"
 viewBox="0.00 0.00 652.00 1765.00" xmlns="http://www.w3.org/2000/svg" xmlns:xlink="http://www.w3.org/1999/xlink">
<g id="graph0" class="graph" transform="scale(1 1) rotate(0) translate(4 1761)">
<title>EvolutionTree</title>
<polygon fill="white" stroke="none" points="-4,4 -4,-1761 647.75,-1761 647.75,4 -4,4"/>
<!-- archive_baby -->
<g id="node1" class="node">
<title>archive_baby</title>
<path fill="#ce93d8" stroke="black" d="M82,-90C82,-90 17.25,-90 17.25,-90 11.25,-90 5.25,-84 5.25,-78 5.25,-78 5.25,-66 5.25,-66 5.25,-60 11.25,-54 17.25,-54 17.25,-54 82,-54 82,-54 88,-54 94,-60 94,-66 94,-66 94,-78 94,-78 94,-84 88,-90 82,-90"/>
<text xml:space="preserve" text-anchor="middle" x="49.62" y="-66.95" font-family="Times New Roman,serif" font-size="14.00">archive_baby</text>
</g>
<!-- archive_rookie -->
<g id="node2" class="node">
<title>archive_rookie</title>
<path fill="#ce93d8" stroke="black" d="M225.5,-90C225.5,-90 152.5,-90 152.5,-90 146.5,-90 140.5,-84 140.5,-78 140.5,-78 140.5,-66 140.5,-66 140.5,-60 146.5,-54 152.5,-54 152.5,-54 225.5,-54 225.5,-54 231.5,-54 237.5,-60 237.5,-66 237.5,-66 237.5,-78 237.5,-78 237.5,-84 231.5,-90 225.5,-90"/>
<text xml:space="preserve" text-anchor="middle" x="189" y="-66.95" font-family="Times New Roman,serif" font-size="14.00">archive_rookie</text>
</g>
<!-- archive_baby&#45;&gt;archive_rookie -->
<g id="edge1" class="edge">
<title>archive_baby&#45;&gt;archive_rookie</title>
<path fill="none" stroke="black" d="M94.47,-72C105.42,-72 117.35,-72 128.91,-72"/>
<polygon fill="black" stroke="black" points="128.78,-75.5 138.78,-72 128.78,-68.5 128.78,-75.5"/>
</g>
<!-- archive_champion_logic -->
<g id="node3" class="node">
<title>archive_champion_logic</title>
<path fill="#ce93d8" stroke="black" d="M428.62,-90C428.62,-90 302.38,-90 302.38,-90 296.38,-90 290.38,-84 290.38,-78 290.38,-78 290.38,-66 290.38,-66 290.38,-60 296.38,-54 302.38,-54 302.38,-54 428.62,-54 428.62,-54 434.62,-54 440.62,-60 440.62,-66 440.62,-66 440.62,-78 440.62,-78 440.62,-84 434.62,-90 428.62,-90"/>
<text xml:space="preserve" text-anchor="middle" x="365.5" y="-66.95" font-family="Times New Roman,serif" font-size="14.00">archive_champion_logic</text>
</g>
<!-- archive_rookie&#45;&gt;archive_champion_logic -->
<g id="edge2" class="edge">
<title>archive_rookie&#45;&gt;archive_champion_logic</title>
<path fill="none" stroke="#7e57c2" d="M237.68,-72C250.42,-72 264.59,-72 278.71,-72"/>
<polygon fill="#7e57c2" stroke="#7e57c2" points="278.48,-75.5 288.48,-72 278.48,-68.5 278.48,-75.5"/>
</g>
<!-- archive_champion_index -->
<g id="node4" class="node">
<title>archive_champion_index</title>
<path fill="#ce93d8" stroke="black" d="M430.12,-36C430.12,-36 300.88,-36 300.88,-36 294.88,-36 288.88,-30 288.88,-24 288.88,-24 288.88,-12 288.88,-12 288.88,-6 294.88,0 300.88,0 300.88,0 430.12,0 430.12,0 436.12,0 442.12,-6 442.12,-12 442.12,-12 442.12,-24 442.12,-24 442.12,-30 436.12,-36 430.12,-36"/>
<text xml:space="preserve" text-anchor="middle" x="365.5" y="-12.95" font-family="Times New Roman,serif" font-size="14.00">archive_champion_index</text>
</g>
<!-- archive_rookie&#45;&gt;archive_champion_index -->
<g id="edge3" class="edge">
<title>archive_rookie&#45;&gt;archive_champion_index</title>
<path fill="none" stroke="#7e57c2" d="M237.68,-57.24C255.06,-51.87 275.09,-45.67 294.03,-39.81"/>
<polygon fill="#7e57c2" stroke="#7e57c2" points="295.06,-43.15 303.58,-36.85 292.99,-36.46 295.06,-43.15"/>
</g>
<!-- archive_champion_fragment -->
<g id="node5" class="node">
<title>archive_champion_fragment</title>
<path fill="#ce93d8" stroke="black" d="M439.88,-144C439.88,-144 291.12,-144 291.12,-144 285.12,-144 279.12,-138 279.12,-132 279.12,-132 279.12,-120 279.12,-120 279.12,-114 285.12,-108 291.12,-108 291.12,-108 439.88,-108 439.88,-108 445.88,-108 451.88,-114 451.88,-120 451.88,-120 451.88,-132 451.88,-132 451.88,-138 445.88,-144 439.88,-144"/>
<text xml:space="preserve" text-anchor="middle" x="365.5" y="-120.95" font-family="Times New Roman,serif" font-size="14.00">archive_champion_fragment</text>
</g>
<!-- archive_rookie&#45;&gt;archive_champion_fragment -->
<g id="edge4" class="edge">
<title>archive_rookie&#45;&gt;archive_champion_fragment</title>
<path fill="none" stroke="#7e57c2" d="M237.68,-86.76C255.06,-92.13 275.09,-98.33 294.03,-104.19"/>
<polygon fill="#7e57c2" stroke="#7e57c2" points="292.99,-107.54 303.58,-107.15 295.06,-100.85 292.99,-107.54"/>
</g>
<!-- archive_final_compiler -->
<g id="node6" class="node">
<title>archive_final_compiler</title>
<path fill="lightgrey" stroke="black" d="M625.38,-144C625.38,-144 506.62,-144 506.62,-144 500.62,-144 494.62,-138 494.62,-132 494.62,-132 494.62,-120 494.62,-120 494.62,-114 500.62,-108 506.62,-108 506.62,-108 625.38,-108 625.38,-108 631.38,-108 637.38,-114 637.38,-120 637.38,-120 637.38,-132 637.38,-132 637.38,-138 631.38,-144 625.38,-144"/>
<text xml:space="preserve" text-anchor="middle" x="566" y="-120.95" font-family="Times New Roman,serif" font-size="14.00">archive_final_compiler</text>
</g>
<!-- archive_champion_logic&#45;&gt;archive_final_compiler -->
<g id="edge5" class="edge">
<title>archive_champion_logic&#45;&gt;archive_final_compiler</title>
<path fill="none" stroke="#7e57c2" d="M434.26,-90.43C451.09,-95.01 469.27,-99.96 486.57,-104.67"/>
<polygon fill="#7e57c2" stroke="#7e57c2" points="485.18,-107.91 495.75,-107.16 487.02,-101.16 485.18,-107.91"/>
</g>
<!-- archive_final_librarian -->
<g id="node7" class="node">
<title>archive_final_librarian</title>
<path fill="lightgrey" stroke="black" d="M623.88,-36C623.88,-36 508.12,-36 508.12,-36 502.12,-36 496.12,-30 496.12,-24 496.12,-24 496.12,-12 496.12,-12 496.12,-6 502.12,0 508.12,0 508.12,0 623.88,0 623.88,0 629.88,0 635.88,-6 635.88,-12 635.88,-12 635.88,-24 635.88,-24 635.88,-30 629.88,-36 623.88,-36"/>
<text xml:space="preserve" text-anchor="middle" x="566" y="-12.95" font-family="Times New Roman,serif" font-size="14.00">archive_final_librarian</text>
</g>
<!-- archive_champion_logic&#45;&gt;archive_final_librarian -->
<g id="edge6" class="edge">
<title>archive_champion_logic&#45;&gt;archive_final_librarian</title>
<path fill="none" stroke="#7e57c2" d="M434.26,-53.57C451.09,-48.99 469.27,-44.04 486.57,-39.33"/>
<polygon fill="#7e57c2" stroke="#7e57c2" points="487.02,-42.84 495.75,-36.84 485.18,-36.09 487.02,-42.84"/>
</g>
<!-- archive_champion_index&#45;&gt;archive_final_librarian -->
<g id="edge7" class="edge">
<title>archive_champion_index&#45;&gt;archive_final_librarian</title>
<path fill="none" stroke="#7e57c2" d="M442.39,-18C456.07,-18 470.38,-18 484.2,-18"/>
<polygon fill="#7e57c2" stroke="#7e57c2" points="484.15,-21.5 494.15,-18 484.15,-14.5 484.15,-21.5"/>
</g>
<!-- archive_final_corrupt -->
<g id="node8" class="node">
<title>archive_final_corrupt</title>
<path fill="lightgrey" stroke="black" d="M620.5,-90C620.5,-90 511.5,-90 511.5,-90 505.5,-90 499.5,-84 499.5,-78 499.5,-78 499.5,-66 499.5,-66 499.5,-60 505.5,-54 511.5,-54 511.5,-54 620.5,-54 620.5,-54 626.5,-54 632.5,-60 632.5,-66 632.5,-66 632.5,-78 632.5,-78 632.5,-84 626.5,-90 620.5,-90"/>
<text xml:space="preserve" text-anchor="middle" x="566" y="-66.95" font-family="Times New Roman,serif" font-size="14.00">archive_final_corrupt</text>
</g>
<!-- archive_champion_index&#45;&gt;archive_final_corrupt -->
<g id="edge8" class="edge">
<title>archive_champion_index&#45;&gt;archive_final_corrupt</title>
<path fill="none" stroke="#7e57c2" d="M434.26,-36.43C451.65,-41.16 470.48,-46.29 488.29,-51.13"/>
<polygon fill="#7e57c2" stroke="#7e57c2" points="487.2,-54.46 497.77,-53.71 489.04,-47.71 487.2,-54.46"/>
</g>
<!-- archive_champion_fragment&#45;&gt;archive_final_compiler -->
<g id="edge10" class="edge">
<title>archive_champion_fragment&#45;&gt;archive_final_compiler</title>
<path fill="none" stroke="#7e57c2" d="M452.12,-126C462.34,-126 472.75,-126 482.91,-126"/>
<polygon fill="#7e57c2" stroke="#7e57c2" points="482.75,-129.5 492.75,-126 482.75,-122.5 482.75,-129.5"/>
</g>
<!-- archive_champion_fragment&#45;&gt;archive_final_corrupt -->
<g id="edge9" class="edge">
<title>archive_champion_fragment&#45;&gt;archive_final_corrupt</title>
<path fill="none" stroke="#7e57c2" d="M434.26,-107.57C451.65,-102.84 470.48,-97.71 488.29,-92.87"/>
<polygon fill="#7e57c2" stroke="#7e57c2" points="489.04,-96.29 497.77,-90.29 487.2,-89.54 489.04,-96.29"/>
</g>
<!-- cloud_baby -->
<g id="node9" class="node">
<title>cloud_baby</title>
<path fill="#90caf9" stroke="black" d="M77.12,-252C77.12,-252 22.12,-252 22.12,-252 16.12,-252 10.12,-246 10.12,-240 10.12,-240 10.12,-228 10.12,-228 10.12,-222 16.12,-216 22.12,-216 22.12,-216 77.12,-216 77.12,-216 83.12,-216 89.12,-222 89.12,-228 89.12,-228 89.12,-240 89.12,-240 89.12,-246 83.12,-252 77.12,-252"/>
<text xml:space="preserve" text-anchor="middle" x="49.62" y="-228.95" font-family="Times New Roman,serif" font-size="14.00">cloud_baby</text>
</g>
<!-- cloud_rookie -->
<g id="node10" class="node">
<title>cloud_rookie</title>
<path fill="#90caf9" stroke="black" d="M220.62,-252C220.62,-252 157.38,-252 157.38,-252 151.38,-252 145.38,-246 145.38,-240 145.38,-240 145.38,-228 145.38,-228 145.38,-222 151.38,-216 157.38,-216 157.38,-216 220.62,-216 220.62,-216 226.62,-216 232.62,-222 232.62,-228 232.62,-228 232.62,-240 232.62,-240 232.62,-246 226.62,-252 220.62,-252"/>
<text xml:space="preserve" text-anchor="middle" x="189" y="-228.95" font-family="Times New Roman,serif" font-size="14.00">cloud_rookie</text>
</g>
<!-- cloud_baby&#45;&gt;cloud_rookie -->
<g id="edge11" class="edge">
<title>cloud_baby&#45;&gt;cloud_rookie</title>
<path fill="none" stroke="black" d="M89.62,-234C103.4,-234 119.16,-234 133.96,-234"/>
<polygon fill="black" stroke="black" points="133.53,-237.5 143.53,-234 133.53,-230.5 133.53,-237.5"/>
</g>
<!-- cloud_champion_wind -->
<g id="node11" class="node">
<title>cloud_champion_wind</title>
<path fill="#90caf9" stroke="black" d="M423.75,-252C423.75,-252 307.25,-252 307.25,-252 301.25,-252 295.25,-246 295.25,-240 295.25,-240 295.25,-228 295.25,-228 295.25,-222 301.25,-216 307.25,-216 307.25,-216 423.75,-216 423.75,-216 429.75,-216 435.75,-222 435.75,-228 435.75,-228 435.75,-240 435.75,-240 435.75,-246 429.75,-252 423.75,-252"/>
<text xml:space="preserve" text-anchor="middle" x="365.5" y="-228.95" font-family="Times New Roman,serif" font-size="14.00">cloud_champion_wind</text>
</g>
<!-- cloud_rookie&#45;&gt;cloud_champion_wind -->
<g id="edge12" class="edge">
<title>cloud_rookie&#45;&gt;cloud_champion_wind</title>
<path fill="none" stroke="#7e57c2" d="M232.69,-234C248.08,-234 266.01,-234 283.59,-234"/>
<polygon fill="#7e57c2" stroke="#7e57c2" points="283.55,-237.5 293.55,-234 283.55,-230.5 283.55,-237.5"/>
</g>
<!-- cloud_champion_rain -->
<g id="node12" class="node">
<title>cloud_champion_rain</title>
<path fill="#90caf9" stroke="black" d="M420.75,-198C420.75,-198 310.25,-198 310.25,-198 304.25,-198 298.25,-192 298.25,-186 298.25,-186 298.25,-174 298.25,-174 298.25,-168 304.25,-162 310.25,-162 310.25,-162 420.75,-162 420.75,-162 426.75,-162 432.75,-168 432.75,-174 432.75,-174 432.75,-186 432.75,-186 432.75,-192 426.75,-198 420.75,-198"/>
<text xml:space="preserve" text-anchor="middle" x="365.5" y="-174.95" font-family="Times New Roman,serif" font-size="14.00">cloud_champion_rain</text>
</g>
<!-- cloud_rookie&#45;&gt;cloud_champion_rain -->
<g id="edge13" class="edge">
<title>cloud_rookie&#45;&gt;cloud_champion_rain</title>
<path fill="none" stroke="#7e57c2" d="M232.69,-220.79C251.16,-215.07 273.28,-208.23 294.07,-201.8"/>
<polygon fill="#7e57c2" stroke="#7e57c2" points="294.83,-205.22 303.35,-198.92 292.76,-198.54 294.83,-205.22"/>
</g>
<!-- cloud_champion_storm -->
<g id="node13" class="node">
<title>cloud_champion_storm</title>
<path fill="#90caf9" stroke="black" d="M426,-306C426,-306 305,-306 305,-306 299,-306 293,-300 293,-294 293,-294 293,-282 293,-282 293,-276 299,-270 305,-270 305,-270 426,-270 426,-270 432,-270 438,-276 438,-282 438,-282 438,-294 438,-294 438,-300 432,-306 426,-306"/>
<text xml:space="preserve" text-anchor="middle" x="365.5" y="-282.95" font-family="Times New Roman,serif" font-size="14.00">cloud_champion_storm</text>
</g>
<!-- cloud_rookie&#45;&gt;cloud_champion_storm -->
<g id="edge14" class="edge">
<title>cloud_rookie&#45;&gt;cloud_champion_storm</title>
<path fill="none" stroke="#7e57c2" d="M232.69,-247.21C251.16,-252.93 273.28,-259.77 294.07,-266.2"/>
<polygon fill="#7e57c2" stroke="#7e57c2" points="292.76,-269.46 303.35,-269.08 294.83,-262.78 292.76,-269.46"/>
</g>
<!-- cloud_final_jetstream -->
<g id="node14" class="node">
<title>cloud_final_jetstream</title>
<path fill="lightgrey" stroke="black" d="M621.25,-306C621.25,-306 510.75,-306 510.75,-306 504.75,-306 498.75,-300 498.75,-294 498.75,-294 498.75,-282 498.75,-282 498.75,-276 504.75,-270 510.75,-270 510.75,-270 621.25,-270 621.25,-270 627.25,-270 633.25,-276 633.25,-282 633.25,-282 633.25,-294 633.25,-294 633.25,-300 627.25,-306 621.25,-306"/>
<text xml:space="preserve" text-anchor="middle" x="566" y="-282.95" font-family="Times New Roman,serif" font-size="14.00">cloud_final_jetstream</text>
</g>
<!-- cloud_champion_wind&#45;&gt;cloud_final_jetstream -->
<g id="edge15" class="edge">
<title>cloud_champion_wind&#45;&gt;cloud_final_jetstream</title>
<path fill="none" stroke="#7e57c2" d="M434.26,-252.43C451.46,-257.11 470.08,-262.18 487.72,-266.98"/>
<polygon fill="#7e57c2" stroke="#7e57c2" points="486.53,-270.28 497.1,-269.53 488.37,-263.52 486.53,-270.28"/>
</g>
<!-- cloud_final_halo -->
<g id="node15" class="node">
<title>cloud_final_halo</title>
<path fill="lightgrey" stroke="black" d="M607.75,-198C607.75,-198 524.25,-198 524.25,-198 518.25,-198 512.25,-192 512.25,-186 512.25,-186 512.25,-174 512.25,-174 512.25,-168 518.25,-162 524.25,-162 524.25,-162 607.75,-162 607.75,-162 613.75,-162 619.75,-168 619.75,-174 619.75,-174 619.75,-186 619.75,-186 619.75,-192 613.75,-198 607.75,-198"/>
<text xml:space="preserve" text-anchor="middle" x="566" y="-174.95" font-family="Times New Roman,serif" font-size="14.00">cloud_final_halo</text>
</g>
<!-- cloud_champion_wind&#45;&gt;cloud_final_halo -->
<g id="edge16" class="edge">
<title>cloud_champion_wind&#45;&gt;cloud_final_halo</title>
<path fill="none" stroke="#7e57c2" d="M434.26,-215.57C455.87,-209.69 479.71,-203.2 501.05,-197.4"/>
<polygon fill="#7e57c2" stroke="#7e57c2" points="501.76,-200.83 510.49,-194.83 499.92,-194.08 501.76,-200.83"/>
</g>
<!-- cloud_champion_rain&#45;&gt;cloud_final_halo -->
<g id="edge17" class="edge">
<title>cloud_champion_rain&#45;&gt;cloud_final_halo</title>
<path fill="none" stroke="#7e57c2" d="M433.15,-180C454.92,-180 479.04,-180 500.63,-180"/>
<polygon fill="#7e57c2" stroke="#7e57c2" points="500.49,-183.5 510.49,-180 500.49,-176.5 500.49,-183.5"/>
</g>
<!-- cloud_final_tempest -->
<g id="node16" class="node">
<title>cloud_final_tempest</title>
<path fill="lightgrey" stroke="black" d="M617.5,-252C617.5,-252 514.5,-252 514.5,-252 508.5,-252 502.5,-246 502.5,-240 502.5,-240 502.5,-228 502.5,-228 502.5,-222 508.5,-216 514.5,-216 514.5,-216 617.5,-216 617.5,-216 623.5,-216 629.5,-222 629.5,-228 629.5,-228 629.5,-240 629.5,-240 629.5,-246 623.5,-252 617.5,-252"/>
<text xml:space="preserve" text-anchor="middle" x="566" y="-228.95" font-family="Times New Roman,serif" font-size="14.00">cloud_final_tempest</text>
</g>
<!-- cloud_champion_rain&#45;&gt;cloud_final_tempest -->
<g id="edge18" class="edge">
<title>cloud_champion_rain&#45;&gt;cloud_final_tempest</title>
<path fill="none" stroke="#7e57c2" d="M433.15,-198.13C451.79,-203.2 472.16,-208.74 491.19,-213.92"/>
<polygon fill="#7e57c2" stroke="#7e57c2" points="490.19,-217.28 500.76,-216.52 492.03,-210.52 490.19,-217.28"/>
</g>
<!-- cloud_champion_storm&#45;&gt;cloud_final_jetstream -->
<g id="edge20" class="edge">
<title>cloud_champion_storm&#45;&gt;cloud_final_jetstream</title>
<path fill="none" stroke="#7e57c2" d="M438.44,-288C454.16,-288 470.86,-288 486.8,-288"/>
<polygon fill="#7e57c2" stroke="#7e57c2" points="486.74,-291.5 496.74,-288 486.74,-284.5 486.74,-291.5"/>
</g>
<!-- cloud_champion_storm&#45;&gt;cloud_final_tempest -->
<g id="edge19" class="edge">
<title>cloud_champion_storm&#45;&gt;cloud_final_tempest</title>
<path fill="none" stroke="#7e57c2" d="M434.26,-269.57C452.57,-264.58 472.48,-259.17 491.12,-254.1"/>
<polygon fill="#7e57c2" stroke="#7e57c2" points="492.03,-257.48 500.76,-251.48 490.19,-250.72 492.03,-257.48"/>
</g>
<!-- core_baby -->
<g id="node17" class="node">
<title>core_baby</title>
<path fill="#4fc3f7" stroke="black" d="M73.75,-441C73.75,-441 25.5,-441 25.5,-441 19.5,-441 13.5,-435 13.5,-429 13.5,-429 13.5,-417 13.5,-417 13.5,-411 19.5,-405 25.5,-405 25.5,-405 73.75,-405 73.75,-405 79.75,-405 85.75,-411 85.75,-417 85.75,-417 85.75,-429 85.75,-429 85.75,-435 79.75,-441 73.75,-441"/>
<text xml:space="preserve" text-anchor="middle" x="49.62" y="-417.95" font-family="Times New Roman,serif" font-size="14.00">core_baby</text>
</g>
<!-- core_rookie -->
<g id="node18" class="node">
<title>core_rookie</title>
<path fill="#4fc3f7" stroke="black" d="M217.25,-441C217.25,-441 160.75,-441 160.75,-441 154.75,-441 148.75,-435 148.75,-429 148.75,-429 148.75,-417 148.75,-417 148.75,-411 154.75,-405 160.75,-405 160.75,-405 217.25,-405 217.25,-405 223.25,-405 229.25,-411 229.25,-417 229.25,-417 229.25,-429 229.25,-429 229.25,-435 223.25,-441 217.25,-441"/>
<text xml:space="preserve" text-anchor="middle" x="189" y="-417.95" font-family="Times New Roman,serif" font-size="14.00">core_rookie</text>
</g>
<!-- core_baby&#45;&gt;core_rookie -->
<g id="edge21" class="edge">
<title>core_baby&#45;&gt;core_rookie</title>
<path fill="none" stroke="black" d="M86,-423C101.5,-423 119.99,-423 136.95,-423"/>
<polygon fill="black" stroke="black" points="136.87,-426.5 146.87,-423 136.87,-419.5 136.87,-426.5"/>
</g>
<!-- core_champion_power -->
<g id="node19" class="node">
<title>core_champion_power</title>
<path fill="#4fc3f7" stroke="black" d="M423.75,-495C423.75,-495 307.25,-495 307.25,-495 301.25,-495 295.25,-489 295.25,-483 295.25,-483 295.25,-471 295.25,-471 295.25,-465 301.25,-459 307.25,-459 307.25,-459 423.75,-459 423.75,-459 429.75,-459 435.75,-465 435.75,-471 435.75,-471 435.75,-483 435.75,-483 435.75,-489 429.75,-495 423.75,-495"/>
<text xml:space="preserve" text-anchor="middle" x="365.5" y="-471.95" font-family="Times New Roman,serif" font-size="14.00">core_champion_power</text>
</g>
<!-- core_rookie&#45;&gt;core_champion_power -->
<g id="edge22" class="edge">
<title>core_rookie&#45;&gt;core_champion_power</title>
<path fill="none" stroke="#7e57c2" d="M229.6,-435.25C248.61,-441.14 271.97,-448.37 293.88,-455.15"/>
<polygon fill="#7e57c2" stroke="#7e57c2" points="292.8,-458.48 303.39,-458.09 294.87,-451.79 292.8,-458.48"/>
</g>
<!-- core_champion_guard -->
<g id="node20" class="node">
<title>core_champion_guard</title>
<path fill="#4fc3f7" stroke="black" d="M422.25,-441C422.25,-441 308.75,-441 308.75,-441 302.75,-441 296.75,-435 296.75,-429 296.75,-429 296.75,-417 296.75,-417 296.75,-411 302.75,-405 308.75,-405 308.75,-405 422.25,-405 422.25,-405 428.25,-405 434.25,-411 434.25,-417 434.25,-417 434.25,-429 434.25,-429 434.25,-435 428.25,-441 422.25,-441"/>
<text xml:space="preserve" text-anchor="middle" x="365.5" y="-417.95" font-family="Times New Roman,serif" font-size="14.00">core_champion_guard</text>
</g>
<!-- core_rookie&#45;&gt;core_champion_guard -->
<g id="edge23" class="edge">
<title>core_rookie&#45;&gt;core_champion_guard</title>
<path fill="none" stroke="#7e57c2" d="M229.6,-423C246,-423 265.63,-423 284.78,-423"/>
<polygon fill="#7e57c2" stroke="#7e57c2" points="284.78,-426.5 294.78,-423 284.78,-419.5 284.78,-426.5"/>
</g>
<!-- core_champion_speed -->
<g id="node21" class="node">
<title>core_champion_speed</title>
<path fill="#4fc3f7" stroke="black" d="M422.25,-387C422.25,-387 308.75,-387 308.75,-387 302.75,-387 296.75,-381 296.75,-375 296.75,-375 296.75,-363 296.75,-363 296.75,-357 302.75,-351 308.75,-351 308.75,-351 422.25,-351 422.25,-351 428.25,-351 434.25,-357 434.25,-363 434.25,-363 434.25,-375 434.25,-375 434.25,-381 428.25,-387 422.25,-387"/>
<text xml:space="preserve" text-anchor="middle" x="365.5" y="-363.95" font-family="Times New Roman,serif" font-size="14.00">core_champion_speed</text>
</g>
<!-- core_rookie&#45;&gt;core_champion_speed -->
<g id="edge24" class="edge">
<title>core_rookie&#45;&gt;core_champion_speed</title>
<path fill="none" stroke="#7e57c2" d="M229.6,-410.75C248.61,-404.86 271.97,-397.63 293.88,-390.85"/>
<polygon fill="#7e57c2" stroke="#7e57c2" points="294.87,-394.21 303.39,-387.91 292.8,-387.52 294.87,-394.21"/>
</g>
<!-- core_final_overclock -->
<g id="node22" class="node">
<title>core_final_overclock</title>
<path fill="lightgrey" stroke="black" d="M619.38,-522C619.38,-522 512.62,-522 512.62,-522 506.62,-522 500.62,-516 500.62,-510 500.62,-510 500.62,-498 500.62,-498 500.62,-492 506.62,-486 512.62,-486 512.62,-486 619.38,-486 619.38,-486 625.38,-486 631.38,-492 631.38,-498 631.38,-498 631.38,-510 631.38,-510 631.38,-516 625.38,-522 619.38,-522"/>
<text xml:space="preserve" text-anchor="middle" x="566" y="-498.95" font-family="Times New Roman,serif" font-size="14.00">core_final_overclock</text>
</g>
<!-- core_champion_power&#45;&gt;core_final_overclock -->
<g id="edge25" class="edge">
<title>core_champion_power&#45;&gt;core_final_overclock</title>
<path fill="none" stroke="#7e57c2" d="M436.2,-486.48C453.34,-488.81 471.77,-491.32 489.18,-493.69"/>
<polygon fill="#7e57c2" stroke="#7e57c2" points="488.57,-497.14 498.95,-495.02 489.51,-490.2 488.57,-497.14"/>
</g>
<!-- core_final_prime -->
<g id="node23" class="node">
<title>core_final_prime</title>
<path fill="lightgrey" stroke="black" d="M608.88,-468C608.88,-468 523.12,-468 523.12,-468 517.12,-468 511.12,-462 511.12,-456 511.12,-456 511.12,-444 511.12,-444 511.12,-438 517.12,-432 523.12,-432 523.12,-432 608.88,-432 608.88,-432 614.88,-432 620.88,-438 620.88,-444 620.88,-444 620.88,-456 620.88,-456 620.88,-462 614.88,-468 608.88,-468"/>
<text xml:space="preserve" text-anchor="middle" x="566" y="-444.95" font-family="Times New Roman,serif" font-size="14.00">core_final_prime</text>
</g>
<!-- core_champion_power&#45;&gt;core_final_prime -->
<g id="edge26" class="edge">
<title>core_champion_power&#45;&gt;core_final_prime</title>
<path fill="none" stroke="#7e57c2" d="M436.2,-467.52C456.75,-464.72 479.16,-461.68 499.43,-458.92"/>
<polygon fill="#7e57c2" stroke="#7e57c2" points="499.84,-462.4 509.27,-457.58 498.89,-455.46 499.84,-462.4"/>
</g>
<!-- core_champion_guard&#45;&gt;core_final_prime -->
<g id="edge28" class="edge">
<title>core_champion_guard&#45;&gt;core_final_prime</title>
<path fill="none" stroke="#7e57c2" d="M434.53,-432.25C455.56,-435.11 478.66,-438.26 499.51,-441.09"/>
<polygon fill="#7e57c2" stroke="#7e57c2" points="498.95,-444.55 509.33,-442.43 499.89,-437.61 498.95,-444.55"/>
</g>
<!-- core_final_bastion -->
<g id="node24" class="node">
<title>core_final_bastion</title>
<path fill="lightgrey" stroke="black" d="M612.25,-414C612.25,-414 519.75,-414 519.75,-414 513.75,-414 507.75,-408 507.75,-402 507.75,-402 507.75,-390 507.75,-390 507.75,-384 513.75,-378 519.75,-378 519.75,-378 612.25,-378 612.25,-378 618.25,-378 624.25,-384 624.25,-390 624.25,-390 624.25,-402 624.25,-402 624.25,-408 618.25,-414 612.25,-414"/>
<text xml:space="preserve" text-anchor="middle" x="566" y="-390.95" font-family="Times New Roman,serif" font-size="14.00">core_final_bastion</text>
</g>
<!-- core_champion_guard&#45;&gt;core_final_bastion -->
<g id="edge27" class="edge">
<title>core_champion_guard&#45;&gt;core_final_bastion</title>
<path fill="none" stroke="#7e57c2" d="M434.53,-413.75C454.42,-411.04 476.17,-408.08 496.11,-405.37"/>
<polygon fill="#7e57c2" stroke="#7e57c2" points="496.36,-408.87 505.8,-404.05 495.42,-401.93 496.36,-408.87"/>
</g>
<!-- core_champion_speed&#45;&gt;core_final_prime -->
<g id="edge30" class="edge">
<title>core_champion_speed&#45;&gt;core_final_prime</title>
<path fill="none" stroke="#7e57c2" d="M432.95,-387.43C439.6,-390.01 446.14,-392.86 452.25,-396 470.04,-405.13 470.61,-413.57 488.25,-423 492.13,-425.08 496.21,-427.05 500.37,-428.91"/>
<polygon fill="#7e57c2" stroke="#7e57c2" points="498.87,-432.07 509.45,-432.71 501.58,-425.62 498.87,-432.07"/>
</g>
<!-- core_final_photon -->
<g id="node25" class="node">
<title>core_final_photon</title>
<path fill="lightgrey" stroke="black" d="M611.5,-360C611.5,-360 520.5,-360 520.5,-360 514.5,-360 508.5,-354 508.5,-348 508.5,-348 508.5,-336 508.5,-336 508.5,-330 514.5,-324 520.5,-324 520.5,-324 611.5,-324 611.5,-324 617.5,-324 623.5,-330 623.5,-336 623.5,-336 623.5,-348 623.5,-348 623.5,-354 617.5,-360 611.5,-360"/>
<text xml:space="preserve" text-anchor="middle" x="566" y="-336.95" font-family="Times New Roman,serif" font-size="14.00">core_final_photon</text>
</g>
<!-- core_champion_speed&#45;&gt;core_final_photon -->
<g id="edge29" class="edge">
<title>core_champion_speed&#45;&gt;core_final_photon</title>
<path fill="none" stroke="#7e57c2" d="M434.53,-359.75C454.71,-357 476.79,-354 496.96,-351.25"/>
<polygon fill="#7e57c2" stroke="#7e57c2" points="497.33,-354.74 506.77,-349.92 496.39,-347.8 497.33,-354.74"/>
</g>
<!-- corrupt_baby -->
<g id="node26" class="node">
<title>corrupt_baby</title>
<path fill="#ef5350" stroke="black" d="M81.62,-616C81.62,-616 17.62,-616 17.62,-616 11.62,-616 5.62,-610 5.62,-604 5.62,-604 5.62,-592 5.62,-592 5.62,-586 11.62,-580 17.62,-580 17.62,-580 81.62,-580 81.62,-580 87.62,-580 93.62,-586 93.62,-592 93.62,-592 93.62,-604 93.62,-604 93.62,-610 87.62,-616 81.62,-616"/>
<text xml:space="preserve" text-anchor="middle" x="49.62" y="-592.95" font-family="Times New Roman,serif" font-size="14.00">corrupt_baby</text>
</g>
<!-- corrupt_rookie -->
<g id="node27" class="node">
<title>corrupt_rookie</title>
<path fill="#ef5350" stroke="black" d="M225.12,-616C225.12,-616 152.88,-616 152.88,-616 146.88,-616 140.88,-610 140.88,-604 140.88,-604 140.88,-592 140.88,-592 140.88,-586 146.88,-580 152.88,-580 152.88,-580 225.12,-580 225.12,-580 231.12,-580 237.12,-586 237.12,-592 237.12,-592 237.12,-604 237.12,-604 237.12,-610 231.12,-616 225.12,-616"/>
<text xml:space="preserve" text-anchor="middle" x="189" y="-592.95" font-family="Times New Roman,serif" font-size="14.00">corrupt_rookie</text>
</g>
<!-- corrupt_baby&#45;&gt;corrupt_rookie -->
<g id="edge31" class="edge">
<title>corrupt_baby&#45;&gt;corrupt_rookie</title>
<path fill="none" stroke="black" d="M94.09,-598C105.29,-598 117.53,-598 129.36,-598"/>
<polygon fill="black" stroke="black" points="129.02,-601.5 139.02,-598 129.02,-594.5 129.02,-601.5"/>
</g>
<!-- corrupt_champion_glitch -->
<g id="node28" class="node">
<title>corrupt_champion_glitch</title>
<path fill="#ef5350" stroke="black" d="M430.12,-670C430.12,-670 300.88,-670 300.88,-670 294.88,-670 288.88,-664 288.88,-658 288.88,-658 288.88,-646 288.88,-646 288.88,-640 294.88,-634 300.88,-634 300.88,-634 430.12,-634 430.12,-634 436.12,-634 442.12,-640 442.12,-646 442.12,-646 442.12,-658 442.12,-658 442.12,-664 436.12,-670 430.12,-670"/>
<text xml:space="preserve" text-anchor="middle" x="365.5" y="-646.95" font-family="Times New Roman,serif" font-size="14.00">corrupt_champion_glitch</text>
</g>
<!-- corrupt_rookie&#45;&gt;corrupt_champion_glitch -->
<g id="edge32" class="edge">
<title>corrupt_rookie&#45;&gt;corrupt_champion_glitch</title>
<path fill="none" stroke="#7e57c2" d="M237.22,-612.61C254.68,-618.02 274.88,-624.27 293.96,-630.17"/>
<polygon fill="#7e57c2" stroke="#7e57c2" points="292.7,-633.45 303.29,-633.06 294.77,-626.76 292.7,-633.45"/>
</g>
<!-- corrupt_champion_error -->
<g id="node29" class="node">
<title>corrupt_champion_error</title>
<path fill="#ef5350" stroke="black" d="M427.88,-616C427.88,-616 303.12,-616 303.12,-616 297.12,-616 291.12,-610 291.12,-604 291.12,-604 291.12,-592 291.12,-592 291.12,-586 297.12,-580 303.12,-580 303.12,-580 427.88,-580 427.88,-580 433.88,-580 439.88,-586 439.88,-592 439.88,-592 439.88,-604 439.88,-604 439.88,-610 433.88,-616 427.88,-616"/>
<text xml:space="preserve" text-anchor="middle" x="365.5" y="-592.95" font-family="Times New Roman,serif" font-size="14.00">corrupt_champion_error</text>
</g>
<!-- corrupt_rookie&#45;&gt;corrupt_champion_error -->
<g id="edge33" class="edge">
<title>corrupt_rookie&#45;&gt;corrupt_champion_error</title>
<path fill="none" stroke="#7e57c2" d="M237.22,-598C250.33,-598 264.98,-598 279.55,-598"/>
<polygon fill="#7e57c2" stroke="#7e57c2" points="279.13,-601.5 289.13,-598 279.13,-594.5 279.13,-601.5"/>
</g>
<!-- corrupt_champion_patchfail -->
<g id="node30" class="node">
<title>corrupt_champion_patchfail</title>
<path fill="#ef5350" stroke="black" d="M438.38,-562C438.38,-562 292.62,-562 292.62,-562 286.62,-562 280.62,-556 280.62,-550 280.62,-550 280.62,-538 280.62,-538 280.62,-532 286.62,-526 292.62,-526 292.62,-526 438.38,-526 438.38,-526 444.38,-526 450.38,-532 450.38,-538 450.38,-538 450.38,-550 450.38,-550 450.38,-556 444.38,-562 438.38,-562"/>
<text xml:space="preserve" text-anchor="middle" x="365.5" y="-538.95" font-family="Times New Roman,serif" font-size="14.00">corrupt_champion_patchfail</text>
</g>
<!-- corrupt_rookie&#45;&gt;corrupt_champion_patchfail -->
<g id="edge34" class="edge">
<title>corrupt_rookie&#45;&gt;corrupt_champion_patchfail</title>
<path fill="none" stroke="#7e57c2" d="M237.22,-583.39C254.68,-577.98 274.88,-571.73 293.96,-565.83"/>
<polygon fill="#7e57c2" stroke="#7e57c2" points="294.77,-569.24 303.29,-562.94 292.7,-562.55 294.77,-569.24"/>
</g>
<!-- corrupt_final_corruptcore -->
<g id="node31" class="node">
<title>corrupt_final_corruptcore</title>
<path fill="lightgrey" stroke="black" d="M631.75,-657C631.75,-657 500.25,-657 500.25,-657 494.25,-657 488.25,-651 488.25,-645 488.25,-645 488.25,-633 488.25,-633 488.25,-627 494.25,-621 500.25,-621 500.25,-621 631.75,-621 631.75,-621 637.75,-621 643.75,-627 643.75,-633 643.75,-633 643.75,-645 643.75,-645 643.75,-651 637.75,-657 631.75,-657"/>
<text xml:space="preserve" text-anchor="middle" x="566" y="-633.95" font-family="Times New Roman,serif" font-size="14.00">corrupt_final_corruptcore</text>
</g>
<!-- corrupt_champion_glitch&#45;&gt;corrupt_final_corruptcore -->
<g id="edge35" class="edge">
<title>corrupt_champion_glitch&#45;&gt;corrupt_final_corruptcore</title>
<path fill="none" stroke="#7e57c2" d="M442.39,-647.03C453.56,-646.3 465.14,-645.54 476.53,-644.79"/>
<polygon fill="#7e57c2" stroke="#7e57c2" points="476.57,-648.3 486.32,-644.15 476.12,-641.31 476.57,-648.3"/>
</g>
<!-- corrupt_final_overrun -->
<g id="node32" class="node">
<title>corrupt_final_overrun</title>
<path fill="lightgrey" stroke="black" d="M621.62,-603C621.62,-603 510.38,-603 510.38,-603 504.38,-603 498.38,-597 498.38,-591 498.38,-591 498.38,-579 498.38,-579 498.38,-573 504.38,-567 510.38,-567 510.38,-567 621.62,-567 621.62,-567 627.62,-567 633.62,-573 633.62,-579 633.62,-579 633.62,-591 633.62,-591 633.62,-597 627.62,-603 621.62,-603"/>
<text xml:space="preserve" text-anchor="middle" x="566" y="-579.95" font-family="Times New Roman,serif" font-size="14.00">corrupt_final_overrun</text>
</g>
<!-- corrupt_champion_glitch&#45;&gt;corrupt_final_overrun -->
<g id="edge36" class="edge">
<title>corrupt_champion_glitch&#45;&gt;corrupt_final_overrun</title>
<path fill="none" stroke="#7e57c2" d="M426.11,-633.58C434.9,-630.77 443.82,-627.85 452.25,-625 468.37,-619.56 472.23,-617.71 488.25,-612 492.67,-610.43 497.23,-608.81 501.82,-607.18"/>
<polygon fill="#7e57c2" stroke="#7e57c2" points="502.86,-610.52 511.12,-603.89 500.52,-603.93 502.86,-610.52"/>
</g>
<!-- corrupt_champion_error&#45;&gt;corrupt_final_corruptcore -->
<g id="edge38" class="edge">
<title>corrupt_champion_error&#45;&gt;corrupt_final_corruptcore</title>
<path fill="none" stroke="#7e57c2" d="M440.13,-613.21C452.04,-615.67 464.48,-618.24 476.7,-620.76"/>
<polygon fill="#7e57c2" stroke="#7e57c2" points="475.85,-624.16 486.35,-622.75 477.26,-617.3 475.85,-624.16"/>
</g>
<!-- corrupt_champion_error&#45;&gt;corrupt_final_overrun -->
<g id="edge37" class="edge">
<title>corrupt_champion_error&#45;&gt;corrupt_final_overrun</title>
<path fill="none" stroke="#7e57c2" d="M440.13,-593.18C455.4,-592.18 471.54,-591.12 486.96,-590.11"/>
<polygon fill="#7e57c2" stroke="#7e57c2" points="486.79,-593.63 496.54,-589.48 486.33,-586.64 486.79,-593.63"/>
</g>
<!-- corrupt_champion_patchfail&#45;&gt;corrupt_final_corruptcore -->
<g id="edge39" class="edge">
<title>corrupt_champion_patchfail&#45;&gt;corrupt_final_corruptcore</title>
<path fill="none" stroke="#7e57c2" d="M436.33,-562.35C441.9,-564.89 447.28,-567.76 452.25,-571 472.57,-584.24 468.16,-598.42 488.25,-612 489.86,-613.09 491.52,-614.14 493.21,-615.15"/>
<polygon fill="#7e57c2" stroke="#7e57c2" points="491.48,-618.19 501.95,-619.81 494.78,-612.01 491.48,-618.19"/>
</g>
<!-- corrupt_champion_patchfail&#45;&gt;corrupt_final_overrun -->
<g id="edge40" class="edge">
<title>corrupt_champion_patchfail&#45;&gt;corrupt_final_overrun</title>
<path fill="none" stroke="#7e57c2" d="M450.68,-561.39C462.69,-563.87 475.01,-566.41 486.89,-568.87"/>
<polygon fill="#7e57c2" stroke="#7e57c2" points="486.15,-572.29 496.66,-570.88 487.57,-565.43 486.15,-572.29"/>
</g>
<!-- dream_baby -->
<g id="node33" class="node">
<title>dream_baby</title>
<path fill="#9575cd" stroke="black" d="M79.38,-785C79.38,-785 19.88,-785 19.88,-785 13.88,-785 7.88,-779 7.88,-773 7.88,-773 7.88,-761 7.88,-761 7.88,-755 13.88,-749 19.88,-749 19.88,-749 79.38,-749 79.38,-749 85.38,-749 91.38,-755 91.38,-761 91.38,-761 91.38,-773 91.38,-773 91.38,-779 85.38,-785 79.38,-785"/>
<text xml:space="preserve" text-anchor="middle" x="49.62" y="-761.95" font-family="Times New Roman,serif" font-size="14.00">dream_baby</text>
</g>
<!-- dream_rookie -->
<g id="node34" class="node">
<title>dream_rookie</title>
<path fill="#9575cd" stroke="black" d="M222.88,-785C222.88,-785 155.12,-785 155.12,-785 149.12,-785 143.12,-779 143.12,-773 143.12,-773 143.12,-761 143.12,-761 143.12,-755 149.12,-749 155.12,-749 155.12,-749 222.88,-749 222.88,-749 228.88,-749 234.88,-755 234.88,-761 234.88,-761 234.88,-773 234.88,-773 234.88,-779 228.88,-785 222.88,-785"/>
<text xml:space="preserve" text-anchor="middle" x="189" y="-761.95" font-family="Times New Roman,serif" font-size="14.00">dream_rookie</text>
</g>
<!-- dream_baby&#45;&gt;dream_rookie -->
<g id="edge41" class="edge">
<title>dream_baby&#45;&gt;dream_rookie</title>
<path fill="none" stroke="black" d="M91.84,-767C104.31,-767 118.23,-767 131.51,-767"/>
<polygon fill="black" stroke="black" points="131.46,-770.5 141.46,-767 131.46,-763.5 131.46,-770.5"/>
</g>
<!-- dream_champion_lucid -->
<g id="node35" class="node">
<title>dream_champion_lucid</title>
<path fill="#9575cd" stroke="black" d="M426,-839C426,-839 305,-839 305,-839 299,-839 293,-833 293,-827 293,-827 293,-815 293,-815 293,-809 299,-803 305,-803 305,-803 426,-803 426,-803 432,-803 438,-809 438,-815 438,-815 438,-827 438,-827 438,-833 432,-839 426,-839"/>
<text xml:space="preserve" text-anchor="middle" x="365.5" y="-815.95" font-family="Times New Roman,serif" font-size="14.00">dream_champion_lucid</text>
</g>
<!-- dream_rookie&#45;&gt;dream_champion_lucid -->
<g id="edge42" class="edge">
<title>dream_rookie&#45;&gt;dream_champion_lucid</title>
<path fill="none" stroke="#7e57c2" d="M234.94,-780.91C252.92,-786.47 274.06,-793.01 293.99,-799.18"/>
<polygon fill="#7e57c2" stroke="#7e57c2" points="292.87,-802.5 303.46,-802.11 294.94,-795.81 292.87,-802.5"/>
</g>
<!-- dream_champion_nightmare -->
<g id="node36" class="node">
<title>dream_champion_nightmare</title>
<path fill="#9575cd" stroke="black" d="M440.25,-785C440.25,-785 290.75,-785 290.75,-785 284.75,-785 278.75,-779 278.75,-773 278.75,-773 278.75,-761 278.75,-761 278.75,-755 284.75,-749 290.75,-749 290.75,-749 440.25,-749 440.25,-749 446.25,-749 452.25,-755 452.25,-761 452.25,-761 452.25,-773 452.25,-773 452.25,-779 446.25,-785 440.25,-785"/>
<text xml:space="preserve" text-anchor="middle" x="365.5" y="-761.95" font-family="Times New Roman,serif" font-size="14.00">dream_champion_nightmare</text>
</g>
<!-- dream_rookie&#45;&gt;dream_champion_nightmare -->
<g id="edge43" class="edge">
<title>dream_rookie&#45;&gt;dream_champion_nightmare</title>
<path fill="none" stroke="#7e57c2" d="M234.94,-767C244.94,-767 255.91,-767 267.11,-767"/>
<polygon fill="#7e57c2" stroke="#7e57c2" points="266.85,-770.5 276.85,-767 266.85,-763.5 266.85,-770.5"/>
</g>
<!-- dream_champion_whimsy -->
<g id="node37" class="node">
<title>dream_champion_whimsy</title>
<path fill="#9575cd" stroke="black" d="M434.25,-731C434.25,-731 296.75,-731 296.75,-731 290.75,-731 284.75,-725 284.75,-719 284.75,-719 284.75,-707 284.75,-707 284.75,-701 290.75,-695 296.75,-695 296.75,-695 434.25,-695 434.25,-695 440.25,-695 446.25,-701 446.25,-707 446.25,-707 446.25,-719 446.25,-719 446.25,-725 440.25,-731 434.25,-731"/>
<text xml:space="preserve" text-anchor="middle" x="365.5" y="-707.95" font-family="Times New Roman,serif" font-size="14.00">dream_champion_whimsy</text>
</g>
<!-- dream_rookie&#45;&gt;dream_champion_whimsy -->
<g id="edge44" class="edge">
<title>dream_rookie&#45;&gt;dream_champion_whimsy</title>
<path fill="none" stroke="#7e57c2" d="M234.94,-753.09C252.92,-747.53 274.06,-740.99 293.99,-734.82"/>
<polygon fill="#7e57c2" stroke="#7e57c2" points="294.94,-738.19 303.46,-731.89 292.87,-731.5 294.94,-738.19"/>
</g>
<!-- dream_final_ascended -->
<g id="node38" class="node">
<title>dream_final_ascended</title>
<path fill="lightgrey" stroke="black" d="M623.12,-792C623.12,-792 508.88,-792 508.88,-792 502.88,-792 496.88,-786 496.88,-780 496.88,-780 496.88,-768 496.88,-768 496.88,-762 502.88,-756 508.88,-756 508.88,-756 623.12,-756 623.12,-756 629.12,-756 635.12,-762 635.12,-768 635.12,-768 635.12,-780 635.12,-780 635.12,-786 629.12,-792 623.12,-792"/>
<text xml:space="preserve" text-anchor="middle" x="566" y="-768.95" font-family="Times New Roman,serif" font-size="14.00">dream_final_ascended</text>
</g>
<!-- dream_champion_lucid&#45;&gt;dream_final_ascended -->
<g id="edge45" class="edge">
<title>dream_champion_lucid&#45;&gt;dream_final_ascended</title>
<path fill="none" stroke="#7e57c2" d="M438.44,-803.97C453.71,-800.35 469.91,-796.51 485.44,-792.84"/>
<polygon fill="#7e57c2" stroke="#7e57c2" points="486.21,-796.25 495.14,-790.54 484.6,-789.44 486.21,-796.25"/>
</g>
<!-- dream_final_chaos -->
<g id="node39" class="node">
<title>dream_final_chaos</title>
<path fill="lightgrey" stroke="black" d="M613.75,-738C613.75,-738 518.25,-738 518.25,-738 512.25,-738 506.25,-732 506.25,-726 506.25,-726 506.25,-714 506.25,-714 506.25,-708 512.25,-702 518.25,-702 518.25,-702 613.75,-702 613.75,-702 619.75,-702 625.75,-708 625.75,-714 625.75,-714 625.75,-726 625.75,-726 625.75,-732 619.75,-738 613.75,-738"/>
<text xml:space="preserve" text-anchor="middle" x="566" y="-714.95" font-family="Times New Roman,serif" font-size="14.00">dream_final_chaos</text>
</g>
<!-- dream_champion_lucid&#45;&gt;dream_final_chaos -->
<g id="edge46" class="edge">
<title>dream_champion_lucid&#45;&gt;dream_final_chaos</title>
<path fill="none" stroke="#7e57c2" d="M437.44,-802.59C442.64,-800.07 447.65,-797.22 452.25,-794 473.8,-778.9 466.95,-762.45 488.25,-747 490.6,-745.29 493.07,-743.69 495.62,-742.18"/>
<polygon fill="#7e57c2" stroke="#7e57c2" points="497.25,-745.27 504.47,-737.51 493.99,-739.08 497.25,-745.27"/>
</g>
<!-- dream_champion_nightmare&#45;&gt;dream_final_ascended -->
<g id="edge48" class="edge">
<title>dream_champion_nightmare&#45;&gt;dream_final_ascended</title>
<path fill="none" stroke="#7e57c2" d="M452.7,-770.04C463.46,-770.42 474.42,-770.81 485.08,-771.18"/>
<polygon fill="#7e57c2" stroke="#7e57c2" points="484.86,-774.68 494.98,-771.53 485.11,-767.68 484.86,-774.68"/>
</g>
<!-- dream_champion_nightmare&#45;&gt;dream_final_chaos -->
<g id="edge47" class="edge">
<title>dream_champion_nightmare&#45;&gt;dream_final_chaos</title>
<path fill="none" stroke="#7e57c2" d="M444.38,-748.56C460.97,-744.63 478.4,-740.5 494.69,-736.65"/>
<polygon fill="#7e57c2" stroke="#7e57c2" points="495.36,-740.09 504.29,-734.38 493.75,-733.27 495.36,-740.09"/>
</g>
<!-- dream_champion_whimsy&#45;&gt;dream_final_ascended -->
<g id="edge49" class="edge">
<title>dream_champion_whimsy&#45;&gt;dream_final_ascended</title>
<path fill="none" stroke="#7e57c2" d="M426.6,-731.47C447.88,-738.01 472.02,-745.43 494.11,-752.22"/>
<polygon fill="#7e57c2" stroke="#7e57c2" points="493.08,-755.56 503.66,-755.15 495.13,-748.87 493.08,-755.56"/>
</g>
<!-- dream_champion_whimsy&#45;&gt;dream_final_chaos -->
<g id="edge50" class="edge">
<title>dream_champion_whimsy&#45;&gt;dream_final_chaos</title>
<path fill="none" stroke="#7e57c2" d="M446.67,-715.83C462.6,-716.39 479.21,-716.97 494.78,-717.52"/>
<polygon fill="#7e57c2" stroke="#7e57c2" points="494.28,-721.01 504.39,-717.86 494.52,-714.01 494.28,-721.01"/>
</g>
<!-- echo_baby -->
<g id="node40" class="node">
<title>echo_baby</title>
<path fill="#ba68c8" stroke="black" d="M74.88,-947C74.88,-947 24.38,-947 24.38,-947 18.38,-947 12.38,-941 12.38,-935 12.38,-935 12.38,-923 12.38,-923 12.38,-917 18.38,-911 24.38,-911 24.38,-911 74.88,-911 74.88,-911 80.88,-911 86.88,-917 86.88,-923 86.88,-923 86.88,-935 86.88,-935 86.88,-941 80.88,-947 74.88,-947"/>
<text xml:space="preserve" text-anchor="middle" x="49.62" y="-923.95" font-family="Times New Roman,serif" font-size="14.00">echo_baby</text>
</g>
<!-- echo_rookie -->
<g id="node41" class="node">
<title>echo_rookie</title>
<path fill="#ba68c8" stroke="black" d="M218.38,-947C218.38,-947 159.62,-947 159.62,-947 153.62,-947 147.62,-941 147.62,-935 147.62,-935 147.62,-923 147.62,-923 147.62,-917 153.62,-911 159.62,-911 159.62,-911 218.38,-911 218.38,-911 224.38,-911 230.38,-917 230.38,-923 230.38,-923 230.38,-935 230.38,-935 230.38,-941 224.38,-947 218.38,-947"/>
<text xml:space="preserve" text-anchor="middle" x="189" y="-923.95" font-family="Times New Roman,serif" font-size="14.00">echo_rookie</text>
</g>
<!-- echo_baby&#45;&gt;echo_rookie -->
<g id="edge51" class="edge">
<title>echo_baby&#45;&gt;echo_rookie</title>
<path fill="none" stroke="black" d="M87.08,-929C102.19,-929 120,-929 136.41,-929"/>
<polygon fill="black" stroke="black" points="135.99,-932.5 145.99,-929 135.99,-925.5 135.99,-932.5"/>
</g>
<!-- echo_champion_resonate -->
<g id="node42" class="node">
<title>echo_champion_resonate</title>
<path fill="#ba68c8" stroke="black" d="M430.5,-1001C430.5,-1001 300.5,-1001 300.5,-1001 294.5,-1001 288.5,-995 288.5,-989 288.5,-989 288.5,-977 288.5,-977 288.5,-971 294.5,-965 300.5,-965 300.5,-965 430.5,-965 430.5,-965 436.5,-965 442.5,-971 442.5,-977 442.5,-977 442.5,-989 442.5,-989 442.5,-995 436.5,-1001 430.5,-1001"/>
<text xml:space="preserve" text-anchor="middle" x="365.5" y="-977.95" font-family="Times New Roman,serif" font-size="14.00">echo_champion_resonate</text>
</g>
<!-- echo_rookie&#45;&gt;echo_champion_resonate -->
<g id="edge52" class="edge">
<title>echo_rookie&#45;&gt;echo_champion_resonate</title>
<path fill="none" stroke="#7e57c2" d="M230.47,-941.52C249.33,-947.36 272.34,-954.48 293.93,-961.16"/>
<polygon fill="#7e57c2" stroke="#7e57c2" points="292.69,-964.44 303.28,-964.05 294.76,-957.75 292.69,-964.44"/>
</g>
<!-- echo_champion_reverb -->
<g id="node43" class="node">
<title>echo_champion_reverb</title>
<path fill="#ba68c8" stroke="black" d="M425.25,-947C425.25,-947 305.75,-947 305.75,-947 299.75,-947 293.75,-941 293.75,-935 293.75,-935 293.75,-923 293.75,-923 293.75,-917 299.75,-911 305.75,-911 305.75,-911 425.25,-911 425.25,-911 431.25,-911 437.25,-917 437.25,-923 437.25,-923 437.25,-935 437.25,-935 437.25,-941 431.25,-947 425.25,-947"/>
<text xml:space="preserve" text-anchor="middle" x="365.5" y="-923.95" font-family="Times New Roman,serif" font-size="14.00">echo_champion_reverb</text>
</g>
<!-- echo_rookie&#45;&gt;echo_champion_reverb -->
<g id="edge53" class="edge">
<title>echo_rookie&#45;&gt;echo_champion_reverb</title>
<path fill="none" stroke="#7e57c2" d="M230.47,-929C245.91,-929 264.12,-929 282.05,-929"/>
<polygon fill="#7e57c2" stroke="#7e57c2" points="281.95,-932.5 291.95,-929 281.95,-925.5 281.95,-932.5"/>
</g>
<!-- echo_champion_distort -->
<g id="node44" class="node">
<title>echo_champion_distort</title>
<path fill="#ba68c8" stroke="black" d="M425.25,-893C425.25,-893 305.75,-893 305.75,-893 299.75,-893 293.75,-887 293.75,-881 293.75,-881 293.75,-869 293.75,-869 293.75,-863 299.75,-857 305.75,-857 305.75,-857 425.25,-857 425.25,-857 431.25,-857 437.25,-863 437.25,-869 437.25,-869 437.25,-881 437.25,-881 437.25,-887 431.25,-893 425.25,-893"/>
<text xml:space="preserve" text-anchor="middle" x="365.5" y="-869.95" font-family="Times New Roman,serif" font-size="14.00">echo_champion_distort</text>
</g>
<!-- echo_rookie&#45;&gt;echo_champion_distort -->
<g id="edge54" class="edge">
<title>echo_rookie&#45;&gt;echo_champion_distort</title>
<path fill="none" stroke="#7e57c2" d="M230.47,-916.48C249.33,-910.64 272.34,-903.52 293.93,-896.84"/>
<polygon fill="#7e57c2" stroke="#7e57c2" points="294.76,-900.25 303.28,-893.95 292.69,-893.56 294.76,-900.25"/>
</g>
<!-- echo_final_harmonic -->
<g id="node45" class="node">
<title>echo_final_harmonic</title>
<path fill="lightgrey" stroke="black" d="M619.75,-974C619.75,-974 512.25,-974 512.25,-974 506.25,-974 500.25,-968 500.25,-962 500.25,-962 500.25,-950 500.25,-950 500.25,-944 506.25,-938 512.25,-938 512.25,-938 619.75,-938 619.75,-938 625.75,-938 631.75,-944 631.75,-950 631.75,-950 631.75,-962 631.75,-962 631.75,-968 625.75,-974 619.75,-974"/>
<text xml:space="preserve" text-anchor="middle" x="566" y="-950.95" font-family="Times New Roman,serif" font-size="14.00">echo_final_harmonic</text>
</g>
<!-- echo_champion_resonate&#45;&gt;echo_final_harmonic -->
<g id="edge55" class="edge">
<title>echo_champion_resonate&#45;&gt;echo_final_harmonic</title>
<path fill="none" stroke="#7e57c2" d="M442.96,-972.6C457.93,-970.56 473.63,-968.43 488.6,-966.39"/>
<polygon fill="#7e57c2" stroke="#7e57c2" points="488.94,-969.88 498.38,-965.06 488,-962.94 488.94,-969.88"/>
</g>
<!-- echo_final_feedback -->
<g id="node46" class="node">
<title>echo_final_feedback</title>
<path fill="lightgrey" stroke="black" d="M618.25,-920C618.25,-920 513.75,-920 513.75,-920 507.75,-920 501.75,-914 501.75,-908 501.75,-908 501.75,-896 501.75,-896 501.75,-890 507.75,-884 513.75,-884 513.75,-884 618.25,-884 618.25,-884 624.25,-884 630.25,-890 630.25,-896 630.25,-896 630.25,-908 630.25,-908 630.25,-914 624.25,-920 618.25,-920"/>
<text xml:space="preserve" text-anchor="middle" x="566" y="-896.95" font-family="Times New Roman,serif" font-size="14.00">echo_final_feedback</text>
</g>
<!-- echo_champion_resonate&#45;&gt;echo_final_feedback -->
<g id="edge56" class="edge">
<title>echo_champion_resonate&#45;&gt;echo_final_feedback</title>
<path fill="none" stroke="#7e57c2" d="M432.95,-964.57C439.6,-961.99 446.14,-959.14 452.25,-956 470.04,-946.87 470.61,-938.43 488.25,-929 490.9,-927.58 493.65,-926.21 496.44,-924.89"/>
<polygon fill="#7e57c2" stroke="#7e57c2" points="497.64,-928.19 505.38,-920.96 494.82,-921.79 497.64,-928.19"/>
</g>
<!-- echo_champion_reverb&#45;&gt;echo_final_harmonic -->
<g id="edge58" class="edge">
<title>echo_champion_reverb&#45;&gt;echo_final_harmonic</title>
<path fill="none" stroke="#7e57c2" d="M437.6,-938.67C454.3,-940.94 472.16,-943.37 489.06,-945.67"/>
<polygon fill="#7e57c2" stroke="#7e57c2" points="488.13,-949.08 498.51,-946.96 489.07,-942.14 488.13,-949.08"/>
</g>
<!-- echo_champion_reverb&#45;&gt;echo_final_feedback -->
<g id="edge57" class="edge">
<title>echo_champion_reverb&#45;&gt;echo_final_feedback</title>
<path fill="none" stroke="#7e57c2" d="M437.6,-919.33C454.67,-917.01 472.94,-914.52 490.17,-912.18"/>
<polygon fill="#7e57c2" stroke="#7e57c2" points="490.38,-915.68 499.82,-910.87 489.44,-908.75 490.38,-915.68"/>
</g>
<!-- echo_champion_distort&#45;&gt;echo_final_harmonic -->
<g id="edge60" class="edge">
<title>echo_champion_distort&#45;&gt;echo_final_harmonic</title>
<path fill="none" stroke="#7e57c2" d="M432.95,-893.43C439.6,-896.01 446.14,-898.86 452.25,-902 470.04,-911.13 470.61,-919.57 488.25,-929 490.9,-930.42 493.65,-931.79 496.44,-933.11"/>
<polygon fill="#7e57c2" stroke="#7e57c2" points="494.82,-936.21 505.38,-937.04 497.64,-929.81 494.82,-936.21"/>
</g>
<!-- echo_champion_distort&#45;&gt;echo_final_feedback -->
<g id="edge59" class="edge">
<title>echo_champion_distort&#45;&gt;echo_final_feedback</title>
<path fill="none" stroke="#7e57c2" d="M437.6,-884.67C454.67,-886.99 472.94,-889.48 490.17,-891.82"/>
<polygon fill="#7e57c2" stroke="#7e57c2" points="489.44,-895.25 499.82,-893.13 490.38,-888.32 489.44,-895.25"/>
</g>
<!-- codeborn_baby -->
<g id="node47" class="node">
<title>codeborn_baby</title>
<path fill="#e0e0e0" stroke="black" d="M87.25,-1055C87.25,-1055 12,-1055 12,-1055 6,-1055 0,-1049 0,-1043 0,-1043 0,-1031 0,-1031 0,-1025 6,-1019 12,-1019 12,-1019 87.25,-1019 87.25,-1019 93.25,-1019 99.25,-1025 99.25,-1031 99.25,-1031 99.25,-1043 99.25,-1043 99.25,-1049 93.25,-1055 87.25,-1055"/>
<text xml:space="preserve" text-anchor="middle" x="49.62" y="-1031.95" font-family="Times New Roman,serif" font-size="14.00">codeborn_baby</text>
</g>
<!-- codeborn_rookie -->
<g id="node48" class="node">
<title>codeborn_rookie</title>
<path fill="#e0e0e0" stroke="black" d="M230.75,-1055C230.75,-1055 147.25,-1055 147.25,-1055 141.25,-1055 135.25,-1049 135.25,-1043 135.25,-1043 135.25,-1031 135.25,-1031 135.25,-1025 141.25,-1019 147.25,-1019 147.25,-1019 230.75,-1019 230.75,-1019 236.75,-1019 242.75,-1025 242.75,-1031 242.75,-1031 242.75,-1043 242.75,-1043 242.75,-1049 236.75,-1055 230.75,-1055"/>
<text xml:space="preserve" text-anchor="middle" x="189" y="-1031.95" font-family="Times New Roman,serif" font-size="14.00">codeborn_rookie</text>
</g>
<!-- codeborn_baby&#45;&gt;codeborn_rookie -->
<g id="edge61" class="edge">
<title>codeborn_baby&#45;&gt;codeborn_rookie</title>
<path fill="none" stroke="black" d="M99.45,-1037C107.31,-1037 115.55,-1037 123.71,-1037"/>
<polygon fill="black" stroke="black" points="123.63,-1040.5 133.63,-1037 123.63,-1033.5 123.63,-1040.5"/>
</g>
<!-- codeborn_champion -->
<g id="node49" class="node">
<title>codeborn_champion</title>
<path fill="#e0e0e0" stroke="black" d="M417,-1055C417,-1055 314,-1055 314,-1055 308,-1055 302,-1049 302,-1043 302,-1043 302,-1031 302,-1031 302,-1025 308,-1019 314,-1019 314,-1019 417,-1019 417,-1019 423,-1019 429,-1025 429,-1031 429,-1031 429,-1043 429,-1043 429,-1049 423,-1055 417,-1055"/>
<text xml:space="preserve" text-anchor="middle" x="365.5" y="-1031.95" font-family="Times New Roman,serif" font-size="14.00">codeborn_champion</text>
</g>
<!-- codeborn_rookie&#45;&gt;codeborn_champion -->
<g id="edge62" class="edge">
<title>codeborn_rookie&#45;&gt;codeborn_champion</title>
<path fill="none" stroke="black" d="M242.83,-1037C257.76,-1037 274.3,-1037 290.24,-1037"/>
<polygon fill="black" stroke="black" points="290.2,-1040.5 300.2,-1037 290.2,-1033.5 290.2,-1040.5"/>
</g>
<!-- codeborn_final -->
<g id="node50" class="node">
<title>codeborn_final</title>
<path fill="lightgrey" stroke="black" d="M602.88,-1055C602.88,-1055 529.12,-1055 529.12,-1055 523.12,-1055 517.12,-1049 517.12,-1043 517.12,-1043 517.12,-1031 517.12,-1031 517.12,-1025 523.12,-1019 529.12,-1019 529.12,-1019 602.88,-1019 602.88,-1019 608.88,-1019 614.88,-1025 614.88,-1031 614.88,-1031 614.88,-1043 614.88,-1043 614.88,-1049 608.88,-1055 602.88,-1055"/>
<text xml:space="preserve" text-anchor="middle" x="566" y="-1031.95" font-family="Times New Roman,serif" font-size="14.00">codeborn_final</text>
</g>
<!-- codeborn_champion&#45;&gt;codeborn_final -->
<g id="edge63" class="edge">
<title>codeborn_champion&#45;&gt;codeborn_final</title>
<path fill="none" stroke="black" d="M429.31,-1037C453.61,-1037 481.3,-1037 505.3,-1037"/>
<polygon fill="black" stroke="black" points="505.25,-1040.5 515.25,-1037 505.25,-1033.5 505.25,-1040.5"/>
</g>
<!-- firewall_baby -->
<g id="node51" class="node">
<title>firewall_baby</title>
<path fill="#ff8a65" stroke="black" d="M83.12,-1163C83.12,-1163 16.12,-1163 16.12,-1163 10.12,-1163 4.12,-1157 4.12,-1151 4.12,-1151 4.12,-1139 4.12,-1139 4.12,-1133 10.12,-1127 16.12,-1127 16.12,-1127 83.12,-1127 83.12,-1127 89.12,-1127 95.12,-1133 95.12,-1139 95.12,-1139 95.12,-1151 95.12,-1151 95.12,-1157 89.12,-1163 83.12,-1163"/>
<text xml:space="preserve" text-anchor="middle" x="49.62" y="-1139.95" font-family="Times New Roman,serif" font-size="14.00">firewall_baby</text>
</g>
<!-- firewall_rookie -->
<g id="node52" class="node">
<title>firewall_rookie</title>
<path fill="#ff8a65" stroke="black" d="M226.62,-1163C226.62,-1163 151.38,-1163 151.38,-1163 145.38,-1163 139.38,-1157 139.38,-1151 139.38,-1151 139.38,-1139 139.38,-1139 139.38,-1133 145.38,-1127 151.38,-1127 151.38,-1127 226.62,-1127 226.62,-1127 232.62,-1127 238.62,-1133 238.62,-1139 238.62,-1139 238.62,-1151 238.62,-1151 238.62,-1157 232.62,-1163 226.62,-1163"/>
<text xml:space="preserve" text-anchor="middle" x="189" y="-1139.95" font-family="Times New Roman,serif" font-size="14.00">firewall_rookie</text>
</g>
<!-- firewall_baby&#45;&gt;firewall_rookie -->
<g id="edge64" class="edge">
<title>firewall_baby&#45;&gt;firewall_rookie</title>
<path fill="none" stroke="black" d="M95.61,-1145C105.84,-1145 116.86,-1145 127.62,-1145"/>
<polygon fill="black" stroke="black" points="127.61,-1148.5 137.61,-1145 127.61,-1141.5 127.61,-1148.5"/>
</g>
<!-- firewall_champion_barrier -->
<g id="node53" class="node">
<title>firewall_champion_barrier</title>
<path fill="#ff8a65" stroke="black" d="M434.25,-1163C434.25,-1163 296.75,-1163 296.75,-1163 290.75,-1163 284.75,-1157 284.75,-1151 284.75,-1151 284.75,-1139 284.75,-1139 284.75,-1133 290.75,-1127 296.75,-1127 296.75,-1127 434.25,-1127 434.25,-1127 440.25,-1127 446.25,-1133 446.25,-1139 446.25,-1139 446.25,-1151 446.25,-1151 446.25,-1157 440.25,-1163 434.25,-1163"/>
<text xml:space="preserve" text-anchor="middle" x="365.5" y="-1139.95" font-family="Times New Roman,serif" font-size="14.00">firewall_champion_barrier</text>
</g>
<!-- firewall_rookie&#45;&gt;firewall_champion_barrier -->
<g id="edge65" class="edge">
<title>firewall_rookie&#45;&gt;firewall_champion_barrier</title>
<path fill="none" stroke="#7e57c2" d="M239.07,-1145C249.77,-1145 261.42,-1145 273.16,-1145"/>
<polygon fill="#7e57c2" stroke="#7e57c2" points="272.91,-1148.5 282.91,-1145 272.91,-1141.5 272.91,-1148.5"/>
</g>
<!-- firewall_champion_counter -->
<g id="node54" class="node">
<title>firewall_champion_counter</title>
<path fill="#ff8a65" stroke="black" d="M436.5,-1109C436.5,-1109 294.5,-1109 294.5,-1109 288.5,-1109 282.5,-1103 282.5,-1097 282.5,-1097 282.5,-1085 282.5,-1085 282.5,-1079 288.5,-1073 294.5,-1073 294.5,-1073 436.5,-1073 436.5,-1073 442.5,-1073 448.5,-1079 448.5,-1085 448.5,-1085 448.5,-1097 448.5,-1097 448.5,-1103 442.5,-1109 436.5,-1109"/>
<text xml:space="preserve" text-anchor="middle" x="365.5" y="-1085.95" font-family="Times New Roman,serif" font-size="14.00">firewall_champion_counter</text>
</g>
<!-- firewall_rookie&#45;&gt;firewall_champion_counter -->
<g id="edge66" class="edge">
<title>firewall_rookie&#45;&gt;firewall_champion_counter</title>
<path fill="none" stroke="#7e57c2" d="M239.07,-1129.81C256.1,-1124.55 275.54,-1118.53 293.95,-1112.83"/>
<polygon fill="#7e57c2" stroke="#7e57c2" points="294.99,-1116.18 303.5,-1109.88 292.92,-1109.49 294.99,-1116.18"/>
</g>
<!-- firewall_champion_patch -->
<g id="node55" class="node">
<title>firewall_champion_patch</title>
<path fill="#ff8a65" stroke="black" d="M430.88,-1217C430.88,-1217 300.12,-1217 300.12,-1217 294.12,-1217 288.12,-1211 288.12,-1205 288.12,-1205 288.12,-1193 288.12,-1193 288.12,-1187 294.12,-1181 300.12,-1181 300.12,-1181 430.88,-1181 430.88,-1181 436.88,-1181 442.88,-1187 442.88,-1193 442.88,-1193 442.88,-1205 442.88,-1205 442.88,-1211 436.88,-1217 430.88,-1217"/>
<text xml:space="preserve" text-anchor="middle" x="365.5" y="-1193.95" font-family="Times New Roman,serif" font-size="14.00">firewall_champion_patch</text>
</g>
<!-- firewall_rookie&#45;&gt;firewall_champion_patch -->
<g id="edge67" class="edge">
<title>firewall_rookie&#45;&gt;firewall_champion_patch</title>
<path fill="none" stroke="#7e57c2" d="M239.07,-1160.19C256.1,-1165.45 275.54,-1171.47 293.95,-1177.17"/>
<polygon fill="#7e57c2" stroke="#7e57c2" points="292.92,-1180.51 303.5,-1180.12 294.99,-1173.82 292.92,-1180.51"/>
</g>
<!-- firewall_final_fortress -->
<g id="node56" class="node">
<title>firewall_final_fortress</title>
<path fill="lightgrey" stroke="black" d="M622.38,-1217C622.38,-1217 509.62,-1217 509.62,-1217 503.62,-1217 497.62,-1211 497.62,-1205 497.62,-1205 497.62,-1193 497.62,-1193 497.62,-1187 503.62,-1181 509.62,-1181 509.62,-1181 622.38,-1181 622.38,-1181 628.38,-1181 634.38,-1187 634.38,-1193 634.38,-1193 634.38,-1205 634.38,-1205 634.38,-1211 628.38,-1217 622.38,-1217"/>
<text xml:space="preserve" text-anchor="middle" x="566" y="-1193.95" font-family="Times New Roman,serif" font-size="14.00">firewall_final_fortress</text>
</g>
<!-- firewall_champion_barrier&#45;&gt;firewall_final_fortress -->
<g id="edge68" class="edge">
<title>firewall_champion_barrier&#45;&gt;firewall_final_fortress</title>
<path fill="none" stroke="#7e57c2" d="M434.26,-1163.43C451.09,-1168.01 469.27,-1172.96 486.57,-1177.67"/>
<polygon fill="#7e57c2" stroke="#7e57c2" points="485.18,-1180.91 495.75,-1180.16 487.02,-1174.16 485.18,-1180.91"/>
</g>
<!-- firewall_final_protocol -->
<g id="node57" class="node">
<title>firewall_final_protocol</title>
<path fill="lightgrey" stroke="black" d="M624.62,-1163C624.62,-1163 507.38,-1163 507.38,-1163 501.38,-1163 495.38,-1157 495.38,-1151 495.38,-1151 495.38,-1139 495.38,-1139 495.38,-1133 501.38,-1127 507.38,-1127 507.38,-1127 624.62,-1127 624.62,-1127 630.62,-1127 636.62,-1133 636.62,-1139 636.62,-1139 636.62,-1151 636.62,-1151 636.62,-1157 630.62,-1163 624.62,-1163"/>
<text xml:space="preserve" text-anchor="middle" x="566" y="-1139.95" font-family="Times New Roman,serif" font-size="14.00">firewall_final_protocol</text>
</g>
<!-- firewall_champion_barrier&#45;&gt;firewall_final_protocol -->
<g id="edge69" class="edge">
<title>firewall_champion_barrier&#45;&gt;firewall_final_protocol</title>
<path fill="none" stroke="#7e57c2" d="M446.67,-1145C458.94,-1145 471.62,-1145 483.91,-1145"/>
<polygon fill="#7e57c2" stroke="#7e57c2" points="483.56,-1148.5 493.56,-1145 483.56,-1141.5 483.56,-1148.5"/>
</g>
<!-- firewall_champion_counter&#45;&gt;firewall_final_protocol -->
<g id="edge71" class="edge">
<title>firewall_champion_counter&#45;&gt;firewall_final_protocol</title>
<path fill="none" stroke="#7e57c2" d="M434.26,-1109.43C451.09,-1114.01 469.27,-1118.96 486.57,-1123.67"/>
<polygon fill="#7e57c2" stroke="#7e57c2" points="485.18,-1126.91 495.75,-1126.16 487.02,-1120.16 485.18,-1126.91"/>
</g>
<!-- firewall_final_retaliate -->
<g id="node58" class="node">
<title>firewall_final_retaliate</title>
<path fill="lightgrey" stroke="black" d="M623.88,-1109C623.88,-1109 508.12,-1109 508.12,-1109 502.12,-1109 496.12,-1103 496.12,-1097 496.12,-1097 496.12,-1085 496.12,-1085 496.12,-1079 502.12,-1073 508.12,-1073 508.12,-1073 623.88,-1073 623.88,-1073 629.88,-1073 635.88,-1079 635.88,-1085 635.88,-1085 635.88,-1097 635.88,-1097 635.88,-1103 629.88,-1109 623.88,-1109"/>
<text xml:space="preserve" text-anchor="middle" x="566" y="-1085.95" font-family="Times New Roman,serif" font-size="14.00">firewall_final_retaliate</text>
</g>
<!-- firewall_champion_counter&#45;&gt;firewall_final_retaliate -->
<g id="edge70" class="edge">
<title>firewall_champion_counter&#45;&gt;firewall_final_retaliate</title>
<path fill="none" stroke="#7e57c2" d="M448.96,-1091C460.62,-1091 472.6,-1091 484.24,-1091"/>
<polygon fill="#7e57c2" stroke="#7e57c2" points="484.21,-1094.5 494.21,-1091 484.21,-1087.5 484.21,-1094.5"/>
</g>
<!-- firewall_champion_patch&#45;&gt;firewall_final_fortress -->
<g id="edge73" class="edge">
<title>firewall_champion_patch&#45;&gt;firewall_final_fortress</title>
<path fill="none" stroke="#7e57c2" d="M443.25,-1199C457.28,-1199 471.94,-1199 486.04,-1199"/>
<polygon fill="#7e57c2" stroke="#7e57c2" points="485.68,-1202.5 495.68,-1199 485.68,-1195.5 485.68,-1202.5"/>
</g>
<!-- firewall_champion_patch&#45;&gt;firewall_final_protocol -->
<g id="edge72" class="edge">
<title>firewall_champion_patch&#45;&gt;firewall_final_protocol</title>
<path fill="none" stroke="#7e57c2" d="M434.26,-1180.57C451.09,-1175.99 469.27,-1171.04 486.57,-1166.33"/>
<polygon fill="#7e57c2" stroke="#7e57c2" points="487.02,-1169.84 495.75,-1163.84 485.18,-1163.09 487.02,-1169.84"/>
</g>
<!-- pulse_baby -->
<g id="node59" class="node">
<title>pulse_baby</title>
<path fill="#f06292" stroke="black" d="M76.38,-1325C76.38,-1325 22.88,-1325 22.88,-1325 16.88,-1325 10.88,-1319 10.88,-1313 10.88,-1313 10.88,-1301 10.88,-1301 10.88,-1295 16.88,-1289 22.88,-1289 22.88,-1289 76.38,-1289 76.38,-1289 82.38,-1289 88.38,-1295 88.38,-1301 88.38,-1301 88.38,-1313 88.38,-1313 88.38,-1319 82.38,-1325 76.38,-1325"/>
<text xml:space="preserve" text-anchor="middle" x="49.62" y="-1301.95" font-family="Times New Roman,serif" font-size="14.00">pulse_baby</text>
</g>
<!-- pulse_rookie -->
<g id="node60" class="node">
<title>pulse_rookie</title>
<path fill="#f06292" stroke="black" d="M219.88,-1325C219.88,-1325 158.12,-1325 158.12,-1325 152.12,-1325 146.12,-1319 146.12,-1313 146.12,-1313 146.12,-1301 146.12,-1301 146.12,-1295 152.12,-1289 158.12,-1289 158.12,-1289 219.88,-1289 219.88,-1289 225.88,-1289 231.88,-1295 231.88,-1301 231.88,-1301 231.88,-1313 231.88,-1313 231.88,-1319 225.88,-1325 219.88,-1325"/>
<text xml:space="preserve" text-anchor="middle" x="189" y="-1301.95" font-family="Times New Roman,serif" font-size="14.00">pulse_rookie</text>
</g>
<!-- pulse_baby&#45;&gt;pulse_rookie -->
<g id="edge74" class="edge">
<title>pulse_baby&#45;&gt;pulse_rookie</title>
<path fill="none" stroke="black" d="M88.53,-1307C102.7,-1307 119.09,-1307 134.41,-1307"/>
<polygon fill="black" stroke="black" points="134.36,-1310.5 144.36,-1307 134.36,-1303.5 134.36,-1310.5"/>
</g>
<!-- pulse_champion_surge -->
<g id="node61" class="node">
<title>pulse_champion_surge</title>
<path fill="#f06292" stroke="black" d="M424.12,-1325C424.12,-1325 306.88,-1325 306.88,-1325 300.88,-1325 294.88,-1319 294.88,-1313 294.88,-1313 294.88,-1301 294.88,-1301 294.88,-1295 300.88,-1289 306.88,-1289 306.88,-1289 424.12,-1289 424.12,-1289 430.12,-1289 436.12,-1295 436.12,-1301 436.12,-1301 436.12,-1313 436.12,-1313 436.12,-1319 430.12,-1325 424.12,-1325"/>
<text xml:space="preserve" text-anchor="middle" x="365.5" y="-1301.95" font-family="Times New Roman,serif" font-size="14.00">pulse_champion_surge</text>
</g>
<!-- pulse_rookie&#45;&gt;pulse_champion_surge -->
<g id="edge75" class="edge">
<title>pulse_rookie&#45;&gt;pulse_champion_surge</title>
<path fill="none" stroke="#7e57c2" d="M232.24,-1307C247.55,-1307 265.4,-1307 282.95,-1307"/>
<polygon fill="#7e57c2" stroke="#7e57c2" points="282.89,-1310.5 292.89,-1307 282.89,-1303.5 282.89,-1310.5"/>
</g>
<!-- pulse_champion_resonance -->
<g id="node62" class="node">
<title>pulse_champion_resonance</title>
<path fill="#f06292" stroke="black" d="M436.5,-1271C436.5,-1271 294.5,-1271 294.5,-1271 288.5,-1271 282.5,-1265 282.5,-1259 282.5,-1259 282.5,-1247 282.5,-1247 282.5,-1241 288.5,-1235 294.5,-1235 294.5,-1235 436.5,-1235 436.5,-1235 442.5,-1235 448.5,-1241 448.5,-1247 448.5,-1247 448.5,-1259 448.5,-1259 448.5,-1265 442.5,-1271 436.5,-1271"/>
<text xml:space="preserve" text-anchor="middle" x="365.5" y="-1247.95" font-family="Times New Roman,serif" font-size="14.00">pulse_champion_resonance</text>
</g>
<!-- pulse_rookie&#45;&gt;pulse_champion_resonance -->
<g id="edge76" class="edge">
<title>pulse_rookie&#45;&gt;pulse_champion_resonance</title>
<path fill="none" stroke="#7e57c2" d="M232.24,-1293.93C250.79,-1288.19 273.09,-1281.29 294.04,-1274.81"/>
<polygon fill="#7e57c2" stroke="#7e57c2" points="294.88,-1278.21 303.4,-1271.91 292.81,-1271.52 294.88,-1278.21"/>
</g>
<!-- pulse_champion_static -->
<g id="node63" class="node">
<title>pulse_champion_static</title>
<path fill="#f06292" stroke="black" d="M423.75,-1379C423.75,-1379 307.25,-1379 307.25,-1379 301.25,-1379 295.25,-1373 295.25,-1367 295.25,-1367 295.25,-1355 295.25,-1355 295.25,-1349 301.25,-1343 307.25,-1343 307.25,-1343 423.75,-1343 423.75,-1343 429.75,-1343 435.75,-1349 435.75,-1355 435.75,-1355 435.75,-1367 435.75,-1367 435.75,-1373 429.75,-1379 423.75,-1379"/>
<text xml:space="preserve" text-anchor="middle" x="365.5" y="-1355.95" font-family="Times New Roman,serif" font-size="14.00">pulse_champion_static</text>
</g>
<!-- pulse_rookie&#45;&gt;pulse_champion_static -->
<g id="edge77" class="edge">
<title>pulse_rookie&#45;&gt;pulse_champion_static</title>
<path fill="none" stroke="#7e57c2" d="M232.24,-1320.07C250.79,-1325.81 273.09,-1332.71 294.04,-1339.19"/>
<polygon fill="#7e57c2" stroke="#7e57c2" points="292.81,-1342.48 303.4,-1342.09 294.88,-1335.79 292.81,-1342.48"/>
</g>
<!-- pulse_final_overdrive -->
<g id="node64" class="node">
<title>pulse_final_overdrive</title>
<path fill="lightgrey" stroke="black" d="M621.25,-1379C621.25,-1379 510.75,-1379 510.75,-1379 504.75,-1379 498.75,-1373 498.75,-1367 498.75,-1367 498.75,-1355 498.75,-1355 498.75,-1349 504.75,-1343 510.75,-1343 510.75,-1343 621.25,-1343 621.25,-1343 627.25,-1343 633.25,-1349 633.25,-1355 633.25,-1355 633.25,-1367 633.25,-1367 633.25,-1373 627.25,-1379 621.25,-1379"/>
<text xml:space="preserve" text-anchor="middle" x="566" y="-1355.95" font-family="Times New Roman,serif" font-size="14.00">pulse_final_overdrive</text>
</g>
<!-- pulse_champion_surge&#45;&gt;pulse_final_overdrive -->
<g id="edge78" class="edge">
<title>pulse_champion_surge&#45;&gt;pulse_final_overdrive</title>
<path fill="none" stroke="#7e57c2" d="M434.26,-1325.43C451.46,-1330.11 470.08,-1335.18 487.72,-1339.98"/>
<polygon fill="#7e57c2" stroke="#7e57c2" points="486.53,-1343.28 497.1,-1342.53 488.37,-1336.52 486.53,-1343.28"/>
</g>
<!-- pulse_final_sync -->
<g id="node65" class="node">
<title>pulse_final_sync</title>
<path fill="lightgrey" stroke="black" d="M607.75,-1271C607.75,-1271 524.25,-1271 524.25,-1271 518.25,-1271 512.25,-1265 512.25,-1259 512.25,-1259 512.25,-1247 512.25,-1247 512.25,-1241 518.25,-1235 524.25,-1235 524.25,-1235 607.75,-1235 607.75,-1235 613.75,-1235 619.75,-1241 619.75,-1247 619.75,-1247 619.75,-1259 619.75,-1259 619.75,-1265 613.75,-1271 607.75,-1271"/>
<text xml:space="preserve" text-anchor="middle" x="566" y="-1247.95" font-family="Times New Roman,serif" font-size="14.00">pulse_final_sync</text>
</g>
<!-- pulse_champion_surge&#45;&gt;pulse_final_sync -->
<g id="edge79" class="edge">
<title>pulse_champion_surge&#45;&gt;pulse_final_sync</title>
<path fill="none" stroke="#7e57c2" d="M434.26,-1288.57C455.87,-1282.69 479.71,-1276.2 501.05,-1270.4"/>
<polygon fill="#7e57c2" stroke="#7e57c2" points="501.76,-1273.83 510.49,-1267.83 499.92,-1267.08 501.76,-1273.83"/>
</g>
<!-- pulse_champion_resonance&#45;&gt;pulse_final_sync -->
<g id="edge80" class="edge">
<title>pulse_champion_resonance&#45;&gt;pulse_final_sync</title>
<path fill="none" stroke="#7e57c2" d="M448.96,-1253C466.27,-1253 484.28,-1253 500.8,-1253"/>
<polygon fill="#7e57c2" stroke="#7e57c2" points="500.46,-1256.5 510.46,-1253 500.46,-1249.5 500.46,-1256.5"/>
</g>
<!-- pulse_final_staticstorm -->
<g id="node66" class="node">
<title>pulse_final_staticstorm</title>
<path fill="lightgrey" stroke="black" d="M625.38,-1325C625.38,-1325 506.62,-1325 506.62,-1325 500.62,-1325 494.62,-1319 494.62,-1313 494.62,-1313 494.62,-1301 494.62,-1301 494.62,-1295 500.62,-1289 506.62,-1289 506.62,-1289 625.38,-1289 625.38,-1289 631.38,-1289 637.38,-1295 637.38,-1301 637.38,-1301 637.38,-1313 637.38,-1313 637.38,-1319 631.38,-1325 625.38,-1325"/>
<text xml:space="preserve" text-anchor="middle" x="566" y="-1301.95" font-family="Times New Roman,serif" font-size="14.00">pulse_final_staticstorm</text>
</g>
<!-- pulse_champion_resonance&#45;&gt;pulse_final_staticstorm -->
<g id="edge81" class="edge">
<title>pulse_champion_resonance&#45;&gt;pulse_final_staticstorm</title>
<path fill="none" stroke="#7e57c2" d="M434.26,-1271.43C451.09,-1276.01 469.27,-1280.96 486.57,-1285.67"/>
<polygon fill="#7e57c2" stroke="#7e57c2" points="485.18,-1288.91 495.75,-1288.16 487.02,-1282.16 485.18,-1288.91"/>
</g>
<!-- pulse_champion_static&#45;&gt;pulse_final_overdrive -->
<g id="edge83" class="edge">
<title>pulse_champion_static&#45;&gt;pulse_final_overdrive</title>
<path fill="none" stroke="#7e57c2" d="M436.2,-1361C452.63,-1361 470.25,-1361 487.02,-1361"/>
<polygon fill="#7e57c2" stroke="#7e57c2" points="486.95,-1364.5 496.95,-1361 486.95,-1357.5 486.95,-1364.5"/>
</g>
<!-- pulse_champion_static&#45;&gt;pulse_final_staticstorm -->
<g id="edge82" class="edge">
<title>pulse_champion_static&#45;&gt;pulse_final_staticstorm</title>
<path fill="none" stroke="#7e57c2" d="M434.26,-1342.57C451.09,-1337.99 469.27,-1333.04 486.57,-1328.33"/>
<polygon fill="#7e57c2" stroke="#7e57c2" points="487.02,-1331.84 495.75,-1325.84 485.18,-1325.09 487.02,-1331.84"/>
</g>
<!-- root_baby -->
<g id="node67" class="node">
<title>root_baby</title>
<path fill="#81c784" stroke="black" d="M73,-1514C73,-1514 26.25,-1514 26.25,-1514 20.25,-1514 14.25,-1508 14.25,-1502 14.25,-1502 14.25,-1490 14.25,-1490 14.25,-1484 20.25,-1478 26.25,-1478 26.25,-1478 73,-1478 73,-1478 79,-1478 85,-1484 85,-1490 85,-1490 85,-1502 85,-1502 85,-1508 79,-1514 73,-1514"/>
<text xml:space="preserve" text-anchor="middle" x="49.62" y="-1490.95" font-family="Times New Roman,serif" font-size="14.00">root_baby</text>
</g>
<!-- root_rookie -->
<g id="node68" class="node">
<title>root_rookie</title>
<path fill="#81c784" stroke="black" d="M216.5,-1514C216.5,-1514 161.5,-1514 161.5,-1514 155.5,-1514 149.5,-1508 149.5,-1502 149.5,-1502 149.5,-1490 149.5,-1490 149.5,-1484 155.5,-1478 161.5,-1478 161.5,-1478 216.5,-1478 216.5,-1478 222.5,-1478 228.5,-1484 228.5,-1490 228.5,-1490 228.5,-1502 228.5,-1502 228.5,-1508 222.5,-1514 216.5,-1514"/>
<text xml:space="preserve" text-anchor="middle" x="189" y="-1490.95" font-family="Times New Roman,serif" font-size="14.00">root_rookie</text>
</g>
<!-- root_baby&#45;&gt;root_rookie -->
<g id="edge84" class="edge">
<title>root_baby&#45;&gt;root_rookie</title>
<path fill="none" stroke="black" d="M85.29,-1496C101.25,-1496 120.5,-1496 137.99,-1496"/>
<polygon fill="black" stroke="black" points="137.96,-1499.5 147.96,-1496 137.96,-1492.5 137.96,-1499.5"/>
</g>
<!-- root_champion_thorn -->
<g id="node69" class="node">
<title>root_champion_thorn</title>
<path fill="#81c784" stroke="black" d="M420.38,-1568C420.38,-1568 310.62,-1568 310.62,-1568 304.62,-1568 298.62,-1562 298.62,-1556 298.62,-1556 298.62,-1544 298.62,-1544 298.62,-1538 304.62,-1532 310.62,-1532 310.62,-1532 420.38,-1532 420.38,-1532 426.38,-1532 432.38,-1538 432.38,-1544 432.38,-1544 432.38,-1556 432.38,-1556 432.38,-1562 426.38,-1568 420.38,-1568"/>
<text xml:space="preserve" text-anchor="middle" x="365.5" y="-1544.95" font-family="Times New Roman,serif" font-size="14.00">root_champion_thorn</text>
</g>
<!-- root_rookie&#45;&gt;root_champion_thorn -->
<g id="edge85" class="edge">
<title>root_rookie&#45;&gt;root_champion_thorn</title>
<path fill="none" stroke="#7e57c2" d="M228.73,-1507.98C247.97,-1513.94 271.83,-1521.32 294.15,-1528.23"/>
<polygon fill="#7e57c2" stroke="#7e57c2" points="292.93,-1531.52 303.52,-1531.13 295,-1524.83 292.93,-1531.52"/>
</g>
<!-- root_champion_bloom -->
<g id="node70" class="node">
<title>root_champion_bloom</title>
<path fill="#81c784" stroke="black" d="M423.75,-1514C423.75,-1514 307.25,-1514 307.25,-1514 301.25,-1514 295.25,-1508 295.25,-1502 295.25,-1502 295.25,-1490 295.25,-1490 295.25,-1484 301.25,-1478 307.25,-1478 307.25,-1478 423.75,-1478 423.75,-1478 429.75,-1478 435.75,-1484 435.75,-1490 435.75,-1490 435.75,-1502 435.75,-1502 435.75,-1508 429.75,-1514 423.75,-1514"/>
<text xml:space="preserve" text-anchor="middle" x="365.5" y="-1490.95" font-family="Times New Roman,serif" font-size="14.00">root_champion_bloom</text>
</g>
<!-- root_rookie&#45;&gt;root_champion_bloom -->
<g id="edge86" class="edge">
<title>root_rookie&#45;&gt;root_champion_bloom</title>
<path fill="none" stroke="#7e57c2" d="M228.73,-1496C244.93,-1496 264.42,-1496 283.5,-1496"/>
<polygon fill="#7e57c2" stroke="#7e57c2" points="283.46,-1499.5 293.46,-1496 283.46,-1492.5 283.46,-1499.5"/>
</g>
<!-- root_champion_bark -->
<g id="node71" class="node">
<title>root_champion_bark</title>
<path fill="#81c784" stroke="black" d="M418.12,-1460C418.12,-1460 312.88,-1460 312.88,-1460 306.88,-1460 300.88,-1454 300.88,-1448 300.88,-1448 300.88,-1436 300.88,-1436 300.88,-1430 306.88,-1424 312.88,-1424 312.88,-1424 418.12,-1424 418.12,-1424 424.12,-1424 430.12,-1430 430.12,-1436 430.12,-1436 430.12,-1448 430.12,-1448 430.12,-1454 424.12,-1460 418.12,-1460"/>
<text xml:space="preserve" text-anchor="middle" x="365.5" y="-1436.95" font-family="Times New Roman,serif" font-size="14.00">root_champion_bark</text>
</g>
<!-- root_rookie&#45;&gt;root_champion_bark -->
<g id="edge87" class="edge">
<title>root_rookie&#45;&gt;root_champion_bark</title>
<path fill="none" stroke="#7e57c2" d="M228.73,-1484.02C247.97,-1478.06 271.83,-1470.68 294.15,-1463.77"/>
<polygon fill="#7e57c2" stroke="#7e57c2" points="295,-1467.17 303.52,-1460.87 292.93,-1460.48 295,-1467.17"/>
</g>
<!-- root_final_bramble -->
<g id="node72" class="node">
<title>root_final_bramble</title>
<path fill="lightgrey" stroke="black" d="M614.5,-1595C614.5,-1595 517.5,-1595 517.5,-1595 511.5,-1595 505.5,-1589 505.5,-1583 505.5,-1583 505.5,-1571 505.5,-1571 505.5,-1565 511.5,-1559 517.5,-1559 517.5,-1559 614.5,-1559 614.5,-1559 620.5,-1559 626.5,-1565 626.5,-1571 626.5,-1571 626.5,-1583 626.5,-1583 626.5,-1589 620.5,-1595 614.5,-1595"/>
<text xml:space="preserve" text-anchor="middle" x="566" y="-1571.95" font-family="Times New Roman,serif" font-size="14.00">root_final_bramble</text>
</g>
<!-- root_champion_thorn&#45;&gt;root_final_bramble -->
<g id="edge88" class="edge">
<title>root_champion_thorn&#45;&gt;root_final_bramble</title>
<path fill="none" stroke="#7e57c2" d="M432.87,-1559.03C452.47,-1561.69 473.99,-1564.62 493.87,-1567.32"/>
<polygon fill="#7e57c2" stroke="#7e57c2" points="493.16,-1570.76 503.54,-1568.64 494.1,-1563.82 493.16,-1570.76"/>
</g>
<!-- root_final_ancient -->
<g id="node73" class="node">
<title>root_final_ancient</title>
<path fill="lightgrey" stroke="black" d="M611.5,-1541C611.5,-1541 520.5,-1541 520.5,-1541 514.5,-1541 508.5,-1535 508.5,-1529 508.5,-1529 508.5,-1517 508.5,-1517 508.5,-1511 514.5,-1505 520.5,-1505 520.5,-1505 611.5,-1505 611.5,-1505 617.5,-1505 623.5,-1511 623.5,-1517 623.5,-1517 623.5,-1529 623.5,-1529 623.5,-1535 617.5,-1541 611.5,-1541"/>
<text xml:space="preserve" text-anchor="middle" x="566" y="-1517.95" font-family="Times New Roman,serif" font-size="14.00">root_final_ancient</text>
</g>
<!-- root_champion_thorn&#45;&gt;root_final_ancient -->
<g id="edge89" class="edge">
<title>root_champion_thorn&#45;&gt;root_final_ancient</title>
<path fill="none" stroke="#7e57c2" d="M432.87,-1540.97C453.51,-1538.16 476.28,-1535.07 497.03,-1532.25"/>
<polygon fill="#7e57c2" stroke="#7e57c2" points="497.38,-1535.73 506.81,-1530.91 496.43,-1528.79 497.38,-1535.73"/>
</g>
<!-- root_champion_bloom&#45;&gt;root_final_ancient -->
<g id="edge90" class="edge">
<title>root_champion_bloom&#45;&gt;root_final_ancient</title>
<path fill="none" stroke="#7e57c2" d="M436.2,-1505.48C455.91,-1508.16 477.32,-1511.07 496.93,-1513.74"/>
<polygon fill="#7e57c2" stroke="#7e57c2" points="496.36,-1517.2 506.74,-1515.08 497.3,-1510.26 496.36,-1517.2"/>
</g>
<!-- root_final_verdant -->
<g id="node74" class="node">
<title>root_final_verdant</title>
<path fill="lightgrey" stroke="black" d="M612.25,-1487C612.25,-1487 519.75,-1487 519.75,-1487 513.75,-1487 507.75,-1481 507.75,-1475 507.75,-1475 507.75,-1463 507.75,-1463 507.75,-1457 513.75,-1451 519.75,-1451 519.75,-1451 612.25,-1451 612.25,-1451 618.25,-1451 624.25,-1457 624.25,-1463 624.25,-1463 624.25,-1475 624.25,-1475 624.25,-1481 618.25,-1487 612.25,-1487"/>
<text xml:space="preserve" text-anchor="middle" x="566" y="-1463.95" font-family="Times New Roman,serif" font-size="14.00">root_final_verdant</text>
</g>
<!-- root_champion_bloom&#45;&gt;root_final_verdant -->
<g id="edge91" class="edge">
<title>root_champion_bloom&#45;&gt;root_final_verdant</title>
<path fill="none" stroke="#7e57c2" d="M436.2,-1486.52C455.63,-1483.88 476.71,-1481.01 496.09,-1478.37"/>
<polygon fill="#7e57c2" stroke="#7e57c2" points="496.34,-1481.87 505.78,-1477.06 495.4,-1474.94 496.34,-1481.87"/>
</g>
<!-- root_champion_bark&#45;&gt;root_final_ancient -->
<g id="edge93" class="edge">
<title>root_champion_bark&#45;&gt;root_final_ancient</title>
<path fill="none" stroke="#7e57c2" d="M430.23,-1459.39C437.81,-1462.23 445.31,-1465.44 452.25,-1469 470.04,-1478.13 470.61,-1486.57 488.25,-1496 491.43,-1497.7 494.73,-1499.33 498.11,-1500.88"/>
<polygon fill="#7e57c2" stroke="#7e57c2" points="496.44,-1503.97 507.01,-1504.72 499.21,-1497.54 496.44,-1503.97"/>
</g>
<!-- root_final_warden -->
<g id="node75" class="node">
<title>root_final_warden</title>
<path fill="lightgrey" stroke="black" d="M611.88,-1433C611.88,-1433 520.12,-1433 520.12,-1433 514.12,-1433 508.12,-1427 508.12,-1421 508.12,-1421 508.12,-1409 508.12,-1409 508.12,-1403 514.12,-1397 520.12,-1397 520.12,-1397 611.88,-1397 611.88,-1397 617.88,-1397 623.88,-1403 623.88,-1409 623.88,-1409 623.88,-1421 623.88,-1421 623.88,-1427 617.88,-1433 611.88,-1433"/>
<text xml:space="preserve" text-anchor="middle" x="566" y="-1409.95" font-family="Times New Roman,serif" font-size="14.00">root_final_warden</text>
</g>
<!-- root_champion_bark&#45;&gt;root_final_warden -->
<g id="edge92" class="edge">
<title>root_champion_bark&#45;&gt;root_final_warden</title>
<path fill="none" stroke="#7e57c2" d="M430.4,-1433.31C451.53,-1430.43 475.13,-1427.22 496.59,-1424.31"/>
<polygon fill="#7e57c2" stroke="#7e57c2" points="496.99,-1427.78 506.43,-1422.97 496.05,-1420.85 496.99,-1427.78"/>
</g>
<!-- void_baby -->
<g id="node76" class="node">
<title>void_baby</title>
<path fill="#b0bec5" stroke="black" d="M74.12,-1703C74.12,-1703 25.12,-1703 25.12,-1703 19.12,-1703 13.12,-1697 13.12,-1691 13.12,-1691 13.12,-1679 13.12,-1679 13.12,-1673 19.12,-1667 25.12,-1667 25.12,-1667 74.12,-1667 74.12,-1667 80.12,-1667 86.12,-1673 86.12,-1679 86.12,-1679 86.12,-1691 86.12,-1691 86.12,-1697 80.12,-1703 74.12,-1703"/>
<text xml:space="preserve" text-anchor="middle" x="49.62" y="-1679.95" font-family="Times New Roman,serif" font-size="14.00">void_baby</text>
</g>
<!-- void_rookie -->
<g id="node77" class="node">
<title>void_rookie</title>
<path fill="#b0bec5" stroke="black" d="M217.62,-1703C217.62,-1703 160.38,-1703 160.38,-1703 154.38,-1703 148.38,-1697 148.38,-1691 148.38,-1691 148.38,-1679 148.38,-1679 148.38,-1673 154.38,-1667 160.38,-1667 160.38,-1667 217.62,-1667 217.62,-1667 223.62,-1667 229.62,-1673 229.62,-1679 229.62,-1679 229.62,-1691 229.62,-1691 229.62,-1697 223.62,-1703 217.62,-1703"/>
<text xml:space="preserve" text-anchor="middle" x="189" y="-1679.95" font-family="Times New Roman,serif" font-size="14.00">void_rookie</text>
</g>
<!-- void_baby&#45;&gt;void_rookie -->
<g id="edge94" class="edge">
<title>void_baby&#45;&gt;void_rookie</title>
<path fill="none" stroke="black" d="M86.36,-1685C101.73,-1685 119.99,-1685 136.76,-1685"/>
<polygon fill="black" stroke="black" points="136.57,-1688.5 146.57,-1685 136.57,-1681.5 136.57,-1688.5"/>
</g>
<!-- void_champion_entropy -->
<g id="node78" class="node">
<title>void_champion_entropy</title>
<path fill="#b0bec5" stroke="black" d="M427.88,-1757C427.88,-1757 303.12,-1757 303.12,-1757 297.12,-1757 291.12,-1751 291.12,-1745 291.12,-1745 291.12,-1733 291.12,-1733 291.12,-1727 297.12,-1721 303.12,-1721 303.12,-1721 427.88,-1721 427.88,-1721 433.88,-1721 439.88,-1727 439.88,-1733 439.88,-1733 439.88,-1745 439.88,-1745 439.88,-1751 433.88,-1757 427.88,-1757"/>
<text xml:space="preserve" text-anchor="middle" x="365.5" y="-1733.95" font-family="Times New Roman,serif" font-size="14.00">void_champion_entropy</text>
</g>
<!-- void_rookie&#45;&gt;void_champion_entropy -->
<g id="edge95" class="edge">
<title>void_rookie&#45;&gt;void_champion_entropy</title>
<path fill="none" stroke="#7e57c2" d="M230.03,-1697.39C248.97,-1703.25 272.16,-1710.42 293.91,-1717.15"/>
<polygon fill="#7e57c2" stroke="#7e57c2" points="292.75,-1720.46 303.33,-1720.07 294.81,-1713.77 292.75,-1720.46"/>
</g>
<!-- void_champion_gravity -->
<g id="node79" class="node">
<title>void_champion_gravity</title>
<path fill="#b0bec5" stroke="black" d="M426.38,-1649C426.38,-1649 304.62,-1649 304.62,-1649 298.62,-1649 292.62,-1643 292.62,-1637 292.62,-1637 292.62,-1625 292.62,-1625 292.62,-1619 298.62,-1613 304.62,-1613 304.62,-1613 426.38,-1613 426.38,-1613 432.38,-1613 438.38,-1619 438.38,-1625 438.38,-1625 438.38,-1637 438.38,-1637 438.38,-1643 432.38,-1649 426.38,-1649"/>
<text xml:space="preserve" text-anchor="middle" x="365.5" y="-1625.95" font-family="Times New Roman,serif" font-size="14.00">void_champion_gravity</text>
</g>
<!-- void_rookie&#45;&gt;void_champion_gravity -->
<g id="edge96" class="edge">
<title>void_rookie&#45;&gt;void_champion_gravity</title>
<path fill="none" stroke="#7e57c2" d="M230.03,-1672.61C248.97,-1666.75 272.16,-1659.58 293.91,-1652.85"/>
<polygon fill="#7e57c2" stroke="#7e57c2" points="294.81,-1656.23 303.33,-1649.93 292.75,-1649.54 294.81,-1656.23"/>
</g>
<!-- void_champion_null -->
<g id="node80" class="node">
<title>void_champion_null</title>
<path fill="#b0bec5" stroke="black" d="M417.75,-1703C417.75,-1703 313.25,-1703 313.25,-1703 307.25,-1703 301.25,-1697 301.25,-1691 301.25,-1691 301.25,-1679 301.25,-1679 301.25,-1673 307.25,-1667 313.25,-1667 313.25,-1667 417.75,-1667 417.75,-1667 423.75,-1667 429.75,-1673 429.75,-1679 429.75,-1679 429.75,-1691 429.75,-1691 429.75,-1697 423.75,-1703 417.75,-1703"/>
<text xml:space="preserve" text-anchor="middle" x="365.5" y="-1679.95" font-family="Times New Roman,serif" font-size="14.00">void_champion_null</text>
</g>
<!-- void_rookie&#45;&gt;void_champion_null -->
<g id="edge97" class="edge">
<title>void_rookie&#45;&gt;void_champion_null</title>
<path fill="none" stroke="#7e57c2" d="M230.03,-1685C247.78,-1685 269.25,-1685 289.78,-1685"/>
<polygon fill="#7e57c2" stroke="#7e57c2" points="289.54,-1688.5 299.54,-1685 289.54,-1681.5 289.54,-1688.5"/>
</g>
<!-- corrupt_final_glitch -->
<g id="node81" class="node">
<title>corrupt_final_glitch</title>
<path fill="lightgrey" stroke="black" d="M616,-1757C616,-1757 516,-1757 516,-1757 510,-1757 504,-1751 504,-1745 504,-1745 504,-1733 504,-1733 504,-1727 510,-1721 516,-1721 516,-1721 616,-1721 616,-1721 622,-1721 628,-1727 628,-1733 628,-1733 628,-1745 628,-1745 628,-1751 622,-1757 616,-1757"/>
<text xml:space="preserve" text-anchor="middle" x="566" y="-1733.95" font-family="Times New Roman,serif" font-size="14.00">corrupt_final_glitch</text>
</g>
<!-- void_champion_entropy&#45;&gt;corrupt_final_glitch -->
<g id="edge98" class="edge">
<title>void_champion_entropy&#45;&gt;corrupt_final_glitch</title>
<path fill="none" stroke="#7e57c2" d="M440.13,-1739C457.08,-1739 475.09,-1739 492,-1739"/>
<polygon fill="#7e57c2" stroke="#7e57c2" points="492,-1742.5 502,-1739 492,-1735.5 492,-1742.5"/>
</g>
<!-- void_final_oblivion -->
<g id="node82" class="node">
<title>void_final_oblivion</title>
<path fill="lightgrey" stroke="black" d="M615.62,-1703C615.62,-1703 516.38,-1703 516.38,-1703 510.38,-1703 504.38,-1697 504.38,-1691 504.38,-1691 504.38,-1679 504.38,-1679 504.38,-1673 510.38,-1667 516.38,-1667 516.38,-1667 615.62,-1667 615.62,-1667 621.62,-1667 627.62,-1673 627.62,-1679 627.62,-1679 627.62,-1691 627.62,-1691 627.62,-1697 621.62,-1703 615.62,-1703"/>
<text xml:space="preserve" text-anchor="middle" x="566" y="-1679.95" font-family="Times New Roman,serif" font-size="14.00">void_final_oblivion</text>
</g>
<!-- void_champion_entropy&#45;&gt;void_final_oblivion -->
<g id="edge99" class="edge">
<title>void_champion_entropy&#45;&gt;void_final_oblivion</title>
<path fill="none" stroke="#7e57c2" d="M434.26,-1720.57C453.22,-1715.41 473.9,-1709.78 493.09,-1704.56"/>
<polygon fill="#7e57c2" stroke="#7e57c2" points="494.01,-1707.94 502.74,-1701.94 492.17,-1701.18 494.01,-1707.94"/>
</g>
<!-- void_champion_gravity&#45;&gt;void_final_oblivion -->
<g id="edge101" class="edge">
<title>void_champion_gravity&#45;&gt;void_final_oblivion</title>
<path fill="none" stroke="#7e57c2" d="M434.26,-1649.43C453.22,-1654.59 473.9,-1660.22 493.09,-1665.44"/>
<polygon fill="#7e57c2" stroke="#7e57c2" points="492.17,-1668.82 502.74,-1668.06 494.01,-1662.06 492.17,-1668.82"/>
</g>
<!-- void_final_singularity -->
<g id="node83" class="node">
<title>void_final_singularity</title>
<path fill="lightgrey" stroke="black" d="M622,-1649C622,-1649 510,-1649 510,-1649 504,-1649 498,-1643 498,-1637 498,-1637 498,-1625 498,-1625 498,-1619 504,-1613 510,-1613 510,-1613 622,-1613 622,-1613 628,-1613 634,-1619 634,-1625 634,-1625 634,-1637 634,-1637 634,-1643 628,-1649 622,-1649"/>
<text xml:space="preserve" text-anchor="middle" x="566" y="-1625.95" font-family="Times New Roman,serif" font-size="14.00">void_final_singularity</text>
</g>
<!-- void_champion_gravity&#45;&gt;void_final_singularity -->
<g id="edge100" class="edge">
<title>void_champion_gravity&#45;&gt;void_final_singularity</title>
<path fill="none" stroke="#7e57c2" d="M438.72,-1631C454.25,-1631 470.72,-1631 486.47,-1631"/>
<polygon fill="#7e57c2" stroke="#7e57c2" points="486.27,-1634.5 496.27,-1631 486.27,-1627.5 486.27,-1634.5"/>
</g>
<!-- void_champion_null&#45;&gt;void_final_oblivion -->
<g id="edge102" class="edge">
<title>void_champion_null&#45;&gt;void_final_oblivion</title>
<path fill="none" stroke="#7e57c2" d="M430.13,-1685C450.03,-1685 472.14,-1685 492.6,-1685"/>
<polygon fill="#7e57c2" stroke="#7e57c2" points="492.59,-1688.5 502.59,-1685 492.59,-1681.5 492.59,-1688.5"/>
</g>
<!-- void_champion_null&#45;&gt;void_final_singularity -->
<g id="edge103" class="edge">
<title>void_champion_null&#45;&gt;void_final_singularity</title>
<path fill="none" stroke="#7e57c2" d="M430.13,-1667.69C448.14,-1662.79 467.95,-1657.4 486.72,-1652.3"/>
<polygon fill="#7e57c2" stroke="#7e57c2" points="487.44,-1655.73 496.17,-1649.73 485.6,-1648.97 487.44,-1655.73"/>
</g>
</g>
</svg>
