<?xml version="1.0" encoding="UTF-8" standalone="no"?>
<!DOCTYPE svg PUBLIC "-//W3C//DTD SVG 1.1//EN"
 "http://www.w3.org/Graphics/SVG/1.1/DTD/svg11.dtd">
<!-- Generated by graphviz version 2.43.0 (0)
 -->
<!-- Title: EvolutionTree Pages: 1 -->
<svg width="652pt" height="44pt"
 viewBox="0.00 0.00 652.00 44.00" xmlns="http://www.w3.org/2000/svg" xmlns:xlink="http://www.w3.org/1999/xlink">
<g id="graph0" class="graph" transform="scale(1 1) rotate(0) translate(4 40)">
<title>EvolutionTree</title>
<polygon fill="white" stroke="transparent" points="-4,4 -4,-40 648,-40 648,4 -4,4"/>
<!-- codeborn_baby -->
<g id="node1" class="node">
<title>codeborn_baby</title>
<path fill="#e0e0e0" stroke="black" d="M112,-36C112,-36 12,-36 12,-36 6,-36 0,-30 0,-24 0,-24 0,-12 0,-12 0,-6 6,0 12,0 12,0 112,0 112,0 118,0 124,-6 124,-12 124,-12 124,-24 124,-24 124,-30 118,-36 112,-36"/>
<text text-anchor="middle" x="62" y="-14.3" font-family="Times,serif" font-size="14.00">codeborn_baby</text>
</g>
<!-- codeborn_rookie -->
<g id="node2" class="node">
<title>codeborn_rookie</title>
<path fill="#e0e0e0" stroke="black" d="M282,-36C282,-36 172,-36 172,-36 166,-36 160,-30 160,-24 160,-24 160,-12 160,-12 160,-6 166,0 172,0 172,0 282,0 282,0 288,0 294,-6 294,-12 294,-12 294,-24 294,-24 294,-30 288,-36 282,-36"/>
<text text-anchor="middle" x="227" y="-14.3" font-family="Times,serif" font-size="14.00">codeborn_rookie</text>
</g>
<!-- codeborn_baby&#45;&gt;codeborn_rookie -->
<g id="edge1" class="edge">
<title>codeborn_baby&#45;&gt;codeborn_rookie</title>
<path fill="none" stroke="black" d="M124.16,-18C132.53,-18 141.22,-18 149.82,-18"/>
<polygon fill="black" stroke="black" points="149.86,-21.5 159.86,-18 149.86,-14.5 149.86,-21.5"/>
</g>
<!-- codeborn_champion -->
<g id="node3" class="node">
<title>codeborn_champion</title>
<path fill="#e0e0e0" stroke="black" d="M476,-36C476,-36 342,-36 342,-36 336,-36 330,-30 330,-24 330,-24 330,-12 330,-12 330,-6 336,0 342,0 342,0 476,0 476,0 482,0 488,-6 488,-12 488,-12 488,-24 488,-24 488,-30 482,-36 476,-36"/>
<text text-anchor="middle" x="409" y="-14.3" font-family="Times,serif" font-size="14.00">codeborn_champion</text>
</g>
<!-- codeborn_rookie&#45;&gt;codeborn_champion -->
<g id="edge2" class="edge">
<title>codeborn_rookie&#45;&gt;codeborn_champion</title>
<path fill="none" stroke="black" d="M294,-18C302.37,-18 311.03,-18 319.68,-18"/>
<polygon fill="black" stroke="black" points="319.79,-21.5 329.79,-18 319.79,-14.5 319.79,-21.5"/>
</g>
<!-- codeborn_final -->
<g id="node4" class="node">
<title>codeborn_final</title>
<path fill="lightgrey" stroke="black" d="M632,-36C632,-36 536,-36 536,-36 530,-36 524,-30 524,-24 524,-24 524,-12 524,-12 524,-6 530,0 536,0 536,0 632,0 632,0 638,0 644,-6 644,-12 644,-12 644,-24 644,-24 644,-30 638,-36 632,-36"/>
<text text-anchor="middle" x="584" y="-14.3" font-family="Times,serif" font-size="14.00">codeborn_final</text>
</g>
<!-- codeborn_champion&#45;&gt;codeborn_final -->
<g id="edge3" class="edge">
<title>codeborn_champion&#45;&gt;codeborn_final</title>
<path fill="none" stroke="black" d="M488.15,-18C496.68,-18 505.32,-18 513.73,-18"/>
<polygon fill="black" stroke="black" points="513.86,-21.5 523.86,-18 513.86,-14.5 513.86,-21.5"/>
</g>
</g>
</svg>
