<?xml version="1.0" encoding="UTF-8" standalone="no"?>
<!DOCTYPE svg PUBLIC "-//W3C//DTD SVG 1.1//EN"
 "http://www.w3.org/Graphics/SVG/1.1/DTD/svg11.dtd">
<!-- Generated by graphviz version 14.1.2 (20260124.0452)
 -->
<!-- Title: EvolutionTree Pages: 1 -->
<svg width="614pt" height="152pt"
 viewBox="0.00 0.00 614.00 152.00" xmlns="http://www.w3.org/2000/svg" xmlns:xlink="http://www.w3.org/1999/xlink">
<g id="graph0" class="graph" transform="scale(1 1) rotate(0) translate(4 148)">
<title>EvolutionTree</title>
<polygon fill="white" stroke="none" points="-4,4 -4,-148 609.5,-148 609.5,4 -4,4"/>
<!-- firewall_baby -->
<g id="node1" class="node">
<title>firewall_baby</title>
<path fill="#ff8a65" stroke="black" d="M79,-90C79,-90 12,-90 12,-90 6,-90 0,-84 0,-78 0,-78 0,-66 0,-66 0,-60 6,-54 12,-54 12,-54 79,-54 79,-54 85,-54 91,-60 91,-66 91,-66 91,-78 91,-78 91,-84 85,-90 79,-90"/>
<text xml:space="preserve" text-anchor="middle" x="45.5" y="-66.95" font-family="Times New Roman,serif" font-size="14.00">firewall_baby</text>
</g>
<!-- firewall_rookie -->
<g id="node2" class="node">
<title>firewall_rookie</title>
<path fill="#ff8a65" stroke="black" d="M214.25,-90C214.25,-90 139,-90 139,-90 133,-90 127,-84 127,-78 127,-78 127,-66 127,-66 127,-60 133,-54 139,-54 139,-54 214.25,-54 214.25,-54 220.25,-54 226.25,-60 226.25,-66 226.25,-66 226.25,-78 226.25,-78 226.25,-84 220.25,-90 214.25,-90"/>
<text xml:space="preserve" text-anchor="middle" x="176.62" y="-66.95" font-family="Times New Roman,serif" font-size="14.00">firewall_rookie</text>
</g>
<!-- firewall_baby&#45;&gt;firewall_rookie -->
<g id="edge1" class="edge">
<title>firewall_baby&#45;&gt;firewall_rookie</title>
<path fill="none" stroke="black" d="M91.3,-72C99.12,-72 107.37,-72 115.53,-72"/>
<polygon fill="black" stroke="black" points="115.43,-75.5 125.43,-72 115.43,-68.5 115.43,-75.5"/>
</g>
<!-- firewall_champion_barrier -->
<g id="node3" class="node">
<title>firewall_champion_barrier</title>
<path fill="#ff8a65" stroke="black" d="M414,-90C414,-90 276.5,-90 276.5,-90 270.5,-90 264.5,-84 264.5,-78 264.5,-78 264.5,-66 264.5,-66 264.5,-60 270.5,-54 276.5,-54 276.5,-54 414,-54 414,-54 420,-54 426,-60 426,-66 426,-66 426,-78 426,-78 426,-84 420,-90 414,-90"/>
<text xml:space="preserve" text-anchor="middle" x="345.25" y="-66.95" font-family="Times New Roman,serif" font-size="14.00">firewall_champion_barrier</text>
</g>
<!-- firewall_rookie&#45;&gt;firewall_champion_barrier -->
<g id="edge2" class="edge">
<title>firewall_rookie&#45;&gt;firewall_champion_barrier</title>
<path fill="none" stroke="#7e57c2" d="M226.72,-72C235.02,-72 243.87,-72 252.85,-72"/>
<polygon fill="#7e57c2" stroke="#7e57c2" points="252.74,-75.5 262.74,-72 252.74,-68.5 252.74,-75.5"/>
</g>
<!-- firewall_champion_counter -->
<g id="node4" class="node">
<title>firewall_champion_counter</title>
<path fill="#ff8a65" stroke="black" d="M416.25,-36C416.25,-36 274.25,-36 274.25,-36 268.25,-36 262.25,-30 262.25,-24 262.25,-24 262.25,-12 262.25,-12 262.25,-6 268.25,0 274.25,0 274.25,0 416.25,0 416.25,0 422.25,0 428.25,-6 428.25,-12 428.25,-12 428.25,-24 428.25,-24 428.25,-30 422.25,-36 416.25,-36"/>
<text xml:space="preserve" text-anchor="middle" x="345.25" y="-12.95" font-family="Times New Roman,serif" font-size="14.00">firewall_champion_counter</text>
</g>
<!-- firewall_rookie&#45;&gt;firewall_champion_counter -->
<g id="edge3" class="edge">
<title>firewall_rookie&#45;&gt;firewall_champion_counter</title>
<path fill="none" stroke="#7e57c2" d="M226.72,-56.09C242.31,-51.04 259.84,-45.36 276.5,-39.96"/>
<polygon fill="#7e57c2" stroke="#7e57c2" points="277.43,-43.34 285.86,-36.92 275.27,-36.68 277.43,-43.34"/>
</g>
<!-- firewall_champion_patch -->
<g id="node5" class="node">
<title>firewall_champion_patch</title>
<path fill="#ff8a65" stroke="black" d="M410.62,-144C410.62,-144 279.88,-144 279.88,-144 273.88,-144 267.88,-138 267.88,-132 267.88,-132 267.88,-120 267.88,-120 267.88,-114 273.88,-108 279.88,-108 279.88,-108 410.62,-108 410.62,-108 416.62,-108 422.62,-114 422.62,-120 422.62,-120 422.62,-132 422.62,-132 422.62,-138 416.62,-144 410.62,-144"/>
<text xml:space="preserve" text-anchor="middle" x="345.25" y="-120.95" font-family="Times New Roman,serif" font-size="14.00">firewall_champion_patch</text>
</g>
<!-- firewall_rookie&#45;&gt;firewall_champion_patch -->
<g id="edge4" class="edge">
<title>firewall_rookie&#45;&gt;firewall_champion_patch</title>
<path fill="none" stroke="#7e57c2" d="M226.72,-87.91C242.31,-92.96 259.84,-98.64 276.5,-104.04"/>
<polygon fill="#7e57c2" stroke="#7e57c2" points="275.27,-107.32 285.86,-107.08 277.43,-100.66 275.27,-107.32"/>
</g>
<!-- firewall_final_fortress -->
<g id="node6" class="node">
<title>firewall_final_fortress</title>
<path fill="lightgrey" stroke="black" d="M591.25,-144C591.25,-144 478.5,-144 478.5,-144 472.5,-144 466.5,-138 466.5,-132 466.5,-132 466.5,-120 466.5,-120 466.5,-114 472.5,-108 478.5,-108 478.5,-108 591.25,-108 591.25,-108 597.25,-108 603.25,-114 603.25,-120 603.25,-120 603.25,-132 603.25,-132 603.25,-138 597.25,-144 591.25,-144"/>
<text xml:space="preserve" text-anchor="middle" x="534.88" y="-120.95" font-family="Times New Roman,serif" font-size="14.00">firewall_final_fortress</text>
</g>
<!-- firewall_champion_barrier&#45;&gt;firewall_final_fortress -->
<g id="edge5" class="edge">
<title>firewall_champion_barrier&#45;&gt;firewall_final_fortress</title>
<path fill="none" stroke="#7e57c2" d="M410.3,-90.43C425.91,-94.93 442.75,-99.77 458.82,-104.4"/>
<polygon fill="#7e57c2" stroke="#7e57c2" points="457.77,-107.74 468.35,-107.14 459.7,-101.01 457.77,-107.74"/>
</g>
<!-- firewall_final_protocol -->
<g id="node7" class="node">
<title>firewall_final_protocol</title>
<path fill="lightgrey" stroke="black" d="M593.5,-90C593.5,-90 476.25,-90 476.25,-90 470.25,-90 464.25,-84 464.25,-78 464.25,-78 464.25,-66 464.25,-66 464.25,-60 470.25,-54 476.25,-54 476.25,-54 593.5,-54 593.5,-54 599.5,-54 605.5,-60 605.5,-66 605.5,-66 605.5,-78 605.5,-78 605.5,-84 599.5,-90 593.5,-90"/>
<text xml:space="preserve" text-anchor="middle" x="534.88" y="-66.95" font-family="Times New Roman,serif" font-size="14.00">firewall_final_protocol</text>
</g>
<!-- firewall_champion_barrier&#45;&gt;firewall_final_protocol -->
<g id="edge6" class="edge">
<title>firewall_champion_barrier&#45;&gt;firewall_final_protocol</title>
<path fill="none" stroke="#7e57c2" d="M426.36,-72C435.02,-72 443.84,-72 452.51,-72"/>
<polygon fill="#7e57c2" stroke="#7e57c2" points="452.29,-75.5 462.29,-72 452.29,-68.5 452.29,-75.5"/>
</g>
<!-- firewall_champion_counter&#45;&gt;firewall_final_protocol -->
<g id="edge8" class="edge">
<title>firewall_champion_counter&#45;&gt;firewall_final_protocol</title>
<path fill="none" stroke="#7e57c2" d="M410.3,-36.43C425.91,-40.93 442.75,-45.77 458.82,-50.4"/>
<polygon fill="#7e57c2" stroke="#7e57c2" points="457.77,-53.74 468.35,-53.14 459.7,-47.01 457.77,-53.74"/>
</g>
<!-- firewall_final_retaliate -->
<g id="node8" class="node">
<title>firewall_final_retaliate</title>
<path fill="lightgrey" stroke="black" d="M592.75,-36C592.75,-36 477,-36 477,-36 471,-36 465,-30 465,-24 465,-24 465,-12 465,-12 465,-6 471,0 477,0 477,0 592.75,0 592.75,0 598.75,0 604.75,-6 604.75,-12 604.75,-12 604.75,-24 604.75,-24 604.75,-30 598.75,-36 592.75,-36"/>
<text xml:space="preserve" text-anchor="middle" x="534.88" y="-12.95" font-family="Times New Roman,serif" font-size="14.00">firewall_final_retaliate</text>
</g>
<!-- firewall_champion_counter&#45;&gt;firewall_final_retaliate -->
<g id="edge7" class="edge">
<title>firewall_champion_counter&#45;&gt;firewall_final_retaliate</title>
<path fill="none" stroke="#7e57c2" d="M428.55,-18C436.71,-18 444.99,-18 453.14,-18"/>
<polygon fill="#7e57c2" stroke="#7e57c2" points="453.03,-21.5 463.03,-18 453.03,-14.5 453.03,-21.5"/>
</g>
<!-- firewall_champion_patch&#45;&gt;firewall_final_fortress -->
<g id="edge10" class="edge">
<title>firewall_champion_patch&#45;&gt;firewall_final_fortress</title>
<path fill="none" stroke="#7e57c2" d="M423.11,-126C433.58,-126 444.36,-126 454.87,-126"/>
<polygon fill="#7e57c2" stroke="#7e57c2" points="454.64,-129.5 464.64,-126 454.64,-122.5 454.64,-129.5"/>
</g>
<!-- firewall_champion_patch&#45;&gt;firewall_final_protocol -->
<g id="edge9" class="edge">
<title>firewall_champion_patch&#45;&gt;firewall_final_protocol</title>
<path fill="none" stroke="#7e57c2" d="M410.3,-107.57C425.91,-103.07 442.75,-98.23 458.82,-93.6"/>
<polygon fill="#7e57c2" stroke="#7e57c2" points="459.7,-96.99 468.35,-90.86 457.77,-90.26 459.7,-96.99"/>
</g>
</g>
</svg>
