<?xml version="1.0" encoding="UTF-8" standalone="no"?>
<!DOCTYPE svg PUBLIC "-//W3C//DTD SVG 1.1//EN"
 "http://www.w3.org/Graphics/SVG/1.1/DTD/svg11.dtd">
<!-- Generated by graphviz version 2.43.0 (0)
 -->
<!-- Title: EvolutionTree Pages: 1 -->
<svg width="730pt" height="152pt"
 viewBox="0.00 0.00 730.00 152.00" xmlns="http://www.w3.org/2000/svg" xmlns:xlink="http://www.w3.org/1999/xlink">
<g id="graph0" class="graph" transform="scale(1 1) rotate(0) translate(4 148)">
<title>EvolutionTree</title>
<polygon fill="white" stroke="transparent" points="-4,4 -4,-148 726,-148 726,4 -4,4"/>
<!-- firewall_baby -->
<g id="node1" class="node">
<title>firewall_baby</title>
<path fill="#ff8a65" stroke="black" d="M99,-90C99,-90 12,-90 12,-90 6,-90 0,-84 0,-78 0,-78 0,-66 0,-66 0,-60 6,-54 12,-54 12,-54 99,-54 99,-54 105,-54 111,-60 111,-66 111,-66 111,-78 111,-78 111,-84 105,-90 99,-90"/>
<text text-anchor="middle" x="55.5" y="-68.3" font-family="Times,serif" font-size="14.00">firewall_baby</text>
</g>
<!-- firewall_rookie -->
<g id="node2" class="node">
<title>firewall_rookie</title>
<path fill="#ff8a65" stroke="black" d="M256,-90C256,-90 159,-90 159,-90 153,-90 147,-84 147,-78 147,-78 147,-66 147,-66 147,-60 153,-54 159,-54 159,-54 256,-54 256,-54 262,-54 268,-60 268,-66 268,-66 268,-78 268,-78 268,-84 262,-90 256,-90"/>
<text text-anchor="middle" x="207.5" y="-68.3" font-family="Times,serif" font-size="14.00">firewall_rookie</text>
</g>
<!-- firewall_baby&#45;&gt;firewall_rookie -->
<g id="edge1" class="edge">
<title>firewall_baby&#45;&gt;firewall_rookie</title>
<path fill="none" stroke="black" d="M111.08,-72C119.45,-72 128.18,-72 136.82,-72"/>
<polygon fill="black" stroke="black" points="136.9,-75.5 146.9,-72 136.9,-68.5 136.9,-75.5"/>
</g>
<!-- firewall_champion_barrier -->
<g id="node3" class="node">
<title>firewall_champion_barrier</title>
<path fill="#ff8a65" stroke="black" d="M497,-90C497,-90 318,-90 318,-90 312,-90 306,-84 306,-78 306,-78 306,-66 306,-66 306,-60 312,-54 318,-54 318,-54 497,-54 497,-54 503,-54 509,-60 509,-66 509,-66 509,-78 509,-78 509,-84 503,-90 497,-90"/>
<text text-anchor="middle" x="407.5" y="-68.3" font-family="Times,serif" font-size="14.00">firewall_champion_barrier</text>
</g>
<!-- firewall_rookie&#45;&gt;firewall_champion_barrier -->
<g id="edge2" class="edge">
<title>firewall_rookie&#45;&gt;firewall_champion_barrier</title>
<path fill="none" stroke="#7e57c2" d="M268.18,-72C276.96,-72 286.23,-72 295.65,-72"/>
<polygon fill="#7e57c2" stroke="#7e57c2" points="295.91,-75.5 305.91,-72 295.91,-68.5 295.91,-75.5"/>
</g>
<!-- firewall_champion_counter -->
<g id="node4" class="node">
<title>firewall_champion_counter</title>
<path fill="#ff8a65" stroke="black" d="M499,-36C499,-36 316,-36 316,-36 310,-36 304,-30 304,-24 304,-24 304,-12 304,-12 304,-6 310,0 316,0 316,0 499,0 499,0 505,0 511,-6 511,-12 511,-12 511,-24 511,-24 511,-30 505,-36 499,-36"/>
<text text-anchor="middle" x="407.5" y="-14.3" font-family="Times,serif" font-size="14.00">firewall_champion_counter</text>
</g>
<!-- firewall_rookie&#45;&gt;firewall_champion_counter -->
<g id="edge3" class="edge">
<title>firewall_rookie&#45;&gt;firewall_champion_counter</title>
<path fill="none" stroke="#7e57c2" d="M268.06,-54.98C279.95,-51.64 292.37,-48.18 304,-45 311.64,-42.92 319.6,-40.77 327.56,-38.64"/>
<polygon fill="#7e57c2" stroke="#7e57c2" points="328.5,-42.01 337.26,-36.06 326.7,-35.25 328.5,-42.01"/>
</g>
<!-- firewall_champion_patch -->
<g id="node5" class="node">
<title>firewall_champion_patch</title>
<path fill="#ff8a65" stroke="black" d="M491.5,-144C491.5,-144 323.5,-144 323.5,-144 317.5,-144 311.5,-138 311.5,-132 311.5,-132 311.5,-120 311.5,-120 311.5,-114 317.5,-108 323.5,-108 323.5,-108 491.5,-108 491.5,-108 497.5,-108 503.5,-114 503.5,-120 503.5,-120 503.5,-132 503.5,-132 503.5,-138 497.5,-144 491.5,-144"/>
<text text-anchor="middle" x="407.5" y="-122.3" font-family="Times,serif" font-size="14.00">firewall_champion_patch</text>
</g>
<!-- firewall_rookie&#45;&gt;firewall_champion_patch -->
<g id="edge4" class="edge">
<title>firewall_rookie&#45;&gt;firewall_champion_patch</title>
<path fill="none" stroke="#7e57c2" d="M268.06,-89.02C279.95,-92.36 292.37,-95.82 304,-99 311.64,-101.08 319.6,-103.23 327.56,-105.36"/>
<polygon fill="#7e57c2" stroke="#7e57c2" points="326.7,-108.75 337.26,-107.94 328.5,-101.99 326.7,-108.75"/>
</g>
<!-- firewall_final_fortress -->
<g id="node6" class="node">
<title>firewall_final_fortress</title>
<path fill="lightgrey" stroke="black" d="M707.5,-144C707.5,-144 561.5,-144 561.5,-144 555.5,-144 549.5,-138 549.5,-132 549.5,-132 549.5,-120 549.5,-120 549.5,-114 555.5,-108 561.5,-108 561.5,-108 707.5,-108 707.5,-108 713.5,-108 719.5,-114 719.5,-120 719.5,-120 719.5,-132 719.5,-132 719.5,-138 713.5,-144 707.5,-144"/>
<text text-anchor="middle" x="634.5" y="-122.3" font-family="Times,serif" font-size="14.00">firewall_final_fortress</text>
</g>
<!-- firewall_champion_barrier&#45;&gt;firewall_final_fortress -->
<g id="edge5" class="edge">
<title>firewall_champion_barrier&#45;&gt;firewall_final_fortress</title>
<path fill="none" stroke="#7e57c2" d="M483.73,-90.06C504.47,-95.03 527.11,-100.47 548.36,-105.57"/>
<polygon fill="#7e57c2" stroke="#7e57c2" points="547.8,-109.03 558.34,-107.96 549.43,-102.22 547.8,-109.03"/>
</g>
<!-- firewall_final_protocol -->
<g id="node7" class="node">
<title>firewall_final_protocol</title>
<path fill="lightgrey" stroke="black" d="M709,-90C709,-90 560,-90 560,-90 554,-90 548,-84 548,-78 548,-78 548,-66 548,-66 548,-60 554,-54 560,-54 560,-54 709,-54 709,-54 715,-54 721,-60 721,-66 721,-66 721,-78 721,-78 721,-84 715,-90 709,-90"/>
<text text-anchor="middle" x="634.5" y="-68.3" font-family="Times,serif" font-size="14.00">firewall_final_protocol</text>
</g>
<!-- firewall_champion_barrier&#45;&gt;firewall_final_protocol -->
<g id="edge6" class="edge">
<title>firewall_champion_barrier&#45;&gt;firewall_final_protocol</title>
<path fill="none" stroke="#7e57c2" d="M509.15,-72C518.61,-72 528.17,-72 537.58,-72"/>
<polygon fill="#7e57c2" stroke="#7e57c2" points="537.71,-75.5 547.71,-72 537.71,-68.5 537.71,-75.5"/>
</g>
<!-- firewall_champion_counter&#45;&gt;firewall_final_protocol -->
<g id="edge8" class="edge">
<title>firewall_champion_counter&#45;&gt;firewall_final_protocol</title>
<path fill="none" stroke="#7e57c2" d="M483.73,-36.06C504.47,-41.03 527.11,-46.47 548.36,-51.57"/>
<polygon fill="#7e57c2" stroke="#7e57c2" points="547.8,-55.03 558.34,-53.96 549.43,-48.22 547.8,-55.03"/>
</g>
<!-- firewall_final_retaliate -->
<g id="node8" class="node">
<title>firewall_final_retaliate</title>
<path fill="lightgrey" stroke="black" d="M710,-36C710,-36 559,-36 559,-36 553,-36 547,-30 547,-24 547,-24 547,-12 547,-12 547,-6 553,0 559,0 559,0 710,0 710,0 716,0 722,-6 722,-12 722,-12 722,-24 722,-24 722,-30 716,-36 710,-36"/>
<text text-anchor="middle" x="634.5" y="-14.3" font-family="Times,serif" font-size="14.00">firewall_final_retaliate</text>
</g>
<!-- firewall_champion_counter&#45;&gt;firewall_final_retaliate -->
<g id="edge7" class="edge">
<title>firewall_champion_counter&#45;&gt;firewall_final_retaliate</title>
<path fill="none" stroke="#7e57c2" d="M511.12,-18C519.61,-18 528.17,-18 536.62,-18"/>
<polygon fill="#7e57c2" stroke="#7e57c2" points="536.84,-21.5 546.84,-18 536.84,-14.5 536.84,-21.5"/>
</g>
<!-- firewall_champion_patch&#45;&gt;firewall_final_fortress -->
<g id="edge10" class="edge">
<title>firewall_champion_patch&#45;&gt;firewall_final_fortress</title>
<path fill="none" stroke="#7e57c2" d="M503.59,-126C515.38,-126 527.42,-126 539.19,-126"/>
<polygon fill="#7e57c2" stroke="#7e57c2" points="539.45,-129.5 549.45,-126 539.45,-122.5 539.45,-129.5"/>
</g>
<!-- firewall_champion_patch&#45;&gt;firewall_final_protocol -->
<g id="edge9" class="edge">
<title>firewall_champion_patch&#45;&gt;firewall_final_protocol</title>
<path fill="none" stroke="#7e57c2" d="M483.73,-107.94C504.47,-102.97 527.11,-97.53 548.36,-92.43"/>
<polygon fill="#7e57c2" stroke="#7e57c2" points="549.43,-95.78 558.34,-90.04 547.8,-88.97 549.43,-95.78"/>
</g>
</g>
</svg>
