<?xml version="1.0" encoding="UTF-8" standalone="no"?>
<!DOCTYPE svg PUBLIC "-//W3C//DTD SVG 1.1//EN"
 "http://www.w3.org/Graphics/SVG/1.1/DTD/svg11.dtd">
<!-- Generated by graphviz version 2.43.0 (0)
 -->
<!-- Title: EvolutionTree Pages: 1 -->
<svg width="725pt" height="152pt"
 viewBox="0.00 0.00 725.00 152.00" xmlns="http://www.w3.org/2000/svg" xmlns:xlink="http://www.w3.org/1999/xlink">
<g id="graph0" class="graph" transform="scale(1 1) rotate(0) translate(4 148)">
<title>EvolutionTree</title>
<polygon fill="white" stroke="transparent" points="-4,4 -4,-148 721,-148 721,4 -4,4"/>
<!-- dream_baby -->
<g id="node1" class="node">
<title>dream_baby</title>
<path fill="#9575cd" stroke="black" d="M92,-90C92,-90 12,-90 12,-90 6,-90 0,-84 0,-78 0,-78 0,-66 0,-66 0,-60 6,-54 12,-54 12,-54 92,-54 92,-54 98,-54 104,-60 104,-66 104,-66 104,-78 104,-78 104,-84 98,-90 92,-90"/>
<text text-anchor="middle" x="52" y="-68.3" font-family="Times,serif" font-size="14.00">dream_baby</text>
</g>
<!-- dream_rookie -->
<g id="node2" class="node">
<title>dream_rookie</title>
<path fill="#9575cd" stroke="black" d="M241,-90C241,-90 152,-90 152,-90 146,-90 140,-84 140,-78 140,-78 140,-66 140,-66 140,-60 146,-54 152,-54 152,-54 241,-54 241,-54 247,-54 253,-60 253,-66 253,-66 253,-78 253,-78 253,-84 247,-90 241,-90"/>
<text text-anchor="middle" x="196.5" y="-68.3" font-family="Times,serif" font-size="14.00">dream_rookie</text>
</g>
<!-- dream_baby&#45;&gt;dream_rookie -->
<g id="edge1" class="edge">
<title>dream_baby&#45;&gt;dream_rookie</title>
<path fill="none" stroke="black" d="M104.04,-72C112.42,-72 121.21,-72 129.89,-72"/>
<polygon fill="black" stroke="black" points="129.99,-75.5 139.99,-72 129.99,-68.5 129.99,-75.5"/>
</g>
<!-- dream_champion_lucid -->
<g id="node3" class="node">
<title>dream_champion_lucid</title>
<path fill="#9575cd" stroke="black" d="M476,-144C476,-144 321,-144 321,-144 315,-144 309,-138 309,-132 309,-132 309,-120 309,-120 309,-114 315,-108 321,-108 321,-108 476,-108 476,-108 482,-108 488,-114 488,-120 488,-120 488,-132 488,-132 488,-138 482,-144 476,-144"/>
<text text-anchor="middle" x="398.5" y="-122.3" font-family="Times,serif" font-size="14.00">dream_champion_lucid</text>
</g>
<!-- dream_rookie&#45;&gt;dream_champion_lucid -->
<g id="edge2" class="edge">
<title>dream_rookie&#45;&gt;dream_champion_lucid</title>
<path fill="none" stroke="#7e57c2" d="M253.04,-88.8C264.88,-92.27 277.33,-95.83 289,-99 296.94,-101.16 305.23,-103.34 313.53,-105.49"/>
<polygon fill="#7e57c2" stroke="#7e57c2" points="312.71,-108.89 323.27,-107.98 314.45,-102.11 312.71,-108.89"/>
</g>
<!-- dream_champion_nightmare -->
<g id="node4" class="node">
<title>dream_champion_nightmare</title>
<path fill="#9575cd" stroke="black" d="M496,-90C496,-90 301,-90 301,-90 295,-90 289,-84 289,-78 289,-78 289,-66 289,-66 289,-60 295,-54 301,-54 301,-54 496,-54 496,-54 502,-54 508,-60 508,-66 508,-66 508,-78 508,-78 508,-84 502,-90 496,-90"/>
<text text-anchor="middle" x="398.5" y="-68.3" font-family="Times,serif" font-size="14.00">dream_champion_nightmare</text>
</g>
<!-- dream_rookie&#45;&gt;dream_champion_nightmare -->
<g id="edge3" class="edge">
<title>dream_rookie&#45;&gt;dream_champion_nightmare</title>
<path fill="none" stroke="#7e57c2" d="M253.21,-72C261.36,-72 269.99,-72 278.83,-72"/>
<polygon fill="#7e57c2" stroke="#7e57c2" points="278.88,-75.5 288.88,-72 278.88,-68.5 278.88,-75.5"/>
</g>
<!-- dream_champion_whimsy -->
<g id="node5" class="node">
<title>dream_champion_whimsy</title>
<path fill="#9575cd" stroke="black" d="M486.5,-36C486.5,-36 310.5,-36 310.5,-36 304.5,-36 298.5,-30 298.5,-24 298.5,-24 298.5,-12 298.5,-12 298.5,-6 304.5,0 310.5,0 310.5,0 486.5,0 486.5,0 492.5,0 498.5,-6 498.5,-12 498.5,-12 498.5,-24 498.5,-24 498.5,-30 492.5,-36 486.5,-36"/>
<text text-anchor="middle" x="398.5" y="-14.3" font-family="Times,serif" font-size="14.00">dream_champion_whimsy</text>
</g>
<!-- dream_rookie&#45;&gt;dream_champion_whimsy -->
<g id="edge4" class="edge">
<title>dream_rookie&#45;&gt;dream_champion_whimsy</title>
<path fill="none" stroke="#7e57c2" d="M253.04,-55.2C264.88,-51.73 277.33,-48.17 289,-45 296.94,-42.84 305.23,-40.66 313.53,-38.51"/>
<polygon fill="#7e57c2" stroke="#7e57c2" points="314.45,-41.89 323.27,-36.02 312.71,-35.11 314.45,-41.89"/>
</g>
<!-- dream_final_ascended -->
<g id="node6" class="node">
<title>dream_final_ascended</title>
<path fill="lightgrey" stroke="black" d="M705,-117C705,-117 556,-117 556,-117 550,-117 544,-111 544,-105 544,-105 544,-93 544,-93 544,-87 550,-81 556,-81 556,-81 705,-81 705,-81 711,-81 717,-87 717,-93 717,-93 717,-105 717,-105 717,-111 711,-117 705,-117"/>
<text text-anchor="middle" x="630.5" y="-95.3" font-family="Times,serif" font-size="14.00">dream_final_ascended</text>
</g>
<!-- dream_champion_lucid&#45;&gt;dream_final_ascended -->
<g id="edge5" class="edge">
<title>dream_champion_lucid&#45;&gt;dream_final_ascended</title>
<path fill="none" stroke="#7e57c2" d="M488.1,-115.6C503,-113.85 518.54,-112.03 533.62,-110.26"/>
<polygon fill="#7e57c2" stroke="#7e57c2" points="534.45,-113.68 543.98,-109.04 533.64,-106.73 534.45,-113.68"/>
</g>
<!-- dream_final_chaos -->
<g id="node7" class="node">
<title>dream_final_chaos</title>
<path fill="lightgrey" stroke="black" d="M692,-63C692,-63 569,-63 569,-63 563,-63 557,-57 557,-51 557,-51 557,-39 557,-39 557,-33 563,-27 569,-27 569,-27 692,-27 692,-27 698,-27 704,-33 704,-39 704,-39 704,-51 704,-51 704,-57 698,-63 692,-63"/>
<text text-anchor="middle" x="630.5" y="-41.3" font-family="Times,serif" font-size="14.00">dream_final_chaos</text>
</g>
<!-- dream_champion_lucid&#45;&gt;dream_final_chaos -->
<g id="edge6" class="edge">
<title>dream_champion_lucid&#45;&gt;dream_final_chaos</title>
<path fill="none" stroke="#7e57c2" d="M485.62,-107.99C493.33,-105.36 500.9,-102.37 508,-99 526.06,-90.41 526.21,-81.14 544,-72 547.48,-70.21 551.11,-68.51 554.81,-66.9"/>
<polygon fill="#7e57c2" stroke="#7e57c2" points="556.21,-70.11 564.15,-63.09 553.57,-63.63 556.21,-70.11"/>
</g>
<!-- dream_champion_nightmare&#45;&gt;dream_final_ascended -->
<g id="edge8" class="edge">
<title>dream_champion_nightmare&#45;&gt;dream_final_ascended</title>
<path fill="none" stroke="#7e57c2" d="M508.1,-84.75C516.62,-85.75 525.18,-86.75 533.61,-87.74"/>
<polygon fill="#7e57c2" stroke="#7e57c2" points="533.46,-91.25 543.8,-88.94 534.27,-84.3 533.46,-91.25"/>
</g>
<!-- dream_champion_nightmare&#45;&gt;dream_final_chaos -->
<g id="edge7" class="edge">
<title>dream_champion_nightmare&#45;&gt;dream_final_chaos</title>
<path fill="none" stroke="#7e57c2" d="M508.1,-59.25C521.13,-57.72 534.28,-56.18 546.86,-54.7"/>
<polygon fill="#7e57c2" stroke="#7e57c2" points="547.29,-58.18 556.81,-53.53 546.47,-51.22 547.29,-58.18"/>
</g>
<!-- dream_champion_whimsy&#45;&gt;dream_final_ascended -->
<g id="edge9" class="edge">
<title>dream_champion_whimsy&#45;&gt;dream_final_ascended</title>
<path fill="none" stroke="#7e57c2" d="M485.62,-36.01C493.33,-38.64 500.9,-41.63 508,-45 526.06,-53.59 526.21,-62.86 544,-72 547.48,-73.79 551.11,-75.49 554.81,-77.1"/>
<polygon fill="#7e57c2" stroke="#7e57c2" points="553.57,-80.37 564.15,-80.91 556.21,-73.89 553.57,-80.37"/>
</g>
<!-- dream_champion_whimsy&#45;&gt;dream_final_chaos -->
<g id="edge10" class="edge">
<title>dream_champion_whimsy&#45;&gt;dream_final_chaos</title>
<path fill="none" stroke="#7e57c2" d="M498.71,-29.65C514.77,-31.53 531.24,-33.47 546.85,-35.3"/>
<polygon fill="#7e57c2" stroke="#7e57c2" points="546.63,-38.8 556.97,-36.49 547.45,-31.84 546.63,-38.8"/>
</g>
</g>
</svg>
