<?xml version="1.0" encoding="UTF-8" standalone="no"?>
<!DOCTYPE svg PUBLIC "-//W3C//DTD SVG 1.1//EN"
 "http://www.w3.org/Graphics/SVG/1.1/DTD/svg11.dtd">
<!-- Generated by graphviz version 14.1.2 (20260124.0452)
 -->
<!-- Title: EvolutionTree Pages: 1 -->
<svg width="603pt" height="152pt"
 viewBox="0.00 0.00 603.00 152.00" xmlns="http://www.w3.org/2000/svg" xmlns:xlink="http://www.w3.org/1999/xlink">
<g id="graph0" class="graph" transform="scale(1 1) rotate(0) translate(4 148)">
<title>EvolutionTree</title>
<polygon fill="white" stroke="none" points="-4,4 -4,-148 599,-148 599,4 -4,4"/>
<!-- dream_baby -->
<g id="node1" class="node">
<title>dream_baby</title>
<path fill="#9575cd" stroke="black" d="M71.5,-90C71.5,-90 12,-90 12,-90 6,-90 0,-84 0,-78 0,-78 0,-66 0,-66 0,-60 6,-54 12,-54 12,-54 71.5,-54 71.5,-54 77.5,-54 83.5,-60 83.5,-66 83.5,-66 83.5,-78 83.5,-78 83.5,-84 77.5,-90 71.5,-90"/>
<text xml:space="preserve" text-anchor="middle" x="41.75" y="-66.95" font-family="Times New Roman,serif" font-size="14.00">dream_baby</text>
</g>
<!-- dream_rookie -->
<g id="node2" class="node">
<title>dream_rookie</title>
<path fill="#9575cd" stroke="black" d="M199.25,-90C199.25,-90 131.5,-90 131.5,-90 125.5,-90 119.5,-84 119.5,-78 119.5,-78 119.5,-66 119.5,-66 119.5,-60 125.5,-54 131.5,-54 131.5,-54 199.25,-54 199.25,-54 205.25,-54 211.25,-60 211.25,-66 211.25,-66 211.25,-78 211.25,-78 211.25,-84 205.25,-90 199.25,-90"/>
<text xml:space="preserve" text-anchor="middle" x="165.38" y="-66.95" font-family="Times New Roman,serif" font-size="14.00">dream_rookie</text>
</g>
<!-- dream_baby&#45;&gt;dream_rookie -->
<g id="edge1" class="edge">
<title>dream_baby&#45;&gt;dream_rookie</title>
<path fill="none" stroke="black" d="M83.93,-72C91.61,-72 99.76,-72 107.81,-72"/>
<polygon fill="black" stroke="black" points="107.55,-75.5 117.55,-72 107.55,-68.5 107.55,-75.5"/>
</g>
<!-- dream_champion_lucid -->
<g id="node3" class="node">
<title>dream_champion_lucid</title>
<path fill="#9575cd" stroke="black" d="M394.5,-144C394.5,-144 273.5,-144 273.5,-144 267.5,-144 261.5,-138 261.5,-132 261.5,-132 261.5,-120 261.5,-120 261.5,-114 267.5,-108 273.5,-108 273.5,-108 394.5,-108 394.5,-108 400.5,-108 406.5,-114 406.5,-120 406.5,-120 406.5,-132 406.5,-132 406.5,-138 400.5,-144 394.5,-144"/>
<text xml:space="preserve" text-anchor="middle" x="334" y="-120.95" font-family="Times New Roman,serif" font-size="14.00">dream_champion_lucid</text>
</g>
<!-- dream_rookie&#45;&gt;dream_champion_lucid -->
<g id="edge2" class="edge">
<title>dream_rookie&#45;&gt;dream_champion_lucid</title>
<path fill="none" stroke="#7e57c2" d="M211.67,-87.27C223.26,-91.14 235.7,-95.26 247.25,-99 252.36,-100.66 257.65,-102.36 262.98,-104.06"/>
<polygon fill="#7e57c2" stroke="#7e57c2" points="261.88,-107.38 272.47,-107.08 264,-100.71 261.88,-107.38"/>
</g>
<!-- dream_champion_nightmare -->
<g id="node4" class="node">
<title>dream_champion_nightmare</title>
<path fill="#9575cd" stroke="black" d="M408.75,-90C408.75,-90 259.25,-90 259.25,-90 253.25,-90 247.25,-84 247.25,-78 247.25,-78 247.25,-66 247.25,-66 247.25,-60 253.25,-54 259.25,-54 259.25,-54 408.75,-54 408.75,-54 414.75,-54 420.75,-60 420.75,-66 420.75,-66 420.75,-78 420.75,-78 420.75,-84 414.75,-90 408.75,-90"/>
<text xml:space="preserve" text-anchor="middle" x="334" y="-66.95" font-family="Times New Roman,serif" font-size="14.00">dream_champion_nightmare</text>
</g>
<!-- dream_rookie&#45;&gt;dream_champion_nightmare -->
<g id="edge3" class="edge">
<title>dream_rookie&#45;&gt;dream_champion_nightmare</title>
<path fill="none" stroke="#7e57c2" d="M211.47,-72C219.02,-72 227.11,-72 235.39,-72"/>
<polygon fill="#7e57c2" stroke="#7e57c2" points="235.26,-75.5 245.26,-72 235.26,-68.5 235.26,-75.5"/>
</g>
<!-- dream_champion_whimsy -->
<g id="node5" class="node">
<title>dream_champion_whimsy</title>
<path fill="#9575cd" stroke="black" d="M402.75,-36C402.75,-36 265.25,-36 265.25,-36 259.25,-36 253.25,-30 253.25,-24 253.25,-24 253.25,-12 253.25,-12 253.25,-6 259.25,0 265.25,0 265.25,0 402.75,0 402.75,0 408.75,0 414.75,-6 414.75,-12 414.75,-12 414.75,-24 414.75,-24 414.75,-30 408.75,-36 402.75,-36"/>
<text xml:space="preserve" text-anchor="middle" x="334" y="-12.95" font-family="Times New Roman,serif" font-size="14.00">dream_champion_whimsy</text>
</g>
<!-- dream_rookie&#45;&gt;dream_champion_whimsy -->
<g id="edge4" class="edge">
<title>dream_rookie&#45;&gt;dream_champion_whimsy</title>
<path fill="none" stroke="#7e57c2" d="M211.67,-56.73C223.26,-52.86 235.7,-48.74 247.25,-45 252.36,-43.34 257.65,-41.64 262.98,-39.94"/>
<polygon fill="#7e57c2" stroke="#7e57c2" points="264,-43.29 272.47,-36.92 261.88,-36.62 264,-43.29"/>
</g>
<!-- dream_final_ascended -->
<g id="node6" class="node">
<title>dream_final_ascended</title>
<path fill="lightgrey" stroke="black" d="M583,-117C583,-117 468.75,-117 468.75,-117 462.75,-117 456.75,-111 456.75,-105 456.75,-105 456.75,-93 456.75,-93 456.75,-87 462.75,-81 468.75,-81 468.75,-81 583,-81 583,-81 589,-81 595,-87 595,-93 595,-93 595,-105 595,-105 595,-111 589,-117 583,-117"/>
<text xml:space="preserve" text-anchor="middle" x="525.88" y="-93.95" font-family="Times New Roman,serif" font-size="14.00">dream_final_ascended</text>
</g>
<!-- dream_champion_lucid&#45;&gt;dream_final_ascended -->
<g id="edge5" class="edge">
<title>dream_champion_lucid&#45;&gt;dream_final_ascended</title>
<path fill="none" stroke="#7e57c2" d="M406.78,-115.79C419.37,-114 432.54,-112.13 445.33,-110.31"/>
<polygon fill="#7e57c2" stroke="#7e57c2" points="445.53,-113.82 454.94,-108.94 444.55,-106.89 445.53,-113.82"/>
</g>
<!-- dream_final_chaos -->
<g id="node7" class="node">
<title>dream_final_chaos</title>
<path fill="lightgrey" stroke="black" d="M573.62,-63C573.62,-63 478.12,-63 478.12,-63 472.12,-63 466.12,-57 466.12,-51 466.12,-51 466.12,-39 466.12,-39 466.12,-33 472.12,-27 478.12,-27 478.12,-27 573.62,-27 573.62,-27 579.62,-27 585.62,-33 585.62,-39 585.62,-39 585.62,-51 585.62,-51 585.62,-57 579.62,-63 573.62,-63"/>
<text xml:space="preserve" text-anchor="middle" x="525.88" y="-39.95" font-family="Times New Roman,serif" font-size="14.00">dream_final_chaos</text>
</g>
<!-- dream_champion_lucid&#45;&gt;dream_final_chaos -->
<g id="edge6" class="edge">
<title>dream_champion_lucid&#45;&gt;dream_final_chaos</title>
<path fill="none" stroke="#7e57c2" d="M401.45,-107.57C408.1,-104.99 414.64,-102.14 420.75,-99 438.54,-89.87 439.3,-81.77 456.75,-72 458.96,-70.76 461.24,-69.55 463.56,-68.38"/>
<polygon fill="#7e57c2" stroke="#7e57c2" points="465.06,-71.54 472.58,-64.09 462.05,-65.22 465.06,-71.54"/>
</g>
<!-- dream_champion_nightmare&#45;&gt;dream_final_ascended -->
<g id="edge8" class="edge">
<title>dream_champion_nightmare&#45;&gt;dream_final_ascended</title>
<path fill="none" stroke="#7e57c2" d="M421.05,-84.24C429.12,-85.38 437.27,-86.54 445.28,-87.68"/>
<polygon fill="#7e57c2" stroke="#7e57c2" points="444.59,-91.12 454.98,-89.06 445.57,-84.19 444.59,-91.12"/>
</g>
<!-- dream_champion_nightmare&#45;&gt;dream_final_chaos -->
<g id="edge7" class="edge">
<title>dream_champion_nightmare&#45;&gt;dream_final_chaos</title>
<path fill="none" stroke="#7e57c2" d="M421.05,-59.76C432.26,-58.17 443.65,-56.55 454.56,-55"/>
<polygon fill="#7e57c2" stroke="#7e57c2" points="454.83,-58.49 464.24,-53.62 453.85,-51.56 454.83,-58.49"/>
</g>
<!-- dream_champion_whimsy&#45;&gt;dream_final_ascended -->
<g id="edge9" class="edge">
<title>dream_champion_whimsy&#45;&gt;dream_final_ascended</title>
<path fill="none" stroke="#7e57c2" d="M401.45,-36.43C408.1,-39.01 414.64,-41.86 420.75,-45 438.54,-54.13 439.3,-62.23 456.75,-72 458.96,-73.24 461.24,-74.45 463.56,-75.62"/>
<polygon fill="#7e57c2" stroke="#7e57c2" points="462.05,-78.78 472.58,-79.91 465.06,-72.46 462.05,-78.78"/>
</g>
<!-- dream_champion_whimsy&#45;&gt;dream_final_chaos -->
<g id="edge10" class="edge">
<title>dream_champion_whimsy&#45;&gt;dream_final_chaos</title>
<path fill="none" stroke="#7e57c2" d="M415.25,-29.41C428.32,-31.27 441.78,-33.18 454.59,-35.01"/>
<polygon fill="#7e57c2" stroke="#7e57c2" points="453.76,-38.42 464.15,-36.37 454.75,-31.49 453.76,-38.42"/>
</g>
</g>
</svg>
