<?xml version="1.0" encoding="UTF-8" standalone="no"?>
<!DOCTYPE svg PUBLIC "-//W3C//DTD SVG 1.1//EN"
 "http://www.w3.org/Graphics/SVG/1.1/DTD/svg11.dtd">
<!-- Generated by graphviz version 14.1.2 (20260124.0452)
 -->
<!-- Title: EvolutionTree Pages: 1 -->
<svg width="617pt" height="152pt"
 viewBox="0.00 0.00 617.00 152.00" xmlns="http://www.w3.org/2000/svg" xmlns:xlink="http://www.w3.org/1999/xlink">
<g id="graph0" class="graph" transform="scale(1 1) rotate(0) translate(4 148)">
<title>EvolutionTree</title>
<polygon fill="white" stroke="none" points="-4,4 -4,-148 613.25,-148 613.25,4 -4,4"/>
<!-- archive_baby -->
<g id="node1" class="node">
<title>archive_baby</title>
<path fill="#ce93d8" stroke="black" d="M76.75,-90C76.75,-90 12,-90 12,-90 6,-90 0,-84 0,-78 0,-78 0,-66 0,-66 0,-60 6,-54 12,-54 12,-54 76.75,-54 76.75,-54 82.75,-54 88.75,-60 88.75,-66 88.75,-66 88.75,-78 88.75,-78 88.75,-84 82.75,-90 76.75,-90"/>
<text xml:space="preserve" text-anchor="middle" x="44.38" y="-66.95" font-family="Times New Roman,serif" font-size="14.00">archive_baby</text>
</g>
<!-- archive_rookie -->
<g id="node2" class="node">
<title>archive_rookie</title>
<path fill="#ce93d8" stroke="black" d="M209.75,-90C209.75,-90 136.75,-90 136.75,-90 130.75,-90 124.75,-84 124.75,-78 124.75,-78 124.75,-66 124.75,-66 124.75,-60 130.75,-54 136.75,-54 136.75,-54 209.75,-54 209.75,-54 215.75,-54 221.75,-60 221.75,-66 221.75,-66 221.75,-78 221.75,-78 221.75,-84 215.75,-90 209.75,-90"/>
<text xml:space="preserve" text-anchor="middle" x="173.25" y="-66.95" font-family="Times New Roman,serif" font-size="14.00">archive_rookie</text>
</g>
<!-- archive_baby&#45;&gt;archive_rookie -->
<g id="edge1" class="edge">
<title>archive_baby&#45;&gt;archive_rookie</title>
<path fill="none" stroke="black" d="M89.04,-72C96.83,-72 105.07,-72 113.21,-72"/>
<polygon fill="black" stroke="black" points="113.09,-75.5 123.09,-72 113.09,-68.5 113.09,-75.5"/>
</g>
<!-- archive_champion_logic -->
<g id="node3" class="node">
<title>archive_champion_logic</title>
<path fill="#ce93d8" stroke="black" d="M407.25,-90C407.25,-90 281,-90 281,-90 275,-90 269,-84 269,-78 269,-78 269,-66 269,-66 269,-60 275,-54 281,-54 281,-54 407.25,-54 407.25,-54 413.25,-54 419.25,-60 419.25,-66 419.25,-66 419.25,-78 419.25,-78 419.25,-84 413.25,-90 407.25,-90"/>
<text xml:space="preserve" text-anchor="middle" x="344.12" y="-66.95" font-family="Times New Roman,serif" font-size="14.00">archive_champion_logic</text>
</g>
<!-- archive_rookie&#45;&gt;archive_champion_logic -->
<g id="edge2" class="edge">
<title>archive_rookie&#45;&gt;archive_champion_logic</title>
<path fill="none" stroke="#7e57c2" d="M222.19,-72C233.13,-72 245.08,-72 257.07,-72"/>
<polygon fill="#7e57c2" stroke="#7e57c2" points="257.03,-75.5 267.03,-72 257.03,-68.5 257.03,-75.5"/>
</g>
<!-- archive_champion_index -->
<g id="node4" class="node">
<title>archive_champion_index</title>
<path fill="#ce93d8" stroke="black" d="M408.75,-36C408.75,-36 279.5,-36 279.5,-36 273.5,-36 267.5,-30 267.5,-24 267.5,-24 267.5,-12 267.5,-12 267.5,-6 273.5,0 279.5,0 279.5,0 408.75,0 408.75,0 414.75,0 420.75,-6 420.75,-12 420.75,-12 420.75,-24 420.75,-24 420.75,-30 414.75,-36 408.75,-36"/>
<text xml:space="preserve" text-anchor="middle" x="344.12" y="-12.95" font-family="Times New Roman,serif" font-size="14.00">archive_champion_index</text>
</g>
<!-- archive_rookie&#45;&gt;archive_champion_index -->
<g id="edge3" class="edge">
<title>archive_rookie&#45;&gt;archive_champion_index</title>
<path fill="none" stroke="#7e57c2" d="M221.92,-56.53C233.63,-52.74 246.14,-48.71 257.75,-45 263.07,-43.3 268.59,-41.54 274.13,-39.78"/>
<polygon fill="#7e57c2" stroke="#7e57c2" points="274.87,-43.22 283.34,-36.85 272.75,-36.54 274.87,-43.22"/>
</g>
<!-- archive_champion_fragment -->
<g id="node5" class="node">
<title>archive_champion_fragment</title>
<path fill="#ce93d8" stroke="black" d="M418.5,-144C418.5,-144 269.75,-144 269.75,-144 263.75,-144 257.75,-138 257.75,-132 257.75,-132 257.75,-120 257.75,-120 257.75,-114 263.75,-108 269.75,-108 269.75,-108 418.5,-108 418.5,-108 424.5,-108 430.5,-114 430.5,-120 430.5,-120 430.5,-132 430.5,-132 430.5,-138 424.5,-144 418.5,-144"/>
<text xml:space="preserve" text-anchor="middle" x="344.12" y="-120.95" font-family="Times New Roman,serif" font-size="14.00">archive_champion_fragment</text>
</g>
<!-- archive_rookie&#45;&gt;archive_champion_fragment -->
<g id="edge4" class="edge">
<title>archive_rookie&#45;&gt;archive_champion_fragment</title>
<path fill="none" stroke="#7e57c2" d="M221.92,-87.47C233.63,-91.26 246.14,-95.29 257.75,-99 263.07,-100.7 268.59,-102.46 274.13,-104.22"/>
<polygon fill="#7e57c2" stroke="#7e57c2" points="272.75,-107.46 283.34,-107.15 274.87,-100.78 272.75,-107.46"/>
</g>
<!-- archive_final_compiler -->
<g id="node6" class="node">
<title>archive_final_compiler</title>
<path fill="lightgrey" stroke="black" d="M597.25,-144C597.25,-144 478.5,-144 478.5,-144 472.5,-144 466.5,-138 466.5,-132 466.5,-132 466.5,-120 466.5,-120 466.5,-114 472.5,-108 478.5,-108 478.5,-108 597.25,-108 597.25,-108 603.25,-108 609.25,-114 609.25,-120 609.25,-120 609.25,-132 609.25,-132 609.25,-138 603.25,-144 597.25,-144"/>
<text xml:space="preserve" text-anchor="middle" x="537.88" y="-120.95" font-family="Times New Roman,serif" font-size="14.00">archive_final_compiler</text>
</g>
<!-- archive_champion_logic&#45;&gt;archive_final_compiler -->
<g id="edge5" class="edge">
<title>archive_champion_logic&#45;&gt;archive_final_compiler</title>
<path fill="none" stroke="#7e57c2" d="M410.58,-90.43C426.69,-94.97 444.07,-99.87 460.64,-104.53"/>
<polygon fill="#7e57c2" stroke="#7e57c2" points="459.36,-107.81 469.93,-107.15 461.26,-101.07 459.36,-107.81"/>
</g>
<!-- archive_final_librarian -->
<g id="node7" class="node">
<title>archive_final_librarian</title>
<path fill="lightgrey" stroke="black" d="M595.75,-36C595.75,-36 480,-36 480,-36 474,-36 468,-30 468,-24 468,-24 468,-12 468,-12 468,-6 474,0 480,0 480,0 595.75,0 595.75,0 601.75,0 607.75,-6 607.75,-12 607.75,-12 607.75,-24 607.75,-24 607.75,-30 601.75,-36 595.75,-36"/>
<text xml:space="preserve" text-anchor="middle" x="537.88" y="-12.95" font-family="Times New Roman,serif" font-size="14.00">archive_final_librarian</text>
</g>
<!-- archive_champion_logic&#45;&gt;archive_final_librarian -->
<g id="edge6" class="edge">
<title>archive_champion_logic&#45;&gt;archive_final_librarian</title>
<path fill="none" stroke="#7e57c2" d="M410.58,-53.57C426.69,-49.03 444.07,-44.13 460.64,-39.47"/>
<polygon fill="#7e57c2" stroke="#7e57c2" points="461.26,-42.93 469.93,-36.85 459.36,-36.19 461.26,-42.93"/>
</g>
<!-- archive_champion_index&#45;&gt;archive_final_librarian -->
<g id="edge7" class="edge">
<title>archive_champion_index&#45;&gt;archive_final_librarian</title>
<path fill="none" stroke="#7e57c2" d="M421.19,-18C432.71,-18 444.64,-18 456.26,-18"/>
<polygon fill="#7e57c2" stroke="#7e57c2" points="456.24,-21.5 466.24,-18 456.24,-14.5 456.24,-21.5"/>
</g>
<!-- archive_final_corrupt -->
<g id="node8" class="node">
<title>archive_final_corrupt</title>
<path fill="lightgrey" stroke="black" d="M592.38,-90C592.38,-90 483.38,-90 483.38,-90 477.38,-90 471.38,-84 471.38,-78 471.38,-78 471.38,-66 471.38,-66 471.38,-60 477.38,-54 483.38,-54 483.38,-54 592.38,-54 592.38,-54 598.38,-54 604.38,-60 604.38,-66 604.38,-66 604.38,-78 604.38,-78 604.38,-84 598.38,-90 592.38,-90"/>
<text xml:space="preserve" text-anchor="middle" x="537.88" y="-66.95" font-family="Times New Roman,serif" font-size="14.00">archive_final_corrupt</text>
</g>
<!-- archive_champion_index&#45;&gt;archive_final_corrupt -->
<g id="edge8" class="edge">
<title>archive_champion_index&#45;&gt;archive_final_corrupt</title>
<path fill="none" stroke="#7e57c2" d="M410.58,-36.43C426.69,-40.97 444.07,-45.87 460.64,-50.53"/>
<polygon fill="#7e57c2" stroke="#7e57c2" points="459.36,-53.81 469.93,-53.15 461.26,-47.07 459.36,-53.81"/>
</g>
<!-- archive_champion_fragment&#45;&gt;archive_final_compiler -->
<g id="edge10" class="edge">
<title>archive_champion_fragment&#45;&gt;archive_final_compiler</title>
<path fill="none" stroke="#7e57c2" d="M430.9,-126C438.81,-126 446.81,-126 454.68,-126"/>
<polygon fill="#7e57c2" stroke="#7e57c2" points="454.59,-129.5 464.59,-126 454.59,-122.5 454.59,-129.5"/>
</g>
<!-- archive_champion_fragment&#45;&gt;archive_final_corrupt -->
<g id="edge9" class="edge">
<title>archive_champion_fragment&#45;&gt;archive_final_corrupt</title>
<path fill="none" stroke="#7e57c2" d="M410.58,-107.57C426.69,-103.03 444.07,-98.13 460.64,-93.47"/>
<polygon fill="#7e57c2" stroke="#7e57c2" points="461.26,-96.93 469.93,-90.85 459.36,-90.19 461.26,-96.93"/>
</g>
</g>
</svg>
