<?xml version="1.0" encoding="UTF-8" standalone="no"?>
<!DOCTYPE svg PUBLIC "-//W3C//DTD SVG 1.1//EN"
 "http://www.w3.org/Graphics/SVG/1.1/DTD/svg11.dtd">
<!-- Generated by graphviz version 2.43.0 (0)
 -->
<!-- Title: EvolutionTree Pages: 1 -->
<svg width="740pt" height="152pt"
 viewBox="0.00 0.00 740.00 152.00" xmlns="http://www.w3.org/2000/svg" xmlns:xlink="http://www.w3.org/1999/xlink">
<g id="graph0" class="graph" transform="scale(1 1) rotate(0) translate(4 148)">
<title>EvolutionTree</title>
<polygon fill="white" stroke="transparent" points="-4,4 -4,-148 736,-148 736,4 -4,4"/>
<!-- archive_baby -->
<g id="node1" class="node">
<title>archive_baby</title>
<path fill="#ce93d8" stroke="black" d="M98,-90C98,-90 12,-90 12,-90 6,-90 0,-84 0,-78 0,-78 0,-66 0,-66 0,-60 6,-54 12,-54 12,-54 98,-54 98,-54 104,-54 110,-60 110,-66 110,-66 110,-78 110,-78 110,-84 104,-90 98,-90"/>
<text text-anchor="middle" x="55" y="-68.3" font-family="Times,serif" font-size="14.00">archive_baby</text>
</g>
<!-- archive_rookie -->
<g id="node2" class="node">
<title>archive_rookie</title>
<path fill="#ce93d8" stroke="black" d="M254,-90C254,-90 158,-90 158,-90 152,-90 146,-84 146,-78 146,-78 146,-66 146,-66 146,-60 152,-54 158,-54 158,-54 254,-54 254,-54 260,-54 266,-60 266,-66 266,-66 266,-78 266,-78 266,-84 260,-90 254,-90"/>
<text text-anchor="middle" x="206" y="-68.3" font-family="Times,serif" font-size="14.00">archive_rookie</text>
</g>
<!-- archive_baby&#45;&gt;archive_rookie -->
<g id="edge1" class="edge">
<title>archive_baby&#45;&gt;archive_rookie</title>
<path fill="none" stroke="black" d="M110.21,-72C118.53,-72 127.2,-72 135.79,-72"/>
<polygon fill="black" stroke="black" points="135.79,-75.5 145.79,-72 135.79,-68.5 135.79,-75.5"/>
</g>
<!-- archive_champion_logic -->
<g id="node3" class="node">
<title>archive_champion_logic</title>
<path fill="#ce93d8" stroke="black" d="M491.5,-90C491.5,-90 330.5,-90 330.5,-90 324.5,-90 318.5,-84 318.5,-78 318.5,-78 318.5,-66 318.5,-66 318.5,-60 324.5,-54 330.5,-54 330.5,-54 491.5,-54 491.5,-54 497.5,-54 503.5,-60 503.5,-66 503.5,-66 503.5,-78 503.5,-78 503.5,-84 497.5,-90 491.5,-90"/>
<text text-anchor="middle" x="411" y="-68.3" font-family="Times,serif" font-size="14.00">archive_champion_logic</text>
</g>
<!-- archive_rookie&#45;&gt;archive_champion_logic -->
<g id="edge2" class="edge">
<title>archive_rookie&#45;&gt;archive_champion_logic</title>
<path fill="none" stroke="#7e57c2" d="M266.26,-72C279.35,-72 293.58,-72 307.83,-72"/>
<polygon fill="#7e57c2" stroke="#7e57c2" points="308.19,-75.5 318.19,-72 308.19,-68.5 308.19,-75.5"/>
</g>
<!-- archive_champion_index -->
<g id="node4" class="node">
<title>archive_champion_index</title>
<path fill="#ce93d8" stroke="black" d="M494.5,-36C494.5,-36 327.5,-36 327.5,-36 321.5,-36 315.5,-30 315.5,-24 315.5,-24 315.5,-12 315.5,-12 315.5,-6 321.5,0 327.5,0 327.5,0 494.5,0 494.5,0 500.5,0 506.5,-6 506.5,-12 506.5,-12 506.5,-24 506.5,-24 506.5,-30 500.5,-36 494.5,-36"/>
<text text-anchor="middle" x="411" y="-14.3" font-family="Times,serif" font-size="14.00">archive_champion_index</text>
</g>
<!-- archive_rookie&#45;&gt;archive_champion_index -->
<g id="edge3" class="edge">
<title>archive_rookie&#45;&gt;archive_champion_index</title>
<path fill="none" stroke="#7e57c2" d="M266.21,-54.86C278.05,-51.52 290.4,-48.1 302,-45 309.99,-42.87 318.32,-40.69 326.66,-38.55"/>
<polygon fill="#7e57c2" stroke="#7e57c2" points="327.6,-41.92 336.43,-36.06 325.87,-35.14 327.6,-41.92"/>
</g>
<!-- archive_champion_fragment -->
<g id="node5" class="node">
<title>archive_champion_fragment</title>
<path fill="#ce93d8" stroke="black" d="M508,-144C508,-144 314,-144 314,-144 308,-144 302,-138 302,-132 302,-132 302,-120 302,-120 302,-114 308,-108 314,-108 314,-108 508,-108 508,-108 514,-108 520,-114 520,-120 520,-120 520,-132 520,-132 520,-138 514,-144 508,-144"/>
<text text-anchor="middle" x="411" y="-122.3" font-family="Times,serif" font-size="14.00">archive_champion_fragment</text>
</g>
<!-- archive_rookie&#45;&gt;archive_champion_fragment -->
<g id="edge4" class="edge">
<title>archive_rookie&#45;&gt;archive_champion_fragment</title>
<path fill="none" stroke="#7e57c2" d="M266.21,-89.14C278.05,-92.48 290.4,-95.9 302,-99 309.99,-101.13 318.32,-103.31 326.66,-105.45"/>
<polygon fill="#7e57c2" stroke="#7e57c2" points="325.87,-108.86 336.43,-107.94 327.6,-102.08 325.87,-108.86"/>
</g>
<!-- archive_final_compiler -->
<g id="node6" class="node">
<title>archive_final_compiler</title>
<path fill="lightgrey" stroke="black" d="M720,-144C720,-144 568,-144 568,-144 562,-144 556,-138 556,-132 556,-132 556,-120 556,-120 556,-114 562,-108 568,-108 568,-108 720,-108 720,-108 726,-108 732,-114 732,-120 732,-120 732,-132 732,-132 732,-138 726,-144 720,-144"/>
<text text-anchor="middle" x="644" y="-122.3" font-family="Times,serif" font-size="14.00">archive_final_compiler</text>
</g>
<!-- archive_champion_logic&#45;&gt;archive_final_compiler -->
<g id="edge5" class="edge">
<title>archive_champion_logic&#45;&gt;archive_final_compiler</title>
<path fill="none" stroke="#7e57c2" d="M489.24,-90.06C510.62,-95.05 533.98,-100.51 555.88,-105.63"/>
<polygon fill="#7e57c2" stroke="#7e57c2" points="555.3,-109.09 565.83,-107.96 556.89,-102.28 555.3,-109.09"/>
</g>
<!-- archive_final_librarian -->
<g id="node7" class="node">
<title>archive_final_librarian</title>
<path fill="lightgrey" stroke="black" d="M719.5,-36C719.5,-36 568.5,-36 568.5,-36 562.5,-36 556.5,-30 556.5,-24 556.5,-24 556.5,-12 556.5,-12 556.5,-6 562.5,0 568.5,0 568.5,0 719.5,0 719.5,0 725.5,0 731.5,-6 731.5,-12 731.5,-12 731.5,-24 731.5,-24 731.5,-30 725.5,-36 719.5,-36"/>
<text text-anchor="middle" x="644" y="-14.3" font-family="Times,serif" font-size="14.00">archive_final_librarian</text>
</g>
<!-- archive_champion_logic&#45;&gt;archive_final_librarian -->
<g id="edge6" class="edge">
<title>archive_champion_logic&#45;&gt;archive_final_librarian</title>
<path fill="none" stroke="#7e57c2" d="M489.24,-53.94C510.62,-48.95 533.98,-43.49 555.88,-38.37"/>
<polygon fill="#7e57c2" stroke="#7e57c2" points="556.89,-41.72 565.83,-36.04 555.3,-34.91 556.89,-41.72"/>
</g>
<!-- archive_champion_index&#45;&gt;archive_final_librarian -->
<g id="edge7" class="edge">
<title>archive_champion_index&#45;&gt;archive_final_librarian</title>
<path fill="none" stroke="#7e57c2" d="M506.62,-18C519.6,-18 532.94,-18 545.96,-18"/>
<polygon fill="#7e57c2" stroke="#7e57c2" points="546.32,-21.5 556.32,-18 546.32,-14.5 546.32,-21.5"/>
</g>
<!-- archive_final_corrupt -->
<g id="node8" class="node">
<title>archive_final_corrupt</title>
<path fill="lightgrey" stroke="black" d="M715.5,-90C715.5,-90 572.5,-90 572.5,-90 566.5,-90 560.5,-84 560.5,-78 560.5,-78 560.5,-66 560.5,-66 560.5,-60 566.5,-54 572.5,-54 572.5,-54 715.5,-54 715.5,-54 721.5,-54 727.5,-60 727.5,-66 727.5,-66 727.5,-78 727.5,-78 727.5,-84 721.5,-90 715.5,-90"/>
<text text-anchor="middle" x="644" y="-68.3" font-family="Times,serif" font-size="14.00">archive_final_corrupt</text>
</g>
<!-- archive_champion_index&#45;&gt;archive_final_corrupt -->
<g id="edge8" class="edge">
<title>archive_champion_index&#45;&gt;archive_final_corrupt</title>
<path fill="none" stroke="#7e57c2" d="M489.24,-36.06C510.62,-41.05 533.98,-46.51 555.88,-51.63"/>
<polygon fill="#7e57c2" stroke="#7e57c2" points="555.3,-55.09 565.83,-53.96 556.89,-48.28 555.3,-55.09"/>
</g>
<!-- archive_champion_fragment&#45;&gt;archive_final_compiler -->
<g id="edge10" class="edge">
<title>archive_champion_fragment&#45;&gt;archive_final_compiler</title>
<path fill="none" stroke="#7e57c2" d="M520.06,-126C528.58,-126 537.14,-126 545.58,-126"/>
<polygon fill="#7e57c2" stroke="#7e57c2" points="545.79,-129.5 555.79,-126 545.79,-122.5 545.79,-129.5"/>
</g>
<!-- archive_champion_fragment&#45;&gt;archive_final_corrupt -->
<g id="edge9" class="edge">
<title>archive_champion_fragment&#45;&gt;archive_final_corrupt</title>
<path fill="none" stroke="#7e57c2" d="M489.24,-107.94C510.62,-102.95 533.98,-97.49 555.88,-92.37"/>
<polygon fill="#7e57c2" stroke="#7e57c2" points="556.89,-95.72 565.83,-90.04 555.3,-88.91 556.89,-95.72"/>
</g>
</g>
</svg>
