<?xml version="1.0" encoding="UTF-8" standalone="no"?>
<!DOCTYPE svg PUBLIC "-//W3C//DTD SVG 1.1//EN"
 "http://www.w3.org/Graphics/SVG/1.1/DTD/svg11.dtd">
<!-- Generated by graphviz version 2.43.0 (0)
 -->
<!-- Title: EvolutionTree Pages: 1 -->
<svg width="791pt" height="1758pt"
 viewBox="0.00 0.00 791.00 1758.00" xmlns="http://www.w3.org/2000/svg" xmlns:xlink="http://www.w3.org/1999/xlink">
<g id="graph0" class="graph" transform="scale(1 1) rotate(0) translate(4 1754)">
<title>EvolutionTree</title>
<polygon fill="white" stroke="transparent" points="-4,4 -4,-1754 787,-1754 787,4 -4,4"/>
<!-- dream_baby -->
<g id="node1" class="node">
<title>dream_baby</title>
<path fill="#9575cd" stroke="black" d="M102,-90C102,-90 22,-90 22,-90 16,-90 10,-84 10,-78 10,-78 10,-66 10,-66 10,-60 16,-54 22,-54 22,-54 102,-54 102,-54 108,-54 114,-60 114,-66 114,-66 114,-78 114,-78 114,-84 108,-90 102,-90"/>
<text text-anchor="middle" x="62" y="-68.3" font-family="Times,serif" font-size="14.00">dream_baby</text>
</g>
<!-- dream_rookie -->
<g id="node2" class="node">
<title>dream_rookie</title>
<path fill="#9575cd" stroke="black" d="M271.5,-90C271.5,-90 182.5,-90 182.5,-90 176.5,-90 170.5,-84 170.5,-78 170.5,-78 170.5,-66 170.5,-66 170.5,-60 176.5,-54 182.5,-54 182.5,-54 271.5,-54 271.5,-54 277.5,-54 283.5,-60 283.5,-66 283.5,-66 283.5,-78 283.5,-78 283.5,-84 277.5,-90 271.5,-90"/>
<text text-anchor="middle" x="227" y="-68.3" font-family="Times,serif" font-size="14.00">dream_rookie</text>
</g>
<!-- dream_baby&#45;&gt;dream_rookie -->
<g id="edge1" class="edge">
<title>dream_baby&#45;&gt;dream_rookie</title>
<path fill="none" stroke="black" d="M114.13,-72C128.62,-72 144.6,-72 159.84,-72"/>
<polygon fill="black" stroke="black" points="160.25,-75.5 170.25,-72 160.25,-68.5 160.25,-75.5"/>
</g>
<!-- dream_champion_lucid -->
<g id="node3" class="node">
<title>dream_champion_lucid</title>
<path fill="#9575cd" stroke="black" d="M517,-144C517,-144 362,-144 362,-144 356,-144 350,-138 350,-132 350,-132 350,-120 350,-120 350,-114 356,-108 362,-108 362,-108 517,-108 517,-108 523,-108 529,-114 529,-120 529,-120 529,-132 529,-132 529,-138 523,-144 517,-144"/>
<text text-anchor="middle" x="439.5" y="-122.3" font-family="Times,serif" font-size="14.00">dream_champion_lucid</text>
</g>
<!-- dream_rookie&#45;&gt;dream_champion_lucid -->
<g id="edge2" class="edge">
<title>dream_rookie&#45;&gt;dream_champion_lucid</title>
<path fill="none" stroke="#7e57c2" d="M283.55,-86.86C298.61,-90.85 314.92,-95.13 330,-99 338.33,-101.14 347.03,-103.35 355.72,-105.54"/>
<polygon fill="#7e57c2" stroke="#7e57c2" points="354.96,-108.95 365.51,-107.99 356.66,-102.16 354.96,-108.95"/>
</g>
<!-- dream_champion_nightmare -->
<g id="node4" class="node">
<title>dream_champion_nightmare</title>
<path fill="#9575cd" stroke="black" d="M537,-90C537,-90 342,-90 342,-90 336,-90 330,-84 330,-78 330,-78 330,-66 330,-66 330,-60 336,-54 342,-54 342,-54 537,-54 537,-54 543,-54 549,-60 549,-66 549,-66 549,-78 549,-78 549,-84 543,-90 537,-90"/>
<text text-anchor="middle" x="439.5" y="-68.3" font-family="Times,serif" font-size="14.00">dream_champion_nightmare</text>
</g>
<!-- dream_rookie&#45;&gt;dream_champion_nightmare -->
<g id="edge3" class="edge">
<title>dream_rookie&#45;&gt;dream_champion_nightmare</title>
<path fill="none" stroke="#7e57c2" d="M283.58,-72C294.83,-72 307.05,-72 319.54,-72"/>
<polygon fill="#7e57c2" stroke="#7e57c2" points="319.6,-75.5 329.6,-72 319.6,-68.5 319.6,-75.5"/>
</g>
<!-- dream_champion_whimsy -->
<g id="node5" class="node">
<title>dream_champion_whimsy</title>
<path fill="#9575cd" stroke="black" d="M527.5,-36C527.5,-36 351.5,-36 351.5,-36 345.5,-36 339.5,-30 339.5,-24 339.5,-24 339.5,-12 339.5,-12 339.5,-6 345.5,0 351.5,0 351.5,0 527.5,0 527.5,0 533.5,0 539.5,-6 539.5,-12 539.5,-12 539.5,-24 539.5,-24 539.5,-30 533.5,-36 527.5,-36"/>
<text text-anchor="middle" x="439.5" y="-14.3" font-family="Times,serif" font-size="14.00">dream_champion_whimsy</text>
</g>
<!-- dream_rookie&#45;&gt;dream_champion_whimsy -->
<g id="edge4" class="edge">
<title>dream_rookie&#45;&gt;dream_champion_whimsy</title>
<path fill="none" stroke="#7e57c2" d="M283.55,-57.14C298.61,-53.15 314.92,-48.87 330,-45 338.33,-42.86 347.03,-40.65 355.72,-38.46"/>
<polygon fill="#7e57c2" stroke="#7e57c2" points="356.66,-41.84 365.51,-36.01 354.96,-35.05 356.66,-41.84"/>
</g>
<!-- dream_final_ascended -->
<g id="node6" class="node">
<title>dream_final_ascended</title>
<path fill="lightgrey" stroke="black" d="M758.5,-117C758.5,-117 609.5,-117 609.5,-117 603.5,-117 597.5,-111 597.5,-105 597.5,-105 597.5,-93 597.5,-93 597.5,-87 603.5,-81 609.5,-81 609.5,-81 758.5,-81 758.5,-81 764.5,-81 770.5,-87 770.5,-93 770.5,-93 770.5,-105 770.5,-105 770.5,-111 764.5,-117 758.5,-117"/>
<text text-anchor="middle" x="684" y="-95.3" font-family="Times,serif" font-size="14.00">dream_final_ascended</text>
</g>
<!-- dream_champion_lucid&#45;&gt;dream_final_ascended -->
<g id="edge5" class="edge">
<title>dream_champion_lucid&#45;&gt;dream_final_ascended</title>
<path fill="none" stroke="#7e57c2" d="M529.08,-116.14C548.09,-114.02 568.26,-111.78 587.52,-109.63"/>
<polygon fill="#7e57c2" stroke="#7e57c2" points="587.94,-113.11 597.49,-108.52 587.17,-106.15 587.94,-113.11"/>
</g>
<!-- dream_final_chaos -->
<g id="node7" class="node">
<title>dream_final_chaos</title>
<path fill="lightgrey" stroke="black" d="M745.5,-63C745.5,-63 622.5,-63 622.5,-63 616.5,-63 610.5,-57 610.5,-51 610.5,-51 610.5,-39 610.5,-39 610.5,-33 616.5,-27 622.5,-27 622.5,-27 745.5,-27 745.5,-27 751.5,-27 757.5,-33 757.5,-39 757.5,-39 757.5,-51 757.5,-51 757.5,-57 751.5,-63 745.5,-63"/>
<text text-anchor="middle" x="684" y="-41.3" font-family="Times,serif" font-size="14.00">dream_final_chaos</text>
</g>
<!-- dream_champion_lucid&#45;&gt;dream_final_chaos -->
<g id="edge6" class="edge">
<title>dream_champion_lucid&#45;&gt;dream_final_chaos</title>
<path fill="none" stroke="#7e57c2" d="M526.62,-107.99C534.33,-105.36 541.9,-102.37 549,-99 567.06,-90.41 567.05,-80.81 585,-72 590,-69.55 595.26,-67.29 600.63,-65.21"/>
<polygon fill="#7e57c2" stroke="#7e57c2" points="602.19,-68.37 610.4,-61.67 599.81,-61.79 602.19,-68.37"/>
</g>
<!-- dream_champion_nightmare&#45;&gt;dream_final_ascended -->
<g id="edge8" class="edge">
<title>dream_champion_nightmare&#45;&gt;dream_final_ascended</title>
<path fill="none" stroke="#7e57c2" d="M549.34,-84.12C562.05,-85.53 574.95,-86.97 587.47,-88.36"/>
<polygon fill="#7e57c2" stroke="#7e57c2" points="587.09,-91.84 597.42,-89.47 587.87,-84.89 587.09,-91.84"/>
</g>
<!-- dream_champion_nightmare&#45;&gt;dream_final_chaos -->
<g id="edge7" class="edge">
<title>dream_champion_nightmare&#45;&gt;dream_final_chaos</title>
<path fill="none" stroke="#7e57c2" d="M549.34,-59.88C566.44,-57.98 583.87,-56.04 600.26,-54.21"/>
<polygon fill="#7e57c2" stroke="#7e57c2" points="600.76,-57.68 610.31,-53.09 599.99,-50.72 600.76,-57.68"/>
</g>
<!-- dream_champion_whimsy&#45;&gt;dream_final_ascended -->
<g id="edge9" class="edge">
<title>dream_champion_whimsy&#45;&gt;dream_final_ascended</title>
<path fill="none" stroke="#7e57c2" d="M526.62,-36.01C534.33,-38.64 541.9,-41.63 549,-45 567.06,-53.59 567.05,-63.19 585,-72 588.83,-73.88 592.81,-75.65 596.89,-77.3"/>
<polygon fill="#7e57c2" stroke="#7e57c2" points="595.92,-80.68 606.51,-80.97 598.42,-74.14 595.92,-80.68"/>
</g>
<!-- dream_champion_whimsy&#45;&gt;dream_final_chaos -->
<g id="edge10" class="edge">
<title>dream_champion_whimsy&#45;&gt;dream_final_chaos</title>
<path fill="none" stroke="#7e57c2" d="M539.83,-29.06C559.88,-31.29 580.76,-33.62 600.17,-35.78"/>
<polygon fill="#7e57c2" stroke="#7e57c2" points="599.85,-39.26 610.18,-36.89 600.62,-32.31 599.85,-39.26"/>
</g>
<!-- archive_baby -->
<g id="node8" class="node">
<title>archive_baby</title>
<path fill="#ce93d8" stroke="black" d="M105,-252C105,-252 19,-252 19,-252 13,-252 7,-246 7,-240 7,-240 7,-228 7,-228 7,-222 13,-216 19,-216 19,-216 105,-216 105,-216 111,-216 117,-222 117,-228 117,-228 117,-240 117,-240 117,-246 111,-252 105,-252"/>
<text text-anchor="middle" x="62" y="-230.3" font-family="Times,serif" font-size="14.00">archive_baby</text>
</g>
<!-- archive_rookie -->
<g id="node9" class="node">
<title>archive_rookie</title>
<path fill="#ce93d8" stroke="black" d="M275,-252C275,-252 179,-252 179,-252 173,-252 167,-246 167,-240 167,-240 167,-228 167,-228 167,-222 173,-216 179,-216 179,-216 275,-216 275,-216 281,-216 287,-222 287,-228 287,-228 287,-240 287,-240 287,-246 281,-252 275,-252"/>
<text text-anchor="middle" x="227" y="-230.3" font-family="Times,serif" font-size="14.00">archive_rookie</text>
</g>
<!-- archive_baby&#45;&gt;archive_rookie -->
<g id="edge11" class="edge">
<title>archive_baby&#45;&gt;archive_rookie</title>
<path fill="none" stroke="black" d="M117.28,-234C129.97,-234 143.66,-234 156.9,-234"/>
<polygon fill="black" stroke="black" points="156.92,-237.5 166.92,-234 156.92,-230.5 156.92,-237.5"/>
</g>
<!-- archive_champion_logic -->
<g id="node10" class="node">
<title>archive_champion_logic</title>
<path fill="#ce93d8" stroke="black" d="M520,-252C520,-252 359,-252 359,-252 353,-252 347,-246 347,-240 347,-240 347,-228 347,-228 347,-222 353,-216 359,-216 359,-216 520,-216 520,-216 526,-216 532,-222 532,-228 532,-228 532,-240 532,-240 532,-246 526,-252 520,-252"/>
<text text-anchor="middle" x="439.5" y="-230.3" font-family="Times,serif" font-size="14.00">archive_champion_logic</text>
</g>
<!-- archive_rookie&#45;&gt;archive_champion_logic -->
<g id="edge12" class="edge">
<title>archive_rookie&#45;&gt;archive_champion_logic</title>
<path fill="none" stroke="#7e57c2" d="M287.2,-234C302.5,-234 319.43,-234 336.25,-234"/>
<polygon fill="#7e57c2" stroke="#7e57c2" points="336.7,-237.5 346.7,-234 336.7,-230.5 336.7,-237.5"/>
</g>
<!-- archive_champion_index -->
<g id="node11" class="node">
<title>archive_champion_index</title>
<path fill="#ce93d8" stroke="black" d="M523,-198C523,-198 356,-198 356,-198 350,-198 344,-192 344,-186 344,-186 344,-174 344,-174 344,-168 350,-162 356,-162 356,-162 523,-162 523,-162 529,-162 535,-168 535,-174 535,-174 535,-186 535,-186 535,-192 529,-198 523,-198"/>
<text text-anchor="middle" x="439.5" y="-176.3" font-family="Times,serif" font-size="14.00">archive_champion_index</text>
</g>
<!-- archive_rookie&#45;&gt;archive_champion_index -->
<g id="edge13" class="edge">
<title>archive_rookie&#45;&gt;archive_champion_index</title>
<path fill="none" stroke="#7e57c2" d="M287.02,-218.22C301.09,-214.5 316.07,-210.58 330,-207 338.33,-204.86 347.03,-202.65 355.72,-200.46"/>
<polygon fill="#7e57c2" stroke="#7e57c2" points="356.66,-203.84 365.51,-198.01 354.96,-197.05 356.66,-203.84"/>
</g>
<!-- archive_champion_fragment -->
<g id="node12" class="node">
<title>archive_champion_fragment</title>
<path fill="#ce93d8" stroke="black" d="M536.5,-306C536.5,-306 342.5,-306 342.5,-306 336.5,-306 330.5,-300 330.5,-294 330.5,-294 330.5,-282 330.5,-282 330.5,-276 336.5,-270 342.5,-270 342.5,-270 536.5,-270 536.5,-270 542.5,-270 548.5,-276 548.5,-282 548.5,-282 548.5,-294 548.5,-294 548.5,-300 542.5,-306 536.5,-306"/>
<text text-anchor="middle" x="439.5" y="-284.3" font-family="Times,serif" font-size="14.00">archive_champion_fragment</text>
</g>
<!-- archive_rookie&#45;&gt;archive_champion_fragment -->
<g id="edge14" class="edge">
<title>archive_rookie&#45;&gt;archive_champion_fragment</title>
<path fill="none" stroke="#7e57c2" d="M287.02,-249.78C301.09,-253.5 316.07,-257.42 330,-261 338.33,-263.14 347.03,-265.35 355.72,-267.54"/>
<polygon fill="#7e57c2" stroke="#7e57c2" points="354.96,-270.95 365.51,-269.99 356.66,-264.16 354.96,-270.95"/>
</g>
<!-- archive_final_compiler -->
<g id="node13" class="node">
<title>archive_final_compiler</title>
<path fill="lightgrey" stroke="black" d="M760,-306C760,-306 608,-306 608,-306 602,-306 596,-300 596,-294 596,-294 596,-282 596,-282 596,-276 602,-270 608,-270 608,-270 760,-270 760,-270 766,-270 772,-276 772,-282 772,-282 772,-294 772,-294 772,-300 766,-306 760,-306"/>
<text text-anchor="middle" x="684" y="-284.3" font-family="Times,serif" font-size="14.00">archive_final_compiler</text>
</g>
<!-- archive_champion_logic&#45;&gt;archive_final_compiler -->
<g id="edge15" class="edge">
<title>archive_champion_logic&#45;&gt;archive_final_compiler</title>
<path fill="none" stroke="#7e57c2" d="M521.59,-252.06C544.24,-257.1 568.99,-262.61 592.17,-267.77"/>
<polygon fill="#7e57c2" stroke="#7e57c2" points="591.47,-271.2 601.99,-269.96 592.99,-264.37 591.47,-271.2"/>
</g>
<!-- archive_final_librarian -->
<g id="node14" class="node">
<title>archive_final_librarian</title>
<path fill="lightgrey" stroke="black" d="M759.5,-198C759.5,-198 608.5,-198 608.5,-198 602.5,-198 596.5,-192 596.5,-186 596.5,-186 596.5,-174 596.5,-174 596.5,-168 602.5,-162 608.5,-162 608.5,-162 759.5,-162 759.5,-162 765.5,-162 771.5,-168 771.5,-174 771.5,-174 771.5,-186 771.5,-186 771.5,-192 765.5,-198 759.5,-198"/>
<text text-anchor="middle" x="684" y="-176.3" font-family="Times,serif" font-size="14.00">archive_final_librarian</text>
</g>
<!-- archive_champion_logic&#45;&gt;archive_final_librarian -->
<g id="edge16" class="edge">
<title>archive_champion_logic&#45;&gt;archive_final_librarian</title>
<path fill="none" stroke="#7e57c2" d="M521.59,-215.94C544.24,-210.9 568.99,-205.39 592.17,-200.23"/>
<polygon fill="#7e57c2" stroke="#7e57c2" points="592.99,-203.63 601.99,-198.04 591.47,-196.8 592.99,-203.63"/>
</g>
<!-- archive_champion_index&#45;&gt;archive_final_librarian -->
<g id="edge17" class="edge">
<title>archive_champion_index&#45;&gt;archive_final_librarian</title>
<path fill="none" stroke="#7e57c2" d="M535.3,-180C551.91,-180 569.22,-180 585.89,-180"/>
<polygon fill="#7e57c2" stroke="#7e57c2" points="586.18,-183.5 596.18,-180 586.18,-176.5 586.18,-183.5"/>
</g>
<!-- archive_final_corrupt -->
<g id="node15" class="node">
<title>archive_final_corrupt</title>
<path fill="lightgrey" stroke="black" d="M755.5,-252C755.5,-252 612.5,-252 612.5,-252 606.5,-252 600.5,-246 600.5,-240 600.5,-240 600.5,-228 600.5,-228 600.5,-222 606.5,-216 612.5,-216 612.5,-216 755.5,-216 755.5,-216 761.5,-216 767.5,-222 767.5,-228 767.5,-228 767.5,-240 767.5,-240 767.5,-246 761.5,-252 755.5,-252"/>
<text text-anchor="middle" x="684" y="-230.3" font-family="Times,serif" font-size="14.00">archive_final_corrupt</text>
</g>
<!-- archive_champion_index&#45;&gt;archive_final_corrupt -->
<g id="edge18" class="edge">
<title>archive_champion_index&#45;&gt;archive_final_corrupt</title>
<path fill="none" stroke="#7e57c2" d="M521.59,-198.06C544.24,-203.1 568.99,-208.61 592.17,-213.77"/>
<polygon fill="#7e57c2" stroke="#7e57c2" points="591.47,-217.2 601.99,-215.96 592.99,-210.37 591.47,-217.2"/>
</g>
<!-- archive_champion_fragment&#45;&gt;archive_final_compiler -->
<g id="edge20" class="edge">
<title>archive_champion_fragment&#45;&gt;archive_final_compiler</title>
<path fill="none" stroke="#7e57c2" d="M548.63,-288C560.96,-288 573.48,-288 585.66,-288"/>
<polygon fill="#7e57c2" stroke="#7e57c2" points="585.81,-291.5 595.81,-288 585.81,-284.5 585.81,-291.5"/>
</g>
<!-- archive_champion_fragment&#45;&gt;archive_final_corrupt -->
<g id="edge19" class="edge">
<title>archive_champion_fragment&#45;&gt;archive_final_corrupt</title>
<path fill="none" stroke="#7e57c2" d="M521.59,-269.94C544.24,-264.9 568.99,-259.39 592.17,-254.23"/>
<polygon fill="#7e57c2" stroke="#7e57c2" points="592.99,-257.63 601.99,-252.04 591.47,-250.8 592.99,-257.63"/>
</g>
<!-- root_baby -->
<g id="node16" class="node">
<title>root_baby</title>
<path fill="#81c784" stroke="black" d="M93.5,-428C93.5,-428 30.5,-428 30.5,-428 24.5,-428 18.5,-422 18.5,-416 18.5,-416 18.5,-404 18.5,-404 18.5,-398 24.5,-392 30.5,-392 30.5,-392 93.5,-392 93.5,-392 99.5,-392 105.5,-398 105.5,-404 105.5,-404 105.5,-416 105.5,-416 105.5,-422 99.5,-428 93.5,-428"/>
<text text-anchor="middle" x="62" y="-406.3" font-family="Times,serif" font-size="14.00">root_baby</text>
</g>
<!-- root_rookie -->
<g id="node17" class="node">
<title>root_rookie</title>
<path fill="#81c784" stroke="black" d="M263.5,-428C263.5,-428 190.5,-428 190.5,-428 184.5,-428 178.5,-422 178.5,-416 178.5,-416 178.5,-404 178.5,-404 178.5,-398 184.5,-392 190.5,-392 190.5,-392 263.5,-392 263.5,-392 269.5,-392 275.5,-398 275.5,-404 275.5,-404 275.5,-416 275.5,-416 275.5,-422 269.5,-428 263.5,-428"/>
<text text-anchor="middle" x="227" y="-406.3" font-family="Times,serif" font-size="14.00">root_rookie</text>
</g>
<!-- root_baby&#45;&gt;root_rookie -->
<g id="edge21" class="edge">
<title>root_baby&#45;&gt;root_rookie</title>
<path fill="none" stroke="black" d="M105.83,-410C124.87,-410 147.58,-410 168.1,-410"/>
<polygon fill="black" stroke="black" points="168.29,-413.5 178.29,-410 168.29,-406.5 168.29,-413.5"/>
</g>
<!-- root_champion_thorn -->
<g id="node18" class="node">
<title>root_champion_thorn</title>
<path fill="#81c784" stroke="black" d="M511,-482C511,-482 368,-482 368,-482 362,-482 356,-476 356,-470 356,-470 356,-458 356,-458 356,-452 362,-446 368,-446 368,-446 511,-446 511,-446 517,-446 523,-452 523,-458 523,-458 523,-470 523,-470 523,-476 517,-482 511,-482"/>
<text text-anchor="middle" x="439.5" y="-460.3" font-family="Times,serif" font-size="14.00">root_champion_thorn</text>
</g>
<!-- root_rookie&#45;&gt;root_champion_thorn -->
<g id="edge22" class="edge">
<title>root_rookie&#45;&gt;root_champion_thorn</title>
<path fill="none" stroke="#7e57c2" d="M275.7,-422.78C292.81,-427.33 312.26,-432.44 330,-437 338.33,-439.14 347.03,-441.35 355.72,-443.54"/>
<polygon fill="#7e57c2" stroke="#7e57c2" points="354.96,-446.95 365.51,-445.99 356.66,-440.16 354.96,-446.95"/>
</g>
<!-- root_champion_bloom -->
<g id="node19" class="node">
<title>root_champion_bloom</title>
<path fill="#81c784" stroke="black" d="M513.5,-428C513.5,-428 365.5,-428 365.5,-428 359.5,-428 353.5,-422 353.5,-416 353.5,-416 353.5,-404 353.5,-404 353.5,-398 359.5,-392 365.5,-392 365.5,-392 513.5,-392 513.5,-392 519.5,-392 525.5,-398 525.5,-404 525.5,-404 525.5,-416 525.5,-416 525.5,-422 519.5,-428 513.5,-428"/>
<text text-anchor="middle" x="439.5" y="-406.3" font-family="Times,serif" font-size="14.00">root_champion_bloom</text>
</g>
<!-- root_rookie&#45;&gt;root_champion_bloom -->
<g id="edge23" class="edge">
<title>root_rookie&#45;&gt;root_champion_bloom</title>
<path fill="none" stroke="#7e57c2" d="M275.5,-410C295.47,-410 319.44,-410 342.79,-410"/>
<polygon fill="#7e57c2" stroke="#7e57c2" points="343.1,-413.5 353.1,-410 343.1,-406.5 343.1,-413.5"/>
</g>
<!-- root_champion_bark -->
<g id="node20" class="node">
<title>root_champion_bark</title>
<path fill="#81c784" stroke="black" d="M508,-374C508,-374 371,-374 371,-374 365,-374 359,-368 359,-362 359,-362 359,-350 359,-350 359,-344 365,-338 371,-338 371,-338 508,-338 508,-338 514,-338 520,-344 520,-350 520,-350 520,-362 520,-362 520,-368 514,-374 508,-374"/>
<text text-anchor="middle" x="439.5" y="-352.3" font-family="Times,serif" font-size="14.00">root_champion_bark</text>
</g>
<!-- root_rookie&#45;&gt;root_champion_bark -->
<g id="edge24" class="edge">
<title>root_rookie&#45;&gt;root_champion_bark</title>
<path fill="none" stroke="#7e57c2" d="M275.7,-397.22C292.81,-392.67 312.26,-387.56 330,-383 338.33,-380.86 347.03,-378.65 355.72,-376.46"/>
<polygon fill="#7e57c2" stroke="#7e57c2" points="356.66,-379.84 365.51,-374.01 354.96,-373.05 356.66,-379.84"/>
</g>
<!-- root_final_bramble -->
<g id="node21" class="node">
<title>root_final_bramble</title>
<path fill="lightgrey" stroke="black" d="M746.5,-522C746.5,-522 621.5,-522 621.5,-522 615.5,-522 609.5,-516 609.5,-510 609.5,-510 609.5,-498 609.5,-498 609.5,-492 615.5,-486 621.5,-486 621.5,-486 746.5,-486 746.5,-486 752.5,-486 758.5,-492 758.5,-498 758.5,-498 758.5,-510 758.5,-510 758.5,-516 752.5,-522 746.5,-522"/>
<text text-anchor="middle" x="684" y="-500.3" font-family="Times,serif" font-size="14.00">root_final_bramble</text>
</g>
<!-- root_champion_thorn&#45;&gt;root_final_bramble -->
<g id="edge25" class="edge">
<title>root_champion_thorn&#45;&gt;root_final_bramble</title>
<path fill="none" stroke="#7e57c2" d="M523.28,-477.65C547.76,-481.69 574.57,-486.11 599.12,-490.16"/>
<polygon fill="#7e57c2" stroke="#7e57c2" points="598.69,-493.64 609.13,-491.81 599.83,-486.73 598.69,-493.64"/>
</g>
<!-- root_final_ancient -->
<g id="node22" class="node">
<title>root_final_ancient</title>
<path fill="lightgrey" stroke="black" d="M743.5,-468C743.5,-468 624.5,-468 624.5,-468 618.5,-468 612.5,-462 612.5,-456 612.5,-456 612.5,-444 612.5,-444 612.5,-438 618.5,-432 624.5,-432 624.5,-432 743.5,-432 743.5,-432 749.5,-432 755.5,-438 755.5,-444 755.5,-444 755.5,-456 755.5,-456 755.5,-462 749.5,-468 743.5,-468"/>
<text text-anchor="middle" x="684" y="-446.3" font-family="Times,serif" font-size="14.00">root_final_ancient</text>
</g>
<!-- root_champion_thorn&#45;&gt;root_final_ancient -->
<g id="edge26" class="edge">
<title>root_champion_thorn&#45;&gt;root_final_ancient</title>
<path fill="none" stroke="#7e57c2" d="M523.28,-459.22C548.72,-457.75 576.69,-456.14 602.01,-454.68"/>
<polygon fill="#7e57c2" stroke="#7e57c2" points="602.53,-458.15 612.32,-454.08 602.13,-451.16 602.53,-458.15"/>
</g>
<!-- root_champion_bloom&#45;&gt;root_final_ancient -->
<g id="edge27" class="edge">
<title>root_champion_bloom&#45;&gt;root_final_ancient</title>
<path fill="none" stroke="#7e57c2" d="M525.66,-424.05C550.6,-428.16 577.8,-432.65 602.45,-436.71"/>
<polygon fill="#7e57c2" stroke="#7e57c2" points="602.05,-440.19 612.48,-438.37 603.19,-433.29 602.05,-440.19"/>
</g>
<!-- root_final_verdant -->
<g id="node23" class="node">
<title>root_final_verdant</title>
<path fill="lightgrey" stroke="black" d="M745,-414C745,-414 623,-414 623,-414 617,-414 611,-408 611,-402 611,-402 611,-390 611,-390 611,-384 617,-378 623,-378 623,-378 745,-378 745,-378 751,-378 757,-384 757,-390 757,-390 757,-402 757,-402 757,-408 751,-414 745,-414"/>
<text text-anchor="middle" x="684" y="-392.3" font-family="Times,serif" font-size="14.00">root_final_verdant</text>
</g>
<!-- root_champion_bloom&#45;&gt;root_final_verdant -->
<g id="edge28" class="edge">
<title>root_champion_bloom&#45;&gt;root_final_verdant</title>
<path fill="none" stroke="#7e57c2" d="M525.66,-405.08C550.02,-403.68 576.51,-402.15 600.7,-400.75"/>
<polygon fill="#7e57c2" stroke="#7e57c2" points="601.13,-404.23 610.91,-400.16 600.73,-397.24 601.13,-404.23"/>
</g>
<!-- root_champion_bark&#45;&gt;root_final_ancient -->
<g id="edge30" class="edge">
<title>root_champion_bark&#45;&gt;root_final_ancient</title>
<path fill="none" stroke="#7e57c2" d="M520.05,-369.92C530.18,-373.36 540.1,-377.65 549,-383 569.5,-395.32 564.65,-410.43 585,-423 590.65,-426.49 596.75,-429.54 603.06,-432.2"/>
<polygon fill="#7e57c2" stroke="#7e57c2" points="601.82,-435.47 612.41,-435.82 604.35,-428.94 601.82,-435.47"/>
</g>
<!-- root_final_warden -->
<g id="node24" class="node">
<title>root_final_warden</title>
<path fill="lightgrey" stroke="black" d="M743.5,-360C743.5,-360 624.5,-360 624.5,-360 618.5,-360 612.5,-354 612.5,-348 612.5,-348 612.5,-336 612.5,-336 612.5,-330 618.5,-324 624.5,-324 624.5,-324 743.5,-324 743.5,-324 749.5,-324 755.5,-330 755.5,-336 755.5,-336 755.5,-348 755.5,-348 755.5,-354 749.5,-360 743.5,-360"/>
<text text-anchor="middle" x="684" y="-338.3" font-family="Times,serif" font-size="14.00">root_final_warden</text>
</g>
<!-- root_champion_bark&#45;&gt;root_final_warden -->
<g id="edge29" class="edge">
<title>root_champion_bark&#45;&gt;root_final_warden</title>
<path fill="none" stroke="#7e57c2" d="M520.24,-351.4C546.44,-349.88 575.58,-348.2 601.89,-346.68"/>
<polygon fill="#7e57c2" stroke="#7e57c2" points="602.42,-350.16 612.2,-346.09 602.01,-343.17 602.42,-350.16"/>
</g>
<!-- echo_baby -->
<g id="node25" class="node">
<title>echo_baby</title>
<path fill="#ba68c8" stroke="black" d="M95.5,-610C95.5,-610 28.5,-610 28.5,-610 22.5,-610 16.5,-604 16.5,-598 16.5,-598 16.5,-586 16.5,-586 16.5,-580 22.5,-574 28.5,-574 28.5,-574 95.5,-574 95.5,-574 101.5,-574 107.5,-580 107.5,-586 107.5,-586 107.5,-598 107.5,-598 107.5,-604 101.5,-610 95.5,-610"/>
<text text-anchor="middle" x="62" y="-588.3" font-family="Times,serif" font-size="14.00">echo_baby</text>
</g>
<!-- echo_rookie -->
<g id="node26" class="node">
<title>echo_rookie</title>
<path fill="#ba68c8" stroke="black" d="M265.5,-610C265.5,-610 188.5,-610 188.5,-610 182.5,-610 176.5,-604 176.5,-598 176.5,-598 176.5,-586 176.5,-586 176.5,-580 182.5,-574 188.5,-574 188.5,-574 265.5,-574 265.5,-574 271.5,-574 277.5,-580 277.5,-586 277.5,-586 277.5,-598 277.5,-598 277.5,-604 271.5,-610 265.5,-610"/>
<text text-anchor="middle" x="227" y="-588.3" font-family="Times,serif" font-size="14.00">echo_rookie</text>
</g>
<!-- echo_baby&#45;&gt;echo_rookie -->
<g id="edge31" class="edge">
<title>echo_baby&#45;&gt;echo_rookie</title>
<path fill="none" stroke="black" d="M107.54,-592C125.6,-592 146.73,-592 166.1,-592"/>
<polygon fill="black" stroke="black" points="166.35,-595.5 176.35,-592 166.35,-588.5 166.35,-595.5"/>
</g>
<!-- echo_champion_resonate -->
<g id="node27" class="node">
<title>echo_champion_resonate</title>
<path fill="#ba68c8" stroke="black" d="M524.5,-664C524.5,-664 354.5,-664 354.5,-664 348.5,-664 342.5,-658 342.5,-652 342.5,-652 342.5,-640 342.5,-640 342.5,-634 348.5,-628 354.5,-628 354.5,-628 524.5,-628 524.5,-628 530.5,-628 536.5,-634 536.5,-640 536.5,-640 536.5,-652 536.5,-652 536.5,-658 530.5,-664 524.5,-664"/>
<text text-anchor="middle" x="439.5" y="-642.3" font-family="Times,serif" font-size="14.00">echo_champion_resonate</text>
</g>
<!-- echo_rookie&#45;&gt;echo_champion_resonate -->
<g id="edge32" class="edge">
<title>echo_rookie&#45;&gt;echo_champion_resonate</title>
<path fill="none" stroke="#7e57c2" d="M277.51,-605.26C294.17,-609.69 312.88,-614.6 330,-619 338.33,-621.14 347.03,-623.35 355.72,-625.54"/>
<polygon fill="#7e57c2" stroke="#7e57c2" points="354.96,-628.95 365.51,-627.99 356.66,-622.16 354.96,-628.95"/>
</g>
<!-- echo_champion_reverb -->
<g id="node28" class="node">
<title>echo_champion_reverb</title>
<path fill="#ba68c8" stroke="black" d="M517,-610C517,-610 362,-610 362,-610 356,-610 350,-604 350,-598 350,-598 350,-586 350,-586 350,-580 356,-574 362,-574 362,-574 517,-574 517,-574 523,-574 529,-580 529,-586 529,-586 529,-598 529,-598 529,-604 523,-610 517,-610"/>
<text text-anchor="middle" x="439.5" y="-588.3" font-family="Times,serif" font-size="14.00">echo_champion_reverb</text>
</g>
<!-- echo_rookie&#45;&gt;echo_champion_reverb -->
<g id="edge33" class="edge">
<title>echo_rookie&#45;&gt;echo_champion_reverb</title>
<path fill="none" stroke="#7e57c2" d="M277.62,-592C296.19,-592 318.01,-592 339.48,-592"/>
<polygon fill="#7e57c2" stroke="#7e57c2" points="339.64,-595.5 349.64,-592 339.64,-588.5 339.64,-595.5"/>
</g>
<!-- echo_champion_distort -->
<g id="node29" class="node">
<title>echo_champion_distort</title>
<path fill="#ba68c8" stroke="black" d="M517.5,-556C517.5,-556 361.5,-556 361.5,-556 355.5,-556 349.5,-550 349.5,-544 349.5,-544 349.5,-532 349.5,-532 349.5,-526 355.5,-520 361.5,-520 361.5,-520 517.5,-520 517.5,-520 523.5,-520 529.5,-526 529.5,-532 529.5,-532 529.5,-544 529.5,-544 529.5,-550 523.5,-556 517.5,-556"/>
<text text-anchor="middle" x="439.5" y="-534.3" font-family="Times,serif" font-size="14.00">echo_champion_distort</text>
</g>
<!-- echo_rookie&#45;&gt;echo_champion_distort -->
<g id="edge34" class="edge">
<title>echo_rookie&#45;&gt;echo_champion_distort</title>
<path fill="none" stroke="#7e57c2" d="M277.51,-578.74C294.17,-574.31 312.88,-569.4 330,-565 338.33,-562.86 347.03,-560.65 355.72,-558.46"/>
<polygon fill="#7e57c2" stroke="#7e57c2" points="356.66,-561.84 365.51,-556.01 354.96,-555.05 356.66,-561.84"/>
</g>
<!-- echo_final_harmonic -->
<g id="node30" class="node">
<title>echo_final_harmonic</title>
<path fill="lightgrey" stroke="black" d="M752.5,-657C752.5,-657 615.5,-657 615.5,-657 609.5,-657 603.5,-651 603.5,-645 603.5,-645 603.5,-633 603.5,-633 603.5,-627 609.5,-621 615.5,-621 615.5,-621 752.5,-621 752.5,-621 758.5,-621 764.5,-627 764.5,-633 764.5,-633 764.5,-645 764.5,-645 764.5,-651 758.5,-657 752.5,-657"/>
<text text-anchor="middle" x="684" y="-635.3" font-family="Times,serif" font-size="14.00">echo_final_harmonic</text>
</g>
<!-- echo_champion_resonate&#45;&gt;echo_final_harmonic -->
<g id="edge35" class="edge">
<title>echo_champion_resonate&#45;&gt;echo_final_harmonic</title>
<path fill="none" stroke="#7e57c2" d="M536.69,-643.22C555.32,-642.69 574.78,-642.12 593.2,-641.59"/>
<polygon fill="#7e57c2" stroke="#7e57c2" points="593.42,-645.09 603.31,-641.3 593.22,-638.09 593.42,-645.09"/>
</g>
<!-- echo_final_feedback -->
<g id="node31" class="node">
<title>echo_final_feedback</title>
<path fill="lightgrey" stroke="black" d="M751,-603C751,-603 617,-603 617,-603 611,-603 605,-597 605,-591 605,-591 605,-579 605,-579 605,-573 611,-567 617,-567 617,-567 751,-567 751,-567 757,-567 763,-573 763,-579 763,-579 763,-591 763,-591 763,-597 757,-603 751,-603"/>
<text text-anchor="middle" x="684" y="-581.3" font-family="Times,serif" font-size="14.00">echo_final_feedback</text>
</g>
<!-- echo_champion_resonate&#45;&gt;echo_final_feedback -->
<g id="edge36" class="edge">
<title>echo_champion_resonate&#45;&gt;echo_final_feedback</title>
<path fill="none" stroke="#7e57c2" d="M513.17,-627.96C525.15,-624.98 537.42,-621.91 549,-619 566.12,-614.7 584.47,-610.06 601.92,-605.64"/>
<polygon fill="#7e57c2" stroke="#7e57c2" points="603.25,-608.91 612.08,-603.06 601.53,-602.12 603.25,-608.91"/>
</g>
<!-- echo_champion_reverb&#45;&gt;echo_final_harmonic -->
<g id="edge38" class="edge">
<title>echo_champion_reverb&#45;&gt;echo_final_harmonic</title>
<path fill="none" stroke="#7e57c2" d="M529.08,-609.17C550.1,-613.24 572.54,-617.59 593.6,-621.67"/>
<polygon fill="#7e57c2" stroke="#7e57c2" points="593.01,-625.12 603.49,-623.59 594.34,-618.25 593.01,-625.12"/>
</g>
<!-- echo_champion_reverb&#45;&gt;echo_final_feedback -->
<g id="edge37" class="edge">
<title>echo_champion_reverb&#45;&gt;echo_final_feedback</title>
<path fill="none" stroke="#7e57c2" d="M529.08,-589.44C550.45,-588.83 573.29,-588.17 594.65,-587.55"/>
<polygon fill="#7e57c2" stroke="#7e57c2" points="594.79,-591.05 604.68,-587.26 594.59,-584.05 594.79,-591.05"/>
</g>
<!-- echo_champion_distort&#45;&gt;echo_final_harmonic -->
<g id="edge40" class="edge">
<title>echo_champion_distort&#45;&gt;echo_final_harmonic</title>
<path fill="none" stroke="#7e57c2" d="M529.67,-554.82C536.46,-557.7 542.99,-561.06 549,-565 571,-579.43 563.18,-597.3 585,-612 587.94,-613.98 591.03,-615.82 594.22,-617.53"/>
<polygon fill="#7e57c2" stroke="#7e57c2" points="592.91,-620.78 603.43,-621.98 595.95,-614.48 592.91,-620.78"/>
</g>
<!-- echo_champion_distort&#45;&gt;echo_final_feedback -->
<g id="edge39" class="edge">
<title>echo_champion_distort&#45;&gt;echo_final_feedback</title>
<path fill="none" stroke="#7e57c2" d="M529.76,-555.3C550.98,-559.41 573.61,-563.8 594.78,-567.9"/>
<polygon fill="#7e57c2" stroke="#7e57c2" points="594.24,-571.36 604.72,-569.83 595.57,-564.49 594.24,-571.36"/>
</g>
<!-- codeborn_baby -->
<g id="node32" class="node">
<title>codeborn_baby</title>
<path fill="#e0e0e0" stroke="black" d="M112,-724C112,-724 12,-724 12,-724 6,-724 0,-718 0,-712 0,-712 0,-700 0,-700 0,-694 6,-688 12,-688 12,-688 112,-688 112,-688 118,-688 124,-694 124,-700 124,-700 124,-712 124,-712 124,-718 118,-724 112,-724"/>
<text text-anchor="middle" x="62" y="-702.3" font-family="Times,serif" font-size="14.00">codeborn_baby</text>
</g>
<!-- codeborn_rookie -->
<g id="node33" class="node">
<title>codeborn_rookie</title>
<path fill="#e0e0e0" stroke="black" d="M282,-724C282,-724 172,-724 172,-724 166,-724 160,-718 160,-712 160,-712 160,-700 160,-700 160,-694 166,-688 172,-688 172,-688 282,-688 282,-688 288,-688 294,-694 294,-700 294,-700 294,-712 294,-712 294,-718 288,-724 282,-724"/>
<text text-anchor="middle" x="227" y="-702.3" font-family="Times,serif" font-size="14.00">codeborn_rookie</text>
</g>
<!-- codeborn_baby&#45;&gt;codeborn_rookie -->
<g id="edge41" class="edge">
<title>codeborn_baby&#45;&gt;codeborn_rookie</title>
<path fill="none" stroke="black" d="M124.16,-706C132.53,-706 141.22,-706 149.82,-706"/>
<polygon fill="black" stroke="black" points="149.86,-709.5 159.86,-706 149.86,-702.5 149.86,-709.5"/>
</g>
<!-- codeborn_champion -->
<g id="node34" class="node">
<title>codeborn_champion</title>
<path fill="#e0e0e0" stroke="black" d="M506.5,-724C506.5,-724 372.5,-724 372.5,-724 366.5,-724 360.5,-718 360.5,-712 360.5,-712 360.5,-700 360.5,-700 360.5,-694 366.5,-688 372.5,-688 372.5,-688 506.5,-688 506.5,-688 512.5,-688 518.5,-694 518.5,-700 518.5,-700 518.5,-712 518.5,-712 518.5,-718 512.5,-724 506.5,-724"/>
<text text-anchor="middle" x="439.5" y="-702.3" font-family="Times,serif" font-size="14.00">codeborn_champion</text>
</g>
<!-- codeborn_rookie&#45;&gt;codeborn_champion -->
<g id="edge42" class="edge">
<title>codeborn_rookie&#45;&gt;codeborn_champion</title>
<path fill="none" stroke="black" d="M294.03,-706C311.81,-706 331.34,-706 350.13,-706"/>
<polygon fill="black" stroke="black" points="350.17,-709.5 360.17,-706 350.17,-702.5 350.17,-709.5"/>
</g>
<!-- codeborn_final -->
<g id="node35" class="node">
<title>codeborn_final</title>
<path fill="lightgrey" stroke="black" d="M732,-724C732,-724 636,-724 636,-724 630,-724 624,-718 624,-712 624,-712 624,-700 624,-700 624,-694 630,-688 636,-688 636,-688 732,-688 732,-688 738,-688 744,-694 744,-700 744,-700 744,-712 744,-712 744,-718 738,-724 732,-724"/>
<text text-anchor="middle" x="684" y="-702.3" font-family="Times,serif" font-size="14.00">codeborn_final</text>
</g>
<!-- codeborn_champion&#45;&gt;codeborn_final -->
<g id="edge43" class="edge">
<title>codeborn_champion&#45;&gt;codeborn_final</title>
<path fill="none" stroke="black" d="M518.56,-706C549.16,-706 583.97,-706 613.66,-706"/>
<polygon fill="black" stroke="black" points="613.93,-709.5 623.93,-706 613.93,-702.5 613.93,-709.5"/>
</g>
<!-- cloud_baby -->
<g id="node36" class="node">
<title>cloud_baby</title>
<path fill="#90caf9" stroke="black" d="M98,-832C98,-832 26,-832 26,-832 20,-832 14,-826 14,-820 14,-820 14,-808 14,-808 14,-802 20,-796 26,-796 26,-796 98,-796 98,-796 104,-796 110,-802 110,-808 110,-808 110,-820 110,-820 110,-826 104,-832 98,-832"/>
<text text-anchor="middle" x="62" y="-810.3" font-family="Times,serif" font-size="14.00">cloud_baby</text>
</g>
<!-- cloud_rookie -->
<g id="node37" class="node">
<title>cloud_rookie</title>
<path fill="#90caf9" stroke="black" d="M268,-832C268,-832 186,-832 186,-832 180,-832 174,-826 174,-820 174,-820 174,-808 174,-808 174,-802 180,-796 186,-796 186,-796 268,-796 268,-796 274,-796 280,-802 280,-808 280,-808 280,-820 280,-820 280,-826 274,-832 268,-832"/>
<text text-anchor="middle" x="227" y="-810.3" font-family="Times,serif" font-size="14.00">cloud_rookie</text>
</g>
<!-- cloud_baby&#45;&gt;cloud_rookie -->
<g id="edge44" class="edge">
<title>cloud_baby&#45;&gt;cloud_rookie</title>
<path fill="none" stroke="black" d="M110.15,-814C126.81,-814 145.82,-814 163.55,-814"/>
<polygon fill="black" stroke="black" points="163.82,-817.5 173.82,-814 163.82,-810.5 163.82,-817.5"/>
</g>
<!-- cloud_champion_wind -->
<g id="node38" class="node">
<title>cloud_champion_wind</title>
<path fill="#90caf9" stroke="black" d="M513.5,-832C513.5,-832 365.5,-832 365.5,-832 359.5,-832 353.5,-826 353.5,-820 353.5,-820 353.5,-808 353.5,-808 353.5,-802 359.5,-796 365.5,-796 365.5,-796 513.5,-796 513.5,-796 519.5,-796 525.5,-802 525.5,-808 525.5,-808 525.5,-820 525.5,-820 525.5,-826 519.5,-832 513.5,-832"/>
<text text-anchor="middle" x="439.5" y="-810.3" font-family="Times,serif" font-size="14.00">cloud_champion_wind</text>
</g>
<!-- cloud_rookie&#45;&gt;cloud_champion_wind -->
<g id="edge45" class="edge">
<title>cloud_rookie&#45;&gt;cloud_champion_wind</title>
<path fill="none" stroke="#7e57c2" d="M280.03,-814C299.16,-814 321.47,-814 343.21,-814"/>
<polygon fill="#7e57c2" stroke="#7e57c2" points="343.48,-817.5 353.48,-814 343.48,-810.5 343.48,-817.5"/>
</g>
<!-- cloud_champion_rain -->
<g id="node39" class="node">
<title>cloud_champion_rain</title>
<path fill="#90caf9" stroke="black" d="M510.5,-778C510.5,-778 368.5,-778 368.5,-778 362.5,-778 356.5,-772 356.5,-766 356.5,-766 356.5,-754 356.5,-754 356.5,-748 362.5,-742 368.5,-742 368.5,-742 510.5,-742 510.5,-742 516.5,-742 522.5,-748 522.5,-754 522.5,-754 522.5,-766 522.5,-766 522.5,-772 516.5,-778 510.5,-778"/>
<text text-anchor="middle" x="439.5" y="-756.3" font-family="Times,serif" font-size="14.00">cloud_champion_rain</text>
</g>
<!-- cloud_rookie&#45;&gt;cloud_champion_rain -->
<g id="edge46" class="edge">
<title>cloud_rookie&#45;&gt;cloud_champion_rain</title>
<path fill="none" stroke="#7e57c2" d="M280.11,-800.05C296.11,-795.81 313.77,-791.17 330,-787 338.33,-784.86 347.03,-782.65 355.72,-780.46"/>
<polygon fill="#7e57c2" stroke="#7e57c2" points="356.66,-783.84 365.51,-778.01 354.96,-777.05 356.66,-783.84"/>
</g>
<!-- cloud_champion_storm -->
<g id="node40" class="node">
<title>cloud_champion_storm</title>
<path fill="#90caf9" stroke="black" d="M517,-886C517,-886 362,-886 362,-886 356,-886 350,-880 350,-874 350,-874 350,-862 350,-862 350,-856 356,-850 362,-850 362,-850 517,-850 517,-850 523,-850 529,-856 529,-862 529,-862 529,-874 529,-874 529,-880 523,-886 517,-886"/>
<text text-anchor="middle" x="439.5" y="-864.3" font-family="Times,serif" font-size="14.00">cloud_champion_storm</text>
</g>
<!-- cloud_rookie&#45;&gt;cloud_champion_storm -->
<g id="edge47" class="edge">
<title>cloud_rookie&#45;&gt;cloud_champion_storm</title>
<path fill="none" stroke="#7e57c2" d="M280.11,-827.95C296.11,-832.19 313.77,-836.83 330,-841 338.33,-843.14 347.03,-845.35 355.72,-847.54"/>
<polygon fill="#7e57c2" stroke="#7e57c2" points="354.96,-850.95 365.51,-849.99 356.66,-844.16 354.96,-850.95"/>
</g>
<!-- cloud_final_jetstream -->
<g id="node41" class="node">
<title>cloud_final_jetstream</title>
<path fill="lightgrey" stroke="black" d="M756,-886C756,-886 612,-886 612,-886 606,-886 600,-880 600,-874 600,-874 600,-862 600,-862 600,-856 606,-850 612,-850 612,-850 756,-850 756,-850 762,-850 768,-856 768,-862 768,-862 768,-874 768,-874 768,-880 762,-886 756,-886"/>
<text text-anchor="middle" x="684" y="-864.3" font-family="Times,serif" font-size="14.00">cloud_final_jetstream</text>
</g>
<!-- cloud_champion_wind&#45;&gt;cloud_final_jetstream -->
<g id="edge48" class="edge">
<title>cloud_champion_wind&#45;&gt;cloud_final_jetstream</title>
<path fill="none" stroke="#7e57c2" d="M521.59,-832.06C544.24,-837.1 568.99,-842.61 592.17,-847.77"/>
<polygon fill="#7e57c2" stroke="#7e57c2" points="591.47,-851.2 601.99,-849.96 592.99,-844.37 591.47,-851.2"/>
</g>
<!-- cloud_final_halo -->
<g id="node42" class="node">
<title>cloud_final_halo</title>
<path fill="lightgrey" stroke="black" d="M736.5,-778C736.5,-778 631.5,-778 631.5,-778 625.5,-778 619.5,-772 619.5,-766 619.5,-766 619.5,-754 619.5,-754 619.5,-748 625.5,-742 631.5,-742 631.5,-742 736.5,-742 736.5,-742 742.5,-742 748.5,-748 748.5,-754 748.5,-754 748.5,-766 748.5,-766 748.5,-772 742.5,-778 736.5,-778"/>
<text text-anchor="middle" x="684" y="-756.3" font-family="Times,serif" font-size="14.00">cloud_final_halo</text>
</g>
<!-- cloud_champion_wind&#45;&gt;cloud_final_halo -->
<g id="edge49" class="edge">
<title>cloud_champion_wind&#45;&gt;cloud_final_halo</title>
<path fill="none" stroke="#7e57c2" d="M521.59,-795.94C549.91,-789.64 581.54,-782.59 609.24,-776.43"/>
<polygon fill="#7e57c2" stroke="#7e57c2" points="610.25,-779.79 619.25,-774.2 608.73,-772.95 610.25,-779.79"/>
</g>
<!-- cloud_champion_rain&#45;&gt;cloud_final_halo -->
<g id="edge50" class="edge">
<title>cloud_champion_rain&#45;&gt;cloud_final_halo</title>
<path fill="none" stroke="#7e57c2" d="M522.6,-760C550.62,-760 581.77,-760 609.11,-760"/>
<polygon fill="#7e57c2" stroke="#7e57c2" points="609.39,-763.5 619.39,-760 609.38,-756.5 609.39,-763.5"/>
</g>
<!-- cloud_final_tempest -->
<g id="node43" class="node">
<title>cloud_final_tempest</title>
<path fill="lightgrey" stroke="black" d="M751,-832C751,-832 617,-832 617,-832 611,-832 605,-826 605,-820 605,-820 605,-808 605,-808 605,-802 611,-796 617,-796 617,-796 751,-796 751,-796 757,-796 763,-802 763,-808 763,-808 763,-820 763,-820 763,-826 757,-832 751,-832"/>
<text text-anchor="middle" x="684" y="-810.3" font-family="Times,serif" font-size="14.00">cloud_final_tempest</text>
</g>
<!-- cloud_champion_rain&#45;&gt;cloud_final_tempest -->
<g id="edge51" class="edge">
<title>cloud_champion_rain&#45;&gt;cloud_final_tempest</title>
<path fill="none" stroke="#7e57c2" d="M521.59,-778.06C545.18,-783.31 571.07,-789.08 595.07,-794.42"/>
<polygon fill="#7e57c2" stroke="#7e57c2" points="594.35,-797.84 604.87,-796.6 595.87,-791.01 594.35,-797.84"/>
</g>
<!-- cloud_champion_storm&#45;&gt;cloud_final_jetstream -->
<g id="edge53" class="edge">
<title>cloud_champion_storm&#45;&gt;cloud_final_jetstream</title>
<path fill="none" stroke="#7e57c2" d="M529.08,-868C548.87,-868 569.92,-868 589.89,-868"/>
<polygon fill="#7e57c2" stroke="#7e57c2" points="589.91,-871.5 599.91,-868 589.91,-864.5 589.91,-871.5"/>
</g>
<!-- cloud_champion_storm&#45;&gt;cloud_final_tempest -->
<g id="edge52" class="edge">
<title>cloud_champion_storm&#45;&gt;cloud_final_tempest</title>
<path fill="none" stroke="#7e57c2" d="M521.59,-849.94C545.18,-844.69 571.07,-838.92 595.07,-833.58"/>
<polygon fill="#7e57c2" stroke="#7e57c2" points="595.87,-836.99 604.87,-831.4 594.35,-830.16 595.87,-836.99"/>
</g>
<!-- firewall_baby -->
<g id="node44" class="node">
<title>firewall_baby</title>
<path fill="#ff8a65" stroke="black" d="M105.5,-994C105.5,-994 18.5,-994 18.5,-994 12.5,-994 6.5,-988 6.5,-982 6.5,-982 6.5,-970 6.5,-970 6.5,-964 12.5,-958 18.5,-958 18.5,-958 105.5,-958 105.5,-958 111.5,-958 117.5,-964 117.5,-970 117.5,-970 117.5,-982 117.5,-982 117.5,-988 111.5,-994 105.5,-994"/>
<text text-anchor="middle" x="62" y="-972.3" font-family="Times,serif" font-size="14.00">firewall_baby</text>
</g>
<!-- firewall_rookie -->
<g id="node45" class="node">
<title>firewall_rookie</title>
<path fill="#ff8a65" stroke="black" d="M275.5,-994C275.5,-994 178.5,-994 178.5,-994 172.5,-994 166.5,-988 166.5,-982 166.5,-982 166.5,-970 166.5,-970 166.5,-964 172.5,-958 178.5,-958 178.5,-958 275.5,-958 275.5,-958 281.5,-958 287.5,-964 287.5,-970 287.5,-970 287.5,-982 287.5,-982 287.5,-988 281.5,-994 275.5,-994"/>
<text text-anchor="middle" x="227" y="-972.3" font-family="Times,serif" font-size="14.00">firewall_rookie</text>
</g>
<!-- firewall_baby&#45;&gt;firewall_rookie -->
<g id="edge54" class="edge">
<title>firewall_baby&#45;&gt;firewall_rookie</title>
<path fill="none" stroke="black" d="M117.73,-976C130.06,-976 143.32,-976 156.17,-976"/>
<polygon fill="black" stroke="black" points="156.38,-979.5 166.38,-976 156.38,-972.5 156.38,-979.5"/>
</g>
<!-- firewall_champion_barrier -->
<g id="node46" class="node">
<title>firewall_champion_barrier</title>
<path fill="#ff8a65" stroke="black" d="M529,-994C529,-994 350,-994 350,-994 344,-994 338,-988 338,-982 338,-982 338,-970 338,-970 338,-964 344,-958 350,-958 350,-958 529,-958 529,-958 535,-958 541,-964 541,-970 541,-970 541,-982 541,-982 541,-988 535,-994 529,-994"/>
<text text-anchor="middle" x="439.5" y="-972.3" font-family="Times,serif" font-size="14.00">firewall_champion_barrier</text>
</g>
<!-- firewall_rookie&#45;&gt;firewall_champion_barrier -->
<g id="edge55" class="edge">
<title>firewall_rookie&#45;&gt;firewall_champion_barrier</title>
<path fill="none" stroke="#7e57c2" d="M287.76,-976C300.38,-976 314.07,-976 327.89,-976"/>
<polygon fill="#7e57c2" stroke="#7e57c2" points="327.97,-979.5 337.97,-976 327.97,-972.5 327.97,-979.5"/>
</g>
<!-- firewall_champion_counter -->
<g id="node47" class="node">
<title>firewall_champion_counter</title>
<path fill="#ff8a65" stroke="black" d="M531,-940C531,-940 348,-940 348,-940 342,-940 336,-934 336,-928 336,-928 336,-916 336,-916 336,-910 342,-904 348,-904 348,-904 531,-904 531,-904 537,-904 543,-910 543,-916 543,-916 543,-928 543,-928 543,-934 537,-940 531,-940"/>
<text text-anchor="middle" x="439.5" y="-918.3" font-family="Times,serif" font-size="14.00">firewall_champion_counter</text>
</g>
<!-- firewall_rookie&#45;&gt;firewall_champion_counter -->
<g id="edge56" class="edge">
<title>firewall_rookie&#45;&gt;firewall_champion_counter</title>
<path fill="none" stroke="#7e57c2" d="M287.56,-960.07C301.48,-956.4 316.25,-952.53 330,-949 338.33,-946.86 347.03,-944.65 355.72,-942.46"/>
<polygon fill="#7e57c2" stroke="#7e57c2" points="356.66,-945.84 365.51,-940.01 354.96,-939.05 356.66,-945.84"/>
</g>
<!-- firewall_champion_patch -->
<g id="node48" class="node">
<title>firewall_champion_patch</title>
<path fill="#ff8a65" stroke="black" d="M523.5,-1048C523.5,-1048 355.5,-1048 355.5,-1048 349.5,-1048 343.5,-1042 343.5,-1036 343.5,-1036 343.5,-1024 343.5,-1024 343.5,-1018 349.5,-1012 355.5,-1012 355.5,-1012 523.5,-1012 523.5,-1012 529.5,-1012 535.5,-1018 535.5,-1024 535.5,-1024 535.5,-1036 535.5,-1036 535.5,-1042 529.5,-1048 523.5,-1048"/>
<text text-anchor="middle" x="439.5" y="-1026.3" font-family="Times,serif" font-size="14.00">firewall_champion_patch</text>
</g>
<!-- firewall_rookie&#45;&gt;firewall_champion_patch -->
<g id="edge57" class="edge">
<title>firewall_rookie&#45;&gt;firewall_champion_patch</title>
<path fill="none" stroke="#7e57c2" d="M287.56,-991.93C301.48,-995.6 316.25,-999.47 330,-1003 338.33,-1005.14 347.03,-1007.35 355.72,-1009.54"/>
<polygon fill="#7e57c2" stroke="#7e57c2" points="354.96,-1012.95 365.51,-1011.99 356.66,-1006.16 354.96,-1012.95"/>
</g>
<!-- firewall_final_fortress -->
<g id="node49" class="node">
<title>firewall_final_fortress</title>
<path fill="lightgrey" stroke="black" d="M757,-1048C757,-1048 611,-1048 611,-1048 605,-1048 599,-1042 599,-1036 599,-1036 599,-1024 599,-1024 599,-1018 605,-1012 611,-1012 611,-1012 757,-1012 757,-1012 763,-1012 769,-1018 769,-1024 769,-1024 769,-1036 769,-1036 769,-1042 763,-1048 757,-1048"/>
<text text-anchor="middle" x="684" y="-1026.3" font-family="Times,serif" font-size="14.00">firewall_final_fortress</text>
</g>
<!-- firewall_champion_barrier&#45;&gt;firewall_final_fortress -->
<g id="edge58" class="edge">
<title>firewall_champion_barrier&#45;&gt;firewall_final_fortress</title>
<path fill="none" stroke="#7e57c2" d="M521.59,-994.06C544.24,-999.1 568.99,-1004.61 592.17,-1009.77"/>
<polygon fill="#7e57c2" stroke="#7e57c2" points="591.47,-1013.2 601.99,-1011.96 592.99,-1006.37 591.47,-1013.2"/>
</g>
<!-- firewall_final_protocol -->
<g id="node50" class="node">
<title>firewall_final_protocol</title>
<path fill="lightgrey" stroke="black" d="M758.5,-994C758.5,-994 609.5,-994 609.5,-994 603.5,-994 597.5,-988 597.5,-982 597.5,-982 597.5,-970 597.5,-970 597.5,-964 603.5,-958 609.5,-958 609.5,-958 758.5,-958 758.5,-958 764.5,-958 770.5,-964 770.5,-970 770.5,-970 770.5,-982 770.5,-982 770.5,-988 764.5,-994 758.5,-994"/>
<text text-anchor="middle" x="684" y="-972.3" font-family="Times,serif" font-size="14.00">firewall_final_protocol</text>
</g>
<!-- firewall_champion_barrier&#45;&gt;firewall_final_protocol -->
<g id="edge59" class="edge">
<title>firewall_champion_barrier&#45;&gt;firewall_final_protocol</title>
<path fill="none" stroke="#7e57c2" d="M541.24,-976C556.35,-976 571.91,-976 586.93,-976"/>
<polygon fill="#7e57c2" stroke="#7e57c2" points="587.23,-979.5 597.23,-976 587.23,-972.5 587.23,-979.5"/>
</g>
<!-- firewall_champion_counter&#45;&gt;firewall_final_protocol -->
<g id="edge61" class="edge">
<title>firewall_champion_counter&#45;&gt;firewall_final_protocol</title>
<path fill="none" stroke="#7e57c2" d="M521.59,-940.06C544.24,-945.1 568.99,-950.61 592.17,-955.77"/>
<polygon fill="#7e57c2" stroke="#7e57c2" points="591.47,-959.2 601.99,-957.96 592.99,-952.37 591.47,-959.2"/>
</g>
<!-- firewall_final_retaliate -->
<g id="node51" class="node">
<title>firewall_final_retaliate</title>
<path fill="lightgrey" stroke="black" d="M759.5,-940C759.5,-940 608.5,-940 608.5,-940 602.5,-940 596.5,-934 596.5,-928 596.5,-928 596.5,-916 596.5,-916 596.5,-910 602.5,-904 608.5,-904 608.5,-904 759.5,-904 759.5,-904 765.5,-904 771.5,-910 771.5,-916 771.5,-916 771.5,-928 771.5,-928 771.5,-934 765.5,-940 759.5,-940"/>
<text text-anchor="middle" x="684" y="-918.3" font-family="Times,serif" font-size="14.00">firewall_final_retaliate</text>
</g>
<!-- firewall_champion_counter&#45;&gt;firewall_final_retaliate -->
<g id="edge60" class="edge">
<title>firewall_champion_counter&#45;&gt;firewall_final_retaliate</title>
<path fill="none" stroke="#7e57c2" d="M543.34,-922C557.57,-922 572.15,-922 586.27,-922"/>
<polygon fill="#7e57c2" stroke="#7e57c2" points="586.45,-925.5 596.45,-922 586.45,-918.5 586.45,-925.5"/>
</g>
<!-- firewall_champion_patch&#45;&gt;firewall_final_fortress -->
<g id="edge63" class="edge">
<title>firewall_champion_patch&#45;&gt;firewall_final_fortress</title>
<path fill="none" stroke="#7e57c2" d="M535.65,-1030C553.06,-1030 571.23,-1030 588.62,-1030"/>
<polygon fill="#7e57c2" stroke="#7e57c2" points="588.76,-1033.5 598.76,-1030 588.76,-1026.5 588.76,-1033.5"/>
</g>
<!-- firewall_champion_patch&#45;&gt;firewall_final_protocol -->
<g id="edge62" class="edge">
<title>firewall_champion_patch&#45;&gt;firewall_final_protocol</title>
<path fill="none" stroke="#7e57c2" d="M521.59,-1011.94C544.24,-1006.9 568.99,-1001.39 592.17,-996.23"/>
<polygon fill="#7e57c2" stroke="#7e57c2" points="592.99,-999.63 601.99,-994.04 591.47,-992.8 592.99,-999.63"/>
</g>
<!-- pulse_baby -->
<g id="node52" class="node">
<title>pulse_baby</title>
<path fill="#f06292" stroke="black" d="M98,-1156C98,-1156 26,-1156 26,-1156 20,-1156 14,-1150 14,-1144 14,-1144 14,-1132 14,-1132 14,-1126 20,-1120 26,-1120 26,-1120 98,-1120 98,-1120 104,-1120 110,-1126 110,-1132 110,-1132 110,-1144 110,-1144 110,-1150 104,-1156 98,-1156"/>
<text text-anchor="middle" x="62" y="-1134.3" font-family="Times,serif" font-size="14.00">pulse_baby</text>
</g>
<!-- pulse_rookie -->
<g id="node53" class="node">
<title>pulse_rookie</title>
<path fill="#f06292" stroke="black" d="M268,-1156C268,-1156 186,-1156 186,-1156 180,-1156 174,-1150 174,-1144 174,-1144 174,-1132 174,-1132 174,-1126 180,-1120 186,-1120 186,-1120 268,-1120 268,-1120 274,-1120 280,-1126 280,-1132 280,-1132 280,-1144 280,-1144 280,-1150 274,-1156 268,-1156"/>
<text text-anchor="middle" x="227" y="-1134.3" font-family="Times,serif" font-size="14.00">pulse_rookie</text>
</g>
<!-- pulse_baby&#45;&gt;pulse_rookie -->
<g id="edge64" class="edge">
<title>pulse_baby&#45;&gt;pulse_rookie</title>
<path fill="none" stroke="black" d="M110.15,-1138C126.81,-1138 145.82,-1138 163.55,-1138"/>
<polygon fill="black" stroke="black" points="163.82,-1141.5 173.82,-1138 163.82,-1134.5 163.82,-1141.5"/>
</g>
<!-- pulse_champion_surge -->
<g id="node54" class="node">
<title>pulse_champion_surge</title>
<path fill="#f06292" stroke="black" d="M516.5,-1156C516.5,-1156 362.5,-1156 362.5,-1156 356.5,-1156 350.5,-1150 350.5,-1144 350.5,-1144 350.5,-1132 350.5,-1132 350.5,-1126 356.5,-1120 362.5,-1120 362.5,-1120 516.5,-1120 516.5,-1120 522.5,-1120 528.5,-1126 528.5,-1132 528.5,-1132 528.5,-1144 528.5,-1144 528.5,-1150 522.5,-1156 516.5,-1156"/>
<text text-anchor="middle" x="439.5" y="-1134.3" font-family="Times,serif" font-size="14.00">pulse_champion_surge</text>
</g>
<!-- pulse_rookie&#45;&gt;pulse_champion_surge -->
<g id="edge65" class="edge">
<title>pulse_rookie&#45;&gt;pulse_champion_surge</title>
<path fill="none" stroke="#7e57c2" d="M280.03,-1138C298.24,-1138 319.33,-1138 340.06,-1138"/>
<polygon fill="#7e57c2" stroke="#7e57c2" points="340.2,-1141.5 350.2,-1138 340.2,-1134.5 340.2,-1141.5"/>
</g>
<!-- pulse_champion_resonance -->
<g id="node55" class="node">
<title>pulse_champion_resonance</title>
<path fill="#f06292" stroke="black" d="M532.5,-1102C532.5,-1102 346.5,-1102 346.5,-1102 340.5,-1102 334.5,-1096 334.5,-1090 334.5,-1090 334.5,-1078 334.5,-1078 334.5,-1072 340.5,-1066 346.5,-1066 346.5,-1066 532.5,-1066 532.5,-1066 538.5,-1066 544.5,-1072 544.5,-1078 544.5,-1078 544.5,-1090 544.5,-1090 544.5,-1096 538.5,-1102 532.5,-1102"/>
<text text-anchor="middle" x="439.5" y="-1080.3" font-family="Times,serif" font-size="14.00">pulse_champion_resonance</text>
</g>
<!-- pulse_rookie&#45;&gt;pulse_champion_resonance -->
<g id="edge66" class="edge">
<title>pulse_rookie&#45;&gt;pulse_champion_resonance</title>
<path fill="none" stroke="#7e57c2" d="M280.11,-1124.05C296.11,-1119.81 313.77,-1115.17 330,-1111 338.33,-1108.86 347.03,-1106.65 355.72,-1104.46"/>
<polygon fill="#7e57c2" stroke="#7e57c2" points="356.66,-1107.84 365.51,-1102.01 354.96,-1101.05 356.66,-1107.84"/>
</g>
<!-- pulse_champion_static -->
<g id="node56" class="node">
<title>pulse_champion_static</title>
<path fill="#f06292" stroke="black" d="M516,-1210C516,-1210 363,-1210 363,-1210 357,-1210 351,-1204 351,-1198 351,-1198 351,-1186 351,-1186 351,-1180 357,-1174 363,-1174 363,-1174 516,-1174 516,-1174 522,-1174 528,-1180 528,-1186 528,-1186 528,-1198 528,-1198 528,-1204 522,-1210 516,-1210"/>
<text text-anchor="middle" x="439.5" y="-1188.3" font-family="Times,serif" font-size="14.00">pulse_champion_static</text>
</g>
<!-- pulse_rookie&#45;&gt;pulse_champion_static -->
<g id="edge67" class="edge">
<title>pulse_rookie&#45;&gt;pulse_champion_static</title>
<path fill="none" stroke="#7e57c2" d="M280.11,-1151.95C296.11,-1156.19 313.77,-1160.83 330,-1165 338.33,-1167.14 347.03,-1169.35 355.72,-1171.54"/>
<polygon fill="#7e57c2" stroke="#7e57c2" points="354.96,-1174.95 365.51,-1173.99 356.66,-1168.16 354.96,-1174.95"/>
</g>
<!-- pulse_final_overdrive -->
<g id="node57" class="node">
<title>pulse_final_overdrive</title>
<path fill="lightgrey" stroke="black" d="M755.5,-1210C755.5,-1210 612.5,-1210 612.5,-1210 606.5,-1210 600.5,-1204 600.5,-1198 600.5,-1198 600.5,-1186 600.5,-1186 600.5,-1180 606.5,-1174 612.5,-1174 612.5,-1174 755.5,-1174 755.5,-1174 761.5,-1174 767.5,-1180 767.5,-1186 767.5,-1186 767.5,-1198 767.5,-1198 767.5,-1204 761.5,-1210 755.5,-1210"/>
<text text-anchor="middle" x="684" y="-1188.3" font-family="Times,serif" font-size="14.00">pulse_final_overdrive</text>
</g>
<!-- pulse_champion_surge&#45;&gt;pulse_final_overdrive -->
<g id="edge68" class="edge">
<title>pulse_champion_surge&#45;&gt;pulse_final_overdrive</title>
<path fill="none" stroke="#7e57c2" d="M521.59,-1156.06C544.24,-1161.1 568.99,-1166.61 592.17,-1171.77"/>
<polygon fill="#7e57c2" stroke="#7e57c2" points="591.47,-1175.2 601.99,-1173.96 592.99,-1168.37 591.47,-1175.2"/>
</g>
<!-- pulse_final_sync -->
<g id="node58" class="node">
<title>pulse_final_sync</title>
<path fill="lightgrey" stroke="black" d="M737.5,-1102C737.5,-1102 630.5,-1102 630.5,-1102 624.5,-1102 618.5,-1096 618.5,-1090 618.5,-1090 618.5,-1078 618.5,-1078 618.5,-1072 624.5,-1066 630.5,-1066 630.5,-1066 737.5,-1066 737.5,-1066 743.5,-1066 749.5,-1072 749.5,-1078 749.5,-1078 749.5,-1090 749.5,-1090 749.5,-1096 743.5,-1102 737.5,-1102"/>
<text text-anchor="middle" x="684" y="-1080.3" font-family="Times,serif" font-size="14.00">pulse_final_sync</text>
</g>
<!-- pulse_champion_surge&#45;&gt;pulse_final_sync -->
<g id="edge69" class="edge">
<title>pulse_champion_surge&#45;&gt;pulse_final_sync</title>
<path fill="none" stroke="#7e57c2" d="M521.59,-1119.94C549.67,-1113.69 580.99,-1106.72 608.52,-1100.59"/>
<polygon fill="#7e57c2" stroke="#7e57c2" points="609.47,-1103.96 618.47,-1098.37 607.95,-1097.13 609.47,-1103.96"/>
</g>
<!-- pulse_champion_resonance&#45;&gt;pulse_final_sync -->
<g id="edge70" class="edge">
<title>pulse_champion_resonance&#45;&gt;pulse_final_sync</title>
<path fill="none" stroke="#7e57c2" d="M544.75,-1084C566.16,-1084 588.3,-1084 608.41,-1084"/>
<polygon fill="#7e57c2" stroke="#7e57c2" points="608.42,-1087.5 618.42,-1084 608.42,-1080.5 608.42,-1087.5"/>
</g>
<!-- pulse_final_staticstorm -->
<g id="node59" class="node">
<title>pulse_final_staticstorm</title>
<path fill="lightgrey" stroke="black" d="M762.5,-1156C762.5,-1156 605.5,-1156 605.5,-1156 599.5,-1156 593.5,-1150 593.5,-1144 593.5,-1144 593.5,-1132 593.5,-1132 593.5,-1126 599.5,-1120 605.5,-1120 605.5,-1120 762.5,-1120 762.5,-1120 768.5,-1120 774.5,-1126 774.5,-1132 774.5,-1132 774.5,-1144 774.5,-1144 774.5,-1150 768.5,-1156 762.5,-1156"/>
<text text-anchor="middle" x="684" y="-1134.3" font-family="Times,serif" font-size="14.00">pulse_final_staticstorm</text>
</g>
<!-- pulse_champion_resonance&#45;&gt;pulse_final_staticstorm -->
<g id="edge71" class="edge">
<title>pulse_champion_resonance&#45;&gt;pulse_final_staticstorm</title>
<path fill="none" stroke="#7e57c2" d="M521.59,-1102.06C544.24,-1107.1 568.99,-1112.61 592.17,-1117.77"/>
<polygon fill="#7e57c2" stroke="#7e57c2" points="591.47,-1121.2 601.99,-1119.96 592.99,-1114.37 591.47,-1121.2"/>
</g>
<!-- pulse_champion_static&#45;&gt;pulse_final_overdrive -->
<g id="edge73" class="edge">
<title>pulse_champion_static&#45;&gt;pulse_final_overdrive</title>
<path fill="none" stroke="#7e57c2" d="M528.05,-1192C548.24,-1192 569.79,-1192 590.2,-1192"/>
<polygon fill="#7e57c2" stroke="#7e57c2" points="590.44,-1195.5 600.44,-1192 590.44,-1188.5 590.44,-1195.5"/>
</g>
<!-- pulse_champion_static&#45;&gt;pulse_final_staticstorm -->
<g id="edge72" class="edge">
<title>pulse_champion_static&#45;&gt;pulse_final_staticstorm</title>
<path fill="none" stroke="#7e57c2" d="M521.59,-1173.94C544.24,-1168.9 568.99,-1163.39 592.17,-1158.23"/>
<polygon fill="#7e57c2" stroke="#7e57c2" points="592.99,-1161.63 601.99,-1156.04 591.47,-1154.8 592.99,-1161.63"/>
</g>
<!-- corrupt_baby -->
<g id="node60" class="node">
<title>corrupt_baby</title>
<path fill="#ef5350" stroke="black" d="M105.5,-1318C105.5,-1318 18.5,-1318 18.5,-1318 12.5,-1318 6.5,-1312 6.5,-1306 6.5,-1306 6.5,-1294 6.5,-1294 6.5,-1288 12.5,-1282 18.5,-1282 18.5,-1282 105.5,-1282 105.5,-1282 111.5,-1282 117.5,-1288 117.5,-1294 117.5,-1294 117.5,-1306 117.5,-1306 117.5,-1312 111.5,-1318 105.5,-1318"/>
<text text-anchor="middle" x="62" y="-1296.3" font-family="Times,serif" font-size="14.00">corrupt_baby</text>
</g>
<!-- corrupt_rookie -->
<g id="node61" class="node">
<title>corrupt_rookie</title>
<path fill="#ef5350" stroke="black" d="M275.5,-1318C275.5,-1318 178.5,-1318 178.5,-1318 172.5,-1318 166.5,-1312 166.5,-1306 166.5,-1306 166.5,-1294 166.5,-1294 166.5,-1288 172.5,-1282 178.5,-1282 178.5,-1282 275.5,-1282 275.5,-1282 281.5,-1282 287.5,-1288 287.5,-1294 287.5,-1294 287.5,-1306 287.5,-1306 287.5,-1312 281.5,-1318 275.5,-1318"/>
<text text-anchor="middle" x="227" y="-1296.3" font-family="Times,serif" font-size="14.00">corrupt_rookie</text>
</g>
<!-- corrupt_baby&#45;&gt;corrupt_rookie -->
<g id="edge74" class="edge">
<title>corrupt_baby&#45;&gt;corrupt_rookie</title>
<path fill="none" stroke="black" d="M117.73,-1300C130.06,-1300 143.32,-1300 156.17,-1300"/>
<polygon fill="black" stroke="black" points="156.38,-1303.5 166.38,-1300 156.38,-1296.5 156.38,-1303.5"/>
</g>
<!-- corrupt_champion_glitch -->
<g id="node62" class="node">
<title>corrupt_champion_glitch</title>
<path fill="#ef5350" stroke="black" d="M524,-1372C524,-1372 355,-1372 355,-1372 349,-1372 343,-1366 343,-1360 343,-1360 343,-1348 343,-1348 343,-1342 349,-1336 355,-1336 355,-1336 524,-1336 524,-1336 530,-1336 536,-1342 536,-1348 536,-1348 536,-1360 536,-1360 536,-1366 530,-1372 524,-1372"/>
<text text-anchor="middle" x="439.5" y="-1350.3" font-family="Times,serif" font-size="14.00">corrupt_champion_glitch</text>
</g>
<!-- corrupt_rookie&#45;&gt;corrupt_champion_glitch -->
<g id="edge75" class="edge">
<title>corrupt_rookie&#45;&gt;corrupt_champion_glitch</title>
<path fill="none" stroke="#7e57c2" d="M287.56,-1315.93C301.48,-1319.6 316.25,-1323.47 330,-1327 338.33,-1329.14 347.03,-1331.35 355.72,-1333.54"/>
<polygon fill="#7e57c2" stroke="#7e57c2" points="354.96,-1336.95 365.51,-1335.99 356.66,-1330.16 354.96,-1336.95"/>
</g>
<!-- corrupt_champion_error -->
<g id="node63" class="node">
<title>corrupt_champion_error</title>
<path fill="#ef5350" stroke="black" d="M522,-1318C522,-1318 357,-1318 357,-1318 351,-1318 345,-1312 345,-1306 345,-1306 345,-1294 345,-1294 345,-1288 351,-1282 357,-1282 357,-1282 522,-1282 522,-1282 528,-1282 534,-1288 534,-1294 534,-1294 534,-1306 534,-1306 534,-1312 528,-1318 522,-1318"/>
<text text-anchor="middle" x="439.5" y="-1296.3" font-family="Times,serif" font-size="14.00">corrupt_champion_error</text>
</g>
<!-- corrupt_rookie&#45;&gt;corrupt_champion_error -->
<g id="edge76" class="edge">
<title>corrupt_rookie&#45;&gt;corrupt_champion_error</title>
<path fill="none" stroke="#7e57c2" d="M287.76,-1300C302.45,-1300 318.62,-1300 334.73,-1300"/>
<polygon fill="#7e57c2" stroke="#7e57c2" points="334.74,-1303.5 344.74,-1300 334.74,-1296.5 334.74,-1303.5"/>
</g>
<!-- corrupt_champion_patchfail -->
<g id="node64" class="node">
<title>corrupt_champion_patchfail</title>
<path fill="#ef5350" stroke="black" d="M535,-1264C535,-1264 344,-1264 344,-1264 338,-1264 332,-1258 332,-1252 332,-1252 332,-1240 332,-1240 332,-1234 338,-1228 344,-1228 344,-1228 535,-1228 535,-1228 541,-1228 547,-1234 547,-1240 547,-1240 547,-1252 547,-1252 547,-1258 541,-1264 535,-1264"/>
<text text-anchor="middle" x="439.5" y="-1242.3" font-family="Times,serif" font-size="14.00">corrupt_champion_patchfail</text>
</g>
<!-- corrupt_rookie&#45;&gt;corrupt_champion_patchfail -->
<g id="edge77" class="edge">
<title>corrupt_rookie&#45;&gt;corrupt_champion_patchfail</title>
<path fill="none" stroke="#7e57c2" d="M287.56,-1284.07C301.48,-1280.4 316.25,-1276.53 330,-1273 338.33,-1270.86 347.03,-1268.65 355.72,-1266.46"/>
<polygon fill="#7e57c2" stroke="#7e57c2" points="356.66,-1269.84 365.51,-1264.01 354.96,-1263.05 356.66,-1269.84"/>
</g>
<!-- corrupt_final_corruptcore -->
<g id="node65" class="node">
<title>corrupt_final_corruptcore</title>
<path fill="lightgrey" stroke="black" d="M771,-1345C771,-1345 597,-1345 597,-1345 591,-1345 585,-1339 585,-1333 585,-1333 585,-1321 585,-1321 585,-1315 591,-1309 597,-1309 597,-1309 771,-1309 771,-1309 777,-1309 783,-1315 783,-1321 783,-1321 783,-1333 783,-1333 783,-1339 777,-1345 771,-1345"/>
<text text-anchor="middle" x="684" y="-1323.3" font-family="Times,serif" font-size="14.00">corrupt_final_corruptcore</text>
</g>
<!-- corrupt_champion_glitch&#45;&gt;corrupt_final_corruptcore -->
<g id="edge78" class="edge">
<title>corrupt_champion_glitch&#45;&gt;corrupt_final_corruptcore</title>
<path fill="none" stroke="#7e57c2" d="M536.34,-1343.33C548.88,-1341.93 561.79,-1340.5 574.52,-1339.08"/>
<polygon fill="#7e57c2" stroke="#7e57c2" points="575.12,-1342.53 584.67,-1337.95 574.35,-1335.58 575.12,-1342.53"/>
</g>
<!-- corrupt_final_overrun -->
<g id="node66" class="node">
<title>corrupt_final_overrun</title>
<path fill="lightgrey" stroke="black" d="M757,-1291C757,-1291 611,-1291 611,-1291 605,-1291 599,-1285 599,-1279 599,-1279 599,-1267 599,-1267 599,-1261 605,-1255 611,-1255 611,-1255 757,-1255 757,-1255 763,-1255 769,-1261 769,-1267 769,-1267 769,-1279 769,-1279 769,-1285 763,-1291 757,-1291"/>
<text text-anchor="middle" x="684" y="-1269.3" font-family="Times,serif" font-size="14.00">corrupt_final_overrun</text>
</g>
<!-- corrupt_champion_glitch&#45;&gt;corrupt_final_overrun -->
<g id="edge79" class="edge">
<title>corrupt_champion_glitch&#45;&gt;corrupt_final_overrun</title>
<path fill="none" stroke="#7e57c2" d="M526.62,-1335.99C534.33,-1333.36 541.9,-1330.37 549,-1327 567.06,-1318.41 567.05,-1308.81 585,-1300 588.83,-1298.12 592.81,-1296.35 596.89,-1294.7"/>
<polygon fill="#7e57c2" stroke="#7e57c2" points="598.42,-1297.86 606.51,-1291.03 595.92,-1291.32 598.42,-1297.86"/>
</g>
<!-- corrupt_champion_error&#45;&gt;corrupt_final_corruptcore -->
<g id="edge81" class="edge">
<title>corrupt_champion_error&#45;&gt;corrupt_final_corruptcore</title>
<path fill="none" stroke="#7e57c2" d="M534.26,-1310.44C547.43,-1311.91 561.05,-1313.42 574.47,-1314.92"/>
<polygon fill="#7e57c2" stroke="#7e57c2" points="574.35,-1318.42 584.68,-1316.05 575.13,-1311.47 574.35,-1318.42"/>
</g>
<!-- corrupt_champion_error&#45;&gt;corrupt_final_overrun -->
<g id="edge80" class="edge">
<title>corrupt_champion_error&#45;&gt;corrupt_final_overrun</title>
<path fill="none" stroke="#7e57c2" d="M534.26,-1289.56C552.17,-1287.57 570.92,-1285.48 588.84,-1283.48"/>
<polygon fill="#7e57c2" stroke="#7e57c2" points="589.44,-1286.94 598.99,-1282.35 588.67,-1279.98 589.44,-1286.94"/>
</g>
<!-- corrupt_champion_patchfail&#45;&gt;corrupt_final_corruptcore -->
<g id="edge82" class="edge">
<title>corrupt_champion_patchfail&#45;&gt;corrupt_final_corruptcore</title>
<path fill="none" stroke="#7e57c2" d="M526.62,-1264.01C534.33,-1266.64 541.9,-1269.63 549,-1273 567.06,-1281.59 567.05,-1291.19 585,-1300 588.83,-1301.88 592.81,-1303.65 596.89,-1305.3"/>
<polygon fill="#7e57c2" stroke="#7e57c2" points="595.92,-1308.68 606.51,-1308.97 598.42,-1302.14 595.92,-1308.68"/>
</g>
<!-- corrupt_champion_patchfail&#45;&gt;corrupt_final_overrun -->
<g id="edge83" class="edge">
<title>corrupt_champion_patchfail&#45;&gt;corrupt_final_overrun</title>
<path fill="none" stroke="#7e57c2" d="M547.22,-1257.88C560.99,-1259.42 575.01,-1260.98 588.57,-1262.49"/>
<polygon fill="#7e57c2" stroke="#7e57c2" points="588.5,-1266 598.83,-1263.63 589.28,-1259.04 588.5,-1266"/>
</g>
<!-- void_baby -->
<g id="node67" class="node">
<title>void_baby</title>
<path fill="#b0bec5" stroke="black" d="M94,-1480C94,-1480 30,-1480 30,-1480 24,-1480 18,-1474 18,-1468 18,-1468 18,-1456 18,-1456 18,-1450 24,-1444 30,-1444 30,-1444 94,-1444 94,-1444 100,-1444 106,-1450 106,-1456 106,-1456 106,-1468 106,-1468 106,-1474 100,-1480 94,-1480"/>
<text text-anchor="middle" x="62" y="-1458.3" font-family="Times,serif" font-size="14.00">void_baby</text>
</g>
<!-- void_rookie -->
<g id="node68" class="node">
<title>void_rookie</title>
<path fill="#b0bec5" stroke="black" d="M264,-1480C264,-1480 190,-1480 190,-1480 184,-1480 178,-1474 178,-1468 178,-1468 178,-1456 178,-1456 178,-1450 184,-1444 190,-1444 190,-1444 264,-1444 264,-1444 270,-1444 276,-1450 276,-1456 276,-1456 276,-1468 276,-1468 276,-1474 270,-1480 264,-1480"/>
<text text-anchor="middle" x="227" y="-1458.3" font-family="Times,serif" font-size="14.00">void_rookie</text>
</g>
<!-- void_baby&#45;&gt;void_rookie -->
<g id="edge84" class="edge">
<title>void_baby&#45;&gt;void_rookie</title>
<path fill="none" stroke="black" d="M106.25,-1462C125.13,-1462 147.55,-1462 167.86,-1462"/>
<polygon fill="black" stroke="black" points="167.95,-1465.5 177.95,-1462 167.95,-1458.5 167.95,-1465.5"/>
</g>
<!-- void_champion_entropy -->
<g id="node69" class="node">
<title>void_champion_entropy</title>
<path fill="#b0bec5" stroke="black" d="M520,-1534C520,-1534 359,-1534 359,-1534 353,-1534 347,-1528 347,-1522 347,-1522 347,-1510 347,-1510 347,-1504 353,-1498 359,-1498 359,-1498 520,-1498 520,-1498 526,-1498 532,-1504 532,-1510 532,-1510 532,-1522 532,-1522 532,-1528 526,-1534 520,-1534"/>
<text text-anchor="middle" x="439.5" y="-1512.3" font-family="Times,serif" font-size="14.00">void_champion_entropy</text>
</g>
<!-- void_rookie&#45;&gt;void_champion_entropy -->
<g id="edge85" class="edge">
<title>void_rookie&#45;&gt;void_champion_entropy</title>
<path fill="none" stroke="#7e57c2" d="M276.22,-1474.92C293.2,-1479.43 312.43,-1484.49 330,-1489 338.33,-1491.14 347.03,-1493.35 355.72,-1495.54"/>
<polygon fill="#7e57c2" stroke="#7e57c2" points="354.96,-1498.95 365.51,-1497.99 356.66,-1492.16 354.96,-1498.95"/>
</g>
<!-- void_champion_gravity -->
<g id="node70" class="node">
<title>void_champion_gravity</title>
<path fill="#b0bec5" stroke="black" d="M517.5,-1426C517.5,-1426 361.5,-1426 361.5,-1426 355.5,-1426 349.5,-1420 349.5,-1414 349.5,-1414 349.5,-1402 349.5,-1402 349.5,-1396 355.5,-1390 361.5,-1390 361.5,-1390 517.5,-1390 517.5,-1390 523.5,-1390 529.5,-1396 529.5,-1402 529.5,-1402 529.5,-1414 529.5,-1414 529.5,-1420 523.5,-1426 517.5,-1426"/>
<text text-anchor="middle" x="439.5" y="-1404.3" font-family="Times,serif" font-size="14.00">void_champion_gravity</text>
</g>
<!-- void_rookie&#45;&gt;void_champion_gravity -->
<g id="edge86" class="edge">
<title>void_rookie&#45;&gt;void_champion_gravity</title>
<path fill="none" stroke="#7e57c2" d="M276.22,-1449.08C293.2,-1444.57 312.43,-1439.51 330,-1435 338.33,-1432.86 347.03,-1430.65 355.72,-1428.46"/>
<polygon fill="#7e57c2" stroke="#7e57c2" points="356.66,-1431.84 365.51,-1426.01 354.96,-1425.05 356.66,-1431.84"/>
</g>
<!-- void_champion_null -->
<g id="node71" class="node">
<title>void_champion_null</title>
<path fill="#b0bec5" stroke="black" d="M505.5,-1480C505.5,-1480 373.5,-1480 373.5,-1480 367.5,-1480 361.5,-1474 361.5,-1468 361.5,-1468 361.5,-1456 361.5,-1456 361.5,-1450 367.5,-1444 373.5,-1444 373.5,-1444 505.5,-1444 505.5,-1444 511.5,-1444 517.5,-1450 517.5,-1456 517.5,-1456 517.5,-1468 517.5,-1468 517.5,-1474 511.5,-1480 505.5,-1480"/>
<text text-anchor="middle" x="439.5" y="-1458.3" font-family="Times,serif" font-size="14.00">void_champion_null</text>
</g>
<!-- void_rookie&#45;&gt;void_champion_null -->
<g id="edge87" class="edge">
<title>void_rookie&#45;&gt;void_champion_null</title>
<path fill="none" stroke="#7e57c2" d="M276.03,-1462C298.31,-1462 325.51,-1462 351.23,-1462"/>
<polygon fill="#7e57c2" stroke="#7e57c2" points="351.38,-1465.5 361.38,-1462 351.38,-1458.5 351.38,-1465.5"/>
</g>
<!-- corrupt_final_glitch -->
<g id="node72" class="node">
<title>corrupt_final_glitch</title>
<path fill="lightgrey" stroke="black" d="M749.5,-1534C749.5,-1534 618.5,-1534 618.5,-1534 612.5,-1534 606.5,-1528 606.5,-1522 606.5,-1522 606.5,-1510 606.5,-1510 606.5,-1504 612.5,-1498 618.5,-1498 618.5,-1498 749.5,-1498 749.5,-1498 755.5,-1498 761.5,-1504 761.5,-1510 761.5,-1510 761.5,-1522 761.5,-1522 761.5,-1528 755.5,-1534 749.5,-1534"/>
<text text-anchor="middle" x="684" y="-1512.3" font-family="Times,serif" font-size="14.00">corrupt_final_glitch</text>
</g>
<!-- void_champion_entropy&#45;&gt;corrupt_final_glitch -->
<g id="edge88" class="edge">
<title>void_champion_entropy&#45;&gt;corrupt_final_glitch</title>
<path fill="none" stroke="#7e57c2" d="M532.18,-1516C553.16,-1516 575.39,-1516 596.16,-1516"/>
<polygon fill="#7e57c2" stroke="#7e57c2" points="596.22,-1519.5 606.22,-1516 596.22,-1512.5 596.22,-1519.5"/>
</g>
<!-- void_final_oblivion -->
<g id="node73" class="node">
<title>void_final_oblivion</title>
<path fill="lightgrey" stroke="black" d="M745.5,-1480C745.5,-1480 622.5,-1480 622.5,-1480 616.5,-1480 610.5,-1474 610.5,-1468 610.5,-1468 610.5,-1456 610.5,-1456 610.5,-1450 616.5,-1444 622.5,-1444 622.5,-1444 745.5,-1444 745.5,-1444 751.5,-1444 757.5,-1450 757.5,-1456 757.5,-1456 757.5,-1468 757.5,-1468 757.5,-1474 751.5,-1480 745.5,-1480"/>
<text text-anchor="middle" x="684" y="-1458.3" font-family="Times,serif" font-size="14.00">void_final_oblivion</text>
</g>
<!-- void_champion_entropy&#45;&gt;void_final_oblivion -->
<g id="edge89" class="edge">
<title>void_champion_entropy&#45;&gt;void_final_oblivion</title>
<path fill="none" stroke="#7e57c2" d="M521.59,-1497.94C546.87,-1492.31 574.78,-1486.1 600.18,-1480.44"/>
<polygon fill="#7e57c2" stroke="#7e57c2" points="601.15,-1483.81 610.15,-1478.22 599.63,-1476.98 601.15,-1483.81"/>
</g>
<!-- void_champion_gravity&#45;&gt;void_final_oblivion -->
<g id="edge91" class="edge">
<title>void_champion_gravity&#45;&gt;void_final_oblivion</title>
<path fill="none" stroke="#7e57c2" d="M521.59,-1426.06C546.87,-1431.69 574.78,-1437.9 600.18,-1443.56"/>
<polygon fill="#7e57c2" stroke="#7e57c2" points="599.63,-1447.02 610.15,-1445.78 601.15,-1440.19 599.63,-1447.02"/>
</g>
<!-- void_final_singularity -->
<g id="node74" class="node">
<title>void_final_singularity</title>
<path fill="lightgrey" stroke="black" d="M756,-1426C756,-1426 612,-1426 612,-1426 606,-1426 600,-1420 600,-1414 600,-1414 600,-1402 600,-1402 600,-1396 606,-1390 612,-1390 612,-1390 756,-1390 756,-1390 762,-1390 768,-1396 768,-1402 768,-1402 768,-1414 768,-1414 768,-1420 762,-1426 756,-1426"/>
<text text-anchor="middle" x="684" y="-1404.3" font-family="Times,serif" font-size="14.00">void_final_singularity</text>
</g>
<!-- void_champion_gravity&#45;&gt;void_final_singularity -->
<g id="edge90" class="edge">
<title>void_champion_gravity&#45;&gt;void_final_singularity</title>
<path fill="none" stroke="#7e57c2" d="M529.76,-1408C549.32,-1408 570.06,-1408 589.76,-1408"/>
<polygon fill="#7e57c2" stroke="#7e57c2" points="589.96,-1411.5 599.96,-1408 589.96,-1404.5 589.96,-1411.5"/>
</g>
<!-- void_champion_null&#45;&gt;void_final_oblivion -->
<g id="edge92" class="edge">
<title>void_champion_null&#45;&gt;void_final_oblivion</title>
<path fill="none" stroke="#7e57c2" d="M517.56,-1462C543.88,-1462 573.41,-1462 600.16,-1462"/>
<polygon fill="#7e57c2" stroke="#7e57c2" points="600.27,-1465.5 610.27,-1462 600.27,-1458.5 600.27,-1465.5"/>
</g>
<!-- void_champion_null&#45;&gt;void_final_singularity -->
<g id="edge93" class="edge">
<title>void_champion_null&#45;&gt;void_final_singularity</title>
<path fill="none" stroke="#7e57c2" d="M517.56,-1444.84C541.21,-1439.57 567.45,-1433.73 591.94,-1428.28"/>
<polygon fill="#7e57c2" stroke="#7e57c2" points="592.95,-1431.64 601.95,-1426.05 591.43,-1424.8 592.95,-1431.64"/>
</g>
<!-- core_baby -->
<g id="node75" class="node">
<title>core_baby</title>
<path fill="#4fc3f7" stroke="black" d="M94.5,-1669C94.5,-1669 29.5,-1669 29.5,-1669 23.5,-1669 17.5,-1663 17.5,-1657 17.5,-1657 17.5,-1645 17.5,-1645 17.5,-1639 23.5,-1633 29.5,-1633 29.5,-1633 94.5,-1633 94.5,-1633 100.5,-1633 106.5,-1639 106.5,-1645 106.5,-1645 106.5,-1657 106.5,-1657 106.5,-1663 100.5,-1669 94.5,-1669"/>
<text text-anchor="middle" x="62" y="-1647.3" font-family="Times,serif" font-size="14.00">core_baby</text>
</g>
<!-- core_rookie -->
<g id="node76" class="node">
<title>core_rookie</title>
<path fill="#4fc3f7" stroke="black" d="M264,-1669C264,-1669 190,-1669 190,-1669 184,-1669 178,-1663 178,-1657 178,-1657 178,-1645 178,-1645 178,-1639 184,-1633 190,-1633 190,-1633 264,-1633 264,-1633 270,-1633 276,-1639 276,-1645 276,-1645 276,-1657 276,-1657 276,-1663 270,-1669 264,-1669"/>
<text text-anchor="middle" x="227" y="-1647.3" font-family="Times,serif" font-size="14.00">core_rookie</text>
</g>
<!-- core_baby&#45;&gt;core_rookie -->
<g id="edge94" class="edge">
<title>core_baby&#45;&gt;core_rookie</title>
<path fill="none" stroke="black" d="M106.68,-1651C125.48,-1651 147.72,-1651 167.88,-1651"/>
<polygon fill="black" stroke="black" points="167.9,-1654.5 177.9,-1651 167.9,-1647.5 167.9,-1654.5"/>
</g>
<!-- core_champion_power -->
<g id="node77" class="node">
<title>core_champion_power</title>
<path fill="#4fc3f7" stroke="black" d="M514.5,-1723C514.5,-1723 364.5,-1723 364.5,-1723 358.5,-1723 352.5,-1717 352.5,-1711 352.5,-1711 352.5,-1699 352.5,-1699 352.5,-1693 358.5,-1687 364.5,-1687 364.5,-1687 514.5,-1687 514.5,-1687 520.5,-1687 526.5,-1693 526.5,-1699 526.5,-1699 526.5,-1711 526.5,-1711 526.5,-1717 520.5,-1723 514.5,-1723"/>
<text text-anchor="middle" x="439.5" y="-1701.3" font-family="Times,serif" font-size="14.00">core_champion_power</text>
</g>
<!-- core_rookie&#45;&gt;core_champion_power -->
<g id="edge95" class="edge">
<title>core_rookie&#45;&gt;core_champion_power</title>
<path fill="none" stroke="#7e57c2" d="M276.22,-1663.92C293.2,-1668.43 312.43,-1673.49 330,-1678 338.33,-1680.14 347.03,-1682.35 355.72,-1684.54"/>
<polygon fill="#7e57c2" stroke="#7e57c2" points="354.96,-1687.95 365.51,-1686.99 356.66,-1681.16 354.96,-1687.95"/>
</g>
<!-- core_champion_guard -->
<g id="node78" class="node">
<title>core_champion_guard</title>
<path fill="#4fc3f7" stroke="black" d="M513.5,-1669C513.5,-1669 365.5,-1669 365.5,-1669 359.5,-1669 353.5,-1663 353.5,-1657 353.5,-1657 353.5,-1645 353.5,-1645 353.5,-1639 359.5,-1633 365.5,-1633 365.5,-1633 513.5,-1633 513.5,-1633 519.5,-1633 525.5,-1639 525.5,-1645 525.5,-1645 525.5,-1657 525.5,-1657 525.5,-1663 519.5,-1669 513.5,-1669"/>
<text text-anchor="middle" x="439.5" y="-1647.3" font-family="Times,serif" font-size="14.00">core_champion_guard</text>
</g>
<!-- core_rookie&#45;&gt;core_champion_guard -->
<g id="edge96" class="edge">
<title>core_rookie&#45;&gt;core_champion_guard</title>
<path fill="none" stroke="#7e57c2" d="M276.03,-1651C296.01,-1651 319.94,-1651 343.21,-1651"/>
<polygon fill="#7e57c2" stroke="#7e57c2" points="343.48,-1654.5 353.48,-1651 343.48,-1647.5 343.48,-1654.5"/>
</g>
<!-- core_champion_speed -->
<g id="node79" class="node">
<title>core_champion_speed</title>
<path fill="#4fc3f7" stroke="black" d="M513.5,-1615C513.5,-1615 365.5,-1615 365.5,-1615 359.5,-1615 353.5,-1609 353.5,-1603 353.5,-1603 353.5,-1591 353.5,-1591 353.5,-1585 359.5,-1579 365.5,-1579 365.5,-1579 513.5,-1579 513.5,-1579 519.5,-1579 525.5,-1585 525.5,-1591 525.5,-1591 525.5,-1603 525.5,-1603 525.5,-1609 519.5,-1615 513.5,-1615"/>
<text text-anchor="middle" x="439.5" y="-1593.3" font-family="Times,serif" font-size="14.00">core_champion_speed</text>
</g>
<!-- core_rookie&#45;&gt;core_champion_speed -->
<g id="edge97" class="edge">
<title>core_rookie&#45;&gt;core_champion_speed</title>
<path fill="none" stroke="#7e57c2" d="M276.22,-1638.08C293.2,-1633.57 312.43,-1628.51 330,-1624 338.33,-1621.86 347.03,-1619.65 355.72,-1617.46"/>
<polygon fill="#7e57c2" stroke="#7e57c2" points="356.66,-1620.84 365.51,-1615.01 354.96,-1614.05 356.66,-1620.84"/>
</g>
<!-- core_final_overclock -->
<g id="node80" class="node">
<title>core_final_overclock</title>
<path fill="lightgrey" stroke="black" d="M751.5,-1750C751.5,-1750 616.5,-1750 616.5,-1750 610.5,-1750 604.5,-1744 604.5,-1738 604.5,-1738 604.5,-1726 604.5,-1726 604.5,-1720 610.5,-1714 616.5,-1714 616.5,-1714 751.5,-1714 751.5,-1714 757.5,-1714 763.5,-1720 763.5,-1726 763.5,-1726 763.5,-1738 763.5,-1738 763.5,-1744 757.5,-1750 751.5,-1750"/>
<text text-anchor="middle" x="684" y="-1728.3" font-family="Times,serif" font-size="14.00">core_final_overclock</text>
</g>
<!-- core_champion_power&#45;&gt;core_final_overclock -->
<g id="edge98" class="edge">
<title>core_champion_power&#45;&gt;core_final_overclock</title>
<path fill="none" stroke="#7e57c2" d="M526.68,-1714.6C548.64,-1717.04 572.27,-1719.67 594.35,-1722.13"/>
<polygon fill="#7e57c2" stroke="#7e57c2" points="594.05,-1725.62 604.38,-1723.25 594.83,-1718.66 594.05,-1725.62"/>
</g>
<!-- core_final_prime -->
<g id="node81" class="node">
<title>core_final_prime</title>
<path fill="lightgrey" stroke="black" d="M739,-1696C739,-1696 629,-1696 629,-1696 623,-1696 617,-1690 617,-1684 617,-1684 617,-1672 617,-1672 617,-1666 623,-1660 629,-1660 629,-1660 739,-1660 739,-1660 745,-1660 751,-1666 751,-1672 751,-1672 751,-1684 751,-1684 751,-1690 745,-1696 739,-1696"/>
<text text-anchor="middle" x="684" y="-1674.3" font-family="Times,serif" font-size="14.00">core_final_prime</text>
</g>
<!-- core_champion_power&#45;&gt;core_final_prime -->
<g id="edge99" class="edge">
<title>core_champion_power&#45;&gt;core_final_prime</title>
<path fill="none" stroke="#7e57c2" d="M526.68,-1695.4C552.88,-1692.49 581.47,-1689.3 606.95,-1686.47"/>
<polygon fill="#7e57c2" stroke="#7e57c2" points="607.37,-1689.94 616.92,-1685.36 606.6,-1682.99 607.37,-1689.94"/>
</g>
<!-- core_champion_guard&#45;&gt;core_final_prime -->
<g id="edge101" class="edge">
<title>core_champion_guard&#45;&gt;core_final_prime</title>
<path fill="none" stroke="#7e57c2" d="M525.66,-1660.48C552.04,-1663.42 580.93,-1666.64 606.68,-1669.5"/>
<polygon fill="#7e57c2" stroke="#7e57c2" points="606.43,-1673 616.75,-1670.62 607.2,-1666.04 606.43,-1673"/>
</g>
<!-- core_final_bastion -->
<g id="node82" class="node">
<title>core_final_bastion</title>
<path fill="lightgrey" stroke="black" d="M744,-1642C744,-1642 624,-1642 624,-1642 618,-1642 612,-1636 612,-1630 612,-1630 612,-1618 612,-1618 612,-1612 618,-1606 624,-1606 624,-1606 744,-1606 744,-1606 750,-1606 756,-1612 756,-1618 756,-1618 756,-1630 756,-1630 756,-1636 750,-1642 744,-1642"/>
<text text-anchor="middle" x="684" y="-1620.3" font-family="Times,serif" font-size="14.00">core_final_bastion</text>
</g>
<!-- core_champion_guard&#45;&gt;core_final_bastion -->
<g id="edge100" class="edge">
<title>core_champion_guard&#45;&gt;core_final_bastion</title>
<path fill="none" stroke="#7e57c2" d="M525.66,-1641.52C550.36,-1638.77 577.27,-1635.77 601.74,-1633.05"/>
<polygon fill="#7e57c2" stroke="#7e57c2" points="602.15,-1636.52 611.7,-1631.94 601.37,-1629.57 602.15,-1636.52"/>
</g>
<!-- core_champion_speed&#45;&gt;core_final_prime -->
<g id="edge103" class="edge">
<title>core_champion_speed&#45;&gt;core_final_prime</title>
<path fill="none" stroke="#7e57c2" d="M525.76,-1614.72C533.77,-1617.42 541.64,-1620.5 549,-1624 567.06,-1632.59 567.05,-1642.19 585,-1651 592.02,-1654.44 599.54,-1657.5 607.19,-1660.21"/>
<polygon fill="#7e57c2" stroke="#7e57c2" points="606.31,-1663.61 616.9,-1663.45 608.52,-1656.97 606.31,-1663.61"/>
</g>
<!-- core_final_photon -->
<g id="node83" class="node">
<title>core_final_photon</title>
<path fill="lightgrey" stroke="black" d="M742.5,-1588C742.5,-1588 625.5,-1588 625.5,-1588 619.5,-1588 613.5,-1582 613.5,-1576 613.5,-1576 613.5,-1564 613.5,-1564 613.5,-1558 619.5,-1552 625.5,-1552 625.5,-1552 742.5,-1552 742.5,-1552 748.5,-1552 754.5,-1558 754.5,-1564 754.5,-1564 754.5,-1576 754.5,-1576 754.5,-1582 748.5,-1588 742.5,-1588"/>
<text text-anchor="middle" x="684" y="-1566.3" font-family="Times,serif" font-size="14.00">core_final_photon</text>
</g>
<!-- core_champion_speed&#45;&gt;core_final_photon -->
<g id="edge102" class="edge">
<title>core_champion_speed&#45;&gt;core_final_photon</title>
<path fill="none" stroke="#7e57c2" d="M525.66,-1587.52C550.84,-1584.71 578.32,-1581.66 603.16,-1578.89"/>
<polygon fill="#7e57c2" stroke="#7e57c2" points="603.71,-1582.35 613.26,-1577.76 602.94,-1575.39 603.71,-1582.35"/>
</g>
</g>
</svg>
