<?xml version="1.0" encoding="UTF-8" standalone="no"?>
<!DOCTYPE svg PUBLIC "-//W3C//DTD SVG 1.1//EN"
 "http://www.w3.org/Graphics/SVG/1.1/DTD/svg11.dtd">
<!-- Generated by graphviz version 2.43.0 (0)
 -->
<!-- Title: EvolutionTree Pages: 1 -->
<svg width="791pt" height="1765pt"
 viewBox="0.00 0.00 791.00 1765.00" xmlns="http://www.w3.org/2000/svg" xmlns:xlink="http://www.w3.org/1999/xlink">
<g id="graph0" class="graph" transform="scale(1 1) rotate(0) translate(4 1761)">
<title>EvolutionTree</title>
<polygon fill="white" stroke="transparent" points="-4,4 -4,-1761 787,-1761 787,4 -4,4"/>
<!-- cloud_baby -->
<g id="node1" class="node">
<title>cloud_baby</title>
<path fill="#90caf9" stroke="black" d="M98,-90C98,-90 26,-90 26,-90 20,-90 14,-84 14,-78 14,-78 14,-66 14,-66 14,-60 20,-54 26,-54 26,-54 98,-54 98,-54 104,-54 110,-60 110,-66 110,-66 110,-78 110,-78 110,-84 104,-90 98,-90"/>
<text text-anchor="middle" x="62" y="-68.3" font-family="Times,serif" font-size="14.00">cloud_baby</text>
</g>
<!-- cloud_rookie -->
<g id="node2" class="node">
<title>cloud_rookie</title>
<path fill="#90caf9" stroke="black" d="M268,-90C268,-90 186,-90 186,-90 180,-90 174,-84 174,-78 174,-78 174,-66 174,-66 174,-60 180,-54 186,-54 186,-54 268,-54 268,-54 274,-54 280,-60 280,-66 280,-66 280,-78 280,-78 280,-84 274,-90 268,-90"/>
<text text-anchor="middle" x="227" y="-68.3" font-family="Times,serif" font-size="14.00">cloud_rookie</text>
</g>
<!-- cloud_baby&#45;&gt;cloud_rookie -->
<g id="edge1" class="edge">
<title>cloud_baby&#45;&gt;cloud_rookie</title>
<path fill="none" stroke="black" d="M110.15,-72C126.81,-72 145.82,-72 163.55,-72"/>
<polygon fill="black" stroke="black" points="163.82,-75.5 173.82,-72 163.82,-68.5 163.82,-75.5"/>
</g>
<!-- cloud_champion_wind -->
<g id="node3" class="node">
<title>cloud_champion_wind</title>
<path fill="#90caf9" stroke="black" d="M513.5,-90C513.5,-90 365.5,-90 365.5,-90 359.5,-90 353.5,-84 353.5,-78 353.5,-78 353.5,-66 353.5,-66 353.5,-60 359.5,-54 365.5,-54 365.5,-54 513.5,-54 513.5,-54 519.5,-54 525.5,-60 525.5,-66 525.5,-66 525.5,-78 525.5,-78 525.5,-84 519.5,-90 513.5,-90"/>
<text text-anchor="middle" x="439.5" y="-68.3" font-family="Times,serif" font-size="14.00">cloud_champion_wind</text>
</g>
<!-- cloud_rookie&#45;&gt;cloud_champion_wind -->
<g id="edge2" class="edge">
<title>cloud_rookie&#45;&gt;cloud_champion_wind</title>
<path fill="none" stroke="#7e57c2" d="M280.03,-72C299.16,-72 321.47,-72 343.21,-72"/>
<polygon fill="#7e57c2" stroke="#7e57c2" points="343.48,-75.5 353.48,-72 343.48,-68.5 343.48,-75.5"/>
</g>
<!-- cloud_champion_rain -->
<g id="node4" class="node">
<title>cloud_champion_rain</title>
<path fill="#90caf9" stroke="black" d="M510.5,-36C510.5,-36 368.5,-36 368.5,-36 362.5,-36 356.5,-30 356.5,-24 356.5,-24 356.5,-12 356.5,-12 356.5,-6 362.5,0 368.5,0 368.5,0 510.5,0 510.5,0 516.5,0 522.5,-6 522.5,-12 522.5,-12 522.5,-24 522.5,-24 522.5,-30 516.5,-36 510.5,-36"/>
<text text-anchor="middle" x="439.5" y="-14.3" font-family="Times,serif" font-size="14.00">cloud_champion_rain</text>
</g>
<!-- cloud_rookie&#45;&gt;cloud_champion_rain -->
<g id="edge3" class="edge">
<title>cloud_rookie&#45;&gt;cloud_champion_rain</title>
<path fill="none" stroke="#7e57c2" d="M280.11,-58.05C296.11,-53.81 313.77,-49.17 330,-45 338.33,-42.86 347.03,-40.65 355.72,-38.46"/>
<polygon fill="#7e57c2" stroke="#7e57c2" points="356.66,-41.84 365.51,-36.01 354.96,-35.05 356.66,-41.84"/>
</g>
<!-- cloud_champion_storm -->
<g id="node5" class="node">
<title>cloud_champion_storm</title>
<path fill="#90caf9" stroke="black" d="M517,-144C517,-144 362,-144 362,-144 356,-144 350,-138 350,-132 350,-132 350,-120 350,-120 350,-114 356,-108 362,-108 362,-108 517,-108 517,-108 523,-108 529,-114 529,-120 529,-120 529,-132 529,-132 529,-138 523,-144 517,-144"/>
<text text-anchor="middle" x="439.5" y="-122.3" font-family="Times,serif" font-size="14.00">cloud_champion_storm</text>
</g>
<!-- cloud_rookie&#45;&gt;cloud_champion_storm -->
<g id="edge4" class="edge">
<title>cloud_rookie&#45;&gt;cloud_champion_storm</title>
<path fill="none" stroke="#7e57c2" d="M280.11,-85.95C296.11,-90.19 313.77,-94.83 330,-99 338.33,-101.14 347.03,-103.35 355.72,-105.54"/>
<polygon fill="#7e57c2" stroke="#7e57c2" points="354.96,-108.95 365.51,-107.99 356.66,-102.16 354.96,-108.95"/>
</g>
<!-- cloud_final_jetstream -->
<g id="node6" class="node">
<title>cloud_final_jetstream</title>
<path fill="lightgrey" stroke="black" d="M756,-144C756,-144 612,-144 612,-144 606,-144 600,-138 600,-132 600,-132 600,-120 600,-120 600,-114 606,-108 612,-108 612,-108 756,-108 756,-108 762,-108 768,-114 768,-120 768,-120 768,-132 768,-132 768,-138 762,-144 756,-144"/>
<text text-anchor="middle" x="684" y="-122.3" font-family="Times,serif" font-size="14.00">cloud_final_jetstream</text>
</g>
<!-- cloud_champion_wind&#45;&gt;cloud_final_jetstream -->
<g id="edge5" class="edge">
<title>cloud_champion_wind&#45;&gt;cloud_final_jetstream</title>
<path fill="none" stroke="#7e57c2" d="M521.59,-90.06C544.24,-95.1 568.99,-100.61 592.17,-105.77"/>
<polygon fill="#7e57c2" stroke="#7e57c2" points="591.47,-109.2 601.99,-107.96 592.99,-102.37 591.47,-109.2"/>
</g>
<!-- cloud_final_halo -->
<g id="node7" class="node">
<title>cloud_final_halo</title>
<path fill="lightgrey" stroke="black" d="M736.5,-36C736.5,-36 631.5,-36 631.5,-36 625.5,-36 619.5,-30 619.5,-24 619.5,-24 619.5,-12 619.5,-12 619.5,-6 625.5,0 631.5,0 631.5,0 736.5,0 736.5,0 742.5,0 748.5,-6 748.5,-12 748.5,-12 748.5,-24 748.5,-24 748.5,-30 742.5,-36 736.5,-36"/>
<text text-anchor="middle" x="684" y="-14.3" font-family="Times,serif" font-size="14.00">cloud_final_halo</text>
</g>
<!-- cloud_champion_wind&#45;&gt;cloud_final_halo -->
<g id="edge6" class="edge">
<title>cloud_champion_wind&#45;&gt;cloud_final_halo</title>
<path fill="none" stroke="#7e57c2" d="M521.59,-53.94C549.91,-47.64 581.54,-40.59 609.24,-34.43"/>
<polygon fill="#7e57c2" stroke="#7e57c2" points="610.25,-37.79 619.25,-32.2 608.73,-30.95 610.25,-37.79"/>
</g>
<!-- cloud_champion_rain&#45;&gt;cloud_final_halo -->
<g id="edge7" class="edge">
<title>cloud_champion_rain&#45;&gt;cloud_final_halo</title>
<path fill="none" stroke="#7e57c2" d="M522.6,-18C550.62,-18 581.77,-18 609.11,-18"/>
<polygon fill="#7e57c2" stroke="#7e57c2" points="609.39,-21.5 619.39,-18 609.38,-14.5 609.39,-21.5"/>
</g>
<!-- cloud_final_tempest -->
<g id="node8" class="node">
<title>cloud_final_tempest</title>
<path fill="lightgrey" stroke="black" d="M751,-90C751,-90 617,-90 617,-90 611,-90 605,-84 605,-78 605,-78 605,-66 605,-66 605,-60 611,-54 617,-54 617,-54 751,-54 751,-54 757,-54 763,-60 763,-66 763,-66 763,-78 763,-78 763,-84 757,-90 751,-90"/>
<text text-anchor="middle" x="684" y="-68.3" font-family="Times,serif" font-size="14.00">cloud_final_tempest</text>
</g>
<!-- cloud_champion_rain&#45;&gt;cloud_final_tempest -->
<g id="edge8" class="edge">
<title>cloud_champion_rain&#45;&gt;cloud_final_tempest</title>
<path fill="none" stroke="#7e57c2" d="M521.59,-36.06C545.18,-41.31 571.07,-47.08 595.07,-52.42"/>
<polygon fill="#7e57c2" stroke="#7e57c2" points="594.35,-55.84 604.87,-54.6 595.87,-49.01 594.35,-55.84"/>
</g>
<!-- cloud_champion_storm&#45;&gt;cloud_final_jetstream -->
<g id="edge10" class="edge">
<title>cloud_champion_storm&#45;&gt;cloud_final_jetstream</title>
<path fill="none" stroke="#7e57c2" d="M529.08,-126C548.87,-126 569.92,-126 589.89,-126"/>
<polygon fill="#7e57c2" stroke="#7e57c2" points="589.91,-129.5 599.91,-126 589.91,-122.5 589.91,-129.5"/>
</g>
<!-- cloud_champion_storm&#45;&gt;cloud_final_tempest -->
<g id="edge9" class="edge">
<title>cloud_champion_storm&#45;&gt;cloud_final_tempest</title>
<path fill="none" stroke="#7e57c2" d="M521.59,-107.94C545.18,-102.69 571.07,-96.92 595.07,-91.58"/>
<polygon fill="#7e57c2" stroke="#7e57c2" points="595.87,-94.99 604.87,-89.4 594.35,-88.16 595.87,-94.99"/>
</g>
<!-- firewall_baby -->
<g id="node9" class="node">
<title>firewall_baby</title>
<path fill="#ff8a65" stroke="black" d="M105.5,-252C105.5,-252 18.5,-252 18.5,-252 12.5,-252 6.5,-246 6.5,-240 6.5,-240 6.5,-228 6.5,-228 6.5,-222 12.5,-216 18.5,-216 18.5,-216 105.5,-216 105.5,-216 111.5,-216 117.5,-222 117.5,-228 117.5,-228 117.5,-240 117.5,-240 117.5,-246 111.5,-252 105.5,-252"/>
<text text-anchor="middle" x="62" y="-230.3" font-family="Times,serif" font-size="14.00">firewall_baby</text>
</g>
<!-- firewall_rookie -->
<g id="node10" class="node">
<title>firewall_rookie</title>
<path fill="#ff8a65" stroke="black" d="M275.5,-252C275.5,-252 178.5,-252 178.5,-252 172.5,-252 166.5,-246 166.5,-240 166.5,-240 166.5,-228 166.5,-228 166.5,-222 172.5,-216 178.5,-216 178.5,-216 275.5,-216 275.5,-216 281.5,-216 287.5,-222 287.5,-228 287.5,-228 287.5,-240 287.5,-240 287.5,-246 281.5,-252 275.5,-252"/>
<text text-anchor="middle" x="227" y="-230.3" font-family="Times,serif" font-size="14.00">firewall_rookie</text>
</g>
<!-- firewall_baby&#45;&gt;firewall_rookie -->
<g id="edge11" class="edge">
<title>firewall_baby&#45;&gt;firewall_rookie</title>
<path fill="none" stroke="black" d="M117.73,-234C130.06,-234 143.32,-234 156.17,-234"/>
<polygon fill="black" stroke="black" points="156.38,-237.5 166.38,-234 156.38,-230.5 156.38,-237.5"/>
</g>
<!-- firewall_champion_barrier -->
<g id="node11" class="node">
<title>firewall_champion_barrier</title>
<path fill="#ff8a65" stroke="black" d="M529,-252C529,-252 350,-252 350,-252 344,-252 338,-246 338,-240 338,-240 338,-228 338,-228 338,-222 344,-216 350,-216 350,-216 529,-216 529,-216 535,-216 541,-222 541,-228 541,-228 541,-240 541,-240 541,-246 535,-252 529,-252"/>
<text text-anchor="middle" x="439.5" y="-230.3" font-family="Times,serif" font-size="14.00">firewall_champion_barrier</text>
</g>
<!-- firewall_rookie&#45;&gt;firewall_champion_barrier -->
<g id="edge12" class="edge">
<title>firewall_rookie&#45;&gt;firewall_champion_barrier</title>
<path fill="none" stroke="#7e57c2" d="M287.76,-234C300.38,-234 314.07,-234 327.89,-234"/>
<polygon fill="#7e57c2" stroke="#7e57c2" points="327.97,-237.5 337.97,-234 327.97,-230.5 327.97,-237.5"/>
</g>
<!-- firewall_champion_counter -->
<g id="node12" class="node">
<title>firewall_champion_counter</title>
<path fill="#ff8a65" stroke="black" d="M531,-198C531,-198 348,-198 348,-198 342,-198 336,-192 336,-186 336,-186 336,-174 336,-174 336,-168 342,-162 348,-162 348,-162 531,-162 531,-162 537,-162 543,-168 543,-174 543,-174 543,-186 543,-186 543,-192 537,-198 531,-198"/>
<text text-anchor="middle" x="439.5" y="-176.3" font-family="Times,serif" font-size="14.00">firewall_champion_counter</text>
</g>
<!-- firewall_rookie&#45;&gt;firewall_champion_counter -->
<g id="edge13" class="edge">
<title>firewall_rookie&#45;&gt;firewall_champion_counter</title>
<path fill="none" stroke="#7e57c2" d="M287.56,-218.07C301.48,-214.4 316.25,-210.53 330,-207 338.33,-204.86 347.03,-202.65 355.72,-200.46"/>
<polygon fill="#7e57c2" stroke="#7e57c2" points="356.66,-203.84 365.51,-198.01 354.96,-197.05 356.66,-203.84"/>
</g>
<!-- firewall_champion_patch -->
<g id="node13" class="node">
<title>firewall_champion_patch</title>
<path fill="#ff8a65" stroke="black" d="M523.5,-306C523.5,-306 355.5,-306 355.5,-306 349.5,-306 343.5,-300 343.5,-294 343.5,-294 343.5,-282 343.5,-282 343.5,-276 349.5,-270 355.5,-270 355.5,-270 523.5,-270 523.5,-270 529.5,-270 535.5,-276 535.5,-282 535.5,-282 535.5,-294 535.5,-294 535.5,-300 529.5,-306 523.5,-306"/>
<text text-anchor="middle" x="439.5" y="-284.3" font-family="Times,serif" font-size="14.00">firewall_champion_patch</text>
</g>
<!-- firewall_rookie&#45;&gt;firewall_champion_patch -->
<g id="edge14" class="edge">
<title>firewall_rookie&#45;&gt;firewall_champion_patch</title>
<path fill="none" stroke="#7e57c2" d="M287.56,-249.93C301.48,-253.6 316.25,-257.47 330,-261 338.33,-263.14 347.03,-265.35 355.72,-267.54"/>
<polygon fill="#7e57c2" stroke="#7e57c2" points="354.96,-270.95 365.51,-269.99 356.66,-264.16 354.96,-270.95"/>
</g>
<!-- firewall_final_fortress -->
<g id="node14" class="node">
<title>firewall_final_fortress</title>
<path fill="lightgrey" stroke="black" d="M757,-306C757,-306 611,-306 611,-306 605,-306 599,-300 599,-294 599,-294 599,-282 599,-282 599,-276 605,-270 611,-270 611,-270 757,-270 757,-270 763,-270 769,-276 769,-282 769,-282 769,-294 769,-294 769,-300 763,-306 757,-306"/>
<text text-anchor="middle" x="684" y="-284.3" font-family="Times,serif" font-size="14.00">firewall_final_fortress</text>
</g>
<!-- firewall_champion_barrier&#45;&gt;firewall_final_fortress -->
<g id="edge15" class="edge">
<title>firewall_champion_barrier&#45;&gt;firewall_final_fortress</title>
<path fill="none" stroke="#7e57c2" d="M521.59,-252.06C544.24,-257.1 568.99,-262.61 592.17,-267.77"/>
<polygon fill="#7e57c2" stroke="#7e57c2" points="591.47,-271.2 601.99,-269.96 592.99,-264.37 591.47,-271.2"/>
</g>
<!-- firewall_final_protocol -->
<g id="node15" class="node">
<title>firewall_final_protocol</title>
<path fill="lightgrey" stroke="black" d="M758.5,-252C758.5,-252 609.5,-252 609.5,-252 603.5,-252 597.5,-246 597.5,-240 597.5,-240 597.5,-228 597.5,-228 597.5,-222 603.5,-216 609.5,-216 609.5,-216 758.5,-216 758.5,-216 764.5,-216 770.5,-222 770.5,-228 770.5,-228 770.5,-240 770.5,-240 770.5,-246 764.5,-252 758.5,-252"/>
<text text-anchor="middle" x="684" y="-230.3" font-family="Times,serif" font-size="14.00">firewall_final_protocol</text>
</g>
<!-- firewall_champion_barrier&#45;&gt;firewall_final_protocol -->
<g id="edge16" class="edge">
<title>firewall_champion_barrier&#45;&gt;firewall_final_protocol</title>
<path fill="none" stroke="#7e57c2" d="M541.24,-234C556.35,-234 571.91,-234 586.93,-234"/>
<polygon fill="#7e57c2" stroke="#7e57c2" points="587.23,-237.5 597.23,-234 587.23,-230.5 587.23,-237.5"/>
</g>
<!-- firewall_champion_counter&#45;&gt;firewall_final_protocol -->
<g id="edge18" class="edge">
<title>firewall_champion_counter&#45;&gt;firewall_final_protocol</title>
<path fill="none" stroke="#7e57c2" d="M521.59,-198.06C544.24,-203.1 568.99,-208.61 592.17,-213.77"/>
<polygon fill="#7e57c2" stroke="#7e57c2" points="591.47,-217.2 601.99,-215.96 592.99,-210.37 591.47,-217.2"/>
</g>
<!-- firewall_final_retaliate -->
<g id="node16" class="node">
<title>firewall_final_retaliate</title>
<path fill="lightgrey" stroke="black" d="M759.5,-198C759.5,-198 608.5,-198 608.5,-198 602.5,-198 596.5,-192 596.5,-186 596.5,-186 596.5,-174 596.5,-174 596.5,-168 602.5,-162 608.5,-162 608.5,-162 759.5,-162 759.5,-162 765.5,-162 771.5,-168 771.5,-174 771.5,-174 771.5,-186 771.5,-186 771.5,-192 765.5,-198 759.5,-198"/>
<text text-anchor="middle" x="684" y="-176.3" font-family="Times,serif" font-size="14.00">firewall_final_retaliate</text>
</g>
<!-- firewall_champion_counter&#45;&gt;firewall_final_retaliate -->
<g id="edge17" class="edge">
<title>firewall_champion_counter&#45;&gt;firewall_final_retaliate</title>
<path fill="none" stroke="#7e57c2" d="M543.34,-180C557.57,-180 572.15,-180 586.27,-180"/>
<polygon fill="#7e57c2" stroke="#7e57c2" points="586.45,-183.5 596.45,-180 586.45,-176.5 586.45,-183.5"/>
</g>
<!-- firewall_champion_patch&#45;&gt;firewall_final_fortress -->
<g id="edge20" class="edge">
<title>firewall_champion_patch&#45;&gt;firewall_final_fortress</title>
<path fill="none" stroke="#7e57c2" d="M535.65,-288C553.06,-288 571.23,-288 588.62,-288"/>
<polygon fill="#7e57c2" stroke="#7e57c2" points="588.76,-291.5 598.76,-288 588.76,-284.5 588.76,-291.5"/>
</g>
<!-- firewall_champion_patch&#45;&gt;firewall_final_protocol -->
<g id="edge19" class="edge">
<title>firewall_champion_patch&#45;&gt;firewall_final_protocol</title>
<path fill="none" stroke="#7e57c2" d="M521.59,-269.94C544.24,-264.9 568.99,-259.39 592.17,-254.23"/>
<polygon fill="#7e57c2" stroke="#7e57c2" points="592.99,-257.63 601.99,-252.04 591.47,-250.8 592.99,-257.63"/>
</g>
<!-- core_baby -->
<g id="node17" class="node">
<title>core_baby</title>
<path fill="#4fc3f7" stroke="black" d="M94.5,-441C94.5,-441 29.5,-441 29.5,-441 23.5,-441 17.5,-435 17.5,-429 17.5,-429 17.5,-417 17.5,-417 17.5,-411 23.5,-405 29.5,-405 29.5,-405 94.5,-405 94.5,-405 100.5,-405 106.5,-411 106.5,-417 106.5,-417 106.5,-429 106.5,-429 106.5,-435 100.5,-441 94.5,-441"/>
<text text-anchor="middle" x="62" y="-419.3" font-family="Times,serif" font-size="14.00">core_baby</text>
</g>
<!-- core_rookie -->
<g id="node18" class="node">
<title>core_rookie</title>
<path fill="#4fc3f7" stroke="black" d="M264,-441C264,-441 190,-441 190,-441 184,-441 178,-435 178,-429 178,-429 178,-417 178,-417 178,-411 184,-405 190,-405 190,-405 264,-405 264,-405 270,-405 276,-411 276,-417 276,-417 276,-429 276,-429 276,-435 270,-441 264,-441"/>
<text text-anchor="middle" x="227" y="-419.3" font-family="Times,serif" font-size="14.00">core_rookie</text>
</g>
<!-- core_baby&#45;&gt;core_rookie -->
<g id="edge21" class="edge">
<title>core_baby&#45;&gt;core_rookie</title>
<path fill="none" stroke="black" d="M106.68,-423C125.48,-423 147.72,-423 167.88,-423"/>
<polygon fill="black" stroke="black" points="167.9,-426.5 177.9,-423 167.9,-419.5 167.9,-426.5"/>
</g>
<!-- core_champion_power -->
<g id="node19" class="node">
<title>core_champion_power</title>
<path fill="#4fc3f7" stroke="black" d="M514.5,-495C514.5,-495 364.5,-495 364.5,-495 358.5,-495 352.5,-489 352.5,-483 352.5,-483 352.5,-471 352.5,-471 352.5,-465 358.5,-459 364.5,-459 364.5,-459 514.5,-459 514.5,-459 520.5,-459 526.5,-465 526.5,-471 526.5,-471 526.5,-483 526.5,-483 526.5,-489 520.5,-495 514.5,-495"/>
<text text-anchor="middle" x="439.5" y="-473.3" font-family="Times,serif" font-size="14.00">core_champion_power</text>
</g>
<!-- core_rookie&#45;&gt;core_champion_power -->
<g id="edge22" class="edge">
<title>core_rookie&#45;&gt;core_champion_power</title>
<path fill="none" stroke="#7e57c2" d="M276.22,-435.92C293.2,-440.43 312.43,-445.49 330,-450 338.33,-452.14 347.03,-454.35 355.72,-456.54"/>
<polygon fill="#7e57c2" stroke="#7e57c2" points="354.96,-459.95 365.51,-458.99 356.66,-453.16 354.96,-459.95"/>
</g>
<!-- core_champion_guard -->
<g id="node20" class="node">
<title>core_champion_guard</title>
<path fill="#4fc3f7" stroke="black" d="M513.5,-441C513.5,-441 365.5,-441 365.5,-441 359.5,-441 353.5,-435 353.5,-429 353.5,-429 353.5,-417 353.5,-417 353.5,-411 359.5,-405 365.5,-405 365.5,-405 513.5,-405 513.5,-405 519.5,-405 525.5,-411 525.5,-417 525.5,-417 525.5,-429 525.5,-429 525.5,-435 519.5,-441 513.5,-441"/>
<text text-anchor="middle" x="439.5" y="-419.3" font-family="Times,serif" font-size="14.00">core_champion_guard</text>
</g>
<!-- core_rookie&#45;&gt;core_champion_guard -->
<g id="edge23" class="edge">
<title>core_rookie&#45;&gt;core_champion_guard</title>
<path fill="none" stroke="#7e57c2" d="M276.03,-423C296.01,-423 319.94,-423 343.21,-423"/>
<polygon fill="#7e57c2" stroke="#7e57c2" points="343.48,-426.5 353.48,-423 343.48,-419.5 343.48,-426.5"/>
</g>
<!-- core_champion_speed -->
<g id="node21" class="node">
<title>core_champion_speed</title>
<path fill="#4fc3f7" stroke="black" d="M513.5,-387C513.5,-387 365.5,-387 365.5,-387 359.5,-387 353.5,-381 353.5,-375 353.5,-375 353.5,-363 353.5,-363 353.5,-357 359.5,-351 365.5,-351 365.5,-351 513.5,-351 513.5,-351 519.5,-351 525.5,-357 525.5,-363 525.5,-363 525.5,-375 525.5,-375 525.5,-381 519.5,-387 513.5,-387"/>
<text text-anchor="middle" x="439.5" y="-365.3" font-family="Times,serif" font-size="14.00">core_champion_speed</text>
</g>
<!-- core_rookie&#45;&gt;core_champion_speed -->
<g id="edge24" class="edge">
<title>core_rookie&#45;&gt;core_champion_speed</title>
<path fill="none" stroke="#7e57c2" d="M276.22,-410.08C293.2,-405.57 312.43,-400.51 330,-396 338.33,-393.86 347.03,-391.65 355.72,-389.46"/>
<polygon fill="#7e57c2" stroke="#7e57c2" points="356.66,-392.84 365.51,-387.01 354.96,-386.05 356.66,-392.84"/>
</g>
<!-- core_final_overclock -->
<g id="node22" class="node">
<title>core_final_overclock</title>
<path fill="lightgrey" stroke="black" d="M751.5,-522C751.5,-522 616.5,-522 616.5,-522 610.5,-522 604.5,-516 604.5,-510 604.5,-510 604.5,-498 604.5,-498 604.5,-492 610.5,-486 616.5,-486 616.5,-486 751.5,-486 751.5,-486 757.5,-486 763.5,-492 763.5,-498 763.5,-498 763.5,-510 763.5,-510 763.5,-516 757.5,-522 751.5,-522"/>
<text text-anchor="middle" x="684" y="-500.3" font-family="Times,serif" font-size="14.00">core_final_overclock</text>
</g>
<!-- core_champion_power&#45;&gt;core_final_overclock -->
<g id="edge25" class="edge">
<title>core_champion_power&#45;&gt;core_final_overclock</title>
<path fill="none" stroke="#7e57c2" d="M526.68,-486.6C548.64,-489.04 572.27,-491.67 594.35,-494.13"/>
<polygon fill="#7e57c2" stroke="#7e57c2" points="594.05,-497.62 604.38,-495.25 594.83,-490.66 594.05,-497.62"/>
</g>
<!-- core_final_prime -->
<g id="node23" class="node">
<title>core_final_prime</title>
<path fill="lightgrey" stroke="black" d="M739,-468C739,-468 629,-468 629,-468 623,-468 617,-462 617,-456 617,-456 617,-444 617,-444 617,-438 623,-432 629,-432 629,-432 739,-432 739,-432 745,-432 751,-438 751,-444 751,-444 751,-456 751,-456 751,-462 745,-468 739,-468"/>
<text text-anchor="middle" x="684" y="-446.3" font-family="Times,serif" font-size="14.00">core_final_prime</text>
</g>
<!-- core_champion_power&#45;&gt;core_final_prime -->
<g id="edge26" class="edge">
<title>core_champion_power&#45;&gt;core_final_prime</title>
<path fill="none" stroke="#7e57c2" d="M526.68,-467.4C552.88,-464.49 581.47,-461.3 606.95,-458.47"/>
<polygon fill="#7e57c2" stroke="#7e57c2" points="607.37,-461.94 616.92,-457.36 606.6,-454.99 607.37,-461.94"/>
</g>
<!-- core_champion_guard&#45;&gt;core_final_prime -->
<g id="edge28" class="edge">
<title>core_champion_guard&#45;&gt;core_final_prime</title>
<path fill="none" stroke="#7e57c2" d="M525.66,-432.48C552.04,-435.42 580.93,-438.64 606.68,-441.5"/>
<polygon fill="#7e57c2" stroke="#7e57c2" points="606.43,-445 616.75,-442.62 607.2,-438.04 606.43,-445"/>
</g>
<!-- core_final_bastion -->
<g id="node24" class="node">
<title>core_final_bastion</title>
<path fill="lightgrey" stroke="black" d="M744,-414C744,-414 624,-414 624,-414 618,-414 612,-408 612,-402 612,-402 612,-390 612,-390 612,-384 618,-378 624,-378 624,-378 744,-378 744,-378 750,-378 756,-384 756,-390 756,-390 756,-402 756,-402 756,-408 750,-414 744,-414"/>
<text text-anchor="middle" x="684" y="-392.3" font-family="Times,serif" font-size="14.00">core_final_bastion</text>
</g>
<!-- core_champion_guard&#45;&gt;core_final_bastion -->
<g id="edge27" class="edge">
<title>core_champion_guard&#45;&gt;core_final_bastion</title>
<path fill="none" stroke="#7e57c2" d="M525.66,-413.52C550.36,-410.77 577.27,-407.77 601.74,-405.05"/>
<polygon fill="#7e57c2" stroke="#7e57c2" points="602.15,-408.52 611.7,-403.94 601.37,-401.57 602.15,-408.52"/>
</g>
<!-- core_champion_speed&#45;&gt;core_final_prime -->
<g id="edge30" class="edge">
<title>core_champion_speed&#45;&gt;core_final_prime</title>
<path fill="none" stroke="#7e57c2" d="M525.76,-386.72C533.77,-389.42 541.64,-392.5 549,-396 567.06,-404.59 567.05,-414.19 585,-423 592.02,-426.44 599.54,-429.5 607.19,-432.21"/>
<polygon fill="#7e57c2" stroke="#7e57c2" points="606.31,-435.61 616.9,-435.45 608.52,-428.97 606.31,-435.61"/>
</g>
<!-- core_final_photon -->
<g id="node25" class="node">
<title>core_final_photon</title>
<path fill="lightgrey" stroke="black" d="M742.5,-360C742.5,-360 625.5,-360 625.5,-360 619.5,-360 613.5,-354 613.5,-348 613.5,-348 613.5,-336 613.5,-336 613.5,-330 619.5,-324 625.5,-324 625.5,-324 742.5,-324 742.5,-324 748.5,-324 754.5,-330 754.5,-336 754.5,-336 754.5,-348 754.5,-348 754.5,-354 748.5,-360 742.5,-360"/>
<text text-anchor="middle" x="684" y="-338.3" font-family="Times,serif" font-size="14.00">core_final_photon</text>
</g>
<!-- core_champion_speed&#45;&gt;core_final_photon -->
<g id="edge29" class="edge">
<title>core_champion_speed&#45;&gt;core_final_photon</title>
<path fill="none" stroke="#7e57c2" d="M525.66,-359.52C550.84,-356.71 578.32,-353.66 603.16,-350.89"/>
<polygon fill="#7e57c2" stroke="#7e57c2" points="603.71,-354.35 613.26,-349.76 602.94,-347.39 603.71,-354.35"/>
</g>
<!-- pulse_baby -->
<g id="node26" class="node">
<title>pulse_baby</title>
<path fill="#f06292" stroke="black" d="M98,-630C98,-630 26,-630 26,-630 20,-630 14,-624 14,-618 14,-618 14,-606 14,-606 14,-600 20,-594 26,-594 26,-594 98,-594 98,-594 104,-594 110,-600 110,-606 110,-606 110,-618 110,-618 110,-624 104,-630 98,-630"/>
<text text-anchor="middle" x="62" y="-608.3" font-family="Times,serif" font-size="14.00">pulse_baby</text>
</g>
<!-- pulse_rookie -->
<g id="node27" class="node">
<title>pulse_rookie</title>
<path fill="#f06292" stroke="black" d="M268,-630C268,-630 186,-630 186,-630 180,-630 174,-624 174,-618 174,-618 174,-606 174,-606 174,-600 180,-594 186,-594 186,-594 268,-594 268,-594 274,-594 280,-600 280,-606 280,-606 280,-618 280,-618 280,-624 274,-630 268,-630"/>
<text text-anchor="middle" x="227" y="-608.3" font-family="Times,serif" font-size="14.00">pulse_rookie</text>
</g>
<!-- pulse_baby&#45;&gt;pulse_rookie -->
<g id="edge31" class="edge">
<title>pulse_baby&#45;&gt;pulse_rookie</title>
<path fill="none" stroke="black" d="M110.15,-612C126.81,-612 145.82,-612 163.55,-612"/>
<polygon fill="black" stroke="black" points="163.82,-615.5 173.82,-612 163.82,-608.5 163.82,-615.5"/>
</g>
<!-- pulse_champion_surge -->
<g id="node28" class="node">
<title>pulse_champion_surge</title>
<path fill="#f06292" stroke="black" d="M516.5,-630C516.5,-630 362.5,-630 362.5,-630 356.5,-630 350.5,-624 350.5,-618 350.5,-618 350.5,-606 350.5,-606 350.5,-600 356.5,-594 362.5,-594 362.5,-594 516.5,-594 516.5,-594 522.5,-594 528.5,-600 528.5,-606 528.5,-606 528.5,-618 528.5,-618 528.5,-624 522.5,-630 516.5,-630"/>
<text text-anchor="middle" x="439.5" y="-608.3" font-family="Times,serif" font-size="14.00">pulse_champion_surge</text>
</g>
<!-- pulse_rookie&#45;&gt;pulse_champion_surge -->
<g id="edge32" class="edge">
<title>pulse_rookie&#45;&gt;pulse_champion_surge</title>
<path fill="none" stroke="#7e57c2" d="M280.03,-612C298.24,-612 319.33,-612 340.06,-612"/>
<polygon fill="#7e57c2" stroke="#7e57c2" points="340.2,-615.5 350.2,-612 340.2,-608.5 340.2,-615.5"/>
</g>
<!-- pulse_champion_resonance -->
<g id="node29" class="node">
<title>pulse_champion_resonance</title>
<path fill="#f06292" stroke="black" d="M532.5,-576C532.5,-576 346.5,-576 346.5,-576 340.5,-576 334.5,-570 334.5,-564 334.5,-564 334.5,-552 334.5,-552 334.5,-546 340.5,-540 346.5,-540 346.5,-540 532.5,-540 532.5,-540 538.5,-540 544.5,-546 544.5,-552 544.5,-552 544.5,-564 544.5,-564 544.5,-570 538.5,-576 532.5,-576"/>
<text text-anchor="middle" x="439.5" y="-554.3" font-family="Times,serif" font-size="14.00">pulse_champion_resonance</text>
</g>
<!-- pulse_rookie&#45;&gt;pulse_champion_resonance -->
<g id="edge33" class="edge">
<title>pulse_rookie&#45;&gt;pulse_champion_resonance</title>
<path fill="none" stroke="#7e57c2" d="M280.11,-598.05C296.11,-593.81 313.77,-589.17 330,-585 338.33,-582.86 347.03,-580.65 355.72,-578.46"/>
<polygon fill="#7e57c2" stroke="#7e57c2" points="356.66,-581.84 365.51,-576.01 354.96,-575.05 356.66,-581.84"/>
</g>
<!-- pulse_champion_static -->
<g id="node30" class="node">
<title>pulse_champion_static</title>
<path fill="#f06292" stroke="black" d="M516,-684C516,-684 363,-684 363,-684 357,-684 351,-678 351,-672 351,-672 351,-660 351,-660 351,-654 357,-648 363,-648 363,-648 516,-648 516,-648 522,-648 528,-654 528,-660 528,-660 528,-672 528,-672 528,-678 522,-684 516,-684"/>
<text text-anchor="middle" x="439.5" y="-662.3" font-family="Times,serif" font-size="14.00">pulse_champion_static</text>
</g>
<!-- pulse_rookie&#45;&gt;pulse_champion_static -->
<g id="edge34" class="edge">
<title>pulse_rookie&#45;&gt;pulse_champion_static</title>
<path fill="none" stroke="#7e57c2" d="M280.11,-625.95C296.11,-630.19 313.77,-634.83 330,-639 338.33,-641.14 347.03,-643.35 355.72,-645.54"/>
<polygon fill="#7e57c2" stroke="#7e57c2" points="354.96,-648.95 365.51,-647.99 356.66,-642.16 354.96,-648.95"/>
</g>
<!-- pulse_final_overdrive -->
<g id="node31" class="node">
<title>pulse_final_overdrive</title>
<path fill="lightgrey" stroke="black" d="M755.5,-684C755.5,-684 612.5,-684 612.5,-684 606.5,-684 600.5,-678 600.5,-672 600.5,-672 600.5,-660 600.5,-660 600.5,-654 606.5,-648 612.5,-648 612.5,-648 755.5,-648 755.5,-648 761.5,-648 767.5,-654 767.5,-660 767.5,-660 767.5,-672 767.5,-672 767.5,-678 761.5,-684 755.5,-684"/>
<text text-anchor="middle" x="684" y="-662.3" font-family="Times,serif" font-size="14.00">pulse_final_overdrive</text>
</g>
<!-- pulse_champion_surge&#45;&gt;pulse_final_overdrive -->
<g id="edge35" class="edge">
<title>pulse_champion_surge&#45;&gt;pulse_final_overdrive</title>
<path fill="none" stroke="#7e57c2" d="M521.59,-630.06C544.24,-635.1 568.99,-640.61 592.17,-645.77"/>
<polygon fill="#7e57c2" stroke="#7e57c2" points="591.47,-649.2 601.99,-647.96 592.99,-642.37 591.47,-649.2"/>
</g>
<!-- pulse_final_sync -->
<g id="node32" class="node">
<title>pulse_final_sync</title>
<path fill="lightgrey" stroke="black" d="M737.5,-576C737.5,-576 630.5,-576 630.5,-576 624.5,-576 618.5,-570 618.5,-564 618.5,-564 618.5,-552 618.5,-552 618.5,-546 624.5,-540 630.5,-540 630.5,-540 737.5,-540 737.5,-540 743.5,-540 749.5,-546 749.5,-552 749.5,-552 749.5,-564 749.5,-564 749.5,-570 743.5,-576 737.5,-576"/>
<text text-anchor="middle" x="684" y="-554.3" font-family="Times,serif" font-size="14.00">pulse_final_sync</text>
</g>
<!-- pulse_champion_surge&#45;&gt;pulse_final_sync -->
<g id="edge36" class="edge">
<title>pulse_champion_surge&#45;&gt;pulse_final_sync</title>
<path fill="none" stroke="#7e57c2" d="M521.59,-593.94C549.67,-587.69 580.99,-580.72 608.52,-574.59"/>
<polygon fill="#7e57c2" stroke="#7e57c2" points="609.47,-577.96 618.47,-572.37 607.95,-571.13 609.47,-577.96"/>
</g>
<!-- pulse_champion_resonance&#45;&gt;pulse_final_sync -->
<g id="edge37" class="edge">
<title>pulse_champion_resonance&#45;&gt;pulse_final_sync</title>
<path fill="none" stroke="#7e57c2" d="M544.75,-558C566.16,-558 588.3,-558 608.41,-558"/>
<polygon fill="#7e57c2" stroke="#7e57c2" points="608.42,-561.5 618.42,-558 608.42,-554.5 608.42,-561.5"/>
</g>
<!-- pulse_final_staticstorm -->
<g id="node33" class="node">
<title>pulse_final_staticstorm</title>
<path fill="lightgrey" stroke="black" d="M762.5,-630C762.5,-630 605.5,-630 605.5,-630 599.5,-630 593.5,-624 593.5,-618 593.5,-618 593.5,-606 593.5,-606 593.5,-600 599.5,-594 605.5,-594 605.5,-594 762.5,-594 762.5,-594 768.5,-594 774.5,-600 774.5,-606 774.5,-606 774.5,-618 774.5,-618 774.5,-624 768.5,-630 762.5,-630"/>
<text text-anchor="middle" x="684" y="-608.3" font-family="Times,serif" font-size="14.00">pulse_final_staticstorm</text>
</g>
<!-- pulse_champion_resonance&#45;&gt;pulse_final_staticstorm -->
<g id="edge38" class="edge">
<title>pulse_champion_resonance&#45;&gt;pulse_final_staticstorm</title>
<path fill="none" stroke="#7e57c2" d="M521.59,-576.06C544.24,-581.1 568.99,-586.61 592.17,-591.77"/>
<polygon fill="#7e57c2" stroke="#7e57c2" points="591.47,-595.2 601.99,-593.96 592.99,-588.37 591.47,-595.2"/>
</g>
<!-- pulse_champion_static&#45;&gt;pulse_final_overdrive -->
<g id="edge40" class="edge">
<title>pulse_champion_static&#45;&gt;pulse_final_overdrive</title>
<path fill="none" stroke="#7e57c2" d="M528.05,-666C548.24,-666 569.79,-666 590.2,-666"/>
<polygon fill="#7e57c2" stroke="#7e57c2" points="590.44,-669.5 600.44,-666 590.44,-662.5 590.44,-669.5"/>
</g>
<!-- pulse_champion_static&#45;&gt;pulse_final_staticstorm -->
<g id="edge39" class="edge">
<title>pulse_champion_static&#45;&gt;pulse_final_staticstorm</title>
<path fill="none" stroke="#7e57c2" d="M521.59,-647.94C544.24,-642.9 568.99,-637.39 592.17,-632.23"/>
<polygon fill="#7e57c2" stroke="#7e57c2" points="592.99,-635.63 601.99,-630.04 591.47,-628.8 592.99,-635.63"/>
</g>
<!-- void_baby -->
<g id="node34" class="node">
<title>void_baby</title>
<path fill="#b0bec5" stroke="black" d="M94,-792C94,-792 30,-792 30,-792 24,-792 18,-786 18,-780 18,-780 18,-768 18,-768 18,-762 24,-756 30,-756 30,-756 94,-756 94,-756 100,-756 106,-762 106,-768 106,-768 106,-780 106,-780 106,-786 100,-792 94,-792"/>
<text text-anchor="middle" x="62" y="-770.3" font-family="Times,serif" font-size="14.00">void_baby</text>
</g>
<!-- void_rookie -->
<g id="node35" class="node">
<title>void_rookie</title>
<path fill="#b0bec5" stroke="black" d="M264,-792C264,-792 190,-792 190,-792 184,-792 178,-786 178,-780 178,-780 178,-768 178,-768 178,-762 184,-756 190,-756 190,-756 264,-756 264,-756 270,-756 276,-762 276,-768 276,-768 276,-780 276,-780 276,-786 270,-792 264,-792"/>
<text text-anchor="middle" x="227" y="-770.3" font-family="Times,serif" font-size="14.00">void_rookie</text>
</g>
<!-- void_baby&#45;&gt;void_rookie -->
<g id="edge41" class="edge">
<title>void_baby&#45;&gt;void_rookie</title>
<path fill="none" stroke="black" d="M106.25,-774C125.13,-774 147.55,-774 167.86,-774"/>
<polygon fill="black" stroke="black" points="167.95,-777.5 177.95,-774 167.95,-770.5 167.95,-777.5"/>
</g>
<!-- void_champion_entropy -->
<g id="node36" class="node">
<title>void_champion_entropy</title>
<path fill="#b0bec5" stroke="black" d="M520,-846C520,-846 359,-846 359,-846 353,-846 347,-840 347,-834 347,-834 347,-822 347,-822 347,-816 353,-810 359,-810 359,-810 520,-810 520,-810 526,-810 532,-816 532,-822 532,-822 532,-834 532,-834 532,-840 526,-846 520,-846"/>
<text text-anchor="middle" x="439.5" y="-824.3" font-family="Times,serif" font-size="14.00">void_champion_entropy</text>
</g>
<!-- void_rookie&#45;&gt;void_champion_entropy -->
<g id="edge42" class="edge">
<title>void_rookie&#45;&gt;void_champion_entropy</title>
<path fill="none" stroke="#7e57c2" d="M276.22,-786.92C293.2,-791.43 312.43,-796.49 330,-801 338.33,-803.14 347.03,-805.35 355.72,-807.54"/>
<polygon fill="#7e57c2" stroke="#7e57c2" points="354.96,-810.95 365.51,-809.99 356.66,-804.16 354.96,-810.95"/>
</g>
<!-- void_champion_gravity -->
<g id="node37" class="node">
<title>void_champion_gravity</title>
<path fill="#b0bec5" stroke="black" d="M517.5,-738C517.5,-738 361.5,-738 361.5,-738 355.5,-738 349.5,-732 349.5,-726 349.5,-726 349.5,-714 349.5,-714 349.5,-708 355.5,-702 361.5,-702 361.5,-702 517.5,-702 517.5,-702 523.5,-702 529.5,-708 529.5,-714 529.5,-714 529.5,-726 529.5,-726 529.5,-732 523.5,-738 517.5,-738"/>
<text text-anchor="middle" x="439.5" y="-716.3" font-family="Times,serif" font-size="14.00">void_champion_gravity</text>
</g>
<!-- void_rookie&#45;&gt;void_champion_gravity -->
<g id="edge43" class="edge">
<title>void_rookie&#45;&gt;void_champion_gravity</title>
<path fill="none" stroke="#7e57c2" d="M276.22,-761.08C293.2,-756.57 312.43,-751.51 330,-747 338.33,-744.86 347.03,-742.65 355.72,-740.46"/>
<polygon fill="#7e57c2" stroke="#7e57c2" points="356.66,-743.84 365.51,-738.01 354.96,-737.05 356.66,-743.84"/>
</g>
<!-- void_champion_null -->
<g id="node38" class="node">
<title>void_champion_null</title>
<path fill="#b0bec5" stroke="black" d="M505.5,-792C505.5,-792 373.5,-792 373.5,-792 367.5,-792 361.5,-786 361.5,-780 361.5,-780 361.5,-768 361.5,-768 361.5,-762 367.5,-756 373.5,-756 373.5,-756 505.5,-756 505.5,-756 511.5,-756 517.5,-762 517.5,-768 517.5,-768 517.5,-780 517.5,-780 517.5,-786 511.5,-792 505.5,-792"/>
<text text-anchor="middle" x="439.5" y="-770.3" font-family="Times,serif" font-size="14.00">void_champion_null</text>
</g>
<!-- void_rookie&#45;&gt;void_champion_null -->
<g id="edge44" class="edge">
<title>void_rookie&#45;&gt;void_champion_null</title>
<path fill="none" stroke="#7e57c2" d="M276.03,-774C298.31,-774 325.51,-774 351.23,-774"/>
<polygon fill="#7e57c2" stroke="#7e57c2" points="351.38,-777.5 361.38,-774 351.38,-770.5 351.38,-777.5"/>
</g>
<!-- corrupt_final_glitch -->
<g id="node39" class="node">
<title>corrupt_final_glitch</title>
<path fill="lightgrey" stroke="black" d="M749.5,-846C749.5,-846 618.5,-846 618.5,-846 612.5,-846 606.5,-840 606.5,-834 606.5,-834 606.5,-822 606.5,-822 606.5,-816 612.5,-810 618.5,-810 618.5,-810 749.5,-810 749.5,-810 755.5,-810 761.5,-816 761.5,-822 761.5,-822 761.5,-834 761.5,-834 761.5,-840 755.5,-846 749.5,-846"/>
<text text-anchor="middle" x="684" y="-824.3" font-family="Times,serif" font-size="14.00">corrupt_final_glitch</text>
</g>
<!-- void_champion_entropy&#45;&gt;corrupt_final_glitch -->
<g id="edge45" class="edge">
<title>void_champion_entropy&#45;&gt;corrupt_final_glitch</title>
<path fill="none" stroke="#7e57c2" d="M532.18,-828C553.16,-828 575.39,-828 596.16,-828"/>
<polygon fill="#7e57c2" stroke="#7e57c2" points="596.22,-831.5 606.22,-828 596.22,-824.5 596.22,-831.5"/>
</g>
<!-- void_final_oblivion -->
<g id="node40" class="node">
<title>void_final_oblivion</title>
<path fill="lightgrey" stroke="black" d="M745.5,-792C745.5,-792 622.5,-792 622.5,-792 616.5,-792 610.5,-786 610.5,-780 610.5,-780 610.5,-768 610.5,-768 610.5,-762 616.5,-756 622.5,-756 622.5,-756 745.5,-756 745.5,-756 751.5,-756 757.5,-762 757.5,-768 757.5,-768 757.5,-780 757.5,-780 757.5,-786 751.5,-792 745.5,-792"/>
<text text-anchor="middle" x="684" y="-770.3" font-family="Times,serif" font-size="14.00">void_final_oblivion</text>
</g>
<!-- void_champion_entropy&#45;&gt;void_final_oblivion -->
<g id="edge46" class="edge">
<title>void_champion_entropy&#45;&gt;void_final_oblivion</title>
<path fill="none" stroke="#7e57c2" d="M521.59,-809.94C546.87,-804.31 574.78,-798.1 600.18,-792.44"/>
<polygon fill="#7e57c2" stroke="#7e57c2" points="601.15,-795.81 610.15,-790.22 599.63,-788.98 601.15,-795.81"/>
</g>
<!-- void_champion_gravity&#45;&gt;void_final_oblivion -->
<g id="edge48" class="edge">
<title>void_champion_gravity&#45;&gt;void_final_oblivion</title>
<path fill="none" stroke="#7e57c2" d="M521.59,-738.06C546.87,-743.69 574.78,-749.9 600.18,-755.56"/>
<polygon fill="#7e57c2" stroke="#7e57c2" points="599.63,-759.02 610.15,-757.78 601.15,-752.19 599.63,-759.02"/>
</g>
<!-- void_final_singularity -->
<g id="node41" class="node">
<title>void_final_singularity</title>
<path fill="lightgrey" stroke="black" d="M756,-738C756,-738 612,-738 612,-738 606,-738 600,-732 600,-726 600,-726 600,-714 600,-714 600,-708 606,-702 612,-702 612,-702 756,-702 756,-702 762,-702 768,-708 768,-714 768,-714 768,-726 768,-726 768,-732 762,-738 756,-738"/>
<text text-anchor="middle" x="684" y="-716.3" font-family="Times,serif" font-size="14.00">void_final_singularity</text>
</g>
<!-- void_champion_gravity&#45;&gt;void_final_singularity -->
<g id="edge47" class="edge">
<title>void_champion_gravity&#45;&gt;void_final_singularity</title>
<path fill="none" stroke="#7e57c2" d="M529.76,-720C549.32,-720 570.06,-720 589.76,-720"/>
<polygon fill="#7e57c2" stroke="#7e57c2" points="589.96,-723.5 599.96,-720 589.96,-716.5 589.96,-723.5"/>
</g>
<!-- void_champion_null&#45;&gt;void_final_oblivion -->
<g id="edge49" class="edge">
<title>void_champion_null&#45;&gt;void_final_oblivion</title>
<path fill="none" stroke="#7e57c2" d="M517.56,-774C543.88,-774 573.41,-774 600.16,-774"/>
<polygon fill="#7e57c2" stroke="#7e57c2" points="600.27,-777.5 610.27,-774 600.27,-770.5 600.27,-777.5"/>
</g>
<!-- void_champion_null&#45;&gt;void_final_singularity -->
<g id="edge50" class="edge">
<title>void_champion_null&#45;&gt;void_final_singularity</title>
<path fill="none" stroke="#7e57c2" d="M517.56,-756.84C541.21,-751.57 567.45,-745.73 591.94,-740.28"/>
<polygon fill="#7e57c2" stroke="#7e57c2" points="592.95,-743.64 601.95,-738.05 591.43,-736.8 592.95,-743.64"/>
</g>
<!-- archive_baby -->
<g id="node42" class="node">
<title>archive_baby</title>
<path fill="#ce93d8" stroke="black" d="M105,-954C105,-954 19,-954 19,-954 13,-954 7,-948 7,-942 7,-942 7,-930 7,-930 7,-924 13,-918 19,-918 19,-918 105,-918 105,-918 111,-918 117,-924 117,-930 117,-930 117,-942 117,-942 117,-948 111,-954 105,-954"/>
<text text-anchor="middle" x="62" y="-932.3" font-family="Times,serif" font-size="14.00">archive_baby</text>
</g>
<!-- archive_rookie -->
<g id="node43" class="node">
<title>archive_rookie</title>
<path fill="#ce93d8" stroke="black" d="M275,-954C275,-954 179,-954 179,-954 173,-954 167,-948 167,-942 167,-942 167,-930 167,-930 167,-924 173,-918 179,-918 179,-918 275,-918 275,-918 281,-918 287,-924 287,-930 287,-930 287,-942 287,-942 287,-948 281,-954 275,-954"/>
<text text-anchor="middle" x="227" y="-932.3" font-family="Times,serif" font-size="14.00">archive_rookie</text>
</g>
<!-- archive_baby&#45;&gt;archive_rookie -->
<g id="edge51" class="edge">
<title>archive_baby&#45;&gt;archive_rookie</title>
<path fill="none" stroke="black" d="M117.28,-936C129.97,-936 143.66,-936 156.9,-936"/>
<polygon fill="black" stroke="black" points="156.92,-939.5 166.92,-936 156.92,-932.5 156.92,-939.5"/>
</g>
<!-- archive_champion_logic -->
<g id="node44" class="node">
<title>archive_champion_logic</title>
<path fill="#ce93d8" stroke="black" d="M520,-954C520,-954 359,-954 359,-954 353,-954 347,-948 347,-942 347,-942 347,-930 347,-930 347,-924 353,-918 359,-918 359,-918 520,-918 520,-918 526,-918 532,-924 532,-930 532,-930 532,-942 532,-942 532,-948 526,-954 520,-954"/>
<text text-anchor="middle" x="439.5" y="-932.3" font-family="Times,serif" font-size="14.00">archive_champion_logic</text>
</g>
<!-- archive_rookie&#45;&gt;archive_champion_logic -->
<g id="edge52" class="edge">
<title>archive_rookie&#45;&gt;archive_champion_logic</title>
<path fill="none" stroke="#7e57c2" d="M287.2,-936C302.5,-936 319.43,-936 336.25,-936"/>
<polygon fill="#7e57c2" stroke="#7e57c2" points="336.7,-939.5 346.7,-936 336.7,-932.5 336.7,-939.5"/>
</g>
<!-- archive_champion_index -->
<g id="node45" class="node">
<title>archive_champion_index</title>
<path fill="#ce93d8" stroke="black" d="M523,-900C523,-900 356,-900 356,-900 350,-900 344,-894 344,-888 344,-888 344,-876 344,-876 344,-870 350,-864 356,-864 356,-864 523,-864 523,-864 529,-864 535,-870 535,-876 535,-876 535,-888 535,-888 535,-894 529,-900 523,-900"/>
<text text-anchor="middle" x="439.5" y="-878.3" font-family="Times,serif" font-size="14.00">archive_champion_index</text>
</g>
<!-- archive_rookie&#45;&gt;archive_champion_index -->
<g id="edge53" class="edge">
<title>archive_rookie&#45;&gt;archive_champion_index</title>
<path fill="none" stroke="#7e57c2" d="M287.02,-920.22C301.09,-916.5 316.07,-912.58 330,-909 338.33,-906.86 347.03,-904.65 355.72,-902.46"/>
<polygon fill="#7e57c2" stroke="#7e57c2" points="356.66,-905.84 365.51,-900.01 354.96,-899.05 356.66,-905.84"/>
</g>
<!-- archive_champion_fragment -->
<g id="node46" class="node">
<title>archive_champion_fragment</title>
<path fill="#ce93d8" stroke="black" d="M536.5,-1008C536.5,-1008 342.5,-1008 342.5,-1008 336.5,-1008 330.5,-1002 330.5,-996 330.5,-996 330.5,-984 330.5,-984 330.5,-978 336.5,-972 342.5,-972 342.5,-972 536.5,-972 536.5,-972 542.5,-972 548.5,-978 548.5,-984 548.5,-984 548.5,-996 548.5,-996 548.5,-1002 542.5,-1008 536.5,-1008"/>
<text text-anchor="middle" x="439.5" y="-986.3" font-family="Times,serif" font-size="14.00">archive_champion_fragment</text>
</g>
<!-- archive_rookie&#45;&gt;archive_champion_fragment -->
<g id="edge54" class="edge">
<title>archive_rookie&#45;&gt;archive_champion_fragment</title>
<path fill="none" stroke="#7e57c2" d="M287.02,-951.78C301.09,-955.5 316.07,-959.42 330,-963 338.33,-965.14 347.03,-967.35 355.72,-969.54"/>
<polygon fill="#7e57c2" stroke="#7e57c2" points="354.96,-972.95 365.51,-971.99 356.66,-966.16 354.96,-972.95"/>
</g>
<!-- archive_final_compiler -->
<g id="node47" class="node">
<title>archive_final_compiler</title>
<path fill="lightgrey" stroke="black" d="M760,-1008C760,-1008 608,-1008 608,-1008 602,-1008 596,-1002 596,-996 596,-996 596,-984 596,-984 596,-978 602,-972 608,-972 608,-972 760,-972 760,-972 766,-972 772,-978 772,-984 772,-984 772,-996 772,-996 772,-1002 766,-1008 760,-1008"/>
<text text-anchor="middle" x="684" y="-986.3" font-family="Times,serif" font-size="14.00">archive_final_compiler</text>
</g>
<!-- archive_champion_logic&#45;&gt;archive_final_compiler -->
<g id="edge55" class="edge">
<title>archive_champion_logic&#45;&gt;archive_final_compiler</title>
<path fill="none" stroke="#7e57c2" d="M521.59,-954.06C544.24,-959.1 568.99,-964.61 592.17,-969.77"/>
<polygon fill="#7e57c2" stroke="#7e57c2" points="591.47,-973.2 601.99,-971.96 592.99,-966.37 591.47,-973.2"/>
</g>
<!-- archive_final_librarian -->
<g id="node48" class="node">
<title>archive_final_librarian</title>
<path fill="lightgrey" stroke="black" d="M759.5,-900C759.5,-900 608.5,-900 608.5,-900 602.5,-900 596.5,-894 596.5,-888 596.5,-888 596.5,-876 596.5,-876 596.5,-870 602.5,-864 608.5,-864 608.5,-864 759.5,-864 759.5,-864 765.5,-864 771.5,-870 771.5,-876 771.5,-876 771.5,-888 771.5,-888 771.5,-894 765.5,-900 759.5,-900"/>
<text text-anchor="middle" x="684" y="-878.3" font-family="Times,serif" font-size="14.00">archive_final_librarian</text>
</g>
<!-- archive_champion_logic&#45;&gt;archive_final_librarian -->
<g id="edge56" class="edge">
<title>archive_champion_logic&#45;&gt;archive_final_librarian</title>
<path fill="none" stroke="#7e57c2" d="M521.59,-917.94C544.24,-912.9 568.99,-907.39 592.17,-902.23"/>
<polygon fill="#7e57c2" stroke="#7e57c2" points="592.99,-905.63 601.99,-900.04 591.47,-898.8 592.99,-905.63"/>
</g>
<!-- archive_champion_index&#45;&gt;archive_final_librarian -->
<g id="edge57" class="edge">
<title>archive_champion_index&#45;&gt;archive_final_librarian</title>
<path fill="none" stroke="#7e57c2" d="M535.3,-882C551.91,-882 569.22,-882 585.89,-882"/>
<polygon fill="#7e57c2" stroke="#7e57c2" points="586.18,-885.5 596.18,-882 586.18,-878.5 586.18,-885.5"/>
</g>
<!-- archive_final_corrupt -->
<g id="node49" class="node">
<title>archive_final_corrupt</title>
<path fill="lightgrey" stroke="black" d="M755.5,-954C755.5,-954 612.5,-954 612.5,-954 606.5,-954 600.5,-948 600.5,-942 600.5,-942 600.5,-930 600.5,-930 600.5,-924 606.5,-918 612.5,-918 612.5,-918 755.5,-918 755.5,-918 761.5,-918 767.5,-924 767.5,-930 767.5,-930 767.5,-942 767.5,-942 767.5,-948 761.5,-954 755.5,-954"/>
<text text-anchor="middle" x="684" y="-932.3" font-family="Times,serif" font-size="14.00">archive_final_corrupt</text>
</g>
<!-- archive_champion_index&#45;&gt;archive_final_corrupt -->
<g id="edge58" class="edge">
<title>archive_champion_index&#45;&gt;archive_final_corrupt</title>
<path fill="none" stroke="#7e57c2" d="M521.59,-900.06C544.24,-905.1 568.99,-910.61 592.17,-915.77"/>
<polygon fill="#7e57c2" stroke="#7e57c2" points="591.47,-919.2 601.99,-917.96 592.99,-912.37 591.47,-919.2"/>
</g>
<!-- archive_champion_fragment&#45;&gt;archive_final_compiler -->
<g id="edge60" class="edge">
<title>archive_champion_fragment&#45;&gt;archive_final_compiler</title>
<path fill="none" stroke="#7e57c2" d="M548.63,-990C560.96,-990 573.48,-990 585.66,-990"/>
<polygon fill="#7e57c2" stroke="#7e57c2" points="585.81,-993.5 595.81,-990 585.81,-986.5 585.81,-993.5"/>
</g>
<!-- archive_champion_fragment&#45;&gt;archive_final_corrupt -->
<g id="edge59" class="edge">
<title>archive_champion_fragment&#45;&gt;archive_final_corrupt</title>
<path fill="none" stroke="#7e57c2" d="M521.59,-971.94C544.24,-966.9 568.99,-961.39 592.17,-956.23"/>
<polygon fill="#7e57c2" stroke="#7e57c2" points="592.99,-959.63 601.99,-954.04 591.47,-952.8 592.99,-959.63"/>
</g>
<!-- root_baby -->
<g id="node50" class="node">
<title>root_baby</title>
<path fill="#81c784" stroke="black" d="M93.5,-1143C93.5,-1143 30.5,-1143 30.5,-1143 24.5,-1143 18.5,-1137 18.5,-1131 18.5,-1131 18.5,-1119 18.5,-1119 18.5,-1113 24.5,-1107 30.5,-1107 30.5,-1107 93.5,-1107 93.5,-1107 99.5,-1107 105.5,-1113 105.5,-1119 105.5,-1119 105.5,-1131 105.5,-1131 105.5,-1137 99.5,-1143 93.5,-1143"/>
<text text-anchor="middle" x="62" y="-1121.3" font-family="Times,serif" font-size="14.00">root_baby</text>
</g>
<!-- root_rookie -->
<g id="node51" class="node">
<title>root_rookie</title>
<path fill="#81c784" stroke="black" d="M263.5,-1143C263.5,-1143 190.5,-1143 190.5,-1143 184.5,-1143 178.5,-1137 178.5,-1131 178.5,-1131 178.5,-1119 178.5,-1119 178.5,-1113 184.5,-1107 190.5,-1107 190.5,-1107 263.5,-1107 263.5,-1107 269.5,-1107 275.5,-1113 275.5,-1119 275.5,-1119 275.5,-1131 275.5,-1131 275.5,-1137 269.5,-1143 263.5,-1143"/>
<text text-anchor="middle" x="227" y="-1121.3" font-family="Times,serif" font-size="14.00">root_rookie</text>
</g>
<!-- root_baby&#45;&gt;root_rookie -->
<g id="edge61" class="edge">
<title>root_baby&#45;&gt;root_rookie</title>
<path fill="none" stroke="black" d="M105.83,-1125C124.87,-1125 147.58,-1125 168.1,-1125"/>
<polygon fill="black" stroke="black" points="168.29,-1128.5 178.29,-1125 168.29,-1121.5 168.29,-1128.5"/>
</g>
<!-- root_champion_thorn -->
<g id="node52" class="node">
<title>root_champion_thorn</title>
<path fill="#81c784" stroke="black" d="M511,-1197C511,-1197 368,-1197 368,-1197 362,-1197 356,-1191 356,-1185 356,-1185 356,-1173 356,-1173 356,-1167 362,-1161 368,-1161 368,-1161 511,-1161 511,-1161 517,-1161 523,-1167 523,-1173 523,-1173 523,-1185 523,-1185 523,-1191 517,-1197 511,-1197"/>
<text text-anchor="middle" x="439.5" y="-1175.3" font-family="Times,serif" font-size="14.00">root_champion_thorn</text>
</g>
<!-- root_rookie&#45;&gt;root_champion_thorn -->
<g id="edge62" class="edge">
<title>root_rookie&#45;&gt;root_champion_thorn</title>
<path fill="none" stroke="#7e57c2" d="M275.7,-1137.78C292.81,-1142.33 312.26,-1147.44 330,-1152 338.33,-1154.14 347.03,-1156.35 355.72,-1158.54"/>
<polygon fill="#7e57c2" stroke="#7e57c2" points="354.96,-1161.95 365.51,-1160.99 356.66,-1155.16 354.96,-1161.95"/>
</g>
<!-- root_champion_bloom -->
<g id="node53" class="node">
<title>root_champion_bloom</title>
<path fill="#81c784" stroke="black" d="M513.5,-1143C513.5,-1143 365.5,-1143 365.5,-1143 359.5,-1143 353.5,-1137 353.5,-1131 353.5,-1131 353.5,-1119 353.5,-1119 353.5,-1113 359.5,-1107 365.5,-1107 365.5,-1107 513.5,-1107 513.5,-1107 519.5,-1107 525.5,-1113 525.5,-1119 525.5,-1119 525.5,-1131 525.5,-1131 525.5,-1137 519.5,-1143 513.5,-1143"/>
<text text-anchor="middle" x="439.5" y="-1121.3" font-family="Times,serif" font-size="14.00">root_champion_bloom</text>
</g>
<!-- root_rookie&#45;&gt;root_champion_bloom -->
<g id="edge63" class="edge">
<title>root_rookie&#45;&gt;root_champion_bloom</title>
<path fill="none" stroke="#7e57c2" d="M275.5,-1125C295.47,-1125 319.44,-1125 342.79,-1125"/>
<polygon fill="#7e57c2" stroke="#7e57c2" points="343.1,-1128.5 353.1,-1125 343.1,-1121.5 343.1,-1128.5"/>
</g>
<!-- root_champion_bark -->
<g id="node54" class="node">
<title>root_champion_bark</title>
<path fill="#81c784" stroke="black" d="M508,-1089C508,-1089 371,-1089 371,-1089 365,-1089 359,-1083 359,-1077 359,-1077 359,-1065 359,-1065 359,-1059 365,-1053 371,-1053 371,-1053 508,-1053 508,-1053 514,-1053 520,-1059 520,-1065 520,-1065 520,-1077 520,-1077 520,-1083 514,-1089 508,-1089"/>
<text text-anchor="middle" x="439.5" y="-1067.3" font-family="Times,serif" font-size="14.00">root_champion_bark</text>
</g>
<!-- root_rookie&#45;&gt;root_champion_bark -->
<g id="edge64" class="edge">
<title>root_rookie&#45;&gt;root_champion_bark</title>
<path fill="none" stroke="#7e57c2" d="M275.7,-1112.22C292.81,-1107.67 312.26,-1102.56 330,-1098 338.33,-1095.86 347.03,-1093.65 355.72,-1091.46"/>
<polygon fill="#7e57c2" stroke="#7e57c2" points="356.66,-1094.84 365.51,-1089.01 354.96,-1088.05 356.66,-1094.84"/>
</g>
<!-- root_final_bramble -->
<g id="node55" class="node">
<title>root_final_bramble</title>
<path fill="lightgrey" stroke="black" d="M746.5,-1224C746.5,-1224 621.5,-1224 621.5,-1224 615.5,-1224 609.5,-1218 609.5,-1212 609.5,-1212 609.5,-1200 609.5,-1200 609.5,-1194 615.5,-1188 621.5,-1188 621.5,-1188 746.5,-1188 746.5,-1188 752.5,-1188 758.5,-1194 758.5,-1200 758.5,-1200 758.5,-1212 758.5,-1212 758.5,-1218 752.5,-1224 746.5,-1224"/>
<text text-anchor="middle" x="684" y="-1202.3" font-family="Times,serif" font-size="14.00">root_final_bramble</text>
</g>
<!-- root_champion_thorn&#45;&gt;root_final_bramble -->
<g id="edge65" class="edge">
<title>root_champion_thorn&#45;&gt;root_final_bramble</title>
<path fill="none" stroke="#7e57c2" d="M523.28,-1188.22C547.76,-1190.94 574.57,-1193.93 599.12,-1196.66"/>
<polygon fill="#7e57c2" stroke="#7e57c2" points="598.8,-1200.15 609.13,-1197.77 599.58,-1193.19 598.8,-1200.15"/>
</g>
<!-- root_final_ancient -->
<g id="node56" class="node">
<title>root_final_ancient</title>
<path fill="lightgrey" stroke="black" d="M743.5,-1170C743.5,-1170 624.5,-1170 624.5,-1170 618.5,-1170 612.5,-1164 612.5,-1158 612.5,-1158 612.5,-1146 612.5,-1146 612.5,-1140 618.5,-1134 624.5,-1134 624.5,-1134 743.5,-1134 743.5,-1134 749.5,-1134 755.5,-1140 755.5,-1146 755.5,-1146 755.5,-1158 755.5,-1158 755.5,-1164 749.5,-1170 743.5,-1170"/>
<text text-anchor="middle" x="684" y="-1148.3" font-family="Times,serif" font-size="14.00">root_final_ancient</text>
</g>
<!-- root_champion_thorn&#45;&gt;root_final_ancient -->
<g id="edge66" class="edge">
<title>root_champion_thorn&#45;&gt;root_final_ancient</title>
<path fill="none" stroke="#7e57c2" d="M523.28,-1169.78C548.83,-1166.94 576.94,-1163.81 602.35,-1160.98"/>
<polygon fill="#7e57c2" stroke="#7e57c2" points="602.76,-1164.46 612.32,-1159.87 601.99,-1157.5 602.76,-1164.46"/>
</g>
<!-- root_champion_bloom&#45;&gt;root_final_ancient -->
<g id="edge67" class="edge">
<title>root_champion_bloom&#45;&gt;root_final_ancient</title>
<path fill="none" stroke="#7e57c2" d="M525.66,-1134.48C550.6,-1137.26 577.8,-1140.29 602.45,-1143.03"/>
<polygon fill="#7e57c2" stroke="#7e57c2" points="602.16,-1146.52 612.48,-1144.15 602.93,-1139.56 602.16,-1146.52"/>
</g>
<!-- root_final_verdant -->
<g id="node57" class="node">
<title>root_final_verdant</title>
<path fill="lightgrey" stroke="black" d="M745,-1116C745,-1116 623,-1116 623,-1116 617,-1116 611,-1110 611,-1104 611,-1104 611,-1092 611,-1092 611,-1086 617,-1080 623,-1080 623,-1080 745,-1080 745,-1080 751,-1080 757,-1086 757,-1092 757,-1092 757,-1104 757,-1104 757,-1110 751,-1116 745,-1116"/>
<text text-anchor="middle" x="684" y="-1094.3" font-family="Times,serif" font-size="14.00">root_final_verdant</text>
</g>
<!-- root_champion_bloom&#45;&gt;root_final_verdant -->
<g id="edge68" class="edge">
<title>root_champion_bloom&#45;&gt;root_final_verdant</title>
<path fill="none" stroke="#7e57c2" d="M525.66,-1115.52C550.02,-1112.81 576.51,-1109.86 600.7,-1107.16"/>
<polygon fill="#7e57c2" stroke="#7e57c2" points="601.36,-1110.61 610.91,-1106.03 600.59,-1103.65 601.36,-1110.61"/>
</g>
<!-- root_champion_bark&#45;&gt;root_final_ancient -->
<g id="edge70" class="edge">
<title>root_champion_bark&#45;&gt;root_final_ancient</title>
<path fill="none" stroke="#7e57c2" d="M520.02,-1086.86C529.99,-1089.98 539.88,-1093.67 549,-1098 567.06,-1106.59 567.05,-1116.19 585,-1125 590.67,-1127.78 596.66,-1130.31 602.79,-1132.61"/>
<polygon fill="#7e57c2" stroke="#7e57c2" points="601.89,-1136 612.48,-1136.02 604.21,-1129.4 601.89,-1136"/>
</g>
<!-- root_final_warden -->
<g id="node58" class="node">
<title>root_final_warden</title>
<path fill="lightgrey" stroke="black" d="M743.5,-1062C743.5,-1062 624.5,-1062 624.5,-1062 618.5,-1062 612.5,-1056 612.5,-1050 612.5,-1050 612.5,-1038 612.5,-1038 612.5,-1032 618.5,-1026 624.5,-1026 624.5,-1026 743.5,-1026 743.5,-1026 749.5,-1026 755.5,-1032 755.5,-1038 755.5,-1038 755.5,-1050 755.5,-1050 755.5,-1056 749.5,-1062 743.5,-1062"/>
<text text-anchor="middle" x="684" y="-1040.3" font-family="Times,serif" font-size="14.00">root_final_warden</text>
</g>
<!-- root_champion_bark&#45;&gt;root_final_warden -->
<g id="edge69" class="edge">
<title>root_champion_bark&#45;&gt;root_final_warden</title>
<path fill="none" stroke="#7e57c2" d="M520.24,-1062.12C546.56,-1059.19 575.84,-1055.93 602.24,-1052.99"/>
<polygon fill="#7e57c2" stroke="#7e57c2" points="602.65,-1056.47 612.2,-1051.88 601.87,-1049.51 602.65,-1056.47"/>
</g>
<!-- corrupt_baby -->
<g id="node59" class="node">
<title>corrupt_baby</title>
<path fill="#ef5350" stroke="black" d="M105.5,-1318C105.5,-1318 18.5,-1318 18.5,-1318 12.5,-1318 6.5,-1312 6.5,-1306 6.5,-1306 6.5,-1294 6.5,-1294 6.5,-1288 12.5,-1282 18.5,-1282 18.5,-1282 105.5,-1282 105.5,-1282 111.5,-1282 117.5,-1288 117.5,-1294 117.5,-1294 117.5,-1306 117.5,-1306 117.5,-1312 111.5,-1318 105.5,-1318"/>
<text text-anchor="middle" x="62" y="-1296.3" font-family="Times,serif" font-size="14.00">corrupt_baby</text>
</g>
<!-- corrupt_rookie -->
<g id="node60" class="node">
<title>corrupt_rookie</title>
<path fill="#ef5350" stroke="black" d="M275.5,-1318C275.5,-1318 178.5,-1318 178.5,-1318 172.5,-1318 166.5,-1312 166.5,-1306 166.5,-1306 166.5,-1294 166.5,-1294 166.5,-1288 172.5,-1282 178.5,-1282 178.5,-1282 275.5,-1282 275.5,-1282 281.5,-1282 287.5,-1288 287.5,-1294 287.5,-1294 287.5,-1306 287.5,-1306 287.5,-1312 281.5,-1318 275.5,-1318"/>
<text text-anchor="middle" x="227" y="-1296.3" font-family="Times,serif" font-size="14.00">corrupt_rookie</text>
</g>
<!-- corrupt_baby&#45;&gt;corrupt_rookie -->
<g id="edge71" class="edge">
<title>corrupt_baby&#45;&gt;corrupt_rookie</title>
<path fill="none" stroke="black" d="M117.73,-1300C130.06,-1300 143.32,-1300 156.17,-1300"/>
<polygon fill="black" stroke="black" points="156.38,-1303.5 166.38,-1300 156.38,-1296.5 156.38,-1303.5"/>
</g>
<!-- corrupt_champion_glitch -->
<g id="node61" class="node">
<title>corrupt_champion_glitch</title>
<path fill="#ef5350" stroke="black" d="M524,-1372C524,-1372 355,-1372 355,-1372 349,-1372 343,-1366 343,-1360 343,-1360 343,-1348 343,-1348 343,-1342 349,-1336 355,-1336 355,-1336 524,-1336 524,-1336 530,-1336 536,-1342 536,-1348 536,-1348 536,-1360 536,-1360 536,-1366 530,-1372 524,-1372"/>
<text text-anchor="middle" x="439.5" y="-1350.3" font-family="Times,serif" font-size="14.00">corrupt_champion_glitch</text>
</g>
<!-- corrupt_rookie&#45;&gt;corrupt_champion_glitch -->
<g id="edge72" class="edge">
<title>corrupt_rookie&#45;&gt;corrupt_champion_glitch</title>
<path fill="none" stroke="#7e57c2" d="M287.56,-1315.93C301.48,-1319.6 316.25,-1323.47 330,-1327 338.33,-1329.14 347.03,-1331.35 355.72,-1333.54"/>
<polygon fill="#7e57c2" stroke="#7e57c2" points="354.96,-1336.95 365.51,-1335.99 356.66,-1330.16 354.96,-1336.95"/>
</g>
<!-- corrupt_champion_error -->
<g id="node62" class="node">
<title>corrupt_champion_error</title>
<path fill="#ef5350" stroke="black" d="M522,-1318C522,-1318 357,-1318 357,-1318 351,-1318 345,-1312 345,-1306 345,-1306 345,-1294 345,-1294 345,-1288 351,-1282 357,-1282 357,-1282 522,-1282 522,-1282 528,-1282 534,-1288 534,-1294 534,-1294 534,-1306 534,-1306 534,-1312 528,-1318 522,-1318"/>
<text text-anchor="middle" x="439.5" y="-1296.3" font-family="Times,serif" font-size="14.00">corrupt_champion_error</text>
</g>
<!-- corrupt_rookie&#45;&gt;corrupt_champion_error -->
<g id="edge73" class="edge">
<title>corrupt_rookie&#45;&gt;corrupt_champion_error</title>
<path fill="none" stroke="#7e57c2" d="M287.76,-1300C302.45,-1300 318.62,-1300 334.73,-1300"/>
<polygon fill="#7e57c2" stroke="#7e57c2" points="334.74,-1303.5 344.74,-1300 334.74,-1296.5 334.74,-1303.5"/>
</g>
<!-- corrupt_champion_patchfail -->
<g id="node63" class="node">
<title>corrupt_champion_patchfail</title>
<path fill="#ef5350" stroke="black" d="M535,-1264C535,-1264 344,-1264 344,-1264 338,-1264 332,-1258 332,-1252 332,-1252 332,-1240 332,-1240 332,-1234 338,-1228 344,-1228 344,-1228 535,-1228 535,-1228 541,-1228 547,-1234 547,-1240 547,-1240 547,-1252 547,-1252 547,-1258 541,-1264 535,-1264"/>
<text text-anchor="middle" x="439.5" y="-1242.3" font-family="Times,serif" font-size="14.00">corrupt_champion_patchfail</text>
</g>
<!-- corrupt_rookie&#45;&gt;corrupt_champion_patchfail -->
<g id="edge74" class="edge">
<title>corrupt_rookie&#45;&gt;corrupt_champion_patchfail</title>
<path fill="none" stroke="#7e57c2" d="M287.56,-1284.07C301.48,-1280.4 316.25,-1276.53 330,-1273 338.33,-1270.86 347.03,-1268.65 355.72,-1266.46"/>
<polygon fill="#7e57c2" stroke="#7e57c2" points="356.66,-1269.84 365.51,-1264.01 354.96,-1263.05 356.66,-1269.84"/>
</g>
<!-- corrupt_final_corruptcore -->
<g id="node64" class="node">
<title>corrupt_final_corruptcore</title>
<path fill="lightgrey" stroke="black" d="M771,-1359C771,-1359 597,-1359 597,-1359 591,-1359 585,-1353 585,-1347 585,-1347 585,-1335 585,-1335 585,-1329 591,-1323 597,-1323 597,-1323 771,-1323 771,-1323 777,-1323 783,-1329 783,-1335 783,-1335 783,-1347 783,-1347 783,-1353 777,-1359 771,-1359"/>
<text text-anchor="middle" x="684" y="-1337.3" font-family="Times,serif" font-size="14.00">corrupt_final_corruptcore</text>
</g>
<!-- corrupt_champion_glitch&#45;&gt;corrupt_final_corruptcore -->
<g id="edge75" class="edge">
<title>corrupt_champion_glitch&#45;&gt;corrupt_final_corruptcore</title>
<path fill="none" stroke="#7e57c2" d="M536.34,-1348.86C548.88,-1348.19 561.79,-1347.5 574.52,-1346.82"/>
<polygon fill="#7e57c2" stroke="#7e57c2" points="574.87,-1350.3 584.67,-1346.27 574.5,-1343.31 574.87,-1350.3"/>
</g>
<!-- corrupt_final_overrun -->
<g id="node65" class="node">
<title>corrupt_final_overrun</title>
<path fill="lightgrey" stroke="black" d="M757,-1305C757,-1305 611,-1305 611,-1305 605,-1305 599,-1299 599,-1293 599,-1293 599,-1281 599,-1281 599,-1275 605,-1269 611,-1269 611,-1269 757,-1269 757,-1269 763,-1269 769,-1275 769,-1281 769,-1281 769,-1293 769,-1293 769,-1299 763,-1305 757,-1305"/>
<text text-anchor="middle" x="684" y="-1283.3" font-family="Times,serif" font-size="14.00">corrupt_final_overrun</text>
</g>
<!-- corrupt_champion_glitch&#45;&gt;corrupt_final_overrun -->
<g id="edge76" class="edge">
<title>corrupt_champion_glitch&#45;&gt;corrupt_final_overrun</title>
<path fill="none" stroke="#7e57c2" d="M517.24,-1335.95C527.95,-1333.12 538.79,-1330.11 549,-1327 565.28,-1322.05 568.79,-1319.15 585,-1314 591.44,-1311.95 598.15,-1309.91 604.9,-1307.93"/>
<polygon fill="#7e57c2" stroke="#7e57c2" points="606.16,-1311.21 614.79,-1305.06 604.21,-1304.48 606.16,-1311.21"/>
</g>
<!-- corrupt_champion_error&#45;&gt;corrupt_final_corruptcore -->
<g id="edge78" class="edge">
<title>corrupt_champion_error&#45;&gt;corrupt_final_corruptcore</title>
<path fill="none" stroke="#7e57c2" d="M534.26,-1315.85C547.43,-1318.08 561.05,-1320.38 574.47,-1322.65"/>
<polygon fill="#7e57c2" stroke="#7e57c2" points="574.23,-1326.16 584.68,-1324.38 575.4,-1319.26 574.23,-1326.16"/>
</g>
<!-- corrupt_champion_error&#45;&gt;corrupt_final_overrun -->
<g id="edge77" class="edge">
<title>corrupt_champion_error&#45;&gt;corrupt_final_overrun</title>
<path fill="none" stroke="#7e57c2" d="M534.26,-1294.97C552.17,-1294.01 570.92,-1293.01 588.84,-1292.05"/>
<polygon fill="#7e57c2" stroke="#7e57c2" points="589.2,-1295.53 598.99,-1291.5 588.82,-1288.54 589.2,-1295.53"/>
</g>
<!-- corrupt_champion_patchfail&#45;&gt;corrupt_final_corruptcore -->
<g id="edge79" class="edge">
<title>corrupt_champion_patchfail&#45;&gt;corrupt_final_corruptcore</title>
<path fill="none" stroke="#7e57c2" d="M531.33,-1264.07C537.49,-1266.66 543.45,-1269.62 549,-1273 569.71,-1285.61 564.45,-1301.13 585,-1314 587.61,-1315.63 590.32,-1317.17 593.1,-1318.61"/>
<polygon fill="#7e57c2" stroke="#7e57c2" points="591.66,-1321.81 602.2,-1322.92 594.66,-1315.48 591.66,-1321.81"/>
</g>
<!-- corrupt_champion_patchfail&#45;&gt;corrupt_final_overrun -->
<g id="edge80" class="edge">
<title>corrupt_champion_patchfail&#45;&gt;corrupt_final_overrun</title>
<path fill="none" stroke="#7e57c2" d="M547.22,-1264.04C561.12,-1266.39 575.29,-1268.79 588.97,-1271.1"/>
<polygon fill="#7e57c2" stroke="#7e57c2" points="588.39,-1274.55 598.83,-1272.77 589.55,-1267.65 588.39,-1274.55"/>
</g>
<!-- dream_baby -->
<g id="node66" class="node">
<title>dream_baby</title>
<path fill="#9575cd" stroke="black" d="M102,-1487C102,-1487 22,-1487 22,-1487 16,-1487 10,-1481 10,-1475 10,-1475 10,-1463 10,-1463 10,-1457 16,-1451 22,-1451 22,-1451 102,-1451 102,-1451 108,-1451 114,-1457 114,-1463 114,-1463 114,-1475 114,-1475 114,-1481 108,-1487 102,-1487"/>
<text text-anchor="middle" x="62" y="-1465.3" font-family="Times,serif" font-size="14.00">dream_baby</text>
</g>
<!-- dream_rookie -->
<g id="node67" class="node">
<title>dream_rookie</title>
<path fill="#9575cd" stroke="black" d="M271.5,-1487C271.5,-1487 182.5,-1487 182.5,-1487 176.5,-1487 170.5,-1481 170.5,-1475 170.5,-1475 170.5,-1463 170.5,-1463 170.5,-1457 176.5,-1451 182.5,-1451 182.5,-1451 271.5,-1451 271.5,-1451 277.5,-1451 283.5,-1457 283.5,-1463 283.5,-1463 283.5,-1475 283.5,-1475 283.5,-1481 277.5,-1487 271.5,-1487"/>
<text text-anchor="middle" x="227" y="-1465.3" font-family="Times,serif" font-size="14.00">dream_rookie</text>
</g>
<!-- dream_baby&#45;&gt;dream_rookie -->
<g id="edge81" class="edge">
<title>dream_baby&#45;&gt;dream_rookie</title>
<path fill="none" stroke="black" d="M114.13,-1469C128.62,-1469 144.6,-1469 159.84,-1469"/>
<polygon fill="black" stroke="black" points="160.25,-1472.5 170.25,-1469 160.25,-1465.5 160.25,-1472.5"/>
</g>
<!-- dream_champion_lucid -->
<g id="node68" class="node">
<title>dream_champion_lucid</title>
<path fill="#9575cd" stroke="black" d="M517,-1541C517,-1541 362,-1541 362,-1541 356,-1541 350,-1535 350,-1529 350,-1529 350,-1517 350,-1517 350,-1511 356,-1505 362,-1505 362,-1505 517,-1505 517,-1505 523,-1505 529,-1511 529,-1517 529,-1517 529,-1529 529,-1529 529,-1535 523,-1541 517,-1541"/>
<text text-anchor="middle" x="439.5" y="-1519.3" font-family="Times,serif" font-size="14.00">dream_champion_lucid</text>
</g>
<!-- dream_rookie&#45;&gt;dream_champion_lucid -->
<g id="edge82" class="edge">
<title>dream_rookie&#45;&gt;dream_champion_lucid</title>
<path fill="none" stroke="#7e57c2" d="M283.55,-1483.86C298.61,-1487.85 314.92,-1492.13 330,-1496 338.33,-1498.14 347.03,-1500.35 355.72,-1502.54"/>
<polygon fill="#7e57c2" stroke="#7e57c2" points="354.96,-1505.95 365.51,-1504.99 356.66,-1499.16 354.96,-1505.95"/>
</g>
<!-- dream_champion_nightmare -->
<g id="node69" class="node">
<title>dream_champion_nightmare</title>
<path fill="#9575cd" stroke="black" d="M537,-1487C537,-1487 342,-1487 342,-1487 336,-1487 330,-1481 330,-1475 330,-1475 330,-1463 330,-1463 330,-1457 336,-1451 342,-1451 342,-1451 537,-1451 537,-1451 543,-1451 549,-1457 549,-1463 549,-1463 549,-1475 549,-1475 549,-1481 543,-1487 537,-1487"/>
<text text-anchor="middle" x="439.5" y="-1465.3" font-family="Times,serif" font-size="14.00">dream_champion_nightmare</text>
</g>
<!-- dream_rookie&#45;&gt;dream_champion_nightmare -->
<g id="edge83" class="edge">
<title>dream_rookie&#45;&gt;dream_champion_nightmare</title>
<path fill="none" stroke="#7e57c2" d="M283.58,-1469C294.83,-1469 307.05,-1469 319.54,-1469"/>
<polygon fill="#7e57c2" stroke="#7e57c2" points="319.6,-1472.5 329.6,-1469 319.6,-1465.5 319.6,-1472.5"/>
</g>
<!-- dream_champion_whimsy -->
<g id="node70" class="node">
<title>dream_champion_whimsy</title>
<path fill="#9575cd" stroke="black" d="M527.5,-1433C527.5,-1433 351.5,-1433 351.5,-1433 345.5,-1433 339.5,-1427 339.5,-1421 339.5,-1421 339.5,-1409 339.5,-1409 339.5,-1403 345.5,-1397 351.5,-1397 351.5,-1397 527.5,-1397 527.5,-1397 533.5,-1397 539.5,-1403 539.5,-1409 539.5,-1409 539.5,-1421 539.5,-1421 539.5,-1427 533.5,-1433 527.5,-1433"/>
<text text-anchor="middle" x="439.5" y="-1411.3" font-family="Times,serif" font-size="14.00">dream_champion_whimsy</text>
</g>
<!-- dream_rookie&#45;&gt;dream_champion_whimsy -->
<g id="edge84" class="edge">
<title>dream_rookie&#45;&gt;dream_champion_whimsy</title>
<path fill="none" stroke="#7e57c2" d="M283.55,-1454.14C298.61,-1450.15 314.92,-1445.87 330,-1442 338.33,-1439.86 347.03,-1437.65 355.72,-1435.46"/>
<polygon fill="#7e57c2" stroke="#7e57c2" points="356.66,-1438.84 365.51,-1433.01 354.96,-1432.05 356.66,-1438.84"/>
</g>
<!-- dream_final_ascended -->
<g id="node71" class="node">
<title>dream_final_ascended</title>
<path fill="lightgrey" stroke="black" d="M758.5,-1494C758.5,-1494 609.5,-1494 609.5,-1494 603.5,-1494 597.5,-1488 597.5,-1482 597.5,-1482 597.5,-1470 597.5,-1470 597.5,-1464 603.5,-1458 609.5,-1458 609.5,-1458 758.5,-1458 758.5,-1458 764.5,-1458 770.5,-1464 770.5,-1470 770.5,-1470 770.5,-1482 770.5,-1482 770.5,-1488 764.5,-1494 758.5,-1494"/>
<text text-anchor="middle" x="684" y="-1472.3" font-family="Times,serif" font-size="14.00">dream_final_ascended</text>
</g>
<!-- dream_champion_lucid&#45;&gt;dream_final_ascended -->
<g id="edge85" class="edge">
<title>dream_champion_lucid&#45;&gt;dream_final_ascended</title>
<path fill="none" stroke="#7e57c2" d="M529.08,-1505.83C548.09,-1502.15 568.26,-1498.24 587.52,-1494.51"/>
<polygon fill="#7e57c2" stroke="#7e57c2" points="588.34,-1497.91 597.49,-1492.57 587.01,-1491.04 588.34,-1497.91"/>
</g>
<!-- dream_final_chaos -->
<g id="node72" class="node">
<title>dream_final_chaos</title>
<path fill="lightgrey" stroke="black" d="M745.5,-1440C745.5,-1440 622.5,-1440 622.5,-1440 616.5,-1440 610.5,-1434 610.5,-1428 610.5,-1428 610.5,-1416 610.5,-1416 610.5,-1410 616.5,-1404 622.5,-1404 622.5,-1404 745.5,-1404 745.5,-1404 751.5,-1404 757.5,-1410 757.5,-1416 757.5,-1416 757.5,-1428 757.5,-1428 757.5,-1434 751.5,-1440 745.5,-1440"/>
<text text-anchor="middle" x="684" y="-1418.3" font-family="Times,serif" font-size="14.00">dream_final_chaos</text>
</g>
<!-- dream_champion_lucid&#45;&gt;dream_final_chaos -->
<g id="edge86" class="edge">
<title>dream_champion_lucid&#45;&gt;dream_final_chaos</title>
<path fill="none" stroke="#7e57c2" d="M529.12,-1506.41C536.1,-1503.49 542.83,-1500.05 549,-1496 571,-1481.57 563.18,-1463.7 585,-1449 589.97,-1445.65 595.34,-1442.72 600.93,-1440.14"/>
<polygon fill="#7e57c2" stroke="#7e57c2" points="602.62,-1443.23 610.49,-1436.15 599.92,-1436.77 602.62,-1443.23"/>
</g>
<!-- dream_champion_nightmare&#45;&gt;dream_final_ascended -->
<g id="edge88" class="edge">
<title>dream_champion_nightmare&#45;&gt;dream_final_ascended</title>
<path fill="none" stroke="#7e57c2" d="M549.34,-1472.14C561.93,-1472.51 574.7,-1472.87 587.1,-1473.23"/>
<polygon fill="#7e57c2" stroke="#7e57c2" points="587.32,-1476.74 597.42,-1473.53 587.52,-1469.74 587.32,-1476.74"/>
</g>
<!-- dream_champion_nightmare&#45;&gt;dream_final_chaos -->
<g id="edge87" class="edge">
<title>dream_champion_nightmare&#45;&gt;dream_final_chaos</title>
<path fill="none" stroke="#7e57c2" d="M533.56,-1450.96C555.47,-1446.72 578.68,-1442.22 600.11,-1438.07"/>
<polygon fill="#7e57c2" stroke="#7e57c2" points="600.99,-1441.46 610.14,-1436.12 599.66,-1434.59 600.99,-1441.46"/>
</g>
<!-- dream_champion_whimsy&#45;&gt;dream_final_ascended -->
<g id="edge89" class="edge">
<title>dream_champion_whimsy&#45;&gt;dream_final_ascended</title>
<path fill="none" stroke="#7e57c2" d="M513.17,-1433.04C525.15,-1436.02 537.42,-1439.09 549,-1442 566.12,-1446.3 584.47,-1450.94 601.92,-1455.36"/>
<polygon fill="#7e57c2" stroke="#7e57c2" points="601.53,-1458.88 612.08,-1457.94 603.25,-1452.09 601.53,-1458.88"/>
</g>
<!-- dream_champion_whimsy&#45;&gt;dream_final_chaos -->
<g id="edge90" class="edge">
<title>dream_champion_whimsy&#45;&gt;dream_final_chaos</title>
<path fill="none" stroke="#7e57c2" d="M539.83,-1417.87C559.88,-1418.45 580.76,-1419.05 600.17,-1419.61"/>
<polygon fill="#7e57c2" stroke="#7e57c2" points="600.08,-1423.11 610.18,-1419.9 600.28,-1416.11 600.08,-1423.11"/>
</g>
<!-- echo_baby -->
<g id="node73" class="node">
<title>echo_baby</title>
<path fill="#ba68c8" stroke="black" d="M95.5,-1649C95.5,-1649 28.5,-1649 28.5,-1649 22.5,-1649 16.5,-1643 16.5,-1637 16.5,-1637 16.5,-1625 16.5,-1625 16.5,-1619 22.5,-1613 28.5,-1613 28.5,-1613 95.5,-1613 95.5,-1613 101.5,-1613 107.5,-1619 107.5,-1625 107.5,-1625 107.5,-1637 107.5,-1637 107.5,-1643 101.5,-1649 95.5,-1649"/>
<text text-anchor="middle" x="62" y="-1627.3" font-family="Times,serif" font-size="14.00">echo_baby</text>
</g>
<!-- echo_rookie -->
<g id="node74" class="node">
<title>echo_rookie</title>
<path fill="#ba68c8" stroke="black" d="M265.5,-1649C265.5,-1649 188.5,-1649 188.5,-1649 182.5,-1649 176.5,-1643 176.5,-1637 176.5,-1637 176.5,-1625 176.5,-1625 176.5,-1619 182.5,-1613 188.5,-1613 188.5,-1613 265.5,-1613 265.5,-1613 271.5,-1613 277.5,-1619 277.5,-1625 277.5,-1625 277.5,-1637 277.5,-1637 277.5,-1643 271.5,-1649 265.5,-1649"/>
<text text-anchor="middle" x="227" y="-1627.3" font-family="Times,serif" font-size="14.00">echo_rookie</text>
</g>
<!-- echo_baby&#45;&gt;echo_rookie -->
<g id="edge91" class="edge">
<title>echo_baby&#45;&gt;echo_rookie</title>
<path fill="none" stroke="black" d="M107.54,-1631C125.6,-1631 146.73,-1631 166.1,-1631"/>
<polygon fill="black" stroke="black" points="166.35,-1634.5 176.35,-1631 166.35,-1627.5 166.35,-1634.5"/>
</g>
<!-- echo_champion_resonate -->
<g id="node75" class="node">
<title>echo_champion_resonate</title>
<path fill="#ba68c8" stroke="black" d="M524.5,-1703C524.5,-1703 354.5,-1703 354.5,-1703 348.5,-1703 342.5,-1697 342.5,-1691 342.5,-1691 342.5,-1679 342.5,-1679 342.5,-1673 348.5,-1667 354.5,-1667 354.5,-1667 524.5,-1667 524.5,-1667 530.5,-1667 536.5,-1673 536.5,-1679 536.5,-1679 536.5,-1691 536.5,-1691 536.5,-1697 530.5,-1703 524.5,-1703"/>
<text text-anchor="middle" x="439.5" y="-1681.3" font-family="Times,serif" font-size="14.00">echo_champion_resonate</text>
</g>
<!-- echo_rookie&#45;&gt;echo_champion_resonate -->
<g id="edge92" class="edge">
<title>echo_rookie&#45;&gt;echo_champion_resonate</title>
<path fill="none" stroke="#7e57c2" d="M277.51,-1644.26C294.17,-1648.69 312.88,-1653.6 330,-1658 338.33,-1660.14 347.03,-1662.35 355.72,-1664.54"/>
<polygon fill="#7e57c2" stroke="#7e57c2" points="354.96,-1667.95 365.51,-1666.99 356.66,-1661.16 354.96,-1667.95"/>
</g>
<!-- echo_champion_reverb -->
<g id="node76" class="node">
<title>echo_champion_reverb</title>
<path fill="#ba68c8" stroke="black" d="M517,-1649C517,-1649 362,-1649 362,-1649 356,-1649 350,-1643 350,-1637 350,-1637 350,-1625 350,-1625 350,-1619 356,-1613 362,-1613 362,-1613 517,-1613 517,-1613 523,-1613 529,-1619 529,-1625 529,-1625 529,-1637 529,-1637 529,-1643 523,-1649 517,-1649"/>
<text text-anchor="middle" x="439.5" y="-1627.3" font-family="Times,serif" font-size="14.00">echo_champion_reverb</text>
</g>
<!-- echo_rookie&#45;&gt;echo_champion_reverb -->
<g id="edge93" class="edge">
<title>echo_rookie&#45;&gt;echo_champion_reverb</title>
<path fill="none" stroke="#7e57c2" d="M277.62,-1631C296.19,-1631 318.01,-1631 339.48,-1631"/>
<polygon fill="#7e57c2" stroke="#7e57c2" points="339.64,-1634.5 349.64,-1631 339.64,-1627.5 339.64,-1634.5"/>
</g>
<!-- echo_champion_distort -->
<g id="node77" class="node">
<title>echo_champion_distort</title>
<path fill="#ba68c8" stroke="black" d="M517.5,-1595C517.5,-1595 361.5,-1595 361.5,-1595 355.5,-1595 349.5,-1589 349.5,-1583 349.5,-1583 349.5,-1571 349.5,-1571 349.5,-1565 355.5,-1559 361.5,-1559 361.5,-1559 517.5,-1559 517.5,-1559 523.5,-1559 529.5,-1565 529.5,-1571 529.5,-1571 529.5,-1583 529.5,-1583 529.5,-1589 523.5,-1595 517.5,-1595"/>
<text text-anchor="middle" x="439.5" y="-1573.3" font-family="Times,serif" font-size="14.00">echo_champion_distort</text>
</g>
<!-- echo_rookie&#45;&gt;echo_champion_distort -->
<g id="edge94" class="edge">
<title>echo_rookie&#45;&gt;echo_champion_distort</title>
<path fill="none" stroke="#7e57c2" d="M277.51,-1617.74C294.17,-1613.31 312.88,-1608.4 330,-1604 338.33,-1601.86 347.03,-1599.65 355.72,-1597.46"/>
<polygon fill="#7e57c2" stroke="#7e57c2" points="356.66,-1600.84 365.51,-1595.01 354.96,-1594.05 356.66,-1600.84"/>
</g>
<!-- echo_final_harmonic -->
<g id="node78" class="node">
<title>echo_final_harmonic</title>
<path fill="lightgrey" stroke="black" d="M752.5,-1676C752.5,-1676 615.5,-1676 615.5,-1676 609.5,-1676 603.5,-1670 603.5,-1664 603.5,-1664 603.5,-1652 603.5,-1652 603.5,-1646 609.5,-1640 615.5,-1640 615.5,-1640 752.5,-1640 752.5,-1640 758.5,-1640 764.5,-1646 764.5,-1652 764.5,-1652 764.5,-1664 764.5,-1664 764.5,-1670 758.5,-1676 752.5,-1676"/>
<text text-anchor="middle" x="684" y="-1654.3" font-family="Times,serif" font-size="14.00">echo_final_harmonic</text>
</g>
<!-- echo_champion_resonate&#45;&gt;echo_final_harmonic -->
<g id="edge95" class="edge">
<title>echo_champion_resonate&#45;&gt;echo_final_harmonic</title>
<path fill="none" stroke="#7e57c2" d="M536.69,-1674.29C555.32,-1672.22 574.78,-1670.05 593.2,-1668"/>
<polygon fill="#7e57c2" stroke="#7e57c2" points="593.76,-1671.46 603.31,-1666.87 592.99,-1664.5 593.76,-1671.46"/>
</g>
<!-- echo_final_feedback -->
<g id="node79" class="node">
<title>echo_final_feedback</title>
<path fill="lightgrey" stroke="black" d="M751,-1622C751,-1622 617,-1622 617,-1622 611,-1622 605,-1616 605,-1610 605,-1610 605,-1598 605,-1598 605,-1592 611,-1586 617,-1586 617,-1586 751,-1586 751,-1586 757,-1586 763,-1592 763,-1598 763,-1598 763,-1610 763,-1610 763,-1616 757,-1622 751,-1622"/>
<text text-anchor="middle" x="684" y="-1600.3" font-family="Times,serif" font-size="14.00">echo_final_feedback</text>
</g>
<!-- echo_champion_resonate&#45;&gt;echo_final_feedback -->
<g id="edge96" class="edge">
<title>echo_champion_resonate&#45;&gt;echo_final_feedback</title>
<path fill="none" stroke="#7e57c2" d="M526.62,-1666.99C534.33,-1664.36 541.9,-1661.37 549,-1658 567.06,-1649.41 567.05,-1639.81 585,-1631 588.83,-1629.12 592.81,-1627.35 596.89,-1625.7"/>
<polygon fill="#7e57c2" stroke="#7e57c2" points="598.42,-1628.86 606.51,-1622.03 595.92,-1622.32 598.42,-1628.86"/>
</g>
<!-- echo_champion_reverb&#45;&gt;echo_final_harmonic -->
<g id="edge98" class="edge">
<title>echo_champion_reverb&#45;&gt;echo_final_harmonic</title>
<path fill="none" stroke="#7e57c2" d="M529.08,-1640.86C550.01,-1643.19 572.34,-1645.68 593.32,-1648.01"/>
<polygon fill="#7e57c2" stroke="#7e57c2" points="593.17,-1651.52 603.49,-1649.15 593.94,-1644.56 593.17,-1651.52"/>
</g>
<!-- echo_champion_reverb&#45;&gt;echo_final_feedback -->
<g id="edge97" class="edge">
<title>echo_champion_reverb&#45;&gt;echo_final_feedback</title>
<path fill="none" stroke="#7e57c2" d="M529.08,-1621.14C550.45,-1618.76 573.29,-1616.22 594.65,-1613.84"/>
<polygon fill="#7e57c2" stroke="#7e57c2" points="595.13,-1617.31 604.68,-1612.72 594.36,-1610.35 595.13,-1617.31"/>
</g>
<!-- echo_champion_distort&#45;&gt;echo_final_harmonic -->
<g id="edge100" class="edge">
<title>echo_champion_distort&#45;&gt;echo_final_harmonic</title>
<path fill="none" stroke="#7e57c2" d="M526.62,-1595.01C534.33,-1597.64 541.9,-1600.63 549,-1604 567.06,-1612.59 567.05,-1622.19 585,-1631 588.83,-1632.88 592.81,-1634.65 596.89,-1636.3"/>
<polygon fill="#7e57c2" stroke="#7e57c2" points="595.92,-1639.68 606.51,-1639.97 598.42,-1633.14 595.92,-1639.68"/>
</g>
<!-- echo_champion_distort&#45;&gt;echo_final_feedback -->
<g id="edge99" class="edge">
<title>echo_champion_distort&#45;&gt;echo_final_feedback</title>
<path fill="none" stroke="#7e57c2" d="M529.76,-1586.94C550.89,-1589.29 573.4,-1591.8 594.49,-1594.15"/>
<polygon fill="#7e57c2" stroke="#7e57c2" points="594.39,-1597.66 604.72,-1595.28 595.17,-1590.7 594.39,-1597.66"/>
</g>
<!-- codeborn_baby -->
<g id="node80" class="node">
<title>codeborn_baby</title>
<path fill="#e0e0e0" stroke="black" d="M112,-1757C112,-1757 12,-1757 12,-1757 6,-1757 0,-1751 0,-1745 0,-1745 0,-1733 0,-1733 0,-1727 6,-1721 12,-1721 12,-1721 112,-1721 112,-1721 118,-1721 124,-1727 124,-1733 124,-1733 124,-1745 124,-1745 124,-1751 118,-1757 112,-1757"/>
<text text-anchor="middle" x="62" y="-1735.3" font-family="Times,serif" font-size="14.00">codeborn_baby</text>
</g>
<!-- codeborn_rookie -->
<g id="node81" class="node">
<title>codeborn_rookie</title>
<path fill="#e0e0e0" stroke="black" d="M282,-1757C282,-1757 172,-1757 172,-1757 166,-1757 160,-1751 160,-1745 160,-1745 160,-1733 160,-1733 160,-1727 166,-1721 172,-1721 172,-1721 282,-1721 282,-1721 288,-1721 294,-1727 294,-1733 294,-1733 294,-1745 294,-1745 294,-1751 288,-1757 282,-1757"/>
<text text-anchor="middle" x="227" y="-1735.3" font-family="Times,serif" font-size="14.00">codeborn_rookie</text>
</g>
<!-- codeborn_baby&#45;&gt;codeborn_rookie -->
<g id="edge101" class="edge">
<title>codeborn_baby&#45;&gt;codeborn_rookie</title>
<path fill="none" stroke="black" d="M124.16,-1739C132.53,-1739 141.22,-1739 149.82,-1739"/>
<polygon fill="black" stroke="black" points="149.86,-1742.5 159.86,-1739 149.86,-1735.5 149.86,-1742.5"/>
</g>
<!-- codeborn_champion -->
<g id="node82" class="node">
<title>codeborn_champion</title>
<path fill="#e0e0e0" stroke="black" d="M506.5,-1757C506.5,-1757 372.5,-1757 372.5,-1757 366.5,-1757 360.5,-1751 360.5,-1745 360.5,-1745 360.5,-1733 360.5,-1733 360.5,-1727 366.5,-1721 372.5,-1721 372.5,-1721 506.5,-1721 506.5,-1721 512.5,-1721 518.5,-1727 518.5,-1733 518.5,-1733 518.5,-1745 518.5,-1745 518.5,-1751 512.5,-1757 506.5,-1757"/>
<text text-anchor="middle" x="439.5" y="-1735.3" font-family="Times,serif" font-size="14.00">codeborn_champion</text>
</g>
<!-- codeborn_rookie&#45;&gt;codeborn_champion -->
<g id="edge102" class="edge">
<title>codeborn_rookie&#45;&gt;codeborn_champion</title>
<path fill="none" stroke="black" d="M294.03,-1739C311.81,-1739 331.34,-1739 350.13,-1739"/>
<polygon fill="black" stroke="black" points="350.17,-1742.5 360.17,-1739 350.17,-1735.5 350.17,-1742.5"/>
</g>
<!-- codeborn_final -->
<g id="node83" class="node">
<title>codeborn_final</title>
<path fill="lightgrey" stroke="black" d="M732,-1757C732,-1757 636,-1757 636,-1757 630,-1757 624,-1751 624,-1745 624,-1745 624,-1733 624,-1733 624,-1727 630,-1721 636,-1721 636,-1721 732,-1721 732,-1721 738,-1721 744,-1727 744,-1733 744,-1733 744,-1745 744,-1745 744,-1751 738,-1757 732,-1757"/>
<text text-anchor="middle" x="684" y="-1735.3" font-family="Times,serif" font-size="14.00">codeborn_final</text>
</g>
<!-- codeborn_champion&#45;&gt;codeborn_final -->
<g id="edge103" class="edge">
<title>codeborn_champion&#45;&gt;codeborn_final</title>
<path fill="none" stroke="black" d="M518.56,-1739C549.16,-1739 583.97,-1739 613.66,-1739"/>
<polygon fill="black" stroke="black" points="613.93,-1742.5 623.93,-1739 613.93,-1735.5 613.93,-1742.5"/>
</g>
</g>
</svg>
