<?xml version="1.0" encoding="UTF-8" standalone="no"?>
<!DOCTYPE svg PUBLIC "-//W3C//DTD SVG 1.1//EN"
 "http://www.w3.org/Graphics/SVG/1.1/DTD/svg11.dtd">
<!-- Generated by graphviz version 2.43.0 (0)
 -->
<!-- Title: EvolutionTree Pages: 1 -->
<svg width="621pt" height="206pt"
 viewBox="0.00 0.00 621.00 206.00" xmlns="http://www.w3.org/2000/svg" xmlns:xlink="http://www.w3.org/1999/xlink">
<g id="graph0" class="graph" transform="scale(1 1) rotate(0) translate(4 202)">
<title>EvolutionTree</title>
<polygon fill="white" stroke="transparent" points="-4,4 -4,-202 617,-202 617,4 -4,4"/>
<!-- root_baby -->
<g id="node1" class="node">
<title>root_baby</title>
<path fill="#81c784" stroke="black" d="M75,-117C75,-117 12,-117 12,-117 6,-117 0,-111 0,-105 0,-105 0,-93 0,-93 0,-87 6,-81 12,-81 12,-81 75,-81 75,-81 81,-81 87,-87 87,-93 87,-93 87,-105 87,-105 87,-111 81,-117 75,-117"/>
<text text-anchor="middle" x="43.5" y="-95.3" font-family="Times,serif" font-size="14.00">root_baby</text>
</g>
<!-- root_rookie -->
<g id="node2" class="node">
<title>root_rookie</title>
<path fill="#81c784" stroke="black" d="M208,-117C208,-117 135,-117 135,-117 129,-117 123,-111 123,-105 123,-105 123,-93 123,-93 123,-87 129,-81 135,-81 135,-81 208,-81 208,-81 214,-81 220,-87 220,-93 220,-93 220,-105 220,-105 220,-111 214,-117 208,-117"/>
<text text-anchor="middle" x="171.5" y="-95.3" font-family="Times,serif" font-size="14.00">root_rookie</text>
</g>
<!-- root_baby&#45;&gt;root_rookie -->
<g id="edge1" class="edge">
<title>root_baby&#45;&gt;root_rookie</title>
<path fill="none" stroke="black" d="M87.16,-99C95.28,-99 103.91,-99 112.41,-99"/>
<polygon fill="black" stroke="black" points="112.69,-102.5 122.69,-99 112.69,-95.5 112.69,-102.5"/>
</g>
<!-- root_champion_thorn -->
<g id="node3" class="node">
<title>root_champion_thorn</title>
<path fill="#81c784" stroke="black" d="M413.5,-171C413.5,-171 270.5,-171 270.5,-171 264.5,-171 258.5,-165 258.5,-159 258.5,-159 258.5,-147 258.5,-147 258.5,-141 264.5,-135 270.5,-135 270.5,-135 413.5,-135 413.5,-135 419.5,-135 425.5,-141 425.5,-147 425.5,-147 425.5,-159 425.5,-159 425.5,-165 419.5,-171 413.5,-171"/>
<text text-anchor="middle" x="342" y="-149.3" font-family="Times,serif" font-size="14.00">root_champion_thorn</text>
</g>
<!-- root_rookie&#45;&gt;root_champion_thorn -->
<g id="edge2" class="edge">
<title>root_rookie&#45;&gt;root_champion_thorn</title>
<path fill="none" stroke="#7e57c2" d="M220.18,-114.46C231.89,-118.25 244.39,-122.28 256,-126 261.9,-127.89 268.04,-129.85 274.19,-131.81"/>
<polygon fill="#7e57c2" stroke="#7e57c2" points="273.24,-135.19 283.83,-134.89 275.37,-128.52 273.24,-135.19"/>
</g>
<!-- root_champion_bloom -->
<g id="node4" class="node">
<title>root_champion_bloom</title>
<path fill="#81c784" stroke="black" d="M416,-117C416,-117 268,-117 268,-117 262,-117 256,-111 256,-105 256,-105 256,-93 256,-93 256,-87 262,-81 268,-81 268,-81 416,-81 416,-81 422,-81 428,-87 428,-93 428,-93 428,-105 428,-105 428,-111 422,-117 416,-117"/>
<text text-anchor="middle" x="342" y="-95.3" font-family="Times,serif" font-size="14.00">root_champion_bloom</text>
</g>
<!-- root_rookie&#45;&gt;root_champion_bloom -->
<g id="edge3" class="edge">
<title>root_rookie&#45;&gt;root_champion_bloom</title>
<path fill="none" stroke="#7e57c2" d="M220.33,-99C228.31,-99 236.82,-99 245.49,-99"/>
<polygon fill="#7e57c2" stroke="#7e57c2" points="245.72,-102.5 255.72,-99 245.72,-95.5 245.72,-102.5"/>
</g>
<!-- root_champion_bark -->
<g id="node5" class="node">
<title>root_champion_bark</title>
<path fill="#81c784" stroke="black" d="M410.5,-63C410.5,-63 273.5,-63 273.5,-63 267.5,-63 261.5,-57 261.5,-51 261.5,-51 261.5,-39 261.5,-39 261.5,-33 267.5,-27 273.5,-27 273.5,-27 410.5,-27 410.5,-27 416.5,-27 422.5,-33 422.5,-39 422.5,-39 422.5,-51 422.5,-51 422.5,-57 416.5,-63 410.5,-63"/>
<text text-anchor="middle" x="342" y="-41.3" font-family="Times,serif" font-size="14.00">root_champion_bark</text>
</g>
<!-- root_rookie&#45;&gt;root_champion_bark -->
<g id="edge4" class="edge">
<title>root_rookie&#45;&gt;root_champion_bark</title>
<path fill="none" stroke="#7e57c2" d="M220.18,-83.54C231.89,-79.75 244.39,-75.72 256,-72 261.9,-70.11 268.04,-68.15 274.19,-66.19"/>
<polygon fill="#7e57c2" stroke="#7e57c2" points="275.37,-69.48 283.83,-63.11 273.24,-62.81 275.37,-69.48"/>
</g>
<!-- root_final_bramble -->
<g id="node6" class="node">
<title>root_final_bramble</title>
<path fill="lightgrey" stroke="black" d="M601,-198C601,-198 476,-198 476,-198 470,-198 464,-192 464,-186 464,-186 464,-174 464,-174 464,-168 470,-162 476,-162 476,-162 601,-162 601,-162 607,-162 613,-168 613,-174 613,-174 613,-186 613,-186 613,-192 607,-198 601,-198"/>
<text text-anchor="middle" x="538.5" y="-176.3" font-family="Times,serif" font-size="14.00">root_final_bramble</text>
</g>
<!-- root_champion_thorn&#45;&gt;root_final_bramble -->
<g id="edge5" class="edge">
<title>root_champion_thorn&#45;&gt;root_final_bramble</title>
<path fill="none" stroke="#7e57c2" d="M425.77,-164.49C435.03,-165.78 444.47,-167.09 453.75,-168.37"/>
<polygon fill="#7e57c2" stroke="#7e57c2" points="453.35,-171.85 463.73,-169.76 454.31,-164.92 453.35,-171.85"/>
</g>
<!-- root_final_ancient -->
<g id="node7" class="node">
<title>root_final_ancient</title>
<path fill="lightgrey" stroke="black" d="M598,-144C598,-144 479,-144 479,-144 473,-144 467,-138 467,-132 467,-132 467,-120 467,-120 467,-114 473,-108 479,-108 479,-108 598,-108 598,-108 604,-108 610,-114 610,-120 610,-120 610,-132 610,-132 610,-138 604,-144 598,-144"/>
<text text-anchor="middle" x="538.5" y="-122.3" font-family="Times,serif" font-size="14.00">root_final_ancient</text>
</g>
<!-- root_champion_thorn&#45;&gt;root_final_ancient -->
<g id="edge6" class="edge">
<title>root_champion_thorn&#45;&gt;root_final_ancient</title>
<path fill="none" stroke="#7e57c2" d="M425.77,-141.51C436,-140.09 446.46,-138.64 456.67,-137.22"/>
<polygon fill="#7e57c2" stroke="#7e57c2" points="457.35,-140.66 466.77,-135.82 456.39,-133.73 457.35,-140.66"/>
</g>
<!-- root_champion_bloom&#45;&gt;root_final_ancient -->
<g id="edge7" class="edge">
<title>root_champion_bloom&#45;&gt;root_final_ancient</title>
<path fill="none" stroke="#7e57c2" d="M428.03,-110.8C437.56,-112.13 447.25,-113.47 456.73,-114.79"/>
<polygon fill="#7e57c2" stroke="#7e57c2" points="456.53,-118.29 466.91,-116.2 457.49,-111.36 456.53,-118.29"/>
</g>
<!-- root_final_verdant -->
<g id="node8" class="node">
<title>root_final_verdant</title>
<path fill="lightgrey" stroke="black" d="M599.5,-90C599.5,-90 477.5,-90 477.5,-90 471.5,-90 465.5,-84 465.5,-78 465.5,-78 465.5,-66 465.5,-66 465.5,-60 471.5,-54 477.5,-54 477.5,-54 599.5,-54 599.5,-54 605.5,-54 611.5,-60 611.5,-66 611.5,-66 611.5,-78 611.5,-78 611.5,-84 605.5,-90 599.5,-90"/>
<text text-anchor="middle" x="538.5" y="-68.3" font-family="Times,serif" font-size="14.00">root_final_verdant</text>
</g>
<!-- root_champion_bloom&#45;&gt;root_final_verdant -->
<g id="edge8" class="edge">
<title>root_champion_bloom&#45;&gt;root_final_verdant</title>
<path fill="none" stroke="#7e57c2" d="M428.03,-87.2C437.09,-85.94 446.29,-84.66 455.32,-83.41"/>
<polygon fill="#7e57c2" stroke="#7e57c2" points="456,-86.85 465.42,-82.01 455.03,-79.91 456,-86.85"/>
</g>
<!-- root_champion_bark&#45;&gt;root_final_ancient -->
<g id="edge10" class="edge">
<title>root_champion_bark&#45;&gt;root_final_ancient</title>
<path fill="none" stroke="#7e57c2" d="M407.97,-63.12C414.87,-65.78 421.67,-68.74 428,-72 445.78,-81.16 446.43,-89.45 464,-99 467.08,-100.67 470.28,-102.28 473.56,-103.83"/>
<polygon fill="#7e57c2" stroke="#7e57c2" points="472.36,-107.12 482.92,-107.99 475.2,-100.73 472.36,-107.12"/>
</g>
<!-- root_final_warden -->
<g id="node9" class="node">
<title>root_final_warden</title>
<path fill="lightgrey" stroke="black" d="M598,-36C598,-36 479,-36 479,-36 473,-36 467,-30 467,-24 467,-24 467,-12 467,-12 467,-6 473,0 479,0 479,0 598,0 598,0 604,0 610,-6 610,-12 610,-12 610,-24 610,-24 610,-30 604,-36 598,-36"/>
<text text-anchor="middle" x="538.5" y="-14.3" font-family="Times,serif" font-size="14.00">root_final_warden</text>
</g>
<!-- root_champion_bark&#45;&gt;root_final_warden -->
<g id="edge9" class="edge">
<title>root_champion_bark&#45;&gt;root_final_warden</title>
<path fill="none" stroke="#7e57c2" d="M422.67,-33.94C433.92,-32.38 445.49,-30.77 456.75,-29.21"/>
<polygon fill="#7e57c2" stroke="#7e57c2" points="457.57,-32.63 466.99,-27.79 456.61,-25.7 457.57,-32.63"/>
</g>
</g>
</svg>
