<?xml version="1.0" encoding="UTF-8" standalone="no"?>
<!DOCTYPE svg PUBLIC "-//W3C//DTD SVG 1.1//EN"
 "http://www.w3.org/Graphics/SVG/1.1/DTD/svg11.dtd">
<!-- Generated by graphviz version 14.1.2 (20260124.0452)
 -->
<!-- Title: EvolutionTree Pages: 1 -->
<svg width="562pt" height="152pt"
 viewBox="0.00 0.00 562.00 152.00" xmlns="http://www.w3.org/2000/svg" xmlns:xlink="http://www.w3.org/1999/xlink">
<g id="graph0" class="graph" transform="scale(1 1) rotate(0) translate(4 148)">
<title>EvolutionTree</title>
<polygon fill="white" stroke="none" points="-4,4 -4,-148 557.75,-148 557.75,4 -4,4"/>
<!-- cloud_baby -->
<g id="node1" class="node">
<title>cloud_baby</title>
<path fill="#90caf9" stroke="black" d="M67,-90C67,-90 12,-90 12,-90 6,-90 0,-84 0,-78 0,-78 0,-66 0,-66 0,-60 6,-54 12,-54 12,-54 67,-54 67,-54 73,-54 79,-60 79,-66 79,-66 79,-78 79,-78 79,-84 73,-90 67,-90"/>
<text xml:space="preserve" text-anchor="middle" x="39.5" y="-66.95" font-family="Times New Roman,serif" font-size="14.00">cloud_baby</text>
</g>
<!-- cloud_rookie -->
<g id="node2" class="node">
<title>cloud_rookie</title>
<path fill="#90caf9" stroke="black" d="M190.25,-90C190.25,-90 127,-90 127,-90 121,-90 115,-84 115,-78 115,-78 115,-66 115,-66 115,-60 121,-54 127,-54 127,-54 190.25,-54 190.25,-54 196.25,-54 202.25,-60 202.25,-66 202.25,-66 202.25,-78 202.25,-78 202.25,-84 196.25,-90 190.25,-90"/>
<text xml:space="preserve" text-anchor="middle" x="158.62" y="-66.95" font-family="Times New Roman,serif" font-size="14.00">cloud_rookie</text>
</g>
<!-- cloud_baby&#45;&gt;cloud_rookie -->
<g id="edge1" class="edge">
<title>cloud_baby&#45;&gt;cloud_rookie</title>
<path fill="none" stroke="black" d="M79.18,-72C86.87,-72 95.09,-72 103.21,-72"/>
<polygon fill="black" stroke="black" points="103.03,-75.5 113.03,-72 103.03,-68.5 103.03,-75.5"/>
</g>
<!-- cloud_champion_wind -->
<g id="node3" class="node">
<title>cloud_champion_wind</title>
<path fill="#90caf9" stroke="black" d="M369,-90C369,-90 252.5,-90 252.5,-90 246.5,-90 240.5,-84 240.5,-78 240.5,-78 240.5,-66 240.5,-66 240.5,-60 246.5,-54 252.5,-54 252.5,-54 369,-54 369,-54 375,-54 381,-60 381,-66 381,-66 381,-78 381,-78 381,-84 375,-90 369,-90"/>
<text xml:space="preserve" text-anchor="middle" x="310.75" y="-66.95" font-family="Times New Roman,serif" font-size="14.00">cloud_champion_wind</text>
</g>
<!-- cloud_rookie&#45;&gt;cloud_champion_wind -->
<g id="edge2" class="edge">
<title>cloud_rookie&#45;&gt;cloud_champion_wind</title>
<path fill="none" stroke="#7e57c2" d="M202.64,-72C210.87,-72 219.73,-72 228.7,-72"/>
<polygon fill="#7e57c2" stroke="#7e57c2" points="228.57,-75.5 238.57,-72 228.57,-68.5 228.57,-75.5"/>
</g>
<!-- cloud_champion_rain -->
<g id="node4" class="node">
<title>cloud_champion_rain</title>
<path fill="#90caf9" stroke="black" d="M366,-36C366,-36 255.5,-36 255.5,-36 249.5,-36 243.5,-30 243.5,-24 243.5,-24 243.5,-12 243.5,-12 243.5,-6 249.5,0 255.5,0 255.5,0 366,0 366,0 372,0 378,-6 378,-12 378,-12 378,-24 378,-24 378,-30 372,-36 366,-36"/>
<text xml:space="preserve" text-anchor="middle" x="310.75" y="-12.95" font-family="Times New Roman,serif" font-size="14.00">cloud_champion_rain</text>
</g>
<!-- cloud_rookie&#45;&gt;cloud_champion_rain -->
<g id="edge3" class="edge">
<title>cloud_rookie&#45;&gt;cloud_champion_rain</title>
<path fill="none" stroke="#7e57c2" d="M202.64,-56.53C216.79,-51.44 232.82,-45.67 248.07,-40.19"/>
<polygon fill="#7e57c2" stroke="#7e57c2" points="248.83,-43.63 257.06,-36.95 246.46,-37.04 248.83,-43.63"/>
</g>
<!-- cloud_champion_storm -->
<g id="node5" class="node">
<title>cloud_champion_storm</title>
<path fill="#90caf9" stroke="black" d="M371.25,-144C371.25,-144 250.25,-144 250.25,-144 244.25,-144 238.25,-138 238.25,-132 238.25,-132 238.25,-120 238.25,-120 238.25,-114 244.25,-108 250.25,-108 250.25,-108 371.25,-108 371.25,-108 377.25,-108 383.25,-114 383.25,-120 383.25,-120 383.25,-132 383.25,-132 383.25,-138 377.25,-144 371.25,-144"/>
<text xml:space="preserve" text-anchor="middle" x="310.75" y="-120.95" font-family="Times New Roman,serif" font-size="14.00">cloud_champion_storm</text>
</g>
<!-- cloud_rookie&#45;&gt;cloud_champion_storm -->
<g id="edge4" class="edge">
<title>cloud_rookie&#45;&gt;cloud_champion_storm</title>
<path fill="none" stroke="#7e57c2" d="M202.64,-87.47C216.79,-92.56 232.82,-98.33 248.07,-103.81"/>
<polygon fill="#7e57c2" stroke="#7e57c2" points="246.46,-106.96 257.06,-107.05 248.83,-100.37 246.46,-106.96"/>
</g>
<!-- cloud_final_jetstream -->
<g id="node6" class="node">
<title>cloud_final_jetstream</title>
<path fill="lightgrey" stroke="black" d="M541.75,-144C541.75,-144 431.25,-144 431.25,-144 425.25,-144 419.25,-138 419.25,-132 419.25,-132 419.25,-120 419.25,-120 419.25,-114 425.25,-108 431.25,-108 431.25,-108 541.75,-108 541.75,-108 547.75,-108 553.75,-114 553.75,-120 553.75,-120 553.75,-132 553.75,-132 553.75,-138 547.75,-144 541.75,-144"/>
<text xml:space="preserve" text-anchor="middle" x="486.5" y="-120.95" font-family="Times New Roman,serif" font-size="14.00">cloud_final_jetstream</text>
</g>
<!-- cloud_champion_wind&#45;&gt;cloud_final_jetstream -->
<g id="edge5" class="edge">
<title>cloud_champion_wind&#45;&gt;cloud_final_jetstream</title>
<path fill="none" stroke="#7e57c2" d="M371.06,-90.43C385.38,-94.88 400.81,-99.68 415.57,-104.26"/>
<polygon fill="#7e57c2" stroke="#7e57c2" points="414.13,-107.48 424.72,-107.11 416.21,-100.8 414.13,-107.48"/>
</g>
<!-- cloud_final_halo -->
<g id="node7" class="node">
<title>cloud_final_halo</title>
<path fill="lightgrey" stroke="black" d="M528.25,-36C528.25,-36 444.75,-36 444.75,-36 438.75,-36 432.75,-30 432.75,-24 432.75,-24 432.75,-12 432.75,-12 432.75,-6 438.75,0 444.75,0 444.75,0 528.25,0 528.25,0 534.25,0 540.25,-6 540.25,-12 540.25,-12 540.25,-24 540.25,-24 540.25,-30 534.25,-36 528.25,-36"/>
<text xml:space="preserve" text-anchor="middle" x="486.5" y="-12.95" font-family="Times New Roman,serif" font-size="14.00">cloud_final_halo</text>
</g>
<!-- cloud_champion_wind&#45;&gt;cloud_final_halo -->
<g id="edge6" class="edge">
<title>cloud_champion_wind&#45;&gt;cloud_final_halo</title>
<path fill="none" stroke="#7e57c2" d="M371.06,-53.57C387.35,-48.5 405.08,-42.99 421.62,-37.85"/>
<polygon fill="#7e57c2" stroke="#7e57c2" points="422.33,-41.3 430.84,-34.99 420.25,-34.61 422.33,-41.3"/>
</g>
<!-- cloud_champion_rain&#45;&gt;cloud_final_halo -->
<g id="edge7" class="edge">
<title>cloud_champion_rain&#45;&gt;cloud_final_halo</title>
<path fill="none" stroke="#7e57c2" d="M378.43,-18C392.41,-18 407.13,-18 421.03,-18"/>
<polygon fill="#7e57c2" stroke="#7e57c2" points="420.96,-21.5 430.96,-18 420.96,-14.5 420.96,-21.5"/>
</g>
<!-- cloud_final_tempest -->
<g id="node8" class="node">
<title>cloud_final_tempest</title>
<path fill="lightgrey" stroke="black" d="M538,-90C538,-90 435,-90 435,-90 429,-90 423,-84 423,-78 423,-78 423,-66 423,-66 423,-60 429,-54 435,-54 435,-54 538,-54 538,-54 544,-54 550,-60 550,-66 550,-66 550,-78 550,-78 550,-84 544,-90 538,-90"/>
<text xml:space="preserve" text-anchor="middle" x="486.5" y="-66.95" font-family="Times New Roman,serif" font-size="14.00">cloud_final_tempest</text>
</g>
<!-- cloud_champion_rain&#45;&gt;cloud_final_tempest -->
<g id="edge8" class="edge">
<title>cloud_champion_rain&#45;&gt;cloud_final_tempest</title>
<path fill="none" stroke="#7e57c2" d="M371.06,-36.43C385.38,-40.88 400.81,-45.68 415.57,-50.26"/>
<polygon fill="#7e57c2" stroke="#7e57c2" points="414.13,-53.48 424.72,-53.11 416.21,-46.8 414.13,-53.48"/>
</g>
<!-- cloud_champion_storm&#45;&gt;cloud_final_jetstream -->
<g id="edge10" class="edge">
<title>cloud_champion_storm&#45;&gt;cloud_final_jetstream</title>
<path fill="none" stroke="#7e57c2" d="M383.67,-126C391.52,-126 399.52,-126 407.43,-126"/>
<polygon fill="#7e57c2" stroke="#7e57c2" points="407.41,-129.5 417.41,-126 407.41,-122.5 407.41,-129.5"/>
</g>
<!-- cloud_champion_storm&#45;&gt;cloud_final_tempest -->
<g id="edge9" class="edge">
<title>cloud_champion_storm&#45;&gt;cloud_final_tempest</title>
<path fill="none" stroke="#7e57c2" d="M371.06,-107.57C385.38,-103.12 400.81,-98.32 415.57,-93.74"/>
<polygon fill="#7e57c2" stroke="#7e57c2" points="416.21,-97.2 424.72,-90.89 414.13,-90.52 416.21,-97.2"/>
</g>
</g>
</svg>
