<?xml version="1.0" encoding="UTF-8" standalone="no"?>
<!DOCTYPE svg PUBLIC "-//W3C//DTD SVG 1.1//EN"
 "http://www.w3.org/Graphics/SVG/1.1/DTD/svg11.dtd">
<!-- Generated by graphviz version 14.1.2 (20260124.0452)
 -->
<!-- Title: EvolutionTree Pages: 1 -->
<svg width="555pt" height="152pt"
 viewBox="0.00 0.00 555.00 152.00" xmlns="http://www.w3.org/2000/svg" xmlns:xlink="http://www.w3.org/1999/xlink">
<g id="graph0" class="graph" transform="scale(1 1) rotate(0) translate(4 148)">
<title>EvolutionTree</title>
<polygon fill="white" stroke="none" points="-4,4 -4,-148 551,-148 551,4 -4,4"/>
<!-- void_baby -->
<g id="node1" class="node">
<title>void_baby</title>
<path fill="#b0bec5" stroke="black" d="M61,-90C61,-90 12,-90 12,-90 6,-90 0,-84 0,-78 0,-78 0,-66 0,-66 0,-60 6,-54 12,-54 12,-54 61,-54 61,-54 67,-54 73,-60 73,-66 73,-66 73,-78 73,-78 73,-84 67,-90 61,-90"/>
<text xml:space="preserve" text-anchor="middle" x="36.5" y="-66.95" font-family="Times New Roman,serif" font-size="14.00">void_baby</text>
</g>
<!-- void_rookie -->
<g id="node2" class="node">
<title>void_rookie</title>
<path fill="#b0bec5" stroke="black" d="M178.25,-90C178.25,-90 121,-90 121,-90 115,-90 109,-84 109,-78 109,-78 109,-66 109,-66 109,-60 115,-54 121,-54 121,-54 178.25,-54 178.25,-54 184.25,-54 190.25,-60 190.25,-66 190.25,-66 190.25,-78 190.25,-78 190.25,-84 184.25,-90 178.25,-90"/>
<text xml:space="preserve" text-anchor="middle" x="149.62" y="-66.95" font-family="Times New Roman,serif" font-size="14.00">void_rookie</text>
</g>
<!-- void_baby&#45;&gt;void_rookie -->
<g id="edge1" class="edge">
<title>void_baby&#45;&gt;void_rookie</title>
<path fill="none" stroke="black" d="M73.27,-72C80.95,-72 89.2,-72 97.34,-72"/>
<polygon fill="black" stroke="black" points="97.17,-75.5 107.17,-72 97.17,-68.5 97.17,-75.5"/>
</g>
<!-- void_champion_entropy -->
<g id="node3" class="node">
<title>void_champion_entropy</title>
<path fill="#b0bec5" stroke="black" d="M363,-144C363,-144 238.25,-144 238.25,-144 232.25,-144 226.25,-138 226.25,-132 226.25,-132 226.25,-120 226.25,-120 226.25,-114 232.25,-108 238.25,-108 238.25,-108 363,-108 363,-108 369,-108 375,-114 375,-120 375,-120 375,-132 375,-132 375,-138 369,-144 363,-144"/>
<text xml:space="preserve" text-anchor="middle" x="300.62" y="-120.95" font-family="Times New Roman,serif" font-size="14.00">void_champion_entropy</text>
</g>
<!-- void_rookie&#45;&gt;void_champion_entropy -->
<g id="edge2" class="edge">
<title>void_rookie&#45;&gt;void_champion_entropy</title>
<path fill="none" stroke="#7e57c2" d="M190.55,-86.47C205.19,-91.78 222.12,-97.91 238.2,-103.74"/>
<polygon fill="#7e57c2" stroke="#7e57c2" points="236.6,-106.88 247.2,-107 238.99,-100.3 236.6,-106.88"/>
</g>
<!-- void_champion_gravity -->
<g id="node4" class="node">
<title>void_champion_gravity</title>
<path fill="#b0bec5" stroke="black" d="M361.5,-36C361.5,-36 239.75,-36 239.75,-36 233.75,-36 227.75,-30 227.75,-24 227.75,-24 227.75,-12 227.75,-12 227.75,-6 233.75,0 239.75,0 239.75,0 361.5,0 361.5,0 367.5,0 373.5,-6 373.5,-12 373.5,-12 373.5,-24 373.5,-24 373.5,-30 367.5,-36 361.5,-36"/>
<text xml:space="preserve" text-anchor="middle" x="300.62" y="-12.95" font-family="Times New Roman,serif" font-size="14.00">void_champion_gravity</text>
</g>
<!-- void_rookie&#45;&gt;void_champion_gravity -->
<g id="edge3" class="edge">
<title>void_rookie&#45;&gt;void_champion_gravity</title>
<path fill="none" stroke="#7e57c2" d="M190.55,-57.53C205.19,-52.22 222.12,-46.09 238.2,-40.26"/>
<polygon fill="#7e57c2" stroke="#7e57c2" points="238.99,-43.7 247.2,-37 236.6,-37.12 238.99,-43.7"/>
</g>
<!-- void_champion_null -->
<g id="node5" class="node">
<title>void_champion_null</title>
<path fill="#b0bec5" stroke="black" d="M352.88,-90C352.88,-90 248.38,-90 248.38,-90 242.38,-90 236.38,-84 236.38,-78 236.38,-78 236.38,-66 236.38,-66 236.38,-60 242.38,-54 248.38,-54 248.38,-54 352.88,-54 352.88,-54 358.88,-54 364.88,-60 364.88,-66 364.88,-66 364.88,-78 364.88,-78 364.88,-84 358.88,-90 352.88,-90"/>
<text xml:space="preserve" text-anchor="middle" x="300.62" y="-66.95" font-family="Times New Roman,serif" font-size="14.00">void_champion_null</text>
</g>
<!-- void_rookie&#45;&gt;void_champion_null -->
<g id="edge4" class="edge">
<title>void_rookie&#45;&gt;void_champion_null</title>
<path fill="none" stroke="#7e57c2" d="M190.55,-72C201.14,-72 212.92,-72 224.71,-72"/>
<polygon fill="#7e57c2" stroke="#7e57c2" points="224.47,-75.5 234.47,-72 224.47,-68.5 224.47,-75.5"/>
</g>
<!-- corrupt_final_glitch -->
<g id="node6" class="node">
<title>corrupt_final_glitch</title>
<path fill="lightgrey" stroke="black" d="M529,-144C529,-144 429,-144 429,-144 423,-144 417,-138 417,-132 417,-132 417,-120 417,-120 417,-114 423,-108 429,-108 429,-108 529,-108 529,-108 535,-108 541,-114 541,-120 541,-120 541,-132 541,-132 541,-138 535,-144 529,-144"/>
<text xml:space="preserve" text-anchor="middle" x="479" y="-120.95" font-family="Times New Roman,serif" font-size="14.00">corrupt_final_glitch</text>
</g>
<!-- void_champion_entropy&#45;&gt;corrupt_final_glitch -->
<g id="edge5" class="edge">
<title>void_champion_entropy&#45;&gt;corrupt_final_glitch</title>
<path fill="none" stroke="#7e57c2" d="M375.4,-126C385.24,-126 395.32,-126 405.15,-126"/>
<polygon fill="#7e57c2" stroke="#7e57c2" points="405.01,-129.5 415.01,-126 405.01,-122.5 405.01,-129.5"/>
</g>
<!-- void_final_oblivion -->
<g id="node7" class="node">
<title>void_final_oblivion</title>
<path fill="lightgrey" stroke="black" d="M528.62,-90C528.62,-90 429.38,-90 429.38,-90 423.38,-90 417.38,-84 417.38,-78 417.38,-78 417.38,-66 417.38,-66 417.38,-60 423.38,-54 429.38,-54 429.38,-54 528.62,-54 528.62,-54 534.62,-54 540.62,-60 540.62,-66 540.62,-66 540.62,-78 540.62,-78 540.62,-84 534.62,-90 528.62,-90"/>
<text xml:space="preserve" text-anchor="middle" x="479" y="-66.95" font-family="Times New Roman,serif" font-size="14.00">void_final_oblivion</text>
</g>
<!-- void_champion_entropy&#45;&gt;void_final_oblivion -->
<g id="edge6" class="edge">
<title>void_champion_entropy&#45;&gt;void_final_oblivion</title>
<path fill="none" stroke="#7e57c2" d="M361.83,-107.57C376.36,-103.12 392.03,-98.32 407.01,-93.74"/>
<polygon fill="#7e57c2" stroke="#7e57c2" points="407.78,-97.16 416.32,-90.88 405.73,-90.47 407.78,-97.16"/>
</g>
<!-- void_champion_gravity&#45;&gt;void_final_oblivion -->
<g id="edge8" class="edge">
<title>void_champion_gravity&#45;&gt;void_final_oblivion</title>
<path fill="none" stroke="#7e57c2" d="M361.83,-36.43C376.36,-40.88 392.03,-45.68 407.01,-50.26"/>
<polygon fill="#7e57c2" stroke="#7e57c2" points="405.73,-53.53 416.32,-53.12 407.78,-46.84 405.73,-53.53"/>
</g>
<!-- void_final_singularity -->
<g id="node8" class="node">
<title>void_final_singularity</title>
<path fill="lightgrey" stroke="black" d="M535,-36C535,-36 423,-36 423,-36 417,-36 411,-30 411,-24 411,-24 411,-12 411,-12 411,-6 417,0 423,0 423,0 535,0 535,0 541,0 547,-6 547,-12 547,-12 547,-24 547,-24 547,-30 541,-36 535,-36"/>
<text xml:space="preserve" text-anchor="middle" x="479" y="-12.95" font-family="Times New Roman,serif" font-size="14.00">void_final_singularity</text>
</g>
<!-- void_champion_gravity&#45;&gt;void_final_singularity -->
<g id="edge7" class="edge">
<title>void_champion_gravity&#45;&gt;void_final_singularity</title>
<path fill="none" stroke="#7e57c2" d="M373.87,-18C382.24,-18 390.81,-18 399.27,-18"/>
<polygon fill="#7e57c2" stroke="#7e57c2" points="399.18,-21.5 409.18,-18 399.18,-14.5 399.18,-21.5"/>
</g>
<!-- void_champion_null&#45;&gt;void_final_oblivion -->
<g id="edge9" class="edge">
<title>void_champion_null&#45;&gt;void_final_oblivion</title>
<path fill="none" stroke="#7e57c2" d="M365.3,-72C378.48,-72 392.46,-72 405.92,-72"/>
<polygon fill="#7e57c2" stroke="#7e57c2" points="405.56,-75.5 415.56,-72 405.56,-68.5 405.56,-75.5"/>
</g>
<!-- void_champion_null&#45;&gt;void_final_singularity -->
<g id="edge10" class="edge">
<title>void_champion_null&#45;&gt;void_final_singularity</title>
<path fill="none" stroke="#7e57c2" d="M361.83,-53.57C376.36,-49.12 392.03,-44.32 407.01,-39.74"/>
<polygon fill="#7e57c2" stroke="#7e57c2" points="407.78,-43.16 416.32,-36.88 405.73,-36.47 407.78,-43.16"/>
</g>
</g>
</svg>
