<?xml version="1.0" encoding="UTF-8" standalone="no"?>
<!DOCTYPE svg PUBLIC "-//W3C//DTD SVG 1.1//EN"
 "http://www.w3.org/Graphics/SVG/1.1/DTD/svg11.dtd">
<!-- Generated by graphviz version 14.1.2 (20260124.0452)
 -->
<!-- Title: EvolutionTree Pages: 1 -->
<svg width="559pt" height="152pt"
 viewBox="0.00 0.00 559.00 152.00" xmlns="http://www.w3.org/2000/svg" xmlns:xlink="http://www.w3.org/1999/xlink">
<g id="graph0" class="graph" transform="scale(1 1) rotate(0) translate(4 148)">
<title>EvolutionTree</title>
<polygon fill="white" stroke="none" points="-4,4 -4,-148 554.75,-148 554.75,4 -4,4"/>
<!-- echo_baby -->
<g id="node1" class="node">
<title>echo_baby</title>
<path fill="#ba68c8" stroke="black" d="M62.5,-90C62.5,-90 12,-90 12,-90 6,-90 0,-84 0,-78 0,-78 0,-66 0,-66 0,-60 6,-54 12,-54 12,-54 62.5,-54 62.5,-54 68.5,-54 74.5,-60 74.5,-66 74.5,-66 74.5,-78 74.5,-78 74.5,-84 68.5,-90 62.5,-90"/>
<text xml:space="preserve" text-anchor="middle" x="37.25" y="-66.95" font-family="Times New Roman,serif" font-size="14.00">echo_baby</text>
</g>
<!-- echo_rookie -->
<g id="node2" class="node">
<title>echo_rookie</title>
<path fill="#ba68c8" stroke="black" d="M181.25,-90C181.25,-90 122.5,-90 122.5,-90 116.5,-90 110.5,-84 110.5,-78 110.5,-78 110.5,-66 110.5,-66 110.5,-60 116.5,-54 122.5,-54 122.5,-54 181.25,-54 181.25,-54 187.25,-54 193.25,-60 193.25,-66 193.25,-66 193.25,-78 193.25,-78 193.25,-84 187.25,-90 181.25,-90"/>
<text xml:space="preserve" text-anchor="middle" x="151.88" y="-66.95" font-family="Times New Roman,serif" font-size="14.00">echo_rookie</text>
</g>
<!-- echo_baby&#45;&gt;echo_rookie -->
<g id="edge1" class="edge">
<title>echo_baby&#45;&gt;echo_rookie</title>
<path fill="none" stroke="black" d="M74.82,-72C82.5,-72 90.74,-72 98.87,-72"/>
<polygon fill="black" stroke="black" points="98.69,-75.5 108.69,-72 98.69,-68.5 98.69,-75.5"/>
</g>
<!-- echo_champion_resonate -->
<g id="node3" class="node">
<title>echo_champion_resonate</title>
<path fill="#ba68c8" stroke="black" d="M371.25,-144C371.25,-144 241.25,-144 241.25,-144 235.25,-144 229.25,-138 229.25,-132 229.25,-132 229.25,-120 229.25,-120 229.25,-114 235.25,-108 241.25,-108 241.25,-108 371.25,-108 371.25,-108 377.25,-108 383.25,-114 383.25,-120 383.25,-120 383.25,-132 383.25,-132 383.25,-138 377.25,-144 371.25,-144"/>
<text xml:space="preserve" text-anchor="middle" x="306.25" y="-120.95" font-family="Times New Roman,serif" font-size="14.00">echo_champion_resonate</text>
</g>
<!-- echo_rookie&#45;&gt;echo_champion_resonate -->
<g id="edge2" class="edge">
<title>echo_rookie&#45;&gt;echo_champion_resonate</title>
<path fill="none" stroke="#7e57c2" d="M193.71,-86.47C208.68,-91.78 225.99,-97.91 242.44,-103.74"/>
<polygon fill="#7e57c2" stroke="#7e57c2" points="241.07,-106.97 251.66,-107.01 243.41,-100.37 241.07,-106.97"/>
</g>
<!-- echo_champion_reverb -->
<g id="node4" class="node">
<title>echo_champion_reverb</title>
<path fill="#ba68c8" stroke="black" d="M366,-90C366,-90 246.5,-90 246.5,-90 240.5,-90 234.5,-84 234.5,-78 234.5,-78 234.5,-66 234.5,-66 234.5,-60 240.5,-54 246.5,-54 246.5,-54 366,-54 366,-54 372,-54 378,-60 378,-66 378,-66 378,-78 378,-78 378,-84 372,-90 366,-90"/>
<text xml:space="preserve" text-anchor="middle" x="306.25" y="-66.95" font-family="Times New Roman,serif" font-size="14.00">echo_champion_reverb</text>
</g>
<!-- echo_rookie&#45;&gt;echo_champion_reverb -->
<g id="edge3" class="edge">
<title>echo_rookie&#45;&gt;echo_champion_reverb</title>
<path fill="none" stroke="#7e57c2" d="M193.71,-72C202.74,-72 212.62,-72 222.65,-72"/>
<polygon fill="#7e57c2" stroke="#7e57c2" points="222.49,-75.5 232.49,-72 222.49,-68.5 222.49,-75.5"/>
</g>
<!-- echo_champion_distort -->
<g id="node5" class="node">
<title>echo_champion_distort</title>
<path fill="#ba68c8" stroke="black" d="M366,-36C366,-36 246.5,-36 246.5,-36 240.5,-36 234.5,-30 234.5,-24 234.5,-24 234.5,-12 234.5,-12 234.5,-6 240.5,0 246.5,0 246.5,0 366,0 366,0 372,0 378,-6 378,-12 378,-12 378,-24 378,-24 378,-30 372,-36 366,-36"/>
<text xml:space="preserve" text-anchor="middle" x="306.25" y="-12.95" font-family="Times New Roman,serif" font-size="14.00">echo_champion_distort</text>
</g>
<!-- echo_rookie&#45;&gt;echo_champion_distort -->
<g id="edge4" class="edge">
<title>echo_rookie&#45;&gt;echo_champion_distort</title>
<path fill="none" stroke="#7e57c2" d="M193.71,-57.53C208.68,-52.22 225.99,-46.09 242.44,-40.26"/>
<polygon fill="#7e57c2" stroke="#7e57c2" points="243.41,-43.63 251.66,-36.99 241.07,-37.03 243.41,-43.63"/>
</g>
<!-- echo_final_harmonic -->
<g id="node6" class="node">
<title>echo_final_harmonic</title>
<path fill="lightgrey" stroke="black" d="M538.75,-117C538.75,-117 431.25,-117 431.25,-117 425.25,-117 419.25,-111 419.25,-105 419.25,-105 419.25,-93 419.25,-93 419.25,-87 425.25,-81 431.25,-81 431.25,-81 538.75,-81 538.75,-81 544.75,-81 550.75,-87 550.75,-93 550.75,-93 550.75,-105 550.75,-105 550.75,-111 544.75,-117 538.75,-117"/>
<text xml:space="preserve" text-anchor="middle" x="485" y="-93.95" font-family="Times New Roman,serif" font-size="14.00">echo_final_harmonic</text>
</g>
<!-- echo_champion_resonate&#45;&gt;echo_final_harmonic -->
<g id="edge5" class="edge">
<title>echo_champion_resonate&#45;&gt;echo_final_harmonic</title>
<path fill="none" stroke="#7e57c2" d="M383.75,-114.31C391.74,-113.09 399.86,-111.85 407.85,-110.63"/>
<polygon fill="#7e57c2" stroke="#7e57c2" points="408.17,-114.13 417.52,-109.16 407.11,-107.21 408.17,-114.13"/>
</g>
<!-- echo_final_feedback -->
<g id="node7" class="node">
<title>echo_final_feedback</title>
<path fill="lightgrey" stroke="black" d="M537.25,-63C537.25,-63 432.75,-63 432.75,-63 426.75,-63 420.75,-57 420.75,-51 420.75,-51 420.75,-39 420.75,-39 420.75,-33 426.75,-27 432.75,-27 432.75,-27 537.25,-27 537.25,-27 543.25,-27 549.25,-33 549.25,-39 549.25,-39 549.25,-51 549.25,-51 549.25,-57 543.25,-63 537.25,-63"/>
<text xml:space="preserve" text-anchor="middle" x="485" y="-39.95" font-family="Times New Roman,serif" font-size="14.00">echo_final_feedback</text>
</g>
<!-- echo_champion_resonate&#45;&gt;echo_final_feedback -->
<g id="edge6" class="edge">
<title>echo_champion_resonate&#45;&gt;echo_final_feedback</title>
<path fill="none" stroke="#7e57c2" d="M364.91,-107.62C371.22,-104.99 377.45,-102.11 383.25,-99 400.87,-89.54 401.89,-81.93 419.25,-72 421.4,-70.77 423.61,-69.57 425.87,-68.4"/>
<polygon fill="#7e57c2" stroke="#7e57c2" points="427.17,-71.66 434.61,-64.11 424.09,-65.37 427.17,-71.66"/>
</g>
<!-- echo_champion_reverb&#45;&gt;echo_final_harmonic -->
<g id="edge8" class="edge">
<title>echo_champion_reverb&#45;&gt;echo_final_harmonic</title>
<path fill="none" stroke="#7e57c2" d="M378.38,-82.87C388.03,-84.34 397.97,-85.86 407.71,-87.35"/>
<polygon fill="#7e57c2" stroke="#7e57c2" points="407.11,-90.79 417.52,-88.84 408.17,-83.87 407.11,-90.79"/>
</g>
<!-- echo_champion_reverb&#45;&gt;echo_final_feedback -->
<g id="edge7" class="edge">
<title>echo_champion_reverb&#45;&gt;echo_final_feedback</title>
<path fill="none" stroke="#7e57c2" d="M378.38,-61.13C388.48,-59.59 398.9,-58 409.08,-56.45"/>
<polygon fill="#7e57c2" stroke="#7e57c2" points="409.58,-59.91 418.94,-54.94 408.52,-52.99 409.58,-59.91"/>
</g>
<!-- echo_champion_distort&#45;&gt;echo_final_harmonic -->
<g id="edge10" class="edge">
<title>echo_champion_distort&#45;&gt;echo_final_harmonic</title>
<path fill="none" stroke="#7e57c2" d="M364.91,-36.38C371.22,-39.01 377.45,-41.89 383.25,-45 400.87,-54.46 401.89,-62.07 419.25,-72 421.4,-73.23 423.61,-74.43 425.87,-75.6"/>
<polygon fill="#7e57c2" stroke="#7e57c2" points="424.09,-78.63 434.61,-79.89 427.17,-72.34 424.09,-78.63"/>
</g>
<!-- echo_champion_distort&#45;&gt;echo_final_feedback -->
<g id="edge9" class="edge">
<title>echo_champion_distort&#45;&gt;echo_final_feedback</title>
<path fill="none" stroke="#7e57c2" d="M378.38,-28.87C388.48,-30.41 398.9,-32 409.08,-33.55"/>
<polygon fill="#7e57c2" stroke="#7e57c2" points="408.52,-37.01 418.94,-35.06 409.58,-30.09 408.52,-37.01"/>
</g>
</g>
</svg>
