<?xml version="1.0" encoding="UTF-8" standalone="no"?>
<!DOCTYPE svg PUBLIC "-//W3C//DTD SVG 1.1//EN"
 "http://www.w3.org/Graphics/SVG/1.1/DTD/svg11.dtd">
<!-- Generated by graphviz version 2.43.0 (0)
 -->
<!-- Title: EvolutionTree Pages: 1 -->
<svg width="636pt" height="206pt"
 viewBox="0.00 0.00 636.00 206.00" xmlns="http://www.w3.org/2000/svg" xmlns:xlink="http://www.w3.org/1999/xlink">
<g id="graph0" class="graph" transform="scale(1 1) rotate(0) translate(4 202)">
<title>EvolutionTree</title>
<polygon fill="white" stroke="transparent" points="-4,4 -4,-202 632,-202 632,4 -4,4"/>
<!-- core_baby -->
<g id="node1" class="node">
<title>core_baby</title>
<path fill="#4fc3f7" stroke="black" d="M77,-117C77,-117 12,-117 12,-117 6,-117 0,-111 0,-105 0,-105 0,-93 0,-93 0,-87 6,-81 12,-81 12,-81 77,-81 77,-81 83,-81 89,-87 89,-93 89,-93 89,-105 89,-105 89,-111 83,-117 77,-117"/>
<text text-anchor="middle" x="44.5" y="-95.3" font-family="Times,serif" font-size="14.00">core_baby</text>
</g>
<!-- core_rookie -->
<g id="node2" class="node">
<title>core_rookie</title>
<path fill="#4fc3f7" stroke="black" d="M211,-117C211,-117 137,-117 137,-117 131,-117 125,-111 125,-105 125,-105 125,-93 125,-93 125,-87 131,-81 137,-81 137,-81 211,-81 211,-81 217,-81 223,-87 223,-93 223,-93 223,-105 223,-105 223,-111 217,-117 211,-117"/>
<text text-anchor="middle" x="174" y="-95.3" font-family="Times,serif" font-size="14.00">core_rookie</text>
</g>
<!-- core_baby&#45;&gt;core_rookie -->
<g id="edge1" class="edge">
<title>core_baby&#45;&gt;core_rookie</title>
<path fill="none" stroke="black" d="M89.02,-99C97.32,-99 106.12,-99 114.79,-99"/>
<polygon fill="black" stroke="black" points="114.87,-102.5 124.87,-99 114.87,-95.5 114.87,-102.5"/>
</g>
<!-- core_champion_power -->
<g id="node3" class="node">
<title>core_champion_power</title>
<path fill="#4fc3f7" stroke="black" d="M421,-171C421,-171 271,-171 271,-171 265,-171 259,-165 259,-159 259,-159 259,-147 259,-147 259,-141 265,-135 271,-135 271,-135 421,-135 421,-135 427,-135 433,-141 433,-147 433,-147 433,-159 433,-159 433,-165 427,-171 421,-171"/>
<text text-anchor="middle" x="346" y="-149.3" font-family="Times,serif" font-size="14.00">core_champion_power</text>
</g>
<!-- core_rookie&#45;&gt;core_champion_power -->
<g id="edge2" class="edge">
<title>core_rookie&#45;&gt;core_champion_power</title>
<path fill="none" stroke="#7e57c2" d="M223.4,-114.62C235.05,-118.36 247.47,-122.34 259,-126 264.97,-127.9 271.18,-129.86 277.4,-131.82"/>
<polygon fill="#7e57c2" stroke="#7e57c2" points="276.57,-135.23 287.16,-134.9 278.67,-128.56 276.57,-135.23"/>
</g>
<!-- core_champion_guard -->
<g id="node4" class="node">
<title>core_champion_guard</title>
<path fill="#4fc3f7" stroke="black" d="M420,-117C420,-117 272,-117 272,-117 266,-117 260,-111 260,-105 260,-105 260,-93 260,-93 260,-87 266,-81 272,-81 272,-81 420,-81 420,-81 426,-81 432,-87 432,-93 432,-93 432,-105 432,-105 432,-111 426,-117 420,-117"/>
<text text-anchor="middle" x="346" y="-95.3" font-family="Times,serif" font-size="14.00">core_champion_guard</text>
</g>
<!-- core_rookie&#45;&gt;core_champion_guard -->
<g id="edge3" class="edge">
<title>core_rookie&#45;&gt;core_champion_guard</title>
<path fill="none" stroke="#7e57c2" d="M223.26,-99C231.69,-99 240.73,-99 249.92,-99"/>
<polygon fill="#7e57c2" stroke="#7e57c2" points="249.93,-102.5 259.93,-99 249.93,-95.5 249.93,-102.5"/>
</g>
<!-- core_champion_speed -->
<g id="node5" class="node">
<title>core_champion_speed</title>
<path fill="#4fc3f7" stroke="black" d="M420,-63C420,-63 272,-63 272,-63 266,-63 260,-57 260,-51 260,-51 260,-39 260,-39 260,-33 266,-27 272,-27 272,-27 420,-27 420,-27 426,-27 432,-33 432,-39 432,-39 432,-51 432,-51 432,-57 426,-63 420,-63"/>
<text text-anchor="middle" x="346" y="-41.3" font-family="Times,serif" font-size="14.00">core_champion_speed</text>
</g>
<!-- core_rookie&#45;&gt;core_champion_speed -->
<g id="edge4" class="edge">
<title>core_rookie&#45;&gt;core_champion_speed</title>
<path fill="none" stroke="#7e57c2" d="M223.4,-83.38C235.05,-79.64 247.47,-75.66 259,-72 264.97,-70.1 271.18,-68.14 277.4,-66.18"/>
<polygon fill="#7e57c2" stroke="#7e57c2" points="278.67,-69.44 287.16,-63.1 276.57,-62.77 278.67,-69.44"/>
</g>
<!-- core_final_overclock -->
<g id="node6" class="node">
<title>core_final_overclock</title>
<path fill="lightgrey" stroke="black" d="M616,-198C616,-198 481,-198 481,-198 475,-198 469,-192 469,-186 469,-186 469,-174 469,-174 469,-168 475,-162 481,-162 481,-162 616,-162 616,-162 622,-162 628,-168 628,-174 628,-174 628,-186 628,-186 628,-192 622,-198 616,-198"/>
<text text-anchor="middle" x="548.5" y="-176.3" font-family="Times,serif" font-size="14.00">core_final_overclock</text>
</g>
<!-- core_champion_power&#45;&gt;core_final_overclock -->
<g id="edge5" class="edge">
<title>core_champion_power&#45;&gt;core_final_overclock</title>
<path fill="none" stroke="#7e57c2" d="M433.19,-164.61C441.74,-165.76 450.42,-166.93 458.99,-168.08"/>
<polygon fill="#7e57c2" stroke="#7e57c2" points="458.6,-171.56 468.98,-169.43 459.53,-164.62 458.6,-171.56"/>
</g>
<!-- core_final_prime -->
<g id="node7" class="node">
<title>core_final_prime</title>
<path fill="lightgrey" stroke="black" d="M603.5,-144C603.5,-144 493.5,-144 493.5,-144 487.5,-144 481.5,-138 481.5,-132 481.5,-132 481.5,-120 481.5,-120 481.5,-114 487.5,-108 493.5,-108 493.5,-108 603.5,-108 603.5,-108 609.5,-108 615.5,-114 615.5,-120 615.5,-120 615.5,-132 615.5,-132 615.5,-138 609.5,-144 603.5,-144"/>
<text text-anchor="middle" x="548.5" y="-122.3" font-family="Times,serif" font-size="14.00">core_final_prime</text>
</g>
<!-- core_champion_power&#45;&gt;core_final_prime -->
<g id="edge6" class="edge">
<title>core_champion_power&#45;&gt;core_final_prime</title>
<path fill="none" stroke="#7e57c2" d="M433.19,-141.39C445.8,-139.7 458.7,-137.96 471.09,-136.29"/>
<polygon fill="#7e57c2" stroke="#7e57c2" points="471.92,-139.71 481.36,-134.91 470.98,-132.77 471.92,-139.71"/>
</g>
<!-- core_champion_guard&#45;&gt;core_final_prime -->
<g id="edge8" class="edge">
<title>core_champion_guard&#45;&gt;core_final_prime</title>
<path fill="none" stroke="#7e57c2" d="M432.03,-110.45C445.08,-112.21 458.49,-114.01 471.34,-115.74"/>
<polygon fill="#7e57c2" stroke="#7e57c2" points="471.12,-119.25 481.5,-117.11 472.06,-112.31 471.12,-119.25"/>
</g>
<!-- core_final_bastion -->
<g id="node8" class="node">
<title>core_final_bastion</title>
<path fill="lightgrey" stroke="black" d="M608.5,-90C608.5,-90 488.5,-90 488.5,-90 482.5,-90 476.5,-84 476.5,-78 476.5,-78 476.5,-66 476.5,-66 476.5,-60 482.5,-54 488.5,-54 488.5,-54 608.5,-54 608.5,-54 614.5,-54 620.5,-60 620.5,-66 620.5,-66 620.5,-78 620.5,-78 620.5,-84 614.5,-90 608.5,-90"/>
<text text-anchor="middle" x="548.5" y="-68.3" font-family="Times,serif" font-size="14.00">core_final_bastion</text>
</g>
<!-- core_champion_guard&#45;&gt;core_final_bastion -->
<g id="edge7" class="edge">
<title>core_champion_guard&#45;&gt;core_final_bastion</title>
<path fill="none" stroke="#7e57c2" d="M432.03,-87.55C443.31,-86.03 454.85,-84.48 466.06,-82.97"/>
<polygon fill="#7e57c2" stroke="#7e57c2" points="466.81,-86.4 476.25,-81.59 465.87,-79.46 466.81,-86.4"/>
</g>
<!-- core_champion_speed&#45;&gt;core_final_prime -->
<g id="edge10" class="edge">
<title>core_champion_speed&#45;&gt;core_final_prime</title>
<path fill="none" stroke="#7e57c2" d="M412.74,-63.07C419.71,-65.74 426.59,-68.72 433,-72 450.8,-81.13 451.33,-89.63 469,-99 472.25,-100.72 475.63,-102.37 479.08,-103.94"/>
<polygon fill="#7e57c2" stroke="#7e57c2" points="477.78,-107.19 488.35,-107.91 480.54,-100.75 477.78,-107.19"/>
</g>
<!-- core_final_photon -->
<g id="node9" class="node">
<title>core_final_photon</title>
<path fill="lightgrey" stroke="black" d="M607,-36C607,-36 490,-36 490,-36 484,-36 478,-30 478,-24 478,-24 478,-12 478,-12 478,-6 484,0 490,0 490,0 607,0 607,0 613,0 619,-6 619,-12 619,-12 619,-24 619,-24 619,-30 613,-36 607,-36"/>
<text text-anchor="middle" x="548.5" y="-14.3" font-family="Times,serif" font-size="14.00">core_final_photon</text>
</g>
<!-- core_champion_speed&#45;&gt;core_final_photon -->
<g id="edge9" class="edge">
<title>core_champion_speed&#45;&gt;core_final_photon</title>
<path fill="none" stroke="#7e57c2" d="M432.03,-33.55C443.83,-31.96 455.93,-30.33 467.63,-28.76"/>
<polygon fill="#7e57c2" stroke="#7e57c2" points="468.36,-32.19 477.8,-27.39 467.43,-25.25 468.36,-32.19"/>
</g>
</g>
</svg>
