<?xml version="1.0" encoding="UTF-8" standalone="no"?>
<!DOCTYPE svg PUBLIC "-//W3C//DTD SVG 1.1//EN"
 "http://www.w3.org/Graphics/SVG/1.1/DTD/svg11.dtd">
<!-- Generated by graphviz version 14.1.2 (20260124.0452)
 -->
<!-- Title: EvolutionTree Pages: 1 -->
<svg width="527pt" height="206pt"
 viewBox="0.00 0.00 527.00 206.00" xmlns="http://www.w3.org/2000/svg" xmlns:xlink="http://www.w3.org/1999/xlink">
<g id="graph0" class="graph" transform="scale(1 1) rotate(0) translate(4 202)">
<title>EvolutionTree</title>
<polygon fill="white" stroke="none" points="-4,4 -4,-202 523.25,-202 523.25,4 -4,4"/>
<!-- root_baby -->
<g id="node1" class="node">
<title>root_baby</title>
<path fill="#81c784" stroke="black" d="M58.75,-117C58.75,-117 12,-117 12,-117 6,-117 0,-111 0,-105 0,-105 0,-93 0,-93 0,-87 6,-81 12,-81 12,-81 58.75,-81 58.75,-81 64.75,-81 70.75,-87 70.75,-93 70.75,-93 70.75,-105 70.75,-105 70.75,-111 64.75,-117 58.75,-117"/>
<text xml:space="preserve" text-anchor="middle" x="35.38" y="-93.95" font-family="Times New Roman,serif" font-size="14.00">root_baby</text>
</g>
<!-- root_rookie -->
<g id="node2" class="node">
<title>root_rookie</title>
<path fill="#81c784" stroke="black" d="M173.75,-117C173.75,-117 118.75,-117 118.75,-117 112.75,-117 106.75,-111 106.75,-105 106.75,-105 106.75,-93 106.75,-93 106.75,-87 112.75,-81 118.75,-81 118.75,-81 173.75,-81 173.75,-81 179.75,-81 185.75,-87 185.75,-93 185.75,-93 185.75,-105 185.75,-105 185.75,-111 179.75,-117 173.75,-117"/>
<text xml:space="preserve" text-anchor="middle" x="146.25" y="-93.95" font-family="Times New Roman,serif" font-size="14.00">root_rookie</text>
</g>
<!-- root_baby&#45;&gt;root_rookie -->
<g id="edge1" class="edge">
<title>root_baby&#45;&gt;root_rookie</title>
<path fill="none" stroke="black" d="M71.12,-99C78.74,-99 86.94,-99 95.03,-99"/>
<polygon fill="black" stroke="black" points="94.78,-102.5 104.78,-99 94.78,-95.5 94.78,-102.5"/>
</g>
<!-- root_champion_thorn -->
<g id="node3" class="node">
<title>root_champion_thorn</title>
<path fill="#81c784" stroke="black" d="M346.88,-171C346.88,-171 237.12,-171 237.12,-171 231.12,-171 225.12,-165 225.12,-159 225.12,-159 225.12,-147 225.12,-147 225.12,-141 231.12,-135 237.12,-135 237.12,-135 346.88,-135 346.88,-135 352.88,-135 358.88,-141 358.88,-147 358.88,-147 358.88,-159 358.88,-159 358.88,-165 352.88,-171 346.88,-171"/>
<text xml:space="preserve" text-anchor="middle" x="292" y="-147.95" font-family="Times New Roman,serif" font-size="14.00">root_champion_thorn</text>
</g>
<!-- root_rookie&#45;&gt;root_champion_thorn -->
<g id="edge2" class="edge">
<title>root_rookie&#45;&gt;root_champion_thorn</title>
<path fill="none" stroke="#7e57c2" d="M186.15,-113.61C200.07,-118.84 216.09,-124.86 231.36,-130.59"/>
<polygon fill="#7e57c2" stroke="#7e57c2" points="229.76,-133.73 240.35,-133.97 232.22,-127.18 229.76,-133.73"/>
</g>
<!-- root_champion_bloom -->
<g id="node4" class="node">
<title>root_champion_bloom</title>
<path fill="#81c784" stroke="black" d="M350.25,-117C350.25,-117 233.75,-117 233.75,-117 227.75,-117 221.75,-111 221.75,-105 221.75,-105 221.75,-93 221.75,-93 221.75,-87 227.75,-81 233.75,-81 233.75,-81 350.25,-81 350.25,-81 356.25,-81 362.25,-87 362.25,-93 362.25,-93 362.25,-105 362.25,-105 362.25,-111 356.25,-117 350.25,-117"/>
<text xml:space="preserve" text-anchor="middle" x="292" y="-93.95" font-family="Times New Roman,serif" font-size="14.00">root_champion_bloom</text>
</g>
<!-- root_rookie&#45;&gt;root_champion_bloom -->
<g id="edge3" class="edge">
<title>root_rookie&#45;&gt;root_champion_bloom</title>
<path fill="none" stroke="#7e57c2" d="M186.15,-99C193.64,-99 201.74,-99 210,-99"/>
<polygon fill="#7e57c2" stroke="#7e57c2" points="209.81,-102.5 219.81,-99 209.81,-95.5 209.81,-102.5"/>
</g>
<!-- root_champion_bark -->
<g id="node5" class="node">
<title>root_champion_bark</title>
<path fill="#81c784" stroke="black" d="M344.62,-63C344.62,-63 239.38,-63 239.38,-63 233.38,-63 227.38,-57 227.38,-51 227.38,-51 227.38,-39 227.38,-39 227.38,-33 233.38,-27 239.38,-27 239.38,-27 344.62,-27 344.62,-27 350.62,-27 356.62,-33 356.62,-39 356.62,-39 356.62,-51 356.62,-51 356.62,-57 350.62,-63 344.62,-63"/>
<text xml:space="preserve" text-anchor="middle" x="292" y="-39.95" font-family="Times New Roman,serif" font-size="14.00">root_champion_bark</text>
</g>
<!-- root_rookie&#45;&gt;root_champion_bark -->
<g id="edge4" class="edge">
<title>root_rookie&#45;&gt;root_champion_bark</title>
<path fill="none" stroke="#7e57c2" d="M186.15,-84.39C200.07,-79.16 216.09,-73.14 231.36,-67.41"/>
<polygon fill="#7e57c2" stroke="#7e57c2" points="232.22,-70.82 240.35,-64.03 229.76,-64.27 232.22,-70.82"/>
</g>
<!-- root_final_bramble -->
<g id="node6" class="node">
<title>root_final_bramble</title>
<path fill="lightgrey" stroke="black" d="M507.25,-198C507.25,-198 410.25,-198 410.25,-198 404.25,-198 398.25,-192 398.25,-186 398.25,-186 398.25,-174 398.25,-174 398.25,-168 404.25,-162 410.25,-162 410.25,-162 507.25,-162 507.25,-162 513.25,-162 519.25,-168 519.25,-174 519.25,-174 519.25,-186 519.25,-186 519.25,-192 513.25,-198 507.25,-198"/>
<text xml:space="preserve" text-anchor="middle" x="458.75" y="-174.95" font-family="Times New Roman,serif" font-size="14.00">root_final_bramble</text>
</g>
<!-- root_champion_thorn&#45;&gt;root_final_bramble -->
<g id="edge5" class="edge">
<title>root_champion_thorn&#45;&gt;root_final_bramble</title>
<path fill="none" stroke="#7e57c2" d="M359.06,-163.83C368.16,-165.32 377.54,-166.85 386.73,-168.36"/>
<polygon fill="#7e57c2" stroke="#7e57c2" points="385.88,-171.77 396.31,-169.93 387.01,-164.86 385.88,-171.77"/>
</g>
<!-- root_final_ancient -->
<g id="node7" class="node">
<title>root_final_ancient</title>
<path fill="lightgrey" stroke="black" d="M504.25,-144C504.25,-144 413.25,-144 413.25,-144 407.25,-144 401.25,-138 401.25,-132 401.25,-132 401.25,-120 401.25,-120 401.25,-114 407.25,-108 413.25,-108 413.25,-108 504.25,-108 504.25,-108 510.25,-108 516.25,-114 516.25,-120 516.25,-120 516.25,-132 516.25,-132 516.25,-138 510.25,-144 504.25,-144"/>
<text xml:space="preserve" text-anchor="middle" x="458.75" y="-120.95" font-family="Times New Roman,serif" font-size="14.00">root_final_ancient</text>
</g>
<!-- root_champion_thorn&#45;&gt;root_final_ancient -->
<g id="edge6" class="edge">
<title>root_champion_thorn&#45;&gt;root_final_ancient</title>
<path fill="none" stroke="#7e57c2" d="M359.06,-142.17C369.14,-140.52 379.56,-138.81 389.69,-137.15"/>
<polygon fill="#7e57c2" stroke="#7e57c2" points="390.16,-140.62 399.46,-135.55 389.03,-133.72 390.16,-140.62"/>
</g>
<!-- root_champion_bloom&#45;&gt;root_final_ancient -->
<g id="edge7" class="edge">
<title>root_champion_bloom&#45;&gt;root_final_ancient</title>
<path fill="none" stroke="#7e57c2" d="M362.39,-110.37C371.42,-111.85 380.66,-113.37 389.67,-114.84"/>
<polygon fill="#7e57c2" stroke="#7e57c2" points="388.99,-118.28 399.42,-116.44 390.12,-111.37 388.99,-118.28"/>
</g>
<!-- root_final_verdant -->
<g id="node8" class="node">
<title>root_final_verdant</title>
<path fill="lightgrey" stroke="black" d="M505,-90C505,-90 412.5,-90 412.5,-90 406.5,-90 400.5,-84 400.5,-78 400.5,-78 400.5,-66 400.5,-66 400.5,-60 406.5,-54 412.5,-54 412.5,-54 505,-54 505,-54 511,-54 517,-60 517,-66 517,-66 517,-78 517,-78 517,-84 511,-90 505,-90"/>
<text xml:space="preserve" text-anchor="middle" x="458.75" y="-66.95" font-family="Times New Roman,serif" font-size="14.00">root_final_verdant</text>
</g>
<!-- root_champion_bloom&#45;&gt;root_final_verdant -->
<g id="edge8" class="edge">
<title>root_champion_bloom&#45;&gt;root_final_verdant</title>
<path fill="none" stroke="#7e57c2" d="M362.39,-87.63C371.14,-86.19 380.08,-84.73 388.82,-83.3"/>
<polygon fill="#7e57c2" stroke="#7e57c2" points="389.35,-86.76 398.65,-81.68 388.22,-79.85 389.35,-86.76"/>
</g>
<!-- root_champion_bark&#45;&gt;root_final_ancient -->
<g id="edge10" class="edge">
<title>root_champion_bark&#45;&gt;root_final_ancient</title>
<path fill="none" stroke="#7e57c2" d="M344.77,-63.38C350.78,-66.04 356.72,-68.93 362.25,-72 379.73,-81.72 381.04,-88.81 398.25,-99 400.15,-100.13 402.11,-101.24 404.11,-102.33"/>
<polygon fill="#7e57c2" stroke="#7e57c2" points="402.45,-105.42 412.94,-106.92 405.68,-99.21 402.45,-105.42"/>
</g>
<!-- root_final_warden -->
<g id="node9" class="node">
<title>root_final_warden</title>
<path fill="lightgrey" stroke="black" d="M504.62,-36C504.62,-36 412.88,-36 412.88,-36 406.88,-36 400.88,-30 400.88,-24 400.88,-24 400.88,-12 400.88,-12 400.88,-6 406.88,0 412.88,0 412.88,0 504.62,0 504.62,0 510.62,0 516.62,-6 516.62,-12 516.62,-12 516.62,-24 516.62,-24 516.62,-30 510.62,-36 504.62,-36"/>
<text xml:space="preserve" text-anchor="middle" x="458.75" y="-12.95" font-family="Times New Roman,serif" font-size="14.00">root_final_warden</text>
</g>
<!-- root_champion_bark&#45;&gt;root_final_warden -->
<g id="edge9" class="edge">
<title>root_champion_bark&#45;&gt;root_final_warden</title>
<path fill="none" stroke="#7e57c2" d="M356.7,-34.56C367.38,-32.81 378.51,-30.99 389.31,-29.22"/>
<polygon fill="#7e57c2" stroke="#7e57c2" points="389.62,-32.71 398.92,-27.64 388.48,-25.81 389.62,-32.71"/>
</g>
</g>
</svg>
