<?xml version="1.0" encoding="UTF-8" standalone="no"?>
<!DOCTYPE svg PUBLIC "-//W3C//DTD SVG 1.1//EN"
 "http://www.w3.org/Graphics/SVG/1.1/DTD/svg11.dtd">
<!-- Generated by graphviz version 2.43.0 (0)
 -->
<!-- Title: EvolutionTree Pages: 1 -->
<svg width="709pt" height="152pt"
 viewBox="0.00 0.00 709.00 152.00" xmlns="http://www.w3.org/2000/svg" xmlns:xlink="http://www.w3.org/1999/xlink">
<g id="graph0" class="graph" transform="scale(1 1) rotate(0) translate(4 148)">
<title>EvolutionTree</title>
<polygon fill="white" stroke="transparent" points="-4,4 -4,-148 705,-148 705,4 -4,4"/>
<!-- pulse_baby -->
<g id="node1" class="node">
<title>pulse_baby</title>
<path fill="#f06292" stroke="black" d="M84,-90C84,-90 12,-90 12,-90 6,-90 0,-84 0,-78 0,-78 0,-66 0,-66 0,-60 6,-54 12,-54 12,-54 84,-54 84,-54 90,-54 96,-60 96,-66 96,-66 96,-78 96,-78 96,-84 90,-90 84,-90"/>
<text text-anchor="middle" x="48" y="-68.3" font-family="Times,serif" font-size="14.00">pulse_baby</text>
</g>
<!-- pulse_rookie -->
<g id="node2" class="node">
<title>pulse_rookie</title>
<path fill="#f06292" stroke="black" d="M226,-90C226,-90 144,-90 144,-90 138,-90 132,-84 132,-78 132,-78 132,-66 132,-66 132,-60 138,-54 144,-54 144,-54 226,-54 226,-54 232,-54 238,-60 238,-66 238,-66 238,-78 238,-78 238,-84 232,-90 226,-90"/>
<text text-anchor="middle" x="185" y="-68.3" font-family="Times,serif" font-size="14.00">pulse_rookie</text>
</g>
<!-- pulse_baby&#45;&gt;pulse_rookie -->
<g id="edge1" class="edge">
<title>pulse_baby&#45;&gt;pulse_rookie</title>
<path fill="none" stroke="black" d="M96.22,-72C104.52,-72 113.28,-72 121.92,-72"/>
<polygon fill="black" stroke="black" points="121.97,-75.5 131.97,-72 121.97,-68.5 121.97,-75.5"/>
</g>
<!-- pulse_champion_surge -->
<g id="node3" class="node">
<title>pulse_champion_surge</title>
<path fill="#f06292" stroke="black" d="M456,-90C456,-90 302,-90 302,-90 296,-90 290,-84 290,-78 290,-78 290,-66 290,-66 290,-60 296,-54 302,-54 302,-54 456,-54 456,-54 462,-54 468,-60 468,-66 468,-66 468,-78 468,-78 468,-84 462,-90 456,-90"/>
<text text-anchor="middle" x="379" y="-68.3" font-family="Times,serif" font-size="14.00">pulse_champion_surge</text>
</g>
<!-- pulse_rookie&#45;&gt;pulse_champion_surge -->
<g id="edge2" class="edge">
<title>pulse_rookie&#45;&gt;pulse_champion_surge</title>
<path fill="none" stroke="#7e57c2" d="M238.21,-72C251.08,-72 265.28,-72 279.56,-72"/>
<polygon fill="#7e57c2" stroke="#7e57c2" points="279.95,-75.5 289.95,-72 279.95,-68.5 279.95,-75.5"/>
</g>
<!-- pulse_champion_resonance -->
<g id="node4" class="node">
<title>pulse_champion_resonance</title>
<path fill="#f06292" stroke="black" d="M472,-36C472,-36 286,-36 286,-36 280,-36 274,-30 274,-24 274,-24 274,-12 274,-12 274,-6 280,0 286,0 286,0 472,0 472,0 478,0 484,-6 484,-12 484,-12 484,-24 484,-24 484,-30 478,-36 472,-36"/>
<text text-anchor="middle" x="379" y="-14.3" font-family="Times,serif" font-size="14.00">pulse_champion_resonance</text>
</g>
<!-- pulse_rookie&#45;&gt;pulse_champion_resonance -->
<g id="edge3" class="edge">
<title>pulse_rookie&#45;&gt;pulse_champion_resonance</title>
<path fill="none" stroke="#7e57c2" d="M238.01,-55.63C249.81,-52.03 262.31,-48.31 274,-45 281.45,-42.89 289.21,-40.76 296.99,-38.66"/>
<polygon fill="#7e57c2" stroke="#7e57c2" points="298.08,-41.99 306.84,-36.03 296.27,-35.23 298.08,-41.99"/>
</g>
<!-- pulse_champion_static -->
<g id="node5" class="node">
<title>pulse_champion_static</title>
<path fill="#f06292" stroke="black" d="M455.5,-144C455.5,-144 302.5,-144 302.5,-144 296.5,-144 290.5,-138 290.5,-132 290.5,-132 290.5,-120 290.5,-120 290.5,-114 296.5,-108 302.5,-108 302.5,-108 455.5,-108 455.5,-108 461.5,-108 467.5,-114 467.5,-120 467.5,-120 467.5,-132 467.5,-132 467.5,-138 461.5,-144 455.5,-144"/>
<text text-anchor="middle" x="379" y="-122.3" font-family="Times,serif" font-size="14.00">pulse_champion_static</text>
</g>
<!-- pulse_rookie&#45;&gt;pulse_champion_static -->
<g id="edge4" class="edge">
<title>pulse_rookie&#45;&gt;pulse_champion_static</title>
<path fill="none" stroke="#7e57c2" d="M238.01,-88.37C249.81,-91.97 262.31,-95.69 274,-99 281.45,-101.11 289.21,-103.24 296.99,-105.34"/>
<polygon fill="#7e57c2" stroke="#7e57c2" points="296.27,-108.77 306.84,-107.97 298.08,-102.01 296.27,-108.77"/>
</g>
<!-- pulse_final_overdrive -->
<g id="node6" class="node">
<title>pulse_final_overdrive</title>
<path fill="lightgrey" stroke="black" d="M682,-144C682,-144 539,-144 539,-144 533,-144 527,-138 527,-132 527,-132 527,-120 527,-120 527,-114 533,-108 539,-108 539,-108 682,-108 682,-108 688,-108 694,-114 694,-120 694,-120 694,-132 694,-132 694,-138 688,-144 682,-144"/>
<text text-anchor="middle" x="610.5" y="-122.3" font-family="Times,serif" font-size="14.00">pulse_final_overdrive</text>
</g>
<!-- pulse_champion_surge&#45;&gt;pulse_final_overdrive -->
<g id="edge5" class="edge">
<title>pulse_champion_surge&#45;&gt;pulse_final_overdrive</title>
<path fill="none" stroke="#7e57c2" d="M456.74,-90.06C477.98,-95.05 501.19,-100.51 522.95,-105.63"/>
<polygon fill="#7e57c2" stroke="#7e57c2" points="522.3,-109.08 532.83,-107.96 523.9,-102.26 522.3,-109.08"/>
</g>
<!-- pulse_final_sync -->
<g id="node7" class="node">
<title>pulse_final_sync</title>
<path fill="lightgrey" stroke="black" d="M664,-36C664,-36 557,-36 557,-36 551,-36 545,-30 545,-24 545,-24 545,-12 545,-12 545,-6 551,0 557,0 557,0 664,0 664,0 670,0 676,-6 676,-12 676,-12 676,-24 676,-24 676,-30 670,-36 664,-36"/>
<text text-anchor="middle" x="610.5" y="-14.3" font-family="Times,serif" font-size="14.00">pulse_final_sync</text>
</g>
<!-- pulse_champion_surge&#45;&gt;pulse_final_sync -->
<g id="edge6" class="edge">
<title>pulse_champion_surge&#45;&gt;pulse_final_sync</title>
<path fill="none" stroke="#7e57c2" d="M456.74,-53.94C481.93,-48.02 509.88,-41.44 534.91,-35.55"/>
<polygon fill="#7e57c2" stroke="#7e57c2" points="535.78,-38.94 544.71,-33.24 534.18,-32.13 535.78,-38.94"/>
</g>
<!-- pulse_champion_resonance&#45;&gt;pulse_final_sync -->
<g id="edge7" class="edge">
<title>pulse_champion_resonance&#45;&gt;pulse_final_sync</title>
<path fill="none" stroke="#7e57c2" d="M484.01,-18C501.03,-18 518.38,-18 534.52,-18"/>
<polygon fill="#7e57c2" stroke="#7e57c2" points="534.94,-21.5 544.94,-18 534.94,-14.5 534.94,-21.5"/>
</g>
<!-- pulse_final_staticstorm -->
<g id="node8" class="node">
<title>pulse_final_staticstorm</title>
<path fill="lightgrey" stroke="black" d="M689,-90C689,-90 532,-90 532,-90 526,-90 520,-84 520,-78 520,-78 520,-66 520,-66 520,-60 526,-54 532,-54 532,-54 689,-54 689,-54 695,-54 701,-60 701,-66 701,-66 701,-78 701,-78 701,-84 695,-90 689,-90"/>
<text text-anchor="middle" x="610.5" y="-68.3" font-family="Times,serif" font-size="14.00">pulse_final_staticstorm</text>
</g>
<!-- pulse_champion_resonance&#45;&gt;pulse_final_staticstorm -->
<g id="edge8" class="edge">
<title>pulse_champion_resonance&#45;&gt;pulse_final_staticstorm</title>
<path fill="none" stroke="#7e57c2" d="M456.74,-36.06C477.98,-41.05 501.19,-46.51 522.95,-51.63"/>
<polygon fill="#7e57c2" stroke="#7e57c2" points="522.3,-55.08 532.83,-53.96 523.9,-48.26 522.3,-55.08"/>
</g>
<!-- pulse_champion_static&#45;&gt;pulse_final_overdrive -->
<g id="edge10" class="edge">
<title>pulse_champion_static&#45;&gt;pulse_final_overdrive</title>
<path fill="none" stroke="#7e57c2" d="M467.75,-126C483.63,-126 500.24,-126 516.27,-126"/>
<polygon fill="#7e57c2" stroke="#7e57c2" points="516.71,-129.5 526.71,-126 516.71,-122.5 516.71,-129.5"/>
</g>
<!-- pulse_champion_static&#45;&gt;pulse_final_staticstorm -->
<g id="edge9" class="edge">
<title>pulse_champion_static&#45;&gt;pulse_final_staticstorm</title>
<path fill="none" stroke="#7e57c2" d="M456.74,-107.94C477.98,-102.95 501.19,-97.49 522.95,-92.37"/>
<polygon fill="#7e57c2" stroke="#7e57c2" points="523.9,-95.74 532.83,-90.04 522.3,-88.92 523.9,-95.74"/>
</g>
</g>
</svg>
