<?xml version="1.0" encoding="UTF-8" standalone="no"?>
<!DOCTYPE svg PUBLIC "-//W3C//DTD SVG 1.1//EN"
 "http://www.w3.org/Graphics/SVG/1.1/DTD/svg11.dtd">
<!-- Generated by graphviz version 2.43.0 (0)
 -->
<!-- Title: EvolutionTree Pages: 1 -->
<svg width="807pt" height="2033pt"
 viewBox="0.00 0.00 807.00 2033.00" xmlns="http://www.w3.org/2000/svg" xmlns:xlink="http://www.w3.org/1999/xlink">
<g id="graph0" class="graph" transform="scale(1 1) rotate(0) translate(4 2029)">
<title>EvolutionTree</title>
<polygon fill="white" stroke="transparent" points="-4,4 -4,-2029 803,-2029 803,4 -4,4"/>
<g id="clust1" class="cluster">
<title>cluster_pulse</title>
<path fill="#f5f5f5" stroke="black" d="M34,-8C34,-8 556.5,-8 556.5,-8 562.5,-8 568.5,-14 568.5,-20 568.5,-20 568.5,-179 568.5,-179 568.5,-185 562.5,-191 556.5,-191 556.5,-191 34,-191 34,-191 28,-191 22,-185 22,-179 22,-179 22,-20 22,-20 22,-14 28,-8 34,-8"/>
<text text-anchor="middle" x="295.25" y="-175.8" font-family="Times,serif" font-size="14.00">PULSE</text>
</g>
<g id="clust2" class="cluster">
<title>cluster_root</title>
<path fill="#f5f5f5" stroke="black" d="M38.5,-199C38.5,-199 537.5,-199 537.5,-199 543.5,-199 549.5,-205 549.5,-211 549.5,-211 549.5,-370 549.5,-370 549.5,-376 543.5,-382 537.5,-382 537.5,-382 38.5,-382 38.5,-382 32.5,-382 26.5,-376 26.5,-370 26.5,-370 26.5,-211 26.5,-211 26.5,-205 32.5,-199 38.5,-199"/>
<text text-anchor="middle" x="288" y="-366.8" font-family="Times,serif" font-size="14.00">ROOT</text>
</g>
<g id="clust3" class="cluster">
<title>cluster_codeborn</title>
<path fill="#f5f5f5" stroke="black" d="M20,-402C20,-402 530.5,-402 530.5,-402 536.5,-402 542.5,-408 542.5,-414 542.5,-414 542.5,-465 542.5,-465 542.5,-471 536.5,-477 530.5,-477 530.5,-477 20,-477 20,-477 14,-477 8,-471 8,-465 8,-465 8,-414 8,-414 8,-408 14,-402 20,-402"/>
<text text-anchor="middle" x="275.25" y="-461.8" font-family="Times,serif" font-size="14.00">CODEBORN</text>
</g>
<g id="clust4" class="cluster">
<title>cluster_dream</title>
<path fill="#f5f5f5" stroke="black" d="M30,-485C30,-485 561,-485 561,-485 567,-485 573,-491 573,-497 573,-497 573,-656 573,-656 573,-662 567,-668 561,-668 561,-668 30,-668 30,-668 24,-668 18,-662 18,-656 18,-656 18,-497 18,-497 18,-491 24,-485 30,-485"/>
<text text-anchor="middle" x="295.5" y="-652.8" font-family="Times,serif" font-size="14.00">DREAM</text>
</g>
<g id="clust5" class="cluster">
<title>cluster_cloud</title>
<path fill="#f5f5f5" stroke="black" d="M34,-676C34,-676 541,-676 541,-676 547,-676 553,-682 553,-688 553,-688 553,-847 553,-847 553,-853 547,-859 541,-859 541,-859 34,-859 34,-859 28,-859 22,-853 22,-847 22,-847 22,-688 22,-688 22,-682 28,-676 34,-676"/>
<text text-anchor="middle" x="287.5" y="-843.8" font-family="Times,serif" font-size="14.00">CLOUD</text>
</g>
<g id="clust6" class="cluster">
<title>cluster_corrupt</title>
<path fill="#f5f5f5" stroke="black" d="M26.5,-867C26.5,-867 559,-867 559,-867 565,-867 571,-873 571,-879 571,-879 571,-1038 571,-1038 571,-1044 565,-1050 559,-1050 559,-1050 26.5,-1050 26.5,-1050 20.5,-1050 14.5,-1044 14.5,-1038 14.5,-1038 14.5,-879 14.5,-879 14.5,-873 20.5,-867 26.5,-867"/>
<text text-anchor="middle" x="292.75" y="-1034.8" font-family="Times,serif" font-size="14.00">CORRUPT</text>
</g>
<g id="clust7" class="cluster">
<title>cluster_void</title>
<path fill="#f5f5f5" stroke="black" d="M38,-1058C38,-1058 544,-1058 544,-1058 550,-1058 556,-1064 556,-1070 556,-1070 556,-1229 556,-1229 556,-1235 550,-1241 544,-1241 544,-1241 38,-1241 38,-1241 32,-1241 26,-1235 26,-1229 26,-1229 26,-1070 26,-1070 26,-1064 32,-1058 38,-1058"/>
<text text-anchor="middle" x="291" y="-1225.8" font-family="Times,serif" font-size="14.00">VOID</text>
</g>
<g id="clust8" class="cluster">
<title>cluster_archive</title>
<path fill="#f5f5f5" stroke="black" d="M27,-1249C27,-1249 560.5,-1249 560.5,-1249 566.5,-1249 572.5,-1255 572.5,-1261 572.5,-1261 572.5,-1420 572.5,-1420 572.5,-1426 566.5,-1432 560.5,-1432 560.5,-1432 27,-1432 27,-1432 21,-1432 15,-1426 15,-1420 15,-1420 15,-1261 15,-1261 15,-1255 21,-1249 27,-1249"/>
<text text-anchor="middle" x="293.75" y="-1416.8" font-family="Times,serif" font-size="14.00">ARCHIVE</text>
</g>
<g id="clust9" class="cluster">
<title>cluster_core</title>
<path fill="#f5f5f5" stroke="black" d="M37.5,-1440C37.5,-1440 538.5,-1440 538.5,-1440 544.5,-1440 550.5,-1446 550.5,-1452 550.5,-1452 550.5,-1611 550.5,-1611 550.5,-1617 544.5,-1623 538.5,-1623 538.5,-1623 37.5,-1623 37.5,-1623 31.5,-1623 25.5,-1617 25.5,-1611 25.5,-1611 25.5,-1452 25.5,-1452 25.5,-1446 31.5,-1440 37.5,-1440"/>
<text text-anchor="middle" x="288" y="-1607.8" font-family="Times,serif" font-size="14.00">CORE</text>
</g>
<g id="clust10" class="cluster">
<title>cluster_firewall</title>
<path fill="#f5f5f5" stroke="black" d="M26.5,-1643C26.5,-1643 555,-1643 555,-1643 561,-1643 567,-1649 567,-1655 567,-1655 567,-1814 567,-1814 567,-1820 561,-1826 555,-1826 555,-1826 26.5,-1826 26.5,-1826 20.5,-1826 14.5,-1820 14.5,-1814 14.5,-1814 14.5,-1655 14.5,-1655 14.5,-1649 20.5,-1643 26.5,-1643"/>
<text text-anchor="middle" x="290.75" y="-1810.8" font-family="Times,serif" font-size="14.00">FIREWALL</text>
</g>
<g id="clust11" class="cluster">
<title>cluster_echo</title>
<path fill="#f5f5f5" stroke="black" d="M36.5,-1834C36.5,-1834 548.5,-1834 548.5,-1834 554.5,-1834 560.5,-1840 560.5,-1846 560.5,-1846 560.5,-2005 560.5,-2005 560.5,-2011 554.5,-2017 548.5,-2017 548.5,-2017 36.5,-2017 36.5,-2017 30.5,-2017 24.5,-2011 24.5,-2005 24.5,-2005 24.5,-1846 24.5,-1846 24.5,-1840 30.5,-1834 36.5,-1834"/>
<text text-anchor="middle" x="292.5" y="-2001.8" font-family="Times,serif" font-size="14.00">ECHO</text>
</g>
<!-- pulse_baby -->
<g id="node1" class="node">
<title>pulse_baby</title>
<path fill="#f06292" stroke="black" d="M114,-106C114,-106 42,-106 42,-106 36,-106 30,-100 30,-94 30,-94 30,-82 30,-82 30,-76 36,-70 42,-70 42,-70 114,-70 114,-70 120,-70 126,-76 126,-82 126,-82 126,-94 126,-94 126,-100 120,-106 114,-106"/>
<text text-anchor="middle" x="78" y="-84.3" font-family="Times,serif" font-size="14.00">pulse_baby</text>
</g>
<!-- pulse_rookie -->
<g id="node2" class="node">
<title>pulse_rookie</title>
<path fill="#f06292" stroke="black" d="M284,-106C284,-106 202,-106 202,-106 196,-106 190,-100 190,-94 190,-94 190,-82 190,-82 190,-76 196,-70 202,-70 202,-70 284,-70 284,-70 290,-70 296,-76 296,-82 296,-82 296,-94 296,-94 296,-100 290,-106 284,-106"/>
<text text-anchor="middle" x="243" y="-84.3" font-family="Times,serif" font-size="14.00">pulse_rookie</text>
</g>
<!-- pulse_baby&#45;&gt;pulse_rookie -->
<g id="edge1" class="edge">
<title>pulse_baby&#45;&gt;pulse_rookie</title>
<path fill="none" stroke="black" d="M126.15,-88C142.81,-88 161.82,-88 179.55,-88"/>
<polygon fill="black" stroke="black" points="179.82,-91.5 189.82,-88 179.82,-84.5 179.82,-91.5"/>
</g>
<!-- pulse_champion_surge -->
<g id="node3" class="node">
<title>pulse_champion_surge</title>
<path fill="#f06292" stroke="black" d="M532.5,-52C532.5,-52 378.5,-52 378.5,-52 372.5,-52 366.5,-46 366.5,-40 366.5,-40 366.5,-28 366.5,-28 366.5,-22 372.5,-16 378.5,-16 378.5,-16 532.5,-16 532.5,-16 538.5,-16 544.5,-22 544.5,-28 544.5,-28 544.5,-40 544.5,-40 544.5,-46 538.5,-52 532.5,-52"/>
<text text-anchor="middle" x="455.5" y="-30.3" font-family="Times,serif" font-size="14.00">pulse_champion_surge</text>
</g>
<!-- pulse_rookie&#45;&gt;pulse_champion_surge -->
<g id="edge2" class="edge">
<title>pulse_rookie&#45;&gt;pulse_champion_surge</title>
<path fill="none" stroke="#7e57c2" d="M296.11,-74.05C312.11,-69.81 329.77,-65.17 346,-61 354.33,-58.86 363.03,-56.65 371.72,-54.46"/>
<polygon fill="#7e57c2" stroke="#7e57c2" points="372.66,-57.84 381.51,-52.01 370.96,-51.05 372.66,-57.84"/>
</g>
<!-- pulse_champion_resonance -->
<g id="node4" class="node">
<title>pulse_champion_resonance</title>
<path fill="#f06292" stroke="black" d="M548.5,-106C548.5,-106 362.5,-106 362.5,-106 356.5,-106 350.5,-100 350.5,-94 350.5,-94 350.5,-82 350.5,-82 350.5,-76 356.5,-70 362.5,-70 362.5,-70 548.5,-70 548.5,-70 554.5,-70 560.5,-76 560.5,-82 560.5,-82 560.5,-94 560.5,-94 560.5,-100 554.5,-106 548.5,-106"/>
<text text-anchor="middle" x="455.5" y="-84.3" font-family="Times,serif" font-size="14.00">pulse_champion_resonance</text>
</g>
<!-- pulse_rookie&#45;&gt;pulse_champion_resonance -->
<g id="edge3" class="edge">
<title>pulse_rookie&#45;&gt;pulse_champion_resonance</title>
<path fill="none" stroke="#7e57c2" d="M296.03,-88C309.62,-88 324.8,-88 340.25,-88"/>
<polygon fill="#7e57c2" stroke="#7e57c2" points="340.43,-91.5 350.43,-88 340.43,-84.5 340.43,-91.5"/>
</g>
<!-- pulse_champion_static -->
<g id="node5" class="node">
<title>pulse_champion_static</title>
<path fill="#f06292" stroke="black" d="M532,-160C532,-160 379,-160 379,-160 373,-160 367,-154 367,-148 367,-148 367,-136 367,-136 367,-130 373,-124 379,-124 379,-124 532,-124 532,-124 538,-124 544,-130 544,-136 544,-136 544,-148 544,-148 544,-154 538,-160 532,-160"/>
<text text-anchor="middle" x="455.5" y="-138.3" font-family="Times,serif" font-size="14.00">pulse_champion_static</text>
</g>
<!-- pulse_rookie&#45;&gt;pulse_champion_static -->
<g id="edge4" class="edge">
<title>pulse_rookie&#45;&gt;pulse_champion_static</title>
<path fill="none" stroke="#7e57c2" d="M296.11,-101.95C312.11,-106.19 329.77,-110.83 346,-115 354.33,-117.14 363.03,-119.35 371.72,-121.54"/>
<polygon fill="#7e57c2" stroke="#7e57c2" points="370.96,-124.95 381.51,-123.99 372.66,-118.16 370.96,-124.95"/>
</g>
<!-- pulse_final_overdrive -->
<g id="node54" class="node">
<title>pulse_final_overdrive</title>
<path fill="lightgrey" stroke="black" d="M771.5,-106C771.5,-106 628.5,-106 628.5,-106 622.5,-106 616.5,-100 616.5,-94 616.5,-94 616.5,-82 616.5,-82 616.5,-76 622.5,-70 628.5,-70 628.5,-70 771.5,-70 771.5,-70 777.5,-70 783.5,-76 783.5,-82 783.5,-82 783.5,-94 783.5,-94 783.5,-100 777.5,-106 771.5,-106"/>
<text text-anchor="middle" x="700" y="-84.3" font-family="Times,serif" font-size="14.00">pulse_final_overdrive</text>
</g>
<!-- pulse_champion_surge&#45;&gt;pulse_final_overdrive -->
<g id="edge5" class="edge">
<title>pulse_champion_surge&#45;&gt;pulse_final_overdrive</title>
<path fill="none" stroke="#7e57c2" d="M537.59,-52.06C560.24,-57.1 584.99,-62.61 608.17,-67.77"/>
<polygon fill="#7e57c2" stroke="#7e57c2" points="607.47,-71.2 617.99,-69.96 608.99,-64.37 607.47,-71.2"/>
</g>
<!-- pulse_final_sync -->
<g id="node55" class="node">
<title>pulse_final_sync</title>
<path fill="lightgrey" stroke="black" d="M753.5,-52C753.5,-52 646.5,-52 646.5,-52 640.5,-52 634.5,-46 634.5,-40 634.5,-40 634.5,-28 634.5,-28 634.5,-22 640.5,-16 646.5,-16 646.5,-16 753.5,-16 753.5,-16 759.5,-16 765.5,-22 765.5,-28 765.5,-28 765.5,-40 765.5,-40 765.5,-46 759.5,-52 753.5,-52"/>
<text text-anchor="middle" x="700" y="-30.3" font-family="Times,serif" font-size="14.00">pulse_final_sync</text>
</g>
<!-- pulse_champion_surge&#45;&gt;pulse_final_sync -->
<g id="edge6" class="edge">
<title>pulse_champion_surge&#45;&gt;pulse_final_sync</title>
<path fill="none" stroke="#7e57c2" d="M544.73,-34C570.8,-34 599.07,-34 624.2,-34"/>
<polygon fill="#7e57c2" stroke="#7e57c2" points="624.4,-37.5 634.4,-34 624.4,-30.5 624.4,-37.5"/>
</g>
<!-- pulse_champion_resonance&#45;&gt;pulse_final_sync -->
<g id="edge7" class="edge">
<title>pulse_champion_resonance&#45;&gt;pulse_final_sync</title>
<path fill="none" stroke="#7e57c2" d="M537.59,-69.94C565.67,-63.69 596.99,-56.72 624.52,-50.59"/>
<polygon fill="#7e57c2" stroke="#7e57c2" points="625.47,-53.96 634.47,-48.37 623.95,-47.13 625.47,-53.96"/>
</g>
<!-- pulse_final_staticstorm -->
<g id="node56" class="node">
<title>pulse_final_staticstorm</title>
<path fill="lightgrey" stroke="black" d="M778.5,-160C778.5,-160 621.5,-160 621.5,-160 615.5,-160 609.5,-154 609.5,-148 609.5,-148 609.5,-136 609.5,-136 609.5,-130 615.5,-124 621.5,-124 621.5,-124 778.5,-124 778.5,-124 784.5,-124 790.5,-130 790.5,-136 790.5,-136 790.5,-148 790.5,-148 790.5,-154 784.5,-160 778.5,-160"/>
<text text-anchor="middle" x="700" y="-138.3" font-family="Times,serif" font-size="14.00">pulse_final_staticstorm</text>
</g>
<!-- pulse_champion_resonance&#45;&gt;pulse_final_staticstorm -->
<g id="edge8" class="edge">
<title>pulse_champion_resonance&#45;&gt;pulse_final_staticstorm</title>
<path fill="none" stroke="#7e57c2" d="M537.59,-106.06C560.24,-111.1 584.99,-116.61 608.17,-121.77"/>
<polygon fill="#7e57c2" stroke="#7e57c2" points="607.47,-125.2 617.99,-123.96 608.99,-118.37 607.47,-125.2"/>
</g>
<!-- pulse_champion_static&#45;&gt;pulse_final_overdrive -->
<g id="edge10" class="edge">
<title>pulse_champion_static&#45;&gt;pulse_final_overdrive</title>
<path fill="none" stroke="#7e57c2" d="M537.59,-123.94C560.24,-118.9 584.99,-113.39 608.17,-108.23"/>
<polygon fill="#7e57c2" stroke="#7e57c2" points="608.99,-111.63 617.99,-106.04 607.47,-104.8 608.99,-111.63"/>
</g>
<!-- pulse_champion_static&#45;&gt;pulse_final_staticstorm -->
<g id="edge9" class="edge">
<title>pulse_champion_static&#45;&gt;pulse_final_staticstorm</title>
<path fill="none" stroke="#7e57c2" d="M544.05,-142C561.91,-142 580.82,-142 599.07,-142"/>
<polygon fill="#7e57c2" stroke="#7e57c2" points="599.13,-145.5 609.13,-142 599.13,-138.5 599.13,-145.5"/>
</g>
<!-- root_baby -->
<g id="node6" class="node">
<title>root_baby</title>
<path fill="#81c784" stroke="black" d="M109.5,-297C109.5,-297 46.5,-297 46.5,-297 40.5,-297 34.5,-291 34.5,-285 34.5,-285 34.5,-273 34.5,-273 34.5,-267 40.5,-261 46.5,-261 46.5,-261 109.5,-261 109.5,-261 115.5,-261 121.5,-267 121.5,-273 121.5,-273 121.5,-285 121.5,-285 121.5,-291 115.5,-297 109.5,-297"/>
<text text-anchor="middle" x="78" y="-275.3" font-family="Times,serif" font-size="14.00">root_baby</text>
</g>
<!-- root_rookie -->
<g id="node7" class="node">
<title>root_rookie</title>
<path fill="#81c784" stroke="black" d="M279.5,-297C279.5,-297 206.5,-297 206.5,-297 200.5,-297 194.5,-291 194.5,-285 194.5,-285 194.5,-273 194.5,-273 194.5,-267 200.5,-261 206.5,-261 206.5,-261 279.5,-261 279.5,-261 285.5,-261 291.5,-267 291.5,-273 291.5,-273 291.5,-285 291.5,-285 291.5,-291 285.5,-297 279.5,-297"/>
<text text-anchor="middle" x="243" y="-275.3" font-family="Times,serif" font-size="14.00">root_rookie</text>
</g>
<!-- root_baby&#45;&gt;root_rookie -->
<g id="edge11" class="edge">
<title>root_baby&#45;&gt;root_rookie</title>
<path fill="none" stroke="black" d="M121.83,-279C140.87,-279 163.58,-279 184.1,-279"/>
<polygon fill="black" stroke="black" points="184.29,-282.5 194.29,-279 184.29,-275.5 184.29,-282.5"/>
</g>
<!-- root_champion_thorn -->
<g id="node8" class="node">
<title>root_champion_thorn</title>
<path fill="#81c784" stroke="black" d="M527,-243C527,-243 384,-243 384,-243 378,-243 372,-237 372,-231 372,-231 372,-219 372,-219 372,-213 378,-207 384,-207 384,-207 527,-207 527,-207 533,-207 539,-213 539,-219 539,-219 539,-231 539,-231 539,-237 533,-243 527,-243"/>
<text text-anchor="middle" x="455.5" y="-221.3" font-family="Times,serif" font-size="14.00">root_champion_thorn</text>
</g>
<!-- root_rookie&#45;&gt;root_champion_thorn -->
<g id="edge12" class="edge">
<title>root_rookie&#45;&gt;root_champion_thorn</title>
<path fill="none" stroke="#7e57c2" d="M291.7,-266.22C308.81,-261.67 328.26,-256.56 346,-252 354.33,-249.86 363.03,-247.65 371.72,-245.46"/>
<polygon fill="#7e57c2" stroke="#7e57c2" points="372.66,-248.84 381.51,-243.01 370.96,-242.05 372.66,-248.84"/>
</g>
<!-- root_champion_bloom -->
<g id="node9" class="node">
<title>root_champion_bloom</title>
<path fill="#81c784" stroke="black" d="M529.5,-351C529.5,-351 381.5,-351 381.5,-351 375.5,-351 369.5,-345 369.5,-339 369.5,-339 369.5,-327 369.5,-327 369.5,-321 375.5,-315 381.5,-315 381.5,-315 529.5,-315 529.5,-315 535.5,-315 541.5,-321 541.5,-327 541.5,-327 541.5,-339 541.5,-339 541.5,-345 535.5,-351 529.5,-351"/>
<text text-anchor="middle" x="455.5" y="-329.3" font-family="Times,serif" font-size="14.00">root_champion_bloom</text>
</g>
<!-- root_rookie&#45;&gt;root_champion_bloom -->
<g id="edge13" class="edge">
<title>root_rookie&#45;&gt;root_champion_bloom</title>
<path fill="none" stroke="#7e57c2" d="M291.7,-291.78C308.81,-296.33 328.26,-301.44 346,-306 354.33,-308.14 363.03,-310.35 371.72,-312.54"/>
<polygon fill="#7e57c2" stroke="#7e57c2" points="370.96,-315.95 381.51,-314.99 372.66,-309.16 370.96,-315.95"/>
</g>
<!-- root_champion_bark -->
<g id="node10" class="node">
<title>root_champion_bark</title>
<path fill="#81c784" stroke="black" d="M524,-297C524,-297 387,-297 387,-297 381,-297 375,-291 375,-285 375,-285 375,-273 375,-273 375,-267 381,-261 387,-261 387,-261 524,-261 524,-261 530,-261 536,-267 536,-273 536,-273 536,-285 536,-285 536,-291 530,-297 524,-297"/>
<text text-anchor="middle" x="455.5" y="-275.3" font-family="Times,serif" font-size="14.00">root_champion_bark</text>
</g>
<!-- root_rookie&#45;&gt;root_champion_bark -->
<g id="edge14" class="edge">
<title>root_rookie&#45;&gt;root_champion_bark</title>
<path fill="none" stroke="#7e57c2" d="M291.5,-279C313.14,-279 339.49,-279 364.64,-279"/>
<polygon fill="#7e57c2" stroke="#7e57c2" points="364.95,-282.5 374.95,-279 364.95,-275.5 364.95,-282.5"/>
</g>
<!-- root_final_bramble -->
<g id="node57" class="node">
<title>root_final_bramble</title>
<path fill="lightgrey" stroke="black" d="M762.5,-222C762.5,-222 637.5,-222 637.5,-222 631.5,-222 625.5,-216 625.5,-210 625.5,-210 625.5,-198 625.5,-198 625.5,-192 631.5,-186 637.5,-186 637.5,-186 762.5,-186 762.5,-186 768.5,-186 774.5,-192 774.5,-198 774.5,-198 774.5,-210 774.5,-210 774.5,-216 768.5,-222 762.5,-222"/>
<text text-anchor="middle" x="700" y="-200.3" font-family="Times,serif" font-size="14.00">root_final_bramble</text>
</g>
<!-- root_champion_thorn&#45;&gt;root_final_bramble -->
<g id="edge15" class="edge">
<title>root_champion_thorn&#45;&gt;root_final_bramble</title>
<path fill="none" stroke="#7e57c2" d="M539.28,-217.83C563.76,-215.71 590.57,-213.39 615.12,-211.26"/>
<polygon fill="#7e57c2" stroke="#7e57c2" points="615.47,-214.75 625.13,-210.4 614.86,-207.77 615.47,-214.75"/>
</g>
<!-- root_final_ancient -->
<g id="node58" class="node">
<title>root_final_ancient</title>
<path fill="lightgrey" stroke="black" d="M759.5,-330C759.5,-330 640.5,-330 640.5,-330 634.5,-330 628.5,-324 628.5,-318 628.5,-318 628.5,-306 628.5,-306 628.5,-300 634.5,-294 640.5,-294 640.5,-294 759.5,-294 759.5,-294 765.5,-294 771.5,-300 771.5,-306 771.5,-306 771.5,-318 771.5,-318 771.5,-324 765.5,-330 759.5,-330"/>
<text text-anchor="middle" x="700" y="-308.3" font-family="Times,serif" font-size="14.00">root_final_ancient</text>
</g>
<!-- root_champion_thorn&#45;&gt;root_final_ancient -->
<g id="edge16" class="edge">
<title>root_champion_thorn&#45;&gt;root_final_ancient</title>
<path fill="none" stroke="#7e57c2" d="M539.01,-237.13C550.92,-240.84 562.63,-245.68 573,-252 589.42,-262.01 584.79,-274.65 601,-285 606.6,-288.57 612.67,-291.68 618.95,-294.38"/>
<polygon fill="#7e57c2" stroke="#7e57c2" points="617.68,-297.64 628.27,-298.05 620.25,-291.13 617.68,-297.64"/>
</g>
<!-- root_champion_bloom&#45;&gt;root_final_ancient -->
<g id="edge17" class="edge">
<title>root_champion_bloom&#45;&gt;root_final_ancient</title>
<path fill="none" stroke="#7e57c2" d="M541.66,-325.63C566.6,-323.47 593.8,-321.11 618.45,-318.98"/>
<polygon fill="#7e57c2" stroke="#7e57c2" points="618.82,-322.46 628.48,-318.11 618.22,-315.48 618.82,-322.46"/>
</g>
<!-- root_final_verdant -->
<g id="node59" class="node">
<title>root_final_verdant</title>
<path fill="lightgrey" stroke="black" d="M761,-384C761,-384 639,-384 639,-384 633,-384 627,-378 627,-372 627,-372 627,-360 627,-360 627,-354 633,-348 639,-348 639,-348 761,-348 761,-348 767,-348 773,-354 773,-360 773,-360 773,-372 773,-372 773,-378 767,-384 761,-384"/>
<text text-anchor="middle" x="700" y="-362.3" font-family="Times,serif" font-size="14.00">root_final_verdant</text>
</g>
<!-- root_champion_bloom&#45;&gt;root_final_verdant -->
<g id="edge18" class="edge">
<title>root_champion_bloom&#45;&gt;root_final_verdant</title>
<path fill="none" stroke="#7e57c2" d="M541.66,-344.59C566.02,-347.9 592.51,-351.51 616.7,-354.8"/>
<polygon fill="#7e57c2" stroke="#7e57c2" points="616.53,-358.31 626.91,-356.19 617.47,-351.37 616.53,-358.31"/>
</g>
<!-- root_champion_bark&#45;&gt;root_final_ancient -->
<g id="edge20" class="edge">
<title>root_champion_bark&#45;&gt;root_final_ancient</title>
<path fill="none" stroke="#7e57c2" d="M536.24,-289.85C562.56,-293.43 591.84,-297.42 618.24,-301.01"/>
<polygon fill="#7e57c2" stroke="#7e57c2" points="617.82,-304.48 628.2,-302.37 618.76,-297.55 617.82,-304.48"/>
</g>
<!-- root_final_warden -->
<g id="node60" class="node">
<title>root_final_warden</title>
<path fill="lightgrey" stroke="black" d="M759.5,-276C759.5,-276 640.5,-276 640.5,-276 634.5,-276 628.5,-270 628.5,-264 628.5,-264 628.5,-252 628.5,-252 628.5,-246 634.5,-240 640.5,-240 640.5,-240 759.5,-240 759.5,-240 765.5,-240 771.5,-246 771.5,-252 771.5,-252 771.5,-264 771.5,-264 771.5,-270 765.5,-276 759.5,-276"/>
<text text-anchor="middle" x="700" y="-254.3" font-family="Times,serif" font-size="14.00">root_final_warden</text>
</g>
<!-- root_champion_bark&#45;&gt;root_final_warden -->
<g id="edge19" class="edge">
<title>root_champion_bark&#45;&gt;root_final_warden</title>
<path fill="none" stroke="#7e57c2" d="M536.24,-272.09C562.44,-269.83 591.58,-267.3 617.89,-265.02"/>
<polygon fill="#7e57c2" stroke="#7e57c2" points="618.54,-268.48 628.2,-264.13 617.93,-261.51 618.54,-268.48"/>
</g>
<!-- codeborn_baby -->
<g id="node11" class="node">
<title>codeborn_baby</title>
<path fill="#e0e0e0" stroke="black" d="M128,-446C128,-446 28,-446 28,-446 22,-446 16,-440 16,-434 16,-434 16,-422 16,-422 16,-416 22,-410 28,-410 28,-410 128,-410 128,-410 134,-410 140,-416 140,-422 140,-422 140,-434 140,-434 140,-440 134,-446 128,-446"/>
<text text-anchor="middle" x="78" y="-424.3" font-family="Times,serif" font-size="14.00">codeborn_baby</text>
</g>
<!-- codeborn_rookie -->
<g id="node12" class="node">
<title>codeborn_rookie</title>
<path fill="#e0e0e0" stroke="black" d="M298,-446C298,-446 188,-446 188,-446 182,-446 176,-440 176,-434 176,-434 176,-422 176,-422 176,-416 182,-410 188,-410 188,-410 298,-410 298,-410 304,-410 310,-416 310,-422 310,-422 310,-434 310,-434 310,-440 304,-446 298,-446"/>
<text text-anchor="middle" x="243" y="-424.3" font-family="Times,serif" font-size="14.00">codeborn_rookie</text>
</g>
<!-- codeborn_baby&#45;&gt;codeborn_rookie -->
<g id="edge21" class="edge">
<title>codeborn_baby&#45;&gt;codeborn_rookie</title>
<path fill="none" stroke="black" d="M140.16,-428C148.53,-428 157.22,-428 165.82,-428"/>
<polygon fill="black" stroke="black" points="165.86,-431.5 175.86,-428 165.86,-424.5 165.86,-431.5"/>
</g>
<!-- codeborn_champion -->
<g id="node13" class="node">
<title>codeborn_champion</title>
<path fill="#e0e0e0" stroke="black" d="M522.5,-446C522.5,-446 388.5,-446 388.5,-446 382.5,-446 376.5,-440 376.5,-434 376.5,-434 376.5,-422 376.5,-422 376.5,-416 382.5,-410 388.5,-410 388.5,-410 522.5,-410 522.5,-410 528.5,-410 534.5,-416 534.5,-422 534.5,-422 534.5,-434 534.5,-434 534.5,-440 528.5,-446 522.5,-446"/>
<text text-anchor="middle" x="455.5" y="-424.3" font-family="Times,serif" font-size="14.00">codeborn_champion</text>
</g>
<!-- codeborn_rookie&#45;&gt;codeborn_champion -->
<g id="edge22" class="edge">
<title>codeborn_rookie&#45;&gt;codeborn_champion</title>
<path fill="none" stroke="black" d="M310.03,-428C327.81,-428 347.34,-428 366.13,-428"/>
<polygon fill="black" stroke="black" points="366.17,-431.5 376.17,-428 366.17,-424.5 366.17,-431.5"/>
</g>
<!-- codeborn_final -->
<g id="node61" class="node">
<title>codeborn_final</title>
<path fill="lightgrey" stroke="black" d="M748,-446C748,-446 652,-446 652,-446 646,-446 640,-440 640,-434 640,-434 640,-422 640,-422 640,-416 646,-410 652,-410 652,-410 748,-410 748,-410 754,-410 760,-416 760,-422 760,-422 760,-434 760,-434 760,-440 754,-446 748,-446"/>
<text text-anchor="middle" x="700" y="-424.3" font-family="Times,serif" font-size="14.00">codeborn_final</text>
</g>
<!-- codeborn_champion&#45;&gt;codeborn_final -->
<g id="edge23" class="edge">
<title>codeborn_champion&#45;&gt;codeborn_final</title>
<path fill="none" stroke="black" d="M534.56,-428C565.16,-428 599.97,-428 629.66,-428"/>
<polygon fill="black" stroke="black" points="629.93,-431.5 639.93,-428 629.93,-424.5 629.93,-431.5"/>
</g>
<!-- dream_baby -->
<g id="node14" class="node">
<title>dream_baby</title>
<path fill="#9575cd" stroke="black" d="M118,-583C118,-583 38,-583 38,-583 32,-583 26,-577 26,-571 26,-571 26,-559 26,-559 26,-553 32,-547 38,-547 38,-547 118,-547 118,-547 124,-547 130,-553 130,-559 130,-559 130,-571 130,-571 130,-577 124,-583 118,-583"/>
<text text-anchor="middle" x="78" y="-561.3" font-family="Times,serif" font-size="14.00">dream_baby</text>
</g>
<!-- dream_rookie -->
<g id="node15" class="node">
<title>dream_rookie</title>
<path fill="#9575cd" stroke="black" d="M287.5,-583C287.5,-583 198.5,-583 198.5,-583 192.5,-583 186.5,-577 186.5,-571 186.5,-571 186.5,-559 186.5,-559 186.5,-553 192.5,-547 198.5,-547 198.5,-547 287.5,-547 287.5,-547 293.5,-547 299.5,-553 299.5,-559 299.5,-559 299.5,-571 299.5,-571 299.5,-577 293.5,-583 287.5,-583"/>
<text text-anchor="middle" x="243" y="-561.3" font-family="Times,serif" font-size="14.00">dream_rookie</text>
</g>
<!-- dream_baby&#45;&gt;dream_rookie -->
<g id="edge24" class="edge">
<title>dream_baby&#45;&gt;dream_rookie</title>
<path fill="none" stroke="black" d="M130.13,-565C144.62,-565 160.6,-565 175.84,-565"/>
<polygon fill="black" stroke="black" points="176.25,-568.5 186.25,-565 176.25,-561.5 176.25,-568.5"/>
</g>
<!-- dream_champion_lucid -->
<g id="node16" class="node">
<title>dream_champion_lucid</title>
<path fill="#9575cd" stroke="black" d="M533,-583C533,-583 378,-583 378,-583 372,-583 366,-577 366,-571 366,-571 366,-559 366,-559 366,-553 372,-547 378,-547 378,-547 533,-547 533,-547 539,-547 545,-553 545,-559 545,-559 545,-571 545,-571 545,-577 539,-583 533,-583"/>
<text text-anchor="middle" x="455.5" y="-561.3" font-family="Times,serif" font-size="14.00">dream_champion_lucid</text>
</g>
<!-- dream_rookie&#45;&gt;dream_champion_lucid -->
<g id="edge25" class="edge">
<title>dream_rookie&#45;&gt;dream_champion_lucid</title>
<path fill="none" stroke="#7e57c2" d="M299.58,-565C316.9,-565 336.56,-565 355.91,-565"/>
<polygon fill="#7e57c2" stroke="#7e57c2" points="355.98,-568.5 365.98,-565 355.98,-561.5 355.98,-568.5"/>
</g>
<!-- dream_champion_nightmare -->
<g id="node17" class="node">
<title>dream_champion_nightmare</title>
<path fill="#9575cd" stroke="black" d="M553,-637C553,-637 358,-637 358,-637 352,-637 346,-631 346,-625 346,-625 346,-613 346,-613 346,-607 352,-601 358,-601 358,-601 553,-601 553,-601 559,-601 565,-607 565,-613 565,-613 565,-625 565,-625 565,-631 559,-637 553,-637"/>
<text text-anchor="middle" x="455.5" y="-615.3" font-family="Times,serif" font-size="14.00">dream_champion_nightmare</text>
</g>
<!-- dream_rookie&#45;&gt;dream_champion_nightmare -->
<g id="edge26" class="edge">
<title>dream_rookie&#45;&gt;dream_champion_nightmare</title>
<path fill="none" stroke="#7e57c2" d="M299.55,-579.86C314.61,-583.85 330.92,-588.13 346,-592 354.33,-594.14 363.03,-596.35 371.72,-598.54"/>
<polygon fill="#7e57c2" stroke="#7e57c2" points="370.96,-601.95 381.51,-600.99 372.66,-595.16 370.96,-601.95"/>
</g>
<!-- dream_champion_whimsy -->
<g id="node18" class="node">
<title>dream_champion_whimsy</title>
<path fill="#9575cd" stroke="black" d="M543.5,-529C543.5,-529 367.5,-529 367.5,-529 361.5,-529 355.5,-523 355.5,-517 355.5,-517 355.5,-505 355.5,-505 355.5,-499 361.5,-493 367.5,-493 367.5,-493 543.5,-493 543.5,-493 549.5,-493 555.5,-499 555.5,-505 555.5,-505 555.5,-517 555.5,-517 555.5,-523 549.5,-529 543.5,-529"/>
<text text-anchor="middle" x="455.5" y="-507.3" font-family="Times,serif" font-size="14.00">dream_champion_whimsy</text>
</g>
<!-- dream_rookie&#45;&gt;dream_champion_whimsy -->
<g id="edge27" class="edge">
<title>dream_rookie&#45;&gt;dream_champion_whimsy</title>
<path fill="none" stroke="#7e57c2" d="M299.55,-550.14C314.61,-546.15 330.92,-541.87 346,-538 354.33,-535.86 363.03,-533.65 371.72,-531.46"/>
<polygon fill="#7e57c2" stroke="#7e57c2" points="372.66,-534.84 381.51,-529.01 370.96,-528.05 372.66,-534.84"/>
</g>
<!-- dream_final_ascended -->
<g id="node62" class="node">
<title>dream_final_ascended</title>
<path fill="lightgrey" stroke="black" d="M774.5,-610C774.5,-610 625.5,-610 625.5,-610 619.5,-610 613.5,-604 613.5,-598 613.5,-598 613.5,-586 613.5,-586 613.5,-580 619.5,-574 625.5,-574 625.5,-574 774.5,-574 774.5,-574 780.5,-574 786.5,-580 786.5,-586 786.5,-586 786.5,-598 786.5,-598 786.5,-604 780.5,-610 774.5,-610"/>
<text text-anchor="middle" x="700" y="-588.3" font-family="Times,serif" font-size="14.00">dream_final_ascended</text>
</g>
<!-- dream_champion_lucid&#45;&gt;dream_final_ascended -->
<g id="edge28" class="edge">
<title>dream_champion_lucid&#45;&gt;dream_final_ascended</title>
<path fill="none" stroke="#7e57c2" d="M545.08,-574.86C564.09,-576.98 584.26,-579.22 603.52,-581.37"/>
<polygon fill="#7e57c2" stroke="#7e57c2" points="603.17,-584.85 613.49,-582.48 603.94,-577.89 603.17,-584.85"/>
</g>
<!-- dream_final_chaos -->
<g id="node63" class="node">
<title>dream_final_chaos</title>
<path fill="lightgrey" stroke="black" d="M761.5,-556C761.5,-556 638.5,-556 638.5,-556 632.5,-556 626.5,-550 626.5,-544 626.5,-544 626.5,-532 626.5,-532 626.5,-526 632.5,-520 638.5,-520 638.5,-520 761.5,-520 761.5,-520 767.5,-520 773.5,-526 773.5,-532 773.5,-532 773.5,-544 773.5,-544 773.5,-550 767.5,-556 761.5,-556"/>
<text text-anchor="middle" x="700" y="-534.3" font-family="Times,serif" font-size="14.00">dream_final_chaos</text>
</g>
<!-- dream_champion_lucid&#45;&gt;dream_final_chaos -->
<g id="edge29" class="edge">
<title>dream_champion_lucid&#45;&gt;dream_final_chaos</title>
<path fill="none" stroke="#7e57c2" d="M545.08,-555.14C568.3,-552.55 593.24,-549.78 616.15,-547.22"/>
<polygon fill="#7e57c2" stroke="#7e57c2" points="616.62,-550.69 626.17,-546.11 615.84,-543.74 616.62,-550.69"/>
</g>
<!-- dream_champion_nightmare&#45;&gt;dream_final_ascended -->
<g id="edge31" class="edge">
<title>dream_champion_nightmare&#45;&gt;dream_final_ascended</title>
<path fill="none" stroke="#7e57c2" d="M565.34,-606.88C578.05,-605.47 590.95,-604.03 603.47,-602.64"/>
<polygon fill="#7e57c2" stroke="#7e57c2" points="603.87,-606.11 613.42,-601.53 603.09,-599.16 603.87,-606.11"/>
</g>
<!-- dream_champion_nightmare&#45;&gt;dream_final_chaos -->
<g id="edge30" class="edge">
<title>dream_champion_nightmare&#45;&gt;dream_final_chaos</title>
<path fill="none" stroke="#7e57c2" d="M553.39,-600.9C560.19,-598.32 566.8,-595.37 573,-592 588.19,-583.75 585.98,-573.56 601,-565 606.06,-562.12 611.44,-559.53 616.98,-557.21"/>
<polygon fill="#7e57c2" stroke="#7e57c2" points="618.36,-560.43 626.42,-553.55 615.83,-553.9 618.36,-560.43"/>
</g>
<!-- dream_champion_whimsy&#45;&gt;dream_final_ascended -->
<g id="edge32" class="edge">
<title>dream_champion_whimsy&#45;&gt;dream_final_ascended</title>
<path fill="none" stroke="#7e57c2" d="M553.39,-529.1C560.19,-531.68 566.8,-534.63 573,-538 588.19,-546.25 585.98,-556.44 601,-565 604.04,-566.73 607.2,-568.36 610.45,-569.89"/>
<polygon fill="#7e57c2" stroke="#7e57c2" points="609.2,-573.16 619.77,-573.93 611.99,-566.74 609.2,-573.16"/>
</g>
<!-- dream_champion_whimsy&#45;&gt;dream_final_chaos -->
<g id="edge33" class="edge">
<title>dream_champion_whimsy&#45;&gt;dream_final_chaos</title>
<path fill="none" stroke="#7e57c2" d="M555.83,-522.06C575.88,-524.29 596.76,-526.62 616.17,-528.78"/>
<polygon fill="#7e57c2" stroke="#7e57c2" points="615.85,-532.26 626.18,-529.89 616.62,-525.31 615.85,-532.26"/>
</g>
<!-- cloud_baby -->
<g id="node19" class="node">
<title>cloud_baby</title>
<path fill="#90caf9" stroke="black" d="M114,-774C114,-774 42,-774 42,-774 36,-774 30,-768 30,-762 30,-762 30,-750 30,-750 30,-744 36,-738 42,-738 42,-738 114,-738 114,-738 120,-738 126,-744 126,-750 126,-750 126,-762 126,-762 126,-768 120,-774 114,-774"/>
<text text-anchor="middle" x="78" y="-752.3" font-family="Times,serif" font-size="14.00">cloud_baby</text>
</g>
<!-- cloud_rookie -->
<g id="node20" class="node">
<title>cloud_rookie</title>
<path fill="#90caf9" stroke="black" d="M284,-774C284,-774 202,-774 202,-774 196,-774 190,-768 190,-762 190,-762 190,-750 190,-750 190,-744 196,-738 202,-738 202,-738 284,-738 284,-738 290,-738 296,-744 296,-750 296,-750 296,-762 296,-762 296,-768 290,-774 284,-774"/>
<text text-anchor="middle" x="243" y="-752.3" font-family="Times,serif" font-size="14.00">cloud_rookie</text>
</g>
<!-- cloud_baby&#45;&gt;cloud_rookie -->
<g id="edge34" class="edge">
<title>cloud_baby&#45;&gt;cloud_rookie</title>
<path fill="none" stroke="black" d="M126.15,-756C142.81,-756 161.82,-756 179.55,-756"/>
<polygon fill="black" stroke="black" points="179.82,-759.5 189.82,-756 179.82,-752.5 179.82,-759.5"/>
</g>
<!-- cloud_champion_wind -->
<g id="node21" class="node">
<title>cloud_champion_wind</title>
<path fill="#90caf9" stroke="black" d="M529.5,-720C529.5,-720 381.5,-720 381.5,-720 375.5,-720 369.5,-714 369.5,-708 369.5,-708 369.5,-696 369.5,-696 369.5,-690 375.5,-684 381.5,-684 381.5,-684 529.5,-684 529.5,-684 535.5,-684 541.5,-690 541.5,-696 541.5,-696 541.5,-708 541.5,-708 541.5,-714 535.5,-720 529.5,-720"/>
<text text-anchor="middle" x="455.5" y="-698.3" font-family="Times,serif" font-size="14.00">cloud_champion_wind</text>
</g>
<!-- cloud_rookie&#45;&gt;cloud_champion_wind -->
<g id="edge35" class="edge">
<title>cloud_rookie&#45;&gt;cloud_champion_wind</title>
<path fill="none" stroke="#7e57c2" d="M296.11,-742.05C312.11,-737.81 329.77,-733.17 346,-729 354.33,-726.86 363.03,-724.65 371.72,-722.46"/>
<polygon fill="#7e57c2" stroke="#7e57c2" points="372.66,-725.84 381.51,-720.01 370.96,-719.05 372.66,-725.84"/>
</g>
<!-- cloud_champion_rain -->
<g id="node22" class="node">
<title>cloud_champion_rain</title>
<path fill="#90caf9" stroke="black" d="M526.5,-774C526.5,-774 384.5,-774 384.5,-774 378.5,-774 372.5,-768 372.5,-762 372.5,-762 372.5,-750 372.5,-750 372.5,-744 378.5,-738 384.5,-738 384.5,-738 526.5,-738 526.5,-738 532.5,-738 538.5,-744 538.5,-750 538.5,-750 538.5,-762 538.5,-762 538.5,-768 532.5,-774 526.5,-774"/>
<text text-anchor="middle" x="455.5" y="-752.3" font-family="Times,serif" font-size="14.00">cloud_champion_rain</text>
</g>
<!-- cloud_rookie&#45;&gt;cloud_champion_rain -->
<g id="edge36" class="edge">
<title>cloud_rookie&#45;&gt;cloud_champion_rain</title>
<path fill="none" stroke="#7e57c2" d="M296.03,-756C316.08,-756 339.62,-756 362.33,-756"/>
<polygon fill="#7e57c2" stroke="#7e57c2" points="362.35,-759.5 372.35,-756 362.35,-752.5 362.35,-759.5"/>
</g>
<!-- cloud_champion_storm -->
<g id="node23" class="node">
<title>cloud_champion_storm</title>
<path fill="#90caf9" stroke="black" d="M533,-828C533,-828 378,-828 378,-828 372,-828 366,-822 366,-816 366,-816 366,-804 366,-804 366,-798 372,-792 378,-792 378,-792 533,-792 533,-792 539,-792 545,-798 545,-804 545,-804 545,-816 545,-816 545,-822 539,-828 533,-828"/>
<text text-anchor="middle" x="455.5" y="-806.3" font-family="Times,serif" font-size="14.00">cloud_champion_storm</text>
</g>
<!-- cloud_rookie&#45;&gt;cloud_champion_storm -->
<g id="edge37" class="edge">
<title>cloud_rookie&#45;&gt;cloud_champion_storm</title>
<path fill="none" stroke="#7e57c2" d="M296.11,-769.95C312.11,-774.19 329.77,-778.83 346,-783 354.33,-785.14 363.03,-787.35 371.72,-789.54"/>
<polygon fill="#7e57c2" stroke="#7e57c2" points="370.96,-792.95 381.51,-791.99 372.66,-786.16 370.96,-792.95"/>
</g>
<!-- cloud_final_jetstream -->
<g id="node64" class="node">
<title>cloud_final_jetstream</title>
<path fill="lightgrey" stroke="black" d="M772,-774C772,-774 628,-774 628,-774 622,-774 616,-768 616,-762 616,-762 616,-750 616,-750 616,-744 622,-738 628,-738 628,-738 772,-738 772,-738 778,-738 784,-744 784,-750 784,-750 784,-762 784,-762 784,-768 778,-774 772,-774"/>
<text text-anchor="middle" x="700" y="-752.3" font-family="Times,serif" font-size="14.00">cloud_final_jetstream</text>
</g>
<!-- cloud_champion_wind&#45;&gt;cloud_final_jetstream -->
<g id="edge38" class="edge">
<title>cloud_champion_wind&#45;&gt;cloud_final_jetstream</title>
<path fill="none" stroke="#7e57c2" d="M537.59,-720.06C560.24,-725.1 584.99,-730.61 608.17,-735.77"/>
<polygon fill="#7e57c2" stroke="#7e57c2" points="607.47,-739.2 617.99,-737.96 608.99,-732.37 607.47,-739.2"/>
</g>
<!-- cloud_final_halo -->
<g id="node65" class="node">
<title>cloud_final_halo</title>
<path fill="lightgrey" stroke="black" d="M752.5,-720C752.5,-720 647.5,-720 647.5,-720 641.5,-720 635.5,-714 635.5,-708 635.5,-708 635.5,-696 635.5,-696 635.5,-690 641.5,-684 647.5,-684 647.5,-684 752.5,-684 752.5,-684 758.5,-684 764.5,-690 764.5,-696 764.5,-696 764.5,-708 764.5,-708 764.5,-714 758.5,-720 752.5,-720"/>
<text text-anchor="middle" x="700" y="-698.3" font-family="Times,serif" font-size="14.00">cloud_final_halo</text>
</g>
<!-- cloud_champion_wind&#45;&gt;cloud_final_halo -->
<g id="edge39" class="edge">
<title>cloud_champion_wind&#45;&gt;cloud_final_halo</title>
<path fill="none" stroke="#7e57c2" d="M541.66,-702C568.88,-702 598.78,-702 625.14,-702"/>
<polygon fill="#7e57c2" stroke="#7e57c2" points="625.43,-705.5 635.43,-702 625.43,-698.5 625.43,-705.5"/>
</g>
<!-- cloud_champion_rain&#45;&gt;cloud_final_halo -->
<g id="edge40" class="edge">
<title>cloud_champion_rain&#45;&gt;cloud_final_halo</title>
<path fill="none" stroke="#7e57c2" d="M537.59,-737.94C565.91,-731.64 597.54,-724.59 625.24,-718.43"/>
<polygon fill="#7e57c2" stroke="#7e57c2" points="626.25,-721.79 635.25,-716.2 624.73,-714.95 626.25,-721.79"/>
</g>
<!-- cloud_final_tempest -->
<g id="node66" class="node">
<title>cloud_final_tempest</title>
<path fill="lightgrey" stroke="black" d="M767,-828C767,-828 633,-828 633,-828 627,-828 621,-822 621,-816 621,-816 621,-804 621,-804 621,-798 627,-792 633,-792 633,-792 767,-792 767,-792 773,-792 779,-798 779,-804 779,-804 779,-816 779,-816 779,-822 773,-828 767,-828"/>
<text text-anchor="middle" x="700" y="-806.3" font-family="Times,serif" font-size="14.00">cloud_final_tempest</text>
</g>
<!-- cloud_champion_rain&#45;&gt;cloud_final_tempest -->
<g id="edge41" class="edge">
<title>cloud_champion_rain&#45;&gt;cloud_final_tempest</title>
<path fill="none" stroke="#7e57c2" d="M537.59,-774.06C561.18,-779.31 587.07,-785.08 611.07,-790.42"/>
<polygon fill="#7e57c2" stroke="#7e57c2" points="610.35,-793.84 620.87,-792.6 611.87,-787.01 610.35,-793.84"/>
</g>
<!-- cloud_champion_storm&#45;&gt;cloud_final_jetstream -->
<g id="edge43" class="edge">
<title>cloud_champion_storm&#45;&gt;cloud_final_jetstream</title>
<path fill="none" stroke="#7e57c2" d="M537.59,-791.94C560.24,-786.9 584.99,-781.39 608.17,-776.23"/>
<polygon fill="#7e57c2" stroke="#7e57c2" points="608.99,-779.63 617.99,-774.04 607.47,-772.8 608.99,-779.63"/>
</g>
<!-- cloud_champion_storm&#45;&gt;cloud_final_tempest -->
<g id="edge42" class="edge">
<title>cloud_champion_storm&#45;&gt;cloud_final_tempest</title>
<path fill="none" stroke="#7e57c2" d="M545.08,-810C566.45,-810 589.29,-810 610.65,-810"/>
<polygon fill="#7e57c2" stroke="#7e57c2" points="610.68,-813.5 620.68,-810 610.68,-806.5 610.68,-813.5"/>
</g>
<!-- corrupt_baby -->
<g id="node24" class="node">
<title>corrupt_baby</title>
<path fill="#ef5350" stroke="black" d="M121.5,-965C121.5,-965 34.5,-965 34.5,-965 28.5,-965 22.5,-959 22.5,-953 22.5,-953 22.5,-941 22.5,-941 22.5,-935 28.5,-929 34.5,-929 34.5,-929 121.5,-929 121.5,-929 127.5,-929 133.5,-935 133.5,-941 133.5,-941 133.5,-953 133.5,-953 133.5,-959 127.5,-965 121.5,-965"/>
<text text-anchor="middle" x="78" y="-943.3" font-family="Times,serif" font-size="14.00">corrupt_baby</text>
</g>
<!-- corrupt_rookie -->
<g id="node25" class="node">
<title>corrupt_rookie</title>
<path fill="#ef5350" stroke="black" d="M291.5,-965C291.5,-965 194.5,-965 194.5,-965 188.5,-965 182.5,-959 182.5,-953 182.5,-953 182.5,-941 182.5,-941 182.5,-935 188.5,-929 194.5,-929 194.5,-929 291.5,-929 291.5,-929 297.5,-929 303.5,-935 303.5,-941 303.5,-941 303.5,-953 303.5,-953 303.5,-959 297.5,-965 291.5,-965"/>
<text text-anchor="middle" x="243" y="-943.3" font-family="Times,serif" font-size="14.00">corrupt_rookie</text>
</g>
<!-- corrupt_baby&#45;&gt;corrupt_rookie -->
<g id="edge44" class="edge">
<title>corrupt_baby&#45;&gt;corrupt_rookie</title>
<path fill="none" stroke="black" d="M133.73,-947C146.06,-947 159.32,-947 172.17,-947"/>
<polygon fill="black" stroke="black" points="172.38,-950.5 182.38,-947 172.38,-943.5 172.38,-950.5"/>
</g>
<!-- corrupt_champion_glitch -->
<g id="node26" class="node">
<title>corrupt_champion_glitch</title>
<path fill="#ef5350" stroke="black" d="M540,-965C540,-965 371,-965 371,-965 365,-965 359,-959 359,-953 359,-953 359,-941 359,-941 359,-935 365,-929 371,-929 371,-929 540,-929 540,-929 546,-929 552,-935 552,-941 552,-941 552,-953 552,-953 552,-959 546,-965 540,-965"/>
<text text-anchor="middle" x="455.5" y="-943.3" font-family="Times,serif" font-size="14.00">corrupt_champion_glitch</text>
</g>
<!-- corrupt_rookie&#45;&gt;corrupt_champion_glitch -->
<g id="edge45" class="edge">
<title>corrupt_rookie&#45;&gt;corrupt_champion_glitch</title>
<path fill="none" stroke="#7e57c2" d="M303.76,-947C317.82,-947 333.22,-947 348.63,-947"/>
<polygon fill="#7e57c2" stroke="#7e57c2" points="348.75,-950.5 358.75,-947 348.75,-943.5 348.75,-950.5"/>
</g>
<!-- corrupt_champion_error -->
<g id="node27" class="node">
<title>corrupt_champion_error</title>
<path fill="#ef5350" stroke="black" d="M538,-1019C538,-1019 373,-1019 373,-1019 367,-1019 361,-1013 361,-1007 361,-1007 361,-995 361,-995 361,-989 367,-983 373,-983 373,-983 538,-983 538,-983 544,-983 550,-989 550,-995 550,-995 550,-1007 550,-1007 550,-1013 544,-1019 538,-1019"/>
<text text-anchor="middle" x="455.5" y="-997.3" font-family="Times,serif" font-size="14.00">corrupt_champion_error</text>
</g>
<!-- corrupt_rookie&#45;&gt;corrupt_champion_error -->
<g id="edge46" class="edge">
<title>corrupt_rookie&#45;&gt;corrupt_champion_error</title>
<path fill="none" stroke="#7e57c2" d="M303.56,-962.93C317.48,-966.6 332.25,-970.47 346,-974 354.33,-976.14 363.03,-978.35 371.72,-980.54"/>
<polygon fill="#7e57c2" stroke="#7e57c2" points="370.96,-983.95 381.51,-982.99 372.66,-977.16 370.96,-983.95"/>
</g>
<!-- corrupt_champion_patchfail -->
<g id="node28" class="node">
<title>corrupt_champion_patchfail</title>
<path fill="#ef5350" stroke="black" d="M551,-911C551,-911 360,-911 360,-911 354,-911 348,-905 348,-899 348,-899 348,-887 348,-887 348,-881 354,-875 360,-875 360,-875 551,-875 551,-875 557,-875 563,-881 563,-887 563,-887 563,-899 563,-899 563,-905 557,-911 551,-911"/>
<text text-anchor="middle" x="455.5" y="-889.3" font-family="Times,serif" font-size="14.00">corrupt_champion_patchfail</text>
</g>
<!-- corrupt_rookie&#45;&gt;corrupt_champion_patchfail -->
<g id="edge47" class="edge">
<title>corrupt_rookie&#45;&gt;corrupt_champion_patchfail</title>
<path fill="none" stroke="#7e57c2" d="M303.56,-931.07C317.48,-927.4 332.25,-923.53 346,-920 354.33,-917.86 363.03,-915.65 371.72,-913.46"/>
<polygon fill="#7e57c2" stroke="#7e57c2" points="372.66,-916.84 381.51,-911.01 370.96,-910.05 372.66,-916.84"/>
</g>
<!-- corrupt_final_corruptcore -->
<g id="node67" class="node">
<title>corrupt_final_corruptcore</title>
<path fill="lightgrey" stroke="black" d="M787,-992C787,-992 613,-992 613,-992 607,-992 601,-986 601,-980 601,-980 601,-968 601,-968 601,-962 607,-956 613,-956 613,-956 787,-956 787,-956 793,-956 799,-962 799,-968 799,-968 799,-980 799,-980 799,-986 793,-992 787,-992"/>
<text text-anchor="middle" x="700" y="-970.3" font-family="Times,serif" font-size="14.00">corrupt_final_corruptcore</text>
</g>
<!-- corrupt_champion_glitch&#45;&gt;corrupt_final_corruptcore -->
<g id="edge48" class="edge">
<title>corrupt_champion_glitch&#45;&gt;corrupt_final_corruptcore</title>
<path fill="none" stroke="#7e57c2" d="M552.34,-957.67C564.88,-959.07 577.79,-960.5 590.52,-961.92"/>
<polygon fill="#7e57c2" stroke="#7e57c2" points="590.35,-965.42 600.67,-963.05 591.12,-958.47 590.35,-965.42"/>
</g>
<!-- corrupt_final_overrun -->
<g id="node68" class="node">
<title>corrupt_final_overrun</title>
<path fill="lightgrey" stroke="black" d="M773,-938C773,-938 627,-938 627,-938 621,-938 615,-932 615,-926 615,-926 615,-914 615,-914 615,-908 621,-902 627,-902 627,-902 773,-902 773,-902 779,-902 785,-908 785,-914 785,-914 785,-926 785,-926 785,-932 779,-938 773,-938"/>
<text text-anchor="middle" x="700" y="-916.3" font-family="Times,serif" font-size="14.00">corrupt_final_overrun</text>
</g>
<!-- corrupt_champion_glitch&#45;&gt;corrupt_final_overrun -->
<g id="edge49" class="edge">
<title>corrupt_champion_glitch&#45;&gt;corrupt_final_overrun</title>
<path fill="none" stroke="#7e57c2" d="M552.34,-936.33C569.61,-934.41 587.59,-932.4 604.81,-930.49"/>
<polygon fill="#7e57c2" stroke="#7e57c2" points="605.29,-933.96 614.84,-929.37 604.52,-927 605.29,-933.96"/>
</g>
<!-- corrupt_champion_error&#45;&gt;corrupt_final_corruptcore -->
<g id="edge51" class="edge">
<title>corrupt_champion_error&#45;&gt;corrupt_final_corruptcore</title>
<path fill="none" stroke="#7e57c2" d="M550.26,-990.56C563.43,-989.09 577.05,-987.58 590.47,-986.08"/>
<polygon fill="#7e57c2" stroke="#7e57c2" points="591.13,-989.53 600.68,-984.95 590.35,-982.58 591.13,-989.53"/>
</g>
<!-- corrupt_champion_error&#45;&gt;corrupt_final_overrun -->
<g id="edge50" class="edge">
<title>corrupt_champion_error&#45;&gt;corrupt_final_overrun</title>
<path fill="none" stroke="#7e57c2" d="M550.07,-984.13C558.04,-981.26 565.79,-977.91 573,-974 588.19,-965.75 585.98,-955.56 601,-947 604.04,-945.27 607.2,-943.64 610.45,-942.11"/>
<polygon fill="#7e57c2" stroke="#7e57c2" points="611.99,-945.26 619.77,-938.07 609.2,-938.84 611.99,-945.26"/>
</g>
<!-- corrupt_champion_patchfail&#45;&gt;corrupt_final_corruptcore -->
<g id="edge52" class="edge">
<title>corrupt_champion_patchfail&#45;&gt;corrupt_final_corruptcore</title>
<path fill="none" stroke="#7e57c2" d="M553.39,-911.1C560.19,-913.68 566.8,-916.63 573,-920 588.19,-928.25 585.98,-938.44 601,-947 604.04,-948.73 607.2,-950.36 610.45,-951.89"/>
<polygon fill="#7e57c2" stroke="#7e57c2" points="609.2,-955.16 619.77,-955.93 611.99,-948.74 609.2,-955.16"/>
</g>
<!-- corrupt_champion_patchfail&#45;&gt;corrupt_final_overrun -->
<g id="edge53" class="edge">
<title>corrupt_champion_patchfail&#45;&gt;corrupt_final_overrun</title>
<path fill="none" stroke="#7e57c2" d="M563.22,-904.88C576.99,-906.42 591.01,-907.98 604.57,-909.49"/>
<polygon fill="#7e57c2" stroke="#7e57c2" points="604.5,-913 614.83,-910.63 605.28,-906.04 604.5,-913"/>
</g>
<!-- void_baby -->
<g id="node29" class="node">
<title>void_baby</title>
<path fill="#b0bec5" stroke="black" d="M110,-1156C110,-1156 46,-1156 46,-1156 40,-1156 34,-1150 34,-1144 34,-1144 34,-1132 34,-1132 34,-1126 40,-1120 46,-1120 46,-1120 110,-1120 110,-1120 116,-1120 122,-1126 122,-1132 122,-1132 122,-1144 122,-1144 122,-1150 116,-1156 110,-1156"/>
<text text-anchor="middle" x="78" y="-1134.3" font-family="Times,serif" font-size="14.00">void_baby</text>
</g>
<!-- void_rookie -->
<g id="node30" class="node">
<title>void_rookie</title>
<path fill="#b0bec5" stroke="black" d="M280,-1156C280,-1156 206,-1156 206,-1156 200,-1156 194,-1150 194,-1144 194,-1144 194,-1132 194,-1132 194,-1126 200,-1120 206,-1120 206,-1120 280,-1120 280,-1120 286,-1120 292,-1126 292,-1132 292,-1132 292,-1144 292,-1144 292,-1150 286,-1156 280,-1156"/>
<text text-anchor="middle" x="243" y="-1134.3" font-family="Times,serif" font-size="14.00">void_rookie</text>
</g>
<!-- void_baby&#45;&gt;void_rookie -->
<g id="edge54" class="edge">
<title>void_baby&#45;&gt;void_rookie</title>
<path fill="none" stroke="black" d="M122.25,-1138C141.13,-1138 163.55,-1138 183.86,-1138"/>
<polygon fill="black" stroke="black" points="183.95,-1141.5 193.95,-1138 183.95,-1134.5 183.95,-1141.5"/>
</g>
<!-- void_champion_entropy -->
<g id="node31" class="node">
<title>void_champion_entropy</title>
<path fill="#b0bec5" stroke="black" d="M536,-1210C536,-1210 375,-1210 375,-1210 369,-1210 363,-1204 363,-1198 363,-1198 363,-1186 363,-1186 363,-1180 369,-1174 375,-1174 375,-1174 536,-1174 536,-1174 542,-1174 548,-1180 548,-1186 548,-1186 548,-1198 548,-1198 548,-1204 542,-1210 536,-1210"/>
<text text-anchor="middle" x="455.5" y="-1188.3" font-family="Times,serif" font-size="14.00">void_champion_entropy</text>
</g>
<!-- void_rookie&#45;&gt;void_champion_entropy -->
<g id="edge55" class="edge">
<title>void_rookie&#45;&gt;void_champion_entropy</title>
<path fill="none" stroke="#7e57c2" d="M292.22,-1150.92C309.2,-1155.43 328.43,-1160.49 346,-1165 354.33,-1167.14 363.03,-1169.35 371.72,-1171.54"/>
<polygon fill="#7e57c2" stroke="#7e57c2" points="370.96,-1174.95 381.51,-1173.99 372.66,-1168.16 370.96,-1174.95"/>
</g>
<!-- void_champion_gravity -->
<g id="node32" class="node">
<title>void_champion_gravity</title>
<path fill="#b0bec5" stroke="black" d="M533.5,-1102C533.5,-1102 377.5,-1102 377.5,-1102 371.5,-1102 365.5,-1096 365.5,-1090 365.5,-1090 365.5,-1078 365.5,-1078 365.5,-1072 371.5,-1066 377.5,-1066 377.5,-1066 533.5,-1066 533.5,-1066 539.5,-1066 545.5,-1072 545.5,-1078 545.5,-1078 545.5,-1090 545.5,-1090 545.5,-1096 539.5,-1102 533.5,-1102"/>
<text text-anchor="middle" x="455.5" y="-1080.3" font-family="Times,serif" font-size="14.00">void_champion_gravity</text>
</g>
<!-- void_rookie&#45;&gt;void_champion_gravity -->
<g id="edge56" class="edge">
<title>void_rookie&#45;&gt;void_champion_gravity</title>
<path fill="none" stroke="#7e57c2" d="M292.22,-1125.08C309.2,-1120.57 328.43,-1115.51 346,-1111 354.33,-1108.86 363.03,-1106.65 371.72,-1104.46"/>
<polygon fill="#7e57c2" stroke="#7e57c2" points="372.66,-1107.84 381.51,-1102.01 370.96,-1101.05 372.66,-1107.84"/>
</g>
<!-- void_champion_null -->
<g id="node33" class="node">
<title>void_champion_null</title>
<path fill="#b0bec5" stroke="black" d="M521.5,-1156C521.5,-1156 389.5,-1156 389.5,-1156 383.5,-1156 377.5,-1150 377.5,-1144 377.5,-1144 377.5,-1132 377.5,-1132 377.5,-1126 383.5,-1120 389.5,-1120 389.5,-1120 521.5,-1120 521.5,-1120 527.5,-1120 533.5,-1126 533.5,-1132 533.5,-1132 533.5,-1144 533.5,-1144 533.5,-1150 527.5,-1156 521.5,-1156"/>
<text text-anchor="middle" x="455.5" y="-1134.3" font-family="Times,serif" font-size="14.00">void_champion_null</text>
</g>
<!-- void_rookie&#45;&gt;void_champion_null -->
<g id="edge57" class="edge">
<title>void_rookie&#45;&gt;void_champion_null</title>
<path fill="none" stroke="#7e57c2" d="M292.03,-1138C314.31,-1138 341.51,-1138 367.23,-1138"/>
<polygon fill="#7e57c2" stroke="#7e57c2" points="367.38,-1141.5 377.38,-1138 367.38,-1134.5 367.38,-1141.5"/>
</g>
<!-- corrupt_final_glitch -->
<g id="node69" class="node">
<title>corrupt_final_glitch</title>
<path fill="lightgrey" stroke="black" d="M765.5,-1210C765.5,-1210 634.5,-1210 634.5,-1210 628.5,-1210 622.5,-1204 622.5,-1198 622.5,-1198 622.5,-1186 622.5,-1186 622.5,-1180 628.5,-1174 634.5,-1174 634.5,-1174 765.5,-1174 765.5,-1174 771.5,-1174 777.5,-1180 777.5,-1186 777.5,-1186 777.5,-1198 777.5,-1198 777.5,-1204 771.5,-1210 765.5,-1210"/>
<text text-anchor="middle" x="700" y="-1188.3" font-family="Times,serif" font-size="14.00">corrupt_final_glitch</text>
</g>
<!-- void_champion_entropy&#45;&gt;corrupt_final_glitch -->
<g id="edge58" class="edge">
<title>void_champion_entropy&#45;&gt;corrupt_final_glitch</title>
<path fill="none" stroke="#7e57c2" d="M548.18,-1192C569.16,-1192 591.39,-1192 612.16,-1192"/>
<polygon fill="#7e57c2" stroke="#7e57c2" points="612.22,-1195.5 622.22,-1192 612.22,-1188.5 612.22,-1195.5"/>
</g>
<!-- void_final_oblivion -->
<g id="node70" class="node">
<title>void_final_oblivion</title>
<path fill="lightgrey" stroke="black" d="M761.5,-1156C761.5,-1156 638.5,-1156 638.5,-1156 632.5,-1156 626.5,-1150 626.5,-1144 626.5,-1144 626.5,-1132 626.5,-1132 626.5,-1126 632.5,-1120 638.5,-1120 638.5,-1120 761.5,-1120 761.5,-1120 767.5,-1120 773.5,-1126 773.5,-1132 773.5,-1132 773.5,-1144 773.5,-1144 773.5,-1150 767.5,-1156 761.5,-1156"/>
<text text-anchor="middle" x="700" y="-1134.3" font-family="Times,serif" font-size="14.00">void_final_oblivion</text>
</g>
<!-- void_champion_entropy&#45;&gt;void_final_oblivion -->
<g id="edge59" class="edge">
<title>void_champion_entropy&#45;&gt;void_final_oblivion</title>
<path fill="none" stroke="#7e57c2" d="M537.59,-1173.94C562.87,-1168.31 590.78,-1162.1 616.18,-1156.44"/>
<polygon fill="#7e57c2" stroke="#7e57c2" points="617.15,-1159.81 626.15,-1154.22 615.63,-1152.98 617.15,-1159.81"/>
</g>
<!-- void_champion_gravity&#45;&gt;void_final_oblivion -->
<g id="edge61" class="edge">
<title>void_champion_gravity&#45;&gt;void_final_oblivion</title>
<path fill="none" stroke="#7e57c2" d="M537.59,-1102.06C562.87,-1107.69 590.78,-1113.9 616.18,-1119.56"/>
<polygon fill="#7e57c2" stroke="#7e57c2" points="615.63,-1123.02 626.15,-1121.78 617.15,-1116.19 615.63,-1123.02"/>
</g>
<!-- void_final_singularity -->
<g id="node71" class="node">
<title>void_final_singularity</title>
<path fill="lightgrey" stroke="black" d="M772,-1102C772,-1102 628,-1102 628,-1102 622,-1102 616,-1096 616,-1090 616,-1090 616,-1078 616,-1078 616,-1072 622,-1066 628,-1066 628,-1066 772,-1066 772,-1066 778,-1066 784,-1072 784,-1078 784,-1078 784,-1090 784,-1090 784,-1096 778,-1102 772,-1102"/>
<text text-anchor="middle" x="700" y="-1080.3" font-family="Times,serif" font-size="14.00">void_final_singularity</text>
</g>
<!-- void_champion_gravity&#45;&gt;void_final_singularity -->
<g id="edge60" class="edge">
<title>void_champion_gravity&#45;&gt;void_final_singularity</title>
<path fill="none" stroke="#7e57c2" d="M545.76,-1084C565.32,-1084 586.06,-1084 605.76,-1084"/>
<polygon fill="#7e57c2" stroke="#7e57c2" points="605.96,-1087.5 615.96,-1084 605.96,-1080.5 605.96,-1087.5"/>
</g>
<!-- void_champion_null&#45;&gt;void_final_oblivion -->
<g id="edge62" class="edge">
<title>void_champion_null&#45;&gt;void_final_oblivion</title>
<path fill="none" stroke="#7e57c2" d="M533.56,-1138C559.88,-1138 589.41,-1138 616.16,-1138"/>
<polygon fill="#7e57c2" stroke="#7e57c2" points="616.27,-1141.5 626.27,-1138 616.27,-1134.5 616.27,-1141.5"/>
</g>
<!-- void_champion_null&#45;&gt;void_final_singularity -->
<g id="edge63" class="edge">
<title>void_champion_null&#45;&gt;void_final_singularity</title>
<path fill="none" stroke="#7e57c2" d="M533.56,-1120.84C557.21,-1115.57 583.45,-1109.73 607.94,-1104.28"/>
<polygon fill="#7e57c2" stroke="#7e57c2" points="608.95,-1107.64 617.95,-1102.05 607.43,-1100.8 608.95,-1107.64"/>
</g>
<!-- archive_baby -->
<g id="node34" class="node">
<title>archive_baby</title>
<path fill="#ce93d8" stroke="black" d="M121,-1347C121,-1347 35,-1347 35,-1347 29,-1347 23,-1341 23,-1335 23,-1335 23,-1323 23,-1323 23,-1317 29,-1311 35,-1311 35,-1311 121,-1311 121,-1311 127,-1311 133,-1317 133,-1323 133,-1323 133,-1335 133,-1335 133,-1341 127,-1347 121,-1347"/>
<text text-anchor="middle" x="78" y="-1325.3" font-family="Times,serif" font-size="14.00">archive_baby</text>
</g>
<!-- archive_rookie -->
<g id="node35" class="node">
<title>archive_rookie</title>
<path fill="#ce93d8" stroke="black" d="M291,-1347C291,-1347 195,-1347 195,-1347 189,-1347 183,-1341 183,-1335 183,-1335 183,-1323 183,-1323 183,-1317 189,-1311 195,-1311 195,-1311 291,-1311 291,-1311 297,-1311 303,-1317 303,-1323 303,-1323 303,-1335 303,-1335 303,-1341 297,-1347 291,-1347"/>
<text text-anchor="middle" x="243" y="-1325.3" font-family="Times,serif" font-size="14.00">archive_rookie</text>
</g>
<!-- archive_baby&#45;&gt;archive_rookie -->
<g id="edge64" class="edge">
<title>archive_baby&#45;&gt;archive_rookie</title>
<path fill="none" stroke="black" d="M133.28,-1329C145.97,-1329 159.66,-1329 172.9,-1329"/>
<polygon fill="black" stroke="black" points="172.92,-1332.5 182.92,-1329 172.92,-1325.5 172.92,-1332.5"/>
</g>
<!-- archive_champion_logic -->
<g id="node36" class="node">
<title>archive_champion_logic</title>
<path fill="#ce93d8" stroke="black" d="M536,-1293C536,-1293 375,-1293 375,-1293 369,-1293 363,-1287 363,-1281 363,-1281 363,-1269 363,-1269 363,-1263 369,-1257 375,-1257 375,-1257 536,-1257 536,-1257 542,-1257 548,-1263 548,-1269 548,-1269 548,-1281 548,-1281 548,-1287 542,-1293 536,-1293"/>
<text text-anchor="middle" x="455.5" y="-1271.3" font-family="Times,serif" font-size="14.00">archive_champion_logic</text>
</g>
<!-- archive_rookie&#45;&gt;archive_champion_logic -->
<g id="edge65" class="edge">
<title>archive_rookie&#45;&gt;archive_champion_logic</title>
<path fill="none" stroke="#7e57c2" d="M303.02,-1313.22C317.09,-1309.5 332.07,-1305.58 346,-1302 354.33,-1299.86 363.03,-1297.65 371.72,-1295.46"/>
<polygon fill="#7e57c2" stroke="#7e57c2" points="372.66,-1298.84 381.51,-1293.01 370.96,-1292.05 372.66,-1298.84"/>
</g>
<!-- archive_champion_index -->
<g id="node37" class="node">
<title>archive_champion_index</title>
<path fill="#ce93d8" stroke="black" d="M539,-1347C539,-1347 372,-1347 372,-1347 366,-1347 360,-1341 360,-1335 360,-1335 360,-1323 360,-1323 360,-1317 366,-1311 372,-1311 372,-1311 539,-1311 539,-1311 545,-1311 551,-1317 551,-1323 551,-1323 551,-1335 551,-1335 551,-1341 545,-1347 539,-1347"/>
<text text-anchor="middle" x="455.5" y="-1325.3" font-family="Times,serif" font-size="14.00">archive_champion_index</text>
</g>
<!-- archive_rookie&#45;&gt;archive_champion_index -->
<g id="edge66" class="edge">
<title>archive_rookie&#45;&gt;archive_champion_index</title>
<path fill="none" stroke="#7e57c2" d="M303.2,-1329C317.66,-1329 333.57,-1329 349.47,-1329"/>
<polygon fill="#7e57c2" stroke="#7e57c2" points="349.91,-1332.5 359.91,-1329 349.91,-1325.5 349.91,-1332.5"/>
</g>
<!-- archive_champion_fragment -->
<g id="node38" class="node">
<title>archive_champion_fragment</title>
<path fill="#ce93d8" stroke="black" d="M552.5,-1401C552.5,-1401 358.5,-1401 358.5,-1401 352.5,-1401 346.5,-1395 346.5,-1389 346.5,-1389 346.5,-1377 346.5,-1377 346.5,-1371 352.5,-1365 358.5,-1365 358.5,-1365 552.5,-1365 552.5,-1365 558.5,-1365 564.5,-1371 564.5,-1377 564.5,-1377 564.5,-1389 564.5,-1389 564.5,-1395 558.5,-1401 552.5,-1401"/>
<text text-anchor="middle" x="455.5" y="-1379.3" font-family="Times,serif" font-size="14.00">archive_champion_fragment</text>
</g>
<!-- archive_rookie&#45;&gt;archive_champion_fragment -->
<g id="edge67" class="edge">
<title>archive_rookie&#45;&gt;archive_champion_fragment</title>
<path fill="none" stroke="#7e57c2" d="M303.02,-1344.78C317.09,-1348.5 332.07,-1352.42 346,-1356 354.33,-1358.14 363.03,-1360.35 371.72,-1362.54"/>
<polygon fill="#7e57c2" stroke="#7e57c2" points="370.96,-1365.95 381.51,-1364.99 372.66,-1359.16 370.96,-1365.95"/>
</g>
<!-- archive_final_compiler -->
<g id="node72" class="node">
<title>archive_final_compiler</title>
<path fill="lightgrey" stroke="black" d="M776,-1347C776,-1347 624,-1347 624,-1347 618,-1347 612,-1341 612,-1335 612,-1335 612,-1323 612,-1323 612,-1317 618,-1311 624,-1311 624,-1311 776,-1311 776,-1311 782,-1311 788,-1317 788,-1323 788,-1323 788,-1335 788,-1335 788,-1341 782,-1347 776,-1347"/>
<text text-anchor="middle" x="700" y="-1325.3" font-family="Times,serif" font-size="14.00">archive_final_compiler</text>
</g>
<!-- archive_champion_logic&#45;&gt;archive_final_compiler -->
<g id="edge68" class="edge">
<title>archive_champion_logic&#45;&gt;archive_final_compiler</title>
<path fill="none" stroke="#7e57c2" d="M537.59,-1293.06C560.24,-1298.1 584.99,-1303.61 608.17,-1308.77"/>
<polygon fill="#7e57c2" stroke="#7e57c2" points="607.47,-1312.2 617.99,-1310.96 608.99,-1305.37 607.47,-1312.2"/>
</g>
<!-- archive_final_librarian -->
<g id="node73" class="node">
<title>archive_final_librarian</title>
<path fill="lightgrey" stroke="black" d="M775.5,-1293C775.5,-1293 624.5,-1293 624.5,-1293 618.5,-1293 612.5,-1287 612.5,-1281 612.5,-1281 612.5,-1269 612.5,-1269 612.5,-1263 618.5,-1257 624.5,-1257 624.5,-1257 775.5,-1257 775.5,-1257 781.5,-1257 787.5,-1263 787.5,-1269 787.5,-1269 787.5,-1281 787.5,-1281 787.5,-1287 781.5,-1293 775.5,-1293"/>
<text text-anchor="middle" x="700" y="-1271.3" font-family="Times,serif" font-size="14.00">archive_final_librarian</text>
</g>
<!-- archive_champion_logic&#45;&gt;archive_final_librarian -->
<g id="edge69" class="edge">
<title>archive_champion_logic&#45;&gt;archive_final_librarian</title>
<path fill="none" stroke="#7e57c2" d="M548.18,-1275C565.78,-1275 584.27,-1275 602.03,-1275"/>
<polygon fill="#7e57c2" stroke="#7e57c2" points="602.4,-1278.5 612.4,-1275 602.4,-1271.5 602.4,-1278.5"/>
</g>
<!-- archive_champion_index&#45;&gt;archive_final_librarian -->
<g id="edge70" class="edge">
<title>archive_champion_index&#45;&gt;archive_final_librarian</title>
<path fill="none" stroke="#7e57c2" d="M537.59,-1310.94C560.24,-1305.9 584.99,-1300.39 608.17,-1295.23"/>
<polygon fill="#7e57c2" stroke="#7e57c2" points="608.99,-1298.63 617.99,-1293.04 607.47,-1291.8 608.99,-1298.63"/>
</g>
<!-- archive_final_corrupt -->
<g id="node74" class="node">
<title>archive_final_corrupt</title>
<path fill="lightgrey" stroke="black" d="M771.5,-1401C771.5,-1401 628.5,-1401 628.5,-1401 622.5,-1401 616.5,-1395 616.5,-1389 616.5,-1389 616.5,-1377 616.5,-1377 616.5,-1371 622.5,-1365 628.5,-1365 628.5,-1365 771.5,-1365 771.5,-1365 777.5,-1365 783.5,-1371 783.5,-1377 783.5,-1377 783.5,-1389 783.5,-1389 783.5,-1395 777.5,-1401 771.5,-1401"/>
<text text-anchor="middle" x="700" y="-1379.3" font-family="Times,serif" font-size="14.00">archive_final_corrupt</text>
</g>
<!-- archive_champion_index&#45;&gt;archive_final_corrupt -->
<g id="edge71" class="edge">
<title>archive_champion_index&#45;&gt;archive_final_corrupt</title>
<path fill="none" stroke="#7e57c2" d="M537.59,-1347.06C560.24,-1352.1 584.99,-1357.61 608.17,-1362.77"/>
<polygon fill="#7e57c2" stroke="#7e57c2" points="607.47,-1366.2 617.99,-1364.96 608.99,-1359.37 607.47,-1366.2"/>
</g>
<!-- archive_champion_fragment&#45;&gt;archive_final_compiler -->
<g id="edge73" class="edge">
<title>archive_champion_fragment&#45;&gt;archive_final_compiler</title>
<path fill="none" stroke="#7e57c2" d="M537.59,-1364.94C560.24,-1359.9 584.99,-1354.39 608.17,-1349.23"/>
<polygon fill="#7e57c2" stroke="#7e57c2" points="608.99,-1352.63 617.99,-1347.04 607.47,-1345.8 608.99,-1352.63"/>
</g>
<!-- archive_champion_fragment&#45;&gt;archive_final_corrupt -->
<g id="edge72" class="edge">
<title>archive_champion_fragment&#45;&gt;archive_final_corrupt</title>
<path fill="none" stroke="#7e57c2" d="M564.63,-1383C578.42,-1383 592.44,-1383 605.96,-1383"/>
<polygon fill="#7e57c2" stroke="#7e57c2" points="606.19,-1386.5 616.19,-1383 606.19,-1379.5 606.19,-1386.5"/>
</g>
<!-- core_baby -->
<g id="node39" class="node">
<title>core_baby</title>
<path fill="#4fc3f7" stroke="black" d="M110.5,-1538C110.5,-1538 45.5,-1538 45.5,-1538 39.5,-1538 33.5,-1532 33.5,-1526 33.5,-1526 33.5,-1514 33.5,-1514 33.5,-1508 39.5,-1502 45.5,-1502 45.5,-1502 110.5,-1502 110.5,-1502 116.5,-1502 122.5,-1508 122.5,-1514 122.5,-1514 122.5,-1526 122.5,-1526 122.5,-1532 116.5,-1538 110.5,-1538"/>
<text text-anchor="middle" x="78" y="-1516.3" font-family="Times,serif" font-size="14.00">core_baby</text>
</g>
<!-- core_rookie -->
<g id="node40" class="node">
<title>core_rookie</title>
<path fill="#4fc3f7" stroke="black" d="M280,-1538C280,-1538 206,-1538 206,-1538 200,-1538 194,-1532 194,-1526 194,-1526 194,-1514 194,-1514 194,-1508 200,-1502 206,-1502 206,-1502 280,-1502 280,-1502 286,-1502 292,-1508 292,-1514 292,-1514 292,-1526 292,-1526 292,-1532 286,-1538 280,-1538"/>
<text text-anchor="middle" x="243" y="-1516.3" font-family="Times,serif" font-size="14.00">core_rookie</text>
</g>
<!-- core_baby&#45;&gt;core_rookie -->
<g id="edge74" class="edge">
<title>core_baby&#45;&gt;core_rookie</title>
<path fill="none" stroke="black" d="M122.68,-1520C141.48,-1520 163.72,-1520 183.88,-1520"/>
<polygon fill="black" stroke="black" points="183.9,-1523.5 193.9,-1520 183.9,-1516.5 183.9,-1523.5"/>
</g>
<!-- core_champion_power -->
<g id="node41" class="node">
<title>core_champion_power</title>
<path fill="#4fc3f7" stroke="black" d="M530.5,-1484C530.5,-1484 380.5,-1484 380.5,-1484 374.5,-1484 368.5,-1478 368.5,-1472 368.5,-1472 368.5,-1460 368.5,-1460 368.5,-1454 374.5,-1448 380.5,-1448 380.5,-1448 530.5,-1448 530.5,-1448 536.5,-1448 542.5,-1454 542.5,-1460 542.5,-1460 542.5,-1472 542.5,-1472 542.5,-1478 536.5,-1484 530.5,-1484"/>
<text text-anchor="middle" x="455.5" y="-1462.3" font-family="Times,serif" font-size="14.00">core_champion_power</text>
</g>
<!-- core_rookie&#45;&gt;core_champion_power -->
<g id="edge75" class="edge">
<title>core_rookie&#45;&gt;core_champion_power</title>
<path fill="none" stroke="#7e57c2" d="M292.22,-1507.08C309.2,-1502.57 328.43,-1497.51 346,-1493 354.33,-1490.86 363.03,-1488.65 371.72,-1486.46"/>
<polygon fill="#7e57c2" stroke="#7e57c2" points="372.66,-1489.84 381.51,-1484.01 370.96,-1483.05 372.66,-1489.84"/>
</g>
<!-- core_champion_guard -->
<g id="node42" class="node">
<title>core_champion_guard</title>
<path fill="#4fc3f7" stroke="black" d="M529.5,-1592C529.5,-1592 381.5,-1592 381.5,-1592 375.5,-1592 369.5,-1586 369.5,-1580 369.5,-1580 369.5,-1568 369.5,-1568 369.5,-1562 375.5,-1556 381.5,-1556 381.5,-1556 529.5,-1556 529.5,-1556 535.5,-1556 541.5,-1562 541.5,-1568 541.5,-1568 541.5,-1580 541.5,-1580 541.5,-1586 535.5,-1592 529.5,-1592"/>
<text text-anchor="middle" x="455.5" y="-1570.3" font-family="Times,serif" font-size="14.00">core_champion_guard</text>
</g>
<!-- core_rookie&#45;&gt;core_champion_guard -->
<g id="edge76" class="edge">
<title>core_rookie&#45;&gt;core_champion_guard</title>
<path fill="none" stroke="#7e57c2" d="M292.22,-1532.92C309.2,-1537.43 328.43,-1542.49 346,-1547 354.33,-1549.14 363.03,-1551.35 371.72,-1553.54"/>
<polygon fill="#7e57c2" stroke="#7e57c2" points="370.96,-1556.95 381.51,-1555.99 372.66,-1550.16 370.96,-1556.95"/>
</g>
<!-- core_champion_speed -->
<g id="node43" class="node">
<title>core_champion_speed</title>
<path fill="#4fc3f7" stroke="black" d="M529.5,-1538C529.5,-1538 381.5,-1538 381.5,-1538 375.5,-1538 369.5,-1532 369.5,-1526 369.5,-1526 369.5,-1514 369.5,-1514 369.5,-1508 375.5,-1502 381.5,-1502 381.5,-1502 529.5,-1502 529.5,-1502 535.5,-1502 541.5,-1508 541.5,-1514 541.5,-1514 541.5,-1526 541.5,-1526 541.5,-1532 535.5,-1538 529.5,-1538"/>
<text text-anchor="middle" x="455.5" y="-1516.3" font-family="Times,serif" font-size="14.00">core_champion_speed</text>
</g>
<!-- core_rookie&#45;&gt;core_champion_speed -->
<g id="edge77" class="edge">
<title>core_rookie&#45;&gt;core_champion_speed</title>
<path fill="none" stroke="#7e57c2" d="M292.03,-1520C312.01,-1520 335.94,-1520 359.21,-1520"/>
<polygon fill="#7e57c2" stroke="#7e57c2" points="359.48,-1523.5 369.48,-1520 359.48,-1516.5 359.48,-1523.5"/>
</g>
<!-- core_final_overclock -->
<g id="node75" class="node">
<title>core_final_overclock</title>
<path fill="lightgrey" stroke="black" d="M767.5,-1463C767.5,-1463 632.5,-1463 632.5,-1463 626.5,-1463 620.5,-1457 620.5,-1451 620.5,-1451 620.5,-1439 620.5,-1439 620.5,-1433 626.5,-1427 632.5,-1427 632.5,-1427 767.5,-1427 767.5,-1427 773.5,-1427 779.5,-1433 779.5,-1439 779.5,-1439 779.5,-1451 779.5,-1451 779.5,-1457 773.5,-1463 767.5,-1463"/>
<text text-anchor="middle" x="700" y="-1441.3" font-family="Times,serif" font-size="14.00">core_final_overclock</text>
</g>
<!-- core_champion_power&#45;&gt;core_final_overclock -->
<g id="edge78" class="edge">
<title>core_champion_power&#45;&gt;core_final_overclock</title>
<path fill="none" stroke="#7e57c2" d="M542.68,-1458.54C564.64,-1456.64 588.27,-1454.59 610.35,-1452.68"/>
<polygon fill="#7e57c2" stroke="#7e57c2" points="610.72,-1456.16 620.38,-1451.81 610.11,-1449.18 610.72,-1456.16"/>
</g>
<!-- core_final_prime -->
<g id="node76" class="node">
<title>core_final_prime</title>
<path fill="lightgrey" stroke="black" d="M755,-1571C755,-1571 645,-1571 645,-1571 639,-1571 633,-1565 633,-1559 633,-1559 633,-1547 633,-1547 633,-1541 639,-1535 645,-1535 645,-1535 755,-1535 755,-1535 761,-1535 767,-1541 767,-1547 767,-1547 767,-1559 767,-1559 767,-1565 761,-1571 755,-1571"/>
<text text-anchor="middle" x="700" y="-1549.3" font-family="Times,serif" font-size="14.00">core_final_prime</text>
</g>
<!-- core_champion_power&#45;&gt;core_final_prime -->
<g id="edge79" class="edge">
<title>core_champion_power&#45;&gt;core_final_prime</title>
<path fill="none" stroke="#7e57c2" d="M542.67,-1479.3C553.3,-1482.84 563.69,-1487.33 573,-1493 589.42,-1503.01 584.79,-1515.65 601,-1526 607.87,-1530.39 615.46,-1534.07 623.28,-1537.16"/>
<polygon fill="#7e57c2" stroke="#7e57c2" points="622.3,-1540.53 632.89,-1540.64 624.68,-1533.95 622.3,-1540.53"/>
</g>
<!-- core_champion_guard&#45;&gt;core_final_prime -->
<g id="edge81" class="edge">
<title>core_champion_guard&#45;&gt;core_final_prime</title>
<path fill="none" stroke="#7e57c2" d="M541.66,-1566.63C568.04,-1564.34 596.93,-1561.84 622.68,-1559.61"/>
<polygon fill="#7e57c2" stroke="#7e57c2" points="623.09,-1563.09 632.75,-1558.74 622.49,-1556.11 623.09,-1563.09"/>
</g>
<!-- core_final_bastion -->
<g id="node77" class="node">
<title>core_final_bastion</title>
<path fill="lightgrey" stroke="black" d="M760,-1625C760,-1625 640,-1625 640,-1625 634,-1625 628,-1619 628,-1613 628,-1613 628,-1601 628,-1601 628,-1595 634,-1589 640,-1589 640,-1589 760,-1589 760,-1589 766,-1589 772,-1595 772,-1601 772,-1601 772,-1613 772,-1613 772,-1619 766,-1625 760,-1625"/>
<text text-anchor="middle" x="700" y="-1603.3" font-family="Times,serif" font-size="14.00">core_final_bastion</text>
</g>
<!-- core_champion_guard&#45;&gt;core_final_bastion -->
<g id="edge80" class="edge">
<title>core_champion_guard&#45;&gt;core_final_bastion</title>
<path fill="none" stroke="#7e57c2" d="M541.66,-1585.59C566.36,-1588.95 593.27,-1592.61 617.74,-1595.94"/>
<polygon fill="#7e57c2" stroke="#7e57c2" points="617.32,-1599.42 627.7,-1597.3 618.26,-1592.48 617.32,-1599.42"/>
</g>
<!-- core_champion_speed&#45;&gt;core_final_prime -->
<g id="edge83" class="edge">
<title>core_champion_speed&#45;&gt;core_final_prime</title>
<path fill="none" stroke="#7e57c2" d="M541.66,-1531.59C568.04,-1535.18 596.93,-1539.11 622.68,-1542.61"/>
<polygon fill="#7e57c2" stroke="#7e57c2" points="622.37,-1546.1 632.75,-1543.99 623.32,-1539.17 622.37,-1546.1"/>
</g>
<!-- core_final_photon -->
<g id="node78" class="node">
<title>core_final_photon</title>
<path fill="lightgrey" stroke="black" d="M758.5,-1517C758.5,-1517 641.5,-1517 641.5,-1517 635.5,-1517 629.5,-1511 629.5,-1505 629.5,-1505 629.5,-1493 629.5,-1493 629.5,-1487 635.5,-1481 641.5,-1481 641.5,-1481 758.5,-1481 758.5,-1481 764.5,-1481 770.5,-1487 770.5,-1493 770.5,-1493 770.5,-1505 770.5,-1505 770.5,-1511 764.5,-1517 758.5,-1517"/>
<text text-anchor="middle" x="700" y="-1495.3" font-family="Times,serif" font-size="14.00">core_final_photon</text>
</g>
<!-- core_champion_speed&#45;&gt;core_final_photon -->
<g id="edge82" class="edge">
<title>core_champion_speed&#45;&gt;core_final_photon</title>
<path fill="none" stroke="#7e57c2" d="M541.66,-1512.63C566.84,-1510.44 594.32,-1508.07 619.16,-1505.91"/>
<polygon fill="#7e57c2" stroke="#7e57c2" points="619.6,-1509.39 629.26,-1505.04 619,-1502.41 619.6,-1509.39"/>
</g>
<!-- firewall_baby -->
<g id="node44" class="node">
<title>firewall_baby</title>
<path fill="#ff8a65" stroke="black" d="M121.5,-1741C121.5,-1741 34.5,-1741 34.5,-1741 28.5,-1741 22.5,-1735 22.5,-1729 22.5,-1729 22.5,-1717 22.5,-1717 22.5,-1711 28.5,-1705 34.5,-1705 34.5,-1705 121.5,-1705 121.5,-1705 127.5,-1705 133.5,-1711 133.5,-1717 133.5,-1717 133.5,-1729 133.5,-1729 133.5,-1735 127.5,-1741 121.5,-1741"/>
<text text-anchor="middle" x="78" y="-1719.3" font-family="Times,serif" font-size="14.00">firewall_baby</text>
</g>
<!-- firewall_rookie -->
<g id="node45" class="node">
<title>firewall_rookie</title>
<path fill="#ff8a65" stroke="black" d="M291.5,-1741C291.5,-1741 194.5,-1741 194.5,-1741 188.5,-1741 182.5,-1735 182.5,-1729 182.5,-1729 182.5,-1717 182.5,-1717 182.5,-1711 188.5,-1705 194.5,-1705 194.5,-1705 291.5,-1705 291.5,-1705 297.5,-1705 303.5,-1711 303.5,-1717 303.5,-1717 303.5,-1729 303.5,-1729 303.5,-1735 297.5,-1741 291.5,-1741"/>
<text text-anchor="middle" x="243" y="-1719.3" font-family="Times,serif" font-size="14.00">firewall_rookie</text>
</g>
<!-- firewall_baby&#45;&gt;firewall_rookie -->
<g id="edge84" class="edge">
<title>firewall_baby&#45;&gt;firewall_rookie</title>
<path fill="none" stroke="black" d="M133.73,-1723C146.06,-1723 159.32,-1723 172.17,-1723"/>
<polygon fill="black" stroke="black" points="172.38,-1726.5 182.38,-1723 172.38,-1719.5 172.38,-1726.5"/>
</g>
<!-- firewall_champion_barrier -->
<g id="node46" class="node">
<title>firewall_champion_barrier</title>
<path fill="#ff8a65" stroke="black" d="M545,-1687C545,-1687 366,-1687 366,-1687 360,-1687 354,-1681 354,-1675 354,-1675 354,-1663 354,-1663 354,-1657 360,-1651 366,-1651 366,-1651 545,-1651 545,-1651 551,-1651 557,-1657 557,-1663 557,-1663 557,-1675 557,-1675 557,-1681 551,-1687 545,-1687"/>
<text text-anchor="middle" x="455.5" y="-1665.3" font-family="Times,serif" font-size="14.00">firewall_champion_barrier</text>
</g>
<!-- firewall_rookie&#45;&gt;firewall_champion_barrier -->
<g id="edge85" class="edge">
<title>firewall_rookie&#45;&gt;firewall_champion_barrier</title>
<path fill="none" stroke="#7e57c2" d="M303.56,-1707.07C317.48,-1703.4 332.25,-1699.53 346,-1696 354.33,-1693.86 363.03,-1691.65 371.72,-1689.46"/>
<polygon fill="#7e57c2" stroke="#7e57c2" points="372.66,-1692.84 381.51,-1687.01 370.96,-1686.05 372.66,-1692.84"/>
</g>
<!-- firewall_champion_counter -->
<g id="node47" class="node">
<title>firewall_champion_counter</title>
<path fill="#ff8a65" stroke="black" d="M547,-1795C547,-1795 364,-1795 364,-1795 358,-1795 352,-1789 352,-1783 352,-1783 352,-1771 352,-1771 352,-1765 358,-1759 364,-1759 364,-1759 547,-1759 547,-1759 553,-1759 559,-1765 559,-1771 559,-1771 559,-1783 559,-1783 559,-1789 553,-1795 547,-1795"/>
<text text-anchor="middle" x="455.5" y="-1773.3" font-family="Times,serif" font-size="14.00">firewall_champion_counter</text>
</g>
<!-- firewall_rookie&#45;&gt;firewall_champion_counter -->
<g id="edge86" class="edge">
<title>firewall_rookie&#45;&gt;firewall_champion_counter</title>
<path fill="none" stroke="#7e57c2" d="M303.56,-1738.93C317.48,-1742.6 332.25,-1746.47 346,-1750 354.33,-1752.14 363.03,-1754.35 371.72,-1756.54"/>
<polygon fill="#7e57c2" stroke="#7e57c2" points="370.96,-1759.95 381.51,-1758.99 372.66,-1753.16 370.96,-1759.95"/>
</g>
<!-- firewall_champion_patch -->
<g id="node48" class="node">
<title>firewall_champion_patch</title>
<path fill="#ff8a65" stroke="black" d="M539.5,-1741C539.5,-1741 371.5,-1741 371.5,-1741 365.5,-1741 359.5,-1735 359.5,-1729 359.5,-1729 359.5,-1717 359.5,-1717 359.5,-1711 365.5,-1705 371.5,-1705 371.5,-1705 539.5,-1705 539.5,-1705 545.5,-1705 551.5,-1711 551.5,-1717 551.5,-1717 551.5,-1729 551.5,-1729 551.5,-1735 545.5,-1741 539.5,-1741"/>
<text text-anchor="middle" x="455.5" y="-1719.3" font-family="Times,serif" font-size="14.00">firewall_champion_patch</text>
</g>
<!-- firewall_rookie&#45;&gt;firewall_champion_patch -->
<g id="edge87" class="edge">
<title>firewall_rookie&#45;&gt;firewall_champion_patch</title>
<path fill="none" stroke="#7e57c2" d="M303.76,-1723C317.92,-1723 333.43,-1723 348.96,-1723"/>
<polygon fill="#7e57c2" stroke="#7e57c2" points="349.15,-1726.5 359.15,-1723 349.15,-1719.5 349.15,-1726.5"/>
</g>
<!-- firewall_final_fortress -->
<g id="node79" class="node">
<title>firewall_final_fortress</title>
<path fill="lightgrey" stroke="black" d="M773,-1687C773,-1687 627,-1687 627,-1687 621,-1687 615,-1681 615,-1675 615,-1675 615,-1663 615,-1663 615,-1657 621,-1651 627,-1651 627,-1651 773,-1651 773,-1651 779,-1651 785,-1657 785,-1663 785,-1663 785,-1675 785,-1675 785,-1681 779,-1687 773,-1687"/>
<text text-anchor="middle" x="700" y="-1665.3" font-family="Times,serif" font-size="14.00">firewall_final_fortress</text>
</g>
<!-- firewall_champion_barrier&#45;&gt;firewall_final_fortress -->
<g id="edge88" class="edge">
<title>firewall_champion_barrier&#45;&gt;firewall_final_fortress</title>
<path fill="none" stroke="#7e57c2" d="M557.24,-1669C572.93,-1669 589.09,-1669 604.63,-1669"/>
<polygon fill="#7e57c2" stroke="#7e57c2" points="604.75,-1672.5 614.75,-1669 604.75,-1665.5 604.75,-1672.5"/>
</g>
<!-- firewall_final_protocol -->
<g id="node80" class="node">
<title>firewall_final_protocol</title>
<path fill="lightgrey" stroke="black" d="M774.5,-1741C774.5,-1741 625.5,-1741 625.5,-1741 619.5,-1741 613.5,-1735 613.5,-1729 613.5,-1729 613.5,-1717 613.5,-1717 613.5,-1711 619.5,-1705 625.5,-1705 625.5,-1705 774.5,-1705 774.5,-1705 780.5,-1705 786.5,-1711 786.5,-1717 786.5,-1717 786.5,-1729 786.5,-1729 786.5,-1735 780.5,-1741 774.5,-1741"/>
<text text-anchor="middle" x="700" y="-1719.3" font-family="Times,serif" font-size="14.00">firewall_final_protocol</text>
</g>
<!-- firewall_champion_barrier&#45;&gt;firewall_final_protocol -->
<g id="edge89" class="edge">
<title>firewall_champion_barrier&#45;&gt;firewall_final_protocol</title>
<path fill="none" stroke="#7e57c2" d="M537.59,-1687.06C560.24,-1692.1 584.99,-1697.61 608.17,-1702.77"/>
<polygon fill="#7e57c2" stroke="#7e57c2" points="607.47,-1706.2 617.99,-1704.96 608.99,-1699.37 607.47,-1706.2"/>
</g>
<!-- firewall_champion_counter&#45;&gt;firewall_final_protocol -->
<g id="edge91" class="edge">
<title>firewall_champion_counter&#45;&gt;firewall_final_protocol</title>
<path fill="none" stroke="#7e57c2" d="M537.59,-1758.94C560.24,-1753.9 584.99,-1748.39 608.17,-1743.23"/>
<polygon fill="#7e57c2" stroke="#7e57c2" points="608.99,-1746.63 617.99,-1741.04 607.47,-1739.8 608.99,-1746.63"/>
</g>
<!-- firewall_final_retaliate -->
<g id="node81" class="node">
<title>firewall_final_retaliate</title>
<path fill="lightgrey" stroke="black" d="M775.5,-1795C775.5,-1795 624.5,-1795 624.5,-1795 618.5,-1795 612.5,-1789 612.5,-1783 612.5,-1783 612.5,-1771 612.5,-1771 612.5,-1765 618.5,-1759 624.5,-1759 624.5,-1759 775.5,-1759 775.5,-1759 781.5,-1759 787.5,-1765 787.5,-1771 787.5,-1771 787.5,-1783 787.5,-1783 787.5,-1789 781.5,-1795 775.5,-1795"/>
<text text-anchor="middle" x="700" y="-1773.3" font-family="Times,serif" font-size="14.00">firewall_final_retaliate</text>
</g>
<!-- firewall_champion_counter&#45;&gt;firewall_final_retaliate -->
<g id="edge90" class="edge">
<title>firewall_champion_counter&#45;&gt;firewall_final_retaliate</title>
<path fill="none" stroke="#7e57c2" d="M559.34,-1777C573.57,-1777 588.15,-1777 602.27,-1777"/>
<polygon fill="#7e57c2" stroke="#7e57c2" points="602.45,-1780.5 612.45,-1777 602.45,-1773.5 602.45,-1780.5"/>
</g>
<!-- firewall_champion_patch&#45;&gt;firewall_final_fortress -->
<g id="edge93" class="edge">
<title>firewall_champion_patch&#45;&gt;firewall_final_fortress</title>
<path fill="none" stroke="#7e57c2" d="M537.59,-1704.94C560.24,-1699.9 584.99,-1694.39 608.17,-1689.23"/>
<polygon fill="#7e57c2" stroke="#7e57c2" points="608.99,-1692.63 617.99,-1687.04 607.47,-1685.8 608.99,-1692.63"/>
</g>
<!-- firewall_champion_patch&#45;&gt;firewall_final_protocol -->
<g id="edge92" class="edge">
<title>firewall_champion_patch&#45;&gt;firewall_final_protocol</title>
<path fill="none" stroke="#7e57c2" d="M551.65,-1723C568.46,-1723 585.97,-1723 602.81,-1723"/>
<polygon fill="#7e57c2" stroke="#7e57c2" points="603.2,-1726.5 613.2,-1723 603.2,-1719.5 603.2,-1726.5"/>
</g>
<!-- echo_baby -->
<g id="node49" class="node">
<title>echo_baby</title>
<path fill="#ba68c8" stroke="black" d="M111.5,-1932C111.5,-1932 44.5,-1932 44.5,-1932 38.5,-1932 32.5,-1926 32.5,-1920 32.5,-1920 32.5,-1908 32.5,-1908 32.5,-1902 38.5,-1896 44.5,-1896 44.5,-1896 111.5,-1896 111.5,-1896 117.5,-1896 123.5,-1902 123.5,-1908 123.5,-1908 123.5,-1920 123.5,-1920 123.5,-1926 117.5,-1932 111.5,-1932"/>
<text text-anchor="middle" x="78" y="-1910.3" font-family="Times,serif" font-size="14.00">echo_baby</text>
</g>
<!-- echo_rookie -->
<g id="node50" class="node">
<title>echo_rookie</title>
<path fill="#ba68c8" stroke="black" d="M281.5,-1932C281.5,-1932 204.5,-1932 204.5,-1932 198.5,-1932 192.5,-1926 192.5,-1920 192.5,-1920 192.5,-1908 192.5,-1908 192.5,-1902 198.5,-1896 204.5,-1896 204.5,-1896 281.5,-1896 281.5,-1896 287.5,-1896 293.5,-1902 293.5,-1908 293.5,-1908 293.5,-1920 293.5,-1920 293.5,-1926 287.5,-1932 281.5,-1932"/>
<text text-anchor="middle" x="243" y="-1910.3" font-family="Times,serif" font-size="14.00">echo_rookie</text>
</g>
<!-- echo_baby&#45;&gt;echo_rookie -->
<g id="edge94" class="edge">
<title>echo_baby&#45;&gt;echo_rookie</title>
<path fill="none" stroke="black" d="M123.54,-1914C141.6,-1914 162.73,-1914 182.1,-1914"/>
<polygon fill="black" stroke="black" points="182.35,-1917.5 192.35,-1914 182.35,-1910.5 182.35,-1917.5"/>
</g>
<!-- echo_champion_resonate -->
<g id="node51" class="node">
<title>echo_champion_resonate</title>
<path fill="#ba68c8" stroke="black" d="M540.5,-1932C540.5,-1932 370.5,-1932 370.5,-1932 364.5,-1932 358.5,-1926 358.5,-1920 358.5,-1920 358.5,-1908 358.5,-1908 358.5,-1902 364.5,-1896 370.5,-1896 370.5,-1896 540.5,-1896 540.5,-1896 546.5,-1896 552.5,-1902 552.5,-1908 552.5,-1908 552.5,-1920 552.5,-1920 552.5,-1926 546.5,-1932 540.5,-1932"/>
<text text-anchor="middle" x="455.5" y="-1910.3" font-family="Times,serif" font-size="14.00">echo_champion_resonate</text>
</g>
<!-- echo_rookie&#45;&gt;echo_champion_resonate -->
<g id="edge95" class="edge">
<title>echo_rookie&#45;&gt;echo_champion_resonate</title>
<path fill="none" stroke="#7e57c2" d="M293.62,-1914C310,-1914 328.91,-1914 347.87,-1914"/>
<polygon fill="#7e57c2" stroke="#7e57c2" points="348.09,-1917.5 358.09,-1914 348.09,-1910.5 348.09,-1917.5"/>
</g>
<!-- echo_champion_reverb -->
<g id="node52" class="node">
<title>echo_champion_reverb</title>
<path fill="#ba68c8" stroke="black" d="M533,-1986C533,-1986 378,-1986 378,-1986 372,-1986 366,-1980 366,-1974 366,-1974 366,-1962 366,-1962 366,-1956 372,-1950 378,-1950 378,-1950 533,-1950 533,-1950 539,-1950 545,-1956 545,-1962 545,-1962 545,-1974 545,-1974 545,-1980 539,-1986 533,-1986"/>
<text text-anchor="middle" x="455.5" y="-1964.3" font-family="Times,serif" font-size="14.00">echo_champion_reverb</text>
</g>
<!-- echo_rookie&#45;&gt;echo_champion_reverb -->
<g id="edge96" class="edge">
<title>echo_rookie&#45;&gt;echo_champion_reverb</title>
<path fill="none" stroke="#7e57c2" d="M293.51,-1927.26C310.17,-1931.69 328.88,-1936.6 346,-1941 354.33,-1943.14 363.03,-1945.35 371.72,-1947.54"/>
<polygon fill="#7e57c2" stroke="#7e57c2" points="370.96,-1950.95 381.51,-1949.99 372.66,-1944.16 370.96,-1950.95"/>
</g>
<!-- echo_champion_distort -->
<g id="node53" class="node">
<title>echo_champion_distort</title>
<path fill="#ba68c8" stroke="black" d="M533.5,-1878C533.5,-1878 377.5,-1878 377.5,-1878 371.5,-1878 365.5,-1872 365.5,-1866 365.5,-1866 365.5,-1854 365.5,-1854 365.5,-1848 371.5,-1842 377.5,-1842 377.5,-1842 533.5,-1842 533.5,-1842 539.5,-1842 545.5,-1848 545.5,-1854 545.5,-1854 545.5,-1866 545.5,-1866 545.5,-1872 539.5,-1878 533.5,-1878"/>
<text text-anchor="middle" x="455.5" y="-1856.3" font-family="Times,serif" font-size="14.00">echo_champion_distort</text>
</g>
<!-- echo_rookie&#45;&gt;echo_champion_distort -->
<g id="edge97" class="edge">
<title>echo_rookie&#45;&gt;echo_champion_distort</title>
<path fill="none" stroke="#7e57c2" d="M293.51,-1900.74C310.17,-1896.31 328.88,-1891.4 346,-1887 354.33,-1884.86 363.03,-1882.65 371.72,-1880.46"/>
<polygon fill="#7e57c2" stroke="#7e57c2" points="372.66,-1883.84 381.51,-1878.01 370.96,-1877.05 372.66,-1883.84"/>
</g>
<!-- echo_final_harmonic -->
<g id="node82" class="node">
<title>echo_final_harmonic</title>
<path fill="lightgrey" stroke="black" d="M768.5,-1959C768.5,-1959 631.5,-1959 631.5,-1959 625.5,-1959 619.5,-1953 619.5,-1947 619.5,-1947 619.5,-1935 619.5,-1935 619.5,-1929 625.5,-1923 631.5,-1923 631.5,-1923 768.5,-1923 768.5,-1923 774.5,-1923 780.5,-1929 780.5,-1935 780.5,-1935 780.5,-1947 780.5,-1947 780.5,-1953 774.5,-1959 768.5,-1959"/>
<text text-anchor="middle" x="700" y="-1937.3" font-family="Times,serif" font-size="14.00">echo_final_harmonic</text>
</g>
<!-- echo_champion_resonate&#45;&gt;echo_final_harmonic -->
<g id="edge98" class="edge">
<title>echo_champion_resonate&#45;&gt;echo_final_harmonic</title>
<path fill="none" stroke="#7e57c2" d="M552.69,-1924.71C571.32,-1926.78 590.78,-1928.95 609.2,-1931"/>
<polygon fill="#7e57c2" stroke="#7e57c2" points="608.99,-1934.5 619.31,-1932.13 609.76,-1927.54 608.99,-1934.5"/>
</g>
<!-- echo_final_feedback -->
<g id="node83" class="node">
<title>echo_final_feedback</title>
<path fill="lightgrey" stroke="black" d="M767,-1905C767,-1905 633,-1905 633,-1905 627,-1905 621,-1899 621,-1893 621,-1893 621,-1881 621,-1881 621,-1875 627,-1869 633,-1869 633,-1869 767,-1869 767,-1869 773,-1869 779,-1875 779,-1881 779,-1881 779,-1893 779,-1893 779,-1899 773,-1905 767,-1905"/>
<text text-anchor="middle" x="700" y="-1883.3" font-family="Times,serif" font-size="14.00">echo_final_feedback</text>
</g>
<!-- echo_champion_resonate&#45;&gt;echo_final_feedback -->
<g id="edge99" class="edge">
<title>echo_champion_resonate&#45;&gt;echo_final_feedback</title>
<path fill="none" stroke="#7e57c2" d="M552.69,-1903.29C571.86,-1901.16 591.9,-1898.92 610.78,-1896.82"/>
<polygon fill="#7e57c2" stroke="#7e57c2" points="611.29,-1900.29 620.84,-1895.7 610.51,-1893.33 611.29,-1900.29"/>
</g>
<!-- echo_champion_reverb&#45;&gt;echo_final_harmonic -->
<g id="edge101" class="edge">
<title>echo_champion_reverb&#45;&gt;echo_final_harmonic</title>
<path fill="none" stroke="#7e57c2" d="M545.08,-1958.14C566.01,-1955.81 588.34,-1953.32 609.32,-1950.99"/>
<polygon fill="#7e57c2" stroke="#7e57c2" points="609.94,-1954.44 619.49,-1949.85 609.17,-1947.48 609.94,-1954.44"/>
</g>
<!-- echo_champion_reverb&#45;&gt;echo_final_feedback -->
<g id="edge100" class="edge">
<title>echo_champion_reverb&#45;&gt;echo_final_feedback</title>
<path fill="none" stroke="#7e57c2" d="M545.21,-1952.81C554.87,-1949.6 564.33,-1945.71 573,-1941 588.19,-1932.75 585.98,-1922.56 601,-1914 604.4,-1912.06 607.94,-1910.26 611.57,-1908.58"/>
<polygon fill="#7e57c2" stroke="#7e57c2" points="612.95,-1911.8 620.78,-1904.66 610.21,-1905.36 612.95,-1911.8"/>
</g>
<!-- echo_champion_distort&#45;&gt;echo_final_harmonic -->
<g id="edge103" class="edge">
<title>echo_champion_distort&#45;&gt;echo_final_harmonic</title>
<path fill="none" stroke="#7e57c2" d="M545.51,-1875.29C555.07,-1878.49 564.42,-1882.34 573,-1887 588.19,-1895.25 585.98,-1905.44 601,-1914 604.04,-1915.73 607.2,-1917.36 610.45,-1918.89"/>
<polygon fill="#7e57c2" stroke="#7e57c2" points="609.2,-1922.16 619.77,-1922.93 611.99,-1915.74 609.2,-1922.16"/>
</g>
<!-- echo_champion_distort&#45;&gt;echo_final_feedback -->
<g id="edge102" class="edge">
<title>echo_champion_distort&#45;&gt;echo_final_feedback</title>
<path fill="none" stroke="#7e57c2" d="M545.76,-1869.94C566.89,-1872.29 589.4,-1874.8 610.49,-1877.15"/>
<polygon fill="#7e57c2" stroke="#7e57c2" points="610.39,-1880.66 620.72,-1878.28 611.17,-1873.7 610.39,-1880.66"/>
</g>
</g>
</svg>
