<?xml version="1.0" encoding="UTF-8" standalone="no"?>
<!DOCTYPE svg PUBLIC "-//W3C//DTD SVG 1.1//EN"
 "http://www.w3.org/Graphics/SVG/1.1/DTD/svg11.dtd">
<!-- Generated by graphviz version 2.43.0 (0)
 -->
<!-- Title: EvolutionTree Pages: 1 -->
<svg width="807pt" height="2033pt"
 viewBox="0.00 0.00 807.00 2033.00" xmlns="http://www.w3.org/2000/svg" xmlns:xlink="http://www.w3.org/1999/xlink">
<g id="graph0" class="graph" transform="scale(1 1) rotate(0) translate(4 2029)">
<title>EvolutionTree</title>
<polygon fill="white" stroke="transparent" points="-4,4 -4,-2029 803,-2029 803,4 -4,4"/>
<g id="clust1" class="cluster">
<title>cluster_cloud</title>
<path fill="#f5f5f5" stroke="black" d="M34,-8C34,-8 541,-8 541,-8 547,-8 553,-14 553,-20 553,-20 553,-179 553,-179 553,-185 547,-191 541,-191 541,-191 34,-191 34,-191 28,-191 22,-185 22,-179 22,-179 22,-20 22,-20 22,-14 28,-8 34,-8"/>
<text text-anchor="middle" x="287.5" y="-175.8" font-family="Times,serif" font-size="14.00">CLOUD</text>
</g>
<g id="clust2" class="cluster">
<title>cluster_firewall</title>
<path fill="#f5f5f5" stroke="black" d="M26.5,-199C26.5,-199 555,-199 555,-199 561,-199 567,-205 567,-211 567,-211 567,-370 567,-370 567,-376 561,-382 555,-382 555,-382 26.5,-382 26.5,-382 20.5,-382 14.5,-376 14.5,-370 14.5,-370 14.5,-211 14.5,-211 14.5,-205 20.5,-199 26.5,-199"/>
<text text-anchor="middle" x="290.75" y="-366.8" font-family="Times,serif" font-size="14.00">FIREWALL</text>
</g>
<g id="clust3" class="cluster">
<title>cluster_core</title>
<path fill="#f5f5f5" stroke="black" d="M37.5,-402C37.5,-402 538.5,-402 538.5,-402 544.5,-402 550.5,-408 550.5,-414 550.5,-414 550.5,-573 550.5,-573 550.5,-579 544.5,-585 538.5,-585 538.5,-585 37.5,-585 37.5,-585 31.5,-585 25.5,-579 25.5,-573 25.5,-573 25.5,-414 25.5,-414 25.5,-408 31.5,-402 37.5,-402"/>
<text text-anchor="middle" x="288" y="-569.8" font-family="Times,serif" font-size="14.00">CORE</text>
</g>
<g id="clust4" class="cluster">
<title>cluster_pulse</title>
<path fill="#f5f5f5" stroke="black" d="M34,-593C34,-593 556.5,-593 556.5,-593 562.5,-593 568.5,-599 568.5,-605 568.5,-605 568.5,-764 568.5,-764 568.5,-770 562.5,-776 556.5,-776 556.5,-776 34,-776 34,-776 28,-776 22,-770 22,-764 22,-764 22,-605 22,-605 22,-599 28,-593 34,-593"/>
<text text-anchor="middle" x="295.25" y="-760.8" font-family="Times,serif" font-size="14.00">PULSE</text>
</g>
<g id="clust5" class="cluster">
<title>cluster_void</title>
<path fill="#f5f5f5" stroke="black" d="M38,-784C38,-784 544,-784 544,-784 550,-784 556,-790 556,-796 556,-796 556,-955 556,-955 556,-961 550,-967 544,-967 544,-967 38,-967 38,-967 32,-967 26,-961 26,-955 26,-955 26,-796 26,-796 26,-790 32,-784 38,-784"/>
<text text-anchor="middle" x="291" y="-951.8" font-family="Times,serif" font-size="14.00">VOID</text>
</g>
<g id="clust6" class="cluster">
<title>cluster_archive</title>
<path fill="#f5f5f5" stroke="black" d="M27,-975C27,-975 560.5,-975 560.5,-975 566.5,-975 572.5,-981 572.5,-987 572.5,-987 572.5,-1146 572.5,-1146 572.5,-1152 566.5,-1158 560.5,-1158 560.5,-1158 27,-1158 27,-1158 21,-1158 15,-1152 15,-1146 15,-1146 15,-987 15,-987 15,-981 21,-975 27,-975"/>
<text text-anchor="middle" x="293.75" y="-1142.8" font-family="Times,serif" font-size="14.00">ARCHIVE</text>
</g>
<g id="clust7" class="cluster">
<title>cluster_root</title>
<path fill="#f5f5f5" stroke="black" d="M38.5,-1166C38.5,-1166 537.5,-1166 537.5,-1166 543.5,-1166 549.5,-1172 549.5,-1178 549.5,-1178 549.5,-1337 549.5,-1337 549.5,-1343 543.5,-1349 537.5,-1349 537.5,-1349 38.5,-1349 38.5,-1349 32.5,-1349 26.5,-1343 26.5,-1337 26.5,-1337 26.5,-1178 26.5,-1178 26.5,-1172 32.5,-1166 38.5,-1166"/>
<text text-anchor="middle" x="288" y="-1333.8" font-family="Times,serif" font-size="14.00">ROOT</text>
</g>
<g id="clust8" class="cluster">
<title>cluster_corrupt</title>
<path fill="#f5f5f5" stroke="black" d="M26.5,-1369C26.5,-1369 559,-1369 559,-1369 565,-1369 571,-1375 571,-1381 571,-1381 571,-1540 571,-1540 571,-1546 565,-1552 559,-1552 559,-1552 26.5,-1552 26.5,-1552 20.5,-1552 14.5,-1546 14.5,-1540 14.5,-1540 14.5,-1381 14.5,-1381 14.5,-1375 20.5,-1369 26.5,-1369"/>
<text text-anchor="middle" x="292.75" y="-1536.8" font-family="Times,serif" font-size="14.00">CORRUPT</text>
</g>
<g id="clust9" class="cluster">
<title>cluster_dream</title>
<path fill="#f5f5f5" stroke="black" d="M30,-1560C30,-1560 561,-1560 561,-1560 567,-1560 573,-1566 573,-1572 573,-1572 573,-1731 573,-1731 573,-1737 567,-1743 561,-1743 561,-1743 30,-1743 30,-1743 24,-1743 18,-1737 18,-1731 18,-1731 18,-1572 18,-1572 18,-1566 24,-1560 30,-1560"/>
<text text-anchor="middle" x="295.5" y="-1727.8" font-family="Times,serif" font-size="14.00">DREAM</text>
</g>
<g id="clust10" class="cluster">
<title>cluster_echo</title>
<path fill="#f5f5f5" stroke="black" d="M36.5,-1751C36.5,-1751 548.5,-1751 548.5,-1751 554.5,-1751 560.5,-1757 560.5,-1763 560.5,-1763 560.5,-1922 560.5,-1922 560.5,-1928 554.5,-1934 548.5,-1934 548.5,-1934 36.5,-1934 36.5,-1934 30.5,-1934 24.5,-1928 24.5,-1922 24.5,-1922 24.5,-1763 24.5,-1763 24.5,-1757 30.5,-1751 36.5,-1751"/>
<text text-anchor="middle" x="292.5" y="-1918.8" font-family="Times,serif" font-size="14.00">ECHO</text>
</g>
<g id="clust11" class="cluster">
<title>cluster_codeborn</title>
<path fill="#f5f5f5" stroke="black" d="M20,-1942C20,-1942 530.5,-1942 530.5,-1942 536.5,-1942 542.5,-1948 542.5,-1954 542.5,-1954 542.5,-2005 542.5,-2005 542.5,-2011 536.5,-2017 530.5,-2017 530.5,-2017 20,-2017 20,-2017 14,-2017 8,-2011 8,-2005 8,-2005 8,-1954 8,-1954 8,-1948 14,-1942 20,-1942"/>
<text text-anchor="middle" x="275.25" y="-2001.8" font-family="Times,serif" font-size="14.00">CODEBORN</text>
</g>
<!-- cloud_baby -->
<g id="node1" class="node">
<title>cloud_baby</title>
<path fill="#90caf9" stroke="black" d="M114,-106C114,-106 42,-106 42,-106 36,-106 30,-100 30,-94 30,-94 30,-82 30,-82 30,-76 36,-70 42,-70 42,-70 114,-70 114,-70 120,-70 126,-76 126,-82 126,-82 126,-94 126,-94 126,-100 120,-106 114,-106"/>
<text text-anchor="middle" x="78" y="-84.3" font-family="Times,serif" font-size="14.00">cloud_baby</text>
</g>
<!-- cloud_rookie -->
<g id="node2" class="node">
<title>cloud_rookie</title>
<path fill="#90caf9" stroke="black" d="M284,-106C284,-106 202,-106 202,-106 196,-106 190,-100 190,-94 190,-94 190,-82 190,-82 190,-76 196,-70 202,-70 202,-70 284,-70 284,-70 290,-70 296,-76 296,-82 296,-82 296,-94 296,-94 296,-100 290,-106 284,-106"/>
<text text-anchor="middle" x="243" y="-84.3" font-family="Times,serif" font-size="14.00">cloud_rookie</text>
</g>
<!-- cloud_baby&#45;&gt;cloud_rookie -->
<g id="edge1" class="edge">
<title>cloud_baby&#45;&gt;cloud_rookie</title>
<path fill="none" stroke="black" d="M126.15,-88C142.81,-88 161.82,-88 179.55,-88"/>
<polygon fill="black" stroke="black" points="179.82,-91.5 189.82,-88 179.82,-84.5 179.82,-91.5"/>
</g>
<!-- cloud_champion_wind -->
<g id="node3" class="node">
<title>cloud_champion_wind</title>
<path fill="#90caf9" stroke="black" d="M529.5,-52C529.5,-52 381.5,-52 381.5,-52 375.5,-52 369.5,-46 369.5,-40 369.5,-40 369.5,-28 369.5,-28 369.5,-22 375.5,-16 381.5,-16 381.5,-16 529.5,-16 529.5,-16 535.5,-16 541.5,-22 541.5,-28 541.5,-28 541.5,-40 541.5,-40 541.5,-46 535.5,-52 529.5,-52"/>
<text text-anchor="middle" x="455.5" y="-30.3" font-family="Times,serif" font-size="14.00">cloud_champion_wind</text>
</g>
<!-- cloud_rookie&#45;&gt;cloud_champion_wind -->
<g id="edge2" class="edge">
<title>cloud_rookie&#45;&gt;cloud_champion_wind</title>
<path fill="none" stroke="#7e57c2" d="M296.11,-74.05C312.11,-69.81 329.77,-65.17 346,-61 354.33,-58.86 363.03,-56.65 371.72,-54.46"/>
<polygon fill="#7e57c2" stroke="#7e57c2" points="372.66,-57.84 381.51,-52.01 370.96,-51.05 372.66,-57.84"/>
</g>
<!-- cloud_champion_rain -->
<g id="node4" class="node">
<title>cloud_champion_rain</title>
<path fill="#90caf9" stroke="black" d="M526.5,-106C526.5,-106 384.5,-106 384.5,-106 378.5,-106 372.5,-100 372.5,-94 372.5,-94 372.5,-82 372.5,-82 372.5,-76 378.5,-70 384.5,-70 384.5,-70 526.5,-70 526.5,-70 532.5,-70 538.5,-76 538.5,-82 538.5,-82 538.5,-94 538.5,-94 538.5,-100 532.5,-106 526.5,-106"/>
<text text-anchor="middle" x="455.5" y="-84.3" font-family="Times,serif" font-size="14.00">cloud_champion_rain</text>
</g>
<!-- cloud_rookie&#45;&gt;cloud_champion_rain -->
<g id="edge3" class="edge">
<title>cloud_rookie&#45;&gt;cloud_champion_rain</title>
<path fill="none" stroke="#7e57c2" d="M296.03,-88C316.08,-88 339.62,-88 362.33,-88"/>
<polygon fill="#7e57c2" stroke="#7e57c2" points="362.35,-91.5 372.35,-88 362.35,-84.5 362.35,-91.5"/>
</g>
<!-- cloud_champion_storm -->
<g id="node5" class="node">
<title>cloud_champion_storm</title>
<path fill="#90caf9" stroke="black" d="M533,-160C533,-160 378,-160 378,-160 372,-160 366,-154 366,-148 366,-148 366,-136 366,-136 366,-130 372,-124 378,-124 378,-124 533,-124 533,-124 539,-124 545,-130 545,-136 545,-136 545,-148 545,-148 545,-154 539,-160 533,-160"/>
<text text-anchor="middle" x="455.5" y="-138.3" font-family="Times,serif" font-size="14.00">cloud_champion_storm</text>
</g>
<!-- cloud_rookie&#45;&gt;cloud_champion_storm -->
<g id="edge4" class="edge">
<title>cloud_rookie&#45;&gt;cloud_champion_storm</title>
<path fill="none" stroke="#7e57c2" d="M296.11,-101.95C312.11,-106.19 329.77,-110.83 346,-115 354.33,-117.14 363.03,-119.35 371.72,-121.54"/>
<polygon fill="#7e57c2" stroke="#7e57c2" points="370.96,-124.95 381.51,-123.99 372.66,-118.16 370.96,-124.95"/>
</g>
<!-- cloud_final_jetstream -->
<g id="node54" class="node">
<title>cloud_final_jetstream</title>
<path fill="lightgrey" stroke="black" d="M772,-106C772,-106 628,-106 628,-106 622,-106 616,-100 616,-94 616,-94 616,-82 616,-82 616,-76 622,-70 628,-70 628,-70 772,-70 772,-70 778,-70 784,-76 784,-82 784,-82 784,-94 784,-94 784,-100 778,-106 772,-106"/>
<text text-anchor="middle" x="700" y="-84.3" font-family="Times,serif" font-size="14.00">cloud_final_jetstream</text>
</g>
<!-- cloud_champion_wind&#45;&gt;cloud_final_jetstream -->
<g id="edge5" class="edge">
<title>cloud_champion_wind&#45;&gt;cloud_final_jetstream</title>
<path fill="none" stroke="#7e57c2" d="M537.59,-52.06C560.24,-57.1 584.99,-62.61 608.17,-67.77"/>
<polygon fill="#7e57c2" stroke="#7e57c2" points="607.47,-71.2 617.99,-69.96 608.99,-64.37 607.47,-71.2"/>
</g>
<!-- cloud_final_halo -->
<g id="node55" class="node">
<title>cloud_final_halo</title>
<path fill="lightgrey" stroke="black" d="M752.5,-52C752.5,-52 647.5,-52 647.5,-52 641.5,-52 635.5,-46 635.5,-40 635.5,-40 635.5,-28 635.5,-28 635.5,-22 641.5,-16 647.5,-16 647.5,-16 752.5,-16 752.5,-16 758.5,-16 764.5,-22 764.5,-28 764.5,-28 764.5,-40 764.5,-40 764.5,-46 758.5,-52 752.5,-52"/>
<text text-anchor="middle" x="700" y="-30.3" font-family="Times,serif" font-size="14.00">cloud_final_halo</text>
</g>
<!-- cloud_champion_wind&#45;&gt;cloud_final_halo -->
<g id="edge6" class="edge">
<title>cloud_champion_wind&#45;&gt;cloud_final_halo</title>
<path fill="none" stroke="#7e57c2" d="M541.66,-34C568.88,-34 598.78,-34 625.14,-34"/>
<polygon fill="#7e57c2" stroke="#7e57c2" points="625.43,-37.5 635.43,-34 625.43,-30.5 625.43,-37.5"/>
</g>
<!-- cloud_champion_rain&#45;&gt;cloud_final_halo -->
<g id="edge7" class="edge">
<title>cloud_champion_rain&#45;&gt;cloud_final_halo</title>
<path fill="none" stroke="#7e57c2" d="M537.59,-69.94C565.91,-63.64 597.54,-56.59 625.24,-50.43"/>
<polygon fill="#7e57c2" stroke="#7e57c2" points="626.25,-53.79 635.25,-48.2 624.73,-46.95 626.25,-53.79"/>
</g>
<!-- cloud_final_tempest -->
<g id="node56" class="node">
<title>cloud_final_tempest</title>
<path fill="lightgrey" stroke="black" d="M767,-160C767,-160 633,-160 633,-160 627,-160 621,-154 621,-148 621,-148 621,-136 621,-136 621,-130 627,-124 633,-124 633,-124 767,-124 767,-124 773,-124 779,-130 779,-136 779,-136 779,-148 779,-148 779,-154 773,-160 767,-160"/>
<text text-anchor="middle" x="700" y="-138.3" font-family="Times,serif" font-size="14.00">cloud_final_tempest</text>
</g>
<!-- cloud_champion_rain&#45;&gt;cloud_final_tempest -->
<g id="edge8" class="edge">
<title>cloud_champion_rain&#45;&gt;cloud_final_tempest</title>
<path fill="none" stroke="#7e57c2" d="M537.59,-106.06C561.18,-111.31 587.07,-117.08 611.07,-122.42"/>
<polygon fill="#7e57c2" stroke="#7e57c2" points="610.35,-125.84 620.87,-124.6 611.87,-119.01 610.35,-125.84"/>
</g>
<!-- cloud_champion_storm&#45;&gt;cloud_final_jetstream -->
<g id="edge10" class="edge">
<title>cloud_champion_storm&#45;&gt;cloud_final_jetstream</title>
<path fill="none" stroke="#7e57c2" d="M537.59,-123.94C560.24,-118.9 584.99,-113.39 608.17,-108.23"/>
<polygon fill="#7e57c2" stroke="#7e57c2" points="608.99,-111.63 617.99,-106.04 607.47,-104.8 608.99,-111.63"/>
</g>
<!-- cloud_champion_storm&#45;&gt;cloud_final_tempest -->
<g id="edge9" class="edge">
<title>cloud_champion_storm&#45;&gt;cloud_final_tempest</title>
<path fill="none" stroke="#7e57c2" d="M545.08,-142C566.45,-142 589.29,-142 610.65,-142"/>
<polygon fill="#7e57c2" stroke="#7e57c2" points="610.68,-145.5 620.68,-142 610.68,-138.5 610.68,-145.5"/>
</g>
<!-- firewall_baby -->
<g id="node6" class="node">
<title>firewall_baby</title>
<path fill="#ff8a65" stroke="black" d="M121.5,-297C121.5,-297 34.5,-297 34.5,-297 28.5,-297 22.5,-291 22.5,-285 22.5,-285 22.5,-273 22.5,-273 22.5,-267 28.5,-261 34.5,-261 34.5,-261 121.5,-261 121.5,-261 127.5,-261 133.5,-267 133.5,-273 133.5,-273 133.5,-285 133.5,-285 133.5,-291 127.5,-297 121.5,-297"/>
<text text-anchor="middle" x="78" y="-275.3" font-family="Times,serif" font-size="14.00">firewall_baby</text>
</g>
<!-- firewall_rookie -->
<g id="node7" class="node">
<title>firewall_rookie</title>
<path fill="#ff8a65" stroke="black" d="M291.5,-297C291.5,-297 194.5,-297 194.5,-297 188.5,-297 182.5,-291 182.5,-285 182.5,-285 182.5,-273 182.5,-273 182.5,-267 188.5,-261 194.5,-261 194.5,-261 291.5,-261 291.5,-261 297.5,-261 303.5,-267 303.5,-273 303.5,-273 303.5,-285 303.5,-285 303.5,-291 297.5,-297 291.5,-297"/>
<text text-anchor="middle" x="243" y="-275.3" font-family="Times,serif" font-size="14.00">firewall_rookie</text>
</g>
<!-- firewall_baby&#45;&gt;firewall_rookie -->
<g id="edge11" class="edge">
<title>firewall_baby&#45;&gt;firewall_rookie</title>
<path fill="none" stroke="black" d="M133.73,-279C146.06,-279 159.32,-279 172.17,-279"/>
<polygon fill="black" stroke="black" points="172.38,-282.5 182.38,-279 172.38,-275.5 172.38,-282.5"/>
</g>
<!-- firewall_champion_barrier -->
<g id="node8" class="node">
<title>firewall_champion_barrier</title>
<path fill="#ff8a65" stroke="black" d="M545,-243C545,-243 366,-243 366,-243 360,-243 354,-237 354,-231 354,-231 354,-219 354,-219 354,-213 360,-207 366,-207 366,-207 545,-207 545,-207 551,-207 557,-213 557,-219 557,-219 557,-231 557,-231 557,-237 551,-243 545,-243"/>
<text text-anchor="middle" x="455.5" y="-221.3" font-family="Times,serif" font-size="14.00">firewall_champion_barrier</text>
</g>
<!-- firewall_rookie&#45;&gt;firewall_champion_barrier -->
<g id="edge12" class="edge">
<title>firewall_rookie&#45;&gt;firewall_champion_barrier</title>
<path fill="none" stroke="#7e57c2" d="M303.56,-263.07C317.48,-259.4 332.25,-255.53 346,-252 354.33,-249.86 363.03,-247.65 371.72,-245.46"/>
<polygon fill="#7e57c2" stroke="#7e57c2" points="372.66,-248.84 381.51,-243.01 370.96,-242.05 372.66,-248.84"/>
</g>
<!-- firewall_champion_counter -->
<g id="node9" class="node">
<title>firewall_champion_counter</title>
<path fill="#ff8a65" stroke="black" d="M547,-351C547,-351 364,-351 364,-351 358,-351 352,-345 352,-339 352,-339 352,-327 352,-327 352,-321 358,-315 364,-315 364,-315 547,-315 547,-315 553,-315 559,-321 559,-327 559,-327 559,-339 559,-339 559,-345 553,-351 547,-351"/>
<text text-anchor="middle" x="455.5" y="-329.3" font-family="Times,serif" font-size="14.00">firewall_champion_counter</text>
</g>
<!-- firewall_rookie&#45;&gt;firewall_champion_counter -->
<g id="edge13" class="edge">
<title>firewall_rookie&#45;&gt;firewall_champion_counter</title>
<path fill="none" stroke="#7e57c2" d="M303.56,-294.93C317.48,-298.6 332.25,-302.47 346,-306 354.33,-308.14 363.03,-310.35 371.72,-312.54"/>
<polygon fill="#7e57c2" stroke="#7e57c2" points="370.96,-315.95 381.51,-314.99 372.66,-309.16 370.96,-315.95"/>
</g>
<!-- firewall_champion_patch -->
<g id="node10" class="node">
<title>firewall_champion_patch</title>
<path fill="#ff8a65" stroke="black" d="M539.5,-297C539.5,-297 371.5,-297 371.5,-297 365.5,-297 359.5,-291 359.5,-285 359.5,-285 359.5,-273 359.5,-273 359.5,-267 365.5,-261 371.5,-261 371.5,-261 539.5,-261 539.5,-261 545.5,-261 551.5,-267 551.5,-273 551.5,-273 551.5,-285 551.5,-285 551.5,-291 545.5,-297 539.5,-297"/>
<text text-anchor="middle" x="455.5" y="-275.3" font-family="Times,serif" font-size="14.00">firewall_champion_patch</text>
</g>
<!-- firewall_rookie&#45;&gt;firewall_champion_patch -->
<g id="edge14" class="edge">
<title>firewall_rookie&#45;&gt;firewall_champion_patch</title>
<path fill="none" stroke="#7e57c2" d="M303.76,-279C317.92,-279 333.43,-279 348.96,-279"/>
<polygon fill="#7e57c2" stroke="#7e57c2" points="349.15,-282.5 359.15,-279 349.15,-275.5 349.15,-282.5"/>
</g>
<!-- firewall_final_fortress -->
<g id="node57" class="node">
<title>firewall_final_fortress</title>
<path fill="lightgrey" stroke="black" d="M773,-243C773,-243 627,-243 627,-243 621,-243 615,-237 615,-231 615,-231 615,-219 615,-219 615,-213 621,-207 627,-207 627,-207 773,-207 773,-207 779,-207 785,-213 785,-219 785,-219 785,-231 785,-231 785,-237 779,-243 773,-243"/>
<text text-anchor="middle" x="700" y="-221.3" font-family="Times,serif" font-size="14.00">firewall_final_fortress</text>
</g>
<!-- firewall_champion_barrier&#45;&gt;firewall_final_fortress -->
<g id="edge15" class="edge">
<title>firewall_champion_barrier&#45;&gt;firewall_final_fortress</title>
<path fill="none" stroke="#7e57c2" d="M557.24,-225C572.93,-225 589.09,-225 604.63,-225"/>
<polygon fill="#7e57c2" stroke="#7e57c2" points="604.75,-228.5 614.75,-225 604.75,-221.5 604.75,-228.5"/>
</g>
<!-- firewall_final_protocol -->
<g id="node58" class="node">
<title>firewall_final_protocol</title>
<path fill="lightgrey" stroke="black" d="M774.5,-297C774.5,-297 625.5,-297 625.5,-297 619.5,-297 613.5,-291 613.5,-285 613.5,-285 613.5,-273 613.5,-273 613.5,-267 619.5,-261 625.5,-261 625.5,-261 774.5,-261 774.5,-261 780.5,-261 786.5,-267 786.5,-273 786.5,-273 786.5,-285 786.5,-285 786.5,-291 780.5,-297 774.5,-297"/>
<text text-anchor="middle" x="700" y="-275.3" font-family="Times,serif" font-size="14.00">firewall_final_protocol</text>
</g>
<!-- firewall_champion_barrier&#45;&gt;firewall_final_protocol -->
<g id="edge16" class="edge">
<title>firewall_champion_barrier&#45;&gt;firewall_final_protocol</title>
<path fill="none" stroke="#7e57c2" d="M537.59,-243.06C560.24,-248.1 584.99,-253.61 608.17,-258.77"/>
<polygon fill="#7e57c2" stroke="#7e57c2" points="607.47,-262.2 617.99,-260.96 608.99,-255.37 607.47,-262.2"/>
</g>
<!-- firewall_champion_counter&#45;&gt;firewall_final_protocol -->
<g id="edge18" class="edge">
<title>firewall_champion_counter&#45;&gt;firewall_final_protocol</title>
<path fill="none" stroke="#7e57c2" d="M537.59,-314.94C560.24,-309.9 584.99,-304.39 608.17,-299.23"/>
<polygon fill="#7e57c2" stroke="#7e57c2" points="608.99,-302.63 617.99,-297.04 607.47,-295.8 608.99,-302.63"/>
</g>
<!-- firewall_final_retaliate -->
<g id="node59" class="node">
<title>firewall_final_retaliate</title>
<path fill="lightgrey" stroke="black" d="M775.5,-351C775.5,-351 624.5,-351 624.5,-351 618.5,-351 612.5,-345 612.5,-339 612.5,-339 612.5,-327 612.5,-327 612.5,-321 618.5,-315 624.5,-315 624.5,-315 775.5,-315 775.5,-315 781.5,-315 787.5,-321 787.5,-327 787.5,-327 787.5,-339 787.5,-339 787.5,-345 781.5,-351 775.5,-351"/>
<text text-anchor="middle" x="700" y="-329.3" font-family="Times,serif" font-size="14.00">firewall_final_retaliate</text>
</g>
<!-- firewall_champion_counter&#45;&gt;firewall_final_retaliate -->
<g id="edge17" class="edge">
<title>firewall_champion_counter&#45;&gt;firewall_final_retaliate</title>
<path fill="none" stroke="#7e57c2" d="M559.34,-333C573.57,-333 588.15,-333 602.27,-333"/>
<polygon fill="#7e57c2" stroke="#7e57c2" points="602.45,-336.5 612.45,-333 602.45,-329.5 602.45,-336.5"/>
</g>
<!-- firewall_champion_patch&#45;&gt;firewall_final_fortress -->
<g id="edge20" class="edge">
<title>firewall_champion_patch&#45;&gt;firewall_final_fortress</title>
<path fill="none" stroke="#7e57c2" d="M537.59,-260.94C560.24,-255.9 584.99,-250.39 608.17,-245.23"/>
<polygon fill="#7e57c2" stroke="#7e57c2" points="608.99,-248.63 617.99,-243.04 607.47,-241.8 608.99,-248.63"/>
</g>
<!-- firewall_champion_patch&#45;&gt;firewall_final_protocol -->
<g id="edge19" class="edge">
<title>firewall_champion_patch&#45;&gt;firewall_final_protocol</title>
<path fill="none" stroke="#7e57c2" d="M551.65,-279C568.46,-279 585.97,-279 602.81,-279"/>
<polygon fill="#7e57c2" stroke="#7e57c2" points="603.2,-282.5 613.2,-279 603.2,-275.5 603.2,-282.5"/>
</g>
<!-- core_baby -->
<g id="node11" class="node">
<title>core_baby</title>
<path fill="#4fc3f7" stroke="black" d="M110.5,-500C110.5,-500 45.5,-500 45.5,-500 39.5,-500 33.5,-494 33.5,-488 33.5,-488 33.5,-476 33.5,-476 33.5,-470 39.5,-464 45.5,-464 45.5,-464 110.5,-464 110.5,-464 116.5,-464 122.5,-470 122.5,-476 122.5,-476 122.5,-488 122.5,-488 122.5,-494 116.5,-500 110.5,-500"/>
<text text-anchor="middle" x="78" y="-478.3" font-family="Times,serif" font-size="14.00">core_baby</text>
</g>
<!-- core_rookie -->
<g id="node12" class="node">
<title>core_rookie</title>
<path fill="#4fc3f7" stroke="black" d="M280,-500C280,-500 206,-500 206,-500 200,-500 194,-494 194,-488 194,-488 194,-476 194,-476 194,-470 200,-464 206,-464 206,-464 280,-464 280,-464 286,-464 292,-470 292,-476 292,-476 292,-488 292,-488 292,-494 286,-500 280,-500"/>
<text text-anchor="middle" x="243" y="-478.3" font-family="Times,serif" font-size="14.00">core_rookie</text>
</g>
<!-- core_baby&#45;&gt;core_rookie -->
<g id="edge21" class="edge">
<title>core_baby&#45;&gt;core_rookie</title>
<path fill="none" stroke="black" d="M122.68,-482C141.48,-482 163.72,-482 183.88,-482"/>
<polygon fill="black" stroke="black" points="183.9,-485.5 193.9,-482 183.9,-478.5 183.9,-485.5"/>
</g>
<!-- core_champion_power -->
<g id="node13" class="node">
<title>core_champion_power</title>
<path fill="#4fc3f7" stroke="black" d="M530.5,-446C530.5,-446 380.5,-446 380.5,-446 374.5,-446 368.5,-440 368.5,-434 368.5,-434 368.5,-422 368.5,-422 368.5,-416 374.5,-410 380.5,-410 380.5,-410 530.5,-410 530.5,-410 536.5,-410 542.5,-416 542.5,-422 542.5,-422 542.5,-434 542.5,-434 542.5,-440 536.5,-446 530.5,-446"/>
<text text-anchor="middle" x="455.5" y="-424.3" font-family="Times,serif" font-size="14.00">core_champion_power</text>
</g>
<!-- core_rookie&#45;&gt;core_champion_power -->
<g id="edge22" class="edge">
<title>core_rookie&#45;&gt;core_champion_power</title>
<path fill="none" stroke="#7e57c2" d="M292.22,-469.08C309.2,-464.57 328.43,-459.51 346,-455 354.33,-452.86 363.03,-450.65 371.72,-448.46"/>
<polygon fill="#7e57c2" stroke="#7e57c2" points="372.66,-451.84 381.51,-446.01 370.96,-445.05 372.66,-451.84"/>
</g>
<!-- core_champion_guard -->
<g id="node14" class="node">
<title>core_champion_guard</title>
<path fill="#4fc3f7" stroke="black" d="M529.5,-554C529.5,-554 381.5,-554 381.5,-554 375.5,-554 369.5,-548 369.5,-542 369.5,-542 369.5,-530 369.5,-530 369.5,-524 375.5,-518 381.5,-518 381.5,-518 529.5,-518 529.5,-518 535.5,-518 541.5,-524 541.5,-530 541.5,-530 541.5,-542 541.5,-542 541.5,-548 535.5,-554 529.5,-554"/>
<text text-anchor="middle" x="455.5" y="-532.3" font-family="Times,serif" font-size="14.00">core_champion_guard</text>
</g>
<!-- core_rookie&#45;&gt;core_champion_guard -->
<g id="edge23" class="edge">
<title>core_rookie&#45;&gt;core_champion_guard</title>
<path fill="none" stroke="#7e57c2" d="M292.22,-494.92C309.2,-499.43 328.43,-504.49 346,-509 354.33,-511.14 363.03,-513.35 371.72,-515.54"/>
<polygon fill="#7e57c2" stroke="#7e57c2" points="370.96,-518.95 381.51,-517.99 372.66,-512.16 370.96,-518.95"/>
</g>
<!-- core_champion_speed -->
<g id="node15" class="node">
<title>core_champion_speed</title>
<path fill="#4fc3f7" stroke="black" d="M529.5,-500C529.5,-500 381.5,-500 381.5,-500 375.5,-500 369.5,-494 369.5,-488 369.5,-488 369.5,-476 369.5,-476 369.5,-470 375.5,-464 381.5,-464 381.5,-464 529.5,-464 529.5,-464 535.5,-464 541.5,-470 541.5,-476 541.5,-476 541.5,-488 541.5,-488 541.5,-494 535.5,-500 529.5,-500"/>
<text text-anchor="middle" x="455.5" y="-478.3" font-family="Times,serif" font-size="14.00">core_champion_speed</text>
</g>
<!-- core_rookie&#45;&gt;core_champion_speed -->
<g id="edge24" class="edge">
<title>core_rookie&#45;&gt;core_champion_speed</title>
<path fill="none" stroke="#7e57c2" d="M292.03,-482C312.01,-482 335.94,-482 359.21,-482"/>
<polygon fill="#7e57c2" stroke="#7e57c2" points="359.48,-485.5 369.48,-482 359.48,-478.5 359.48,-485.5"/>
</g>
<!-- core_final_overclock -->
<g id="node60" class="node">
<title>core_final_overclock</title>
<path fill="lightgrey" stroke="black" d="M767.5,-413C767.5,-413 632.5,-413 632.5,-413 626.5,-413 620.5,-407 620.5,-401 620.5,-401 620.5,-389 620.5,-389 620.5,-383 626.5,-377 632.5,-377 632.5,-377 767.5,-377 767.5,-377 773.5,-377 779.5,-383 779.5,-389 779.5,-389 779.5,-401 779.5,-401 779.5,-407 773.5,-413 767.5,-413"/>
<text text-anchor="middle" x="700" y="-391.3" font-family="Times,serif" font-size="14.00">core_final_overclock</text>
</g>
<!-- core_champion_power&#45;&gt;core_final_overclock -->
<g id="edge25" class="edge">
<title>core_champion_power&#45;&gt;core_final_overclock</title>
<path fill="none" stroke="#7e57c2" d="M542.68,-416.27C564.64,-413.28 588.27,-410.07 610.35,-407.06"/>
<polygon fill="#7e57c2" stroke="#7e57c2" points="610.94,-410.52 620.38,-405.7 610,-403.58 610.94,-410.52"/>
</g>
<!-- core_final_prime -->
<g id="node61" class="node">
<title>core_final_prime</title>
<path fill="lightgrey" stroke="black" d="M755,-521C755,-521 645,-521 645,-521 639,-521 633,-515 633,-509 633,-509 633,-497 633,-497 633,-491 639,-485 645,-485 645,-485 755,-485 755,-485 761,-485 767,-491 767,-497 767,-497 767,-509 767,-509 767,-515 761,-521 755,-521"/>
<text text-anchor="middle" x="700" y="-499.3" font-family="Times,serif" font-size="14.00">core_final_prime</text>
</g>
<!-- core_champion_power&#45;&gt;core_final_prime -->
<g id="edge26" class="edge">
<title>core_champion_power&#45;&gt;core_final_prime</title>
<path fill="none" stroke="#7e57c2" d="M542.5,-443.62C553,-446.77 563.4,-450.53 573,-455 587.1,-461.56 587.04,-469.15 601,-476 608.02,-479.44 615.54,-482.5 623.19,-485.21"/>
<polygon fill="#7e57c2" stroke="#7e57c2" points="622.31,-488.61 632.9,-488.45 624.52,-481.97 622.31,-488.61"/>
</g>
<!-- core_champion_guard&#45;&gt;core_final_prime -->
<g id="edge28" class="edge">
<title>core_champion_guard&#45;&gt;core_final_prime</title>
<path fill="none" stroke="#7e57c2" d="M541.66,-524.41C568.04,-520.82 596.93,-516.89 622.68,-513.39"/>
<polygon fill="#7e57c2" stroke="#7e57c2" points="623.32,-516.83 632.75,-512.01 622.37,-509.9 623.32,-516.83"/>
</g>
<!-- core_final_bastion -->
<g id="node62" class="node">
<title>core_final_bastion</title>
<path fill="lightgrey" stroke="black" d="M760,-575C760,-575 640,-575 640,-575 634,-575 628,-569 628,-563 628,-563 628,-551 628,-551 628,-545 634,-539 640,-539 640,-539 760,-539 760,-539 766,-539 772,-545 772,-551 772,-551 772,-563 772,-563 772,-569 766,-575 760,-575"/>
<text text-anchor="middle" x="700" y="-553.3" font-family="Times,serif" font-size="14.00">core_final_bastion</text>
</g>
<!-- core_champion_guard&#45;&gt;core_final_bastion -->
<g id="edge27" class="edge">
<title>core_champion_guard&#45;&gt;core_final_bastion</title>
<path fill="none" stroke="#7e57c2" d="M541.66,-543.37C566.25,-545.5 593.03,-547.82 617.41,-549.93"/>
<polygon fill="#7e57c2" stroke="#7e57c2" points="617.43,-553.45 627.7,-550.83 618.04,-546.48 617.43,-553.45"/>
</g>
<!-- core_champion_speed&#45;&gt;core_final_prime -->
<g id="edge30" class="edge">
<title>core_champion_speed&#45;&gt;core_final_prime</title>
<path fill="none" stroke="#7e57c2" d="M541.66,-489.37C568.04,-491.66 596.93,-494.16 622.68,-496.39"/>
<polygon fill="#7e57c2" stroke="#7e57c2" points="622.49,-499.89 632.75,-497.26 623.09,-492.91 622.49,-499.89"/>
</g>
<!-- core_final_photon -->
<g id="node63" class="node">
<title>core_final_photon</title>
<path fill="lightgrey" stroke="black" d="M758.5,-467C758.5,-467 641.5,-467 641.5,-467 635.5,-467 629.5,-461 629.5,-455 629.5,-455 629.5,-443 629.5,-443 629.5,-437 635.5,-431 641.5,-431 641.5,-431 758.5,-431 758.5,-431 764.5,-431 770.5,-437 770.5,-443 770.5,-443 770.5,-455 770.5,-455 770.5,-461 764.5,-467 758.5,-467"/>
<text text-anchor="middle" x="700" y="-445.3" font-family="Times,serif" font-size="14.00">core_final_photon</text>
</g>
<!-- core_champion_speed&#45;&gt;core_final_photon -->
<g id="edge29" class="edge">
<title>core_champion_speed&#45;&gt;core_final_photon</title>
<path fill="none" stroke="#7e57c2" d="M541.66,-470.41C566.84,-466.98 594.32,-463.25 619.16,-459.86"/>
<polygon fill="#7e57c2" stroke="#7e57c2" points="619.83,-463.31 629.26,-458.49 618.88,-456.37 619.83,-463.31"/>
</g>
<!-- pulse_baby -->
<g id="node16" class="node">
<title>pulse_baby</title>
<path fill="#f06292" stroke="black" d="M114,-691C114,-691 42,-691 42,-691 36,-691 30,-685 30,-679 30,-679 30,-667 30,-667 30,-661 36,-655 42,-655 42,-655 114,-655 114,-655 120,-655 126,-661 126,-667 126,-667 126,-679 126,-679 126,-685 120,-691 114,-691"/>
<text text-anchor="middle" x="78" y="-669.3" font-family="Times,serif" font-size="14.00">pulse_baby</text>
</g>
<!-- pulse_rookie -->
<g id="node17" class="node">
<title>pulse_rookie</title>
<path fill="#f06292" stroke="black" d="M284,-691C284,-691 202,-691 202,-691 196,-691 190,-685 190,-679 190,-679 190,-667 190,-667 190,-661 196,-655 202,-655 202,-655 284,-655 284,-655 290,-655 296,-661 296,-667 296,-667 296,-679 296,-679 296,-685 290,-691 284,-691"/>
<text text-anchor="middle" x="243" y="-669.3" font-family="Times,serif" font-size="14.00">pulse_rookie</text>
</g>
<!-- pulse_baby&#45;&gt;pulse_rookie -->
<g id="edge31" class="edge">
<title>pulse_baby&#45;&gt;pulse_rookie</title>
<path fill="none" stroke="black" d="M126.15,-673C142.81,-673 161.82,-673 179.55,-673"/>
<polygon fill="black" stroke="black" points="179.82,-676.5 189.82,-673 179.82,-669.5 179.82,-676.5"/>
</g>
<!-- pulse_champion_surge -->
<g id="node18" class="node">
<title>pulse_champion_surge</title>
<path fill="#f06292" stroke="black" d="M532.5,-637C532.5,-637 378.5,-637 378.5,-637 372.5,-637 366.5,-631 366.5,-625 366.5,-625 366.5,-613 366.5,-613 366.5,-607 372.5,-601 378.5,-601 378.5,-601 532.5,-601 532.5,-601 538.5,-601 544.5,-607 544.5,-613 544.5,-613 544.5,-625 544.5,-625 544.5,-631 538.5,-637 532.5,-637"/>
<text text-anchor="middle" x="455.5" y="-615.3" font-family="Times,serif" font-size="14.00">pulse_champion_surge</text>
</g>
<!-- pulse_rookie&#45;&gt;pulse_champion_surge -->
<g id="edge32" class="edge">
<title>pulse_rookie&#45;&gt;pulse_champion_surge</title>
<path fill="none" stroke="#7e57c2" d="M296.11,-659.05C312.11,-654.81 329.77,-650.17 346,-646 354.33,-643.86 363.03,-641.65 371.72,-639.46"/>
<polygon fill="#7e57c2" stroke="#7e57c2" points="372.66,-642.84 381.51,-637.01 370.96,-636.05 372.66,-642.84"/>
</g>
<!-- pulse_champion_resonance -->
<g id="node19" class="node">
<title>pulse_champion_resonance</title>
<path fill="#f06292" stroke="black" d="M548.5,-691C548.5,-691 362.5,-691 362.5,-691 356.5,-691 350.5,-685 350.5,-679 350.5,-679 350.5,-667 350.5,-667 350.5,-661 356.5,-655 362.5,-655 362.5,-655 548.5,-655 548.5,-655 554.5,-655 560.5,-661 560.5,-667 560.5,-667 560.5,-679 560.5,-679 560.5,-685 554.5,-691 548.5,-691"/>
<text text-anchor="middle" x="455.5" y="-669.3" font-family="Times,serif" font-size="14.00">pulse_champion_resonance</text>
</g>
<!-- pulse_rookie&#45;&gt;pulse_champion_resonance -->
<g id="edge33" class="edge">
<title>pulse_rookie&#45;&gt;pulse_champion_resonance</title>
<path fill="none" stroke="#7e57c2" d="M296.03,-673C309.62,-673 324.8,-673 340.25,-673"/>
<polygon fill="#7e57c2" stroke="#7e57c2" points="340.43,-676.5 350.43,-673 340.43,-669.5 340.43,-676.5"/>
</g>
<!-- pulse_champion_static -->
<g id="node20" class="node">
<title>pulse_champion_static</title>
<path fill="#f06292" stroke="black" d="M532,-745C532,-745 379,-745 379,-745 373,-745 367,-739 367,-733 367,-733 367,-721 367,-721 367,-715 373,-709 379,-709 379,-709 532,-709 532,-709 538,-709 544,-715 544,-721 544,-721 544,-733 544,-733 544,-739 538,-745 532,-745"/>
<text text-anchor="middle" x="455.5" y="-723.3" font-family="Times,serif" font-size="14.00">pulse_champion_static</text>
</g>
<!-- pulse_rookie&#45;&gt;pulse_champion_static -->
<g id="edge34" class="edge">
<title>pulse_rookie&#45;&gt;pulse_champion_static</title>
<path fill="none" stroke="#7e57c2" d="M296.11,-686.95C312.11,-691.19 329.77,-695.83 346,-700 354.33,-702.14 363.03,-704.35 371.72,-706.54"/>
<polygon fill="#7e57c2" stroke="#7e57c2" points="370.96,-709.95 381.51,-708.99 372.66,-703.16 370.96,-709.95"/>
</g>
<!-- pulse_final_overdrive -->
<g id="node64" class="node">
<title>pulse_final_overdrive</title>
<path fill="lightgrey" stroke="black" d="M771.5,-691C771.5,-691 628.5,-691 628.5,-691 622.5,-691 616.5,-685 616.5,-679 616.5,-679 616.5,-667 616.5,-667 616.5,-661 622.5,-655 628.5,-655 628.5,-655 771.5,-655 771.5,-655 777.5,-655 783.5,-661 783.5,-667 783.5,-667 783.5,-679 783.5,-679 783.5,-685 777.5,-691 771.5,-691"/>
<text text-anchor="middle" x="700" y="-669.3" font-family="Times,serif" font-size="14.00">pulse_final_overdrive</text>
</g>
<!-- pulse_champion_surge&#45;&gt;pulse_final_overdrive -->
<g id="edge35" class="edge">
<title>pulse_champion_surge&#45;&gt;pulse_final_overdrive</title>
<path fill="none" stroke="#7e57c2" d="M537.59,-637.06C560.24,-642.1 584.99,-647.61 608.17,-652.77"/>
<polygon fill="#7e57c2" stroke="#7e57c2" points="607.47,-656.2 617.99,-654.96 608.99,-649.37 607.47,-656.2"/>
</g>
<!-- pulse_final_sync -->
<g id="node65" class="node">
<title>pulse_final_sync</title>
<path fill="lightgrey" stroke="black" d="M753.5,-637C753.5,-637 646.5,-637 646.5,-637 640.5,-637 634.5,-631 634.5,-625 634.5,-625 634.5,-613 634.5,-613 634.5,-607 640.5,-601 646.5,-601 646.5,-601 753.5,-601 753.5,-601 759.5,-601 765.5,-607 765.5,-613 765.5,-613 765.5,-625 765.5,-625 765.5,-631 759.5,-637 753.5,-637"/>
<text text-anchor="middle" x="700" y="-615.3" font-family="Times,serif" font-size="14.00">pulse_final_sync</text>
</g>
<!-- pulse_champion_surge&#45;&gt;pulse_final_sync -->
<g id="edge36" class="edge">
<title>pulse_champion_surge&#45;&gt;pulse_final_sync</title>
<path fill="none" stroke="#7e57c2" d="M544.73,-619C570.8,-619 599.07,-619 624.2,-619"/>
<polygon fill="#7e57c2" stroke="#7e57c2" points="624.4,-622.5 634.4,-619 624.4,-615.5 624.4,-622.5"/>
</g>
<!-- pulse_champion_resonance&#45;&gt;pulse_final_sync -->
<g id="edge37" class="edge">
<title>pulse_champion_resonance&#45;&gt;pulse_final_sync</title>
<path fill="none" stroke="#7e57c2" d="M537.59,-654.94C565.67,-648.69 596.99,-641.72 624.52,-635.59"/>
<polygon fill="#7e57c2" stroke="#7e57c2" points="625.47,-638.96 634.47,-633.37 623.95,-632.13 625.47,-638.96"/>
</g>
<!-- pulse_final_staticstorm -->
<g id="node66" class="node">
<title>pulse_final_staticstorm</title>
<path fill="lightgrey" stroke="black" d="M778.5,-745C778.5,-745 621.5,-745 621.5,-745 615.5,-745 609.5,-739 609.5,-733 609.5,-733 609.5,-721 609.5,-721 609.5,-715 615.5,-709 621.5,-709 621.5,-709 778.5,-709 778.5,-709 784.5,-709 790.5,-715 790.5,-721 790.5,-721 790.5,-733 790.5,-733 790.5,-739 784.5,-745 778.5,-745"/>
<text text-anchor="middle" x="700" y="-723.3" font-family="Times,serif" font-size="14.00">pulse_final_staticstorm</text>
</g>
<!-- pulse_champion_resonance&#45;&gt;pulse_final_staticstorm -->
<g id="edge38" class="edge">
<title>pulse_champion_resonance&#45;&gt;pulse_final_staticstorm</title>
<path fill="none" stroke="#7e57c2" d="M537.59,-691.06C560.24,-696.1 584.99,-701.61 608.17,-706.77"/>
<polygon fill="#7e57c2" stroke="#7e57c2" points="607.47,-710.2 617.99,-708.96 608.99,-703.37 607.47,-710.2"/>
</g>
<!-- pulse_champion_static&#45;&gt;pulse_final_overdrive -->
<g id="edge40" class="edge">
<title>pulse_champion_static&#45;&gt;pulse_final_overdrive</title>
<path fill="none" stroke="#7e57c2" d="M537.59,-708.94C560.24,-703.9 584.99,-698.39 608.17,-693.23"/>
<polygon fill="#7e57c2" stroke="#7e57c2" points="608.99,-696.63 617.99,-691.04 607.47,-689.8 608.99,-696.63"/>
</g>
<!-- pulse_champion_static&#45;&gt;pulse_final_staticstorm -->
<g id="edge39" class="edge">
<title>pulse_champion_static&#45;&gt;pulse_final_staticstorm</title>
<path fill="none" stroke="#7e57c2" d="M544.05,-727C561.91,-727 580.82,-727 599.07,-727"/>
<polygon fill="#7e57c2" stroke="#7e57c2" points="599.13,-730.5 609.13,-727 599.13,-723.5 599.13,-730.5"/>
</g>
<!-- void_baby -->
<g id="node21" class="node">
<title>void_baby</title>
<path fill="#b0bec5" stroke="black" d="M110,-882C110,-882 46,-882 46,-882 40,-882 34,-876 34,-870 34,-870 34,-858 34,-858 34,-852 40,-846 46,-846 46,-846 110,-846 110,-846 116,-846 122,-852 122,-858 122,-858 122,-870 122,-870 122,-876 116,-882 110,-882"/>
<text text-anchor="middle" x="78" y="-860.3" font-family="Times,serif" font-size="14.00">void_baby</text>
</g>
<!-- void_rookie -->
<g id="node22" class="node">
<title>void_rookie</title>
<path fill="#b0bec5" stroke="black" d="M280,-882C280,-882 206,-882 206,-882 200,-882 194,-876 194,-870 194,-870 194,-858 194,-858 194,-852 200,-846 206,-846 206,-846 280,-846 280,-846 286,-846 292,-852 292,-858 292,-858 292,-870 292,-870 292,-876 286,-882 280,-882"/>
<text text-anchor="middle" x="243" y="-860.3" font-family="Times,serif" font-size="14.00">void_rookie</text>
</g>
<!-- void_baby&#45;&gt;void_rookie -->
<g id="edge41" class="edge">
<title>void_baby&#45;&gt;void_rookie</title>
<path fill="none" stroke="black" d="M122.25,-864C141.13,-864 163.55,-864 183.86,-864"/>
<polygon fill="black" stroke="black" points="183.95,-867.5 193.95,-864 183.95,-860.5 183.95,-867.5"/>
</g>
<!-- void_champion_entropy -->
<g id="node23" class="node">
<title>void_champion_entropy</title>
<path fill="#b0bec5" stroke="black" d="M536,-936C536,-936 375,-936 375,-936 369,-936 363,-930 363,-924 363,-924 363,-912 363,-912 363,-906 369,-900 375,-900 375,-900 536,-900 536,-900 542,-900 548,-906 548,-912 548,-912 548,-924 548,-924 548,-930 542,-936 536,-936"/>
<text text-anchor="middle" x="455.5" y="-914.3" font-family="Times,serif" font-size="14.00">void_champion_entropy</text>
</g>
<!-- void_rookie&#45;&gt;void_champion_entropy -->
<g id="edge42" class="edge">
<title>void_rookie&#45;&gt;void_champion_entropy</title>
<path fill="none" stroke="#7e57c2" d="M292.22,-876.92C309.2,-881.43 328.43,-886.49 346,-891 354.33,-893.14 363.03,-895.35 371.72,-897.54"/>
<polygon fill="#7e57c2" stroke="#7e57c2" points="370.96,-900.95 381.51,-899.99 372.66,-894.16 370.96,-900.95"/>
</g>
<!-- void_champion_gravity -->
<g id="node24" class="node">
<title>void_champion_gravity</title>
<path fill="#b0bec5" stroke="black" d="M533.5,-828C533.5,-828 377.5,-828 377.5,-828 371.5,-828 365.5,-822 365.5,-816 365.5,-816 365.5,-804 365.5,-804 365.5,-798 371.5,-792 377.5,-792 377.5,-792 533.5,-792 533.5,-792 539.5,-792 545.5,-798 545.5,-804 545.5,-804 545.5,-816 545.5,-816 545.5,-822 539.5,-828 533.5,-828"/>
<text text-anchor="middle" x="455.5" y="-806.3" font-family="Times,serif" font-size="14.00">void_champion_gravity</text>
</g>
<!-- void_rookie&#45;&gt;void_champion_gravity -->
<g id="edge43" class="edge">
<title>void_rookie&#45;&gt;void_champion_gravity</title>
<path fill="none" stroke="#7e57c2" d="M292.22,-851.08C309.2,-846.57 328.43,-841.51 346,-837 354.33,-834.86 363.03,-832.65 371.72,-830.46"/>
<polygon fill="#7e57c2" stroke="#7e57c2" points="372.66,-833.84 381.51,-828.01 370.96,-827.05 372.66,-833.84"/>
</g>
<!-- void_champion_null -->
<g id="node25" class="node">
<title>void_champion_null</title>
<path fill="#b0bec5" stroke="black" d="M521.5,-882C521.5,-882 389.5,-882 389.5,-882 383.5,-882 377.5,-876 377.5,-870 377.5,-870 377.5,-858 377.5,-858 377.5,-852 383.5,-846 389.5,-846 389.5,-846 521.5,-846 521.5,-846 527.5,-846 533.5,-852 533.5,-858 533.5,-858 533.5,-870 533.5,-870 533.5,-876 527.5,-882 521.5,-882"/>
<text text-anchor="middle" x="455.5" y="-860.3" font-family="Times,serif" font-size="14.00">void_champion_null</text>
</g>
<!-- void_rookie&#45;&gt;void_champion_null -->
<g id="edge44" class="edge">
<title>void_rookie&#45;&gt;void_champion_null</title>
<path fill="none" stroke="#7e57c2" d="M292.03,-864C314.31,-864 341.51,-864 367.23,-864"/>
<polygon fill="#7e57c2" stroke="#7e57c2" points="367.38,-867.5 377.38,-864 367.38,-860.5 367.38,-867.5"/>
</g>
<!-- corrupt_final_glitch -->
<g id="node67" class="node">
<title>corrupt_final_glitch</title>
<path fill="lightgrey" stroke="black" d="M765.5,-936C765.5,-936 634.5,-936 634.5,-936 628.5,-936 622.5,-930 622.5,-924 622.5,-924 622.5,-912 622.5,-912 622.5,-906 628.5,-900 634.5,-900 634.5,-900 765.5,-900 765.5,-900 771.5,-900 777.5,-906 777.5,-912 777.5,-912 777.5,-924 777.5,-924 777.5,-930 771.5,-936 765.5,-936"/>
<text text-anchor="middle" x="700" y="-914.3" font-family="Times,serif" font-size="14.00">corrupt_final_glitch</text>
</g>
<!-- void_champion_entropy&#45;&gt;corrupt_final_glitch -->
<g id="edge45" class="edge">
<title>void_champion_entropy&#45;&gt;corrupt_final_glitch</title>
<path fill="none" stroke="#7e57c2" d="M548.18,-918C569.16,-918 591.39,-918 612.16,-918"/>
<polygon fill="#7e57c2" stroke="#7e57c2" points="612.22,-921.5 622.22,-918 612.22,-914.5 612.22,-921.5"/>
</g>
<!-- void_final_oblivion -->
<g id="node68" class="node">
<title>void_final_oblivion</title>
<path fill="lightgrey" stroke="black" d="M761.5,-882C761.5,-882 638.5,-882 638.5,-882 632.5,-882 626.5,-876 626.5,-870 626.5,-870 626.5,-858 626.5,-858 626.5,-852 632.5,-846 638.5,-846 638.5,-846 761.5,-846 761.5,-846 767.5,-846 773.5,-852 773.5,-858 773.5,-858 773.5,-870 773.5,-870 773.5,-876 767.5,-882 761.5,-882"/>
<text text-anchor="middle" x="700" y="-860.3" font-family="Times,serif" font-size="14.00">void_final_oblivion</text>
</g>
<!-- void_champion_entropy&#45;&gt;void_final_oblivion -->
<g id="edge46" class="edge">
<title>void_champion_entropy&#45;&gt;void_final_oblivion</title>
<path fill="none" stroke="#7e57c2" d="M537.59,-899.94C562.87,-894.31 590.78,-888.1 616.18,-882.44"/>
<polygon fill="#7e57c2" stroke="#7e57c2" points="617.15,-885.81 626.15,-880.22 615.63,-878.98 617.15,-885.81"/>
</g>
<!-- void_champion_gravity&#45;&gt;void_final_oblivion -->
<g id="edge48" class="edge">
<title>void_champion_gravity&#45;&gt;void_final_oblivion</title>
<path fill="none" stroke="#7e57c2" d="M537.59,-828.06C562.87,-833.69 590.78,-839.9 616.18,-845.56"/>
<polygon fill="#7e57c2" stroke="#7e57c2" points="615.63,-849.02 626.15,-847.78 617.15,-842.19 615.63,-849.02"/>
</g>
<!-- void_final_singularity -->
<g id="node69" class="node">
<title>void_final_singularity</title>
<path fill="lightgrey" stroke="black" d="M772,-828C772,-828 628,-828 628,-828 622,-828 616,-822 616,-816 616,-816 616,-804 616,-804 616,-798 622,-792 628,-792 628,-792 772,-792 772,-792 778,-792 784,-798 784,-804 784,-804 784,-816 784,-816 784,-822 778,-828 772,-828"/>
<text text-anchor="middle" x="700" y="-806.3" font-family="Times,serif" font-size="14.00">void_final_singularity</text>
</g>
<!-- void_champion_gravity&#45;&gt;void_final_singularity -->
<g id="edge47" class="edge">
<title>void_champion_gravity&#45;&gt;void_final_singularity</title>
<path fill="none" stroke="#7e57c2" d="M545.76,-810C565.32,-810 586.06,-810 605.76,-810"/>
<polygon fill="#7e57c2" stroke="#7e57c2" points="605.96,-813.5 615.96,-810 605.96,-806.5 605.96,-813.5"/>
</g>
<!-- void_champion_null&#45;&gt;void_final_oblivion -->
<g id="edge49" class="edge">
<title>void_champion_null&#45;&gt;void_final_oblivion</title>
<path fill="none" stroke="#7e57c2" d="M533.56,-864C559.88,-864 589.41,-864 616.16,-864"/>
<polygon fill="#7e57c2" stroke="#7e57c2" points="616.27,-867.5 626.27,-864 616.27,-860.5 616.27,-867.5"/>
</g>
<!-- void_champion_null&#45;&gt;void_final_singularity -->
<g id="edge50" class="edge">
<title>void_champion_null&#45;&gt;void_final_singularity</title>
<path fill="none" stroke="#7e57c2" d="M533.56,-846.84C557.21,-841.57 583.45,-835.73 607.94,-830.28"/>
<polygon fill="#7e57c2" stroke="#7e57c2" points="608.95,-833.64 617.95,-828.05 607.43,-826.8 608.95,-833.64"/>
</g>
<!-- archive_baby -->
<g id="node26" class="node">
<title>archive_baby</title>
<path fill="#ce93d8" stroke="black" d="M121,-1073C121,-1073 35,-1073 35,-1073 29,-1073 23,-1067 23,-1061 23,-1061 23,-1049 23,-1049 23,-1043 29,-1037 35,-1037 35,-1037 121,-1037 121,-1037 127,-1037 133,-1043 133,-1049 133,-1049 133,-1061 133,-1061 133,-1067 127,-1073 121,-1073"/>
<text text-anchor="middle" x="78" y="-1051.3" font-family="Times,serif" font-size="14.00">archive_baby</text>
</g>
<!-- archive_rookie -->
<g id="node27" class="node">
<title>archive_rookie</title>
<path fill="#ce93d8" stroke="black" d="M291,-1073C291,-1073 195,-1073 195,-1073 189,-1073 183,-1067 183,-1061 183,-1061 183,-1049 183,-1049 183,-1043 189,-1037 195,-1037 195,-1037 291,-1037 291,-1037 297,-1037 303,-1043 303,-1049 303,-1049 303,-1061 303,-1061 303,-1067 297,-1073 291,-1073"/>
<text text-anchor="middle" x="243" y="-1051.3" font-family="Times,serif" font-size="14.00">archive_rookie</text>
</g>
<!-- archive_baby&#45;&gt;archive_rookie -->
<g id="edge51" class="edge">
<title>archive_baby&#45;&gt;archive_rookie</title>
<path fill="none" stroke="black" d="M133.28,-1055C145.97,-1055 159.66,-1055 172.9,-1055"/>
<polygon fill="black" stroke="black" points="172.92,-1058.5 182.92,-1055 172.92,-1051.5 172.92,-1058.5"/>
</g>
<!-- archive_champion_logic -->
<g id="node28" class="node">
<title>archive_champion_logic</title>
<path fill="#ce93d8" stroke="black" d="M536,-1019C536,-1019 375,-1019 375,-1019 369,-1019 363,-1013 363,-1007 363,-1007 363,-995 363,-995 363,-989 369,-983 375,-983 375,-983 536,-983 536,-983 542,-983 548,-989 548,-995 548,-995 548,-1007 548,-1007 548,-1013 542,-1019 536,-1019"/>
<text text-anchor="middle" x="455.5" y="-997.3" font-family="Times,serif" font-size="14.00">archive_champion_logic</text>
</g>
<!-- archive_rookie&#45;&gt;archive_champion_logic -->
<g id="edge52" class="edge">
<title>archive_rookie&#45;&gt;archive_champion_logic</title>
<path fill="none" stroke="#7e57c2" d="M303.02,-1039.22C317.09,-1035.5 332.07,-1031.58 346,-1028 354.33,-1025.86 363.03,-1023.65 371.72,-1021.46"/>
<polygon fill="#7e57c2" stroke="#7e57c2" points="372.66,-1024.84 381.51,-1019.01 370.96,-1018.05 372.66,-1024.84"/>
</g>
<!-- archive_champion_index -->
<g id="node29" class="node">
<title>archive_champion_index</title>
<path fill="#ce93d8" stroke="black" d="M539,-1073C539,-1073 372,-1073 372,-1073 366,-1073 360,-1067 360,-1061 360,-1061 360,-1049 360,-1049 360,-1043 366,-1037 372,-1037 372,-1037 539,-1037 539,-1037 545,-1037 551,-1043 551,-1049 551,-1049 551,-1061 551,-1061 551,-1067 545,-1073 539,-1073"/>
<text text-anchor="middle" x="455.5" y="-1051.3" font-family="Times,serif" font-size="14.00">archive_champion_index</text>
</g>
<!-- archive_rookie&#45;&gt;archive_champion_index -->
<g id="edge53" class="edge">
<title>archive_rookie&#45;&gt;archive_champion_index</title>
<path fill="none" stroke="#7e57c2" d="M303.2,-1055C317.66,-1055 333.57,-1055 349.47,-1055"/>
<polygon fill="#7e57c2" stroke="#7e57c2" points="349.91,-1058.5 359.91,-1055 349.91,-1051.5 349.91,-1058.5"/>
</g>
<!-- archive_champion_fragment -->
<g id="node30" class="node">
<title>archive_champion_fragment</title>
<path fill="#ce93d8" stroke="black" d="M552.5,-1127C552.5,-1127 358.5,-1127 358.5,-1127 352.5,-1127 346.5,-1121 346.5,-1115 346.5,-1115 346.5,-1103 346.5,-1103 346.5,-1097 352.5,-1091 358.5,-1091 358.5,-1091 552.5,-1091 552.5,-1091 558.5,-1091 564.5,-1097 564.5,-1103 564.5,-1103 564.5,-1115 564.5,-1115 564.5,-1121 558.5,-1127 552.5,-1127"/>
<text text-anchor="middle" x="455.5" y="-1105.3" font-family="Times,serif" font-size="14.00">archive_champion_fragment</text>
</g>
<!-- archive_rookie&#45;&gt;archive_champion_fragment -->
<g id="edge54" class="edge">
<title>archive_rookie&#45;&gt;archive_champion_fragment</title>
<path fill="none" stroke="#7e57c2" d="M303.02,-1070.78C317.09,-1074.5 332.07,-1078.42 346,-1082 354.33,-1084.14 363.03,-1086.35 371.72,-1088.54"/>
<polygon fill="#7e57c2" stroke="#7e57c2" points="370.96,-1091.95 381.51,-1090.99 372.66,-1085.16 370.96,-1091.95"/>
</g>
<!-- archive_final_compiler -->
<g id="node70" class="node">
<title>archive_final_compiler</title>
<path fill="lightgrey" stroke="black" d="M776,-1073C776,-1073 624,-1073 624,-1073 618,-1073 612,-1067 612,-1061 612,-1061 612,-1049 612,-1049 612,-1043 618,-1037 624,-1037 624,-1037 776,-1037 776,-1037 782,-1037 788,-1043 788,-1049 788,-1049 788,-1061 788,-1061 788,-1067 782,-1073 776,-1073"/>
<text text-anchor="middle" x="700" y="-1051.3" font-family="Times,serif" font-size="14.00">archive_final_compiler</text>
</g>
<!-- archive_champion_logic&#45;&gt;archive_final_compiler -->
<g id="edge55" class="edge">
<title>archive_champion_logic&#45;&gt;archive_final_compiler</title>
<path fill="none" stroke="#7e57c2" d="M537.59,-1019.06C560.24,-1024.1 584.99,-1029.61 608.17,-1034.77"/>
<polygon fill="#7e57c2" stroke="#7e57c2" points="607.47,-1038.2 617.99,-1036.96 608.99,-1031.37 607.47,-1038.2"/>
</g>
<!-- archive_final_librarian -->
<g id="node71" class="node">
<title>archive_final_librarian</title>
<path fill="lightgrey" stroke="black" d="M775.5,-1019C775.5,-1019 624.5,-1019 624.5,-1019 618.5,-1019 612.5,-1013 612.5,-1007 612.5,-1007 612.5,-995 612.5,-995 612.5,-989 618.5,-983 624.5,-983 624.5,-983 775.5,-983 775.5,-983 781.5,-983 787.5,-989 787.5,-995 787.5,-995 787.5,-1007 787.5,-1007 787.5,-1013 781.5,-1019 775.5,-1019"/>
<text text-anchor="middle" x="700" y="-997.3" font-family="Times,serif" font-size="14.00">archive_final_librarian</text>
</g>
<!-- archive_champion_logic&#45;&gt;archive_final_librarian -->
<g id="edge56" class="edge">
<title>archive_champion_logic&#45;&gt;archive_final_librarian</title>
<path fill="none" stroke="#7e57c2" d="M548.18,-1001C565.78,-1001 584.27,-1001 602.03,-1001"/>
<polygon fill="#7e57c2" stroke="#7e57c2" points="602.4,-1004.5 612.4,-1001 602.4,-997.5 602.4,-1004.5"/>
</g>
<!-- archive_champion_index&#45;&gt;archive_final_librarian -->
<g id="edge57" class="edge">
<title>archive_champion_index&#45;&gt;archive_final_librarian</title>
<path fill="none" stroke="#7e57c2" d="M537.59,-1036.94C560.24,-1031.9 584.99,-1026.39 608.17,-1021.23"/>
<polygon fill="#7e57c2" stroke="#7e57c2" points="608.99,-1024.63 617.99,-1019.04 607.47,-1017.8 608.99,-1024.63"/>
</g>
<!-- archive_final_corrupt -->
<g id="node72" class="node">
<title>archive_final_corrupt</title>
<path fill="lightgrey" stroke="black" d="M771.5,-1127C771.5,-1127 628.5,-1127 628.5,-1127 622.5,-1127 616.5,-1121 616.5,-1115 616.5,-1115 616.5,-1103 616.5,-1103 616.5,-1097 622.5,-1091 628.5,-1091 628.5,-1091 771.5,-1091 771.5,-1091 777.5,-1091 783.5,-1097 783.5,-1103 783.5,-1103 783.5,-1115 783.5,-1115 783.5,-1121 777.5,-1127 771.5,-1127"/>
<text text-anchor="middle" x="700" y="-1105.3" font-family="Times,serif" font-size="14.00">archive_final_corrupt</text>
</g>
<!-- archive_champion_index&#45;&gt;archive_final_corrupt -->
<g id="edge58" class="edge">
<title>archive_champion_index&#45;&gt;archive_final_corrupt</title>
<path fill="none" stroke="#7e57c2" d="M537.59,-1073.06C560.24,-1078.1 584.99,-1083.61 608.17,-1088.77"/>
<polygon fill="#7e57c2" stroke="#7e57c2" points="607.47,-1092.2 617.99,-1090.96 608.99,-1085.37 607.47,-1092.2"/>
</g>
<!-- archive_champion_fragment&#45;&gt;archive_final_compiler -->
<g id="edge60" class="edge">
<title>archive_champion_fragment&#45;&gt;archive_final_compiler</title>
<path fill="none" stroke="#7e57c2" d="M537.59,-1090.94C560.24,-1085.9 584.99,-1080.39 608.17,-1075.23"/>
<polygon fill="#7e57c2" stroke="#7e57c2" points="608.99,-1078.63 617.99,-1073.04 607.47,-1071.8 608.99,-1078.63"/>
</g>
<!-- archive_champion_fragment&#45;&gt;archive_final_corrupt -->
<g id="edge59" class="edge">
<title>archive_champion_fragment&#45;&gt;archive_final_corrupt</title>
<path fill="none" stroke="#7e57c2" d="M564.63,-1109C578.42,-1109 592.44,-1109 605.96,-1109"/>
<polygon fill="#7e57c2" stroke="#7e57c2" points="606.19,-1112.5 616.19,-1109 606.19,-1105.5 606.19,-1112.5"/>
</g>
<!-- root_baby -->
<g id="node31" class="node">
<title>root_baby</title>
<path fill="#81c784" stroke="black" d="M109.5,-1264C109.5,-1264 46.5,-1264 46.5,-1264 40.5,-1264 34.5,-1258 34.5,-1252 34.5,-1252 34.5,-1240 34.5,-1240 34.5,-1234 40.5,-1228 46.5,-1228 46.5,-1228 109.5,-1228 109.5,-1228 115.5,-1228 121.5,-1234 121.5,-1240 121.5,-1240 121.5,-1252 121.5,-1252 121.5,-1258 115.5,-1264 109.5,-1264"/>
<text text-anchor="middle" x="78" y="-1242.3" font-family="Times,serif" font-size="14.00">root_baby</text>
</g>
<!-- root_rookie -->
<g id="node32" class="node">
<title>root_rookie</title>
<path fill="#81c784" stroke="black" d="M279.5,-1264C279.5,-1264 206.5,-1264 206.5,-1264 200.5,-1264 194.5,-1258 194.5,-1252 194.5,-1252 194.5,-1240 194.5,-1240 194.5,-1234 200.5,-1228 206.5,-1228 206.5,-1228 279.5,-1228 279.5,-1228 285.5,-1228 291.5,-1234 291.5,-1240 291.5,-1240 291.5,-1252 291.5,-1252 291.5,-1258 285.5,-1264 279.5,-1264"/>
<text text-anchor="middle" x="243" y="-1242.3" font-family="Times,serif" font-size="14.00">root_rookie</text>
</g>
<!-- root_baby&#45;&gt;root_rookie -->
<g id="edge61" class="edge">
<title>root_baby&#45;&gt;root_rookie</title>
<path fill="none" stroke="black" d="M121.83,-1246C140.87,-1246 163.58,-1246 184.1,-1246"/>
<polygon fill="black" stroke="black" points="184.29,-1249.5 194.29,-1246 184.29,-1242.5 184.29,-1249.5"/>
</g>
<!-- root_champion_thorn -->
<g id="node33" class="node">
<title>root_champion_thorn</title>
<path fill="#81c784" stroke="black" d="M527,-1210C527,-1210 384,-1210 384,-1210 378,-1210 372,-1204 372,-1198 372,-1198 372,-1186 372,-1186 372,-1180 378,-1174 384,-1174 384,-1174 527,-1174 527,-1174 533,-1174 539,-1180 539,-1186 539,-1186 539,-1198 539,-1198 539,-1204 533,-1210 527,-1210"/>
<text text-anchor="middle" x="455.5" y="-1188.3" font-family="Times,serif" font-size="14.00">root_champion_thorn</text>
</g>
<!-- root_rookie&#45;&gt;root_champion_thorn -->
<g id="edge62" class="edge">
<title>root_rookie&#45;&gt;root_champion_thorn</title>
<path fill="none" stroke="#7e57c2" d="M291.7,-1233.22C308.81,-1228.67 328.26,-1223.56 346,-1219 354.33,-1216.86 363.03,-1214.65 371.72,-1212.46"/>
<polygon fill="#7e57c2" stroke="#7e57c2" points="372.66,-1215.84 381.51,-1210.01 370.96,-1209.05 372.66,-1215.84"/>
</g>
<!-- root_champion_bloom -->
<g id="node34" class="node">
<title>root_champion_bloom</title>
<path fill="#81c784" stroke="black" d="M529.5,-1318C529.5,-1318 381.5,-1318 381.5,-1318 375.5,-1318 369.5,-1312 369.5,-1306 369.5,-1306 369.5,-1294 369.5,-1294 369.5,-1288 375.5,-1282 381.5,-1282 381.5,-1282 529.5,-1282 529.5,-1282 535.5,-1282 541.5,-1288 541.5,-1294 541.5,-1294 541.5,-1306 541.5,-1306 541.5,-1312 535.5,-1318 529.5,-1318"/>
<text text-anchor="middle" x="455.5" y="-1296.3" font-family="Times,serif" font-size="14.00">root_champion_bloom</text>
</g>
<!-- root_rookie&#45;&gt;root_champion_bloom -->
<g id="edge63" class="edge">
<title>root_rookie&#45;&gt;root_champion_bloom</title>
<path fill="none" stroke="#7e57c2" d="M291.7,-1258.78C308.81,-1263.33 328.26,-1268.44 346,-1273 354.33,-1275.14 363.03,-1277.35 371.72,-1279.54"/>
<polygon fill="#7e57c2" stroke="#7e57c2" points="370.96,-1282.95 381.51,-1281.99 372.66,-1276.16 370.96,-1282.95"/>
</g>
<!-- root_champion_bark -->
<g id="node35" class="node">
<title>root_champion_bark</title>
<path fill="#81c784" stroke="black" d="M524,-1264C524,-1264 387,-1264 387,-1264 381,-1264 375,-1258 375,-1252 375,-1252 375,-1240 375,-1240 375,-1234 381,-1228 387,-1228 387,-1228 524,-1228 524,-1228 530,-1228 536,-1234 536,-1240 536,-1240 536,-1252 536,-1252 536,-1258 530,-1264 524,-1264"/>
<text text-anchor="middle" x="455.5" y="-1242.3" font-family="Times,serif" font-size="14.00">root_champion_bark</text>
</g>
<!-- root_rookie&#45;&gt;root_champion_bark -->
<g id="edge64" class="edge">
<title>root_rookie&#45;&gt;root_champion_bark</title>
<path fill="none" stroke="#7e57c2" d="M291.5,-1246C313.14,-1246 339.49,-1246 364.64,-1246"/>
<polygon fill="#7e57c2" stroke="#7e57c2" points="364.95,-1249.5 374.95,-1246 364.95,-1242.5 364.95,-1249.5"/>
</g>
<!-- root_final_bramble -->
<g id="node73" class="node">
<title>root_final_bramble</title>
<path fill="lightgrey" stroke="black" d="M762.5,-1199C762.5,-1199 637.5,-1199 637.5,-1199 631.5,-1199 625.5,-1193 625.5,-1187 625.5,-1187 625.5,-1175 625.5,-1175 625.5,-1169 631.5,-1163 637.5,-1163 637.5,-1163 762.5,-1163 762.5,-1163 768.5,-1163 774.5,-1169 774.5,-1175 774.5,-1175 774.5,-1187 774.5,-1187 774.5,-1193 768.5,-1199 762.5,-1199"/>
<text text-anchor="middle" x="700" y="-1177.3" font-family="Times,serif" font-size="14.00">root_final_bramble</text>
</g>
<!-- root_champion_thorn&#45;&gt;root_final_bramble -->
<g id="edge65" class="edge">
<title>root_champion_thorn&#45;&gt;root_final_bramble</title>
<path fill="none" stroke="#7e57c2" d="M539.28,-1188.25C563.76,-1187.13 590.57,-1185.92 615.12,-1184.8"/>
<polygon fill="#7e57c2" stroke="#7e57c2" points="615.3,-1188.3 625.13,-1184.35 614.98,-1181.31 615.3,-1188.3"/>
</g>
<!-- root_final_ancient -->
<g id="node74" class="node">
<title>root_final_ancient</title>
<path fill="lightgrey" stroke="black" d="M759.5,-1307C759.5,-1307 640.5,-1307 640.5,-1307 634.5,-1307 628.5,-1301 628.5,-1295 628.5,-1295 628.5,-1283 628.5,-1283 628.5,-1277 634.5,-1271 640.5,-1271 640.5,-1271 759.5,-1271 759.5,-1271 765.5,-1271 771.5,-1277 771.5,-1283 771.5,-1283 771.5,-1295 771.5,-1295 771.5,-1301 765.5,-1307 759.5,-1307"/>
<text text-anchor="middle" x="700" y="-1285.3" font-family="Times,serif" font-size="14.00">root_final_ancient</text>
</g>
<!-- root_champion_thorn&#45;&gt;root_final_ancient -->
<g id="edge66" class="edge">
<title>root_champion_thorn&#45;&gt;root_final_ancient</title>
<path fill="none" stroke="#7e57c2" d="M539.16,-1202.78C551.17,-1206.67 562.88,-1211.92 573,-1219 591.68,-1232.08 582.59,-1248.54 601,-1262 606.5,-1266.02 612.58,-1269.45 618.93,-1272.36"/>
<polygon fill="#7e57c2" stroke="#7e57c2" points="617.81,-1275.69 628.39,-1276.28 620.49,-1269.22 617.81,-1275.69"/>
</g>
<!-- root_champion_bloom&#45;&gt;root_final_ancient -->
<g id="edge67" class="edge">
<title>root_champion_bloom&#45;&gt;root_final_ancient</title>
<path fill="none" stroke="#7e57c2" d="M541.66,-1296.14C566.6,-1295.01 593.8,-1293.77 618.45,-1292.65"/>
<polygon fill="#7e57c2" stroke="#7e57c2" points="618.65,-1296.15 628.48,-1292.2 618.33,-1289.16 618.65,-1296.15"/>
</g>
<!-- root_final_verdant -->
<g id="node75" class="node">
<title>root_final_verdant</title>
<path fill="lightgrey" stroke="black" d="M761,-1361C761,-1361 639,-1361 639,-1361 633,-1361 627,-1355 627,-1349 627,-1349 627,-1337 627,-1337 627,-1331 633,-1325 639,-1325 639,-1325 761,-1325 761,-1325 767,-1325 773,-1331 773,-1337 773,-1337 773,-1349 773,-1349 773,-1355 767,-1361 761,-1361"/>
<text text-anchor="middle" x="700" y="-1339.3" font-family="Times,serif" font-size="14.00">root_final_verdant</text>
</g>
<!-- root_champion_bloom&#45;&gt;root_final_verdant -->
<g id="edge68" class="edge">
<title>root_champion_bloom&#45;&gt;root_final_verdant</title>
<path fill="none" stroke="#7e57c2" d="M541.66,-1315.1C566.12,-1319.44 592.75,-1324.16 617.02,-1328.46"/>
<polygon fill="#7e57c2" stroke="#7e57c2" points="616.45,-1331.92 626.91,-1330.22 617.68,-1325.02 616.45,-1331.92"/>
</g>
<!-- root_champion_bark&#45;&gt;root_final_ancient -->
<g id="edge70" class="edge">
<title>root_champion_bark&#45;&gt;root_final_ancient</title>
<path fill="none" stroke="#7e57c2" d="M536.24,-1260.14C562.56,-1264.81 591.84,-1270 618.24,-1274.68"/>
<polygon fill="#7e57c2" stroke="#7e57c2" points="617.74,-1278.15 628.2,-1276.45 618.96,-1271.25 617.74,-1278.15"/>
</g>
<!-- root_final_warden -->
<g id="node76" class="node">
<title>root_final_warden</title>
<path fill="lightgrey" stroke="black" d="M759.5,-1253C759.5,-1253 640.5,-1253 640.5,-1253 634.5,-1253 628.5,-1247 628.5,-1241 628.5,-1241 628.5,-1229 628.5,-1229 628.5,-1223 634.5,-1217 640.5,-1217 640.5,-1217 759.5,-1217 759.5,-1217 765.5,-1217 771.5,-1223 771.5,-1229 771.5,-1229 771.5,-1241 771.5,-1241 771.5,-1247 765.5,-1253 759.5,-1253"/>
<text text-anchor="middle" x="700" y="-1231.3" font-family="Times,serif" font-size="14.00">root_final_warden</text>
</g>
<!-- root_champion_bark&#45;&gt;root_final_warden -->
<g id="edge69" class="edge">
<title>root_champion_bark&#45;&gt;root_final_warden</title>
<path fill="none" stroke="#7e57c2" d="M536.24,-1242.38C562.44,-1241.19 591.58,-1239.87 617.89,-1238.68"/>
<polygon fill="#7e57c2" stroke="#7e57c2" points="618.37,-1242.16 628.2,-1238.21 618.05,-1235.17 618.37,-1242.16"/>
</g>
<!-- corrupt_baby -->
<g id="node36" class="node">
<title>corrupt_baby</title>
<path fill="#ef5350" stroke="black" d="M121.5,-1467C121.5,-1467 34.5,-1467 34.5,-1467 28.5,-1467 22.5,-1461 22.5,-1455 22.5,-1455 22.5,-1443 22.5,-1443 22.5,-1437 28.5,-1431 34.5,-1431 34.5,-1431 121.5,-1431 121.5,-1431 127.5,-1431 133.5,-1437 133.5,-1443 133.5,-1443 133.5,-1455 133.5,-1455 133.5,-1461 127.5,-1467 121.5,-1467"/>
<text text-anchor="middle" x="78" y="-1445.3" font-family="Times,serif" font-size="14.00">corrupt_baby</text>
</g>
<!-- corrupt_rookie -->
<g id="node37" class="node">
<title>corrupt_rookie</title>
<path fill="#ef5350" stroke="black" d="M291.5,-1467C291.5,-1467 194.5,-1467 194.5,-1467 188.5,-1467 182.5,-1461 182.5,-1455 182.5,-1455 182.5,-1443 182.5,-1443 182.5,-1437 188.5,-1431 194.5,-1431 194.5,-1431 291.5,-1431 291.5,-1431 297.5,-1431 303.5,-1437 303.5,-1443 303.5,-1443 303.5,-1455 303.5,-1455 303.5,-1461 297.5,-1467 291.5,-1467"/>
<text text-anchor="middle" x="243" y="-1445.3" font-family="Times,serif" font-size="14.00">corrupt_rookie</text>
</g>
<!-- corrupt_baby&#45;&gt;corrupt_rookie -->
<g id="edge71" class="edge">
<title>corrupt_baby&#45;&gt;corrupt_rookie</title>
<path fill="none" stroke="black" d="M133.73,-1449C146.06,-1449 159.32,-1449 172.17,-1449"/>
<polygon fill="black" stroke="black" points="172.38,-1452.5 182.38,-1449 172.38,-1445.5 172.38,-1452.5"/>
</g>
<!-- corrupt_champion_glitch -->
<g id="node38" class="node">
<title>corrupt_champion_glitch</title>
<path fill="#ef5350" stroke="black" d="M540,-1467C540,-1467 371,-1467 371,-1467 365,-1467 359,-1461 359,-1455 359,-1455 359,-1443 359,-1443 359,-1437 365,-1431 371,-1431 371,-1431 540,-1431 540,-1431 546,-1431 552,-1437 552,-1443 552,-1443 552,-1455 552,-1455 552,-1461 546,-1467 540,-1467"/>
<text text-anchor="middle" x="455.5" y="-1445.3" font-family="Times,serif" font-size="14.00">corrupt_champion_glitch</text>
</g>
<!-- corrupt_rookie&#45;&gt;corrupt_champion_glitch -->
<g id="edge72" class="edge">
<title>corrupt_rookie&#45;&gt;corrupt_champion_glitch</title>
<path fill="none" stroke="#7e57c2" d="M303.76,-1449C317.82,-1449 333.22,-1449 348.63,-1449"/>
<polygon fill="#7e57c2" stroke="#7e57c2" points="348.75,-1452.5 358.75,-1449 348.75,-1445.5 348.75,-1452.5"/>
</g>
<!-- corrupt_champion_error -->
<g id="node39" class="node">
<title>corrupt_champion_error</title>
<path fill="#ef5350" stroke="black" d="M538,-1521C538,-1521 373,-1521 373,-1521 367,-1521 361,-1515 361,-1509 361,-1509 361,-1497 361,-1497 361,-1491 367,-1485 373,-1485 373,-1485 538,-1485 538,-1485 544,-1485 550,-1491 550,-1497 550,-1497 550,-1509 550,-1509 550,-1515 544,-1521 538,-1521"/>
<text text-anchor="middle" x="455.5" y="-1499.3" font-family="Times,serif" font-size="14.00">corrupt_champion_error</text>
</g>
<!-- corrupt_rookie&#45;&gt;corrupt_champion_error -->
<g id="edge73" class="edge">
<title>corrupt_rookie&#45;&gt;corrupt_champion_error</title>
<path fill="none" stroke="#7e57c2" d="M303.56,-1464.93C317.48,-1468.6 332.25,-1472.47 346,-1476 354.33,-1478.14 363.03,-1480.35 371.72,-1482.54"/>
<polygon fill="#7e57c2" stroke="#7e57c2" points="370.96,-1485.95 381.51,-1484.99 372.66,-1479.16 370.96,-1485.95"/>
</g>
<!-- corrupt_champion_patchfail -->
<g id="node40" class="node">
<title>corrupt_champion_patchfail</title>
<path fill="#ef5350" stroke="black" d="M551,-1413C551,-1413 360,-1413 360,-1413 354,-1413 348,-1407 348,-1401 348,-1401 348,-1389 348,-1389 348,-1383 354,-1377 360,-1377 360,-1377 551,-1377 551,-1377 557,-1377 563,-1383 563,-1389 563,-1389 563,-1401 563,-1401 563,-1407 557,-1413 551,-1413"/>
<text text-anchor="middle" x="455.5" y="-1391.3" font-family="Times,serif" font-size="14.00">corrupt_champion_patchfail</text>
</g>
<!-- corrupt_rookie&#45;&gt;corrupt_champion_patchfail -->
<g id="edge74" class="edge">
<title>corrupt_rookie&#45;&gt;corrupt_champion_patchfail</title>
<path fill="none" stroke="#7e57c2" d="M303.56,-1433.07C317.48,-1429.4 332.25,-1425.53 346,-1422 354.33,-1419.86 363.03,-1417.65 371.72,-1415.46"/>
<polygon fill="#7e57c2" stroke="#7e57c2" points="372.66,-1418.84 381.51,-1413.01 370.96,-1412.05 372.66,-1418.84"/>
</g>
<!-- corrupt_final_corruptcore -->
<g id="node77" class="node">
<title>corrupt_final_corruptcore</title>
<path fill="lightgrey" stroke="black" d="M787,-1477C787,-1477 613,-1477 613,-1477 607,-1477 601,-1471 601,-1465 601,-1465 601,-1453 601,-1453 601,-1447 607,-1441 613,-1441 613,-1441 787,-1441 787,-1441 793,-1441 799,-1447 799,-1453 799,-1453 799,-1465 799,-1465 799,-1471 793,-1477 787,-1477"/>
<text text-anchor="middle" x="700" y="-1455.3" font-family="Times,serif" font-size="14.00">corrupt_final_corruptcore</text>
</g>
<!-- corrupt_champion_glitch&#45;&gt;corrupt_final_corruptcore -->
<g id="edge75" class="edge">
<title>corrupt_champion_glitch&#45;&gt;corrupt_final_corruptcore</title>
<path fill="none" stroke="#7e57c2" d="M552.34,-1452.95C564.88,-1453.47 577.79,-1454 590.52,-1454.53"/>
<polygon fill="#7e57c2" stroke="#7e57c2" points="590.54,-1458.03 600.67,-1454.95 590.82,-1451.04 590.54,-1458.03"/>
</g>
<!-- corrupt_final_overrun -->
<g id="node78" class="node">
<title>corrupt_final_overrun</title>
<path fill="lightgrey" stroke="black" d="M773,-1423C773,-1423 627,-1423 627,-1423 621,-1423 615,-1417 615,-1411 615,-1411 615,-1399 615,-1399 615,-1393 621,-1387 627,-1387 627,-1387 773,-1387 773,-1387 779,-1387 785,-1393 785,-1399 785,-1399 785,-1411 785,-1411 785,-1417 779,-1423 773,-1423"/>
<text text-anchor="middle" x="700" y="-1401.3" font-family="Times,serif" font-size="14.00">corrupt_final_overrun</text>
</g>
<!-- corrupt_champion_glitch&#45;&gt;corrupt_final_overrun -->
<g id="edge76" class="edge">
<title>corrupt_champion_glitch&#45;&gt;corrupt_final_overrun</title>
<path fill="none" stroke="#7e57c2" d="M552.34,-1431.61C569.61,-1428.48 587.59,-1425.21 604.81,-1422.09"/>
<polygon fill="#7e57c2" stroke="#7e57c2" points="605.63,-1425.5 614.84,-1420.27 604.38,-1418.61 605.63,-1425.5"/>
</g>
<!-- corrupt_champion_error&#45;&gt;corrupt_final_corruptcore -->
<g id="edge78" class="edge">
<title>corrupt_champion_error&#45;&gt;corrupt_final_corruptcore</title>
<path fill="none" stroke="#7e57c2" d="M550.26,-1485.99C563.43,-1483.6 577.05,-1481.13 590.47,-1478.69"/>
<polygon fill="#7e57c2" stroke="#7e57c2" points="591.46,-1482.07 600.68,-1476.84 590.21,-1475.18 591.46,-1482.07"/>
</g>
<!-- corrupt_champion_error&#45;&gt;corrupt_final_overrun -->
<g id="edge77" class="edge">
<title>corrupt_champion_error&#45;&gt;corrupt_final_overrun</title>
<path fill="none" stroke="#7e57c2" d="M550.29,-1488.26C558.34,-1484.95 566.05,-1480.92 573,-1476 591.92,-1462.61 582.36,-1445.78 601,-1432 602.85,-1430.64 604.76,-1429.34 606.72,-1428.11"/>
<polygon fill="#7e57c2" stroke="#7e57c2" points="608.62,-1431.06 615.64,-1423.13 605.2,-1424.95 608.62,-1431.06"/>
</g>
<!-- corrupt_champion_patchfail&#45;&gt;corrupt_final_corruptcore -->
<g id="edge79" class="edge">
<title>corrupt_champion_patchfail&#45;&gt;corrupt_final_corruptcore</title>
<path fill="none" stroke="#7e57c2" d="M539.54,-1413.01C550.84,-1415.82 562.24,-1418.84 573,-1422 585.68,-1425.72 588.4,-1428.02 601,-1432 607.5,-1434.05 614.27,-1436.1 621.08,-1438.1"/>
<polygon fill="#7e57c2" stroke="#7e57c2" points="620.49,-1441.57 631.06,-1440.99 622.43,-1434.85 620.49,-1441.57"/>
</g>
<!-- corrupt_champion_patchfail&#45;&gt;corrupt_final_overrun -->
<g id="edge80" class="edge">
<title>corrupt_champion_patchfail&#45;&gt;corrupt_final_overrun</title>
<path fill="none" stroke="#7e57c2" d="M563.22,-1399.4C576.99,-1399.97 591.01,-1400.55 604.57,-1401.11"/>
<polygon fill="#7e57c2" stroke="#7e57c2" points="604.69,-1404.61 614.83,-1401.53 604.98,-1397.62 604.69,-1404.61"/>
</g>
<!-- dream_baby -->
<g id="node41" class="node">
<title>dream_baby</title>
<path fill="#9575cd" stroke="black" d="M118,-1658C118,-1658 38,-1658 38,-1658 32,-1658 26,-1652 26,-1646 26,-1646 26,-1634 26,-1634 26,-1628 32,-1622 38,-1622 38,-1622 118,-1622 118,-1622 124,-1622 130,-1628 130,-1634 130,-1634 130,-1646 130,-1646 130,-1652 124,-1658 118,-1658"/>
<text text-anchor="middle" x="78" y="-1636.3" font-family="Times,serif" font-size="14.00">dream_baby</text>
</g>
<!-- dream_rookie -->
<g id="node42" class="node">
<title>dream_rookie</title>
<path fill="#9575cd" stroke="black" d="M287.5,-1658C287.5,-1658 198.5,-1658 198.5,-1658 192.5,-1658 186.5,-1652 186.5,-1646 186.5,-1646 186.5,-1634 186.5,-1634 186.5,-1628 192.5,-1622 198.5,-1622 198.5,-1622 287.5,-1622 287.5,-1622 293.5,-1622 299.5,-1628 299.5,-1634 299.5,-1634 299.5,-1646 299.5,-1646 299.5,-1652 293.5,-1658 287.5,-1658"/>
<text text-anchor="middle" x="243" y="-1636.3" font-family="Times,serif" font-size="14.00">dream_rookie</text>
</g>
<!-- dream_baby&#45;&gt;dream_rookie -->
<g id="edge81" class="edge">
<title>dream_baby&#45;&gt;dream_rookie</title>
<path fill="none" stroke="black" d="M130.13,-1640C144.62,-1640 160.6,-1640 175.84,-1640"/>
<polygon fill="black" stroke="black" points="176.25,-1643.5 186.25,-1640 176.25,-1636.5 176.25,-1643.5"/>
</g>
<!-- dream_champion_lucid -->
<g id="node43" class="node">
<title>dream_champion_lucid</title>
<path fill="#9575cd" stroke="black" d="M533,-1658C533,-1658 378,-1658 378,-1658 372,-1658 366,-1652 366,-1646 366,-1646 366,-1634 366,-1634 366,-1628 372,-1622 378,-1622 378,-1622 533,-1622 533,-1622 539,-1622 545,-1628 545,-1634 545,-1634 545,-1646 545,-1646 545,-1652 539,-1658 533,-1658"/>
<text text-anchor="middle" x="455.5" y="-1636.3" font-family="Times,serif" font-size="14.00">dream_champion_lucid</text>
</g>
<!-- dream_rookie&#45;&gt;dream_champion_lucid -->
<g id="edge82" class="edge">
<title>dream_rookie&#45;&gt;dream_champion_lucid</title>
<path fill="none" stroke="#7e57c2" d="M299.58,-1640C316.9,-1640 336.56,-1640 355.91,-1640"/>
<polygon fill="#7e57c2" stroke="#7e57c2" points="355.98,-1643.5 365.98,-1640 355.98,-1636.5 355.98,-1643.5"/>
</g>
<!-- dream_champion_nightmare -->
<g id="node44" class="node">
<title>dream_champion_nightmare</title>
<path fill="#9575cd" stroke="black" d="M553,-1712C553,-1712 358,-1712 358,-1712 352,-1712 346,-1706 346,-1700 346,-1700 346,-1688 346,-1688 346,-1682 352,-1676 358,-1676 358,-1676 553,-1676 553,-1676 559,-1676 565,-1682 565,-1688 565,-1688 565,-1700 565,-1700 565,-1706 559,-1712 553,-1712"/>
<text text-anchor="middle" x="455.5" y="-1690.3" font-family="Times,serif" font-size="14.00">dream_champion_nightmare</text>
</g>
<!-- dream_rookie&#45;&gt;dream_champion_nightmare -->
<g id="edge83" class="edge">
<title>dream_rookie&#45;&gt;dream_champion_nightmare</title>
<path fill="none" stroke="#7e57c2" d="M299.55,-1654.86C314.61,-1658.85 330.92,-1663.13 346,-1667 354.33,-1669.14 363.03,-1671.35 371.72,-1673.54"/>
<polygon fill="#7e57c2" stroke="#7e57c2" points="370.96,-1676.95 381.51,-1675.99 372.66,-1670.16 370.96,-1676.95"/>
</g>
<!-- dream_champion_whimsy -->
<g id="node45" class="node">
<title>dream_champion_whimsy</title>
<path fill="#9575cd" stroke="black" d="M543.5,-1604C543.5,-1604 367.5,-1604 367.5,-1604 361.5,-1604 355.5,-1598 355.5,-1592 355.5,-1592 355.5,-1580 355.5,-1580 355.5,-1574 361.5,-1568 367.5,-1568 367.5,-1568 543.5,-1568 543.5,-1568 549.5,-1568 555.5,-1574 555.5,-1580 555.5,-1580 555.5,-1592 555.5,-1592 555.5,-1598 549.5,-1604 543.5,-1604"/>
<text text-anchor="middle" x="455.5" y="-1582.3" font-family="Times,serif" font-size="14.00">dream_champion_whimsy</text>
</g>
<!-- dream_rookie&#45;&gt;dream_champion_whimsy -->
<g id="edge84" class="edge">
<title>dream_rookie&#45;&gt;dream_champion_whimsy</title>
<path fill="none" stroke="#7e57c2" d="M299.55,-1625.14C314.61,-1621.15 330.92,-1616.87 346,-1613 354.33,-1610.86 363.03,-1608.65 371.72,-1606.46"/>
<polygon fill="#7e57c2" stroke="#7e57c2" points="372.66,-1609.84 381.51,-1604.01 370.96,-1603.05 372.66,-1609.84"/>
</g>
<!-- dream_final_ascended -->
<g id="node79" class="node">
<title>dream_final_ascended</title>
<path fill="lightgrey" stroke="black" d="M774.5,-1685C774.5,-1685 625.5,-1685 625.5,-1685 619.5,-1685 613.5,-1679 613.5,-1673 613.5,-1673 613.5,-1661 613.5,-1661 613.5,-1655 619.5,-1649 625.5,-1649 625.5,-1649 774.5,-1649 774.5,-1649 780.5,-1649 786.5,-1655 786.5,-1661 786.5,-1661 786.5,-1673 786.5,-1673 786.5,-1679 780.5,-1685 774.5,-1685"/>
<text text-anchor="middle" x="700" y="-1663.3" font-family="Times,serif" font-size="14.00">dream_final_ascended</text>
</g>
<!-- dream_champion_lucid&#45;&gt;dream_final_ascended -->
<g id="edge85" class="edge">
<title>dream_champion_lucid&#45;&gt;dream_final_ascended</title>
<path fill="none" stroke="#7e57c2" d="M545.08,-1649.86C564.09,-1651.98 584.26,-1654.22 603.52,-1656.37"/>
<polygon fill="#7e57c2" stroke="#7e57c2" points="603.17,-1659.85 613.49,-1657.48 603.94,-1652.89 603.17,-1659.85"/>
</g>
<!-- dream_final_chaos -->
<g id="node80" class="node">
<title>dream_final_chaos</title>
<path fill="lightgrey" stroke="black" d="M761.5,-1631C761.5,-1631 638.5,-1631 638.5,-1631 632.5,-1631 626.5,-1625 626.5,-1619 626.5,-1619 626.5,-1607 626.5,-1607 626.5,-1601 632.5,-1595 638.5,-1595 638.5,-1595 761.5,-1595 761.5,-1595 767.5,-1595 773.5,-1601 773.5,-1607 773.5,-1607 773.5,-1619 773.5,-1619 773.5,-1625 767.5,-1631 761.5,-1631"/>
<text text-anchor="middle" x="700" y="-1609.3" font-family="Times,serif" font-size="14.00">dream_final_chaos</text>
</g>
<!-- dream_champion_lucid&#45;&gt;dream_final_chaos -->
<g id="edge86" class="edge">
<title>dream_champion_lucid&#45;&gt;dream_final_chaos</title>
<path fill="none" stroke="#7e57c2" d="M545.08,-1630.14C568.3,-1627.55 593.24,-1624.78 616.15,-1622.22"/>
<polygon fill="#7e57c2" stroke="#7e57c2" points="616.62,-1625.69 626.17,-1621.11 615.84,-1618.74 616.62,-1625.69"/>
</g>
<!-- dream_champion_nightmare&#45;&gt;dream_final_ascended -->
<g id="edge88" class="edge">
<title>dream_champion_nightmare&#45;&gt;dream_final_ascended</title>
<path fill="none" stroke="#7e57c2" d="M565.34,-1681.88C578.05,-1680.47 590.95,-1679.03 603.47,-1677.64"/>
<polygon fill="#7e57c2" stroke="#7e57c2" points="603.87,-1681.11 613.42,-1676.53 603.09,-1674.16 603.87,-1681.11"/>
</g>
<!-- dream_champion_nightmare&#45;&gt;dream_final_chaos -->
<g id="edge87" class="edge">
<title>dream_champion_nightmare&#45;&gt;dream_final_chaos</title>
<path fill="none" stroke="#7e57c2" d="M553.39,-1675.9C560.19,-1673.32 566.8,-1670.37 573,-1667 588.19,-1658.75 585.98,-1648.56 601,-1640 606.06,-1637.12 611.44,-1634.53 616.98,-1632.21"/>
<polygon fill="#7e57c2" stroke="#7e57c2" points="618.36,-1635.43 626.42,-1628.55 615.83,-1628.9 618.36,-1635.43"/>
</g>
<!-- dream_champion_whimsy&#45;&gt;dream_final_ascended -->
<g id="edge89" class="edge">
<title>dream_champion_whimsy&#45;&gt;dream_final_ascended</title>
<path fill="none" stroke="#7e57c2" d="M553.39,-1604.1C560.19,-1606.68 566.8,-1609.63 573,-1613 588.19,-1621.25 585.98,-1631.44 601,-1640 604.04,-1641.73 607.2,-1643.36 610.45,-1644.89"/>
<polygon fill="#7e57c2" stroke="#7e57c2" points="609.2,-1648.16 619.77,-1648.93 611.99,-1641.74 609.2,-1648.16"/>
</g>
<!-- dream_champion_whimsy&#45;&gt;dream_final_chaos -->
<g id="edge90" class="edge">
<title>dream_champion_whimsy&#45;&gt;dream_final_chaos</title>
<path fill="none" stroke="#7e57c2" d="M555.83,-1597.06C575.88,-1599.29 596.76,-1601.62 616.17,-1603.78"/>
<polygon fill="#7e57c2" stroke="#7e57c2" points="615.85,-1607.26 626.18,-1604.89 616.62,-1600.31 615.85,-1607.26"/>
</g>
<!-- echo_baby -->
<g id="node46" class="node">
<title>echo_baby</title>
<path fill="#ba68c8" stroke="black" d="M111.5,-1849C111.5,-1849 44.5,-1849 44.5,-1849 38.5,-1849 32.5,-1843 32.5,-1837 32.5,-1837 32.5,-1825 32.5,-1825 32.5,-1819 38.5,-1813 44.5,-1813 44.5,-1813 111.5,-1813 111.5,-1813 117.5,-1813 123.5,-1819 123.5,-1825 123.5,-1825 123.5,-1837 123.5,-1837 123.5,-1843 117.5,-1849 111.5,-1849"/>
<text text-anchor="middle" x="78" y="-1827.3" font-family="Times,serif" font-size="14.00">echo_baby</text>
</g>
<!-- echo_rookie -->
<g id="node47" class="node">
<title>echo_rookie</title>
<path fill="#ba68c8" stroke="black" d="M281.5,-1849C281.5,-1849 204.5,-1849 204.5,-1849 198.5,-1849 192.5,-1843 192.5,-1837 192.5,-1837 192.5,-1825 192.5,-1825 192.5,-1819 198.5,-1813 204.5,-1813 204.5,-1813 281.5,-1813 281.5,-1813 287.5,-1813 293.5,-1819 293.5,-1825 293.5,-1825 293.5,-1837 293.5,-1837 293.5,-1843 287.5,-1849 281.5,-1849"/>
<text text-anchor="middle" x="243" y="-1827.3" font-family="Times,serif" font-size="14.00">echo_rookie</text>
</g>
<!-- echo_baby&#45;&gt;echo_rookie -->
<g id="edge91" class="edge">
<title>echo_baby&#45;&gt;echo_rookie</title>
<path fill="none" stroke="black" d="M123.54,-1831C141.6,-1831 162.73,-1831 182.1,-1831"/>
<polygon fill="black" stroke="black" points="182.35,-1834.5 192.35,-1831 182.35,-1827.5 182.35,-1834.5"/>
</g>
<!-- echo_champion_resonate -->
<g id="node48" class="node">
<title>echo_champion_resonate</title>
<path fill="#ba68c8" stroke="black" d="M540.5,-1849C540.5,-1849 370.5,-1849 370.5,-1849 364.5,-1849 358.5,-1843 358.5,-1837 358.5,-1837 358.5,-1825 358.5,-1825 358.5,-1819 364.5,-1813 370.5,-1813 370.5,-1813 540.5,-1813 540.5,-1813 546.5,-1813 552.5,-1819 552.5,-1825 552.5,-1825 552.5,-1837 552.5,-1837 552.5,-1843 546.5,-1849 540.5,-1849"/>
<text text-anchor="middle" x="455.5" y="-1827.3" font-family="Times,serif" font-size="14.00">echo_champion_resonate</text>
</g>
<!-- echo_rookie&#45;&gt;echo_champion_resonate -->
<g id="edge92" class="edge">
<title>echo_rookie&#45;&gt;echo_champion_resonate</title>
<path fill="none" stroke="#7e57c2" d="M293.62,-1831C310,-1831 328.91,-1831 347.87,-1831"/>
<polygon fill="#7e57c2" stroke="#7e57c2" points="348.09,-1834.5 358.09,-1831 348.09,-1827.5 348.09,-1834.5"/>
</g>
<!-- echo_champion_reverb -->
<g id="node49" class="node">
<title>echo_champion_reverb</title>
<path fill="#ba68c8" stroke="black" d="M533,-1903C533,-1903 378,-1903 378,-1903 372,-1903 366,-1897 366,-1891 366,-1891 366,-1879 366,-1879 366,-1873 372,-1867 378,-1867 378,-1867 533,-1867 533,-1867 539,-1867 545,-1873 545,-1879 545,-1879 545,-1891 545,-1891 545,-1897 539,-1903 533,-1903"/>
<text text-anchor="middle" x="455.5" y="-1881.3" font-family="Times,serif" font-size="14.00">echo_champion_reverb</text>
</g>
<!-- echo_rookie&#45;&gt;echo_champion_reverb -->
<g id="edge93" class="edge">
<title>echo_rookie&#45;&gt;echo_champion_reverb</title>
<path fill="none" stroke="#7e57c2" d="M293.51,-1844.26C310.17,-1848.69 328.88,-1853.6 346,-1858 354.33,-1860.14 363.03,-1862.35 371.72,-1864.54"/>
<polygon fill="#7e57c2" stroke="#7e57c2" points="370.96,-1867.95 381.51,-1866.99 372.66,-1861.16 370.96,-1867.95"/>
</g>
<!-- echo_champion_distort -->
<g id="node50" class="node">
<title>echo_champion_distort</title>
<path fill="#ba68c8" stroke="black" d="M533.5,-1795C533.5,-1795 377.5,-1795 377.5,-1795 371.5,-1795 365.5,-1789 365.5,-1783 365.5,-1783 365.5,-1771 365.5,-1771 365.5,-1765 371.5,-1759 377.5,-1759 377.5,-1759 533.5,-1759 533.5,-1759 539.5,-1759 545.5,-1765 545.5,-1771 545.5,-1771 545.5,-1783 545.5,-1783 545.5,-1789 539.5,-1795 533.5,-1795"/>
<text text-anchor="middle" x="455.5" y="-1773.3" font-family="Times,serif" font-size="14.00">echo_champion_distort</text>
</g>
<!-- echo_rookie&#45;&gt;echo_champion_distort -->
<g id="edge94" class="edge">
<title>echo_rookie&#45;&gt;echo_champion_distort</title>
<path fill="none" stroke="#7e57c2" d="M293.51,-1817.74C310.17,-1813.31 328.88,-1808.4 346,-1804 354.33,-1801.86 363.03,-1799.65 371.72,-1797.46"/>
<polygon fill="#7e57c2" stroke="#7e57c2" points="372.66,-1800.84 381.51,-1795.01 370.96,-1794.05 372.66,-1800.84"/>
</g>
<!-- echo_final_harmonic -->
<g id="node81" class="node">
<title>echo_final_harmonic</title>
<path fill="lightgrey" stroke="black" d="M768.5,-1876C768.5,-1876 631.5,-1876 631.5,-1876 625.5,-1876 619.5,-1870 619.5,-1864 619.5,-1864 619.5,-1852 619.5,-1852 619.5,-1846 625.5,-1840 631.5,-1840 631.5,-1840 768.5,-1840 768.5,-1840 774.5,-1840 780.5,-1846 780.5,-1852 780.5,-1852 780.5,-1864 780.5,-1864 780.5,-1870 774.5,-1876 768.5,-1876"/>
<text text-anchor="middle" x="700" y="-1854.3" font-family="Times,serif" font-size="14.00">echo_final_harmonic</text>
</g>
<!-- echo_champion_resonate&#45;&gt;echo_final_harmonic -->
<g id="edge95" class="edge">
<title>echo_champion_resonate&#45;&gt;echo_final_harmonic</title>
<path fill="none" stroke="#7e57c2" d="M552.69,-1841.71C571.32,-1843.78 590.78,-1845.95 609.2,-1848"/>
<polygon fill="#7e57c2" stroke="#7e57c2" points="608.99,-1851.5 619.31,-1849.13 609.76,-1844.54 608.99,-1851.5"/>
</g>
<!-- echo_final_feedback -->
<g id="node82" class="node">
<title>echo_final_feedback</title>
<path fill="lightgrey" stroke="black" d="M767,-1822C767,-1822 633,-1822 633,-1822 627,-1822 621,-1816 621,-1810 621,-1810 621,-1798 621,-1798 621,-1792 627,-1786 633,-1786 633,-1786 767,-1786 767,-1786 773,-1786 779,-1792 779,-1798 779,-1798 779,-1810 779,-1810 779,-1816 773,-1822 767,-1822"/>
<text text-anchor="middle" x="700" y="-1800.3" font-family="Times,serif" font-size="14.00">echo_final_feedback</text>
</g>
<!-- echo_champion_resonate&#45;&gt;echo_final_feedback -->
<g id="edge96" class="edge">
<title>echo_champion_resonate&#45;&gt;echo_final_feedback</title>
<path fill="none" stroke="#7e57c2" d="M552.69,-1820.29C571.86,-1818.16 591.9,-1815.92 610.78,-1813.82"/>
<polygon fill="#7e57c2" stroke="#7e57c2" points="611.29,-1817.29 620.84,-1812.7 610.51,-1810.33 611.29,-1817.29"/>
</g>
<!-- echo_champion_reverb&#45;&gt;echo_final_harmonic -->
<g id="edge98" class="edge">
<title>echo_champion_reverb&#45;&gt;echo_final_harmonic</title>
<path fill="none" stroke="#7e57c2" d="M545.08,-1875.14C566.01,-1872.81 588.34,-1870.32 609.32,-1867.99"/>
<polygon fill="#7e57c2" stroke="#7e57c2" points="609.94,-1871.44 619.49,-1866.85 609.17,-1864.48 609.94,-1871.44"/>
</g>
<!-- echo_champion_reverb&#45;&gt;echo_final_feedback -->
<g id="edge97" class="edge">
<title>echo_champion_reverb&#45;&gt;echo_final_feedback</title>
<path fill="none" stroke="#7e57c2" d="M545.21,-1869.81C554.87,-1866.6 564.33,-1862.71 573,-1858 588.19,-1849.75 585.98,-1839.56 601,-1831 604.4,-1829.06 607.94,-1827.26 611.57,-1825.58"/>
<polygon fill="#7e57c2" stroke="#7e57c2" points="612.95,-1828.8 620.78,-1821.66 610.21,-1822.36 612.95,-1828.8"/>
</g>
<!-- echo_champion_distort&#45;&gt;echo_final_harmonic -->
<g id="edge100" class="edge">
<title>echo_champion_distort&#45;&gt;echo_final_harmonic</title>
<path fill="none" stroke="#7e57c2" d="M545.51,-1792.29C555.07,-1795.49 564.42,-1799.34 573,-1804 588.19,-1812.25 585.98,-1822.44 601,-1831 604.04,-1832.73 607.2,-1834.36 610.45,-1835.89"/>
<polygon fill="#7e57c2" stroke="#7e57c2" points="609.2,-1839.16 619.77,-1839.93 611.99,-1832.74 609.2,-1839.16"/>
</g>
<!-- echo_champion_distort&#45;&gt;echo_final_feedback -->
<g id="edge99" class="edge">
<title>echo_champion_distort&#45;&gt;echo_final_feedback</title>
<path fill="none" stroke="#7e57c2" d="M545.76,-1786.94C566.89,-1789.29 589.4,-1791.8 610.49,-1794.15"/>
<polygon fill="#7e57c2" stroke="#7e57c2" points="610.39,-1797.66 620.72,-1795.28 611.17,-1790.7 610.39,-1797.66"/>
</g>
<!-- codeborn_baby -->
<g id="node51" class="node">
<title>codeborn_baby</title>
<path fill="#e0e0e0" stroke="black" d="M128,-1986C128,-1986 28,-1986 28,-1986 22,-1986 16,-1980 16,-1974 16,-1974 16,-1962 16,-1962 16,-1956 22,-1950 28,-1950 28,-1950 128,-1950 128,-1950 134,-1950 140,-1956 140,-1962 140,-1962 140,-1974 140,-1974 140,-1980 134,-1986 128,-1986"/>
<text text-anchor="middle" x="78" y="-1964.3" font-family="Times,serif" font-size="14.00">codeborn_baby</text>
</g>
<!-- codeborn_rookie -->
<g id="node52" class="node">
<title>codeborn_rookie</title>
<path fill="#e0e0e0" stroke="black" d="M298,-1986C298,-1986 188,-1986 188,-1986 182,-1986 176,-1980 176,-1974 176,-1974 176,-1962 176,-1962 176,-1956 182,-1950 188,-1950 188,-1950 298,-1950 298,-1950 304,-1950 310,-1956 310,-1962 310,-1962 310,-1974 310,-1974 310,-1980 304,-1986 298,-1986"/>
<text text-anchor="middle" x="243" y="-1964.3" font-family="Times,serif" font-size="14.00">codeborn_rookie</text>
</g>
<!-- codeborn_baby&#45;&gt;codeborn_rookie -->
<g id="edge101" class="edge">
<title>codeborn_baby&#45;&gt;codeborn_rookie</title>
<path fill="none" stroke="black" d="M140.16,-1968C148.53,-1968 157.22,-1968 165.82,-1968"/>
<polygon fill="black" stroke="black" points="165.86,-1971.5 175.86,-1968 165.86,-1964.5 165.86,-1971.5"/>
</g>
<!-- codeborn_champion -->
<g id="node53" class="node">
<title>codeborn_champion</title>
<path fill="#e0e0e0" stroke="black" d="M522.5,-1986C522.5,-1986 388.5,-1986 388.5,-1986 382.5,-1986 376.5,-1980 376.5,-1974 376.5,-1974 376.5,-1962 376.5,-1962 376.5,-1956 382.5,-1950 388.5,-1950 388.5,-1950 522.5,-1950 522.5,-1950 528.5,-1950 534.5,-1956 534.5,-1962 534.5,-1962 534.5,-1974 534.5,-1974 534.5,-1980 528.5,-1986 522.5,-1986"/>
<text text-anchor="middle" x="455.5" y="-1964.3" font-family="Times,serif" font-size="14.00">codeborn_champion</text>
</g>
<!-- codeborn_rookie&#45;&gt;codeborn_champion -->
<g id="edge102" class="edge">
<title>codeborn_rookie&#45;&gt;codeborn_champion</title>
<path fill="none" stroke="black" d="M310.03,-1968C327.81,-1968 347.34,-1968 366.13,-1968"/>
<polygon fill="black" stroke="black" points="366.17,-1971.5 376.17,-1968 366.17,-1964.5 366.17,-1971.5"/>
</g>
<!-- codeborn_final -->
<g id="node83" class="node">
<title>codeborn_final</title>
<path fill="lightgrey" stroke="black" d="M748,-1986C748,-1986 652,-1986 652,-1986 646,-1986 640,-1980 640,-1974 640,-1974 640,-1962 640,-1962 640,-1956 646,-1950 652,-1950 652,-1950 748,-1950 748,-1950 754,-1950 760,-1956 760,-1962 760,-1962 760,-1974 760,-1974 760,-1980 754,-1986 748,-1986"/>
<text text-anchor="middle" x="700" y="-1964.3" font-family="Times,serif" font-size="14.00">codeborn_final</text>
</g>
<!-- codeborn_champion&#45;&gt;codeborn_final -->
<g id="edge103" class="edge">
<title>codeborn_champion&#45;&gt;codeborn_final</title>
<path fill="none" stroke="black" d="M534.56,-1968C565.16,-1968 599.97,-1968 629.66,-1968"/>
<polygon fill="black" stroke="black" points="629.93,-1971.5 639.93,-1968 629.93,-1964.5 629.93,-1971.5"/>
</g>
</g>
</svg>
