<?xml version="1.0" encoding="UTF-8" standalone="no"?>
<!DOCTYPE svg PUBLIC "-//W3C//DTD SVG 1.1//EN"
 "http://www.w3.org/Graphics/SVG/1.1/DTD/svg11.dtd">
<!-- Generated by graphviz version 2.43.0 (0)
 -->
<!-- Title: EvolutionTree Pages: 1 -->
<svg width="807pt" height="2033pt"
 viewBox="0.00 0.00 807.00 2033.00" xmlns="http://www.w3.org/2000/svg" xmlns:xlink="http://www.w3.org/1999/xlink">
<g id="graph0" class="graph" transform="scale(1 1) rotate(0) translate(4 2029)">
<title>EvolutionTree</title>
<polygon fill="white" stroke="transparent" points="-4,4 -4,-2029 803,-2029 803,4 -4,4"/>
<g id="clust1" class="cluster">
<title>cluster_dream</title>
<path fill="#f5f5f5" stroke="black" d="M30,-8C30,-8 561,-8 561,-8 567,-8 573,-14 573,-20 573,-20 573,-179 573,-179 573,-185 567,-191 561,-191 561,-191 30,-191 30,-191 24,-191 18,-185 18,-179 18,-179 18,-20 18,-20 18,-14 24,-8 30,-8"/>
<text text-anchor="middle" x="295.5" y="-175.8" font-family="Times,serif" font-size="14.00">DREAM</text>
</g>
<g id="clust2" class="cluster">
<title>cluster_archive</title>
<path fill="#f5f5f5" stroke="black" d="M27,-199C27,-199 560.5,-199 560.5,-199 566.5,-199 572.5,-205 572.5,-211 572.5,-211 572.5,-370 572.5,-370 572.5,-376 566.5,-382 560.5,-382 560.5,-382 27,-382 27,-382 21,-382 15,-376 15,-370 15,-370 15,-211 15,-211 15,-205 21,-199 27,-199"/>
<text text-anchor="middle" x="293.75" y="-366.8" font-family="Times,serif" font-size="14.00">ARCHIVE</text>
</g>
<g id="clust3" class="cluster">
<title>cluster_root</title>
<path fill="#f5f5f5" stroke="black" d="M38.5,-402C38.5,-402 537.5,-402 537.5,-402 543.5,-402 549.5,-408 549.5,-414 549.5,-414 549.5,-573 549.5,-573 549.5,-579 543.5,-585 537.5,-585 537.5,-585 38.5,-585 38.5,-585 32.5,-585 26.5,-579 26.5,-573 26.5,-573 26.5,-414 26.5,-414 26.5,-408 32.5,-402 38.5,-402"/>
<text text-anchor="middle" x="288" y="-569.8" font-family="Times,serif" font-size="14.00">ROOT</text>
</g>
<g id="clust4" class="cluster">
<title>cluster_echo</title>
<path fill="#f5f5f5" stroke="black" d="M36.5,-593C36.5,-593 548.5,-593 548.5,-593 554.5,-593 560.5,-599 560.5,-605 560.5,-605 560.5,-764 560.5,-764 560.5,-770 554.5,-776 548.5,-776 548.5,-776 36.5,-776 36.5,-776 30.5,-776 24.5,-770 24.5,-764 24.5,-764 24.5,-605 24.5,-605 24.5,-599 30.5,-593 36.5,-593"/>
<text text-anchor="middle" x="292.5" y="-760.8" font-family="Times,serif" font-size="14.00">ECHO</text>
</g>
<g id="clust5" class="cluster">
<title>cluster_codeborn</title>
<path fill="#f5f5f5" stroke="black" d="M20,-784C20,-784 530.5,-784 530.5,-784 536.5,-784 542.5,-790 542.5,-796 542.5,-796 542.5,-847 542.5,-847 542.5,-853 536.5,-859 530.5,-859 530.5,-859 20,-859 20,-859 14,-859 8,-853 8,-847 8,-847 8,-796 8,-796 8,-790 14,-784 20,-784"/>
<text text-anchor="middle" x="275.25" y="-843.8" font-family="Times,serif" font-size="14.00">CODEBORN</text>
</g>
<g id="clust6" class="cluster">
<title>cluster_cloud</title>
<path fill="#f5f5f5" stroke="black" d="M34,-867C34,-867 541,-867 541,-867 547,-867 553,-873 553,-879 553,-879 553,-1038 553,-1038 553,-1044 547,-1050 541,-1050 541,-1050 34,-1050 34,-1050 28,-1050 22,-1044 22,-1038 22,-1038 22,-879 22,-879 22,-873 28,-867 34,-867"/>
<text text-anchor="middle" x="287.5" y="-1034.8" font-family="Times,serif" font-size="14.00">CLOUD</text>
</g>
<g id="clust7" class="cluster">
<title>cluster_firewall</title>
<path fill="#f5f5f5" stroke="black" d="M26.5,-1058C26.5,-1058 555,-1058 555,-1058 561,-1058 567,-1064 567,-1070 567,-1070 567,-1229 567,-1229 567,-1235 561,-1241 555,-1241 555,-1241 26.5,-1241 26.5,-1241 20.5,-1241 14.5,-1235 14.5,-1229 14.5,-1229 14.5,-1070 14.5,-1070 14.5,-1064 20.5,-1058 26.5,-1058"/>
<text text-anchor="middle" x="290.75" y="-1225.8" font-family="Times,serif" font-size="14.00">FIREWALL</text>
</g>
<g id="clust8" class="cluster">
<title>cluster_pulse</title>
<path fill="#f5f5f5" stroke="black" d="M34,-1249C34,-1249 556.5,-1249 556.5,-1249 562.5,-1249 568.5,-1255 568.5,-1261 568.5,-1261 568.5,-1420 568.5,-1420 568.5,-1426 562.5,-1432 556.5,-1432 556.5,-1432 34,-1432 34,-1432 28,-1432 22,-1426 22,-1420 22,-1420 22,-1261 22,-1261 22,-1255 28,-1249 34,-1249"/>
<text text-anchor="middle" x="295.25" y="-1416.8" font-family="Times,serif" font-size="14.00">PULSE</text>
</g>
<g id="clust9" class="cluster">
<title>cluster_corrupt</title>
<path fill="#f5f5f5" stroke="black" d="M26.5,-1440C26.5,-1440 559,-1440 559,-1440 565,-1440 571,-1446 571,-1452 571,-1452 571,-1611 571,-1611 571,-1617 565,-1623 559,-1623 559,-1623 26.5,-1623 26.5,-1623 20.5,-1623 14.5,-1617 14.5,-1611 14.5,-1611 14.5,-1452 14.5,-1452 14.5,-1446 20.5,-1440 26.5,-1440"/>
<text text-anchor="middle" x="292.75" y="-1607.8" font-family="Times,serif" font-size="14.00">CORRUPT</text>
</g>
<g id="clust10" class="cluster">
<title>cluster_void</title>
<path fill="#f5f5f5" stroke="black" d="M38,-1631C38,-1631 544,-1631 544,-1631 550,-1631 556,-1637 556,-1643 556,-1643 556,-1802 556,-1802 556,-1808 550,-1814 544,-1814 544,-1814 38,-1814 38,-1814 32,-1814 26,-1808 26,-1802 26,-1802 26,-1643 26,-1643 26,-1637 32,-1631 38,-1631"/>
<text text-anchor="middle" x="291" y="-1798.8" font-family="Times,serif" font-size="14.00">VOID</text>
</g>
<g id="clust11" class="cluster">
<title>cluster_core</title>
<path fill="#f5f5f5" stroke="black" d="M37.5,-1834C37.5,-1834 538.5,-1834 538.5,-1834 544.5,-1834 550.5,-1840 550.5,-1846 550.5,-1846 550.5,-2005 550.5,-2005 550.5,-2011 544.5,-2017 538.5,-2017 538.5,-2017 37.5,-2017 37.5,-2017 31.5,-2017 25.5,-2011 25.5,-2005 25.5,-2005 25.5,-1846 25.5,-1846 25.5,-1840 31.5,-1834 37.5,-1834"/>
<text text-anchor="middle" x="288" y="-2001.8" font-family="Times,serif" font-size="14.00">CORE</text>
</g>
<!-- dream_baby -->
<g id="node1" class="node">
<title>dream_baby</title>
<path fill="#9575cd" stroke="black" d="M118,-106C118,-106 38,-106 38,-106 32,-106 26,-100 26,-94 26,-94 26,-82 26,-82 26,-76 32,-70 38,-70 38,-70 118,-70 118,-70 124,-70 130,-76 130,-82 130,-82 130,-94 130,-94 130,-100 124,-106 118,-106"/>
<text text-anchor="middle" x="78" y="-84.3" font-family="Times,serif" font-size="14.00">dream_baby</text>
</g>
<!-- dream_rookie -->
<g id="node2" class="node">
<title>dream_rookie</title>
<path fill="#9575cd" stroke="black" d="M287.5,-106C287.5,-106 198.5,-106 198.5,-106 192.5,-106 186.5,-100 186.5,-94 186.5,-94 186.5,-82 186.5,-82 186.5,-76 192.5,-70 198.5,-70 198.5,-70 287.5,-70 287.5,-70 293.5,-70 299.5,-76 299.5,-82 299.5,-82 299.5,-94 299.5,-94 299.5,-100 293.5,-106 287.5,-106"/>
<text text-anchor="middle" x="243" y="-84.3" font-family="Times,serif" font-size="14.00">dream_rookie</text>
</g>
<!-- dream_baby&#45;&gt;dream_rookie -->
<g id="edge1" class="edge">
<title>dream_baby&#45;&gt;dream_rookie</title>
<path fill="none" stroke="black" d="M130.13,-88C144.62,-88 160.6,-88 175.84,-88"/>
<polygon fill="black" stroke="black" points="176.25,-91.5 186.25,-88 176.25,-84.5 176.25,-91.5"/>
</g>
<!-- dream_champion_lucid -->
<g id="node3" class="node">
<title>dream_champion_lucid</title>
<path fill="#9575cd" stroke="black" d="M533,-106C533,-106 378,-106 378,-106 372,-106 366,-100 366,-94 366,-94 366,-82 366,-82 366,-76 372,-70 378,-70 378,-70 533,-70 533,-70 539,-70 545,-76 545,-82 545,-82 545,-94 545,-94 545,-100 539,-106 533,-106"/>
<text text-anchor="middle" x="455.5" y="-84.3" font-family="Times,serif" font-size="14.00">dream_champion_lucid</text>
</g>
<!-- dream_rookie&#45;&gt;dream_champion_lucid -->
<g id="edge2" class="edge">
<title>dream_rookie&#45;&gt;dream_champion_lucid</title>
<path fill="none" stroke="#7e57c2" d="M299.58,-88C316.9,-88 336.56,-88 355.91,-88"/>
<polygon fill="#7e57c2" stroke="#7e57c2" points="355.98,-91.5 365.98,-88 355.98,-84.5 355.98,-91.5"/>
</g>
<!-- dream_champion_nightmare -->
<g id="node4" class="node">
<title>dream_champion_nightmare</title>
<path fill="#9575cd" stroke="black" d="M553,-160C553,-160 358,-160 358,-160 352,-160 346,-154 346,-148 346,-148 346,-136 346,-136 346,-130 352,-124 358,-124 358,-124 553,-124 553,-124 559,-124 565,-130 565,-136 565,-136 565,-148 565,-148 565,-154 559,-160 553,-160"/>
<text text-anchor="middle" x="455.5" y="-138.3" font-family="Times,serif" font-size="14.00">dream_champion_nightmare</text>
</g>
<!-- dream_rookie&#45;&gt;dream_champion_nightmare -->
<g id="edge3" class="edge">
<title>dream_rookie&#45;&gt;dream_champion_nightmare</title>
<path fill="none" stroke="#7e57c2" d="M299.55,-102.86C314.61,-106.85 330.92,-111.13 346,-115 354.33,-117.14 363.03,-119.35 371.72,-121.54"/>
<polygon fill="#7e57c2" stroke="#7e57c2" points="370.96,-124.95 381.51,-123.99 372.66,-118.16 370.96,-124.95"/>
</g>
<!-- dream_champion_whimsy -->
<g id="node5" class="node">
<title>dream_champion_whimsy</title>
<path fill="#9575cd" stroke="black" d="M543.5,-52C543.5,-52 367.5,-52 367.5,-52 361.5,-52 355.5,-46 355.5,-40 355.5,-40 355.5,-28 355.5,-28 355.5,-22 361.5,-16 367.5,-16 367.5,-16 543.5,-16 543.5,-16 549.5,-16 555.5,-22 555.5,-28 555.5,-28 555.5,-40 555.5,-40 555.5,-46 549.5,-52 543.5,-52"/>
<text text-anchor="middle" x="455.5" y="-30.3" font-family="Times,serif" font-size="14.00">dream_champion_whimsy</text>
</g>
<!-- dream_rookie&#45;&gt;dream_champion_whimsy -->
<g id="edge4" class="edge">
<title>dream_rookie&#45;&gt;dream_champion_whimsy</title>
<path fill="none" stroke="#7e57c2" d="M299.55,-73.14C314.61,-69.15 330.92,-64.87 346,-61 354.33,-58.86 363.03,-56.65 371.72,-54.46"/>
<polygon fill="#7e57c2" stroke="#7e57c2" points="372.66,-57.84 381.51,-52.01 370.96,-51.05 372.66,-57.84"/>
</g>
<!-- dream_final_ascended -->
<g id="node54" class="node">
<title>dream_final_ascended</title>
<path fill="lightgrey" stroke="black" d="M774.5,-133C774.5,-133 625.5,-133 625.5,-133 619.5,-133 613.5,-127 613.5,-121 613.5,-121 613.5,-109 613.5,-109 613.5,-103 619.5,-97 625.5,-97 625.5,-97 774.5,-97 774.5,-97 780.5,-97 786.5,-103 786.5,-109 786.5,-109 786.5,-121 786.5,-121 786.5,-127 780.5,-133 774.5,-133"/>
<text text-anchor="middle" x="700" y="-111.3" font-family="Times,serif" font-size="14.00">dream_final_ascended</text>
</g>
<!-- dream_champion_lucid&#45;&gt;dream_final_ascended -->
<g id="edge5" class="edge">
<title>dream_champion_lucid&#45;&gt;dream_final_ascended</title>
<path fill="none" stroke="#7e57c2" d="M545.08,-97.86C564.09,-99.98 584.26,-102.22 603.52,-104.37"/>
<polygon fill="#7e57c2" stroke="#7e57c2" points="603.17,-107.85 613.49,-105.48 603.94,-100.89 603.17,-107.85"/>
</g>
<!-- dream_final_chaos -->
<g id="node55" class="node">
<title>dream_final_chaos</title>
<path fill="lightgrey" stroke="black" d="M761.5,-79C761.5,-79 638.5,-79 638.5,-79 632.5,-79 626.5,-73 626.5,-67 626.5,-67 626.5,-55 626.5,-55 626.5,-49 632.5,-43 638.5,-43 638.5,-43 761.5,-43 761.5,-43 767.5,-43 773.5,-49 773.5,-55 773.5,-55 773.5,-67 773.5,-67 773.5,-73 767.5,-79 761.5,-79"/>
<text text-anchor="middle" x="700" y="-57.3" font-family="Times,serif" font-size="14.00">dream_final_chaos</text>
</g>
<!-- dream_champion_lucid&#45;&gt;dream_final_chaos -->
<g id="edge6" class="edge">
<title>dream_champion_lucid&#45;&gt;dream_final_chaos</title>
<path fill="none" stroke="#7e57c2" d="M545.08,-78.14C568.3,-75.55 593.24,-72.78 616.15,-70.22"/>
<polygon fill="#7e57c2" stroke="#7e57c2" points="616.62,-73.69 626.17,-69.11 615.84,-66.74 616.62,-73.69"/>
</g>
<!-- dream_champion_nightmare&#45;&gt;dream_final_ascended -->
<g id="edge8" class="edge">
<title>dream_champion_nightmare&#45;&gt;dream_final_ascended</title>
<path fill="none" stroke="#7e57c2" d="M565.34,-129.88C578.05,-128.47 590.95,-127.03 603.47,-125.64"/>
<polygon fill="#7e57c2" stroke="#7e57c2" points="603.87,-129.11 613.42,-124.53 603.09,-122.16 603.87,-129.11"/>
</g>
<!-- dream_champion_nightmare&#45;&gt;dream_final_chaos -->
<g id="edge7" class="edge">
<title>dream_champion_nightmare&#45;&gt;dream_final_chaos</title>
<path fill="none" stroke="#7e57c2" d="M553.39,-123.9C560.19,-121.32 566.8,-118.37 573,-115 588.19,-106.75 585.98,-96.56 601,-88 606.06,-85.12 611.44,-82.53 616.98,-80.21"/>
<polygon fill="#7e57c2" stroke="#7e57c2" points="618.36,-83.43 626.42,-76.55 615.83,-76.9 618.36,-83.43"/>
</g>
<!-- dream_champion_whimsy&#45;&gt;dream_final_ascended -->
<g id="edge9" class="edge">
<title>dream_champion_whimsy&#45;&gt;dream_final_ascended</title>
<path fill="none" stroke="#7e57c2" d="M553.39,-52.1C560.19,-54.68 566.8,-57.63 573,-61 588.19,-69.25 585.98,-79.44 601,-88 604.04,-89.73 607.2,-91.36 610.45,-92.89"/>
<polygon fill="#7e57c2" stroke="#7e57c2" points="609.2,-96.16 619.77,-96.93 611.99,-89.74 609.2,-96.16"/>
</g>
<!-- dream_champion_whimsy&#45;&gt;dream_final_chaos -->
<g id="edge10" class="edge">
<title>dream_champion_whimsy&#45;&gt;dream_final_chaos</title>
<path fill="none" stroke="#7e57c2" d="M555.83,-45.06C575.88,-47.29 596.76,-49.62 616.17,-51.78"/>
<polygon fill="#7e57c2" stroke="#7e57c2" points="615.85,-55.26 626.18,-52.89 616.62,-48.31 615.85,-55.26"/>
</g>
<!-- archive_baby -->
<g id="node6" class="node">
<title>archive_baby</title>
<path fill="#ce93d8" stroke="black" d="M121,-297C121,-297 35,-297 35,-297 29,-297 23,-291 23,-285 23,-285 23,-273 23,-273 23,-267 29,-261 35,-261 35,-261 121,-261 121,-261 127,-261 133,-267 133,-273 133,-273 133,-285 133,-285 133,-291 127,-297 121,-297"/>
<text text-anchor="middle" x="78" y="-275.3" font-family="Times,serif" font-size="14.00">archive_baby</text>
</g>
<!-- archive_rookie -->
<g id="node7" class="node">
<title>archive_rookie</title>
<path fill="#ce93d8" stroke="black" d="M291,-297C291,-297 195,-297 195,-297 189,-297 183,-291 183,-285 183,-285 183,-273 183,-273 183,-267 189,-261 195,-261 195,-261 291,-261 291,-261 297,-261 303,-267 303,-273 303,-273 303,-285 303,-285 303,-291 297,-297 291,-297"/>
<text text-anchor="middle" x="243" y="-275.3" font-family="Times,serif" font-size="14.00">archive_rookie</text>
</g>
<!-- archive_baby&#45;&gt;archive_rookie -->
<g id="edge11" class="edge">
<title>archive_baby&#45;&gt;archive_rookie</title>
<path fill="none" stroke="black" d="M133.28,-279C145.97,-279 159.66,-279 172.9,-279"/>
<polygon fill="black" stroke="black" points="172.92,-282.5 182.92,-279 172.92,-275.5 172.92,-282.5"/>
</g>
<!-- archive_champion_logic -->
<g id="node8" class="node">
<title>archive_champion_logic</title>
<path fill="#ce93d8" stroke="black" d="M536,-243C536,-243 375,-243 375,-243 369,-243 363,-237 363,-231 363,-231 363,-219 363,-219 363,-213 369,-207 375,-207 375,-207 536,-207 536,-207 542,-207 548,-213 548,-219 548,-219 548,-231 548,-231 548,-237 542,-243 536,-243"/>
<text text-anchor="middle" x="455.5" y="-221.3" font-family="Times,serif" font-size="14.00">archive_champion_logic</text>
</g>
<!-- archive_rookie&#45;&gt;archive_champion_logic -->
<g id="edge12" class="edge">
<title>archive_rookie&#45;&gt;archive_champion_logic</title>
<path fill="none" stroke="#7e57c2" d="M303.02,-263.22C317.09,-259.5 332.07,-255.58 346,-252 354.33,-249.86 363.03,-247.65 371.72,-245.46"/>
<polygon fill="#7e57c2" stroke="#7e57c2" points="372.66,-248.84 381.51,-243.01 370.96,-242.05 372.66,-248.84"/>
</g>
<!-- archive_champion_index -->
<g id="node9" class="node">
<title>archive_champion_index</title>
<path fill="#ce93d8" stroke="black" d="M539,-297C539,-297 372,-297 372,-297 366,-297 360,-291 360,-285 360,-285 360,-273 360,-273 360,-267 366,-261 372,-261 372,-261 539,-261 539,-261 545,-261 551,-267 551,-273 551,-273 551,-285 551,-285 551,-291 545,-297 539,-297"/>
<text text-anchor="middle" x="455.5" y="-275.3" font-family="Times,serif" font-size="14.00">archive_champion_index</text>
</g>
<!-- archive_rookie&#45;&gt;archive_champion_index -->
<g id="edge13" class="edge">
<title>archive_rookie&#45;&gt;archive_champion_index</title>
<path fill="none" stroke="#7e57c2" d="M303.2,-279C317.66,-279 333.57,-279 349.47,-279"/>
<polygon fill="#7e57c2" stroke="#7e57c2" points="349.91,-282.5 359.91,-279 349.91,-275.5 349.91,-282.5"/>
</g>
<!-- archive_champion_fragment -->
<g id="node10" class="node">
<title>archive_champion_fragment</title>
<path fill="#ce93d8" stroke="black" d="M552.5,-351C552.5,-351 358.5,-351 358.5,-351 352.5,-351 346.5,-345 346.5,-339 346.5,-339 346.5,-327 346.5,-327 346.5,-321 352.5,-315 358.5,-315 358.5,-315 552.5,-315 552.5,-315 558.5,-315 564.5,-321 564.5,-327 564.5,-327 564.5,-339 564.5,-339 564.5,-345 558.5,-351 552.5,-351"/>
<text text-anchor="middle" x="455.5" y="-329.3" font-family="Times,serif" font-size="14.00">archive_champion_fragment</text>
</g>
<!-- archive_rookie&#45;&gt;archive_champion_fragment -->
<g id="edge14" class="edge">
<title>archive_rookie&#45;&gt;archive_champion_fragment</title>
<path fill="none" stroke="#7e57c2" d="M303.02,-294.78C317.09,-298.5 332.07,-302.42 346,-306 354.33,-308.14 363.03,-310.35 371.72,-312.54"/>
<polygon fill="#7e57c2" stroke="#7e57c2" points="370.96,-315.95 381.51,-314.99 372.66,-309.16 370.96,-315.95"/>
</g>
<!-- archive_final_compiler -->
<g id="node56" class="node">
<title>archive_final_compiler</title>
<path fill="lightgrey" stroke="black" d="M776,-297C776,-297 624,-297 624,-297 618,-297 612,-291 612,-285 612,-285 612,-273 612,-273 612,-267 618,-261 624,-261 624,-261 776,-261 776,-261 782,-261 788,-267 788,-273 788,-273 788,-285 788,-285 788,-291 782,-297 776,-297"/>
<text text-anchor="middle" x="700" y="-275.3" font-family="Times,serif" font-size="14.00">archive_final_compiler</text>
</g>
<!-- archive_champion_logic&#45;&gt;archive_final_compiler -->
<g id="edge15" class="edge">
<title>archive_champion_logic&#45;&gt;archive_final_compiler</title>
<path fill="none" stroke="#7e57c2" d="M537.59,-243.06C560.24,-248.1 584.99,-253.61 608.17,-258.77"/>
<polygon fill="#7e57c2" stroke="#7e57c2" points="607.47,-262.2 617.99,-260.96 608.99,-255.37 607.47,-262.2"/>
</g>
<!-- archive_final_librarian -->
<g id="node57" class="node">
<title>archive_final_librarian</title>
<path fill="lightgrey" stroke="black" d="M775.5,-243C775.5,-243 624.5,-243 624.5,-243 618.5,-243 612.5,-237 612.5,-231 612.5,-231 612.5,-219 612.5,-219 612.5,-213 618.5,-207 624.5,-207 624.5,-207 775.5,-207 775.5,-207 781.5,-207 787.5,-213 787.5,-219 787.5,-219 787.5,-231 787.5,-231 787.5,-237 781.5,-243 775.5,-243"/>
<text text-anchor="middle" x="700" y="-221.3" font-family="Times,serif" font-size="14.00">archive_final_librarian</text>
</g>
<!-- archive_champion_logic&#45;&gt;archive_final_librarian -->
<g id="edge16" class="edge">
<title>archive_champion_logic&#45;&gt;archive_final_librarian</title>
<path fill="none" stroke="#7e57c2" d="M548.18,-225C565.78,-225 584.27,-225 602.03,-225"/>
<polygon fill="#7e57c2" stroke="#7e57c2" points="602.4,-228.5 612.4,-225 602.4,-221.5 602.4,-228.5"/>
</g>
<!-- archive_champion_index&#45;&gt;archive_final_librarian -->
<g id="edge17" class="edge">
<title>archive_champion_index&#45;&gt;archive_final_librarian</title>
<path fill="none" stroke="#7e57c2" d="M537.59,-260.94C560.24,-255.9 584.99,-250.39 608.17,-245.23"/>
<polygon fill="#7e57c2" stroke="#7e57c2" points="608.99,-248.63 617.99,-243.04 607.47,-241.8 608.99,-248.63"/>
</g>
<!-- archive_final_corrupt -->
<g id="node58" class="node">
<title>archive_final_corrupt</title>
<path fill="lightgrey" stroke="black" d="M771.5,-351C771.5,-351 628.5,-351 628.5,-351 622.5,-351 616.5,-345 616.5,-339 616.5,-339 616.5,-327 616.5,-327 616.5,-321 622.5,-315 628.5,-315 628.5,-315 771.5,-315 771.5,-315 777.5,-315 783.5,-321 783.5,-327 783.5,-327 783.5,-339 783.5,-339 783.5,-345 777.5,-351 771.5,-351"/>
<text text-anchor="middle" x="700" y="-329.3" font-family="Times,serif" font-size="14.00">archive_final_corrupt</text>
</g>
<!-- archive_champion_index&#45;&gt;archive_final_corrupt -->
<g id="edge18" class="edge">
<title>archive_champion_index&#45;&gt;archive_final_corrupt</title>
<path fill="none" stroke="#7e57c2" d="M537.59,-297.06C560.24,-302.1 584.99,-307.61 608.17,-312.77"/>
<polygon fill="#7e57c2" stroke="#7e57c2" points="607.47,-316.2 617.99,-314.96 608.99,-309.37 607.47,-316.2"/>
</g>
<!-- archive_champion_fragment&#45;&gt;archive_final_compiler -->
<g id="edge20" class="edge">
<title>archive_champion_fragment&#45;&gt;archive_final_compiler</title>
<path fill="none" stroke="#7e57c2" d="M537.59,-314.94C560.24,-309.9 584.99,-304.39 608.17,-299.23"/>
<polygon fill="#7e57c2" stroke="#7e57c2" points="608.99,-302.63 617.99,-297.04 607.47,-295.8 608.99,-302.63"/>
</g>
<!-- archive_champion_fragment&#45;&gt;archive_final_corrupt -->
<g id="edge19" class="edge">
<title>archive_champion_fragment&#45;&gt;archive_final_corrupt</title>
<path fill="none" stroke="#7e57c2" d="M564.63,-333C578.42,-333 592.44,-333 605.96,-333"/>
<polygon fill="#7e57c2" stroke="#7e57c2" points="606.19,-336.5 616.19,-333 606.19,-329.5 606.19,-336.5"/>
</g>
<!-- root_baby -->
<g id="node11" class="node">
<title>root_baby</title>
<path fill="#81c784" stroke="black" d="M109.5,-500C109.5,-500 46.5,-500 46.5,-500 40.5,-500 34.5,-494 34.5,-488 34.5,-488 34.5,-476 34.5,-476 34.5,-470 40.5,-464 46.5,-464 46.5,-464 109.5,-464 109.5,-464 115.5,-464 121.5,-470 121.5,-476 121.5,-476 121.5,-488 121.5,-488 121.5,-494 115.5,-500 109.5,-500"/>
<text text-anchor="middle" x="78" y="-478.3" font-family="Times,serif" font-size="14.00">root_baby</text>
</g>
<!-- root_rookie -->
<g id="node12" class="node">
<title>root_rookie</title>
<path fill="#81c784" stroke="black" d="M279.5,-500C279.5,-500 206.5,-500 206.5,-500 200.5,-500 194.5,-494 194.5,-488 194.5,-488 194.5,-476 194.5,-476 194.5,-470 200.5,-464 206.5,-464 206.5,-464 279.5,-464 279.5,-464 285.5,-464 291.5,-470 291.5,-476 291.5,-476 291.5,-488 291.5,-488 291.5,-494 285.5,-500 279.5,-500"/>
<text text-anchor="middle" x="243" y="-478.3" font-family="Times,serif" font-size="14.00">root_rookie</text>
</g>
<!-- root_baby&#45;&gt;root_rookie -->
<g id="edge21" class="edge">
<title>root_baby&#45;&gt;root_rookie</title>
<path fill="none" stroke="black" d="M121.83,-482C140.87,-482 163.58,-482 184.1,-482"/>
<polygon fill="black" stroke="black" points="184.29,-485.5 194.29,-482 184.29,-478.5 184.29,-485.5"/>
</g>
<!-- root_champion_thorn -->
<g id="node13" class="node">
<title>root_champion_thorn</title>
<path fill="#81c784" stroke="black" d="M527,-446C527,-446 384,-446 384,-446 378,-446 372,-440 372,-434 372,-434 372,-422 372,-422 372,-416 378,-410 384,-410 384,-410 527,-410 527,-410 533,-410 539,-416 539,-422 539,-422 539,-434 539,-434 539,-440 533,-446 527,-446"/>
<text text-anchor="middle" x="455.5" y="-424.3" font-family="Times,serif" font-size="14.00">root_champion_thorn</text>
</g>
<!-- root_rookie&#45;&gt;root_champion_thorn -->
<g id="edge22" class="edge">
<title>root_rookie&#45;&gt;root_champion_thorn</title>
<path fill="none" stroke="#7e57c2" d="M291.7,-469.22C308.81,-464.67 328.26,-459.56 346,-455 354.33,-452.86 363.03,-450.65 371.72,-448.46"/>
<polygon fill="#7e57c2" stroke="#7e57c2" points="372.66,-451.84 381.51,-446.01 370.96,-445.05 372.66,-451.84"/>
</g>
<!-- root_champion_bloom -->
<g id="node14" class="node">
<title>root_champion_bloom</title>
<path fill="#81c784" stroke="black" d="M529.5,-554C529.5,-554 381.5,-554 381.5,-554 375.5,-554 369.5,-548 369.5,-542 369.5,-542 369.5,-530 369.5,-530 369.5,-524 375.5,-518 381.5,-518 381.5,-518 529.5,-518 529.5,-518 535.5,-518 541.5,-524 541.5,-530 541.5,-530 541.5,-542 541.5,-542 541.5,-548 535.5,-554 529.5,-554"/>
<text text-anchor="middle" x="455.5" y="-532.3" font-family="Times,serif" font-size="14.00">root_champion_bloom</text>
</g>
<!-- root_rookie&#45;&gt;root_champion_bloom -->
<g id="edge23" class="edge">
<title>root_rookie&#45;&gt;root_champion_bloom</title>
<path fill="none" stroke="#7e57c2" d="M291.7,-494.78C308.81,-499.33 328.26,-504.44 346,-509 354.33,-511.14 363.03,-513.35 371.72,-515.54"/>
<polygon fill="#7e57c2" stroke="#7e57c2" points="370.96,-518.95 381.51,-517.99 372.66,-512.16 370.96,-518.95"/>
</g>
<!-- root_champion_bark -->
<g id="node15" class="node">
<title>root_champion_bark</title>
<path fill="#81c784" stroke="black" d="M524,-500C524,-500 387,-500 387,-500 381,-500 375,-494 375,-488 375,-488 375,-476 375,-476 375,-470 381,-464 387,-464 387,-464 524,-464 524,-464 530,-464 536,-470 536,-476 536,-476 536,-488 536,-488 536,-494 530,-500 524,-500"/>
<text text-anchor="middle" x="455.5" y="-478.3" font-family="Times,serif" font-size="14.00">root_champion_bark</text>
</g>
<!-- root_rookie&#45;&gt;root_champion_bark -->
<g id="edge24" class="edge">
<title>root_rookie&#45;&gt;root_champion_bark</title>
<path fill="none" stroke="#7e57c2" d="M291.5,-482C313.14,-482 339.49,-482 364.64,-482"/>
<polygon fill="#7e57c2" stroke="#7e57c2" points="364.95,-485.5 374.95,-482 364.95,-478.5 364.95,-485.5"/>
</g>
<!-- root_final_bramble -->
<g id="node59" class="node">
<title>root_final_bramble</title>
<path fill="lightgrey" stroke="black" d="M762.5,-413C762.5,-413 637.5,-413 637.5,-413 631.5,-413 625.5,-407 625.5,-401 625.5,-401 625.5,-389 625.5,-389 625.5,-383 631.5,-377 637.5,-377 637.5,-377 762.5,-377 762.5,-377 768.5,-377 774.5,-383 774.5,-389 774.5,-389 774.5,-401 774.5,-401 774.5,-407 768.5,-413 762.5,-413"/>
<text text-anchor="middle" x="700" y="-391.3" font-family="Times,serif" font-size="14.00">root_final_bramble</text>
</g>
<!-- root_champion_thorn&#45;&gt;root_final_bramble -->
<g id="edge25" class="edge">
<title>root_champion_thorn&#45;&gt;root_final_bramble</title>
<path fill="none" stroke="#7e57c2" d="M539.28,-416.74C563.76,-413.4 590.57,-409.76 615.12,-406.41"/>
<polygon fill="#7e57c2" stroke="#7e57c2" points="615.69,-409.87 625.13,-405.05 614.75,-402.93 615.69,-409.87"/>
</g>
<!-- root_final_ancient -->
<g id="node60" class="node">
<title>root_final_ancient</title>
<path fill="lightgrey" stroke="black" d="M759.5,-521C759.5,-521 640.5,-521 640.5,-521 634.5,-521 628.5,-515 628.5,-509 628.5,-509 628.5,-497 628.5,-497 628.5,-491 634.5,-485 640.5,-485 640.5,-485 759.5,-485 759.5,-485 765.5,-485 771.5,-491 771.5,-497 771.5,-497 771.5,-509 771.5,-509 771.5,-515 765.5,-521 759.5,-521"/>
<text text-anchor="middle" x="700" y="-499.3" font-family="Times,serif" font-size="14.00">root_final_ancient</text>
</g>
<!-- root_champion_thorn&#45;&gt;root_final_ancient -->
<g id="edge26" class="edge">
<title>root_champion_thorn&#45;&gt;root_final_ancient</title>
<path fill="none" stroke="#7e57c2" d="M539.1,-442.62C550.75,-445.97 562.37,-450.05 573,-455 587.1,-461.56 587.04,-469.15 601,-476 606.67,-478.78 612.66,-481.31 618.79,-483.61"/>
<polygon fill="#7e57c2" stroke="#7e57c2" points="617.89,-487 628.48,-487.02 620.21,-480.4 617.89,-487"/>
</g>
<!-- root_champion_bloom&#45;&gt;root_final_ancient -->
<g id="edge27" class="edge">
<title>root_champion_bloom&#45;&gt;root_final_ancient</title>
<path fill="none" stroke="#7e57c2" d="M541.66,-524.41C566.6,-521.02 593.8,-517.32 618.45,-513.96"/>
<polygon fill="#7e57c2" stroke="#7e57c2" points="619.05,-517.41 628.48,-512.6 618.1,-510.48 619.05,-517.41"/>
</g>
<!-- root_final_verdant -->
<g id="node61" class="node">
<title>root_final_verdant</title>
<path fill="lightgrey" stroke="black" d="M761,-575C761,-575 639,-575 639,-575 633,-575 627,-569 627,-563 627,-563 627,-551 627,-551 627,-545 633,-539 639,-539 639,-539 761,-539 761,-539 767,-539 773,-545 773,-551 773,-551 773,-563 773,-563 773,-569 767,-575 761,-575"/>
<text text-anchor="middle" x="700" y="-553.3" font-family="Times,serif" font-size="14.00">root_final_verdant</text>
</g>
<!-- root_champion_bloom&#45;&gt;root_final_verdant -->
<g id="edge28" class="edge">
<title>root_champion_bloom&#45;&gt;root_final_verdant</title>
<path fill="none" stroke="#7e57c2" d="M541.66,-543.37C566.02,-545.48 592.51,-547.78 616.7,-549.87"/>
<polygon fill="#7e57c2" stroke="#7e57c2" points="616.65,-553.38 626.91,-550.76 617.25,-546.41 616.65,-553.38"/>
</g>
<!-- root_champion_bark&#45;&gt;root_final_ancient -->
<g id="edge30" class="edge">
<title>root_champion_bark&#45;&gt;root_final_ancient</title>
<path fill="none" stroke="#7e57c2" d="M536.24,-488.91C562.44,-491.17 591.58,-493.7 617.89,-495.98"/>
<polygon fill="#7e57c2" stroke="#7e57c2" points="617.93,-499.49 628.2,-496.87 618.54,-492.52 617.93,-499.49"/>
</g>
<!-- root_final_warden -->
<g id="node62" class="node">
<title>root_final_warden</title>
<path fill="lightgrey" stroke="black" d="M759.5,-467C759.5,-467 640.5,-467 640.5,-467 634.5,-467 628.5,-461 628.5,-455 628.5,-455 628.5,-443 628.5,-443 628.5,-437 634.5,-431 640.5,-431 640.5,-431 759.5,-431 759.5,-431 765.5,-431 771.5,-437 771.5,-443 771.5,-443 771.5,-455 771.5,-455 771.5,-461 765.5,-467 759.5,-467"/>
<text text-anchor="middle" x="700" y="-445.3" font-family="Times,serif" font-size="14.00">root_final_warden</text>
</g>
<!-- root_champion_bark&#45;&gt;root_final_warden -->
<g id="edge29" class="edge">
<title>root_champion_bark&#45;&gt;root_final_warden</title>
<path fill="none" stroke="#7e57c2" d="M536.24,-471.15C562.56,-467.57 591.84,-463.58 618.24,-459.99"/>
<polygon fill="#7e57c2" stroke="#7e57c2" points="618.76,-463.45 628.2,-458.63 617.82,-456.52 618.76,-463.45"/>
</g>
<!-- echo_baby -->
<g id="node16" class="node">
<title>echo_baby</title>
<path fill="#ba68c8" stroke="black" d="M111.5,-691C111.5,-691 44.5,-691 44.5,-691 38.5,-691 32.5,-685 32.5,-679 32.5,-679 32.5,-667 32.5,-667 32.5,-661 38.5,-655 44.5,-655 44.5,-655 111.5,-655 111.5,-655 117.5,-655 123.5,-661 123.5,-667 123.5,-667 123.5,-679 123.5,-679 123.5,-685 117.5,-691 111.5,-691"/>
<text text-anchor="middle" x="78" y="-669.3" font-family="Times,serif" font-size="14.00">echo_baby</text>
</g>
<!-- echo_rookie -->
<g id="node17" class="node">
<title>echo_rookie</title>
<path fill="#ba68c8" stroke="black" d="M281.5,-691C281.5,-691 204.5,-691 204.5,-691 198.5,-691 192.5,-685 192.5,-679 192.5,-679 192.5,-667 192.5,-667 192.5,-661 198.5,-655 204.5,-655 204.5,-655 281.5,-655 281.5,-655 287.5,-655 293.5,-661 293.5,-667 293.5,-667 293.5,-679 293.5,-679 293.5,-685 287.5,-691 281.5,-691"/>
<text text-anchor="middle" x="243" y="-669.3" font-family="Times,serif" font-size="14.00">echo_rookie</text>
</g>
<!-- echo_baby&#45;&gt;echo_rookie -->
<g id="edge31" class="edge">
<title>echo_baby&#45;&gt;echo_rookie</title>
<path fill="none" stroke="black" d="M123.54,-673C141.6,-673 162.73,-673 182.1,-673"/>
<polygon fill="black" stroke="black" points="182.35,-676.5 192.35,-673 182.35,-669.5 182.35,-676.5"/>
</g>
<!-- echo_champion_resonate -->
<g id="node18" class="node">
<title>echo_champion_resonate</title>
<path fill="#ba68c8" stroke="black" d="M540.5,-691C540.5,-691 370.5,-691 370.5,-691 364.5,-691 358.5,-685 358.5,-679 358.5,-679 358.5,-667 358.5,-667 358.5,-661 364.5,-655 370.5,-655 370.5,-655 540.5,-655 540.5,-655 546.5,-655 552.5,-661 552.5,-667 552.5,-667 552.5,-679 552.5,-679 552.5,-685 546.5,-691 540.5,-691"/>
<text text-anchor="middle" x="455.5" y="-669.3" font-family="Times,serif" font-size="14.00">echo_champion_resonate</text>
</g>
<!-- echo_rookie&#45;&gt;echo_champion_resonate -->
<g id="edge32" class="edge">
<title>echo_rookie&#45;&gt;echo_champion_resonate</title>
<path fill="none" stroke="#7e57c2" d="M293.62,-673C310,-673 328.91,-673 347.87,-673"/>
<polygon fill="#7e57c2" stroke="#7e57c2" points="348.09,-676.5 358.09,-673 348.09,-669.5 348.09,-676.5"/>
</g>
<!-- echo_champion_reverb -->
<g id="node19" class="node">
<title>echo_champion_reverb</title>
<path fill="#ba68c8" stroke="black" d="M533,-745C533,-745 378,-745 378,-745 372,-745 366,-739 366,-733 366,-733 366,-721 366,-721 366,-715 372,-709 378,-709 378,-709 533,-709 533,-709 539,-709 545,-715 545,-721 545,-721 545,-733 545,-733 545,-739 539,-745 533,-745"/>
<text text-anchor="middle" x="455.5" y="-723.3" font-family="Times,serif" font-size="14.00">echo_champion_reverb</text>
</g>
<!-- echo_rookie&#45;&gt;echo_champion_reverb -->
<g id="edge33" class="edge">
<title>echo_rookie&#45;&gt;echo_champion_reverb</title>
<path fill="none" stroke="#7e57c2" d="M293.51,-686.26C310.17,-690.69 328.88,-695.6 346,-700 354.33,-702.14 363.03,-704.35 371.72,-706.54"/>
<polygon fill="#7e57c2" stroke="#7e57c2" points="370.96,-709.95 381.51,-708.99 372.66,-703.16 370.96,-709.95"/>
</g>
<!-- echo_champion_distort -->
<g id="node20" class="node">
<title>echo_champion_distort</title>
<path fill="#ba68c8" stroke="black" d="M533.5,-637C533.5,-637 377.5,-637 377.5,-637 371.5,-637 365.5,-631 365.5,-625 365.5,-625 365.5,-613 365.5,-613 365.5,-607 371.5,-601 377.5,-601 377.5,-601 533.5,-601 533.5,-601 539.5,-601 545.5,-607 545.5,-613 545.5,-613 545.5,-625 545.5,-625 545.5,-631 539.5,-637 533.5,-637"/>
<text text-anchor="middle" x="455.5" y="-615.3" font-family="Times,serif" font-size="14.00">echo_champion_distort</text>
</g>
<!-- echo_rookie&#45;&gt;echo_champion_distort -->
<g id="edge34" class="edge">
<title>echo_rookie&#45;&gt;echo_champion_distort</title>
<path fill="none" stroke="#7e57c2" d="M293.51,-659.74C310.17,-655.31 328.88,-650.4 346,-646 354.33,-643.86 363.03,-641.65 371.72,-639.46"/>
<polygon fill="#7e57c2" stroke="#7e57c2" points="372.66,-642.84 381.51,-637.01 370.96,-636.05 372.66,-642.84"/>
</g>
<!-- echo_final_harmonic -->
<g id="node63" class="node">
<title>echo_final_harmonic</title>
<path fill="lightgrey" stroke="black" d="M768.5,-718C768.5,-718 631.5,-718 631.5,-718 625.5,-718 619.5,-712 619.5,-706 619.5,-706 619.5,-694 619.5,-694 619.5,-688 625.5,-682 631.5,-682 631.5,-682 768.5,-682 768.5,-682 774.5,-682 780.5,-688 780.5,-694 780.5,-694 780.5,-706 780.5,-706 780.5,-712 774.5,-718 768.5,-718"/>
<text text-anchor="middle" x="700" y="-696.3" font-family="Times,serif" font-size="14.00">echo_final_harmonic</text>
</g>
<!-- echo_champion_resonate&#45;&gt;echo_final_harmonic -->
<g id="edge35" class="edge">
<title>echo_champion_resonate&#45;&gt;echo_final_harmonic</title>
<path fill="none" stroke="#7e57c2" d="M552.69,-683.71C571.32,-685.78 590.78,-687.95 609.2,-690"/>
<polygon fill="#7e57c2" stroke="#7e57c2" points="608.99,-693.5 619.31,-691.13 609.76,-686.54 608.99,-693.5"/>
</g>
<!-- echo_final_feedback -->
<g id="node64" class="node">
<title>echo_final_feedback</title>
<path fill="lightgrey" stroke="black" d="M767,-664C767,-664 633,-664 633,-664 627,-664 621,-658 621,-652 621,-652 621,-640 621,-640 621,-634 627,-628 633,-628 633,-628 767,-628 767,-628 773,-628 779,-634 779,-640 779,-640 779,-652 779,-652 779,-658 773,-664 767,-664"/>
<text text-anchor="middle" x="700" y="-642.3" font-family="Times,serif" font-size="14.00">echo_final_feedback</text>
</g>
<!-- echo_champion_resonate&#45;&gt;echo_final_feedback -->
<g id="edge36" class="edge">
<title>echo_champion_resonate&#45;&gt;echo_final_feedback</title>
<path fill="none" stroke="#7e57c2" d="M552.69,-662.29C571.86,-660.16 591.9,-657.92 610.78,-655.82"/>
<polygon fill="#7e57c2" stroke="#7e57c2" points="611.29,-659.29 620.84,-654.7 610.51,-652.33 611.29,-659.29"/>
</g>
<!-- echo_champion_reverb&#45;&gt;echo_final_harmonic -->
<g id="edge38" class="edge">
<title>echo_champion_reverb&#45;&gt;echo_final_harmonic</title>
<path fill="none" stroke="#7e57c2" d="M545.08,-717.14C566.01,-714.81 588.34,-712.32 609.32,-709.99"/>
<polygon fill="#7e57c2" stroke="#7e57c2" points="609.94,-713.44 619.49,-708.85 609.17,-706.48 609.94,-713.44"/>
</g>
<!-- echo_champion_reverb&#45;&gt;echo_final_feedback -->
<g id="edge37" class="edge">
<title>echo_champion_reverb&#45;&gt;echo_final_feedback</title>
<path fill="none" stroke="#7e57c2" d="M545.21,-711.81C554.87,-708.6 564.33,-704.71 573,-700 588.19,-691.75 585.98,-681.56 601,-673 604.4,-671.06 607.94,-669.26 611.57,-667.58"/>
<polygon fill="#7e57c2" stroke="#7e57c2" points="612.95,-670.8 620.78,-663.66 610.21,-664.36 612.95,-670.8"/>
</g>
<!-- echo_champion_distort&#45;&gt;echo_final_harmonic -->
<g id="edge40" class="edge">
<title>echo_champion_distort&#45;&gt;echo_final_harmonic</title>
<path fill="none" stroke="#7e57c2" d="M545.51,-634.29C555.07,-637.49 564.42,-641.34 573,-646 588.19,-654.25 585.98,-664.44 601,-673 604.04,-674.73 607.2,-676.36 610.45,-677.89"/>
<polygon fill="#7e57c2" stroke="#7e57c2" points="609.2,-681.16 619.77,-681.93 611.99,-674.74 609.2,-681.16"/>
</g>
<!-- echo_champion_distort&#45;&gt;echo_final_feedback -->
<g id="edge39" class="edge">
<title>echo_champion_distort&#45;&gt;echo_final_feedback</title>
<path fill="none" stroke="#7e57c2" d="M545.76,-628.94C566.89,-631.29 589.4,-633.8 610.49,-636.15"/>
<polygon fill="#7e57c2" stroke="#7e57c2" points="610.39,-639.66 620.72,-637.28 611.17,-632.7 610.39,-639.66"/>
</g>
<!-- codeborn_baby -->
<g id="node21" class="node">
<title>codeborn_baby</title>
<path fill="#e0e0e0" stroke="black" d="M128,-828C128,-828 28,-828 28,-828 22,-828 16,-822 16,-816 16,-816 16,-804 16,-804 16,-798 22,-792 28,-792 28,-792 128,-792 128,-792 134,-792 140,-798 140,-804 140,-804 140,-816 140,-816 140,-822 134,-828 128,-828"/>
<text text-anchor="middle" x="78" y="-806.3" font-family="Times,serif" font-size="14.00">codeborn_baby</text>
</g>
<!-- codeborn_rookie -->
<g id="node22" class="node">
<title>codeborn_rookie</title>
<path fill="#e0e0e0" stroke="black" d="M298,-828C298,-828 188,-828 188,-828 182,-828 176,-822 176,-816 176,-816 176,-804 176,-804 176,-798 182,-792 188,-792 188,-792 298,-792 298,-792 304,-792 310,-798 310,-804 310,-804 310,-816 310,-816 310,-822 304,-828 298,-828"/>
<text text-anchor="middle" x="243" y="-806.3" font-family="Times,serif" font-size="14.00">codeborn_rookie</text>
</g>
<!-- codeborn_baby&#45;&gt;codeborn_rookie -->
<g id="edge41" class="edge">
<title>codeborn_baby&#45;&gt;codeborn_rookie</title>
<path fill="none" stroke="black" d="M140.16,-810C148.53,-810 157.22,-810 165.82,-810"/>
<polygon fill="black" stroke="black" points="165.86,-813.5 175.86,-810 165.86,-806.5 165.86,-813.5"/>
</g>
<!-- codeborn_champion -->
<g id="node23" class="node">
<title>codeborn_champion</title>
<path fill="#e0e0e0" stroke="black" d="M522.5,-828C522.5,-828 388.5,-828 388.5,-828 382.5,-828 376.5,-822 376.5,-816 376.5,-816 376.5,-804 376.5,-804 376.5,-798 382.5,-792 388.5,-792 388.5,-792 522.5,-792 522.5,-792 528.5,-792 534.5,-798 534.5,-804 534.5,-804 534.5,-816 534.5,-816 534.5,-822 528.5,-828 522.5,-828"/>
<text text-anchor="middle" x="455.5" y="-806.3" font-family="Times,serif" font-size="14.00">codeborn_champion</text>
</g>
<!-- codeborn_rookie&#45;&gt;codeborn_champion -->
<g id="edge42" class="edge">
<title>codeborn_rookie&#45;&gt;codeborn_champion</title>
<path fill="none" stroke="black" d="M310.03,-810C327.81,-810 347.34,-810 366.13,-810"/>
<polygon fill="black" stroke="black" points="366.17,-813.5 376.17,-810 366.17,-806.5 366.17,-813.5"/>
</g>
<!-- codeborn_final -->
<g id="node65" class="node">
<title>codeborn_final</title>
<path fill="lightgrey" stroke="black" d="M748,-828C748,-828 652,-828 652,-828 646,-828 640,-822 640,-816 640,-816 640,-804 640,-804 640,-798 646,-792 652,-792 652,-792 748,-792 748,-792 754,-792 760,-798 760,-804 760,-804 760,-816 760,-816 760,-822 754,-828 748,-828"/>
<text text-anchor="middle" x="700" y="-806.3" font-family="Times,serif" font-size="14.00">codeborn_final</text>
</g>
<!-- codeborn_champion&#45;&gt;codeborn_final -->
<g id="edge43" class="edge">
<title>codeborn_champion&#45;&gt;codeborn_final</title>
<path fill="none" stroke="black" d="M534.56,-810C565.16,-810 599.97,-810 629.66,-810"/>
<polygon fill="black" stroke="black" points="629.93,-813.5 639.93,-810 629.93,-806.5 629.93,-813.5"/>
</g>
<!-- cloud_baby -->
<g id="node24" class="node">
<title>cloud_baby</title>
<path fill="#90caf9" stroke="black" d="M114,-965C114,-965 42,-965 42,-965 36,-965 30,-959 30,-953 30,-953 30,-941 30,-941 30,-935 36,-929 42,-929 42,-929 114,-929 114,-929 120,-929 126,-935 126,-941 126,-941 126,-953 126,-953 126,-959 120,-965 114,-965"/>
<text text-anchor="middle" x="78" y="-943.3" font-family="Times,serif" font-size="14.00">cloud_baby</text>
</g>
<!-- cloud_rookie -->
<g id="node25" class="node">
<title>cloud_rookie</title>
<path fill="#90caf9" stroke="black" d="M284,-965C284,-965 202,-965 202,-965 196,-965 190,-959 190,-953 190,-953 190,-941 190,-941 190,-935 196,-929 202,-929 202,-929 284,-929 284,-929 290,-929 296,-935 296,-941 296,-941 296,-953 296,-953 296,-959 290,-965 284,-965"/>
<text text-anchor="middle" x="243" y="-943.3" font-family="Times,serif" font-size="14.00">cloud_rookie</text>
</g>
<!-- cloud_baby&#45;&gt;cloud_rookie -->
<g id="edge44" class="edge">
<title>cloud_baby&#45;&gt;cloud_rookie</title>
<path fill="none" stroke="black" d="M126.15,-947C142.81,-947 161.82,-947 179.55,-947"/>
<polygon fill="black" stroke="black" points="179.82,-950.5 189.82,-947 179.82,-943.5 179.82,-950.5"/>
</g>
<!-- cloud_champion_wind -->
<g id="node26" class="node">
<title>cloud_champion_wind</title>
<path fill="#90caf9" stroke="black" d="M529.5,-911C529.5,-911 381.5,-911 381.5,-911 375.5,-911 369.5,-905 369.5,-899 369.5,-899 369.5,-887 369.5,-887 369.5,-881 375.5,-875 381.5,-875 381.5,-875 529.5,-875 529.5,-875 535.5,-875 541.5,-881 541.5,-887 541.5,-887 541.5,-899 541.5,-899 541.5,-905 535.5,-911 529.5,-911"/>
<text text-anchor="middle" x="455.5" y="-889.3" font-family="Times,serif" font-size="14.00">cloud_champion_wind</text>
</g>
<!-- cloud_rookie&#45;&gt;cloud_champion_wind -->
<g id="edge45" class="edge">
<title>cloud_rookie&#45;&gt;cloud_champion_wind</title>
<path fill="none" stroke="#7e57c2" d="M296.11,-933.05C312.11,-928.81 329.77,-924.17 346,-920 354.33,-917.86 363.03,-915.65 371.72,-913.46"/>
<polygon fill="#7e57c2" stroke="#7e57c2" points="372.66,-916.84 381.51,-911.01 370.96,-910.05 372.66,-916.84"/>
</g>
<!-- cloud_champion_rain -->
<g id="node27" class="node">
<title>cloud_champion_rain</title>
<path fill="#90caf9" stroke="black" d="M526.5,-965C526.5,-965 384.5,-965 384.5,-965 378.5,-965 372.5,-959 372.5,-953 372.5,-953 372.5,-941 372.5,-941 372.5,-935 378.5,-929 384.5,-929 384.5,-929 526.5,-929 526.5,-929 532.5,-929 538.5,-935 538.5,-941 538.5,-941 538.5,-953 538.5,-953 538.5,-959 532.5,-965 526.5,-965"/>
<text text-anchor="middle" x="455.5" y="-943.3" font-family="Times,serif" font-size="14.00">cloud_champion_rain</text>
</g>
<!-- cloud_rookie&#45;&gt;cloud_champion_rain -->
<g id="edge46" class="edge">
<title>cloud_rookie&#45;&gt;cloud_champion_rain</title>
<path fill="none" stroke="#7e57c2" d="M296.03,-947C316.08,-947 339.62,-947 362.33,-947"/>
<polygon fill="#7e57c2" stroke="#7e57c2" points="362.35,-950.5 372.35,-947 362.35,-943.5 362.35,-950.5"/>
</g>
<!-- cloud_champion_storm -->
<g id="node28" class="node">
<title>cloud_champion_storm</title>
<path fill="#90caf9" stroke="black" d="M533,-1019C533,-1019 378,-1019 378,-1019 372,-1019 366,-1013 366,-1007 366,-1007 366,-995 366,-995 366,-989 372,-983 378,-983 378,-983 533,-983 533,-983 539,-983 545,-989 545,-995 545,-995 545,-1007 545,-1007 545,-1013 539,-1019 533,-1019"/>
<text text-anchor="middle" x="455.5" y="-997.3" font-family="Times,serif" font-size="14.00">cloud_champion_storm</text>
</g>
<!-- cloud_rookie&#45;&gt;cloud_champion_storm -->
<g id="edge47" class="edge">
<title>cloud_rookie&#45;&gt;cloud_champion_storm</title>
<path fill="none" stroke="#7e57c2" d="M296.11,-960.95C312.11,-965.19 329.77,-969.83 346,-974 354.33,-976.14 363.03,-978.35 371.72,-980.54"/>
<polygon fill="#7e57c2" stroke="#7e57c2" points="370.96,-983.95 381.51,-982.99 372.66,-977.16 370.96,-983.95"/>
</g>
<!-- cloud_final_jetstream -->
<g id="node66" class="node">
<title>cloud_final_jetstream</title>
<path fill="lightgrey" stroke="black" d="M772,-965C772,-965 628,-965 628,-965 622,-965 616,-959 616,-953 616,-953 616,-941 616,-941 616,-935 622,-929 628,-929 628,-929 772,-929 772,-929 778,-929 784,-935 784,-941 784,-941 784,-953 784,-953 784,-959 778,-965 772,-965"/>
<text text-anchor="middle" x="700" y="-943.3" font-family="Times,serif" font-size="14.00">cloud_final_jetstream</text>
</g>
<!-- cloud_champion_wind&#45;&gt;cloud_final_jetstream -->
<g id="edge48" class="edge">
<title>cloud_champion_wind&#45;&gt;cloud_final_jetstream</title>
<path fill="none" stroke="#7e57c2" d="M537.59,-911.06C560.24,-916.1 584.99,-921.61 608.17,-926.77"/>
<polygon fill="#7e57c2" stroke="#7e57c2" points="607.47,-930.2 617.99,-928.96 608.99,-923.37 607.47,-930.2"/>
</g>
<!-- cloud_final_halo -->
<g id="node67" class="node">
<title>cloud_final_halo</title>
<path fill="lightgrey" stroke="black" d="M752.5,-911C752.5,-911 647.5,-911 647.5,-911 641.5,-911 635.5,-905 635.5,-899 635.5,-899 635.5,-887 635.5,-887 635.5,-881 641.5,-875 647.5,-875 647.5,-875 752.5,-875 752.5,-875 758.5,-875 764.5,-881 764.5,-887 764.5,-887 764.5,-899 764.5,-899 764.5,-905 758.5,-911 752.5,-911"/>
<text text-anchor="middle" x="700" y="-889.3" font-family="Times,serif" font-size="14.00">cloud_final_halo</text>
</g>
<!-- cloud_champion_wind&#45;&gt;cloud_final_halo -->
<g id="edge49" class="edge">
<title>cloud_champion_wind&#45;&gt;cloud_final_halo</title>
<path fill="none" stroke="#7e57c2" d="M541.66,-893C568.88,-893 598.78,-893 625.14,-893"/>
<polygon fill="#7e57c2" stroke="#7e57c2" points="625.43,-896.5 635.43,-893 625.43,-889.5 625.43,-896.5"/>
</g>
<!-- cloud_champion_rain&#45;&gt;cloud_final_halo -->
<g id="edge50" class="edge">
<title>cloud_champion_rain&#45;&gt;cloud_final_halo</title>
<path fill="none" stroke="#7e57c2" d="M537.59,-928.94C565.91,-922.64 597.54,-915.59 625.24,-909.43"/>
<polygon fill="#7e57c2" stroke="#7e57c2" points="626.25,-912.79 635.25,-907.2 624.73,-905.95 626.25,-912.79"/>
</g>
<!-- cloud_final_tempest -->
<g id="node68" class="node">
<title>cloud_final_tempest</title>
<path fill="lightgrey" stroke="black" d="M767,-1019C767,-1019 633,-1019 633,-1019 627,-1019 621,-1013 621,-1007 621,-1007 621,-995 621,-995 621,-989 627,-983 633,-983 633,-983 767,-983 767,-983 773,-983 779,-989 779,-995 779,-995 779,-1007 779,-1007 779,-1013 773,-1019 767,-1019"/>
<text text-anchor="middle" x="700" y="-997.3" font-family="Times,serif" font-size="14.00">cloud_final_tempest</text>
</g>
<!-- cloud_champion_rain&#45;&gt;cloud_final_tempest -->
<g id="edge51" class="edge">
<title>cloud_champion_rain&#45;&gt;cloud_final_tempest</title>
<path fill="none" stroke="#7e57c2" d="M537.59,-965.06C561.18,-970.31 587.07,-976.08 611.07,-981.42"/>
<polygon fill="#7e57c2" stroke="#7e57c2" points="610.35,-984.84 620.87,-983.6 611.87,-978.01 610.35,-984.84"/>
</g>
<!-- cloud_champion_storm&#45;&gt;cloud_final_jetstream -->
<g id="edge53" class="edge">
<title>cloud_champion_storm&#45;&gt;cloud_final_jetstream</title>
<path fill="none" stroke="#7e57c2" d="M537.59,-982.94C560.24,-977.9 584.99,-972.39 608.17,-967.23"/>
<polygon fill="#7e57c2" stroke="#7e57c2" points="608.99,-970.63 617.99,-965.04 607.47,-963.8 608.99,-970.63"/>
</g>
<!-- cloud_champion_storm&#45;&gt;cloud_final_tempest -->
<g id="edge52" class="edge">
<title>cloud_champion_storm&#45;&gt;cloud_final_tempest</title>
<path fill="none" stroke="#7e57c2" d="M545.08,-1001C566.45,-1001 589.29,-1001 610.65,-1001"/>
<polygon fill="#7e57c2" stroke="#7e57c2" points="610.68,-1004.5 620.68,-1001 610.68,-997.5 610.68,-1004.5"/>
</g>
<!-- firewall_baby -->
<g id="node29" class="node">
<title>firewall_baby</title>
<path fill="#ff8a65" stroke="black" d="M121.5,-1156C121.5,-1156 34.5,-1156 34.5,-1156 28.5,-1156 22.5,-1150 22.5,-1144 22.5,-1144 22.5,-1132 22.5,-1132 22.5,-1126 28.5,-1120 34.5,-1120 34.5,-1120 121.5,-1120 121.5,-1120 127.5,-1120 133.5,-1126 133.5,-1132 133.5,-1132 133.5,-1144 133.5,-1144 133.5,-1150 127.5,-1156 121.5,-1156"/>
<text text-anchor="middle" x="78" y="-1134.3" font-family="Times,serif" font-size="14.00">firewall_baby</text>
</g>
<!-- firewall_rookie -->
<g id="node30" class="node">
<title>firewall_rookie</title>
<path fill="#ff8a65" stroke="black" d="M291.5,-1156C291.5,-1156 194.5,-1156 194.5,-1156 188.5,-1156 182.5,-1150 182.5,-1144 182.5,-1144 182.5,-1132 182.5,-1132 182.5,-1126 188.5,-1120 194.5,-1120 194.5,-1120 291.5,-1120 291.5,-1120 297.5,-1120 303.5,-1126 303.5,-1132 303.5,-1132 303.5,-1144 303.5,-1144 303.5,-1150 297.5,-1156 291.5,-1156"/>
<text text-anchor="middle" x="243" y="-1134.3" font-family="Times,serif" font-size="14.00">firewall_rookie</text>
</g>
<!-- firewall_baby&#45;&gt;firewall_rookie -->
<g id="edge54" class="edge">
<title>firewall_baby&#45;&gt;firewall_rookie</title>
<path fill="none" stroke="black" d="M133.73,-1138C146.06,-1138 159.32,-1138 172.17,-1138"/>
<polygon fill="black" stroke="black" points="172.38,-1141.5 182.38,-1138 172.38,-1134.5 172.38,-1141.5"/>
</g>
<!-- firewall_champion_barrier -->
<g id="node31" class="node">
<title>firewall_champion_barrier</title>
<path fill="#ff8a65" stroke="black" d="M545,-1102C545,-1102 366,-1102 366,-1102 360,-1102 354,-1096 354,-1090 354,-1090 354,-1078 354,-1078 354,-1072 360,-1066 366,-1066 366,-1066 545,-1066 545,-1066 551,-1066 557,-1072 557,-1078 557,-1078 557,-1090 557,-1090 557,-1096 551,-1102 545,-1102"/>
<text text-anchor="middle" x="455.5" y="-1080.3" font-family="Times,serif" font-size="14.00">firewall_champion_barrier</text>
</g>
<!-- firewall_rookie&#45;&gt;firewall_champion_barrier -->
<g id="edge55" class="edge">
<title>firewall_rookie&#45;&gt;firewall_champion_barrier</title>
<path fill="none" stroke="#7e57c2" d="M303.56,-1122.07C317.48,-1118.4 332.25,-1114.53 346,-1111 354.33,-1108.86 363.03,-1106.65 371.72,-1104.46"/>
<polygon fill="#7e57c2" stroke="#7e57c2" points="372.66,-1107.84 381.51,-1102.01 370.96,-1101.05 372.66,-1107.84"/>
</g>
<!-- firewall_champion_counter -->
<g id="node32" class="node">
<title>firewall_champion_counter</title>
<path fill="#ff8a65" stroke="black" d="M547,-1210C547,-1210 364,-1210 364,-1210 358,-1210 352,-1204 352,-1198 352,-1198 352,-1186 352,-1186 352,-1180 358,-1174 364,-1174 364,-1174 547,-1174 547,-1174 553,-1174 559,-1180 559,-1186 559,-1186 559,-1198 559,-1198 559,-1204 553,-1210 547,-1210"/>
<text text-anchor="middle" x="455.5" y="-1188.3" font-family="Times,serif" font-size="14.00">firewall_champion_counter</text>
</g>
<!-- firewall_rookie&#45;&gt;firewall_champion_counter -->
<g id="edge56" class="edge">
<title>firewall_rookie&#45;&gt;firewall_champion_counter</title>
<path fill="none" stroke="#7e57c2" d="M303.56,-1153.93C317.48,-1157.6 332.25,-1161.47 346,-1165 354.33,-1167.14 363.03,-1169.35 371.72,-1171.54"/>
<polygon fill="#7e57c2" stroke="#7e57c2" points="370.96,-1174.95 381.51,-1173.99 372.66,-1168.16 370.96,-1174.95"/>
</g>
<!-- firewall_champion_patch -->
<g id="node33" class="node">
<title>firewall_champion_patch</title>
<path fill="#ff8a65" stroke="black" d="M539.5,-1156C539.5,-1156 371.5,-1156 371.5,-1156 365.5,-1156 359.5,-1150 359.5,-1144 359.5,-1144 359.5,-1132 359.5,-1132 359.5,-1126 365.5,-1120 371.5,-1120 371.5,-1120 539.5,-1120 539.5,-1120 545.5,-1120 551.5,-1126 551.5,-1132 551.5,-1132 551.5,-1144 551.5,-1144 551.5,-1150 545.5,-1156 539.5,-1156"/>
<text text-anchor="middle" x="455.5" y="-1134.3" font-family="Times,serif" font-size="14.00">firewall_champion_patch</text>
</g>
<!-- firewall_rookie&#45;&gt;firewall_champion_patch -->
<g id="edge57" class="edge">
<title>firewall_rookie&#45;&gt;firewall_champion_patch</title>
<path fill="none" stroke="#7e57c2" d="M303.76,-1138C317.92,-1138 333.43,-1138 348.96,-1138"/>
<polygon fill="#7e57c2" stroke="#7e57c2" points="349.15,-1141.5 359.15,-1138 349.15,-1134.5 349.15,-1141.5"/>
</g>
<!-- firewall_final_fortress -->
<g id="node69" class="node">
<title>firewall_final_fortress</title>
<path fill="lightgrey" stroke="black" d="M773,-1102C773,-1102 627,-1102 627,-1102 621,-1102 615,-1096 615,-1090 615,-1090 615,-1078 615,-1078 615,-1072 621,-1066 627,-1066 627,-1066 773,-1066 773,-1066 779,-1066 785,-1072 785,-1078 785,-1078 785,-1090 785,-1090 785,-1096 779,-1102 773,-1102"/>
<text text-anchor="middle" x="700" y="-1080.3" font-family="Times,serif" font-size="14.00">firewall_final_fortress</text>
</g>
<!-- firewall_champion_barrier&#45;&gt;firewall_final_fortress -->
<g id="edge58" class="edge">
<title>firewall_champion_barrier&#45;&gt;firewall_final_fortress</title>
<path fill="none" stroke="#7e57c2" d="M557.24,-1084C572.93,-1084 589.09,-1084 604.63,-1084"/>
<polygon fill="#7e57c2" stroke="#7e57c2" points="604.75,-1087.5 614.75,-1084 604.75,-1080.5 604.75,-1087.5"/>
</g>
<!-- firewall_final_protocol -->
<g id="node70" class="node">
<title>firewall_final_protocol</title>
<path fill="lightgrey" stroke="black" d="M774.5,-1156C774.5,-1156 625.5,-1156 625.5,-1156 619.5,-1156 613.5,-1150 613.5,-1144 613.5,-1144 613.5,-1132 613.5,-1132 613.5,-1126 619.5,-1120 625.5,-1120 625.5,-1120 774.5,-1120 774.5,-1120 780.5,-1120 786.5,-1126 786.5,-1132 786.5,-1132 786.5,-1144 786.5,-1144 786.5,-1150 780.5,-1156 774.5,-1156"/>
<text text-anchor="middle" x="700" y="-1134.3" font-family="Times,serif" font-size="14.00">firewall_final_protocol</text>
</g>
<!-- firewall_champion_barrier&#45;&gt;firewall_final_protocol -->
<g id="edge59" class="edge">
<title>firewall_champion_barrier&#45;&gt;firewall_final_protocol</title>
<path fill="none" stroke="#7e57c2" d="M537.59,-1102.06C560.24,-1107.1 584.99,-1112.61 608.17,-1117.77"/>
<polygon fill="#7e57c2" stroke="#7e57c2" points="607.47,-1121.2 617.99,-1119.96 608.99,-1114.37 607.47,-1121.2"/>
</g>
<!-- firewall_champion_counter&#45;&gt;firewall_final_protocol -->
<g id="edge61" class="edge">
<title>firewall_champion_counter&#45;&gt;firewall_final_protocol</title>
<path fill="none" stroke="#7e57c2" d="M537.59,-1173.94C560.24,-1168.9 584.99,-1163.39 608.17,-1158.23"/>
<polygon fill="#7e57c2" stroke="#7e57c2" points="608.99,-1161.63 617.99,-1156.04 607.47,-1154.8 608.99,-1161.63"/>
</g>
<!-- firewall_final_retaliate -->
<g id="node71" class="node">
<title>firewall_final_retaliate</title>
<path fill="lightgrey" stroke="black" d="M775.5,-1210C775.5,-1210 624.5,-1210 624.5,-1210 618.5,-1210 612.5,-1204 612.5,-1198 612.5,-1198 612.5,-1186 612.5,-1186 612.5,-1180 618.5,-1174 624.5,-1174 624.5,-1174 775.5,-1174 775.5,-1174 781.5,-1174 787.5,-1180 787.5,-1186 787.5,-1186 787.5,-1198 787.5,-1198 787.5,-1204 781.5,-1210 775.5,-1210"/>
<text text-anchor="middle" x="700" y="-1188.3" font-family="Times,serif" font-size="14.00">firewall_final_retaliate</text>
</g>
<!-- firewall_champion_counter&#45;&gt;firewall_final_retaliate -->
<g id="edge60" class="edge">
<title>firewall_champion_counter&#45;&gt;firewall_final_retaliate</title>
<path fill="none" stroke="#7e57c2" d="M559.34,-1192C573.57,-1192 588.15,-1192 602.27,-1192"/>
<polygon fill="#7e57c2" stroke="#7e57c2" points="602.45,-1195.5 612.45,-1192 602.45,-1188.5 602.45,-1195.5"/>
</g>
<!-- firewall_champion_patch&#45;&gt;firewall_final_fortress -->
<g id="edge63" class="edge">
<title>firewall_champion_patch&#45;&gt;firewall_final_fortress</title>
<path fill="none" stroke="#7e57c2" d="M537.59,-1119.94C560.24,-1114.9 584.99,-1109.39 608.17,-1104.23"/>
<polygon fill="#7e57c2" stroke="#7e57c2" points="608.99,-1107.63 617.99,-1102.04 607.47,-1100.8 608.99,-1107.63"/>
</g>
<!-- firewall_champion_patch&#45;&gt;firewall_final_protocol -->
<g id="edge62" class="edge">
<title>firewall_champion_patch&#45;&gt;firewall_final_protocol</title>
<path fill="none" stroke="#7e57c2" d="M551.65,-1138C568.46,-1138 585.97,-1138 602.81,-1138"/>
<polygon fill="#7e57c2" stroke="#7e57c2" points="603.2,-1141.5 613.2,-1138 603.2,-1134.5 603.2,-1141.5"/>
</g>
<!-- pulse_baby -->
<g id="node34" class="node">
<title>pulse_baby</title>
<path fill="#f06292" stroke="black" d="M114,-1347C114,-1347 42,-1347 42,-1347 36,-1347 30,-1341 30,-1335 30,-1335 30,-1323 30,-1323 30,-1317 36,-1311 42,-1311 42,-1311 114,-1311 114,-1311 120,-1311 126,-1317 126,-1323 126,-1323 126,-1335 126,-1335 126,-1341 120,-1347 114,-1347"/>
<text text-anchor="middle" x="78" y="-1325.3" font-family="Times,serif" font-size="14.00">pulse_baby</text>
</g>
<!-- pulse_rookie -->
<g id="node35" class="node">
<title>pulse_rookie</title>
<path fill="#f06292" stroke="black" d="M284,-1347C284,-1347 202,-1347 202,-1347 196,-1347 190,-1341 190,-1335 190,-1335 190,-1323 190,-1323 190,-1317 196,-1311 202,-1311 202,-1311 284,-1311 284,-1311 290,-1311 296,-1317 296,-1323 296,-1323 296,-1335 296,-1335 296,-1341 290,-1347 284,-1347"/>
<text text-anchor="middle" x="243" y="-1325.3" font-family="Times,serif" font-size="14.00">pulse_rookie</text>
</g>
<!-- pulse_baby&#45;&gt;pulse_rookie -->
<g id="edge64" class="edge">
<title>pulse_baby&#45;&gt;pulse_rookie</title>
<path fill="none" stroke="black" d="M126.15,-1329C142.81,-1329 161.82,-1329 179.55,-1329"/>
<polygon fill="black" stroke="black" points="179.82,-1332.5 189.82,-1329 179.82,-1325.5 179.82,-1332.5"/>
</g>
<!-- pulse_champion_surge -->
<g id="node36" class="node">
<title>pulse_champion_surge</title>
<path fill="#f06292" stroke="black" d="M532.5,-1293C532.5,-1293 378.5,-1293 378.5,-1293 372.5,-1293 366.5,-1287 366.5,-1281 366.5,-1281 366.5,-1269 366.5,-1269 366.5,-1263 372.5,-1257 378.5,-1257 378.5,-1257 532.5,-1257 532.5,-1257 538.5,-1257 544.5,-1263 544.5,-1269 544.5,-1269 544.5,-1281 544.5,-1281 544.5,-1287 538.5,-1293 532.5,-1293"/>
<text text-anchor="middle" x="455.5" y="-1271.3" font-family="Times,serif" font-size="14.00">pulse_champion_surge</text>
</g>
<!-- pulse_rookie&#45;&gt;pulse_champion_surge -->
<g id="edge65" class="edge">
<title>pulse_rookie&#45;&gt;pulse_champion_surge</title>
<path fill="none" stroke="#7e57c2" d="M296.11,-1315.05C312.11,-1310.81 329.77,-1306.17 346,-1302 354.33,-1299.86 363.03,-1297.65 371.72,-1295.46"/>
<polygon fill="#7e57c2" stroke="#7e57c2" points="372.66,-1298.84 381.51,-1293.01 370.96,-1292.05 372.66,-1298.84"/>
</g>
<!-- pulse_champion_resonance -->
<g id="node37" class="node">
<title>pulse_champion_resonance</title>
<path fill="#f06292" stroke="black" d="M548.5,-1347C548.5,-1347 362.5,-1347 362.5,-1347 356.5,-1347 350.5,-1341 350.5,-1335 350.5,-1335 350.5,-1323 350.5,-1323 350.5,-1317 356.5,-1311 362.5,-1311 362.5,-1311 548.5,-1311 548.5,-1311 554.5,-1311 560.5,-1317 560.5,-1323 560.5,-1323 560.5,-1335 560.5,-1335 560.5,-1341 554.5,-1347 548.5,-1347"/>
<text text-anchor="middle" x="455.5" y="-1325.3" font-family="Times,serif" font-size="14.00">pulse_champion_resonance</text>
</g>
<!-- pulse_rookie&#45;&gt;pulse_champion_resonance -->
<g id="edge66" class="edge">
<title>pulse_rookie&#45;&gt;pulse_champion_resonance</title>
<path fill="none" stroke="#7e57c2" d="M296.03,-1329C309.62,-1329 324.8,-1329 340.25,-1329"/>
<polygon fill="#7e57c2" stroke="#7e57c2" points="340.43,-1332.5 350.43,-1329 340.43,-1325.5 340.43,-1332.5"/>
</g>
<!-- pulse_champion_static -->
<g id="node38" class="node">
<title>pulse_champion_static</title>
<path fill="#f06292" stroke="black" d="M532,-1401C532,-1401 379,-1401 379,-1401 373,-1401 367,-1395 367,-1389 367,-1389 367,-1377 367,-1377 367,-1371 373,-1365 379,-1365 379,-1365 532,-1365 532,-1365 538,-1365 544,-1371 544,-1377 544,-1377 544,-1389 544,-1389 544,-1395 538,-1401 532,-1401"/>
<text text-anchor="middle" x="455.5" y="-1379.3" font-family="Times,serif" font-size="14.00">pulse_champion_static</text>
</g>
<!-- pulse_rookie&#45;&gt;pulse_champion_static -->
<g id="edge67" class="edge">
<title>pulse_rookie&#45;&gt;pulse_champion_static</title>
<path fill="none" stroke="#7e57c2" d="M296.11,-1342.95C312.11,-1347.19 329.77,-1351.83 346,-1356 354.33,-1358.14 363.03,-1360.35 371.72,-1362.54"/>
<polygon fill="#7e57c2" stroke="#7e57c2" points="370.96,-1365.95 381.51,-1364.99 372.66,-1359.16 370.96,-1365.95"/>
</g>
<!-- pulse_final_overdrive -->
<g id="node72" class="node">
<title>pulse_final_overdrive</title>
<path fill="lightgrey" stroke="black" d="M771.5,-1347C771.5,-1347 628.5,-1347 628.5,-1347 622.5,-1347 616.5,-1341 616.5,-1335 616.5,-1335 616.5,-1323 616.5,-1323 616.5,-1317 622.5,-1311 628.5,-1311 628.5,-1311 771.5,-1311 771.5,-1311 777.5,-1311 783.5,-1317 783.5,-1323 783.5,-1323 783.5,-1335 783.5,-1335 783.5,-1341 777.5,-1347 771.5,-1347"/>
<text text-anchor="middle" x="700" y="-1325.3" font-family="Times,serif" font-size="14.00">pulse_final_overdrive</text>
</g>
<!-- pulse_champion_surge&#45;&gt;pulse_final_overdrive -->
<g id="edge68" class="edge">
<title>pulse_champion_surge&#45;&gt;pulse_final_overdrive</title>
<path fill="none" stroke="#7e57c2" d="M537.59,-1293.06C560.24,-1298.1 584.99,-1303.61 608.17,-1308.77"/>
<polygon fill="#7e57c2" stroke="#7e57c2" points="607.47,-1312.2 617.99,-1310.96 608.99,-1305.37 607.47,-1312.2"/>
</g>
<!-- pulse_final_sync -->
<g id="node73" class="node">
<title>pulse_final_sync</title>
<path fill="lightgrey" stroke="black" d="M753.5,-1293C753.5,-1293 646.5,-1293 646.5,-1293 640.5,-1293 634.5,-1287 634.5,-1281 634.5,-1281 634.5,-1269 634.5,-1269 634.5,-1263 640.5,-1257 646.5,-1257 646.5,-1257 753.5,-1257 753.5,-1257 759.5,-1257 765.5,-1263 765.5,-1269 765.5,-1269 765.5,-1281 765.5,-1281 765.5,-1287 759.5,-1293 753.5,-1293"/>
<text text-anchor="middle" x="700" y="-1271.3" font-family="Times,serif" font-size="14.00">pulse_final_sync</text>
</g>
<!-- pulse_champion_surge&#45;&gt;pulse_final_sync -->
<g id="edge69" class="edge">
<title>pulse_champion_surge&#45;&gt;pulse_final_sync</title>
<path fill="none" stroke="#7e57c2" d="M544.73,-1275C570.8,-1275 599.07,-1275 624.2,-1275"/>
<polygon fill="#7e57c2" stroke="#7e57c2" points="624.4,-1278.5 634.4,-1275 624.4,-1271.5 624.4,-1278.5"/>
</g>
<!-- pulse_champion_resonance&#45;&gt;pulse_final_sync -->
<g id="edge70" class="edge">
<title>pulse_champion_resonance&#45;&gt;pulse_final_sync</title>
<path fill="none" stroke="#7e57c2" d="M537.59,-1310.94C565.67,-1304.69 596.99,-1297.72 624.52,-1291.59"/>
<polygon fill="#7e57c2" stroke="#7e57c2" points="625.47,-1294.96 634.47,-1289.37 623.95,-1288.13 625.47,-1294.96"/>
</g>
<!-- pulse_final_staticstorm -->
<g id="node74" class="node">
<title>pulse_final_staticstorm</title>
<path fill="lightgrey" stroke="black" d="M778.5,-1401C778.5,-1401 621.5,-1401 621.5,-1401 615.5,-1401 609.5,-1395 609.5,-1389 609.5,-1389 609.5,-1377 609.5,-1377 609.5,-1371 615.5,-1365 621.5,-1365 621.5,-1365 778.5,-1365 778.5,-1365 784.5,-1365 790.5,-1371 790.5,-1377 790.5,-1377 790.5,-1389 790.5,-1389 790.5,-1395 784.5,-1401 778.5,-1401"/>
<text text-anchor="middle" x="700" y="-1379.3" font-family="Times,serif" font-size="14.00">pulse_final_staticstorm</text>
</g>
<!-- pulse_champion_resonance&#45;&gt;pulse_final_staticstorm -->
<g id="edge71" class="edge">
<title>pulse_champion_resonance&#45;&gt;pulse_final_staticstorm</title>
<path fill="none" stroke="#7e57c2" d="M537.59,-1347.06C560.24,-1352.1 584.99,-1357.61 608.17,-1362.77"/>
<polygon fill="#7e57c2" stroke="#7e57c2" points="607.47,-1366.2 617.99,-1364.96 608.99,-1359.37 607.47,-1366.2"/>
</g>
<!-- pulse_champion_static&#45;&gt;pulse_final_overdrive -->
<g id="edge73" class="edge">
<title>pulse_champion_static&#45;&gt;pulse_final_overdrive</title>
<path fill="none" stroke="#7e57c2" d="M537.59,-1364.94C560.24,-1359.9 584.99,-1354.39 608.17,-1349.23"/>
<polygon fill="#7e57c2" stroke="#7e57c2" points="608.99,-1352.63 617.99,-1347.04 607.47,-1345.8 608.99,-1352.63"/>
</g>
<!-- pulse_champion_static&#45;&gt;pulse_final_staticstorm -->
<g id="edge72" class="edge">
<title>pulse_champion_static&#45;&gt;pulse_final_staticstorm</title>
<path fill="none" stroke="#7e57c2" d="M544.05,-1383C561.91,-1383 580.82,-1383 599.07,-1383"/>
<polygon fill="#7e57c2" stroke="#7e57c2" points="599.13,-1386.5 609.13,-1383 599.13,-1379.5 599.13,-1386.5"/>
</g>
<!-- corrupt_baby -->
<g id="node39" class="node">
<title>corrupt_baby</title>
<path fill="#ef5350" stroke="black" d="M121.5,-1538C121.5,-1538 34.5,-1538 34.5,-1538 28.5,-1538 22.5,-1532 22.5,-1526 22.5,-1526 22.5,-1514 22.5,-1514 22.5,-1508 28.5,-1502 34.5,-1502 34.5,-1502 121.5,-1502 121.5,-1502 127.5,-1502 133.5,-1508 133.5,-1514 133.5,-1514 133.5,-1526 133.5,-1526 133.5,-1532 127.5,-1538 121.5,-1538"/>
<text text-anchor="middle" x="78" y="-1516.3" font-family="Times,serif" font-size="14.00">corrupt_baby</text>
</g>
<!-- corrupt_rookie -->
<g id="node40" class="node">
<title>corrupt_rookie</title>
<path fill="#ef5350" stroke="black" d="M291.5,-1538C291.5,-1538 194.5,-1538 194.5,-1538 188.5,-1538 182.5,-1532 182.5,-1526 182.5,-1526 182.5,-1514 182.5,-1514 182.5,-1508 188.5,-1502 194.5,-1502 194.5,-1502 291.5,-1502 291.5,-1502 297.5,-1502 303.5,-1508 303.5,-1514 303.5,-1514 303.5,-1526 303.5,-1526 303.5,-1532 297.5,-1538 291.5,-1538"/>
<text text-anchor="middle" x="243" y="-1516.3" font-family="Times,serif" font-size="14.00">corrupt_rookie</text>
</g>
<!-- corrupt_baby&#45;&gt;corrupt_rookie -->
<g id="edge74" class="edge">
<title>corrupt_baby&#45;&gt;corrupt_rookie</title>
<path fill="none" stroke="black" d="M133.73,-1520C146.06,-1520 159.32,-1520 172.17,-1520"/>
<polygon fill="black" stroke="black" points="172.38,-1523.5 182.38,-1520 172.38,-1516.5 172.38,-1523.5"/>
</g>
<!-- corrupt_champion_glitch -->
<g id="node41" class="node">
<title>corrupt_champion_glitch</title>
<path fill="#ef5350" stroke="black" d="M540,-1538C540,-1538 371,-1538 371,-1538 365,-1538 359,-1532 359,-1526 359,-1526 359,-1514 359,-1514 359,-1508 365,-1502 371,-1502 371,-1502 540,-1502 540,-1502 546,-1502 552,-1508 552,-1514 552,-1514 552,-1526 552,-1526 552,-1532 546,-1538 540,-1538"/>
<text text-anchor="middle" x="455.5" y="-1516.3" font-family="Times,serif" font-size="14.00">corrupt_champion_glitch</text>
</g>
<!-- corrupt_rookie&#45;&gt;corrupt_champion_glitch -->
<g id="edge75" class="edge">
<title>corrupt_rookie&#45;&gt;corrupt_champion_glitch</title>
<path fill="none" stroke="#7e57c2" d="M303.76,-1520C317.82,-1520 333.22,-1520 348.63,-1520"/>
<polygon fill="#7e57c2" stroke="#7e57c2" points="348.75,-1523.5 358.75,-1520 348.75,-1516.5 348.75,-1523.5"/>
</g>
<!-- corrupt_champion_error -->
<g id="node42" class="node">
<title>corrupt_champion_error</title>
<path fill="#ef5350" stroke="black" d="M538,-1592C538,-1592 373,-1592 373,-1592 367,-1592 361,-1586 361,-1580 361,-1580 361,-1568 361,-1568 361,-1562 367,-1556 373,-1556 373,-1556 538,-1556 538,-1556 544,-1556 550,-1562 550,-1568 550,-1568 550,-1580 550,-1580 550,-1586 544,-1592 538,-1592"/>
<text text-anchor="middle" x="455.5" y="-1570.3" font-family="Times,serif" font-size="14.00">corrupt_champion_error</text>
</g>
<!-- corrupt_rookie&#45;&gt;corrupt_champion_error -->
<g id="edge76" class="edge">
<title>corrupt_rookie&#45;&gt;corrupt_champion_error</title>
<path fill="none" stroke="#7e57c2" d="M303.56,-1535.93C317.48,-1539.6 332.25,-1543.47 346,-1547 354.33,-1549.14 363.03,-1551.35 371.72,-1553.54"/>
<polygon fill="#7e57c2" stroke="#7e57c2" points="370.96,-1556.95 381.51,-1555.99 372.66,-1550.16 370.96,-1556.95"/>
</g>
<!-- corrupt_champion_patchfail -->
<g id="node43" class="node">
<title>corrupt_champion_patchfail</title>
<path fill="#ef5350" stroke="black" d="M551,-1484C551,-1484 360,-1484 360,-1484 354,-1484 348,-1478 348,-1472 348,-1472 348,-1460 348,-1460 348,-1454 354,-1448 360,-1448 360,-1448 551,-1448 551,-1448 557,-1448 563,-1454 563,-1460 563,-1460 563,-1472 563,-1472 563,-1478 557,-1484 551,-1484"/>
<text text-anchor="middle" x="455.5" y="-1462.3" font-family="Times,serif" font-size="14.00">corrupt_champion_patchfail</text>
</g>
<!-- corrupt_rookie&#45;&gt;corrupt_champion_patchfail -->
<g id="edge77" class="edge">
<title>corrupt_rookie&#45;&gt;corrupt_champion_patchfail</title>
<path fill="none" stroke="#7e57c2" d="M303.56,-1504.07C317.48,-1500.4 332.25,-1496.53 346,-1493 354.33,-1490.86 363.03,-1488.65 371.72,-1486.46"/>
<polygon fill="#7e57c2" stroke="#7e57c2" points="372.66,-1489.84 381.51,-1484.01 370.96,-1483.05 372.66,-1489.84"/>
</g>
<!-- corrupt_final_corruptcore -->
<g id="node75" class="node">
<title>corrupt_final_corruptcore</title>
<path fill="lightgrey" stroke="black" d="M787,-1565C787,-1565 613,-1565 613,-1565 607,-1565 601,-1559 601,-1553 601,-1553 601,-1541 601,-1541 601,-1535 607,-1529 613,-1529 613,-1529 787,-1529 787,-1529 793,-1529 799,-1535 799,-1541 799,-1541 799,-1553 799,-1553 799,-1559 793,-1565 787,-1565"/>
<text text-anchor="middle" x="700" y="-1543.3" font-family="Times,serif" font-size="14.00">corrupt_final_corruptcore</text>
</g>
<!-- corrupt_champion_glitch&#45;&gt;corrupt_final_corruptcore -->
<g id="edge78" class="edge">
<title>corrupt_champion_glitch&#45;&gt;corrupt_final_corruptcore</title>
<path fill="none" stroke="#7e57c2" d="M552.34,-1530.67C564.88,-1532.07 577.79,-1533.5 590.52,-1534.92"/>
<polygon fill="#7e57c2" stroke="#7e57c2" points="590.35,-1538.42 600.67,-1536.05 591.12,-1531.47 590.35,-1538.42"/>
</g>
<!-- corrupt_final_overrun -->
<g id="node76" class="node">
<title>corrupt_final_overrun</title>
<path fill="lightgrey" stroke="black" d="M773,-1511C773,-1511 627,-1511 627,-1511 621,-1511 615,-1505 615,-1499 615,-1499 615,-1487 615,-1487 615,-1481 621,-1475 627,-1475 627,-1475 773,-1475 773,-1475 779,-1475 785,-1481 785,-1487 785,-1487 785,-1499 785,-1499 785,-1505 779,-1511 773,-1511"/>
<text text-anchor="middle" x="700" y="-1489.3" font-family="Times,serif" font-size="14.00">corrupt_final_overrun</text>
</g>
<!-- corrupt_champion_glitch&#45;&gt;corrupt_final_overrun -->
<g id="edge79" class="edge">
<title>corrupt_champion_glitch&#45;&gt;corrupt_final_overrun</title>
<path fill="none" stroke="#7e57c2" d="M552.34,-1509.33C569.61,-1507.41 587.59,-1505.4 604.81,-1503.49"/>
<polygon fill="#7e57c2" stroke="#7e57c2" points="605.29,-1506.96 614.84,-1502.37 604.52,-1500 605.29,-1506.96"/>
</g>
<!-- corrupt_champion_error&#45;&gt;corrupt_final_corruptcore -->
<g id="edge81" class="edge">
<title>corrupt_champion_error&#45;&gt;corrupt_final_corruptcore</title>
<path fill="none" stroke="#7e57c2" d="M550.26,-1563.56C563.43,-1562.09 577.05,-1560.58 590.47,-1559.08"/>
<polygon fill="#7e57c2" stroke="#7e57c2" points="591.13,-1562.53 600.68,-1557.95 590.35,-1555.58 591.13,-1562.53"/>
</g>
<!-- corrupt_champion_error&#45;&gt;corrupt_final_overrun -->
<g id="edge80" class="edge">
<title>corrupt_champion_error&#45;&gt;corrupt_final_overrun</title>
<path fill="none" stroke="#7e57c2" d="M550.07,-1557.13C558.04,-1554.26 565.79,-1550.91 573,-1547 588.19,-1538.75 585.98,-1528.56 601,-1520 604.04,-1518.27 607.2,-1516.64 610.45,-1515.11"/>
<polygon fill="#7e57c2" stroke="#7e57c2" points="611.99,-1518.26 619.77,-1511.07 609.2,-1511.84 611.99,-1518.26"/>
</g>
<!-- corrupt_champion_patchfail&#45;&gt;corrupt_final_corruptcore -->
<g id="edge82" class="edge">
<title>corrupt_champion_patchfail&#45;&gt;corrupt_final_corruptcore</title>
<path fill="none" stroke="#7e57c2" d="M553.39,-1484.1C560.19,-1486.68 566.8,-1489.63 573,-1493 588.19,-1501.25 585.98,-1511.44 601,-1520 604.04,-1521.73 607.2,-1523.36 610.45,-1524.89"/>
<polygon fill="#7e57c2" stroke="#7e57c2" points="609.2,-1528.16 619.77,-1528.93 611.99,-1521.74 609.2,-1528.16"/>
</g>
<!-- corrupt_champion_patchfail&#45;&gt;corrupt_final_overrun -->
<g id="edge83" class="edge">
<title>corrupt_champion_patchfail&#45;&gt;corrupt_final_overrun</title>
<path fill="none" stroke="#7e57c2" d="M563.22,-1477.88C576.99,-1479.42 591.01,-1480.98 604.57,-1482.49"/>
<polygon fill="#7e57c2" stroke="#7e57c2" points="604.5,-1486 614.83,-1483.63 605.28,-1479.04 604.5,-1486"/>
</g>
<!-- void_baby -->
<g id="node44" class="node">
<title>void_baby</title>
<path fill="#b0bec5" stroke="black" d="M110,-1729C110,-1729 46,-1729 46,-1729 40,-1729 34,-1723 34,-1717 34,-1717 34,-1705 34,-1705 34,-1699 40,-1693 46,-1693 46,-1693 110,-1693 110,-1693 116,-1693 122,-1699 122,-1705 122,-1705 122,-1717 122,-1717 122,-1723 116,-1729 110,-1729"/>
<text text-anchor="middle" x="78" y="-1707.3" font-family="Times,serif" font-size="14.00">void_baby</text>
</g>
<!-- void_rookie -->
<g id="node45" class="node">
<title>void_rookie</title>
<path fill="#b0bec5" stroke="black" d="M280,-1729C280,-1729 206,-1729 206,-1729 200,-1729 194,-1723 194,-1717 194,-1717 194,-1705 194,-1705 194,-1699 200,-1693 206,-1693 206,-1693 280,-1693 280,-1693 286,-1693 292,-1699 292,-1705 292,-1705 292,-1717 292,-1717 292,-1723 286,-1729 280,-1729"/>
<text text-anchor="middle" x="243" y="-1707.3" font-family="Times,serif" font-size="14.00">void_rookie</text>
</g>
<!-- void_baby&#45;&gt;void_rookie -->
<g id="edge84" class="edge">
<title>void_baby&#45;&gt;void_rookie</title>
<path fill="none" stroke="black" d="M122.25,-1711C141.13,-1711 163.55,-1711 183.86,-1711"/>
<polygon fill="black" stroke="black" points="183.95,-1714.5 193.95,-1711 183.95,-1707.5 183.95,-1714.5"/>
</g>
<!-- void_champion_entropy -->
<g id="node46" class="node">
<title>void_champion_entropy</title>
<path fill="#b0bec5" stroke="black" d="M536,-1783C536,-1783 375,-1783 375,-1783 369,-1783 363,-1777 363,-1771 363,-1771 363,-1759 363,-1759 363,-1753 369,-1747 375,-1747 375,-1747 536,-1747 536,-1747 542,-1747 548,-1753 548,-1759 548,-1759 548,-1771 548,-1771 548,-1777 542,-1783 536,-1783"/>
<text text-anchor="middle" x="455.5" y="-1761.3" font-family="Times,serif" font-size="14.00">void_champion_entropy</text>
</g>
<!-- void_rookie&#45;&gt;void_champion_entropy -->
<g id="edge85" class="edge">
<title>void_rookie&#45;&gt;void_champion_entropy</title>
<path fill="none" stroke="#7e57c2" d="M292.22,-1723.92C309.2,-1728.43 328.43,-1733.49 346,-1738 354.33,-1740.14 363.03,-1742.35 371.72,-1744.54"/>
<polygon fill="#7e57c2" stroke="#7e57c2" points="370.96,-1747.95 381.51,-1746.99 372.66,-1741.16 370.96,-1747.95"/>
</g>
<!-- void_champion_gravity -->
<g id="node47" class="node">
<title>void_champion_gravity</title>
<path fill="#b0bec5" stroke="black" d="M533.5,-1675C533.5,-1675 377.5,-1675 377.5,-1675 371.5,-1675 365.5,-1669 365.5,-1663 365.5,-1663 365.5,-1651 365.5,-1651 365.5,-1645 371.5,-1639 377.5,-1639 377.5,-1639 533.5,-1639 533.5,-1639 539.5,-1639 545.5,-1645 545.5,-1651 545.5,-1651 545.5,-1663 545.5,-1663 545.5,-1669 539.5,-1675 533.5,-1675"/>
<text text-anchor="middle" x="455.5" y="-1653.3" font-family="Times,serif" font-size="14.00">void_champion_gravity</text>
</g>
<!-- void_rookie&#45;&gt;void_champion_gravity -->
<g id="edge86" class="edge">
<title>void_rookie&#45;&gt;void_champion_gravity</title>
<path fill="none" stroke="#7e57c2" d="M292.22,-1698.08C309.2,-1693.57 328.43,-1688.51 346,-1684 354.33,-1681.86 363.03,-1679.65 371.72,-1677.46"/>
<polygon fill="#7e57c2" stroke="#7e57c2" points="372.66,-1680.84 381.51,-1675.01 370.96,-1674.05 372.66,-1680.84"/>
</g>
<!-- void_champion_null -->
<g id="node48" class="node">
<title>void_champion_null</title>
<path fill="#b0bec5" stroke="black" d="M521.5,-1729C521.5,-1729 389.5,-1729 389.5,-1729 383.5,-1729 377.5,-1723 377.5,-1717 377.5,-1717 377.5,-1705 377.5,-1705 377.5,-1699 383.5,-1693 389.5,-1693 389.5,-1693 521.5,-1693 521.5,-1693 527.5,-1693 533.5,-1699 533.5,-1705 533.5,-1705 533.5,-1717 533.5,-1717 533.5,-1723 527.5,-1729 521.5,-1729"/>
<text text-anchor="middle" x="455.5" y="-1707.3" font-family="Times,serif" font-size="14.00">void_champion_null</text>
</g>
<!-- void_rookie&#45;&gt;void_champion_null -->
<g id="edge87" class="edge">
<title>void_rookie&#45;&gt;void_champion_null</title>
<path fill="none" stroke="#7e57c2" d="M292.03,-1711C314.31,-1711 341.51,-1711 367.23,-1711"/>
<polygon fill="#7e57c2" stroke="#7e57c2" points="367.38,-1714.5 377.38,-1711 367.38,-1707.5 367.38,-1714.5"/>
</g>
<!-- corrupt_final_glitch -->
<g id="node77" class="node">
<title>corrupt_final_glitch</title>
<path fill="lightgrey" stroke="black" d="M765.5,-1783C765.5,-1783 634.5,-1783 634.5,-1783 628.5,-1783 622.5,-1777 622.5,-1771 622.5,-1771 622.5,-1759 622.5,-1759 622.5,-1753 628.5,-1747 634.5,-1747 634.5,-1747 765.5,-1747 765.5,-1747 771.5,-1747 777.5,-1753 777.5,-1759 777.5,-1759 777.5,-1771 777.5,-1771 777.5,-1777 771.5,-1783 765.5,-1783"/>
<text text-anchor="middle" x="700" y="-1761.3" font-family="Times,serif" font-size="14.00">corrupt_final_glitch</text>
</g>
<!-- void_champion_entropy&#45;&gt;corrupt_final_glitch -->
<g id="edge88" class="edge">
<title>void_champion_entropy&#45;&gt;corrupt_final_glitch</title>
<path fill="none" stroke="#7e57c2" d="M548.18,-1765C569.16,-1765 591.39,-1765 612.16,-1765"/>
<polygon fill="#7e57c2" stroke="#7e57c2" points="612.22,-1768.5 622.22,-1765 612.22,-1761.5 612.22,-1768.5"/>
</g>
<!-- void_final_oblivion -->
<g id="node78" class="node">
<title>void_final_oblivion</title>
<path fill="lightgrey" stroke="black" d="M761.5,-1729C761.5,-1729 638.5,-1729 638.5,-1729 632.5,-1729 626.5,-1723 626.5,-1717 626.5,-1717 626.5,-1705 626.5,-1705 626.5,-1699 632.5,-1693 638.5,-1693 638.5,-1693 761.5,-1693 761.5,-1693 767.5,-1693 773.5,-1699 773.5,-1705 773.5,-1705 773.5,-1717 773.5,-1717 773.5,-1723 767.5,-1729 761.5,-1729"/>
<text text-anchor="middle" x="700" y="-1707.3" font-family="Times,serif" font-size="14.00">void_final_oblivion</text>
</g>
<!-- void_champion_entropy&#45;&gt;void_final_oblivion -->
<g id="edge89" class="edge">
<title>void_champion_entropy&#45;&gt;void_final_oblivion</title>
<path fill="none" stroke="#7e57c2" d="M537.59,-1746.94C562.87,-1741.31 590.78,-1735.1 616.18,-1729.44"/>
<polygon fill="#7e57c2" stroke="#7e57c2" points="617.15,-1732.81 626.15,-1727.22 615.63,-1725.98 617.15,-1732.81"/>
</g>
<!-- void_champion_gravity&#45;&gt;void_final_oblivion -->
<g id="edge91" class="edge">
<title>void_champion_gravity&#45;&gt;void_final_oblivion</title>
<path fill="none" stroke="#7e57c2" d="M537.59,-1675.06C562.87,-1680.69 590.78,-1686.9 616.18,-1692.56"/>
<polygon fill="#7e57c2" stroke="#7e57c2" points="615.63,-1696.02 626.15,-1694.78 617.15,-1689.19 615.63,-1696.02"/>
</g>
<!-- void_final_singularity -->
<g id="node79" class="node">
<title>void_final_singularity</title>
<path fill="lightgrey" stroke="black" d="M772,-1675C772,-1675 628,-1675 628,-1675 622,-1675 616,-1669 616,-1663 616,-1663 616,-1651 616,-1651 616,-1645 622,-1639 628,-1639 628,-1639 772,-1639 772,-1639 778,-1639 784,-1645 784,-1651 784,-1651 784,-1663 784,-1663 784,-1669 778,-1675 772,-1675"/>
<text text-anchor="middle" x="700" y="-1653.3" font-family="Times,serif" font-size="14.00">void_final_singularity</text>
</g>
<!-- void_champion_gravity&#45;&gt;void_final_singularity -->
<g id="edge90" class="edge">
<title>void_champion_gravity&#45;&gt;void_final_singularity</title>
<path fill="none" stroke="#7e57c2" d="M545.76,-1657C565.32,-1657 586.06,-1657 605.76,-1657"/>
<polygon fill="#7e57c2" stroke="#7e57c2" points="605.96,-1660.5 615.96,-1657 605.96,-1653.5 605.96,-1660.5"/>
</g>
<!-- void_champion_null&#45;&gt;void_final_oblivion -->
<g id="edge92" class="edge">
<title>void_champion_null&#45;&gt;void_final_oblivion</title>
<path fill="none" stroke="#7e57c2" d="M533.56,-1711C559.88,-1711 589.41,-1711 616.16,-1711"/>
<polygon fill="#7e57c2" stroke="#7e57c2" points="616.27,-1714.5 626.27,-1711 616.27,-1707.5 616.27,-1714.5"/>
</g>
<!-- void_champion_null&#45;&gt;void_final_singularity -->
<g id="edge93" class="edge">
<title>void_champion_null&#45;&gt;void_final_singularity</title>
<path fill="none" stroke="#7e57c2" d="M533.56,-1693.84C557.21,-1688.57 583.45,-1682.73 607.94,-1677.28"/>
<polygon fill="#7e57c2" stroke="#7e57c2" points="608.95,-1680.64 617.95,-1675.05 607.43,-1673.8 608.95,-1680.64"/>
</g>
<!-- core_baby -->
<g id="node49" class="node">
<title>core_baby</title>
<path fill="#4fc3f7" stroke="black" d="M110.5,-1932C110.5,-1932 45.5,-1932 45.5,-1932 39.5,-1932 33.5,-1926 33.5,-1920 33.5,-1920 33.5,-1908 33.5,-1908 33.5,-1902 39.5,-1896 45.5,-1896 45.5,-1896 110.5,-1896 110.5,-1896 116.5,-1896 122.5,-1902 122.5,-1908 122.5,-1908 122.5,-1920 122.5,-1920 122.5,-1926 116.5,-1932 110.5,-1932"/>
<text text-anchor="middle" x="78" y="-1910.3" font-family="Times,serif" font-size="14.00">core_baby</text>
</g>
<!-- core_rookie -->
<g id="node50" class="node">
<title>core_rookie</title>
<path fill="#4fc3f7" stroke="black" d="M280,-1932C280,-1932 206,-1932 206,-1932 200,-1932 194,-1926 194,-1920 194,-1920 194,-1908 194,-1908 194,-1902 200,-1896 206,-1896 206,-1896 280,-1896 280,-1896 286,-1896 292,-1902 292,-1908 292,-1908 292,-1920 292,-1920 292,-1926 286,-1932 280,-1932"/>
<text text-anchor="middle" x="243" y="-1910.3" font-family="Times,serif" font-size="14.00">core_rookie</text>
</g>
<!-- core_baby&#45;&gt;core_rookie -->
<g id="edge94" class="edge">
<title>core_baby&#45;&gt;core_rookie</title>
<path fill="none" stroke="black" d="M122.68,-1914C141.48,-1914 163.72,-1914 183.88,-1914"/>
<polygon fill="black" stroke="black" points="183.9,-1917.5 193.9,-1914 183.9,-1910.5 183.9,-1917.5"/>
</g>
<!-- core_champion_power -->
<g id="node51" class="node">
<title>core_champion_power</title>
<path fill="#4fc3f7" stroke="black" d="M530.5,-1878C530.5,-1878 380.5,-1878 380.5,-1878 374.5,-1878 368.5,-1872 368.5,-1866 368.5,-1866 368.5,-1854 368.5,-1854 368.5,-1848 374.5,-1842 380.5,-1842 380.5,-1842 530.5,-1842 530.5,-1842 536.5,-1842 542.5,-1848 542.5,-1854 542.5,-1854 542.5,-1866 542.5,-1866 542.5,-1872 536.5,-1878 530.5,-1878"/>
<text text-anchor="middle" x="455.5" y="-1856.3" font-family="Times,serif" font-size="14.00">core_champion_power</text>
</g>
<!-- core_rookie&#45;&gt;core_champion_power -->
<g id="edge95" class="edge">
<title>core_rookie&#45;&gt;core_champion_power</title>
<path fill="none" stroke="#7e57c2" d="M292.22,-1901.08C309.2,-1896.57 328.43,-1891.51 346,-1887 354.33,-1884.86 363.03,-1882.65 371.72,-1880.46"/>
<polygon fill="#7e57c2" stroke="#7e57c2" points="372.66,-1883.84 381.51,-1878.01 370.96,-1877.05 372.66,-1883.84"/>
</g>
<!-- core_champion_guard -->
<g id="node52" class="node">
<title>core_champion_guard</title>
<path fill="#4fc3f7" stroke="black" d="M529.5,-1986C529.5,-1986 381.5,-1986 381.5,-1986 375.5,-1986 369.5,-1980 369.5,-1974 369.5,-1974 369.5,-1962 369.5,-1962 369.5,-1956 375.5,-1950 381.5,-1950 381.5,-1950 529.5,-1950 529.5,-1950 535.5,-1950 541.5,-1956 541.5,-1962 541.5,-1962 541.5,-1974 541.5,-1974 541.5,-1980 535.5,-1986 529.5,-1986"/>
<text text-anchor="middle" x="455.5" y="-1964.3" font-family="Times,serif" font-size="14.00">core_champion_guard</text>
</g>
<!-- core_rookie&#45;&gt;core_champion_guard -->
<g id="edge96" class="edge">
<title>core_rookie&#45;&gt;core_champion_guard</title>
<path fill="none" stroke="#7e57c2" d="M292.22,-1926.92C309.2,-1931.43 328.43,-1936.49 346,-1941 354.33,-1943.14 363.03,-1945.35 371.72,-1947.54"/>
<polygon fill="#7e57c2" stroke="#7e57c2" points="370.96,-1950.95 381.51,-1949.99 372.66,-1944.16 370.96,-1950.95"/>
</g>
<!-- core_champion_speed -->
<g id="node53" class="node">
<title>core_champion_speed</title>
<path fill="#4fc3f7" stroke="black" d="M529.5,-1932C529.5,-1932 381.5,-1932 381.5,-1932 375.5,-1932 369.5,-1926 369.5,-1920 369.5,-1920 369.5,-1908 369.5,-1908 369.5,-1902 375.5,-1896 381.5,-1896 381.5,-1896 529.5,-1896 529.5,-1896 535.5,-1896 541.5,-1902 541.5,-1908 541.5,-1908 541.5,-1920 541.5,-1920 541.5,-1926 535.5,-1932 529.5,-1932"/>
<text text-anchor="middle" x="455.5" y="-1910.3" font-family="Times,serif" font-size="14.00">core_champion_speed</text>
</g>
<!-- core_rookie&#45;&gt;core_champion_speed -->
<g id="edge97" class="edge">
<title>core_rookie&#45;&gt;core_champion_speed</title>
<path fill="none" stroke="#7e57c2" d="M292.03,-1914C312.01,-1914 335.94,-1914 359.21,-1914"/>
<polygon fill="#7e57c2" stroke="#7e57c2" points="359.48,-1917.5 369.48,-1914 359.48,-1910.5 359.48,-1917.5"/>
</g>
<!-- core_final_overclock -->
<g id="node80" class="node">
<title>core_final_overclock</title>
<path fill="lightgrey" stroke="black" d="M767.5,-1857C767.5,-1857 632.5,-1857 632.5,-1857 626.5,-1857 620.5,-1851 620.5,-1845 620.5,-1845 620.5,-1833 620.5,-1833 620.5,-1827 626.5,-1821 632.5,-1821 632.5,-1821 767.5,-1821 767.5,-1821 773.5,-1821 779.5,-1827 779.5,-1833 779.5,-1833 779.5,-1845 779.5,-1845 779.5,-1851 773.5,-1857 767.5,-1857"/>
<text text-anchor="middle" x="700" y="-1835.3" font-family="Times,serif" font-size="14.00">core_final_overclock</text>
</g>
<!-- core_champion_power&#45;&gt;core_final_overclock -->
<g id="edge98" class="edge">
<title>core_champion_power&#45;&gt;core_final_overclock</title>
<path fill="none" stroke="#7e57c2" d="M542.68,-1852.54C564.64,-1850.64 588.27,-1848.59 610.35,-1846.68"/>
<polygon fill="#7e57c2" stroke="#7e57c2" points="610.72,-1850.16 620.38,-1845.81 610.11,-1843.18 610.72,-1850.16"/>
</g>
<!-- core_final_prime -->
<g id="node81" class="node">
<title>core_final_prime</title>
<path fill="lightgrey" stroke="black" d="M755,-1965C755,-1965 645,-1965 645,-1965 639,-1965 633,-1959 633,-1953 633,-1953 633,-1941 633,-1941 633,-1935 639,-1929 645,-1929 645,-1929 755,-1929 755,-1929 761,-1929 767,-1935 767,-1941 767,-1941 767,-1953 767,-1953 767,-1959 761,-1965 755,-1965"/>
<text text-anchor="middle" x="700" y="-1943.3" font-family="Times,serif" font-size="14.00">core_final_prime</text>
</g>
<!-- core_champion_power&#45;&gt;core_final_prime -->
<g id="edge99" class="edge">
<title>core_champion_power&#45;&gt;core_final_prime</title>
<path fill="none" stroke="#7e57c2" d="M542.67,-1873.3C553.3,-1876.84 563.69,-1881.33 573,-1887 589.42,-1897.01 584.79,-1909.65 601,-1920 607.87,-1924.39 615.46,-1928.07 623.28,-1931.16"/>
<polygon fill="#7e57c2" stroke="#7e57c2" points="622.3,-1934.53 632.89,-1934.64 624.68,-1927.95 622.3,-1934.53"/>
</g>
<!-- core_champion_guard&#45;&gt;core_final_prime -->
<g id="edge101" class="edge">
<title>core_champion_guard&#45;&gt;core_final_prime</title>
<path fill="none" stroke="#7e57c2" d="M541.66,-1960.63C568.04,-1958.34 596.93,-1955.84 622.68,-1953.61"/>
<polygon fill="#7e57c2" stroke="#7e57c2" points="623.09,-1957.09 632.75,-1952.74 622.49,-1950.11 623.09,-1957.09"/>
</g>
<!-- core_final_bastion -->
<g id="node82" class="node">
<title>core_final_bastion</title>
<path fill="lightgrey" stroke="black" d="M760,-2019C760,-2019 640,-2019 640,-2019 634,-2019 628,-2013 628,-2007 628,-2007 628,-1995 628,-1995 628,-1989 634,-1983 640,-1983 640,-1983 760,-1983 760,-1983 766,-1983 772,-1989 772,-1995 772,-1995 772,-2007 772,-2007 772,-2013 766,-2019 760,-2019"/>
<text text-anchor="middle" x="700" y="-1997.3" font-family="Times,serif" font-size="14.00">core_final_bastion</text>
</g>
<!-- core_champion_guard&#45;&gt;core_final_bastion -->
<g id="edge100" class="edge">
<title>core_champion_guard&#45;&gt;core_final_bastion</title>
<path fill="none" stroke="#7e57c2" d="M541.66,-1979.59C566.36,-1982.95 593.27,-1986.61 617.74,-1989.94"/>
<polygon fill="#7e57c2" stroke="#7e57c2" points="617.32,-1993.42 627.7,-1991.3 618.26,-1986.48 617.32,-1993.42"/>
</g>
<!-- core_champion_speed&#45;&gt;core_final_prime -->
<g id="edge103" class="edge">
<title>core_champion_speed&#45;&gt;core_final_prime</title>
<path fill="none" stroke="#7e57c2" d="M541.66,-1925.59C568.04,-1929.18 596.93,-1933.11 622.68,-1936.61"/>
<polygon fill="#7e57c2" stroke="#7e57c2" points="622.37,-1940.1 632.75,-1937.99 623.32,-1933.17 622.37,-1940.1"/>
</g>
<!-- core_final_photon -->
<g id="node83" class="node">
<title>core_final_photon</title>
<path fill="lightgrey" stroke="black" d="M758.5,-1911C758.5,-1911 641.5,-1911 641.5,-1911 635.5,-1911 629.5,-1905 629.5,-1899 629.5,-1899 629.5,-1887 629.5,-1887 629.5,-1881 635.5,-1875 641.5,-1875 641.5,-1875 758.5,-1875 758.5,-1875 764.5,-1875 770.5,-1881 770.5,-1887 770.5,-1887 770.5,-1899 770.5,-1899 770.5,-1905 764.5,-1911 758.5,-1911"/>
<text text-anchor="middle" x="700" y="-1889.3" font-family="Times,serif" font-size="14.00">core_final_photon</text>
</g>
<!-- core_champion_speed&#45;&gt;core_final_photon -->
<g id="edge102" class="edge">
<title>core_champion_speed&#45;&gt;core_final_photon</title>
<path fill="none" stroke="#7e57c2" d="M541.66,-1906.63C566.84,-1904.44 594.32,-1902.07 619.16,-1899.91"/>
<polygon fill="#7e57c2" stroke="#7e57c2" points="619.6,-1903.39 629.26,-1899.04 619,-1896.41 619.6,-1903.39"/>
</g>
</g>
</svg>
