<?xml version="1.0" encoding="UTF-8" standalone="no"?>
<!DOCTYPE svg PUBLIC "-//W3C//DTD SVG 1.1//EN"
 "http://www.w3.org/Graphics/SVG/1.1/DTD/svg11.dtd">
<!-- Generated by graphviz version 2.43.0 (0)
 -->
<!-- Title: EvolutionTree Pages: 1 -->
<svg width="791pt" height="1778pt"
 viewBox="0.00 0.00 791.00 1778.00" xmlns="http://www.w3.org/2000/svg" xmlns:xlink="http://www.w3.org/1999/xlink">
<g id="graph0" class="graph" transform="scale(1 1) rotate(0) translate(4 1774)">
<title>EvolutionTree</title>
<polygon fill="#1e1e1e" stroke="transparent" points="-4,4 -4,-1774 787,-1774 787,4 -4,4"/>
<!-- firewall_baby -->
<g id="node1" class="node">
<title>firewall_baby</title>
<path fill="#ff8a65" stroke="black" d="M105.5,-90C105.5,-90 18.5,-90 18.5,-90 12.5,-90 6.5,-84 6.5,-78 6.5,-78 6.5,-66 6.5,-66 6.5,-60 12.5,-54 18.5,-54 18.5,-54 105.5,-54 105.5,-54 111.5,-54 117.5,-60 117.5,-66 117.5,-66 117.5,-78 117.5,-78 117.5,-84 111.5,-90 105.5,-90"/>
<text text-anchor="middle" x="62" y="-68.3" font-family="Times,serif" font-size="14.00">firewall_baby</text>
</g>
<!-- firewall_rookie -->
<g id="node2" class="node">
<title>firewall_rookie</title>
<path fill="#ff8a65" stroke="black" d="M275.5,-90C275.5,-90 178.5,-90 178.5,-90 172.5,-90 166.5,-84 166.5,-78 166.5,-78 166.5,-66 166.5,-66 166.5,-60 172.5,-54 178.5,-54 178.5,-54 275.5,-54 275.5,-54 281.5,-54 287.5,-60 287.5,-66 287.5,-66 287.5,-78 287.5,-78 287.5,-84 281.5,-90 275.5,-90"/>
<text text-anchor="middle" x="227" y="-68.3" font-family="Times,serif" font-size="14.00">firewall_rookie</text>
</g>
<!-- firewall_baby&#45;&gt;firewall_rookie -->
<g id="edge1" class="edge">
<title>firewall_baby&#45;&gt;firewall_rookie</title>
<path fill="none" stroke="black" d="M117.73,-72C130.06,-72 143.32,-72 156.17,-72"/>
<polygon fill="black" stroke="black" points="156.38,-75.5 166.38,-72 156.38,-68.5 156.38,-75.5"/>
</g>
<!-- firewall_champion_barrier -->
<g id="node3" class="node">
<title>firewall_champion_barrier</title>
<path fill="#ff8a65" stroke="black" d="M529,-90C529,-90 350,-90 350,-90 344,-90 338,-84 338,-78 338,-78 338,-66 338,-66 338,-60 344,-54 350,-54 350,-54 529,-54 529,-54 535,-54 541,-60 541,-66 541,-66 541,-78 541,-78 541,-84 535,-90 529,-90"/>
<text text-anchor="middle" x="439.5" y="-68.3" font-family="Times,serif" font-size="14.00">firewall_champion_barrier</text>
</g>
<!-- firewall_rookie&#45;&gt;firewall_champion_barrier -->
<g id="edge2" class="edge">
<title>firewall_rookie&#45;&gt;firewall_champion_barrier</title>
<path fill="none" stroke="#7e57c2" d="M287.76,-72C300.38,-72 314.07,-72 327.89,-72"/>
<polygon fill="#7e57c2" stroke="#7e57c2" points="327.97,-75.5 337.97,-72 327.97,-68.5 327.97,-75.5"/>
</g>
<!-- firewall_champion_counter -->
<g id="node4" class="node">
<title>firewall_champion_counter</title>
<path fill="#ff8a65" stroke="black" d="M531,-36C531,-36 348,-36 348,-36 342,-36 336,-30 336,-24 336,-24 336,-12 336,-12 336,-6 342,0 348,0 348,0 531,0 531,0 537,0 543,-6 543,-12 543,-12 543,-24 543,-24 543,-30 537,-36 531,-36"/>
<text text-anchor="middle" x="439.5" y="-14.3" font-family="Times,serif" font-size="14.00">firewall_champion_counter</text>
</g>
<!-- firewall_rookie&#45;&gt;firewall_champion_counter -->
<g id="edge3" class="edge">
<title>firewall_rookie&#45;&gt;firewall_champion_counter</title>
<path fill="none" stroke="#7e57c2" d="M287.56,-56.07C301.48,-52.4 316.25,-48.53 330,-45 338.33,-42.86 347.03,-40.65 355.72,-38.46"/>
<polygon fill="#7e57c2" stroke="#7e57c2" points="356.66,-41.84 365.51,-36.01 354.96,-35.05 356.66,-41.84"/>
</g>
<!-- firewall_champion_patch -->
<g id="node5" class="node">
<title>firewall_champion_patch</title>
<path fill="#ff8a65" stroke="black" d="M523.5,-144C523.5,-144 355.5,-144 355.5,-144 349.5,-144 343.5,-138 343.5,-132 343.5,-132 343.5,-120 343.5,-120 343.5,-114 349.5,-108 355.5,-108 355.5,-108 523.5,-108 523.5,-108 529.5,-108 535.5,-114 535.5,-120 535.5,-120 535.5,-132 535.5,-132 535.5,-138 529.5,-144 523.5,-144"/>
<text text-anchor="middle" x="439.5" y="-122.3" font-family="Times,serif" font-size="14.00">firewall_champion_patch</text>
</g>
<!-- firewall_rookie&#45;&gt;firewall_champion_patch -->
<g id="edge4" class="edge">
<title>firewall_rookie&#45;&gt;firewall_champion_patch</title>
<path fill="none" stroke="#7e57c2" d="M287.56,-87.93C301.48,-91.6 316.25,-95.47 330,-99 338.33,-101.14 347.03,-103.35 355.72,-105.54"/>
<polygon fill="#7e57c2" stroke="#7e57c2" points="354.96,-108.95 365.51,-107.99 356.66,-102.16 354.96,-108.95"/>
</g>
<!-- firewall_final_fortress -->
<g id="node6" class="node">
<title>firewall_final_fortress</title>
<path fill="lightgrey" stroke="black" d="M757,-144C757,-144 611,-144 611,-144 605,-144 599,-138 599,-132 599,-132 599,-120 599,-120 599,-114 605,-108 611,-108 611,-108 757,-108 757,-108 763,-108 769,-114 769,-120 769,-120 769,-132 769,-132 769,-138 763,-144 757,-144"/>
<text text-anchor="middle" x="684" y="-122.3" font-family="Times,serif" font-size="14.00" fill="white">firewall_final_fortress</text>
</g>
<!-- firewall_champion_barrier&#45;&gt;firewall_final_fortress -->
<g id="edge5" class="edge">
<title>firewall_champion_barrier&#45;&gt;firewall_final_fortress</title>
<path fill="none" stroke="#7e57c2" d="M521.59,-90.06C544.24,-95.1 568.99,-100.61 592.17,-105.77"/>
<polygon fill="#7e57c2" stroke="#7e57c2" points="591.47,-109.2 601.99,-107.96 592.99,-102.37 591.47,-109.2"/>
</g>
<!-- firewall_final_protocol -->
<g id="node7" class="node">
<title>firewall_final_protocol</title>
<path fill="lightgrey" stroke="black" d="M758.5,-90C758.5,-90 609.5,-90 609.5,-90 603.5,-90 597.5,-84 597.5,-78 597.5,-78 597.5,-66 597.5,-66 597.5,-60 603.5,-54 609.5,-54 609.5,-54 758.5,-54 758.5,-54 764.5,-54 770.5,-60 770.5,-66 770.5,-66 770.5,-78 770.5,-78 770.5,-84 764.5,-90 758.5,-90"/>
<text text-anchor="middle" x="684" y="-68.3" font-family="Times,serif" font-size="14.00" fill="white">firewall_final_protocol</text>
</g>
<!-- firewall_champion_barrier&#45;&gt;firewall_final_protocol -->
<g id="edge6" class="edge">
<title>firewall_champion_barrier&#45;&gt;firewall_final_protocol</title>
<path fill="none" stroke="#7e57c2" d="M541.24,-72C556.35,-72 571.91,-72 586.93,-72"/>
<polygon fill="#7e57c2" stroke="#7e57c2" points="587.23,-75.5 597.23,-72 587.23,-68.5 587.23,-75.5"/>
</g>
<!-- firewall_champion_counter&#45;&gt;firewall_final_protocol -->
<g id="edge8" class="edge">
<title>firewall_champion_counter&#45;&gt;firewall_final_protocol</title>
<path fill="none" stroke="#7e57c2" d="M521.59,-36.06C544.24,-41.1 568.99,-46.61 592.17,-51.77"/>
<polygon fill="#7e57c2" stroke="#7e57c2" points="591.47,-55.2 601.99,-53.96 592.99,-48.37 591.47,-55.2"/>
</g>
<!-- firewall_final_retaliate -->
<g id="node8" class="node">
<title>firewall_final_retaliate</title>
<path fill="lightgrey" stroke="black" d="M759.5,-36C759.5,-36 608.5,-36 608.5,-36 602.5,-36 596.5,-30 596.5,-24 596.5,-24 596.5,-12 596.5,-12 596.5,-6 602.5,0 608.5,0 608.5,0 759.5,0 759.5,0 765.5,0 771.5,-6 771.5,-12 771.5,-12 771.5,-24 771.5,-24 771.5,-30 765.5,-36 759.5,-36"/>
<text text-anchor="middle" x="684" y="-14.3" font-family="Times,serif" font-size="14.00" fill="white">firewall_final_retaliate</text>
</g>
<!-- firewall_champion_counter&#45;&gt;firewall_final_retaliate -->
<g id="edge7" class="edge">
<title>firewall_champion_counter&#45;&gt;firewall_final_retaliate</title>
<path fill="none" stroke="#7e57c2" d="M543.34,-18C557.57,-18 572.15,-18 586.27,-18"/>
<polygon fill="#7e57c2" stroke="#7e57c2" points="586.45,-21.5 596.45,-18 586.45,-14.5 586.45,-21.5"/>
</g>
<!-- firewall_champion_patch&#45;&gt;firewall_final_fortress -->
<g id="edge10" class="edge">
<title>firewall_champion_patch&#45;&gt;firewall_final_fortress</title>
<path fill="none" stroke="#7e57c2" d="M535.65,-126C553.06,-126 571.23,-126 588.62,-126"/>
<polygon fill="#7e57c2" stroke="#7e57c2" points="588.76,-129.5 598.76,-126 588.76,-122.5 588.76,-129.5"/>
</g>
<!-- firewall_champion_patch&#45;&gt;firewall_final_protocol -->
<g id="edge9" class="edge">
<title>firewall_champion_patch&#45;&gt;firewall_final_protocol</title>
<path fill="none" stroke="#7e57c2" d="M521.59,-107.94C544.24,-102.9 568.99,-97.39 592.17,-92.23"/>
<polygon fill="#7e57c2" stroke="#7e57c2" points="592.99,-95.63 601.99,-90.04 591.47,-88.8 592.99,-95.63"/>
</g>
<!-- dream_baby -->
<g id="node9" class="node">
<title>dream_baby</title>
<path fill="#9575cd" stroke="black" d="M102,-252C102,-252 22,-252 22,-252 16,-252 10,-246 10,-240 10,-240 10,-228 10,-228 10,-222 16,-216 22,-216 22,-216 102,-216 102,-216 108,-216 114,-222 114,-228 114,-228 114,-240 114,-240 114,-246 108,-252 102,-252"/>
<text text-anchor="middle" x="62" y="-230.3" font-family="Times,serif" font-size="14.00">dream_baby</text>
</g>
<!-- dream_rookie -->
<g id="node10" class="node">
<title>dream_rookie</title>
<path fill="#9575cd" stroke="black" d="M271.5,-252C271.5,-252 182.5,-252 182.5,-252 176.5,-252 170.5,-246 170.5,-240 170.5,-240 170.5,-228 170.5,-228 170.5,-222 176.5,-216 182.5,-216 182.5,-216 271.5,-216 271.5,-216 277.5,-216 283.5,-222 283.5,-228 283.5,-228 283.5,-240 283.5,-240 283.5,-246 277.5,-252 271.5,-252"/>
<text text-anchor="middle" x="227" y="-230.3" font-family="Times,serif" font-size="14.00">dream_rookie</text>
</g>
<!-- dream_baby&#45;&gt;dream_rookie -->
<g id="edge11" class="edge">
<title>dream_baby&#45;&gt;dream_rookie</title>
<path fill="none" stroke="black" d="M114.13,-234C128.62,-234 144.6,-234 159.84,-234"/>
<polygon fill="black" stroke="black" points="160.25,-237.5 170.25,-234 160.25,-230.5 160.25,-237.5"/>
</g>
<!-- dream_champion_lucid -->
<g id="node11" class="node">
<title>dream_champion_lucid</title>
<path fill="#9575cd" stroke="black" d="M517,-306C517,-306 362,-306 362,-306 356,-306 350,-300 350,-294 350,-294 350,-282 350,-282 350,-276 356,-270 362,-270 362,-270 517,-270 517,-270 523,-270 529,-276 529,-282 529,-282 529,-294 529,-294 529,-300 523,-306 517,-306"/>
<text text-anchor="middle" x="439.5" y="-284.3" font-family="Times,serif" font-size="14.00">dream_champion_lucid</text>
</g>
<!-- dream_rookie&#45;&gt;dream_champion_lucid -->
<g id="edge12" class="edge">
<title>dream_rookie&#45;&gt;dream_champion_lucid</title>
<path fill="none" stroke="#7e57c2" d="M283.55,-248.86C298.61,-252.85 314.92,-257.13 330,-261 338.33,-263.14 347.03,-265.35 355.72,-267.54"/>
<polygon fill="#7e57c2" stroke="#7e57c2" points="354.96,-270.95 365.51,-269.99 356.66,-264.16 354.96,-270.95"/>
</g>
<!-- dream_champion_nightmare -->
<g id="node12" class="node">
<title>dream_champion_nightmare</title>
<path fill="#9575cd" stroke="black" d="M537,-252C537,-252 342,-252 342,-252 336,-252 330,-246 330,-240 330,-240 330,-228 330,-228 330,-222 336,-216 342,-216 342,-216 537,-216 537,-216 543,-216 549,-222 549,-228 549,-228 549,-240 549,-240 549,-246 543,-252 537,-252"/>
<text text-anchor="middle" x="439.5" y="-230.3" font-family="Times,serif" font-size="14.00">dream_champion_nightmare</text>
</g>
<!-- dream_rookie&#45;&gt;dream_champion_nightmare -->
<g id="edge13" class="edge">
<title>dream_rookie&#45;&gt;dream_champion_nightmare</title>
<path fill="none" stroke="#7e57c2" d="M283.58,-234C294.83,-234 307.05,-234 319.54,-234"/>
<polygon fill="#7e57c2" stroke="#7e57c2" points="319.6,-237.5 329.6,-234 319.6,-230.5 319.6,-237.5"/>
</g>
<!-- dream_champion_whimsy -->
<g id="node13" class="node">
<title>dream_champion_whimsy</title>
<path fill="#9575cd" stroke="black" d="M527.5,-198C527.5,-198 351.5,-198 351.5,-198 345.5,-198 339.5,-192 339.5,-186 339.5,-186 339.5,-174 339.5,-174 339.5,-168 345.5,-162 351.5,-162 351.5,-162 527.5,-162 527.5,-162 533.5,-162 539.5,-168 539.5,-174 539.5,-174 539.5,-186 539.5,-186 539.5,-192 533.5,-198 527.5,-198"/>
<text text-anchor="middle" x="439.5" y="-176.3" font-family="Times,serif" font-size="14.00">dream_champion_whimsy</text>
</g>
<!-- dream_rookie&#45;&gt;dream_champion_whimsy -->
<g id="edge14" class="edge">
<title>dream_rookie&#45;&gt;dream_champion_whimsy</title>
<path fill="none" stroke="#7e57c2" d="M283.55,-219.14C298.61,-215.15 314.92,-210.87 330,-207 338.33,-204.86 347.03,-202.65 355.72,-200.46"/>
<polygon fill="#7e57c2" stroke="#7e57c2" points="356.66,-203.84 365.51,-198.01 354.96,-197.05 356.66,-203.84"/>
</g>
<!-- dream_final_ascended -->
<g id="node14" class="node">
<title>dream_final_ascended</title>
<path fill="lightgrey" stroke="black" d="M758.5,-279C758.5,-279 609.5,-279 609.5,-279 603.5,-279 597.5,-273 597.5,-267 597.5,-267 597.5,-255 597.5,-255 597.5,-249 603.5,-243 609.5,-243 609.5,-243 758.5,-243 758.5,-243 764.5,-243 770.5,-249 770.5,-255 770.5,-255 770.5,-267 770.5,-267 770.5,-273 764.5,-279 758.5,-279"/>
<text text-anchor="middle" x="684" y="-257.3" font-family="Times,serif" font-size="14.00" fill="white">dream_final_ascended</text>
</g>
<!-- dream_champion_lucid&#45;&gt;dream_final_ascended -->
<g id="edge15" class="edge">
<title>dream_champion_lucid&#45;&gt;dream_final_ascended</title>
<path fill="none" stroke="#7e57c2" d="M529.08,-278.14C548.09,-276.02 568.26,-273.78 587.52,-271.63"/>
<polygon fill="#7e57c2" stroke="#7e57c2" points="587.94,-275.11 597.49,-270.52 587.17,-268.15 587.94,-275.11"/>
</g>
<!-- dream_final_chaos -->
<g id="node15" class="node">
<title>dream_final_chaos</title>
<path fill="lightgrey" stroke="black" d="M745.5,-225C745.5,-225 622.5,-225 622.5,-225 616.5,-225 610.5,-219 610.5,-213 610.5,-213 610.5,-201 610.5,-201 610.5,-195 616.5,-189 622.5,-189 622.5,-189 745.5,-189 745.5,-189 751.5,-189 757.5,-195 757.5,-201 757.5,-201 757.5,-213 757.5,-213 757.5,-219 751.5,-225 745.5,-225"/>
<text text-anchor="middle" x="684" y="-203.3" font-family="Times,serif" font-size="14.00" fill="white">dream_final_chaos</text>
</g>
<!-- dream_champion_lucid&#45;&gt;dream_final_chaos -->
<g id="edge16" class="edge">
<title>dream_champion_lucid&#45;&gt;dream_final_chaos</title>
<path fill="none" stroke="#7e57c2" d="M526.62,-269.99C534.33,-267.36 541.9,-264.37 549,-261 567.06,-252.41 567.05,-242.81 585,-234 590,-231.55 595.26,-229.29 600.63,-227.21"/>
<polygon fill="#7e57c2" stroke="#7e57c2" points="602.19,-230.37 610.4,-223.67 599.81,-223.79 602.19,-230.37"/>
</g>
<!-- dream_champion_nightmare&#45;&gt;dream_final_ascended -->
<g id="edge18" class="edge">
<title>dream_champion_nightmare&#45;&gt;dream_final_ascended</title>
<path fill="none" stroke="#7e57c2" d="M549.34,-246.12C562.05,-247.53 574.95,-248.97 587.47,-250.36"/>
<polygon fill="#7e57c2" stroke="#7e57c2" points="587.09,-253.84 597.42,-251.47 587.87,-246.89 587.09,-253.84"/>
</g>
<!-- dream_champion_nightmare&#45;&gt;dream_final_chaos -->
<g id="edge17" class="edge">
<title>dream_champion_nightmare&#45;&gt;dream_final_chaos</title>
<path fill="none" stroke="#7e57c2" d="M549.34,-221.88C566.44,-219.98 583.87,-218.04 600.26,-216.21"/>
<polygon fill="#7e57c2" stroke="#7e57c2" points="600.76,-219.68 610.31,-215.09 599.99,-212.72 600.76,-219.68"/>
</g>
<!-- dream_champion_whimsy&#45;&gt;dream_final_ascended -->
<g id="edge19" class="edge">
<title>dream_champion_whimsy&#45;&gt;dream_final_ascended</title>
<path fill="none" stroke="#7e57c2" d="M526.62,-198.01C534.33,-200.64 541.9,-203.63 549,-207 567.06,-215.59 567.05,-225.19 585,-234 588.83,-235.88 592.81,-237.65 596.89,-239.3"/>
<polygon fill="#7e57c2" stroke="#7e57c2" points="595.92,-242.68 606.51,-242.97 598.42,-236.14 595.92,-242.68"/>
</g>
<!-- dream_champion_whimsy&#45;&gt;dream_final_chaos -->
<g id="edge20" class="edge">
<title>dream_champion_whimsy&#45;&gt;dream_final_chaos</title>
<path fill="none" stroke="#7e57c2" d="M539.83,-191.06C559.88,-193.29 580.76,-195.62 600.17,-197.78"/>
<polygon fill="#7e57c2" stroke="#7e57c2" points="599.85,-201.26 610.18,-198.89 600.62,-194.31 599.85,-201.26"/>
</g>
<!-- void_baby -->
<g id="node16" class="node">
<title>void_baby</title>
<path fill="#b0bec5" stroke="black" d="M94,-414C94,-414 30,-414 30,-414 24,-414 18,-408 18,-402 18,-402 18,-390 18,-390 18,-384 24,-378 30,-378 30,-378 94,-378 94,-378 100,-378 106,-384 106,-390 106,-390 106,-402 106,-402 106,-408 100,-414 94,-414"/>
<text text-anchor="middle" x="62" y="-392.3" font-family="Times,serif" font-size="14.00">void_baby</text>
</g>
<!-- void_rookie -->
<g id="node17" class="node">
<title>void_rookie</title>
<path fill="#b0bec5" stroke="black" d="M264,-414C264,-414 190,-414 190,-414 184,-414 178,-408 178,-402 178,-402 178,-390 178,-390 178,-384 184,-378 190,-378 190,-378 264,-378 264,-378 270,-378 276,-384 276,-390 276,-390 276,-402 276,-402 276,-408 270,-414 264,-414"/>
<text text-anchor="middle" x="227" y="-392.3" font-family="Times,serif" font-size="14.00">void_rookie</text>
</g>
<!-- void_baby&#45;&gt;void_rookie -->
<g id="edge21" class="edge">
<title>void_baby&#45;&gt;void_rookie</title>
<path fill="none" stroke="black" d="M106.25,-396C125.13,-396 147.55,-396 167.86,-396"/>
<polygon fill="black" stroke="black" points="167.95,-399.5 177.95,-396 167.95,-392.5 167.95,-399.5"/>
</g>
<!-- void_champion_entropy -->
<g id="node18" class="node">
<title>void_champion_entropy</title>
<path fill="#b0bec5" stroke="black" d="M520,-468C520,-468 359,-468 359,-468 353,-468 347,-462 347,-456 347,-456 347,-444 347,-444 347,-438 353,-432 359,-432 359,-432 520,-432 520,-432 526,-432 532,-438 532,-444 532,-444 532,-456 532,-456 532,-462 526,-468 520,-468"/>
<text text-anchor="middle" x="439.5" y="-446.3" font-family="Times,serif" font-size="14.00">void_champion_entropy</text>
</g>
<!-- void_rookie&#45;&gt;void_champion_entropy -->
<g id="edge22" class="edge">
<title>void_rookie&#45;&gt;void_champion_entropy</title>
<path fill="none" stroke="#7e57c2" d="M276.22,-408.92C293.2,-413.43 312.43,-418.49 330,-423 338.33,-425.14 347.03,-427.35 355.72,-429.54"/>
<polygon fill="#7e57c2" stroke="#7e57c2" points="354.96,-432.95 365.51,-431.99 356.66,-426.16 354.96,-432.95"/>
</g>
<!-- void_champion_gravity -->
<g id="node19" class="node">
<title>void_champion_gravity</title>
<path fill="#b0bec5" stroke="black" d="M517.5,-360C517.5,-360 361.5,-360 361.5,-360 355.5,-360 349.5,-354 349.5,-348 349.5,-348 349.5,-336 349.5,-336 349.5,-330 355.5,-324 361.5,-324 361.5,-324 517.5,-324 517.5,-324 523.5,-324 529.5,-330 529.5,-336 529.5,-336 529.5,-348 529.5,-348 529.5,-354 523.5,-360 517.5,-360"/>
<text text-anchor="middle" x="439.5" y="-338.3" font-family="Times,serif" font-size="14.00">void_champion_gravity</text>
</g>
<!-- void_rookie&#45;&gt;void_champion_gravity -->
<g id="edge23" class="edge">
<title>void_rookie&#45;&gt;void_champion_gravity</title>
<path fill="none" stroke="#7e57c2" d="M276.22,-383.08C293.2,-378.57 312.43,-373.51 330,-369 338.33,-366.86 347.03,-364.65 355.72,-362.46"/>
<polygon fill="#7e57c2" stroke="#7e57c2" points="356.66,-365.84 365.51,-360.01 354.96,-359.05 356.66,-365.84"/>
</g>
<!-- void_champion_null -->
<g id="node20" class="node">
<title>void_champion_null</title>
<path fill="#b0bec5" stroke="black" d="M505.5,-414C505.5,-414 373.5,-414 373.5,-414 367.5,-414 361.5,-408 361.5,-402 361.5,-402 361.5,-390 361.5,-390 361.5,-384 367.5,-378 373.5,-378 373.5,-378 505.5,-378 505.5,-378 511.5,-378 517.5,-384 517.5,-390 517.5,-390 517.5,-402 517.5,-402 517.5,-408 511.5,-414 505.5,-414"/>
<text text-anchor="middle" x="439.5" y="-392.3" font-family="Times,serif" font-size="14.00">void_champion_null</text>
</g>
<!-- void_rookie&#45;&gt;void_champion_null -->
<g id="edge24" class="edge">
<title>void_rookie&#45;&gt;void_champion_null</title>
<path fill="none" stroke="#7e57c2" d="M276.03,-396C298.31,-396 325.51,-396 351.23,-396"/>
<polygon fill="#7e57c2" stroke="#7e57c2" points="351.38,-399.5 361.38,-396 351.38,-392.5 351.38,-399.5"/>
</g>
<!-- corrupt_final_glitch -->
<g id="node21" class="node">
<title>corrupt_final_glitch</title>
<path fill="lightgrey" stroke="black" d="M749.5,-468C749.5,-468 618.5,-468 618.5,-468 612.5,-468 606.5,-462 606.5,-456 606.5,-456 606.5,-444 606.5,-444 606.5,-438 612.5,-432 618.5,-432 618.5,-432 749.5,-432 749.5,-432 755.5,-432 761.5,-438 761.5,-444 761.5,-444 761.5,-456 761.5,-456 761.5,-462 755.5,-468 749.5,-468"/>
<text text-anchor="middle" x="684" y="-446.3" font-family="Times,serif" font-size="14.00" fill="white">corrupt_final_glitch</text>
</g>
<!-- void_champion_entropy&#45;&gt;corrupt_final_glitch -->
<g id="edge25" class="edge">
<title>void_champion_entropy&#45;&gt;corrupt_final_glitch</title>
<path fill="none" stroke="#7e57c2" d="M532.18,-450C553.16,-450 575.39,-450 596.16,-450"/>
<polygon fill="#7e57c2" stroke="#7e57c2" points="596.22,-453.5 606.22,-450 596.22,-446.5 596.22,-453.5"/>
</g>
<!-- void_final_oblivion -->
<g id="node22" class="node">
<title>void_final_oblivion</title>
<path fill="lightgrey" stroke="black" d="M745.5,-414C745.5,-414 622.5,-414 622.5,-414 616.5,-414 610.5,-408 610.5,-402 610.5,-402 610.5,-390 610.5,-390 610.5,-384 616.5,-378 622.5,-378 622.5,-378 745.5,-378 745.5,-378 751.5,-378 757.5,-384 757.5,-390 757.5,-390 757.5,-402 757.5,-402 757.5,-408 751.5,-414 745.5,-414"/>
<text text-anchor="middle" x="684" y="-392.3" font-family="Times,serif" font-size="14.00" fill="white">void_final_oblivion</text>
</g>
<!-- void_champion_entropy&#45;&gt;void_final_oblivion -->
<g id="edge26" class="edge">
<title>void_champion_entropy&#45;&gt;void_final_oblivion</title>
<path fill="none" stroke="#7e57c2" d="M521.59,-431.94C546.87,-426.31 574.78,-420.1 600.18,-414.44"/>
<polygon fill="#7e57c2" stroke="#7e57c2" points="601.15,-417.81 610.15,-412.22 599.63,-410.98 601.15,-417.81"/>
</g>
<!-- void_champion_gravity&#45;&gt;void_final_oblivion -->
<g id="edge28" class="edge">
<title>void_champion_gravity&#45;&gt;void_final_oblivion</title>
<path fill="none" stroke="#7e57c2" d="M521.59,-360.06C546.87,-365.69 574.78,-371.9 600.18,-377.56"/>
<polygon fill="#7e57c2" stroke="#7e57c2" points="599.63,-381.02 610.15,-379.78 601.15,-374.19 599.63,-381.02"/>
</g>
<!-- void_final_singularity -->
<g id="node23" class="node">
<title>void_final_singularity</title>
<path fill="lightgrey" stroke="black" d="M756,-360C756,-360 612,-360 612,-360 606,-360 600,-354 600,-348 600,-348 600,-336 600,-336 600,-330 606,-324 612,-324 612,-324 756,-324 756,-324 762,-324 768,-330 768,-336 768,-336 768,-348 768,-348 768,-354 762,-360 756,-360"/>
<text text-anchor="middle" x="684" y="-338.3" font-family="Times,serif" font-size="14.00" fill="white">void_final_singularity</text>
</g>
<!-- void_champion_gravity&#45;&gt;void_final_singularity -->
<g id="edge27" class="edge">
<title>void_champion_gravity&#45;&gt;void_final_singularity</title>
<path fill="none" stroke="#7e57c2" d="M529.76,-342C549.32,-342 570.06,-342 589.76,-342"/>
<polygon fill="#7e57c2" stroke="#7e57c2" points="589.96,-345.5 599.96,-342 589.96,-338.5 589.96,-345.5"/>
</g>
<!-- void_champion_null&#45;&gt;void_final_oblivion -->
<g id="edge29" class="edge">
<title>void_champion_null&#45;&gt;void_final_oblivion</title>
<path fill="none" stroke="#7e57c2" d="M517.56,-396C543.88,-396 573.41,-396 600.16,-396"/>
<polygon fill="#7e57c2" stroke="#7e57c2" points="600.27,-399.5 610.27,-396 600.27,-392.5 600.27,-399.5"/>
</g>
<!-- void_champion_null&#45;&gt;void_final_singularity -->
<g id="edge30" class="edge">
<title>void_champion_null&#45;&gt;void_final_singularity</title>
<path fill="none" stroke="#7e57c2" d="M517.56,-378.84C541.21,-373.57 567.45,-367.73 591.94,-362.28"/>
<polygon fill="#7e57c2" stroke="#7e57c2" points="592.95,-365.64 601.95,-360.05 591.43,-358.8 592.95,-365.64"/>
</g>
<!-- codeborn_baby -->
<g id="node24" class="node">
<title>codeborn_baby</title>
<path fill="#e0e0e0" stroke="black" d="M112,-522C112,-522 12,-522 12,-522 6,-522 0,-516 0,-510 0,-510 0,-498 0,-498 0,-492 6,-486 12,-486 12,-486 112,-486 112,-486 118,-486 124,-492 124,-498 124,-498 124,-510 124,-510 124,-516 118,-522 112,-522"/>
<text text-anchor="middle" x="62" y="-500.3" font-family="Times,serif" font-size="14.00">codeborn_baby</text>
</g>
<!-- codeborn_rookie -->
<g id="node25" class="node">
<title>codeborn_rookie</title>
<path fill="#e0e0e0" stroke="black" d="M282,-522C282,-522 172,-522 172,-522 166,-522 160,-516 160,-510 160,-510 160,-498 160,-498 160,-492 166,-486 172,-486 172,-486 282,-486 282,-486 288,-486 294,-492 294,-498 294,-498 294,-510 294,-510 294,-516 288,-522 282,-522"/>
<text text-anchor="middle" x="227" y="-500.3" font-family="Times,serif" font-size="14.00">codeborn_rookie</text>
</g>
<!-- codeborn_baby&#45;&gt;codeborn_rookie -->
<g id="edge31" class="edge">
<title>codeborn_baby&#45;&gt;codeborn_rookie</title>
<path fill="none" stroke="black" d="M124.16,-504C132.53,-504 141.22,-504 149.82,-504"/>
<polygon fill="black" stroke="black" points="149.86,-507.5 159.86,-504 149.86,-500.5 149.86,-507.5"/>
</g>
<!-- codeborn_champion -->
<g id="node26" class="node">
<title>codeborn_champion</title>
<path fill="#e0e0e0" stroke="black" d="M506.5,-522C506.5,-522 372.5,-522 372.5,-522 366.5,-522 360.5,-516 360.5,-510 360.5,-510 360.5,-498 360.5,-498 360.5,-492 366.5,-486 372.5,-486 372.5,-486 506.5,-486 506.5,-486 512.5,-486 518.5,-492 518.5,-498 518.5,-498 518.5,-510 518.5,-510 518.5,-516 512.5,-522 506.5,-522"/>
<text text-anchor="middle" x="439.5" y="-500.3" font-family="Times,serif" font-size="14.00">codeborn_champion</text>
</g>
<!-- codeborn_rookie&#45;&gt;codeborn_champion -->
<g id="edge32" class="edge">
<title>codeborn_rookie&#45;&gt;codeborn_champion</title>
<path fill="none" stroke="black" d="M294.03,-504C311.81,-504 331.34,-504 350.13,-504"/>
<polygon fill="black" stroke="black" points="350.17,-507.5 360.17,-504 350.17,-500.5 350.17,-507.5"/>
</g>
<!-- codeborn_final -->
<g id="node27" class="node">
<title>codeborn_final</title>
<path fill="lightgrey" stroke="black" d="M732,-522C732,-522 636,-522 636,-522 630,-522 624,-516 624,-510 624,-510 624,-498 624,-498 624,-492 630,-486 636,-486 636,-486 732,-486 732,-486 738,-486 744,-492 744,-498 744,-498 744,-510 744,-510 744,-516 738,-522 732,-522"/>
<text text-anchor="middle" x="684" y="-500.3" font-family="Times,serif" font-size="14.00" fill="white">codeborn_final</text>
</g>
<!-- codeborn_champion&#45;&gt;codeborn_final -->
<g id="edge33" class="edge">
<title>codeborn_champion&#45;&gt;codeborn_final</title>
<path fill="none" stroke="black" d="M518.56,-504C549.16,-504 583.97,-504 613.66,-504"/>
<polygon fill="black" stroke="black" points="613.93,-507.5 623.93,-504 613.93,-500.5 613.93,-507.5"/>
</g>
<!-- root_baby -->
<g id="node28" class="node">
<title>root_baby</title>
<path fill="#81c784" stroke="black" d="M93.5,-657C93.5,-657 30.5,-657 30.5,-657 24.5,-657 18.5,-651 18.5,-645 18.5,-645 18.5,-633 18.5,-633 18.5,-627 24.5,-621 30.5,-621 30.5,-621 93.5,-621 93.5,-621 99.5,-621 105.5,-627 105.5,-633 105.5,-633 105.5,-645 105.5,-645 105.5,-651 99.5,-657 93.5,-657"/>
<text text-anchor="middle" x="62" y="-635.3" font-family="Times,serif" font-size="14.00">root_baby</text>
</g>
<!-- root_rookie -->
<g id="node29" class="node">
<title>root_rookie</title>
<path fill="#81c784" stroke="black" d="M263.5,-657C263.5,-657 190.5,-657 190.5,-657 184.5,-657 178.5,-651 178.5,-645 178.5,-645 178.5,-633 178.5,-633 178.5,-627 184.5,-621 190.5,-621 190.5,-621 263.5,-621 263.5,-621 269.5,-621 275.5,-627 275.5,-633 275.5,-633 275.5,-645 275.5,-645 275.5,-651 269.5,-657 263.5,-657"/>
<text text-anchor="middle" x="227" y="-635.3" font-family="Times,serif" font-size="14.00">root_rookie</text>
</g>
<!-- root_baby&#45;&gt;root_rookie -->
<g id="edge34" class="edge">
<title>root_baby&#45;&gt;root_rookie</title>
<path fill="none" stroke="black" d="M105.83,-639C124.87,-639 147.58,-639 168.1,-639"/>
<polygon fill="black" stroke="black" points="168.29,-642.5 178.29,-639 168.29,-635.5 168.29,-642.5"/>
</g>
<!-- root_champion_thorn -->
<g id="node30" class="node">
<title>root_champion_thorn</title>
<path fill="#81c784" stroke="black" d="M511,-711C511,-711 368,-711 368,-711 362,-711 356,-705 356,-699 356,-699 356,-687 356,-687 356,-681 362,-675 368,-675 368,-675 511,-675 511,-675 517,-675 523,-681 523,-687 523,-687 523,-699 523,-699 523,-705 517,-711 511,-711"/>
<text text-anchor="middle" x="439.5" y="-689.3" font-family="Times,serif" font-size="14.00">root_champion_thorn</text>
</g>
<!-- root_rookie&#45;&gt;root_champion_thorn -->
<g id="edge35" class="edge">
<title>root_rookie&#45;&gt;root_champion_thorn</title>
<path fill="none" stroke="#7e57c2" d="M275.7,-651.78C292.81,-656.33 312.26,-661.44 330,-666 338.33,-668.14 347.03,-670.35 355.72,-672.54"/>
<polygon fill="#7e57c2" stroke="#7e57c2" points="354.96,-675.95 365.51,-674.99 356.66,-669.16 354.96,-675.95"/>
</g>
<!-- root_champion_bloom -->
<g id="node31" class="node">
<title>root_champion_bloom</title>
<path fill="#81c784" stroke="black" d="M513.5,-657C513.5,-657 365.5,-657 365.5,-657 359.5,-657 353.5,-651 353.5,-645 353.5,-645 353.5,-633 353.5,-633 353.5,-627 359.5,-621 365.5,-621 365.5,-621 513.5,-621 513.5,-621 519.5,-621 525.5,-627 525.5,-633 525.5,-633 525.5,-645 525.5,-645 525.5,-651 519.5,-657 513.5,-657"/>
<text text-anchor="middle" x="439.5" y="-635.3" font-family="Times,serif" font-size="14.00">root_champion_bloom</text>
</g>
<!-- root_rookie&#45;&gt;root_champion_bloom -->
<g id="edge36" class="edge">
<title>root_rookie&#45;&gt;root_champion_bloom</title>
<path fill="none" stroke="#7e57c2" d="M275.5,-639C295.47,-639 319.44,-639 342.79,-639"/>
<polygon fill="#7e57c2" stroke="#7e57c2" points="343.1,-642.5 353.1,-639 343.1,-635.5 343.1,-642.5"/>
</g>
<!-- root_champion_bark -->
<g id="node32" class="node">
<title>root_champion_bark</title>
<path fill="#81c784" stroke="black" d="M508,-603C508,-603 371,-603 371,-603 365,-603 359,-597 359,-591 359,-591 359,-579 359,-579 359,-573 365,-567 371,-567 371,-567 508,-567 508,-567 514,-567 520,-573 520,-579 520,-579 520,-591 520,-591 520,-597 514,-603 508,-603"/>
<text text-anchor="middle" x="439.5" y="-581.3" font-family="Times,serif" font-size="14.00">root_champion_bark</text>
</g>
<!-- root_rookie&#45;&gt;root_champion_bark -->
<g id="edge37" class="edge">
<title>root_rookie&#45;&gt;root_champion_bark</title>
<path fill="none" stroke="#7e57c2" d="M275.7,-626.22C292.81,-621.67 312.26,-616.56 330,-612 338.33,-609.86 347.03,-607.65 355.72,-605.46"/>
<polygon fill="#7e57c2" stroke="#7e57c2" points="356.66,-608.84 365.51,-603.01 354.96,-602.05 356.66,-608.84"/>
</g>
<!-- root_final_bramble -->
<g id="node33" class="node">
<title>root_final_bramble</title>
<path fill="lightgrey" stroke="black" d="M746.5,-751C746.5,-751 621.5,-751 621.5,-751 615.5,-751 609.5,-745 609.5,-739 609.5,-739 609.5,-727 609.5,-727 609.5,-721 615.5,-715 621.5,-715 621.5,-715 746.5,-715 746.5,-715 752.5,-715 758.5,-721 758.5,-727 758.5,-727 758.5,-739 758.5,-739 758.5,-745 752.5,-751 746.5,-751"/>
<text text-anchor="middle" x="684" y="-729.3" font-family="Times,serif" font-size="14.00" fill="white">root_final_bramble</text>
</g>
<!-- root_champion_thorn&#45;&gt;root_final_bramble -->
<g id="edge38" class="edge">
<title>root_champion_thorn&#45;&gt;root_final_bramble</title>
<path fill="none" stroke="#7e57c2" d="M523.28,-706.65C547.76,-710.69 574.57,-715.11 599.12,-719.16"/>
<polygon fill="#7e57c2" stroke="#7e57c2" points="598.69,-722.64 609.13,-720.81 599.83,-715.73 598.69,-722.64"/>
</g>
<!-- root_final_ancient -->
<g id="node34" class="node">
<title>root_final_ancient</title>
<path fill="lightgrey" stroke="black" d="M743.5,-697C743.5,-697 624.5,-697 624.5,-697 618.5,-697 612.5,-691 612.5,-685 612.5,-685 612.5,-673 612.5,-673 612.5,-667 618.5,-661 624.5,-661 624.5,-661 743.5,-661 743.5,-661 749.5,-661 755.5,-667 755.5,-673 755.5,-673 755.5,-685 755.5,-685 755.5,-691 749.5,-697 743.5,-697"/>
<text text-anchor="middle" x="684" y="-675.3" font-family="Times,serif" font-size="14.00" fill="white">root_final_ancient</text>
</g>
<!-- root_champion_thorn&#45;&gt;root_final_ancient -->
<g id="edge39" class="edge">
<title>root_champion_thorn&#45;&gt;root_final_ancient</title>
<path fill="none" stroke="#7e57c2" d="M523.28,-688.22C548.72,-686.75 576.69,-685.14 602.01,-683.68"/>
<polygon fill="#7e57c2" stroke="#7e57c2" points="602.53,-687.15 612.32,-683.08 602.13,-680.16 602.53,-687.15"/>
</g>
<!-- root_champion_bloom&#45;&gt;root_final_ancient -->
<g id="edge40" class="edge">
<title>root_champion_bloom&#45;&gt;root_final_ancient</title>
<path fill="none" stroke="#7e57c2" d="M525.66,-653.05C550.6,-657.16 577.8,-661.65 602.45,-665.71"/>
<polygon fill="#7e57c2" stroke="#7e57c2" points="602.05,-669.19 612.48,-667.37 603.19,-662.29 602.05,-669.19"/>
</g>
<!-- root_final_verdant -->
<g id="node35" class="node">
<title>root_final_verdant</title>
<path fill="lightgrey" stroke="black" d="M745,-643C745,-643 623,-643 623,-643 617,-643 611,-637 611,-631 611,-631 611,-619 611,-619 611,-613 617,-607 623,-607 623,-607 745,-607 745,-607 751,-607 757,-613 757,-619 757,-619 757,-631 757,-631 757,-637 751,-643 745,-643"/>
<text text-anchor="middle" x="684" y="-621.3" font-family="Times,serif" font-size="14.00" fill="white">root_final_verdant</text>
</g>
<!-- root_champion_bloom&#45;&gt;root_final_verdant -->
<g id="edge41" class="edge">
<title>root_champion_bloom&#45;&gt;root_final_verdant</title>
<path fill="none" stroke="#7e57c2" d="M525.66,-634.08C550.02,-632.68 576.51,-631.15 600.7,-629.75"/>
<polygon fill="#7e57c2" stroke="#7e57c2" points="601.13,-633.23 610.91,-629.16 600.73,-626.24 601.13,-633.23"/>
</g>
<!-- root_champion_bark&#45;&gt;root_final_ancient -->
<g id="edge43" class="edge">
<title>root_champion_bark&#45;&gt;root_final_ancient</title>
<path fill="none" stroke="#7e57c2" d="M520.05,-598.92C530.18,-602.36 540.1,-606.65 549,-612 569.5,-624.32 564.65,-639.43 585,-652 590.65,-655.49 596.75,-658.54 603.06,-661.2"/>
<polygon fill="#7e57c2" stroke="#7e57c2" points="601.82,-664.47 612.41,-664.82 604.35,-657.94 601.82,-664.47"/>
</g>
<!-- root_final_warden -->
<g id="node36" class="node">
<title>root_final_warden</title>
<path fill="lightgrey" stroke="black" d="M743.5,-589C743.5,-589 624.5,-589 624.5,-589 618.5,-589 612.5,-583 612.5,-577 612.5,-577 612.5,-565 612.5,-565 612.5,-559 618.5,-553 624.5,-553 624.5,-553 743.5,-553 743.5,-553 749.5,-553 755.5,-559 755.5,-565 755.5,-565 755.5,-577 755.5,-577 755.5,-583 749.5,-589 743.5,-589"/>
<text text-anchor="middle" x="684" y="-567.3" font-family="Times,serif" font-size="14.00" fill="white">root_final_warden</text>
</g>
<!-- root_champion_bark&#45;&gt;root_final_warden -->
<g id="edge42" class="edge">
<title>root_champion_bark&#45;&gt;root_final_warden</title>
<path fill="none" stroke="#7e57c2" d="M520.24,-580.4C546.44,-578.88 575.58,-577.2 601.89,-575.68"/>
<polygon fill="#7e57c2" stroke="#7e57c2" points="602.42,-579.16 612.2,-575.09 602.01,-572.17 602.42,-579.16"/>
</g>
<!-- cloud_baby -->
<g id="node37" class="node">
<title>cloud_baby</title>
<path fill="#90caf9" stroke="black" d="M98,-859C98,-859 26,-859 26,-859 20,-859 14,-853 14,-847 14,-847 14,-835 14,-835 14,-829 20,-823 26,-823 26,-823 98,-823 98,-823 104,-823 110,-829 110,-835 110,-835 110,-847 110,-847 110,-853 104,-859 98,-859"/>
<text text-anchor="middle" x="62" y="-837.3" font-family="Times,serif" font-size="14.00">cloud_baby</text>
</g>
<!-- cloud_rookie -->
<g id="node38" class="node">
<title>cloud_rookie</title>
<path fill="#90caf9" stroke="black" d="M268,-859C268,-859 186,-859 186,-859 180,-859 174,-853 174,-847 174,-847 174,-835 174,-835 174,-829 180,-823 186,-823 186,-823 268,-823 268,-823 274,-823 280,-829 280,-835 280,-835 280,-847 280,-847 280,-853 274,-859 268,-859"/>
<text text-anchor="middle" x="227" y="-837.3" font-family="Times,serif" font-size="14.00">cloud_rookie</text>
</g>
<!-- cloud_baby&#45;&gt;cloud_rookie -->
<g id="edge44" class="edge">
<title>cloud_baby&#45;&gt;cloud_rookie</title>
<path fill="none" stroke="black" d="M110.15,-841C126.81,-841 145.82,-841 163.55,-841"/>
<polygon fill="black" stroke="black" points="163.82,-844.5 173.82,-841 163.82,-837.5 163.82,-844.5"/>
</g>
<!-- cloud_champion_wind -->
<g id="node39" class="node">
<title>cloud_champion_wind</title>
<path fill="#90caf9" stroke="black" d="M513.5,-859C513.5,-859 365.5,-859 365.5,-859 359.5,-859 353.5,-853 353.5,-847 353.5,-847 353.5,-835 353.5,-835 353.5,-829 359.5,-823 365.5,-823 365.5,-823 513.5,-823 513.5,-823 519.5,-823 525.5,-829 525.5,-835 525.5,-835 525.5,-847 525.5,-847 525.5,-853 519.5,-859 513.5,-859"/>
<text text-anchor="middle" x="439.5" y="-837.3" font-family="Times,serif" font-size="14.00">cloud_champion_wind</text>
</g>
<!-- cloud_rookie&#45;&gt;cloud_champion_wind -->
<g id="edge45" class="edge">
<title>cloud_rookie&#45;&gt;cloud_champion_wind</title>
<path fill="none" stroke="#7e57c2" d="M280.03,-841C299.16,-841 321.47,-841 343.21,-841"/>
<polygon fill="#7e57c2" stroke="#7e57c2" points="343.48,-844.5 353.48,-841 343.48,-837.5 343.48,-844.5"/>
</g>
<!-- cloud_champion_rain -->
<g id="node40" class="node">
<title>cloud_champion_rain</title>
<path fill="#90caf9" stroke="black" d="M510.5,-805C510.5,-805 368.5,-805 368.5,-805 362.5,-805 356.5,-799 356.5,-793 356.5,-793 356.5,-781 356.5,-781 356.5,-775 362.5,-769 368.5,-769 368.5,-769 510.5,-769 510.5,-769 516.5,-769 522.5,-775 522.5,-781 522.5,-781 522.5,-793 522.5,-793 522.5,-799 516.5,-805 510.5,-805"/>
<text text-anchor="middle" x="439.5" y="-783.3" font-family="Times,serif" font-size="14.00">cloud_champion_rain</text>
</g>
<!-- cloud_rookie&#45;&gt;cloud_champion_rain -->
<g id="edge46" class="edge">
<title>cloud_rookie&#45;&gt;cloud_champion_rain</title>
<path fill="none" stroke="#7e57c2" d="M280.11,-827.05C296.11,-822.81 313.77,-818.17 330,-814 338.33,-811.86 347.03,-809.65 355.72,-807.46"/>
<polygon fill="#7e57c2" stroke="#7e57c2" points="356.66,-810.84 365.51,-805.01 354.96,-804.05 356.66,-810.84"/>
</g>
<!-- cloud_champion_storm -->
<g id="node41" class="node">
<title>cloud_champion_storm</title>
<path fill="#90caf9" stroke="black" d="M517,-913C517,-913 362,-913 362,-913 356,-913 350,-907 350,-901 350,-901 350,-889 350,-889 350,-883 356,-877 362,-877 362,-877 517,-877 517,-877 523,-877 529,-883 529,-889 529,-889 529,-901 529,-901 529,-907 523,-913 517,-913"/>
<text text-anchor="middle" x="439.5" y="-891.3" font-family="Times,serif" font-size="14.00">cloud_champion_storm</text>
</g>
<!-- cloud_rookie&#45;&gt;cloud_champion_storm -->
<g id="edge47" class="edge">
<title>cloud_rookie&#45;&gt;cloud_champion_storm</title>
<path fill="none" stroke="#7e57c2" d="M280.11,-854.95C296.11,-859.19 313.77,-863.83 330,-868 338.33,-870.14 347.03,-872.35 355.72,-874.54"/>
<polygon fill="#7e57c2" stroke="#7e57c2" points="354.96,-877.95 365.51,-876.99 356.66,-871.16 354.96,-877.95"/>
</g>
<!-- cloud_final_jetstream -->
<g id="node42" class="node">
<title>cloud_final_jetstream</title>
<path fill="lightgrey" stroke="black" d="M756,-913C756,-913 612,-913 612,-913 606,-913 600,-907 600,-901 600,-901 600,-889 600,-889 600,-883 606,-877 612,-877 612,-877 756,-877 756,-877 762,-877 768,-883 768,-889 768,-889 768,-901 768,-901 768,-907 762,-913 756,-913"/>
<text text-anchor="middle" x="684" y="-891.3" font-family="Times,serif" font-size="14.00" fill="white">cloud_final_jetstream</text>
</g>
<!-- cloud_champion_wind&#45;&gt;cloud_final_jetstream -->
<g id="edge48" class="edge">
<title>cloud_champion_wind&#45;&gt;cloud_final_jetstream</title>
<path fill="none" stroke="#7e57c2" d="M521.59,-859.06C544.24,-864.1 568.99,-869.61 592.17,-874.77"/>
<polygon fill="#7e57c2" stroke="#7e57c2" points="591.47,-878.2 601.99,-876.96 592.99,-871.37 591.47,-878.2"/>
</g>
<!-- cloud_final_halo -->
<g id="node43" class="node">
<title>cloud_final_halo</title>
<path fill="lightgrey" stroke="black" d="M736.5,-805C736.5,-805 631.5,-805 631.5,-805 625.5,-805 619.5,-799 619.5,-793 619.5,-793 619.5,-781 619.5,-781 619.5,-775 625.5,-769 631.5,-769 631.5,-769 736.5,-769 736.5,-769 742.5,-769 748.5,-775 748.5,-781 748.5,-781 748.5,-793 748.5,-793 748.5,-799 742.5,-805 736.5,-805"/>
<text text-anchor="middle" x="684" y="-783.3" font-family="Times,serif" font-size="14.00" fill="white">cloud_final_halo</text>
</g>
<!-- cloud_champion_wind&#45;&gt;cloud_final_halo -->
<g id="edge49" class="edge">
<title>cloud_champion_wind&#45;&gt;cloud_final_halo</title>
<path fill="none" stroke="#7e57c2" d="M521.59,-822.94C549.91,-816.64 581.54,-809.59 609.24,-803.43"/>
<polygon fill="#7e57c2" stroke="#7e57c2" points="610.25,-806.79 619.25,-801.2 608.73,-799.95 610.25,-806.79"/>
</g>
<!-- cloud_champion_rain&#45;&gt;cloud_final_halo -->
<g id="edge50" class="edge">
<title>cloud_champion_rain&#45;&gt;cloud_final_halo</title>
<path fill="none" stroke="#7e57c2" d="M522.6,-787C550.62,-787 581.77,-787 609.11,-787"/>
<polygon fill="#7e57c2" stroke="#7e57c2" points="609.39,-790.5 619.39,-787 609.38,-783.5 609.39,-790.5"/>
</g>
<!-- cloud_final_tempest -->
<g id="node44" class="node">
<title>cloud_final_tempest</title>
<path fill="lightgrey" stroke="black" d="M751,-859C751,-859 617,-859 617,-859 611,-859 605,-853 605,-847 605,-847 605,-835 605,-835 605,-829 611,-823 617,-823 617,-823 751,-823 751,-823 757,-823 763,-829 763,-835 763,-835 763,-847 763,-847 763,-853 757,-859 751,-859"/>
<text text-anchor="middle" x="684" y="-837.3" font-family="Times,serif" font-size="14.00" fill="white">cloud_final_tempest</text>
</g>
<!-- cloud_champion_rain&#45;&gt;cloud_final_tempest -->
<g id="edge51" class="edge">
<title>cloud_champion_rain&#45;&gt;cloud_final_tempest</title>
<path fill="none" stroke="#7e57c2" d="M521.59,-805.06C545.18,-810.31 571.07,-816.08 595.07,-821.42"/>
<polygon fill="#7e57c2" stroke="#7e57c2" points="594.35,-824.84 604.87,-823.6 595.87,-818.01 594.35,-824.84"/>
</g>
<!-- cloud_champion_storm&#45;&gt;cloud_final_jetstream -->
<g id="edge53" class="edge">
<title>cloud_champion_storm&#45;&gt;cloud_final_jetstream</title>
<path fill="none" stroke="#7e57c2" d="M529.08,-895C548.87,-895 569.92,-895 589.89,-895"/>
<polygon fill="#7e57c2" stroke="#7e57c2" points="589.91,-898.5 599.91,-895 589.91,-891.5 589.91,-898.5"/>
</g>
<!-- cloud_champion_storm&#45;&gt;cloud_final_tempest -->
<g id="edge52" class="edge">
<title>cloud_champion_storm&#45;&gt;cloud_final_tempest</title>
<path fill="none" stroke="#7e57c2" d="M521.59,-876.94C545.18,-871.69 571.07,-865.92 595.07,-860.58"/>
<polygon fill="#7e57c2" stroke="#7e57c2" points="595.87,-863.99 604.87,-858.4 594.35,-857.16 595.87,-863.99"/>
</g>
<!-- archive_baby -->
<g id="node45" class="node">
<title>archive_baby</title>
<path fill="#ce93d8" stroke="black" d="M105,-1021C105,-1021 19,-1021 19,-1021 13,-1021 7,-1015 7,-1009 7,-1009 7,-997 7,-997 7,-991 13,-985 19,-985 19,-985 105,-985 105,-985 111,-985 117,-991 117,-997 117,-997 117,-1009 117,-1009 117,-1015 111,-1021 105,-1021"/>
<text text-anchor="middle" x="62" y="-999.3" font-family="Times,serif" font-size="14.00">archive_baby</text>
</g>
<!-- archive_rookie -->
<g id="node46" class="node">
<title>archive_rookie</title>
<path fill="#ce93d8" stroke="black" d="M275,-1021C275,-1021 179,-1021 179,-1021 173,-1021 167,-1015 167,-1009 167,-1009 167,-997 167,-997 167,-991 173,-985 179,-985 179,-985 275,-985 275,-985 281,-985 287,-991 287,-997 287,-997 287,-1009 287,-1009 287,-1015 281,-1021 275,-1021"/>
<text text-anchor="middle" x="227" y="-999.3" font-family="Times,serif" font-size="14.00">archive_rookie</text>
</g>
<!-- archive_baby&#45;&gt;archive_rookie -->
<g id="edge54" class="edge">
<title>archive_baby&#45;&gt;archive_rookie</title>
<path fill="none" stroke="black" d="M117.28,-1003C129.97,-1003 143.66,-1003 156.9,-1003"/>
<polygon fill="black" stroke="black" points="156.92,-1006.5 166.92,-1003 156.92,-999.5 156.92,-1006.5"/>
</g>
<!-- archive_champion_logic -->
<g id="node47" class="node">
<title>archive_champion_logic</title>
<path fill="#ce93d8" stroke="black" d="M520,-1021C520,-1021 359,-1021 359,-1021 353,-1021 347,-1015 347,-1009 347,-1009 347,-997 347,-997 347,-991 353,-985 359,-985 359,-985 520,-985 520,-985 526,-985 532,-991 532,-997 532,-997 532,-1009 532,-1009 532,-1015 526,-1021 520,-1021"/>
<text text-anchor="middle" x="439.5" y="-999.3" font-family="Times,serif" font-size="14.00">archive_champion_logic</text>
</g>
<!-- archive_rookie&#45;&gt;archive_champion_logic -->
<g id="edge55" class="edge">
<title>archive_rookie&#45;&gt;archive_champion_logic</title>
<path fill="none" stroke="#7e57c2" d="M287.2,-1003C302.5,-1003 319.43,-1003 336.25,-1003"/>
<polygon fill="#7e57c2" stroke="#7e57c2" points="336.7,-1006.5 346.7,-1003 336.7,-999.5 336.7,-1006.5"/>
</g>
<!-- archive_champion_index -->
<g id="node48" class="node">
<title>archive_champion_index</title>
<path fill="#ce93d8" stroke="black" d="M523,-967C523,-967 356,-967 356,-967 350,-967 344,-961 344,-955 344,-955 344,-943 344,-943 344,-937 350,-931 356,-931 356,-931 523,-931 523,-931 529,-931 535,-937 535,-943 535,-943 535,-955 535,-955 535,-961 529,-967 523,-967"/>
<text text-anchor="middle" x="439.5" y="-945.3" font-family="Times,serif" font-size="14.00">archive_champion_index</text>
</g>
<!-- archive_rookie&#45;&gt;archive_champion_index -->
<g id="edge56" class="edge">
<title>archive_rookie&#45;&gt;archive_champion_index</title>
<path fill="none" stroke="#7e57c2" d="M287.02,-987.22C301.09,-983.5 316.07,-979.58 330,-976 338.33,-973.86 347.03,-971.65 355.72,-969.46"/>
<polygon fill="#7e57c2" stroke="#7e57c2" points="356.66,-972.84 365.51,-967.01 354.96,-966.05 356.66,-972.84"/>
</g>
<!-- archive_champion_fragment -->
<g id="node49" class="node">
<title>archive_champion_fragment</title>
<path fill="#ce93d8" stroke="black" d="M536.5,-1075C536.5,-1075 342.5,-1075 342.5,-1075 336.5,-1075 330.5,-1069 330.5,-1063 330.5,-1063 330.5,-1051 330.5,-1051 330.5,-1045 336.5,-1039 342.5,-1039 342.5,-1039 536.5,-1039 536.5,-1039 542.5,-1039 548.5,-1045 548.5,-1051 548.5,-1051 548.5,-1063 548.5,-1063 548.5,-1069 542.5,-1075 536.5,-1075"/>
<text text-anchor="middle" x="439.5" y="-1053.3" font-family="Times,serif" font-size="14.00">archive_champion_fragment</text>
</g>
<!-- archive_rookie&#45;&gt;archive_champion_fragment -->
<g id="edge57" class="edge">
<title>archive_rookie&#45;&gt;archive_champion_fragment</title>
<path fill="none" stroke="#7e57c2" d="M287.02,-1018.78C301.09,-1022.5 316.07,-1026.42 330,-1030 338.33,-1032.14 347.03,-1034.35 355.72,-1036.54"/>
<polygon fill="#7e57c2" stroke="#7e57c2" points="354.96,-1039.95 365.51,-1038.99 356.66,-1033.16 354.96,-1039.95"/>
</g>
<!-- archive_final_compiler -->
<g id="node50" class="node">
<title>archive_final_compiler</title>
<path fill="lightgrey" stroke="black" d="M760,-1075C760,-1075 608,-1075 608,-1075 602,-1075 596,-1069 596,-1063 596,-1063 596,-1051 596,-1051 596,-1045 602,-1039 608,-1039 608,-1039 760,-1039 760,-1039 766,-1039 772,-1045 772,-1051 772,-1051 772,-1063 772,-1063 772,-1069 766,-1075 760,-1075"/>
<text text-anchor="middle" x="684" y="-1053.3" font-family="Times,serif" font-size="14.00" fill="white">archive_final_compiler</text>
</g>
<!-- archive_champion_logic&#45;&gt;archive_final_compiler -->
<g id="edge58" class="edge">
<title>archive_champion_logic&#45;&gt;archive_final_compiler</title>
<path fill="none" stroke="#7e57c2" d="M521.59,-1021.06C544.24,-1026.1 568.99,-1031.61 592.17,-1036.77"/>
<polygon fill="#7e57c2" stroke="#7e57c2" points="591.47,-1040.2 601.99,-1038.96 592.99,-1033.37 591.47,-1040.2"/>
</g>
<!-- archive_final_librarian -->
<g id="node51" class="node">
<title>archive_final_librarian</title>
<path fill="lightgrey" stroke="black" d="M759.5,-967C759.5,-967 608.5,-967 608.5,-967 602.5,-967 596.5,-961 596.5,-955 596.5,-955 596.5,-943 596.5,-943 596.5,-937 602.5,-931 608.5,-931 608.5,-931 759.5,-931 759.5,-931 765.5,-931 771.5,-937 771.5,-943 771.5,-943 771.5,-955 771.5,-955 771.5,-961 765.5,-967 759.5,-967"/>
<text text-anchor="middle" x="684" y="-945.3" font-family="Times,serif" font-size="14.00" fill="white">archive_final_librarian</text>
</g>
<!-- archive_champion_logic&#45;&gt;archive_final_librarian -->
<g id="edge59" class="edge">
<title>archive_champion_logic&#45;&gt;archive_final_librarian</title>
<path fill="none" stroke="#7e57c2" d="M521.59,-984.94C544.24,-979.9 568.99,-974.39 592.17,-969.23"/>
<polygon fill="#7e57c2" stroke="#7e57c2" points="592.99,-972.63 601.99,-967.04 591.47,-965.8 592.99,-972.63"/>
</g>
<!-- archive_champion_index&#45;&gt;archive_final_librarian -->
<g id="edge60" class="edge">
<title>archive_champion_index&#45;&gt;archive_final_librarian</title>
<path fill="none" stroke="#7e57c2" d="M535.3,-949C551.91,-949 569.22,-949 585.89,-949"/>
<polygon fill="#7e57c2" stroke="#7e57c2" points="586.18,-952.5 596.18,-949 586.18,-945.5 586.18,-952.5"/>
</g>
<!-- archive_final_corrupt -->
<g id="node52" class="node">
<title>archive_final_corrupt</title>
<path fill="lightgrey" stroke="black" d="M755.5,-1021C755.5,-1021 612.5,-1021 612.5,-1021 606.5,-1021 600.5,-1015 600.5,-1009 600.5,-1009 600.5,-997 600.5,-997 600.5,-991 606.5,-985 612.5,-985 612.5,-985 755.5,-985 755.5,-985 761.5,-985 767.5,-991 767.5,-997 767.5,-997 767.5,-1009 767.5,-1009 767.5,-1015 761.5,-1021 755.5,-1021"/>
<text text-anchor="middle" x="684" y="-999.3" font-family="Times,serif" font-size="14.00" fill="white">archive_final_corrupt</text>
</g>
<!-- archive_champion_index&#45;&gt;archive_final_corrupt -->
<g id="edge61" class="edge">
<title>archive_champion_index&#45;&gt;archive_final_corrupt</title>
<path fill="none" stroke="#7e57c2" d="M521.59,-967.06C544.24,-972.1 568.99,-977.61 592.17,-982.77"/>
<polygon fill="#7e57c2" stroke="#7e57c2" points="591.47,-986.2 601.99,-984.96 592.99,-979.37 591.47,-986.2"/>
</g>
<!-- archive_champion_fragment&#45;&gt;archive_final_compiler -->
<g id="edge63" class="edge">
<title>archive_champion_fragment&#45;&gt;archive_final_compiler</title>
<path fill="none" stroke="#7e57c2" d="M548.63,-1057C560.96,-1057 573.48,-1057 585.66,-1057"/>
<polygon fill="#7e57c2" stroke="#7e57c2" points="585.81,-1060.5 595.81,-1057 585.81,-1053.5 585.81,-1060.5"/>
</g>
<!-- archive_champion_fragment&#45;&gt;archive_final_corrupt -->
<g id="edge62" class="edge">
<title>archive_champion_fragment&#45;&gt;archive_final_corrupt</title>
<path fill="none" stroke="#7e57c2" d="M521.59,-1038.94C544.24,-1033.9 568.99,-1028.39 592.17,-1023.23"/>
<polygon fill="#7e57c2" stroke="#7e57c2" points="592.99,-1026.63 601.99,-1021.04 591.47,-1019.8 592.99,-1026.63"/>
</g>
<!-- corrupt_baby -->
<g id="node53" class="node">
<title>corrupt_baby</title>
<path fill="#ef5350" stroke="black" d="M105.5,-1183C105.5,-1183 18.5,-1183 18.5,-1183 12.5,-1183 6.5,-1177 6.5,-1171 6.5,-1171 6.5,-1159 6.5,-1159 6.5,-1153 12.5,-1147 18.5,-1147 18.5,-1147 105.5,-1147 105.5,-1147 111.5,-1147 117.5,-1153 117.5,-1159 117.5,-1159 117.5,-1171 117.5,-1171 117.5,-1177 111.5,-1183 105.5,-1183"/>
<text text-anchor="middle" x="62" y="-1161.3" font-family="Times,serif" font-size="14.00">corrupt_baby</text>
</g>
<!-- corrupt_rookie -->
<g id="node54" class="node">
<title>corrupt_rookie</title>
<path fill="#ef5350" stroke="black" d="M275.5,-1183C275.5,-1183 178.5,-1183 178.5,-1183 172.5,-1183 166.5,-1177 166.5,-1171 166.5,-1171 166.5,-1159 166.5,-1159 166.5,-1153 172.5,-1147 178.5,-1147 178.5,-1147 275.5,-1147 275.5,-1147 281.5,-1147 287.5,-1153 287.5,-1159 287.5,-1159 287.5,-1171 287.5,-1171 287.5,-1177 281.5,-1183 275.5,-1183"/>
<text text-anchor="middle" x="227" y="-1161.3" font-family="Times,serif" font-size="14.00">corrupt_rookie</text>
</g>
<!-- corrupt_baby&#45;&gt;corrupt_rookie -->
<g id="edge64" class="edge">
<title>corrupt_baby&#45;&gt;corrupt_rookie</title>
<path fill="none" stroke="black" d="M117.73,-1165C130.06,-1165 143.32,-1165 156.17,-1165"/>
<polygon fill="black" stroke="black" points="156.38,-1168.5 166.38,-1165 156.38,-1161.5 156.38,-1168.5"/>
</g>
<!-- corrupt_champion_glitch -->
<g id="node55" class="node">
<title>corrupt_champion_glitch</title>
<path fill="#ef5350" stroke="black" d="M524,-1237C524,-1237 355,-1237 355,-1237 349,-1237 343,-1231 343,-1225 343,-1225 343,-1213 343,-1213 343,-1207 349,-1201 355,-1201 355,-1201 524,-1201 524,-1201 530,-1201 536,-1207 536,-1213 536,-1213 536,-1225 536,-1225 536,-1231 530,-1237 524,-1237"/>
<text text-anchor="middle" x="439.5" y="-1215.3" font-family="Times,serif" font-size="14.00">corrupt_champion_glitch</text>
</g>
<!-- corrupt_rookie&#45;&gt;corrupt_champion_glitch -->
<g id="edge65" class="edge">
<title>corrupt_rookie&#45;&gt;corrupt_champion_glitch</title>
<path fill="none" stroke="#7e57c2" d="M287.56,-1180.93C301.48,-1184.6 316.25,-1188.47 330,-1192 338.33,-1194.14 347.03,-1196.35 355.72,-1198.54"/>
<polygon fill="#7e57c2" stroke="#7e57c2" points="354.96,-1201.95 365.51,-1200.99 356.66,-1195.16 354.96,-1201.95"/>
</g>
<!-- corrupt_champion_error -->
<g id="node56" class="node">
<title>corrupt_champion_error</title>
<path fill="#ef5350" stroke="black" d="M522,-1183C522,-1183 357,-1183 357,-1183 351,-1183 345,-1177 345,-1171 345,-1171 345,-1159 345,-1159 345,-1153 351,-1147 357,-1147 357,-1147 522,-1147 522,-1147 528,-1147 534,-1153 534,-1159 534,-1159 534,-1171 534,-1171 534,-1177 528,-1183 522,-1183"/>
<text text-anchor="middle" x="439.5" y="-1161.3" font-family="Times,serif" font-size="14.00">corrupt_champion_error</text>
</g>
<!-- corrupt_rookie&#45;&gt;corrupt_champion_error -->
<g id="edge66" class="edge">
<title>corrupt_rookie&#45;&gt;corrupt_champion_error</title>
<path fill="none" stroke="#7e57c2" d="M287.76,-1165C302.45,-1165 318.62,-1165 334.73,-1165"/>
<polygon fill="#7e57c2" stroke="#7e57c2" points="334.74,-1168.5 344.74,-1165 334.74,-1161.5 334.74,-1168.5"/>
</g>
<!-- corrupt_champion_patchfail -->
<g id="node57" class="node">
<title>corrupt_champion_patchfail</title>
<path fill="#ef5350" stroke="black" d="M535,-1129C535,-1129 344,-1129 344,-1129 338,-1129 332,-1123 332,-1117 332,-1117 332,-1105 332,-1105 332,-1099 338,-1093 344,-1093 344,-1093 535,-1093 535,-1093 541,-1093 547,-1099 547,-1105 547,-1105 547,-1117 547,-1117 547,-1123 541,-1129 535,-1129"/>
<text text-anchor="middle" x="439.5" y="-1107.3" font-family="Times,serif" font-size="14.00">corrupt_champion_patchfail</text>
</g>
<!-- corrupt_rookie&#45;&gt;corrupt_champion_patchfail -->
<g id="edge67" class="edge">
<title>corrupt_rookie&#45;&gt;corrupt_champion_patchfail</title>
<path fill="none" stroke="#7e57c2" d="M287.56,-1149.07C301.48,-1145.4 316.25,-1141.53 330,-1138 338.33,-1135.86 347.03,-1133.65 355.72,-1131.46"/>
<polygon fill="#7e57c2" stroke="#7e57c2" points="356.66,-1134.84 365.51,-1129.01 354.96,-1128.05 356.66,-1134.84"/>
</g>
<!-- corrupt_final_corruptcore -->
<g id="node58" class="node">
<title>corrupt_final_corruptcore</title>
<path fill="lightgrey" stroke="black" d="M771,-1210C771,-1210 597,-1210 597,-1210 591,-1210 585,-1204 585,-1198 585,-1198 585,-1186 585,-1186 585,-1180 591,-1174 597,-1174 597,-1174 771,-1174 771,-1174 777,-1174 783,-1180 783,-1186 783,-1186 783,-1198 783,-1198 783,-1204 777,-1210 771,-1210"/>
<text text-anchor="middle" x="684" y="-1188.3" font-family="Times,serif" font-size="14.00" fill="white">corrupt_final_corruptcore</text>
</g>
<!-- corrupt_champion_glitch&#45;&gt;corrupt_final_corruptcore -->
<g id="edge68" class="edge">
<title>corrupt_champion_glitch&#45;&gt;corrupt_final_corruptcore</title>
<path fill="none" stroke="#7e57c2" d="M536.34,-1208.33C548.88,-1206.93 561.79,-1205.5 574.52,-1204.08"/>
<polygon fill="#7e57c2" stroke="#7e57c2" points="575.12,-1207.53 584.67,-1202.95 574.35,-1200.58 575.12,-1207.53"/>
</g>
<!-- corrupt_final_overrun -->
<g id="node59" class="node">
<title>corrupt_final_overrun</title>
<path fill="lightgrey" stroke="black" d="M757,-1156C757,-1156 611,-1156 611,-1156 605,-1156 599,-1150 599,-1144 599,-1144 599,-1132 599,-1132 599,-1126 605,-1120 611,-1120 611,-1120 757,-1120 757,-1120 763,-1120 769,-1126 769,-1132 769,-1132 769,-1144 769,-1144 769,-1150 763,-1156 757,-1156"/>
<text text-anchor="middle" x="684" y="-1134.3" font-family="Times,serif" font-size="14.00" fill="white">corrupt_final_overrun</text>
</g>
<!-- corrupt_champion_glitch&#45;&gt;corrupt_final_overrun -->
<g id="edge69" class="edge">
<title>corrupt_champion_glitch&#45;&gt;corrupt_final_overrun</title>
<path fill="none" stroke="#7e57c2" d="M526.62,-1200.99C534.33,-1198.36 541.9,-1195.37 549,-1192 567.06,-1183.41 567.05,-1173.81 585,-1165 588.83,-1163.12 592.81,-1161.35 596.89,-1159.7"/>
<polygon fill="#7e57c2" stroke="#7e57c2" points="598.42,-1162.86 606.51,-1156.03 595.92,-1156.32 598.42,-1162.86"/>
</g>
<!-- corrupt_champion_error&#45;&gt;corrupt_final_corruptcore -->
<g id="edge71" class="edge">
<title>corrupt_champion_error&#45;&gt;corrupt_final_corruptcore</title>
<path fill="none" stroke="#7e57c2" d="M534.26,-1175.44C547.43,-1176.91 561.05,-1178.42 574.47,-1179.92"/>
<polygon fill="#7e57c2" stroke="#7e57c2" points="574.35,-1183.42 584.68,-1181.05 575.13,-1176.47 574.35,-1183.42"/>
</g>
<!-- corrupt_champion_error&#45;&gt;corrupt_final_overrun -->
<g id="edge70" class="edge">
<title>corrupt_champion_error&#45;&gt;corrupt_final_overrun</title>
<path fill="none" stroke="#7e57c2" d="M534.26,-1154.56C552.17,-1152.57 570.92,-1150.48 588.84,-1148.48"/>
<polygon fill="#7e57c2" stroke="#7e57c2" points="589.44,-1151.94 598.99,-1147.35 588.67,-1144.98 589.44,-1151.94"/>
</g>
<!-- corrupt_champion_patchfail&#45;&gt;corrupt_final_corruptcore -->
<g id="edge72" class="edge">
<title>corrupt_champion_patchfail&#45;&gt;corrupt_final_corruptcore</title>
<path fill="none" stroke="#7e57c2" d="M526.62,-1129.01C534.33,-1131.64 541.9,-1134.63 549,-1138 567.06,-1146.59 567.05,-1156.19 585,-1165 588.83,-1166.88 592.81,-1168.65 596.89,-1170.3"/>
<polygon fill="#7e57c2" stroke="#7e57c2" points="595.92,-1173.68 606.51,-1173.97 598.42,-1167.14 595.92,-1173.68"/>
</g>
<!-- corrupt_champion_patchfail&#45;&gt;corrupt_final_overrun -->
<g id="edge73" class="edge">
<title>corrupt_champion_patchfail&#45;&gt;corrupt_final_overrun</title>
<path fill="none" stroke="#7e57c2" d="M547.22,-1122.88C560.99,-1124.42 575.01,-1125.98 588.57,-1127.49"/>
<polygon fill="#7e57c2" stroke="#7e57c2" points="588.5,-1131 598.83,-1128.63 589.28,-1124.04 588.5,-1131"/>
</g>
<!-- echo_baby -->
<g id="node60" class="node">
<title>echo_baby</title>
<path fill="#ba68c8" stroke="black" d="M95.5,-1345C95.5,-1345 28.5,-1345 28.5,-1345 22.5,-1345 16.5,-1339 16.5,-1333 16.5,-1333 16.5,-1321 16.5,-1321 16.5,-1315 22.5,-1309 28.5,-1309 28.5,-1309 95.5,-1309 95.5,-1309 101.5,-1309 107.5,-1315 107.5,-1321 107.5,-1321 107.5,-1333 107.5,-1333 107.5,-1339 101.5,-1345 95.5,-1345"/>
<text text-anchor="middle" x="62" y="-1323.3" font-family="Times,serif" font-size="14.00">echo_baby</text>
</g>
<!-- echo_rookie -->
<g id="node61" class="node">
<title>echo_rookie</title>
<path fill="#ba68c8" stroke="black" d="M265.5,-1345C265.5,-1345 188.5,-1345 188.5,-1345 182.5,-1345 176.5,-1339 176.5,-1333 176.5,-1333 176.5,-1321 176.5,-1321 176.5,-1315 182.5,-1309 188.5,-1309 188.5,-1309 265.5,-1309 265.5,-1309 271.5,-1309 277.5,-1315 277.5,-1321 277.5,-1321 277.5,-1333 277.5,-1333 277.5,-1339 271.5,-1345 265.5,-1345"/>
<text text-anchor="middle" x="227" y="-1323.3" font-family="Times,serif" font-size="14.00">echo_rookie</text>
</g>
<!-- echo_baby&#45;&gt;echo_rookie -->
<g id="edge74" class="edge">
<title>echo_baby&#45;&gt;echo_rookie</title>
<path fill="none" stroke="black" d="M107.54,-1327C125.6,-1327 146.73,-1327 166.1,-1327"/>
<polygon fill="black" stroke="black" points="166.35,-1330.5 176.35,-1327 166.35,-1323.5 166.35,-1330.5"/>
</g>
<!-- echo_champion_resonate -->
<g id="node62" class="node">
<title>echo_champion_resonate</title>
<path fill="#ba68c8" stroke="black" d="M524.5,-1399C524.5,-1399 354.5,-1399 354.5,-1399 348.5,-1399 342.5,-1393 342.5,-1387 342.5,-1387 342.5,-1375 342.5,-1375 342.5,-1369 348.5,-1363 354.5,-1363 354.5,-1363 524.5,-1363 524.5,-1363 530.5,-1363 536.5,-1369 536.5,-1375 536.5,-1375 536.5,-1387 536.5,-1387 536.5,-1393 530.5,-1399 524.5,-1399"/>
<text text-anchor="middle" x="439.5" y="-1377.3" font-family="Times,serif" font-size="14.00">echo_champion_resonate</text>
</g>
<!-- echo_rookie&#45;&gt;echo_champion_resonate -->
<g id="edge75" class="edge">
<title>echo_rookie&#45;&gt;echo_champion_resonate</title>
<path fill="none" stroke="#7e57c2" d="M277.51,-1340.26C294.17,-1344.69 312.88,-1349.6 330,-1354 338.33,-1356.14 347.03,-1358.35 355.72,-1360.54"/>
<polygon fill="#7e57c2" stroke="#7e57c2" points="354.96,-1363.95 365.51,-1362.99 356.66,-1357.16 354.96,-1363.95"/>
</g>
<!-- echo_champion_reverb -->
<g id="node63" class="node">
<title>echo_champion_reverb</title>
<path fill="#ba68c8" stroke="black" d="M517,-1345C517,-1345 362,-1345 362,-1345 356,-1345 350,-1339 350,-1333 350,-1333 350,-1321 350,-1321 350,-1315 356,-1309 362,-1309 362,-1309 517,-1309 517,-1309 523,-1309 529,-1315 529,-1321 529,-1321 529,-1333 529,-1333 529,-1339 523,-1345 517,-1345"/>
<text text-anchor="middle" x="439.5" y="-1323.3" font-family="Times,serif" font-size="14.00">echo_champion_reverb</text>
</g>
<!-- echo_rookie&#45;&gt;echo_champion_reverb -->
<g id="edge76" class="edge">
<title>echo_rookie&#45;&gt;echo_champion_reverb</title>
<path fill="none" stroke="#7e57c2" d="M277.62,-1327C296.19,-1327 318.01,-1327 339.48,-1327"/>
<polygon fill="#7e57c2" stroke="#7e57c2" points="339.64,-1330.5 349.64,-1327 339.64,-1323.5 339.64,-1330.5"/>
</g>
<!-- echo_champion_distort -->
<g id="node64" class="node">
<title>echo_champion_distort</title>
<path fill="#ba68c8" stroke="black" d="M517.5,-1291C517.5,-1291 361.5,-1291 361.5,-1291 355.5,-1291 349.5,-1285 349.5,-1279 349.5,-1279 349.5,-1267 349.5,-1267 349.5,-1261 355.5,-1255 361.5,-1255 361.5,-1255 517.5,-1255 517.5,-1255 523.5,-1255 529.5,-1261 529.5,-1267 529.5,-1267 529.5,-1279 529.5,-1279 529.5,-1285 523.5,-1291 517.5,-1291"/>
<text text-anchor="middle" x="439.5" y="-1269.3" font-family="Times,serif" font-size="14.00">echo_champion_distort</text>
</g>
<!-- echo_rookie&#45;&gt;echo_champion_distort -->
<g id="edge77" class="edge">
<title>echo_rookie&#45;&gt;echo_champion_distort</title>
<path fill="none" stroke="#7e57c2" d="M277.51,-1313.74C294.17,-1309.31 312.88,-1304.4 330,-1300 338.33,-1297.86 347.03,-1295.65 355.72,-1293.46"/>
<polygon fill="#7e57c2" stroke="#7e57c2" points="356.66,-1296.84 365.51,-1291.01 354.96,-1290.05 356.66,-1296.84"/>
</g>
<!-- echo_final_harmonic -->
<g id="node65" class="node">
<title>echo_final_harmonic</title>
<path fill="lightgrey" stroke="black" d="M752.5,-1379C752.5,-1379 615.5,-1379 615.5,-1379 609.5,-1379 603.5,-1373 603.5,-1367 603.5,-1367 603.5,-1355 603.5,-1355 603.5,-1349 609.5,-1343 615.5,-1343 615.5,-1343 752.5,-1343 752.5,-1343 758.5,-1343 764.5,-1349 764.5,-1355 764.5,-1355 764.5,-1367 764.5,-1367 764.5,-1373 758.5,-1379 752.5,-1379"/>
<text text-anchor="middle" x="684" y="-1357.3" font-family="Times,serif" font-size="14.00" fill="white">echo_final_harmonic</text>
</g>
<!-- echo_champion_resonate&#45;&gt;echo_final_harmonic -->
<g id="edge78" class="edge">
<title>echo_champion_resonate&#45;&gt;echo_final_harmonic</title>
<path fill="none" stroke="#7e57c2" d="M536.69,-1373.07C555.32,-1371.53 574.78,-1369.93 593.2,-1368.41"/>
<polygon fill="#7e57c2" stroke="#7e57c2" points="593.64,-1371.88 603.31,-1367.57 593.06,-1364.91 593.64,-1371.88"/>
</g>
<!-- echo_final_feedback -->
<g id="node66" class="node">
<title>echo_final_feedback</title>
<path fill="lightgrey" stroke="black" d="M751,-1325C751,-1325 617,-1325 617,-1325 611,-1325 605,-1319 605,-1313 605,-1313 605,-1301 605,-1301 605,-1295 611,-1289 617,-1289 617,-1289 751,-1289 751,-1289 757,-1289 763,-1295 763,-1301 763,-1301 763,-1313 763,-1313 763,-1319 757,-1325 751,-1325"/>
<text text-anchor="middle" x="684" y="-1303.3" font-family="Times,serif" font-size="14.00" fill="white">echo_final_feedback</text>
</g>
<!-- echo_champion_resonate&#45;&gt;echo_final_feedback -->
<g id="edge79" class="edge">
<title>echo_champion_resonate&#45;&gt;echo_final_feedback</title>
<path fill="none" stroke="#7e57c2" d="M522.69,-1363C531.68,-1360.31 540.6,-1357.31 549,-1354 566.03,-1347.29 568.06,-1340.92 585,-1334 589.95,-1331.98 595.11,-1330.05 600.34,-1328.24"/>
<polygon fill="#7e57c2" stroke="#7e57c2" points="601.45,-1331.56 609.84,-1325.08 599.24,-1324.91 601.45,-1331.56"/>
</g>
<!-- echo_champion_reverb&#45;&gt;echo_final_harmonic -->
<g id="edge81" class="edge">
<title>echo_champion_reverb&#45;&gt;echo_final_harmonic</title>
<path fill="none" stroke="#7e57c2" d="M529.08,-1339.42C550.01,-1342.35 572.34,-1345.48 593.32,-1348.43"/>
<polygon fill="#7e57c2" stroke="#7e57c2" points="593.1,-1351.93 603.49,-1349.85 594.08,-1345 593.1,-1351.93"/>
</g>
<!-- echo_champion_reverb&#45;&gt;echo_final_feedback -->
<g id="edge80" class="edge">
<title>echo_champion_reverb&#45;&gt;echo_final_feedback</title>
<path fill="none" stroke="#7e57c2" d="M529.08,-1319.69C550.45,-1317.93 573.29,-1316.05 594.65,-1314.29"/>
<polygon fill="#7e57c2" stroke="#7e57c2" points="595,-1317.77 604.68,-1313.46 594.43,-1310.79 595,-1317.77"/>
</g>
<!-- echo_champion_distort&#45;&gt;echo_final_harmonic -->
<g id="edge83" class="edge">
<title>echo_champion_distort&#45;&gt;echo_final_harmonic</title>
<path fill="none" stroke="#7e57c2" d="M529.3,-1291.01C536.13,-1293.62 542.78,-1296.6 549,-1300 568.31,-1310.56 565.82,-1323.2 585,-1334 588.09,-1335.74 591.3,-1337.38 594.6,-1338.91"/>
<polygon fill="#7e57c2" stroke="#7e57c2" points="593.49,-1342.24 604.06,-1342.97 596.25,-1335.81 593.49,-1342.24"/>
</g>
<!-- echo_champion_distort&#45;&gt;echo_final_feedback -->
<g id="edge82" class="edge">
<title>echo_champion_distort&#45;&gt;echo_final_feedback</title>
<path fill="none" stroke="#7e57c2" d="M529.76,-1285.52C550.98,-1288.49 573.61,-1291.66 594.78,-1294.63"/>
<polygon fill="#7e57c2" stroke="#7e57c2" points="594.33,-1298.1 604.72,-1296.02 595.3,-1291.17 594.33,-1298.1"/>
</g>
<!-- core_baby -->
<g id="node67" class="node">
<title>core_baby</title>
<path fill="#4fc3f7" stroke="black" d="M94.5,-1534C94.5,-1534 29.5,-1534 29.5,-1534 23.5,-1534 17.5,-1528 17.5,-1522 17.5,-1522 17.5,-1510 17.5,-1510 17.5,-1504 23.5,-1498 29.5,-1498 29.5,-1498 94.5,-1498 94.5,-1498 100.5,-1498 106.5,-1504 106.5,-1510 106.5,-1510 106.5,-1522 106.5,-1522 106.5,-1528 100.5,-1534 94.5,-1534"/>
<text text-anchor="middle" x="62" y="-1512.3" font-family="Times,serif" font-size="14.00">core_baby</text>
</g>
<!-- core_rookie -->
<g id="node68" class="node">
<title>core_rookie</title>
<path fill="#4fc3f7" stroke="black" d="M264,-1534C264,-1534 190,-1534 190,-1534 184,-1534 178,-1528 178,-1522 178,-1522 178,-1510 178,-1510 178,-1504 184,-1498 190,-1498 190,-1498 264,-1498 264,-1498 270,-1498 276,-1504 276,-1510 276,-1510 276,-1522 276,-1522 276,-1528 270,-1534 264,-1534"/>
<text text-anchor="middle" x="227" y="-1512.3" font-family="Times,serif" font-size="14.00">core_rookie</text>
</g>
<!-- core_baby&#45;&gt;core_rookie -->
<g id="edge84" class="edge">
<title>core_baby&#45;&gt;core_rookie</title>
<path fill="none" stroke="black" d="M106.68,-1516C125.48,-1516 147.72,-1516 167.88,-1516"/>
<polygon fill="black" stroke="black" points="167.9,-1519.5 177.9,-1516 167.9,-1512.5 167.9,-1519.5"/>
</g>
<!-- core_champion_power -->
<g id="node69" class="node">
<title>core_champion_power</title>
<path fill="#4fc3f7" stroke="black" d="M514.5,-1588C514.5,-1588 364.5,-1588 364.5,-1588 358.5,-1588 352.5,-1582 352.5,-1576 352.5,-1576 352.5,-1564 352.5,-1564 352.5,-1558 358.5,-1552 364.5,-1552 364.5,-1552 514.5,-1552 514.5,-1552 520.5,-1552 526.5,-1558 526.5,-1564 526.5,-1564 526.5,-1576 526.5,-1576 526.5,-1582 520.5,-1588 514.5,-1588"/>
<text text-anchor="middle" x="439.5" y="-1566.3" font-family="Times,serif" font-size="14.00">core_champion_power</text>
</g>
<!-- core_rookie&#45;&gt;core_champion_power -->
<g id="edge85" class="edge">
<title>core_rookie&#45;&gt;core_champion_power</title>
<path fill="none" stroke="#7e57c2" d="M276.22,-1528.92C293.2,-1533.43 312.43,-1538.49 330,-1543 338.33,-1545.14 347.03,-1547.35 355.72,-1549.54"/>
<polygon fill="#7e57c2" stroke="#7e57c2" points="354.96,-1552.95 365.51,-1551.99 356.66,-1546.16 354.96,-1552.95"/>
</g>
<!-- core_champion_guard -->
<g id="node70" class="node">
<title>core_champion_guard</title>
<path fill="#4fc3f7" stroke="black" d="M513.5,-1534C513.5,-1534 365.5,-1534 365.5,-1534 359.5,-1534 353.5,-1528 353.5,-1522 353.5,-1522 353.5,-1510 353.5,-1510 353.5,-1504 359.5,-1498 365.5,-1498 365.5,-1498 513.5,-1498 513.5,-1498 519.5,-1498 525.5,-1504 525.5,-1510 525.5,-1510 525.5,-1522 525.5,-1522 525.5,-1528 519.5,-1534 513.5,-1534"/>
<text text-anchor="middle" x="439.5" y="-1512.3" font-family="Times,serif" font-size="14.00">core_champion_guard</text>
</g>
<!-- core_rookie&#45;&gt;core_champion_guard -->
<g id="edge86" class="edge">
<title>core_rookie&#45;&gt;core_champion_guard</title>
<path fill="none" stroke="#7e57c2" d="M276.03,-1516C296.01,-1516 319.94,-1516 343.21,-1516"/>
<polygon fill="#7e57c2" stroke="#7e57c2" points="343.48,-1519.5 353.48,-1516 343.48,-1512.5 343.48,-1519.5"/>
</g>
<!-- core_champion_speed -->
<g id="node71" class="node">
<title>core_champion_speed</title>
<path fill="#4fc3f7" stroke="black" d="M513.5,-1480C513.5,-1480 365.5,-1480 365.5,-1480 359.5,-1480 353.5,-1474 353.5,-1468 353.5,-1468 353.5,-1456 353.5,-1456 353.5,-1450 359.5,-1444 365.5,-1444 365.5,-1444 513.5,-1444 513.5,-1444 519.5,-1444 525.5,-1450 525.5,-1456 525.5,-1456 525.5,-1468 525.5,-1468 525.5,-1474 519.5,-1480 513.5,-1480"/>
<text text-anchor="middle" x="439.5" y="-1458.3" font-family="Times,serif" font-size="14.00">core_champion_speed</text>
</g>
<!-- core_rookie&#45;&gt;core_champion_speed -->
<g id="edge87" class="edge">
<title>core_rookie&#45;&gt;core_champion_speed</title>
<path fill="none" stroke="#7e57c2" d="M276.22,-1503.08C293.2,-1498.57 312.43,-1493.51 330,-1489 338.33,-1486.86 347.03,-1484.65 355.72,-1482.46"/>
<polygon fill="#7e57c2" stroke="#7e57c2" points="356.66,-1485.84 365.51,-1480.01 354.96,-1479.05 356.66,-1485.84"/>
</g>
<!-- core_final_overclock -->
<g id="node72" class="node">
<title>core_final_overclock</title>
<path fill="lightgrey" stroke="black" d="M751.5,-1608C751.5,-1608 616.5,-1608 616.5,-1608 610.5,-1608 604.5,-1602 604.5,-1596 604.5,-1596 604.5,-1584 604.5,-1584 604.5,-1578 610.5,-1572 616.5,-1572 616.5,-1572 751.5,-1572 751.5,-1572 757.5,-1572 763.5,-1578 763.5,-1584 763.5,-1584 763.5,-1596 763.5,-1596 763.5,-1602 757.5,-1608 751.5,-1608"/>
<text text-anchor="middle" x="684" y="-1586.3" font-family="Times,serif" font-size="14.00" fill="white">core_final_overclock</text>
</g>
<!-- core_champion_power&#45;&gt;core_final_overclock -->
<g id="edge88" class="edge">
<title>core_champion_power&#45;&gt;core_final_overclock</title>
<path fill="none" stroke="#7e57c2" d="M526.68,-1577.11C548.64,-1578.92 572.27,-1580.87 594.35,-1582.69"/>
<polygon fill="#7e57c2" stroke="#7e57c2" points="594.12,-1586.18 604.38,-1583.52 594.7,-1579.21 594.12,-1586.18"/>
</g>
<!-- core_final_prime -->
<g id="node73" class="node">
<title>core_final_prime</title>
<path fill="lightgrey" stroke="black" d="M739,-1554C739,-1554 629,-1554 629,-1554 623,-1554 617,-1548 617,-1542 617,-1542 617,-1530 617,-1530 617,-1524 623,-1518 629,-1518 629,-1518 739,-1518 739,-1518 745,-1518 751,-1524 751,-1530 751,-1530 751,-1542 751,-1542 751,-1548 745,-1554 739,-1554"/>
<text text-anchor="middle" x="684" y="-1532.3" font-family="Times,serif" font-size="14.00" fill="white">core_final_prime</text>
</g>
<!-- core_champion_power&#45;&gt;core_final_prime -->
<g id="edge89" class="edge">
<title>core_champion_power&#45;&gt;core_final_prime</title>
<path fill="none" stroke="#7e57c2" d="M526.68,-1557.92C552.88,-1554.24 581.47,-1550.24 606.95,-1546.66"/>
<polygon fill="#7e57c2" stroke="#7e57c2" points="607.5,-1550.12 616.92,-1545.26 606.53,-1543.19 607.5,-1550.12"/>
</g>
<!-- core_champion_guard&#45;&gt;core_final_prime -->
<g id="edge91" class="edge">
<title>core_champion_guard&#45;&gt;core_final_prime</title>
<path fill="none" stroke="#7e57c2" d="M525.66,-1523.02C552.04,-1525.2 580.93,-1527.58 606.68,-1529.71"/>
<polygon fill="#7e57c2" stroke="#7e57c2" points="606.5,-1533.2 616.75,-1530.54 607.08,-1526.23 606.5,-1533.2"/>
</g>
<!-- core_final_bastion -->
<g id="node74" class="node">
<title>core_final_bastion</title>
<path fill="lightgrey" stroke="black" d="M744,-1500C744,-1500 624,-1500 624,-1500 618,-1500 612,-1494 612,-1488 612,-1488 612,-1476 612,-1476 612,-1470 618,-1464 624,-1464 624,-1464 744,-1464 744,-1464 750,-1464 756,-1470 756,-1476 756,-1476 756,-1488 756,-1488 756,-1494 750,-1500 744,-1500"/>
<text text-anchor="middle" x="684" y="-1478.3" font-family="Times,serif" font-size="14.00" fill="white">core_final_bastion</text>
</g>
<!-- core_champion_guard&#45;&gt;core_final_bastion -->
<g id="edge90" class="edge">
<title>core_champion_guard&#45;&gt;core_final_bastion</title>
<path fill="none" stroke="#7e57c2" d="M525.66,-1504.06C550.36,-1500.6 577.27,-1496.82 601.74,-1493.39"/>
<polygon fill="#7e57c2" stroke="#7e57c2" points="602.28,-1496.85 611.7,-1492 601.31,-1489.92 602.28,-1496.85"/>
</g>
<!-- core_champion_speed&#45;&gt;core_final_prime -->
<g id="edge93" class="edge">
<title>core_champion_speed&#45;&gt;core_final_prime</title>
<path fill="none" stroke="#7e57c2" d="M522.69,-1480C531.68,-1482.69 540.6,-1485.69 549,-1489 566.03,-1495.71 568.06,-1502.08 585,-1509 592.12,-1511.91 599.66,-1514.61 607.27,-1517.09"/>
<polygon fill="#7e57c2" stroke="#7e57c2" points="606.32,-1520.46 616.91,-1520.12 608.41,-1513.79 606.32,-1520.46"/>
</g>
<!-- core_final_photon -->
<g id="node75" class="node">
<title>core_final_photon</title>
<path fill="lightgrey" stroke="black" d="M742.5,-1446C742.5,-1446 625.5,-1446 625.5,-1446 619.5,-1446 613.5,-1440 613.5,-1434 613.5,-1434 613.5,-1422 613.5,-1422 613.5,-1416 619.5,-1410 625.5,-1410 625.5,-1410 742.5,-1410 742.5,-1410 748.5,-1410 754.5,-1416 754.5,-1422 754.5,-1422 754.5,-1434 754.5,-1434 754.5,-1440 748.5,-1446 742.5,-1446"/>
<text text-anchor="middle" x="684" y="-1424.3" font-family="Times,serif" font-size="14.00" fill="white">core_final_photon</text>
</g>
<!-- core_champion_speed&#45;&gt;core_final_photon -->
<g id="edge92" class="edge">
<title>core_champion_speed&#45;&gt;core_final_photon</title>
<path fill="none" stroke="#7e57c2" d="M525.66,-1450.06C550.84,-1446.53 578.32,-1442.68 603.16,-1439.19"/>
<polygon fill="#7e57c2" stroke="#7e57c2" points="603.85,-1442.63 613.26,-1437.78 602.88,-1435.7 603.85,-1442.63"/>
</g>
<!-- pulse_baby -->
<g id="node76" class="node">
<title>pulse_baby</title>
<path fill="#f06292" stroke="black" d="M98,-1716C98,-1716 26,-1716 26,-1716 20,-1716 14,-1710 14,-1704 14,-1704 14,-1692 14,-1692 14,-1686 20,-1680 26,-1680 26,-1680 98,-1680 98,-1680 104,-1680 110,-1686 110,-1692 110,-1692 110,-1704 110,-1704 110,-1710 104,-1716 98,-1716"/>
<text text-anchor="middle" x="62" y="-1694.3" font-family="Times,serif" font-size="14.00">pulse_baby</text>
</g>
<!-- pulse_rookie -->
<g id="node77" class="node">
<title>pulse_rookie</title>
<path fill="#f06292" stroke="black" d="M268,-1716C268,-1716 186,-1716 186,-1716 180,-1716 174,-1710 174,-1704 174,-1704 174,-1692 174,-1692 174,-1686 180,-1680 186,-1680 186,-1680 268,-1680 268,-1680 274,-1680 280,-1686 280,-1692 280,-1692 280,-1704 280,-1704 280,-1710 274,-1716 268,-1716"/>
<text text-anchor="middle" x="227" y="-1694.3" font-family="Times,serif" font-size="14.00">pulse_rookie</text>
</g>
<!-- pulse_baby&#45;&gt;pulse_rookie -->
<g id="edge94" class="edge">
<title>pulse_baby&#45;&gt;pulse_rookie</title>
<path fill="none" stroke="black" d="M110.15,-1698C126.81,-1698 145.82,-1698 163.55,-1698"/>
<polygon fill="black" stroke="black" points="163.82,-1701.5 173.82,-1698 163.82,-1694.5 163.82,-1701.5"/>
</g>
<!-- pulse_champion_surge -->
<g id="node78" class="node">
<title>pulse_champion_surge</title>
<path fill="#f06292" stroke="black" d="M516.5,-1716C516.5,-1716 362.5,-1716 362.5,-1716 356.5,-1716 350.5,-1710 350.5,-1704 350.5,-1704 350.5,-1692 350.5,-1692 350.5,-1686 356.5,-1680 362.5,-1680 362.5,-1680 516.5,-1680 516.5,-1680 522.5,-1680 528.5,-1686 528.5,-1692 528.5,-1692 528.5,-1704 528.5,-1704 528.5,-1710 522.5,-1716 516.5,-1716"/>
<text text-anchor="middle" x="439.5" y="-1694.3" font-family="Times,serif" font-size="14.00">pulse_champion_surge</text>
</g>
<!-- pulse_rookie&#45;&gt;pulse_champion_surge -->
<g id="edge95" class="edge">
<title>pulse_rookie&#45;&gt;pulse_champion_surge</title>
<path fill="none" stroke="#7e57c2" d="M280.03,-1698C298.24,-1698 319.33,-1698 340.06,-1698"/>
<polygon fill="#7e57c2" stroke="#7e57c2" points="340.2,-1701.5 350.2,-1698 340.2,-1694.5 340.2,-1701.5"/>
</g>
<!-- pulse_champion_resonance -->
<g id="node79" class="node">
<title>pulse_champion_resonance</title>
<path fill="#f06292" stroke="black" d="M532.5,-1662C532.5,-1662 346.5,-1662 346.5,-1662 340.5,-1662 334.5,-1656 334.5,-1650 334.5,-1650 334.5,-1638 334.5,-1638 334.5,-1632 340.5,-1626 346.5,-1626 346.5,-1626 532.5,-1626 532.5,-1626 538.5,-1626 544.5,-1632 544.5,-1638 544.5,-1638 544.5,-1650 544.5,-1650 544.5,-1656 538.5,-1662 532.5,-1662"/>
<text text-anchor="middle" x="439.5" y="-1640.3" font-family="Times,serif" font-size="14.00">pulse_champion_resonance</text>
</g>
<!-- pulse_rookie&#45;&gt;pulse_champion_resonance -->
<g id="edge96" class="edge">
<title>pulse_rookie&#45;&gt;pulse_champion_resonance</title>
<path fill="none" stroke="#7e57c2" d="M280.11,-1684.05C296.11,-1679.81 313.77,-1675.17 330,-1671 338.33,-1668.86 347.03,-1666.65 355.72,-1664.46"/>
<polygon fill="#7e57c2" stroke="#7e57c2" points="356.66,-1667.84 365.51,-1662.01 354.96,-1661.05 356.66,-1667.84"/>
</g>
<!-- pulse_champion_static -->
<g id="node80" class="node">
<title>pulse_champion_static</title>
<path fill="#f06292" stroke="black" d="M516,-1770C516,-1770 363,-1770 363,-1770 357,-1770 351,-1764 351,-1758 351,-1758 351,-1746 351,-1746 351,-1740 357,-1734 363,-1734 363,-1734 516,-1734 516,-1734 522,-1734 528,-1740 528,-1746 528,-1746 528,-1758 528,-1758 528,-1764 522,-1770 516,-1770"/>
<text text-anchor="middle" x="439.5" y="-1748.3" font-family="Times,serif" font-size="14.00">pulse_champion_static</text>
</g>
<!-- pulse_rookie&#45;&gt;pulse_champion_static -->
<g id="edge97" class="edge">
<title>pulse_rookie&#45;&gt;pulse_champion_static</title>
<path fill="none" stroke="#7e57c2" d="M280.11,-1711.95C296.11,-1716.19 313.77,-1720.83 330,-1725 338.33,-1727.14 347.03,-1729.35 355.72,-1731.54"/>
<polygon fill="#7e57c2" stroke="#7e57c2" points="354.96,-1734.95 365.51,-1733.99 356.66,-1728.16 354.96,-1734.95"/>
</g>
<!-- pulse_final_overdrive -->
<g id="node81" class="node">
<title>pulse_final_overdrive</title>
<path fill="lightgrey" stroke="black" d="M755.5,-1770C755.5,-1770 612.5,-1770 612.5,-1770 606.5,-1770 600.5,-1764 600.5,-1758 600.5,-1758 600.5,-1746 600.5,-1746 600.5,-1740 606.5,-1734 612.5,-1734 612.5,-1734 755.5,-1734 755.5,-1734 761.5,-1734 767.5,-1740 767.5,-1746 767.5,-1746 767.5,-1758 767.5,-1758 767.5,-1764 761.5,-1770 755.5,-1770"/>
<text text-anchor="middle" x="684" y="-1748.3" font-family="Times,serif" font-size="14.00" fill="white">pulse_final_overdrive</text>
</g>
<!-- pulse_champion_surge&#45;&gt;pulse_final_overdrive -->
<g id="edge98" class="edge">
<title>pulse_champion_surge&#45;&gt;pulse_final_overdrive</title>
<path fill="none" stroke="#7e57c2" d="M521.59,-1716.06C544.24,-1721.1 568.99,-1726.61 592.17,-1731.77"/>
<polygon fill="#7e57c2" stroke="#7e57c2" points="591.47,-1735.2 601.99,-1733.96 592.99,-1728.37 591.47,-1735.2"/>
</g>
<!-- pulse_final_sync -->
<g id="node82" class="node">
<title>pulse_final_sync</title>
<path fill="lightgrey" stroke="black" d="M737.5,-1662C737.5,-1662 630.5,-1662 630.5,-1662 624.5,-1662 618.5,-1656 618.5,-1650 618.5,-1650 618.5,-1638 618.5,-1638 618.5,-1632 624.5,-1626 630.5,-1626 630.5,-1626 737.5,-1626 737.5,-1626 743.5,-1626 749.5,-1632 749.5,-1638 749.5,-1638 749.5,-1650 749.5,-1650 749.5,-1656 743.5,-1662 737.5,-1662"/>
<text text-anchor="middle" x="684" y="-1640.3" font-family="Times,serif" font-size="14.00" fill="white">pulse_final_sync</text>
</g>
<!-- pulse_champion_surge&#45;&gt;pulse_final_sync -->
<g id="edge99" class="edge">
<title>pulse_champion_surge&#45;&gt;pulse_final_sync</title>
<path fill="none" stroke="#7e57c2" d="M521.59,-1679.94C549.67,-1673.69 580.99,-1666.72 608.52,-1660.59"/>
<polygon fill="#7e57c2" stroke="#7e57c2" points="609.47,-1663.96 618.47,-1658.37 607.95,-1657.13 609.47,-1663.96"/>
</g>
<!-- pulse_champion_resonance&#45;&gt;pulse_final_sync -->
<g id="edge100" class="edge">
<title>pulse_champion_resonance&#45;&gt;pulse_final_sync</title>
<path fill="none" stroke="#7e57c2" d="M544.75,-1644C566.16,-1644 588.3,-1644 608.41,-1644"/>
<polygon fill="#7e57c2" stroke="#7e57c2" points="608.42,-1647.5 618.42,-1644 608.42,-1640.5 608.42,-1647.5"/>
</g>
<!-- pulse_final_staticstorm -->
<g id="node83" class="node">
<title>pulse_final_staticstorm</title>
<path fill="lightgrey" stroke="black" d="M762.5,-1716C762.5,-1716 605.5,-1716 605.5,-1716 599.5,-1716 593.5,-1710 593.5,-1704 593.5,-1704 593.5,-1692 593.5,-1692 593.5,-1686 599.5,-1680 605.5,-1680 605.5,-1680 762.5,-1680 762.5,-1680 768.5,-1680 774.5,-1686 774.5,-1692 774.5,-1692 774.5,-1704 774.5,-1704 774.5,-1710 768.5,-1716 762.5,-1716"/>
<text text-anchor="middle" x="684" y="-1694.3" font-family="Times,serif" font-size="14.00" fill="white">pulse_final_staticstorm</text>
</g>
<!-- pulse_champion_resonance&#45;&gt;pulse_final_staticstorm -->
<g id="edge101" class="edge">
<title>pulse_champion_resonance&#45;&gt;pulse_final_staticstorm</title>
<path fill="none" stroke="#7e57c2" d="M521.59,-1662.06C544.24,-1667.1 568.99,-1672.61 592.17,-1677.77"/>
<polygon fill="#7e57c2" stroke="#7e57c2" points="591.47,-1681.2 601.99,-1679.96 592.99,-1674.37 591.47,-1681.2"/>
</g>
<!-- pulse_champion_static&#45;&gt;pulse_final_overdrive -->
<g id="edge103" class="edge">
<title>pulse_champion_static&#45;&gt;pulse_final_overdrive</title>
<path fill="none" stroke="#7e57c2" d="M528.05,-1752C548.24,-1752 569.79,-1752 590.2,-1752"/>
<polygon fill="#7e57c2" stroke="#7e57c2" points="590.44,-1755.5 600.44,-1752 590.44,-1748.5 590.44,-1755.5"/>
</g>
<!-- pulse_champion_static&#45;&gt;pulse_final_staticstorm -->
<g id="edge102" class="edge">
<title>pulse_champion_static&#45;&gt;pulse_final_staticstorm</title>
<path fill="none" stroke="#7e57c2" d="M521.59,-1733.94C544.24,-1728.9 568.99,-1723.39 592.17,-1718.23"/>
<polygon fill="#7e57c2" stroke="#7e57c2" points="592.99,-1721.63 601.99,-1716.04 591.47,-1714.8 592.99,-1721.63"/>
</g>
</g>
</svg>
