<?xml version="1.0" encoding="UTF-8" standalone="no"?>
<!DOCTYPE svg PUBLIC "-//W3C//DTD SVG 1.1//EN"
 "http://www.w3.org/Graphics/SVG/1.1/DTD/svg11.dtd">
<!-- Generated by graphviz version 14.1.2 (20260124.0452)
 -->
<!-- Title: EvolutionTree Pages: 1 -->
<svg width="588pt" height="152pt"
 viewBox="0.00 0.00 588.00 152.00" xmlns="http://www.w3.org/2000/svg" xmlns:xlink="http://www.w3.org/1999/xlink">
<g id="graph0" class="graph" transform="scale(1 1) rotate(0) translate(4 148)">
<title>EvolutionTree</title>
<polygon fill="white" stroke="none" points="-4,4 -4,-148 584,-148 584,4 -4,4"/>
<!-- pulse_baby -->
<g id="node1" class="node">
<title>pulse_baby</title>
<path fill="#f06292" stroke="black" d="M65.5,-90C65.5,-90 12,-90 12,-90 6,-90 0,-84 0,-78 0,-78 0,-66 0,-66 0,-60 6,-54 12,-54 12,-54 65.5,-54 65.5,-54 71.5,-54 77.5,-60 77.5,-66 77.5,-66 77.5,-78 77.5,-78 77.5,-84 71.5,-90 65.5,-90"/>
<text xml:space="preserve" text-anchor="middle" x="38.75" y="-66.95" font-family="Times New Roman,serif" font-size="14.00">pulse_baby</text>
</g>
<!-- pulse_rookie -->
<g id="node2" class="node">
<title>pulse_rookie</title>
<path fill="#f06292" stroke="black" d="M187.25,-90C187.25,-90 125.5,-90 125.5,-90 119.5,-90 113.5,-84 113.5,-78 113.5,-78 113.5,-66 113.5,-66 113.5,-60 119.5,-54 125.5,-54 125.5,-54 187.25,-54 187.25,-54 193.25,-54 199.25,-60 199.25,-66 199.25,-66 199.25,-78 199.25,-78 199.25,-84 193.25,-90 187.25,-90"/>
<text xml:space="preserve" text-anchor="middle" x="156.38" y="-66.95" font-family="Times New Roman,serif" font-size="14.00">pulse_rookie</text>
</g>
<!-- pulse_baby&#45;&gt;pulse_rookie -->
<g id="edge1" class="edge">
<title>pulse_baby&#45;&gt;pulse_rookie</title>
<path fill="none" stroke="black" d="M77.93,-72C85.62,-72 93.84,-72 101.94,-72"/>
<polygon fill="black" stroke="black" points="101.73,-75.5 111.73,-72 101.73,-68.5 101.73,-75.5"/>
</g>
<!-- pulse_champion_surge -->
<g id="node3" class="node">
<title>pulse_champion_surge</title>
<path fill="#f06292" stroke="black" d="M376.88,-90C376.88,-90 259.62,-90 259.62,-90 253.62,-90 247.62,-84 247.62,-78 247.62,-78 247.62,-66 247.62,-66 247.62,-60 253.62,-54 259.62,-54 259.62,-54 376.88,-54 376.88,-54 382.88,-54 388.88,-60 388.88,-66 388.88,-66 388.88,-78 388.88,-78 388.88,-84 382.88,-90 376.88,-90"/>
<text xml:space="preserve" text-anchor="middle" x="318.25" y="-66.95" font-family="Times New Roman,serif" font-size="14.00">pulse_champion_surge</text>
</g>
<!-- pulse_rookie&#45;&gt;pulse_champion_surge -->
<g id="edge2" class="edge">
<title>pulse_rookie&#45;&gt;pulse_champion_surge</title>
<path fill="none" stroke="#7e57c2" d="M199.38,-72C210.76,-72 223.47,-72 236.22,-72"/>
<polygon fill="#7e57c2" stroke="#7e57c2" points="235.89,-75.5 245.89,-72 235.89,-68.5 235.89,-75.5"/>
</g>
<!-- pulse_champion_resonance -->
<g id="node4" class="node">
<title>pulse_champion_resonance</title>
<path fill="#f06292" stroke="black" d="M389.25,-36C389.25,-36 247.25,-36 247.25,-36 241.25,-36 235.25,-30 235.25,-24 235.25,-24 235.25,-12 235.25,-12 235.25,-6 241.25,0 247.25,0 247.25,0 389.25,0 389.25,0 395.25,0 401.25,-6 401.25,-12 401.25,-12 401.25,-24 401.25,-24 401.25,-30 395.25,-36 389.25,-36"/>
<text xml:space="preserve" text-anchor="middle" x="318.25" y="-12.95" font-family="Times New Roman,serif" font-size="14.00">pulse_champion_resonance</text>
</g>
<!-- pulse_rookie&#45;&gt;pulse_champion_resonance -->
<g id="edge3" class="edge">
<title>pulse_rookie&#45;&gt;pulse_champion_resonance</title>
<path fill="none" stroke="#7e57c2" d="M199.37,-57.31C210.98,-53.28 223.59,-48.94 235.25,-45 240.01,-43.39 244.93,-41.74 249.89,-40.09"/>
<polygon fill="#7e57c2" stroke="#7e57c2" points="250.93,-43.43 259.31,-36.95 248.72,-36.79 250.93,-43.43"/>
</g>
<!-- pulse_champion_static -->
<g id="node5" class="node">
<title>pulse_champion_static</title>
<path fill="#f06292" stroke="black" d="M376.5,-144C376.5,-144 260,-144 260,-144 254,-144 248,-138 248,-132 248,-132 248,-120 248,-120 248,-114 254,-108 260,-108 260,-108 376.5,-108 376.5,-108 382.5,-108 388.5,-114 388.5,-120 388.5,-120 388.5,-132 388.5,-132 388.5,-138 382.5,-144 376.5,-144"/>
<text xml:space="preserve" text-anchor="middle" x="318.25" y="-120.95" font-family="Times New Roman,serif" font-size="14.00">pulse_champion_static</text>
</g>
<!-- pulse_rookie&#45;&gt;pulse_champion_static -->
<g id="edge4" class="edge">
<title>pulse_rookie&#45;&gt;pulse_champion_static</title>
<path fill="none" stroke="#7e57c2" d="M199.37,-86.69C210.98,-90.72 223.59,-95.06 235.25,-99 240.01,-100.61 244.93,-102.26 249.89,-103.91"/>
<polygon fill="#7e57c2" stroke="#7e57c2" points="248.72,-107.21 259.31,-107.05 250.93,-100.57 248.72,-107.21"/>
</g>
<!-- pulse_final_overdrive -->
<g id="node6" class="node">
<title>pulse_final_overdrive</title>
<path fill="lightgrey" stroke="black" d="M563.88,-144C563.88,-144 453.38,-144 453.38,-144 447.38,-144 441.38,-138 441.38,-132 441.38,-132 441.38,-120 441.38,-120 441.38,-114 447.38,-108 453.38,-108 453.38,-108 563.88,-108 563.88,-108 569.88,-108 575.88,-114 575.88,-120 575.88,-120 575.88,-132 575.88,-132 575.88,-138 569.88,-144 563.88,-144"/>
<text xml:space="preserve" text-anchor="middle" x="508.62" y="-120.95" font-family="Times New Roman,serif" font-size="14.00">pulse_final_overdrive</text>
</g>
<!-- pulse_champion_surge&#45;&gt;pulse_final_overdrive -->
<g id="edge5" class="edge">
<title>pulse_champion_surge&#45;&gt;pulse_final_overdrive</title>
<path fill="none" stroke="#7e57c2" d="M383.55,-90.43C399.23,-94.93 416.13,-99.77 432.27,-104.4"/>
<polygon fill="#7e57c2" stroke="#7e57c2" points="431.26,-107.75 441.84,-107.14 433.19,-101.02 431.26,-107.75"/>
</g>
<!-- pulse_final_sync -->
<g id="node7" class="node">
<title>pulse_final_sync</title>
<path fill="lightgrey" stroke="black" d="M550.38,-36C550.38,-36 466.88,-36 466.88,-36 460.88,-36 454.88,-30 454.88,-24 454.88,-24 454.88,-12 454.88,-12 454.88,-6 460.88,0 466.88,0 466.88,0 550.38,0 550.38,0 556.38,0 562.38,-6 562.38,-12 562.38,-12 562.38,-24 562.38,-24 562.38,-30 556.38,-36 550.38,-36"/>
<text xml:space="preserve" text-anchor="middle" x="508.62" y="-12.95" font-family="Times New Roman,serif" font-size="14.00">pulse_final_sync</text>
</g>
<!-- pulse_champion_surge&#45;&gt;pulse_final_sync -->
<g id="edge6" class="edge">
<title>pulse_champion_surge&#45;&gt;pulse_final_sync</title>
<path fill="none" stroke="#7e57c2" d="M383.55,-53.57C402.98,-48 424.29,-41.89 443.69,-36.33"/>
<polygon fill="#7e57c2" stroke="#7e57c2" points="444.45,-39.75 453.1,-33.63 442.52,-33.02 444.45,-39.75"/>
</g>
<!-- pulse_champion_resonance&#45;&gt;pulse_final_sync -->
<g id="edge7" class="edge">
<title>pulse_champion_resonance&#45;&gt;pulse_final_sync</title>
<path fill="none" stroke="#7e57c2" d="M401.6,-18C415.46,-18 429.67,-18 442.99,-18"/>
<polygon fill="#7e57c2" stroke="#7e57c2" points="442.94,-21.5 452.94,-18 442.94,-14.5 442.94,-21.5"/>
</g>
<!-- pulse_final_staticstorm -->
<g id="node8" class="node">
<title>pulse_final_staticstorm</title>
<path fill="lightgrey" stroke="black" d="M568,-90C568,-90 449.25,-90 449.25,-90 443.25,-90 437.25,-84 437.25,-78 437.25,-78 437.25,-66 437.25,-66 437.25,-60 443.25,-54 449.25,-54 449.25,-54 568,-54 568,-54 574,-54 580,-60 580,-66 580,-66 580,-78 580,-78 580,-84 574,-90 568,-90"/>
<text xml:space="preserve" text-anchor="middle" x="508.62" y="-66.95" font-family="Times New Roman,serif" font-size="14.00">pulse_final_staticstorm</text>
</g>
<!-- pulse_champion_resonance&#45;&gt;pulse_final_staticstorm -->
<g id="edge8" class="edge">
<title>pulse_champion_resonance&#45;&gt;pulse_final_staticstorm</title>
<path fill="none" stroke="#7e57c2" d="M383.55,-36.43C399.23,-40.93 416.13,-45.77 432.27,-50.4"/>
<polygon fill="#7e57c2" stroke="#7e57c2" points="431.26,-53.75 441.84,-53.14 433.19,-47.02 431.26,-53.75"/>
</g>
<!-- pulse_champion_static&#45;&gt;pulse_final_overdrive -->
<g id="edge10" class="edge">
<title>pulse_champion_static&#45;&gt;pulse_final_overdrive</title>
<path fill="none" stroke="#7e57c2" d="M388.86,-126C402.21,-126 416.26,-126 429.84,-126"/>
<polygon fill="#7e57c2" stroke="#7e57c2" points="429.61,-129.5 439.61,-126 429.61,-122.5 429.61,-129.5"/>
</g>
<!-- pulse_champion_static&#45;&gt;pulse_final_staticstorm -->
<g id="edge9" class="edge">
<title>pulse_champion_static&#45;&gt;pulse_final_staticstorm</title>
<path fill="none" stroke="#7e57c2" d="M383.55,-107.57C399.23,-103.07 416.13,-98.23 432.27,-93.6"/>
<polygon fill="#7e57c2" stroke="#7e57c2" points="433.19,-96.98 441.84,-90.86 431.26,-90.25 433.19,-96.98"/>
</g>
</g>
</svg>
