<?xml version="1.0" encoding="UTF-8" standalone="no"?>
<!DOCTYPE svg PUBLIC "-//W3C//DTD SVG 1.1//EN"
 "http://www.w3.org/Graphics/SVG/1.1/DTD/svg11.dtd">
<!-- Generated by graphviz version 2.43.0 (0)
 -->
<!-- Title: EvolutionTree Pages: 1 -->
<svg width="791pt" height="1711pt"
 viewBox="0.00 0.00 791.00 1711.00" xmlns="http://www.w3.org/2000/svg" xmlns:xlink="http://www.w3.org/1999/xlink">
<g id="graph0" class="graph" transform="scale(1 1) rotate(0) translate(4 1707)">
<title>EvolutionTree</title>
<polygon fill="#1e1e1e" stroke="transparent" points="-4,4 -4,-1707 787,-1707 787,4 -4,4"/>
<!-- pulse_baby -->
<g id="node1" class="node">
<title>pulse_baby</title>
<path fill="#f06292" stroke="black" d="M98,-90C98,-90 26,-90 26,-90 20,-90 14,-84 14,-78 14,-78 14,-66 14,-66 14,-60 20,-54 26,-54 26,-54 98,-54 98,-54 104,-54 110,-60 110,-66 110,-66 110,-78 110,-78 110,-84 104,-90 98,-90"/>
<text text-anchor="middle" x="62" y="-68.3" font-family="Times,serif" font-size="14.00">pulse_baby</text>
</g>
<!-- pulse_rookie -->
<g id="node2" class="node">
<title>pulse_rookie</title>
<path fill="#f06292" stroke="black" d="M268,-90C268,-90 186,-90 186,-90 180,-90 174,-84 174,-78 174,-78 174,-66 174,-66 174,-60 180,-54 186,-54 186,-54 268,-54 268,-54 274,-54 280,-60 280,-66 280,-66 280,-78 280,-78 280,-84 274,-90 268,-90"/>
<text text-anchor="middle" x="227" y="-68.3" font-family="Times,serif" font-size="14.00">pulse_rookie</text>
</g>
<!-- pulse_baby&#45;&gt;pulse_rookie -->
<g id="edge1" class="edge">
<title>pulse_baby&#45;&gt;pulse_rookie</title>
<path fill="none" stroke="black" d="M110.15,-72C126.81,-72 145.82,-72 163.55,-72"/>
<polygon fill="black" stroke="black" points="163.82,-75.5 173.82,-72 163.82,-68.5 163.82,-75.5"/>
</g>
<!-- pulse_champion_surge -->
<g id="node3" class="node">
<title>pulse_champion_surge</title>
<path fill="#f06292" stroke="black" d="M516.5,-90C516.5,-90 362.5,-90 362.5,-90 356.5,-90 350.5,-84 350.5,-78 350.5,-78 350.5,-66 350.5,-66 350.5,-60 356.5,-54 362.5,-54 362.5,-54 516.5,-54 516.5,-54 522.5,-54 528.5,-60 528.5,-66 528.5,-66 528.5,-78 528.5,-78 528.5,-84 522.5,-90 516.5,-90"/>
<text text-anchor="middle" x="439.5" y="-68.3" font-family="Times,serif" font-size="14.00">pulse_champion_surge</text>
</g>
<!-- pulse_rookie&#45;&gt;pulse_champion_surge -->
<g id="edge2" class="edge">
<title>pulse_rookie&#45;&gt;pulse_champion_surge</title>
<path fill="none" stroke="#7e57c2" d="M280.03,-72C298.24,-72 319.33,-72 340.06,-72"/>
<polygon fill="#7e57c2" stroke="#7e57c2" points="340.2,-75.5 350.2,-72 340.2,-68.5 340.2,-75.5"/>
</g>
<!-- pulse_champion_resonance -->
<g id="node4" class="node">
<title>pulse_champion_resonance</title>
<path fill="#f06292" stroke="black" d="M532.5,-36C532.5,-36 346.5,-36 346.5,-36 340.5,-36 334.5,-30 334.5,-24 334.5,-24 334.5,-12 334.5,-12 334.5,-6 340.5,0 346.5,0 346.5,0 532.5,0 532.5,0 538.5,0 544.5,-6 544.5,-12 544.5,-12 544.5,-24 544.5,-24 544.5,-30 538.5,-36 532.5,-36"/>
<text text-anchor="middle" x="439.5" y="-14.3" font-family="Times,serif" font-size="14.00">pulse_champion_resonance</text>
</g>
<!-- pulse_rookie&#45;&gt;pulse_champion_resonance -->
<g id="edge3" class="edge">
<title>pulse_rookie&#45;&gt;pulse_champion_resonance</title>
<path fill="none" stroke="#7e57c2" d="M280.11,-58.05C296.11,-53.81 313.77,-49.17 330,-45 338.33,-42.86 347.03,-40.65 355.72,-38.46"/>
<polygon fill="#7e57c2" stroke="#7e57c2" points="356.66,-41.84 365.51,-36.01 354.96,-35.05 356.66,-41.84"/>
</g>
<!-- pulse_champion_static -->
<g id="node5" class="node">
<title>pulse_champion_static</title>
<path fill="#f06292" stroke="black" d="M516,-144C516,-144 363,-144 363,-144 357,-144 351,-138 351,-132 351,-132 351,-120 351,-120 351,-114 357,-108 363,-108 363,-108 516,-108 516,-108 522,-108 528,-114 528,-120 528,-120 528,-132 528,-132 528,-138 522,-144 516,-144"/>
<text text-anchor="middle" x="439.5" y="-122.3" font-family="Times,serif" font-size="14.00">pulse_champion_static</text>
</g>
<!-- pulse_rookie&#45;&gt;pulse_champion_static -->
<g id="edge4" class="edge">
<title>pulse_rookie&#45;&gt;pulse_champion_static</title>
<path fill="none" stroke="#7e57c2" d="M280.11,-85.95C296.11,-90.19 313.77,-94.83 330,-99 338.33,-101.14 347.03,-103.35 355.72,-105.54"/>
<polygon fill="#7e57c2" stroke="#7e57c2" points="354.96,-108.95 365.51,-107.99 356.66,-102.16 354.96,-108.95"/>
</g>
<!-- pulse_final_overdrive -->
<g id="node6" class="node">
<title>pulse_final_overdrive</title>
<path fill="lightgrey" stroke="black" d="M755.5,-144C755.5,-144 612.5,-144 612.5,-144 606.5,-144 600.5,-138 600.5,-132 600.5,-132 600.5,-120 600.5,-120 600.5,-114 606.5,-108 612.5,-108 612.5,-108 755.5,-108 755.5,-108 761.5,-108 767.5,-114 767.5,-120 767.5,-120 767.5,-132 767.5,-132 767.5,-138 761.5,-144 755.5,-144"/>
<text text-anchor="middle" x="684" y="-122.3" font-family="Times,serif" font-size="14.00" fill="white">pulse_final_overdrive</text>
</g>
<!-- pulse_champion_surge&#45;&gt;pulse_final_overdrive -->
<g id="edge5" class="edge">
<title>pulse_champion_surge&#45;&gt;pulse_final_overdrive</title>
<path fill="none" stroke="#7e57c2" d="M521.59,-90.06C544.24,-95.1 568.99,-100.61 592.17,-105.77"/>
<polygon fill="#7e57c2" stroke="#7e57c2" points="591.47,-109.2 601.99,-107.96 592.99,-102.37 591.47,-109.2"/>
</g>
<!-- pulse_final_sync -->
<g id="node7" class="node">
<title>pulse_final_sync</title>
<path fill="lightgrey" stroke="black" d="M737.5,-36C737.5,-36 630.5,-36 630.5,-36 624.5,-36 618.5,-30 618.5,-24 618.5,-24 618.5,-12 618.5,-12 618.5,-6 624.5,0 630.5,0 630.5,0 737.5,0 737.5,0 743.5,0 749.5,-6 749.5,-12 749.5,-12 749.5,-24 749.5,-24 749.5,-30 743.5,-36 737.5,-36"/>
<text text-anchor="middle" x="684" y="-14.3" font-family="Times,serif" font-size="14.00" fill="white">pulse_final_sync</text>
</g>
<!-- pulse_champion_surge&#45;&gt;pulse_final_sync -->
<g id="edge6" class="edge">
<title>pulse_champion_surge&#45;&gt;pulse_final_sync</title>
<path fill="none" stroke="#7e57c2" d="M521.59,-53.94C549.67,-47.69 580.99,-40.72 608.52,-34.59"/>
<polygon fill="#7e57c2" stroke="#7e57c2" points="609.47,-37.96 618.47,-32.37 607.95,-31.13 609.47,-37.96"/>
</g>
<!-- pulse_champion_resonance&#45;&gt;pulse_final_sync -->
<g id="edge7" class="edge">
<title>pulse_champion_resonance&#45;&gt;pulse_final_sync</title>
<path fill="none" stroke="#7e57c2" d="M544.75,-18C566.16,-18 588.3,-18 608.41,-18"/>
<polygon fill="#7e57c2" stroke="#7e57c2" points="608.42,-21.5 618.42,-18 608.42,-14.5 608.42,-21.5"/>
</g>
<!-- pulse_final_staticstorm -->
<g id="node8" class="node">
<title>pulse_final_staticstorm</title>
<path fill="lightgrey" stroke="black" d="M762.5,-90C762.5,-90 605.5,-90 605.5,-90 599.5,-90 593.5,-84 593.5,-78 593.5,-78 593.5,-66 593.5,-66 593.5,-60 599.5,-54 605.5,-54 605.5,-54 762.5,-54 762.5,-54 768.5,-54 774.5,-60 774.5,-66 774.5,-66 774.5,-78 774.5,-78 774.5,-84 768.5,-90 762.5,-90"/>
<text text-anchor="middle" x="684" y="-68.3" font-family="Times,serif" font-size="14.00" fill="white">pulse_final_staticstorm</text>
</g>
<!-- pulse_champion_resonance&#45;&gt;pulse_final_staticstorm -->
<g id="edge8" class="edge">
<title>pulse_champion_resonance&#45;&gt;pulse_final_staticstorm</title>
<path fill="none" stroke="#7e57c2" d="M521.59,-36.06C544.24,-41.1 568.99,-46.61 592.17,-51.77"/>
<polygon fill="#7e57c2" stroke="#7e57c2" points="591.47,-55.2 601.99,-53.96 592.99,-48.37 591.47,-55.2"/>
</g>
<!-- pulse_champion_static&#45;&gt;pulse_final_overdrive -->
<g id="edge10" class="edge">
<title>pulse_champion_static&#45;&gt;pulse_final_overdrive</title>
<path fill="none" stroke="#7e57c2" d="M528.05,-126C548.24,-126 569.79,-126 590.2,-126"/>
<polygon fill="#7e57c2" stroke="#7e57c2" points="590.44,-129.5 600.44,-126 590.44,-122.5 590.44,-129.5"/>
</g>
<!-- pulse_champion_static&#45;&gt;pulse_final_staticstorm -->
<g id="edge9" class="edge">
<title>pulse_champion_static&#45;&gt;pulse_final_staticstorm</title>
<path fill="none" stroke="#7e57c2" d="M521.59,-107.94C544.24,-102.9 568.99,-97.39 592.17,-92.23"/>
<polygon fill="#7e57c2" stroke="#7e57c2" points="592.99,-95.63 601.99,-90.04 591.47,-88.8 592.99,-95.63"/>
</g>
<!-- void_baby -->
<g id="node9" class="node">
<title>void_baby</title>
<path fill="#b0bec5" stroke="black" d="M94,-252C94,-252 30,-252 30,-252 24,-252 18,-246 18,-240 18,-240 18,-228 18,-228 18,-222 24,-216 30,-216 30,-216 94,-216 94,-216 100,-216 106,-222 106,-228 106,-228 106,-240 106,-240 106,-246 100,-252 94,-252"/>
<text text-anchor="middle" x="62" y="-230.3" font-family="Times,serif" font-size="14.00">void_baby</text>
</g>
<!-- void_rookie -->
<g id="node10" class="node">
<title>void_rookie</title>
<path fill="#b0bec5" stroke="black" d="M264,-252C264,-252 190,-252 190,-252 184,-252 178,-246 178,-240 178,-240 178,-228 178,-228 178,-222 184,-216 190,-216 190,-216 264,-216 264,-216 270,-216 276,-222 276,-228 276,-228 276,-240 276,-240 276,-246 270,-252 264,-252"/>
<text text-anchor="middle" x="227" y="-230.3" font-family="Times,serif" font-size="14.00">void_rookie</text>
</g>
<!-- void_baby&#45;&gt;void_rookie -->
<g id="edge11" class="edge">
<title>void_baby&#45;&gt;void_rookie</title>
<path fill="none" stroke="black" d="M106.25,-234C125.13,-234 147.55,-234 167.86,-234"/>
<polygon fill="black" stroke="black" points="167.95,-237.5 177.95,-234 167.95,-230.5 167.95,-237.5"/>
</g>
<!-- void_champion_entropy -->
<g id="node11" class="node">
<title>void_champion_entropy</title>
<path fill="#b0bec5" stroke="black" d="M520,-306C520,-306 359,-306 359,-306 353,-306 347,-300 347,-294 347,-294 347,-282 347,-282 347,-276 353,-270 359,-270 359,-270 520,-270 520,-270 526,-270 532,-276 532,-282 532,-282 532,-294 532,-294 532,-300 526,-306 520,-306"/>
<text text-anchor="middle" x="439.5" y="-284.3" font-family="Times,serif" font-size="14.00">void_champion_entropy</text>
</g>
<!-- void_rookie&#45;&gt;void_champion_entropy -->
<g id="edge12" class="edge">
<title>void_rookie&#45;&gt;void_champion_entropy</title>
<path fill="none" stroke="#7e57c2" d="M276.22,-246.92C293.2,-251.43 312.43,-256.49 330,-261 338.33,-263.14 347.03,-265.35 355.72,-267.54"/>
<polygon fill="#7e57c2" stroke="#7e57c2" points="354.96,-270.95 365.51,-269.99 356.66,-264.16 354.96,-270.95"/>
</g>
<!-- void_champion_gravity -->
<g id="node12" class="node">
<title>void_champion_gravity</title>
<path fill="#b0bec5" stroke="black" d="M517.5,-198C517.5,-198 361.5,-198 361.5,-198 355.5,-198 349.5,-192 349.5,-186 349.5,-186 349.5,-174 349.5,-174 349.5,-168 355.5,-162 361.5,-162 361.5,-162 517.5,-162 517.5,-162 523.5,-162 529.5,-168 529.5,-174 529.5,-174 529.5,-186 529.5,-186 529.5,-192 523.5,-198 517.5,-198"/>
<text text-anchor="middle" x="439.5" y="-176.3" font-family="Times,serif" font-size="14.00">void_champion_gravity</text>
</g>
<!-- void_rookie&#45;&gt;void_champion_gravity -->
<g id="edge13" class="edge">
<title>void_rookie&#45;&gt;void_champion_gravity</title>
<path fill="none" stroke="#7e57c2" d="M276.22,-221.08C293.2,-216.57 312.43,-211.51 330,-207 338.33,-204.86 347.03,-202.65 355.72,-200.46"/>
<polygon fill="#7e57c2" stroke="#7e57c2" points="356.66,-203.84 365.51,-198.01 354.96,-197.05 356.66,-203.84"/>
</g>
<!-- void_champion_null -->
<g id="node13" class="node">
<title>void_champion_null</title>
<path fill="#b0bec5" stroke="black" d="M505.5,-252C505.5,-252 373.5,-252 373.5,-252 367.5,-252 361.5,-246 361.5,-240 361.5,-240 361.5,-228 361.5,-228 361.5,-222 367.5,-216 373.5,-216 373.5,-216 505.5,-216 505.5,-216 511.5,-216 517.5,-222 517.5,-228 517.5,-228 517.5,-240 517.5,-240 517.5,-246 511.5,-252 505.5,-252"/>
<text text-anchor="middle" x="439.5" y="-230.3" font-family="Times,serif" font-size="14.00">void_champion_null</text>
</g>
<!-- void_rookie&#45;&gt;void_champion_null -->
<g id="edge14" class="edge">
<title>void_rookie&#45;&gt;void_champion_null</title>
<path fill="none" stroke="#7e57c2" d="M276.03,-234C298.31,-234 325.51,-234 351.23,-234"/>
<polygon fill="#7e57c2" stroke="#7e57c2" points="351.38,-237.5 361.38,-234 351.38,-230.5 351.38,-237.5"/>
</g>
<!-- corrupt_final_glitch -->
<g id="node14" class="node">
<title>corrupt_final_glitch</title>
<path fill="lightgrey" stroke="black" d="M749.5,-306C749.5,-306 618.5,-306 618.5,-306 612.5,-306 606.5,-300 606.5,-294 606.5,-294 606.5,-282 606.5,-282 606.5,-276 612.5,-270 618.5,-270 618.5,-270 749.5,-270 749.5,-270 755.5,-270 761.5,-276 761.5,-282 761.5,-282 761.5,-294 761.5,-294 761.5,-300 755.5,-306 749.5,-306"/>
<text text-anchor="middle" x="684" y="-284.3" font-family="Times,serif" font-size="14.00" fill="white">corrupt_final_glitch</text>
</g>
<!-- void_champion_entropy&#45;&gt;corrupt_final_glitch -->
<g id="edge15" class="edge">
<title>void_champion_entropy&#45;&gt;corrupt_final_glitch</title>
<path fill="none" stroke="#7e57c2" d="M532.18,-288C553.16,-288 575.39,-288 596.16,-288"/>
<polygon fill="#7e57c2" stroke="#7e57c2" points="596.22,-291.5 606.22,-288 596.22,-284.5 596.22,-291.5"/>
</g>
<!-- void_final_oblivion -->
<g id="node15" class="node">
<title>void_final_oblivion</title>
<path fill="lightgrey" stroke="black" d="M745.5,-252C745.5,-252 622.5,-252 622.5,-252 616.5,-252 610.5,-246 610.5,-240 610.5,-240 610.5,-228 610.5,-228 610.5,-222 616.5,-216 622.5,-216 622.5,-216 745.5,-216 745.5,-216 751.5,-216 757.5,-222 757.5,-228 757.5,-228 757.5,-240 757.5,-240 757.5,-246 751.5,-252 745.5,-252"/>
<text text-anchor="middle" x="684" y="-230.3" font-family="Times,serif" font-size="14.00" fill="white">void_final_oblivion</text>
</g>
<!-- void_champion_entropy&#45;&gt;void_final_oblivion -->
<g id="edge16" class="edge">
<title>void_champion_entropy&#45;&gt;void_final_oblivion</title>
<path fill="none" stroke="#7e57c2" d="M521.59,-269.94C546.87,-264.31 574.78,-258.1 600.18,-252.44"/>
<polygon fill="#7e57c2" stroke="#7e57c2" points="601.15,-255.81 610.15,-250.22 599.63,-248.98 601.15,-255.81"/>
</g>
<!-- void_champion_gravity&#45;&gt;void_final_oblivion -->
<g id="edge18" class="edge">
<title>void_champion_gravity&#45;&gt;void_final_oblivion</title>
<path fill="none" stroke="#7e57c2" d="M521.59,-198.06C546.87,-203.69 574.78,-209.9 600.18,-215.56"/>
<polygon fill="#7e57c2" stroke="#7e57c2" points="599.63,-219.02 610.15,-217.78 601.15,-212.19 599.63,-219.02"/>
</g>
<!-- void_final_singularity -->
<g id="node16" class="node">
<title>void_final_singularity</title>
<path fill="lightgrey" stroke="black" d="M756,-198C756,-198 612,-198 612,-198 606,-198 600,-192 600,-186 600,-186 600,-174 600,-174 600,-168 606,-162 612,-162 612,-162 756,-162 756,-162 762,-162 768,-168 768,-174 768,-174 768,-186 768,-186 768,-192 762,-198 756,-198"/>
<text text-anchor="middle" x="684" y="-176.3" font-family="Times,serif" font-size="14.00" fill="white">void_final_singularity</text>
</g>
<!-- void_champion_gravity&#45;&gt;void_final_singularity -->
<g id="edge17" class="edge">
<title>void_champion_gravity&#45;&gt;void_final_singularity</title>
<path fill="none" stroke="#7e57c2" d="M529.76,-180C549.32,-180 570.06,-180 589.76,-180"/>
<polygon fill="#7e57c2" stroke="#7e57c2" points="589.96,-183.5 599.96,-180 589.96,-176.5 589.96,-183.5"/>
</g>
<!-- void_champion_null&#45;&gt;void_final_oblivion -->
<g id="edge19" class="edge">
<title>void_champion_null&#45;&gt;void_final_oblivion</title>
<path fill="none" stroke="#7e57c2" d="M517.56,-234C543.88,-234 573.41,-234 600.16,-234"/>
<polygon fill="#7e57c2" stroke="#7e57c2" points="600.27,-237.5 610.27,-234 600.27,-230.5 600.27,-237.5"/>
</g>
<!-- void_champion_null&#45;&gt;void_final_singularity -->
<g id="edge20" class="edge">
<title>void_champion_null&#45;&gt;void_final_singularity</title>
<path fill="none" stroke="#7e57c2" d="M517.56,-216.84C541.21,-211.57 567.45,-205.73 591.94,-200.28"/>
<polygon fill="#7e57c2" stroke="#7e57c2" points="592.95,-203.64 601.95,-198.05 591.43,-196.8 592.95,-203.64"/>
</g>
<!-- firewall_baby -->
<g id="node17" class="node">
<title>firewall_baby</title>
<path fill="#ff8a65" stroke="black" d="M105.5,-414C105.5,-414 18.5,-414 18.5,-414 12.5,-414 6.5,-408 6.5,-402 6.5,-402 6.5,-390 6.5,-390 6.5,-384 12.5,-378 18.5,-378 18.5,-378 105.5,-378 105.5,-378 111.5,-378 117.5,-384 117.5,-390 117.5,-390 117.5,-402 117.5,-402 117.5,-408 111.5,-414 105.5,-414"/>
<text text-anchor="middle" x="62" y="-392.3" font-family="Times,serif" font-size="14.00">firewall_baby</text>
</g>
<!-- firewall_rookie -->
<g id="node18" class="node">
<title>firewall_rookie</title>
<path fill="#ff8a65" stroke="black" d="M275.5,-414C275.5,-414 178.5,-414 178.5,-414 172.5,-414 166.5,-408 166.5,-402 166.5,-402 166.5,-390 166.5,-390 166.5,-384 172.5,-378 178.5,-378 178.5,-378 275.5,-378 275.5,-378 281.5,-378 287.5,-384 287.5,-390 287.5,-390 287.5,-402 287.5,-402 287.5,-408 281.5,-414 275.5,-414"/>
<text text-anchor="middle" x="227" y="-392.3" font-family="Times,serif" font-size="14.00">firewall_rookie</text>
</g>
<!-- firewall_baby&#45;&gt;firewall_rookie -->
<g id="edge21" class="edge">
<title>firewall_baby&#45;&gt;firewall_rookie</title>
<path fill="none" stroke="black" d="M117.73,-396C130.06,-396 143.32,-396 156.17,-396"/>
<polygon fill="black" stroke="black" points="156.38,-399.5 166.38,-396 156.38,-392.5 156.38,-399.5"/>
</g>
<!-- firewall_champion_barrier -->
<g id="node19" class="node">
<title>firewall_champion_barrier</title>
<path fill="#ff8a65" stroke="black" d="M529,-414C529,-414 350,-414 350,-414 344,-414 338,-408 338,-402 338,-402 338,-390 338,-390 338,-384 344,-378 350,-378 350,-378 529,-378 529,-378 535,-378 541,-384 541,-390 541,-390 541,-402 541,-402 541,-408 535,-414 529,-414"/>
<text text-anchor="middle" x="439.5" y="-392.3" font-family="Times,serif" font-size="14.00">firewall_champion_barrier</text>
</g>
<!-- firewall_rookie&#45;&gt;firewall_champion_barrier -->
<g id="edge22" class="edge">
<title>firewall_rookie&#45;&gt;firewall_champion_barrier</title>
<path fill="none" stroke="#7e57c2" d="M287.76,-396C300.38,-396 314.07,-396 327.89,-396"/>
<polygon fill="#7e57c2" stroke="#7e57c2" points="327.97,-399.5 337.97,-396 327.97,-392.5 327.97,-399.5"/>
</g>
<!-- firewall_champion_counter -->
<g id="node20" class="node">
<title>firewall_champion_counter</title>
<path fill="#ff8a65" stroke="black" d="M531,-360C531,-360 348,-360 348,-360 342,-360 336,-354 336,-348 336,-348 336,-336 336,-336 336,-330 342,-324 348,-324 348,-324 531,-324 531,-324 537,-324 543,-330 543,-336 543,-336 543,-348 543,-348 543,-354 537,-360 531,-360"/>
<text text-anchor="middle" x="439.5" y="-338.3" font-family="Times,serif" font-size="14.00">firewall_champion_counter</text>
</g>
<!-- firewall_rookie&#45;&gt;firewall_champion_counter -->
<g id="edge23" class="edge">
<title>firewall_rookie&#45;&gt;firewall_champion_counter</title>
<path fill="none" stroke="#7e57c2" d="M287.56,-380.07C301.48,-376.4 316.25,-372.53 330,-369 338.33,-366.86 347.03,-364.65 355.72,-362.46"/>
<polygon fill="#7e57c2" stroke="#7e57c2" points="356.66,-365.84 365.51,-360.01 354.96,-359.05 356.66,-365.84"/>
</g>
<!-- firewall_champion_patch -->
<g id="node21" class="node">
<title>firewall_champion_patch</title>
<path fill="#ff8a65" stroke="black" d="M523.5,-468C523.5,-468 355.5,-468 355.5,-468 349.5,-468 343.5,-462 343.5,-456 343.5,-456 343.5,-444 343.5,-444 343.5,-438 349.5,-432 355.5,-432 355.5,-432 523.5,-432 523.5,-432 529.5,-432 535.5,-438 535.5,-444 535.5,-444 535.5,-456 535.5,-456 535.5,-462 529.5,-468 523.5,-468"/>
<text text-anchor="middle" x="439.5" y="-446.3" font-family="Times,serif" font-size="14.00">firewall_champion_patch</text>
</g>
<!-- firewall_rookie&#45;&gt;firewall_champion_patch -->
<g id="edge24" class="edge">
<title>firewall_rookie&#45;&gt;firewall_champion_patch</title>
<path fill="none" stroke="#7e57c2" d="M287.56,-411.93C301.48,-415.6 316.25,-419.47 330,-423 338.33,-425.14 347.03,-427.35 355.72,-429.54"/>
<polygon fill="#7e57c2" stroke="#7e57c2" points="354.96,-432.95 365.51,-431.99 356.66,-426.16 354.96,-432.95"/>
</g>
<!-- firewall_final_fortress -->
<g id="node22" class="node">
<title>firewall_final_fortress</title>
<path fill="lightgrey" stroke="black" d="M757,-468C757,-468 611,-468 611,-468 605,-468 599,-462 599,-456 599,-456 599,-444 599,-444 599,-438 605,-432 611,-432 611,-432 757,-432 757,-432 763,-432 769,-438 769,-444 769,-444 769,-456 769,-456 769,-462 763,-468 757,-468"/>
<text text-anchor="middle" x="684" y="-446.3" font-family="Times,serif" font-size="14.00" fill="white">firewall_final_fortress</text>
</g>
<!-- firewall_champion_barrier&#45;&gt;firewall_final_fortress -->
<g id="edge25" class="edge">
<title>firewall_champion_barrier&#45;&gt;firewall_final_fortress</title>
<path fill="none" stroke="#7e57c2" d="M521.59,-414.06C544.24,-419.1 568.99,-424.61 592.17,-429.77"/>
<polygon fill="#7e57c2" stroke="#7e57c2" points="591.47,-433.2 601.99,-431.96 592.99,-426.37 591.47,-433.2"/>
</g>
<!-- firewall_final_protocol -->
<g id="node23" class="node">
<title>firewall_final_protocol</title>
<path fill="lightgrey" stroke="black" d="M758.5,-414C758.5,-414 609.5,-414 609.5,-414 603.5,-414 597.5,-408 597.5,-402 597.5,-402 597.5,-390 597.5,-390 597.5,-384 603.5,-378 609.5,-378 609.5,-378 758.5,-378 758.5,-378 764.5,-378 770.5,-384 770.5,-390 770.5,-390 770.5,-402 770.5,-402 770.5,-408 764.5,-414 758.5,-414"/>
<text text-anchor="middle" x="684" y="-392.3" font-family="Times,serif" font-size="14.00" fill="white">firewall_final_protocol</text>
</g>
<!-- firewall_champion_barrier&#45;&gt;firewall_final_protocol -->
<g id="edge26" class="edge">
<title>firewall_champion_barrier&#45;&gt;firewall_final_protocol</title>
<path fill="none" stroke="#7e57c2" d="M541.24,-396C556.35,-396 571.91,-396 586.93,-396"/>
<polygon fill="#7e57c2" stroke="#7e57c2" points="587.23,-399.5 597.23,-396 587.23,-392.5 587.23,-399.5"/>
</g>
<!-- firewall_champion_counter&#45;&gt;firewall_final_protocol -->
<g id="edge28" class="edge">
<title>firewall_champion_counter&#45;&gt;firewall_final_protocol</title>
<path fill="none" stroke="#7e57c2" d="M521.59,-360.06C544.24,-365.1 568.99,-370.61 592.17,-375.77"/>
<polygon fill="#7e57c2" stroke="#7e57c2" points="591.47,-379.2 601.99,-377.96 592.99,-372.37 591.47,-379.2"/>
</g>
<!-- firewall_final_retaliate -->
<g id="node24" class="node">
<title>firewall_final_retaliate</title>
<path fill="lightgrey" stroke="black" d="M759.5,-360C759.5,-360 608.5,-360 608.5,-360 602.5,-360 596.5,-354 596.5,-348 596.5,-348 596.5,-336 596.5,-336 596.5,-330 602.5,-324 608.5,-324 608.5,-324 759.5,-324 759.5,-324 765.5,-324 771.5,-330 771.5,-336 771.5,-336 771.5,-348 771.5,-348 771.5,-354 765.5,-360 759.5,-360"/>
<text text-anchor="middle" x="684" y="-338.3" font-family="Times,serif" font-size="14.00" fill="white">firewall_final_retaliate</text>
</g>
<!-- firewall_champion_counter&#45;&gt;firewall_final_retaliate -->
<g id="edge27" class="edge">
<title>firewall_champion_counter&#45;&gt;firewall_final_retaliate</title>
<path fill="none" stroke="#7e57c2" d="M543.34,-342C557.57,-342 572.15,-342 586.27,-342"/>
<polygon fill="#7e57c2" stroke="#7e57c2" points="586.45,-345.5 596.45,-342 586.45,-338.5 586.45,-345.5"/>
</g>
<!-- firewall_champion_patch&#45;&gt;firewall_final_fortress -->
<g id="edge30" class="edge">
<title>firewall_champion_patch&#45;&gt;firewall_final_fortress</title>
<path fill="none" stroke="#7e57c2" d="M535.65,-450C553.06,-450 571.23,-450 588.62,-450"/>
<polygon fill="#7e57c2" stroke="#7e57c2" points="588.76,-453.5 598.76,-450 588.76,-446.5 588.76,-453.5"/>
</g>
<!-- firewall_champion_patch&#45;&gt;firewall_final_protocol -->
<g id="edge29" class="edge">
<title>firewall_champion_patch&#45;&gt;firewall_final_protocol</title>
<path fill="none" stroke="#7e57c2" d="M521.59,-431.94C544.24,-426.9 568.99,-421.39 592.17,-416.23"/>
<polygon fill="#7e57c2" stroke="#7e57c2" points="592.99,-419.63 601.99,-414.04 591.47,-412.8 592.99,-419.63"/>
</g>
<!-- core_baby -->
<g id="node25" class="node">
<title>core_baby</title>
<path fill="#4fc3f7" stroke="black" d="M94.5,-576C94.5,-576 29.5,-576 29.5,-576 23.5,-576 17.5,-570 17.5,-564 17.5,-564 17.5,-552 17.5,-552 17.5,-546 23.5,-540 29.5,-540 29.5,-540 94.5,-540 94.5,-540 100.5,-540 106.5,-546 106.5,-552 106.5,-552 106.5,-564 106.5,-564 106.5,-570 100.5,-576 94.5,-576"/>
<text text-anchor="middle" x="62" y="-554.3" font-family="Times,serif" font-size="14.00">core_baby</text>
</g>
<!-- core_rookie -->
<g id="node26" class="node">
<title>core_rookie</title>
<path fill="#4fc3f7" stroke="black" d="M264,-576C264,-576 190,-576 190,-576 184,-576 178,-570 178,-564 178,-564 178,-552 178,-552 178,-546 184,-540 190,-540 190,-540 264,-540 264,-540 270,-540 276,-546 276,-552 276,-552 276,-564 276,-564 276,-570 270,-576 264,-576"/>
<text text-anchor="middle" x="227" y="-554.3" font-family="Times,serif" font-size="14.00">core_rookie</text>
</g>
<!-- core_baby&#45;&gt;core_rookie -->
<g id="edge31" class="edge">
<title>core_baby&#45;&gt;core_rookie</title>
<path fill="none" stroke="black" d="M106.68,-558C125.48,-558 147.72,-558 167.88,-558"/>
<polygon fill="black" stroke="black" points="167.9,-561.5 177.9,-558 167.9,-554.5 167.9,-561.5"/>
</g>
<!-- core_champion_power -->
<g id="node27" class="node">
<title>core_champion_power</title>
<path fill="#4fc3f7" stroke="black" d="M514.5,-630C514.5,-630 364.5,-630 364.5,-630 358.5,-630 352.5,-624 352.5,-618 352.5,-618 352.5,-606 352.5,-606 352.5,-600 358.5,-594 364.5,-594 364.5,-594 514.5,-594 514.5,-594 520.5,-594 526.5,-600 526.5,-606 526.5,-606 526.5,-618 526.5,-618 526.5,-624 520.5,-630 514.5,-630"/>
<text text-anchor="middle" x="439.5" y="-608.3" font-family="Times,serif" font-size="14.00">core_champion_power</text>
</g>
<!-- core_rookie&#45;&gt;core_champion_power -->
<g id="edge32" class="edge">
<title>core_rookie&#45;&gt;core_champion_power</title>
<path fill="none" stroke="#7e57c2" d="M276.22,-570.92C293.2,-575.43 312.43,-580.49 330,-585 338.33,-587.14 347.03,-589.35 355.72,-591.54"/>
<polygon fill="#7e57c2" stroke="#7e57c2" points="354.96,-594.95 365.51,-593.99 356.66,-588.16 354.96,-594.95"/>
</g>
<!-- core_champion_guard -->
<g id="node28" class="node">
<title>core_champion_guard</title>
<path fill="#4fc3f7" stroke="black" d="M513.5,-576C513.5,-576 365.5,-576 365.5,-576 359.5,-576 353.5,-570 353.5,-564 353.5,-564 353.5,-552 353.5,-552 353.5,-546 359.5,-540 365.5,-540 365.5,-540 513.5,-540 513.5,-540 519.5,-540 525.5,-546 525.5,-552 525.5,-552 525.5,-564 525.5,-564 525.5,-570 519.5,-576 513.5,-576"/>
<text text-anchor="middle" x="439.5" y="-554.3" font-family="Times,serif" font-size="14.00">core_champion_guard</text>
</g>
<!-- core_rookie&#45;&gt;core_champion_guard -->
<g id="edge33" class="edge">
<title>core_rookie&#45;&gt;core_champion_guard</title>
<path fill="none" stroke="#7e57c2" d="M276.03,-558C296.01,-558 319.94,-558 343.21,-558"/>
<polygon fill="#7e57c2" stroke="#7e57c2" points="343.48,-561.5 353.48,-558 343.48,-554.5 343.48,-561.5"/>
</g>
<!-- core_champion_speed -->
<g id="node29" class="node">
<title>core_champion_speed</title>
<path fill="#4fc3f7" stroke="black" d="M513.5,-522C513.5,-522 365.5,-522 365.5,-522 359.5,-522 353.5,-516 353.5,-510 353.5,-510 353.5,-498 353.5,-498 353.5,-492 359.5,-486 365.5,-486 365.5,-486 513.5,-486 513.5,-486 519.5,-486 525.5,-492 525.5,-498 525.5,-498 525.5,-510 525.5,-510 525.5,-516 519.5,-522 513.5,-522"/>
<text text-anchor="middle" x="439.5" y="-500.3" font-family="Times,serif" font-size="14.00">core_champion_speed</text>
</g>
<!-- core_rookie&#45;&gt;core_champion_speed -->
<g id="edge34" class="edge">
<title>core_rookie&#45;&gt;core_champion_speed</title>
<path fill="none" stroke="#7e57c2" d="M276.22,-545.08C293.2,-540.57 312.43,-535.51 330,-531 338.33,-528.86 347.03,-526.65 355.72,-524.46"/>
<polygon fill="#7e57c2" stroke="#7e57c2" points="356.66,-527.84 365.51,-522.01 354.96,-521.05 356.66,-527.84"/>
</g>
<!-- core_final_overclock -->
<g id="node30" class="node">
<title>core_final_overclock</title>
<path fill="lightgrey" stroke="black" d="M751.5,-684C751.5,-684 616.5,-684 616.5,-684 610.5,-684 604.5,-678 604.5,-672 604.5,-672 604.5,-660 604.5,-660 604.5,-654 610.5,-648 616.5,-648 616.5,-648 751.5,-648 751.5,-648 757.5,-648 763.5,-654 763.5,-660 763.5,-660 763.5,-672 763.5,-672 763.5,-678 757.5,-684 751.5,-684"/>
<text text-anchor="middle" x="684" y="-662.3" font-family="Times,serif" font-size="14.00" fill="white">core_final_overclock</text>
</g>
<!-- core_champion_power&#45;&gt;core_final_overclock -->
<g id="edge35" class="edge">
<title>core_champion_power&#45;&gt;core_final_overclock</title>
<path fill="none" stroke="#7e57c2" d="M521.59,-630.06C544.96,-635.26 570.58,-640.97 594.38,-646.27"/>
<polygon fill="#7e57c2" stroke="#7e57c2" points="593.94,-649.75 604.46,-648.51 595.46,-642.92 593.94,-649.75"/>
</g>
<!-- core_final_prime -->
<g id="node31" class="node">
<title>core_final_prime</title>
<path fill="lightgrey" stroke="black" d="M739,-630C739,-630 629,-630 629,-630 623,-630 617,-624 617,-618 617,-618 617,-606 617,-606 617,-600 623,-594 629,-594 629,-594 739,-594 739,-594 745,-594 751,-600 751,-606 751,-606 751,-618 751,-618 751,-624 745,-630 739,-630"/>
<text text-anchor="middle" x="684" y="-608.3" font-family="Times,serif" font-size="14.00" fill="white">core_final_prime</text>
</g>
<!-- core_champion_power&#45;&gt;core_final_prime -->
<g id="edge36" class="edge">
<title>core_champion_power&#45;&gt;core_final_prime</title>
<path fill="none" stroke="#7e57c2" d="M526.68,-612C552.76,-612 581.22,-612 606.61,-612"/>
<polygon fill="#7e57c2" stroke="#7e57c2" points="606.92,-615.5 616.92,-612 606.92,-608.5 606.92,-615.5"/>
</g>
<!-- core_champion_guard&#45;&gt;core_final_prime -->
<g id="edge38" class="edge">
<title>core_champion_guard&#45;&gt;core_final_prime</title>
<path fill="none" stroke="#7e57c2" d="M521.59,-576.06C549.18,-582.2 579.9,-589.04 607.07,-595.09"/>
<polygon fill="#7e57c2" stroke="#7e57c2" points="606.39,-598.53 616.91,-597.28 607.91,-591.69 606.39,-598.53"/>
</g>
<!-- core_final_bastion -->
<g id="node32" class="node">
<title>core_final_bastion</title>
<path fill="lightgrey" stroke="black" d="M744,-576C744,-576 624,-576 624,-576 618,-576 612,-570 612,-564 612,-564 612,-552 612,-552 612,-546 618,-540 624,-540 624,-540 744,-540 744,-540 750,-540 756,-546 756,-552 756,-552 756,-564 756,-564 756,-570 750,-576 744,-576"/>
<text text-anchor="middle" x="684" y="-554.3" font-family="Times,serif" font-size="14.00" fill="white">core_final_bastion</text>
</g>
<!-- core_champion_guard&#45;&gt;core_final_bastion -->
<g id="edge37" class="edge">
<title>core_champion_guard&#45;&gt;core_final_bastion</title>
<path fill="none" stroke="#7e57c2" d="M525.66,-558C550.25,-558 577.03,-558 601.41,-558"/>
<polygon fill="#7e57c2" stroke="#7e57c2" points="601.7,-561.5 611.7,-558 601.7,-554.5 601.7,-561.5"/>
</g>
<!-- core_champion_speed&#45;&gt;core_final_prime -->
<g id="edge40" class="edge">
<title>core_champion_speed&#45;&gt;core_final_prime</title>
<path fill="none" stroke="#7e57c2" d="M525.56,-518.54C533.87,-521.88 541.86,-525.97 549,-531 572.59,-547.6 561.62,-568.1 585,-585 591.79,-589.9 599.42,-593.92 607.36,-597.2"/>
<polygon fill="#7e57c2" stroke="#7e57c2" points="606.19,-600.5 616.78,-600.73 608.65,-593.95 606.19,-600.5"/>
</g>
<!-- core_final_photon -->
<g id="node33" class="node">
<title>core_final_photon</title>
<path fill="lightgrey" stroke="black" d="M742.5,-522C742.5,-522 625.5,-522 625.5,-522 619.5,-522 613.5,-516 613.5,-510 613.5,-510 613.5,-498 613.5,-498 613.5,-492 619.5,-486 625.5,-486 625.5,-486 742.5,-486 742.5,-486 748.5,-486 754.5,-492 754.5,-498 754.5,-498 754.5,-510 754.5,-510 754.5,-516 748.5,-522 742.5,-522"/>
<text text-anchor="middle" x="684" y="-500.3" font-family="Times,serif" font-size="14.00" fill="white">core_final_photon</text>
</g>
<!-- core_champion_speed&#45;&gt;core_final_photon -->
<g id="edge39" class="edge">
<title>core_champion_speed&#45;&gt;core_final_photon</title>
<path fill="none" stroke="#7e57c2" d="M525.66,-504C550.84,-504 578.32,-504 603.16,-504"/>
<polygon fill="#7e57c2" stroke="#7e57c2" points="603.26,-507.5 613.26,-504 603.26,-500.5 603.26,-507.5"/>
</g>
<!-- corrupt_baby -->
<g id="node34" class="node">
<title>corrupt_baby</title>
<path fill="#ef5350" stroke="black" d="M105.5,-738C105.5,-738 18.5,-738 18.5,-738 12.5,-738 6.5,-732 6.5,-726 6.5,-726 6.5,-714 6.5,-714 6.5,-708 12.5,-702 18.5,-702 18.5,-702 105.5,-702 105.5,-702 111.5,-702 117.5,-708 117.5,-714 117.5,-714 117.5,-726 117.5,-726 117.5,-732 111.5,-738 105.5,-738"/>
<text text-anchor="middle" x="62" y="-716.3" font-family="Times,serif" font-size="14.00">corrupt_baby</text>
</g>
<!-- corrupt_rookie -->
<g id="node35" class="node">
<title>corrupt_rookie</title>
<path fill="#ef5350" stroke="black" d="M275.5,-738C275.5,-738 178.5,-738 178.5,-738 172.5,-738 166.5,-732 166.5,-726 166.5,-726 166.5,-714 166.5,-714 166.5,-708 172.5,-702 178.5,-702 178.5,-702 275.5,-702 275.5,-702 281.5,-702 287.5,-708 287.5,-714 287.5,-714 287.5,-726 287.5,-726 287.5,-732 281.5,-738 275.5,-738"/>
<text text-anchor="middle" x="227" y="-716.3" font-family="Times,serif" font-size="14.00">corrupt_rookie</text>
</g>
<!-- corrupt_baby&#45;&gt;corrupt_rookie -->
<g id="edge41" class="edge">
<title>corrupt_baby&#45;&gt;corrupt_rookie</title>
<path fill="none" stroke="black" d="M117.73,-720C130.06,-720 143.32,-720 156.17,-720"/>
<polygon fill="black" stroke="black" points="156.38,-723.5 166.38,-720 156.38,-716.5 156.38,-723.5"/>
</g>
<!-- corrupt_champion_glitch -->
<g id="node36" class="node">
<title>corrupt_champion_glitch</title>
<path fill="#ef5350" stroke="black" d="M524,-792C524,-792 355,-792 355,-792 349,-792 343,-786 343,-780 343,-780 343,-768 343,-768 343,-762 349,-756 355,-756 355,-756 524,-756 524,-756 530,-756 536,-762 536,-768 536,-768 536,-780 536,-780 536,-786 530,-792 524,-792"/>
<text text-anchor="middle" x="439.5" y="-770.3" font-family="Times,serif" font-size="14.00">corrupt_champion_glitch</text>
</g>
<!-- corrupt_rookie&#45;&gt;corrupt_champion_glitch -->
<g id="edge42" class="edge">
<title>corrupt_rookie&#45;&gt;corrupt_champion_glitch</title>
<path fill="none" stroke="#7e57c2" d="M287.56,-735.93C301.48,-739.6 316.25,-743.47 330,-747 338.33,-749.14 347.03,-751.35 355.72,-753.54"/>
<polygon fill="#7e57c2" stroke="#7e57c2" points="354.96,-756.95 365.51,-755.99 356.66,-750.16 354.96,-756.95"/>
</g>
<!-- corrupt_champion_error -->
<g id="node37" class="node">
<title>corrupt_champion_error</title>
<path fill="#ef5350" stroke="black" d="M522,-738C522,-738 357,-738 357,-738 351,-738 345,-732 345,-726 345,-726 345,-714 345,-714 345,-708 351,-702 357,-702 357,-702 522,-702 522,-702 528,-702 534,-708 534,-714 534,-714 534,-726 534,-726 534,-732 528,-738 522,-738"/>
<text text-anchor="middle" x="439.5" y="-716.3" font-family="Times,serif" font-size="14.00">corrupt_champion_error</text>
</g>
<!-- corrupt_rookie&#45;&gt;corrupt_champion_error -->
<g id="edge43" class="edge">
<title>corrupt_rookie&#45;&gt;corrupt_champion_error</title>
<path fill="none" stroke="#7e57c2" d="M287.76,-720C302.45,-720 318.62,-720 334.73,-720"/>
<polygon fill="#7e57c2" stroke="#7e57c2" points="334.74,-723.5 344.74,-720 334.74,-716.5 334.74,-723.5"/>
</g>
<!-- corrupt_champion_patchfail -->
<g id="node38" class="node">
<title>corrupt_champion_patchfail</title>
<path fill="#ef5350" stroke="black" d="M535,-684C535,-684 344,-684 344,-684 338,-684 332,-678 332,-672 332,-672 332,-660 332,-660 332,-654 338,-648 344,-648 344,-648 535,-648 535,-648 541,-648 547,-654 547,-660 547,-660 547,-672 547,-672 547,-678 541,-684 535,-684"/>
<text text-anchor="middle" x="439.5" y="-662.3" font-family="Times,serif" font-size="14.00">corrupt_champion_patchfail</text>
</g>
<!-- corrupt_rookie&#45;&gt;corrupt_champion_patchfail -->
<g id="edge44" class="edge">
<title>corrupt_rookie&#45;&gt;corrupt_champion_patchfail</title>
<path fill="none" stroke="#7e57c2" d="M287.56,-704.07C301.48,-700.4 316.25,-696.53 330,-693 338.33,-690.86 347.03,-688.65 355.72,-686.46"/>
<polygon fill="#7e57c2" stroke="#7e57c2" points="356.66,-689.84 365.51,-684.01 354.96,-683.05 356.66,-689.84"/>
</g>
<!-- corrupt_final_corruptcore -->
<g id="node39" class="node">
<title>corrupt_final_corruptcore</title>
<path fill="lightgrey" stroke="black" d="M771,-792C771,-792 597,-792 597,-792 591,-792 585,-786 585,-780 585,-780 585,-768 585,-768 585,-762 591,-756 597,-756 597,-756 771,-756 771,-756 777,-756 783,-762 783,-768 783,-768 783,-780 783,-780 783,-786 777,-792 771,-792"/>
<text text-anchor="middle" x="684" y="-770.3" font-family="Times,serif" font-size="14.00" fill="white">corrupt_final_corruptcore</text>
</g>
<!-- corrupt_champion_glitch&#45;&gt;corrupt_final_corruptcore -->
<g id="edge45" class="edge">
<title>corrupt_champion_glitch&#45;&gt;corrupt_final_corruptcore</title>
<path fill="none" stroke="#7e57c2" d="M536.34,-774C548.88,-774 561.79,-774 574.52,-774"/>
<polygon fill="#7e57c2" stroke="#7e57c2" points="574.67,-777.5 584.67,-774 574.67,-770.5 574.67,-777.5"/>
</g>
<!-- corrupt_final_overrun -->
<g id="node40" class="node">
<title>corrupt_final_overrun</title>
<path fill="lightgrey" stroke="black" d="M757,-738C757,-738 611,-738 611,-738 605,-738 599,-732 599,-726 599,-726 599,-714 599,-714 599,-708 605,-702 611,-702 611,-702 757,-702 757,-702 763,-702 769,-708 769,-714 769,-714 769,-726 769,-726 769,-732 763,-738 757,-738"/>
<text text-anchor="middle" x="684" y="-716.3" font-family="Times,serif" font-size="14.00" fill="white">corrupt_final_overrun</text>
</g>
<!-- corrupt_champion_glitch&#45;&gt;corrupt_final_overrun -->
<g id="edge46" class="edge">
<title>corrupt_champion_glitch&#45;&gt;corrupt_final_overrun</title>
<path fill="none" stroke="#7e57c2" d="M521.59,-755.94C544.24,-750.9 568.99,-745.39 592.17,-740.23"/>
<polygon fill="#7e57c2" stroke="#7e57c2" points="592.99,-743.63 601.99,-738.04 591.47,-736.8 592.99,-743.63"/>
</g>
<!-- corrupt_champion_error&#45;&gt;corrupt_final_corruptcore -->
<g id="edge48" class="edge">
<title>corrupt_champion_error&#45;&gt;corrupt_final_corruptcore</title>
<path fill="none" stroke="#7e57c2" d="M521.59,-738.06C544.24,-743.1 568.99,-748.61 592.17,-753.77"/>
<polygon fill="#7e57c2" stroke="#7e57c2" points="591.47,-757.2 601.99,-755.96 592.99,-750.37 591.47,-757.2"/>
</g>
<!-- corrupt_champion_error&#45;&gt;corrupt_final_overrun -->
<g id="edge47" class="edge">
<title>corrupt_champion_error&#45;&gt;corrupt_final_overrun</title>
<path fill="none" stroke="#7e57c2" d="M534.26,-720C552.17,-720 570.92,-720 588.84,-720"/>
<polygon fill="#7e57c2" stroke="#7e57c2" points="588.99,-723.5 598.99,-720 588.99,-716.5 588.99,-723.5"/>
</g>
<!-- corrupt_champion_patchfail&#45;&gt;corrupt_final_corruptcore -->
<g id="edge49" class="edge">
<title>corrupt_champion_patchfail&#45;&gt;corrupt_final_corruptcore</title>
<path fill="none" stroke="#7e57c2" d="M533.48,-684.01C538.93,-686.61 544.16,-689.59 549,-693 572.59,-709.6 561.62,-730.1 585,-747 587.07,-748.49 589.21,-749.9 591.42,-751.23"/>
<polygon fill="#7e57c2" stroke="#7e57c2" points="589.75,-754.31 600.21,-756 593.08,-748.16 589.75,-754.31"/>
</g>
<!-- corrupt_champion_patchfail&#45;&gt;corrupt_final_overrun -->
<g id="edge50" class="edge">
<title>corrupt_champion_patchfail&#45;&gt;corrupt_final_overrun</title>
<path fill="none" stroke="#7e57c2" d="M521.59,-684.06C544.24,-689.1 568.99,-694.61 592.17,-699.77"/>
<polygon fill="#7e57c2" stroke="#7e57c2" points="591.47,-703.2 601.99,-701.96 592.99,-696.37 591.47,-703.2"/>
</g>
<!-- dream_baby -->
<g id="node41" class="node">
<title>dream_baby</title>
<path fill="#9575cd" stroke="black" d="M102,-900C102,-900 22,-900 22,-900 16,-900 10,-894 10,-888 10,-888 10,-876 10,-876 10,-870 16,-864 22,-864 22,-864 102,-864 102,-864 108,-864 114,-870 114,-876 114,-876 114,-888 114,-888 114,-894 108,-900 102,-900"/>
<text text-anchor="middle" x="62" y="-878.3" font-family="Times,serif" font-size="14.00">dream_baby</text>
</g>
<!-- dream_rookie -->
<g id="node42" class="node">
<title>dream_rookie</title>
<path fill="#9575cd" stroke="black" d="M271.5,-900C271.5,-900 182.5,-900 182.5,-900 176.5,-900 170.5,-894 170.5,-888 170.5,-888 170.5,-876 170.5,-876 170.5,-870 176.5,-864 182.5,-864 182.5,-864 271.5,-864 271.5,-864 277.5,-864 283.5,-870 283.5,-876 283.5,-876 283.5,-888 283.5,-888 283.5,-894 277.5,-900 271.5,-900"/>
<text text-anchor="middle" x="227" y="-878.3" font-family="Times,serif" font-size="14.00">dream_rookie</text>
</g>
<!-- dream_baby&#45;&gt;dream_rookie -->
<g id="edge51" class="edge">
<title>dream_baby&#45;&gt;dream_rookie</title>
<path fill="none" stroke="black" d="M114.13,-882C128.62,-882 144.6,-882 159.84,-882"/>
<polygon fill="black" stroke="black" points="160.25,-885.5 170.25,-882 160.25,-878.5 160.25,-885.5"/>
</g>
<!-- dream_champion_lucid -->
<g id="node43" class="node">
<title>dream_champion_lucid</title>
<path fill="#9575cd" stroke="black" d="M517,-954C517,-954 362,-954 362,-954 356,-954 350,-948 350,-942 350,-942 350,-930 350,-930 350,-924 356,-918 362,-918 362,-918 517,-918 517,-918 523,-918 529,-924 529,-930 529,-930 529,-942 529,-942 529,-948 523,-954 517,-954"/>
<text text-anchor="middle" x="439.5" y="-932.3" font-family="Times,serif" font-size="14.00">dream_champion_lucid</text>
</g>
<!-- dream_rookie&#45;&gt;dream_champion_lucid -->
<g id="edge52" class="edge">
<title>dream_rookie&#45;&gt;dream_champion_lucid</title>
<path fill="none" stroke="#7e57c2" d="M283.55,-896.86C298.61,-900.85 314.92,-905.13 330,-909 338.33,-911.14 347.03,-913.35 355.72,-915.54"/>
<polygon fill="#7e57c2" stroke="#7e57c2" points="354.96,-918.95 365.51,-917.99 356.66,-912.16 354.96,-918.95"/>
</g>
<!-- dream_champion_nightmare -->
<g id="node44" class="node">
<title>dream_champion_nightmare</title>
<path fill="#9575cd" stroke="black" d="M537,-900C537,-900 342,-900 342,-900 336,-900 330,-894 330,-888 330,-888 330,-876 330,-876 330,-870 336,-864 342,-864 342,-864 537,-864 537,-864 543,-864 549,-870 549,-876 549,-876 549,-888 549,-888 549,-894 543,-900 537,-900"/>
<text text-anchor="middle" x="439.5" y="-878.3" font-family="Times,serif" font-size="14.00">dream_champion_nightmare</text>
</g>
<!-- dream_rookie&#45;&gt;dream_champion_nightmare -->
<g id="edge53" class="edge">
<title>dream_rookie&#45;&gt;dream_champion_nightmare</title>
<path fill="none" stroke="#7e57c2" d="M283.58,-882C294.83,-882 307.05,-882 319.54,-882"/>
<polygon fill="#7e57c2" stroke="#7e57c2" points="319.6,-885.5 329.6,-882 319.6,-878.5 319.6,-885.5"/>
</g>
<!-- dream_champion_whimsy -->
<g id="node45" class="node">
<title>dream_champion_whimsy</title>
<path fill="#9575cd" stroke="black" d="M527.5,-846C527.5,-846 351.5,-846 351.5,-846 345.5,-846 339.5,-840 339.5,-834 339.5,-834 339.5,-822 339.5,-822 339.5,-816 345.5,-810 351.5,-810 351.5,-810 527.5,-810 527.5,-810 533.5,-810 539.5,-816 539.5,-822 539.5,-822 539.5,-834 539.5,-834 539.5,-840 533.5,-846 527.5,-846"/>
<text text-anchor="middle" x="439.5" y="-824.3" font-family="Times,serif" font-size="14.00">dream_champion_whimsy</text>
</g>
<!-- dream_rookie&#45;&gt;dream_champion_whimsy -->
<g id="edge54" class="edge">
<title>dream_rookie&#45;&gt;dream_champion_whimsy</title>
<path fill="none" stroke="#7e57c2" d="M283.55,-867.14C298.61,-863.15 314.92,-858.87 330,-855 338.33,-852.86 347.03,-850.65 355.72,-848.46"/>
<polygon fill="#7e57c2" stroke="#7e57c2" points="356.66,-851.84 365.51,-846.01 354.96,-845.05 356.66,-851.84"/>
</g>
<!-- dream_final_ascended -->
<g id="node46" class="node">
<title>dream_final_ascended</title>
<path fill="lightgrey" stroke="black" d="M758.5,-934C758.5,-934 609.5,-934 609.5,-934 603.5,-934 597.5,-928 597.5,-922 597.5,-922 597.5,-910 597.5,-910 597.5,-904 603.5,-898 609.5,-898 609.5,-898 758.5,-898 758.5,-898 764.5,-898 770.5,-904 770.5,-910 770.5,-910 770.5,-922 770.5,-922 770.5,-928 764.5,-934 758.5,-934"/>
<text text-anchor="middle" x="684" y="-912.3" font-family="Times,serif" font-size="14.00" fill="white">dream_final_ascended</text>
</g>
<!-- dream_champion_lucid&#45;&gt;dream_final_ascended -->
<g id="edge55" class="edge">
<title>dream_champion_lucid&#45;&gt;dream_final_ascended</title>
<path fill="none" stroke="#7e57c2" d="M529.08,-928.69C548.09,-927.13 568.26,-925.46 587.52,-923.87"/>
<polygon fill="#7e57c2" stroke="#7e57c2" points="587.82,-927.36 597.49,-923.05 587.24,-920.39 587.82,-927.36"/>
</g>
<!-- dream_final_chaos -->
<g id="node47" class="node">
<title>dream_final_chaos</title>
<path fill="lightgrey" stroke="black" d="M745.5,-880C745.5,-880 622.5,-880 622.5,-880 616.5,-880 610.5,-874 610.5,-868 610.5,-868 610.5,-856 610.5,-856 610.5,-850 616.5,-844 622.5,-844 622.5,-844 745.5,-844 745.5,-844 751.5,-844 757.5,-850 757.5,-856 757.5,-856 757.5,-868 757.5,-868 757.5,-874 751.5,-880 745.5,-880"/>
<text text-anchor="middle" x="684" y="-858.3" font-family="Times,serif" font-size="14.00" fill="white">dream_final_chaos</text>
</g>
<!-- dream_champion_lucid&#45;&gt;dream_final_chaos -->
<g id="edge56" class="edge">
<title>dream_champion_lucid&#45;&gt;dream_final_chaos</title>
<path fill="none" stroke="#7e57c2" d="M522.69,-918C531.68,-915.31 540.6,-912.31 549,-909 566.03,-902.29 568.06,-895.92 585,-889 590.05,-886.93 595.32,-884.97 600.67,-883.12"/>
<polygon fill="#7e57c2" stroke="#7e57c2" points="601.97,-886.38 610.36,-879.91 599.77,-879.73 601.97,-886.38"/>
</g>
<!-- dream_champion_nightmare&#45;&gt;dream_final_ascended -->
<g id="edge58" class="edge">
<title>dream_champion_nightmare&#45;&gt;dream_final_ascended</title>
<path fill="none" stroke="#7e57c2" d="M549.34,-897.26C562.05,-899.04 574.95,-900.85 587.47,-902.61"/>
<polygon fill="#7e57c2" stroke="#7e57c2" points="587.03,-906.08 597.42,-904 588,-899.15 587.03,-906.08"/>
</g>
<!-- dream_champion_nightmare&#45;&gt;dream_final_chaos -->
<g id="edge57" class="edge">
<title>dream_champion_nightmare&#45;&gt;dream_final_chaos</title>
<path fill="none" stroke="#7e57c2" d="M549.34,-873.02C566.44,-871.61 583.87,-870.18 600.26,-868.82"/>
<polygon fill="#7e57c2" stroke="#7e57c2" points="600.63,-872.31 610.31,-867.99 600.06,-865.33 600.63,-872.31"/>
</g>
<!-- dream_champion_whimsy&#45;&gt;dream_final_ascended -->
<g id="edge59" class="edge">
<title>dream_champion_whimsy&#45;&gt;dream_final_ascended</title>
<path fill="none" stroke="#7e57c2" d="M529.3,-846.01C536.13,-848.62 542.78,-851.6 549,-855 568.31,-865.56 565.82,-878.2 585,-889 588.09,-890.74 591.3,-892.38 594.6,-893.91"/>
<polygon fill="#7e57c2" stroke="#7e57c2" points="593.49,-897.24 604.06,-897.97 596.25,-890.81 593.49,-897.24"/>
</g>
<!-- dream_champion_whimsy&#45;&gt;dream_final_chaos -->
<g id="edge60" class="edge">
<title>dream_champion_whimsy&#45;&gt;dream_final_chaos</title>
<path fill="none" stroke="#7e57c2" d="M539.83,-841.93C559.88,-844.74 580.76,-847.67 600.17,-850.39"/>
<polygon fill="#7e57c2" stroke="#7e57c2" points="599.79,-853.87 610.18,-851.79 600.76,-846.93 599.79,-853.87"/>
</g>
<!-- root_baby -->
<g id="node48" class="node">
<title>root_baby</title>
<path fill="#81c784" stroke="black" d="M93.5,-1089C93.5,-1089 30.5,-1089 30.5,-1089 24.5,-1089 18.5,-1083 18.5,-1077 18.5,-1077 18.5,-1065 18.5,-1065 18.5,-1059 24.5,-1053 30.5,-1053 30.5,-1053 93.5,-1053 93.5,-1053 99.5,-1053 105.5,-1059 105.5,-1065 105.5,-1065 105.5,-1077 105.5,-1077 105.5,-1083 99.5,-1089 93.5,-1089"/>
<text text-anchor="middle" x="62" y="-1067.3" font-family="Times,serif" font-size="14.00">root_baby</text>
</g>
<!-- root_rookie -->
<g id="node49" class="node">
<title>root_rookie</title>
<path fill="#81c784" stroke="black" d="M263.5,-1089C263.5,-1089 190.5,-1089 190.5,-1089 184.5,-1089 178.5,-1083 178.5,-1077 178.5,-1077 178.5,-1065 178.5,-1065 178.5,-1059 184.5,-1053 190.5,-1053 190.5,-1053 263.5,-1053 263.5,-1053 269.5,-1053 275.5,-1059 275.5,-1065 275.5,-1065 275.5,-1077 275.5,-1077 275.5,-1083 269.5,-1089 263.5,-1089"/>
<text text-anchor="middle" x="227" y="-1067.3" font-family="Times,serif" font-size="14.00">root_rookie</text>
</g>
<!-- root_baby&#45;&gt;root_rookie -->
<g id="edge61" class="edge">
<title>root_baby&#45;&gt;root_rookie</title>
<path fill="none" stroke="black" d="M105.83,-1071C124.87,-1071 147.58,-1071 168.1,-1071"/>
<polygon fill="black" stroke="black" points="168.29,-1074.5 178.29,-1071 168.29,-1067.5 168.29,-1074.5"/>
</g>
<!-- root_champion_thorn -->
<g id="node50" class="node">
<title>root_champion_thorn</title>
<path fill="#81c784" stroke="black" d="M511,-1143C511,-1143 368,-1143 368,-1143 362,-1143 356,-1137 356,-1131 356,-1131 356,-1119 356,-1119 356,-1113 362,-1107 368,-1107 368,-1107 511,-1107 511,-1107 517,-1107 523,-1113 523,-1119 523,-1119 523,-1131 523,-1131 523,-1137 517,-1143 511,-1143"/>
<text text-anchor="middle" x="439.5" y="-1121.3" font-family="Times,serif" font-size="14.00">root_champion_thorn</text>
</g>
<!-- root_rookie&#45;&gt;root_champion_thorn -->
<g id="edge62" class="edge">
<title>root_rookie&#45;&gt;root_champion_thorn</title>
<path fill="none" stroke="#7e57c2" d="M275.7,-1083.78C292.81,-1088.33 312.26,-1093.44 330,-1098 338.33,-1100.14 347.03,-1102.35 355.72,-1104.54"/>
<polygon fill="#7e57c2" stroke="#7e57c2" points="354.96,-1107.95 365.51,-1106.99 356.66,-1101.16 354.96,-1107.95"/>
</g>
<!-- root_champion_bloom -->
<g id="node51" class="node">
<title>root_champion_bloom</title>
<path fill="#81c784" stroke="black" d="M513.5,-1089C513.5,-1089 365.5,-1089 365.5,-1089 359.5,-1089 353.5,-1083 353.5,-1077 353.5,-1077 353.5,-1065 353.5,-1065 353.5,-1059 359.5,-1053 365.5,-1053 365.5,-1053 513.5,-1053 513.5,-1053 519.5,-1053 525.5,-1059 525.5,-1065 525.5,-1065 525.5,-1077 525.5,-1077 525.5,-1083 519.5,-1089 513.5,-1089"/>
<text text-anchor="middle" x="439.5" y="-1067.3" font-family="Times,serif" font-size="14.00">root_champion_bloom</text>
</g>
<!-- root_rookie&#45;&gt;root_champion_bloom -->
<g id="edge63" class="edge">
<title>root_rookie&#45;&gt;root_champion_bloom</title>
<path fill="none" stroke="#7e57c2" d="M275.5,-1071C295.47,-1071 319.44,-1071 342.79,-1071"/>
<polygon fill="#7e57c2" stroke="#7e57c2" points="343.1,-1074.5 353.1,-1071 343.1,-1067.5 343.1,-1074.5"/>
</g>
<!-- root_champion_bark -->
<g id="node52" class="node">
<title>root_champion_bark</title>
<path fill="#81c784" stroke="black" d="M508,-1035C508,-1035 371,-1035 371,-1035 365,-1035 359,-1029 359,-1023 359,-1023 359,-1011 359,-1011 359,-1005 365,-999 371,-999 371,-999 508,-999 508,-999 514,-999 520,-1005 520,-1011 520,-1011 520,-1023 520,-1023 520,-1029 514,-1035 508,-1035"/>
<text text-anchor="middle" x="439.5" y="-1013.3" font-family="Times,serif" font-size="14.00">root_champion_bark</text>
</g>
<!-- root_rookie&#45;&gt;root_champion_bark -->
<g id="edge64" class="edge">
<title>root_rookie&#45;&gt;root_champion_bark</title>
<path fill="none" stroke="#7e57c2" d="M275.7,-1058.22C292.81,-1053.67 312.26,-1048.56 330,-1044 338.33,-1041.86 347.03,-1039.65 355.72,-1037.46"/>
<polygon fill="#7e57c2" stroke="#7e57c2" points="356.66,-1040.84 365.51,-1035.01 354.96,-1034.05 356.66,-1040.84"/>
</g>
<!-- root_final_bramble -->
<g id="node53" class="node">
<title>root_final_bramble</title>
<path fill="lightgrey" stroke="black" d="M746.5,-1163C746.5,-1163 621.5,-1163 621.5,-1163 615.5,-1163 609.5,-1157 609.5,-1151 609.5,-1151 609.5,-1139 609.5,-1139 609.5,-1133 615.5,-1127 621.5,-1127 621.5,-1127 746.5,-1127 746.5,-1127 752.5,-1127 758.5,-1133 758.5,-1139 758.5,-1139 758.5,-1151 758.5,-1151 758.5,-1157 752.5,-1163 746.5,-1163"/>
<text text-anchor="middle" x="684" y="-1141.3" font-family="Times,serif" font-size="14.00" fill="white">root_final_bramble</text>
</g>
<!-- root_champion_thorn&#45;&gt;root_final_bramble -->
<g id="edge65" class="edge">
<title>root_champion_thorn&#45;&gt;root_final_bramble</title>
<path fill="none" stroke="#7e57c2" d="M523.28,-1131.83C547.76,-1133.85 574.57,-1136.06 599.12,-1138.08"/>
<polygon fill="#7e57c2" stroke="#7e57c2" points="598.87,-1141.57 609.13,-1138.91 599.45,-1134.6 598.87,-1141.57"/>
</g>
<!-- root_final_ancient -->
<g id="node54" class="node">
<title>root_final_ancient</title>
<path fill="lightgrey" stroke="black" d="M743.5,-1109C743.5,-1109 624.5,-1109 624.5,-1109 618.5,-1109 612.5,-1103 612.5,-1097 612.5,-1097 612.5,-1085 612.5,-1085 612.5,-1079 618.5,-1073 624.5,-1073 624.5,-1073 743.5,-1073 743.5,-1073 749.5,-1073 755.5,-1079 755.5,-1085 755.5,-1085 755.5,-1097 755.5,-1097 755.5,-1103 749.5,-1109 743.5,-1109"/>
<text text-anchor="middle" x="684" y="-1087.3" font-family="Times,serif" font-size="14.00" fill="white">root_final_ancient</text>
</g>
<!-- root_champion_thorn&#45;&gt;root_final_ancient -->
<g id="edge66" class="edge">
<title>root_champion_thorn&#45;&gt;root_final_ancient</title>
<path fill="none" stroke="#7e57c2" d="M523.28,-1113.39C548.83,-1109.81 576.94,-1105.87 602.35,-1102.31"/>
<polygon fill="#7e57c2" stroke="#7e57c2" points="602.9,-1105.77 612.32,-1100.91 601.93,-1098.83 602.9,-1105.77"/>
</g>
<!-- root_champion_bloom&#45;&gt;root_final_ancient -->
<g id="edge67" class="edge">
<title>root_champion_bloom&#45;&gt;root_final_ancient</title>
<path fill="none" stroke="#7e57c2" d="M525.66,-1078.02C550.6,-1080.08 577.8,-1082.32 602.45,-1084.36"/>
<polygon fill="#7e57c2" stroke="#7e57c2" points="602.23,-1087.85 612.48,-1085.18 602.8,-1080.87 602.23,-1087.85"/>
</g>
<!-- root_final_verdant -->
<g id="node55" class="node">
<title>root_final_verdant</title>
<path fill="lightgrey" stroke="black" d="M745,-1055C745,-1055 623,-1055 623,-1055 617,-1055 611,-1049 611,-1043 611,-1043 611,-1031 611,-1031 611,-1025 617,-1019 623,-1019 623,-1019 745,-1019 745,-1019 751,-1019 757,-1025 757,-1031 757,-1031 757,-1043 757,-1043 757,-1049 751,-1055 745,-1055"/>
<text text-anchor="middle" x="684" y="-1033.3" font-family="Times,serif" font-size="14.00" fill="white">root_final_verdant</text>
</g>
<!-- root_champion_bloom&#45;&gt;root_final_verdant -->
<g id="edge68" class="edge">
<title>root_champion_bloom&#45;&gt;root_final_verdant</title>
<path fill="none" stroke="#7e57c2" d="M525.66,-1059.06C550.02,-1055.65 576.51,-1051.93 600.7,-1048.54"/>
<polygon fill="#7e57c2" stroke="#7e57c2" points="601.49,-1051.96 610.91,-1047.11 600.52,-1045.03 601.49,-1051.96"/>
</g>
<!-- root_champion_bark&#45;&gt;root_final_ancient -->
<g id="edge70" class="edge">
<title>root_champion_bark&#45;&gt;root_final_ancient</title>
<path fill="none" stroke="#7e57c2" d="M520.08,-1034.23C529.94,-1037.11 539.79,-1040.37 549,-1044 566.03,-1050.71 568.06,-1057.08 585,-1064 590.74,-1066.34 596.74,-1068.55 602.83,-1070.62"/>
<polygon fill="#7e57c2" stroke="#7e57c2" points="601.86,-1073.98 612.46,-1073.75 604.03,-1067.33 601.86,-1073.98"/>
</g>
<!-- root_final_warden -->
<g id="node56" class="node">
<title>root_final_warden</title>
<path fill="lightgrey" stroke="black" d="M743.5,-1001C743.5,-1001 624.5,-1001 624.5,-1001 618.5,-1001 612.5,-995 612.5,-989 612.5,-989 612.5,-977 612.5,-977 612.5,-971 618.5,-965 624.5,-965 624.5,-965 743.5,-965 743.5,-965 749.5,-965 755.5,-971 755.5,-977 755.5,-977 755.5,-989 755.5,-989 755.5,-995 749.5,-1001 743.5,-1001"/>
<text text-anchor="middle" x="684" y="-979.3" font-family="Times,serif" font-size="14.00" fill="white">root_final_warden</text>
</g>
<!-- root_champion_bark&#45;&gt;root_final_warden -->
<g id="edge69" class="edge">
<title>root_champion_bark&#45;&gt;root_final_warden</title>
<path fill="none" stroke="#7e57c2" d="M520.24,-1005.82C546.56,-1002.13 575.84,-998.02 602.24,-994.32"/>
<polygon fill="#7e57c2" stroke="#7e57c2" points="602.78,-997.78 612.2,-992.93 601.81,-990.85 602.78,-997.78"/>
</g>
<!-- archive_baby -->
<g id="node57" class="node">
<title>archive_baby</title>
<path fill="#ce93d8" stroke="black" d="M105,-1271C105,-1271 19,-1271 19,-1271 13,-1271 7,-1265 7,-1259 7,-1259 7,-1247 7,-1247 7,-1241 13,-1235 19,-1235 19,-1235 105,-1235 105,-1235 111,-1235 117,-1241 117,-1247 117,-1247 117,-1259 117,-1259 117,-1265 111,-1271 105,-1271"/>
<text text-anchor="middle" x="62" y="-1249.3" font-family="Times,serif" font-size="14.00">archive_baby</text>
</g>
<!-- archive_rookie -->
<g id="node58" class="node">
<title>archive_rookie</title>
<path fill="#ce93d8" stroke="black" d="M275,-1271C275,-1271 179,-1271 179,-1271 173,-1271 167,-1265 167,-1259 167,-1259 167,-1247 167,-1247 167,-1241 173,-1235 179,-1235 179,-1235 275,-1235 275,-1235 281,-1235 287,-1241 287,-1247 287,-1247 287,-1259 287,-1259 287,-1265 281,-1271 275,-1271"/>
<text text-anchor="middle" x="227" y="-1249.3" font-family="Times,serif" font-size="14.00">archive_rookie</text>
</g>
<!-- archive_baby&#45;&gt;archive_rookie -->
<g id="edge71" class="edge">
<title>archive_baby&#45;&gt;archive_rookie</title>
<path fill="none" stroke="black" d="M117.28,-1253C129.97,-1253 143.66,-1253 156.9,-1253"/>
<polygon fill="black" stroke="black" points="156.92,-1256.5 166.92,-1253 156.92,-1249.5 156.92,-1256.5"/>
</g>
<!-- archive_champion_logic -->
<g id="node59" class="node">
<title>archive_champion_logic</title>
<path fill="#ce93d8" stroke="black" d="M520,-1271C520,-1271 359,-1271 359,-1271 353,-1271 347,-1265 347,-1259 347,-1259 347,-1247 347,-1247 347,-1241 353,-1235 359,-1235 359,-1235 520,-1235 520,-1235 526,-1235 532,-1241 532,-1247 532,-1247 532,-1259 532,-1259 532,-1265 526,-1271 520,-1271"/>
<text text-anchor="middle" x="439.5" y="-1249.3" font-family="Times,serif" font-size="14.00">archive_champion_logic</text>
</g>
<!-- archive_rookie&#45;&gt;archive_champion_logic -->
<g id="edge72" class="edge">
<title>archive_rookie&#45;&gt;archive_champion_logic</title>
<path fill="none" stroke="#7e57c2" d="M287.2,-1253C302.5,-1253 319.43,-1253 336.25,-1253"/>
<polygon fill="#7e57c2" stroke="#7e57c2" points="336.7,-1256.5 346.7,-1253 336.7,-1249.5 336.7,-1256.5"/>
</g>
<!-- archive_champion_index -->
<g id="node60" class="node">
<title>archive_champion_index</title>
<path fill="#ce93d8" stroke="black" d="M523,-1217C523,-1217 356,-1217 356,-1217 350,-1217 344,-1211 344,-1205 344,-1205 344,-1193 344,-1193 344,-1187 350,-1181 356,-1181 356,-1181 523,-1181 523,-1181 529,-1181 535,-1187 535,-1193 535,-1193 535,-1205 535,-1205 535,-1211 529,-1217 523,-1217"/>
<text text-anchor="middle" x="439.5" y="-1195.3" font-family="Times,serif" font-size="14.00">archive_champion_index</text>
</g>
<!-- archive_rookie&#45;&gt;archive_champion_index -->
<g id="edge73" class="edge">
<title>archive_rookie&#45;&gt;archive_champion_index</title>
<path fill="none" stroke="#7e57c2" d="M287.02,-1237.22C301.09,-1233.5 316.07,-1229.58 330,-1226 338.33,-1223.86 347.03,-1221.65 355.72,-1219.46"/>
<polygon fill="#7e57c2" stroke="#7e57c2" points="356.66,-1222.84 365.51,-1217.01 354.96,-1216.05 356.66,-1222.84"/>
</g>
<!-- archive_champion_fragment -->
<g id="node61" class="node">
<title>archive_champion_fragment</title>
<path fill="#ce93d8" stroke="black" d="M536.5,-1325C536.5,-1325 342.5,-1325 342.5,-1325 336.5,-1325 330.5,-1319 330.5,-1313 330.5,-1313 330.5,-1301 330.5,-1301 330.5,-1295 336.5,-1289 342.5,-1289 342.5,-1289 536.5,-1289 536.5,-1289 542.5,-1289 548.5,-1295 548.5,-1301 548.5,-1301 548.5,-1313 548.5,-1313 548.5,-1319 542.5,-1325 536.5,-1325"/>
<text text-anchor="middle" x="439.5" y="-1303.3" font-family="Times,serif" font-size="14.00">archive_champion_fragment</text>
</g>
<!-- archive_rookie&#45;&gt;archive_champion_fragment -->
<g id="edge74" class="edge">
<title>archive_rookie&#45;&gt;archive_champion_fragment</title>
<path fill="none" stroke="#7e57c2" d="M287.02,-1268.78C301.09,-1272.5 316.07,-1276.42 330,-1280 338.33,-1282.14 347.03,-1284.35 355.72,-1286.54"/>
<polygon fill="#7e57c2" stroke="#7e57c2" points="354.96,-1289.95 365.51,-1288.99 356.66,-1283.16 354.96,-1289.95"/>
</g>
<!-- archive_final_compiler -->
<g id="node62" class="node">
<title>archive_final_compiler</title>
<path fill="lightgrey" stroke="black" d="M760,-1325C760,-1325 608,-1325 608,-1325 602,-1325 596,-1319 596,-1313 596,-1313 596,-1301 596,-1301 596,-1295 602,-1289 608,-1289 608,-1289 760,-1289 760,-1289 766,-1289 772,-1295 772,-1301 772,-1301 772,-1313 772,-1313 772,-1319 766,-1325 760,-1325"/>
<text text-anchor="middle" x="684" y="-1303.3" font-family="Times,serif" font-size="14.00" fill="white">archive_final_compiler</text>
</g>
<!-- archive_champion_logic&#45;&gt;archive_final_compiler -->
<g id="edge75" class="edge">
<title>archive_champion_logic&#45;&gt;archive_final_compiler</title>
<path fill="none" stroke="#7e57c2" d="M521.59,-1271.06C544.24,-1276.1 568.99,-1281.61 592.17,-1286.77"/>
<polygon fill="#7e57c2" stroke="#7e57c2" points="591.47,-1290.2 601.99,-1288.96 592.99,-1283.37 591.47,-1290.2"/>
</g>
<!-- archive_final_librarian -->
<g id="node63" class="node">
<title>archive_final_librarian</title>
<path fill="lightgrey" stroke="black" d="M759.5,-1217C759.5,-1217 608.5,-1217 608.5,-1217 602.5,-1217 596.5,-1211 596.5,-1205 596.5,-1205 596.5,-1193 596.5,-1193 596.5,-1187 602.5,-1181 608.5,-1181 608.5,-1181 759.5,-1181 759.5,-1181 765.5,-1181 771.5,-1187 771.5,-1193 771.5,-1193 771.5,-1205 771.5,-1205 771.5,-1211 765.5,-1217 759.5,-1217"/>
<text text-anchor="middle" x="684" y="-1195.3" font-family="Times,serif" font-size="14.00" fill="white">archive_final_librarian</text>
</g>
<!-- archive_champion_logic&#45;&gt;archive_final_librarian -->
<g id="edge76" class="edge">
<title>archive_champion_logic&#45;&gt;archive_final_librarian</title>
<path fill="none" stroke="#7e57c2" d="M521.59,-1234.94C544.24,-1229.9 568.99,-1224.39 592.17,-1219.23"/>
<polygon fill="#7e57c2" stroke="#7e57c2" points="592.99,-1222.63 601.99,-1217.04 591.47,-1215.8 592.99,-1222.63"/>
</g>
<!-- archive_champion_index&#45;&gt;archive_final_librarian -->
<g id="edge77" class="edge">
<title>archive_champion_index&#45;&gt;archive_final_librarian</title>
<path fill="none" stroke="#7e57c2" d="M535.3,-1199C551.91,-1199 569.22,-1199 585.89,-1199"/>
<polygon fill="#7e57c2" stroke="#7e57c2" points="586.18,-1202.5 596.18,-1199 586.18,-1195.5 586.18,-1202.5"/>
</g>
<!-- archive_final_corrupt -->
<g id="node64" class="node">
<title>archive_final_corrupt</title>
<path fill="lightgrey" stroke="black" d="M755.5,-1271C755.5,-1271 612.5,-1271 612.5,-1271 606.5,-1271 600.5,-1265 600.5,-1259 600.5,-1259 600.5,-1247 600.5,-1247 600.5,-1241 606.5,-1235 612.5,-1235 612.5,-1235 755.5,-1235 755.5,-1235 761.5,-1235 767.5,-1241 767.5,-1247 767.5,-1247 767.5,-1259 767.5,-1259 767.5,-1265 761.5,-1271 755.5,-1271"/>
<text text-anchor="middle" x="684" y="-1249.3" font-family="Times,serif" font-size="14.00" fill="white">archive_final_corrupt</text>
</g>
<!-- archive_champion_index&#45;&gt;archive_final_corrupt -->
<g id="edge78" class="edge">
<title>archive_champion_index&#45;&gt;archive_final_corrupt</title>
<path fill="none" stroke="#7e57c2" d="M521.59,-1217.06C544.24,-1222.1 568.99,-1227.61 592.17,-1232.77"/>
<polygon fill="#7e57c2" stroke="#7e57c2" points="591.47,-1236.2 601.99,-1234.96 592.99,-1229.37 591.47,-1236.2"/>
</g>
<!-- archive_champion_fragment&#45;&gt;archive_final_compiler -->
<g id="edge80" class="edge">
<title>archive_champion_fragment&#45;&gt;archive_final_compiler</title>
<path fill="none" stroke="#7e57c2" d="M548.63,-1307C560.96,-1307 573.48,-1307 585.66,-1307"/>
<polygon fill="#7e57c2" stroke="#7e57c2" points="585.81,-1310.5 595.81,-1307 585.81,-1303.5 585.81,-1310.5"/>
</g>
<!-- archive_champion_fragment&#45;&gt;archive_final_corrupt -->
<g id="edge79" class="edge">
<title>archive_champion_fragment&#45;&gt;archive_final_corrupt</title>
<path fill="none" stroke="#7e57c2" d="M521.59,-1288.94C544.24,-1283.9 568.99,-1278.39 592.17,-1273.23"/>
<polygon fill="#7e57c2" stroke="#7e57c2" points="592.99,-1276.63 601.99,-1271.04 591.47,-1269.8 592.99,-1276.63"/>
</g>
<!-- echo_baby -->
<g id="node65" class="node">
<title>echo_baby</title>
<path fill="#ba68c8" stroke="black" d="M95.5,-1433C95.5,-1433 28.5,-1433 28.5,-1433 22.5,-1433 16.5,-1427 16.5,-1421 16.5,-1421 16.5,-1409 16.5,-1409 16.5,-1403 22.5,-1397 28.5,-1397 28.5,-1397 95.5,-1397 95.5,-1397 101.5,-1397 107.5,-1403 107.5,-1409 107.5,-1409 107.5,-1421 107.5,-1421 107.5,-1427 101.5,-1433 95.5,-1433"/>
<text text-anchor="middle" x="62" y="-1411.3" font-family="Times,serif" font-size="14.00">echo_baby</text>
</g>
<!-- echo_rookie -->
<g id="node66" class="node">
<title>echo_rookie</title>
<path fill="#ba68c8" stroke="black" d="M265.5,-1433C265.5,-1433 188.5,-1433 188.5,-1433 182.5,-1433 176.5,-1427 176.5,-1421 176.5,-1421 176.5,-1409 176.5,-1409 176.5,-1403 182.5,-1397 188.5,-1397 188.5,-1397 265.5,-1397 265.5,-1397 271.5,-1397 277.5,-1403 277.5,-1409 277.5,-1409 277.5,-1421 277.5,-1421 277.5,-1427 271.5,-1433 265.5,-1433"/>
<text text-anchor="middle" x="227" y="-1411.3" font-family="Times,serif" font-size="14.00">echo_rookie</text>
</g>
<!-- echo_baby&#45;&gt;echo_rookie -->
<g id="edge81" class="edge">
<title>echo_baby&#45;&gt;echo_rookie</title>
<path fill="none" stroke="black" d="M107.54,-1415C125.6,-1415 146.73,-1415 166.1,-1415"/>
<polygon fill="black" stroke="black" points="166.35,-1418.5 176.35,-1415 166.35,-1411.5 166.35,-1418.5"/>
</g>
<!-- echo_champion_resonate -->
<g id="node67" class="node">
<title>echo_champion_resonate</title>
<path fill="#ba68c8" stroke="black" d="M524.5,-1487C524.5,-1487 354.5,-1487 354.5,-1487 348.5,-1487 342.5,-1481 342.5,-1475 342.5,-1475 342.5,-1463 342.5,-1463 342.5,-1457 348.5,-1451 354.5,-1451 354.5,-1451 524.5,-1451 524.5,-1451 530.5,-1451 536.5,-1457 536.5,-1463 536.5,-1463 536.5,-1475 536.5,-1475 536.5,-1481 530.5,-1487 524.5,-1487"/>
<text text-anchor="middle" x="439.5" y="-1465.3" font-family="Times,serif" font-size="14.00">echo_champion_resonate</text>
</g>
<!-- echo_rookie&#45;&gt;echo_champion_resonate -->
<g id="edge82" class="edge">
<title>echo_rookie&#45;&gt;echo_champion_resonate</title>
<path fill="none" stroke="#7e57c2" d="M277.51,-1428.26C294.17,-1432.69 312.88,-1437.6 330,-1442 338.33,-1444.14 347.03,-1446.35 355.72,-1448.54"/>
<polygon fill="#7e57c2" stroke="#7e57c2" points="354.96,-1451.95 365.51,-1450.99 356.66,-1445.16 354.96,-1451.95"/>
</g>
<!-- echo_champion_reverb -->
<g id="node68" class="node">
<title>echo_champion_reverb</title>
<path fill="#ba68c8" stroke="black" d="M517,-1433C517,-1433 362,-1433 362,-1433 356,-1433 350,-1427 350,-1421 350,-1421 350,-1409 350,-1409 350,-1403 356,-1397 362,-1397 362,-1397 517,-1397 517,-1397 523,-1397 529,-1403 529,-1409 529,-1409 529,-1421 529,-1421 529,-1427 523,-1433 517,-1433"/>
<text text-anchor="middle" x="439.5" y="-1411.3" font-family="Times,serif" font-size="14.00">echo_champion_reverb</text>
</g>
<!-- echo_rookie&#45;&gt;echo_champion_reverb -->
<g id="edge83" class="edge">
<title>echo_rookie&#45;&gt;echo_champion_reverb</title>
<path fill="none" stroke="#7e57c2" d="M277.62,-1415C296.19,-1415 318.01,-1415 339.48,-1415"/>
<polygon fill="#7e57c2" stroke="#7e57c2" points="339.64,-1418.5 349.64,-1415 339.64,-1411.5 339.64,-1418.5"/>
</g>
<!-- echo_champion_distort -->
<g id="node69" class="node">
<title>echo_champion_distort</title>
<path fill="#ba68c8" stroke="black" d="M517.5,-1379C517.5,-1379 361.5,-1379 361.5,-1379 355.5,-1379 349.5,-1373 349.5,-1367 349.5,-1367 349.5,-1355 349.5,-1355 349.5,-1349 355.5,-1343 361.5,-1343 361.5,-1343 517.5,-1343 517.5,-1343 523.5,-1343 529.5,-1349 529.5,-1355 529.5,-1355 529.5,-1367 529.5,-1367 529.5,-1373 523.5,-1379 517.5,-1379"/>
<text text-anchor="middle" x="439.5" y="-1357.3" font-family="Times,serif" font-size="14.00">echo_champion_distort</text>
</g>
<!-- echo_rookie&#45;&gt;echo_champion_distort -->
<g id="edge84" class="edge">
<title>echo_rookie&#45;&gt;echo_champion_distort</title>
<path fill="none" stroke="#7e57c2" d="M277.51,-1401.74C294.17,-1397.31 312.88,-1392.4 330,-1388 338.33,-1385.86 347.03,-1383.65 355.72,-1381.46"/>
<polygon fill="#7e57c2" stroke="#7e57c2" points="356.66,-1384.84 365.51,-1379.01 354.96,-1378.05 356.66,-1384.84"/>
</g>
<!-- echo_final_harmonic -->
<g id="node70" class="node">
<title>echo_final_harmonic</title>
<path fill="lightgrey" stroke="black" d="M752.5,-1460C752.5,-1460 615.5,-1460 615.5,-1460 609.5,-1460 603.5,-1454 603.5,-1448 603.5,-1448 603.5,-1436 603.5,-1436 603.5,-1430 609.5,-1424 615.5,-1424 615.5,-1424 752.5,-1424 752.5,-1424 758.5,-1424 764.5,-1430 764.5,-1436 764.5,-1436 764.5,-1448 764.5,-1448 764.5,-1454 758.5,-1460 752.5,-1460"/>
<text text-anchor="middle" x="684" y="-1438.3" font-family="Times,serif" font-size="14.00" fill="white">echo_final_harmonic</text>
</g>
<!-- echo_champion_resonate&#45;&gt;echo_final_harmonic -->
<g id="edge85" class="edge">
<title>echo_champion_resonate&#45;&gt;echo_final_harmonic</title>
<path fill="none" stroke="#7e57c2" d="M536.69,-1458.29C555.32,-1456.22 574.78,-1454.05 593.2,-1452"/>
<polygon fill="#7e57c2" stroke="#7e57c2" points="593.76,-1455.46 603.31,-1450.87 592.99,-1448.5 593.76,-1455.46"/>
</g>
<!-- echo_final_feedback -->
<g id="node71" class="node">
<title>echo_final_feedback</title>
<path fill="lightgrey" stroke="black" d="M751,-1406C751,-1406 617,-1406 617,-1406 611,-1406 605,-1400 605,-1394 605,-1394 605,-1382 605,-1382 605,-1376 611,-1370 617,-1370 617,-1370 751,-1370 751,-1370 757,-1370 763,-1376 763,-1382 763,-1382 763,-1394 763,-1394 763,-1400 757,-1406 751,-1406"/>
<text text-anchor="middle" x="684" y="-1384.3" font-family="Times,serif" font-size="14.00" fill="white">echo_final_feedback</text>
</g>
<!-- echo_champion_resonate&#45;&gt;echo_final_feedback -->
<g id="edge86" class="edge">
<title>echo_champion_resonate&#45;&gt;echo_final_feedback</title>
<path fill="none" stroke="#7e57c2" d="M526.62,-1450.99C534.33,-1448.36 541.9,-1445.37 549,-1442 567.06,-1433.41 567.05,-1423.81 585,-1415 588.83,-1413.12 592.81,-1411.35 596.89,-1409.7"/>
<polygon fill="#7e57c2" stroke="#7e57c2" points="598.42,-1412.86 606.51,-1406.03 595.92,-1406.32 598.42,-1412.86"/>
</g>
<!-- echo_champion_reverb&#45;&gt;echo_final_harmonic -->
<g id="edge88" class="edge">
<title>echo_champion_reverb&#45;&gt;echo_final_harmonic</title>
<path fill="none" stroke="#7e57c2" d="M529.08,-1424.86C550.01,-1427.19 572.34,-1429.68 593.32,-1432.01"/>
<polygon fill="#7e57c2" stroke="#7e57c2" points="593.17,-1435.52 603.49,-1433.15 593.94,-1428.56 593.17,-1435.52"/>
</g>
<!-- echo_champion_reverb&#45;&gt;echo_final_feedback -->
<g id="edge87" class="edge">
<title>echo_champion_reverb&#45;&gt;echo_final_feedback</title>
<path fill="none" stroke="#7e57c2" d="M529.08,-1405.14C550.45,-1402.76 573.29,-1400.22 594.65,-1397.84"/>
<polygon fill="#7e57c2" stroke="#7e57c2" points="595.13,-1401.31 604.68,-1396.72 594.36,-1394.35 595.13,-1401.31"/>
</g>
<!-- echo_champion_distort&#45;&gt;echo_final_harmonic -->
<g id="edge90" class="edge">
<title>echo_champion_distort&#45;&gt;echo_final_harmonic</title>
<path fill="none" stroke="#7e57c2" d="M526.62,-1379.01C534.33,-1381.64 541.9,-1384.63 549,-1388 567.06,-1396.59 567.05,-1406.19 585,-1415 588.83,-1416.88 592.81,-1418.65 596.89,-1420.3"/>
<polygon fill="#7e57c2" stroke="#7e57c2" points="595.92,-1423.68 606.51,-1423.97 598.42,-1417.14 595.92,-1423.68"/>
</g>
<!-- echo_champion_distort&#45;&gt;echo_final_feedback -->
<g id="edge89" class="edge">
<title>echo_champion_distort&#45;&gt;echo_final_feedback</title>
<path fill="none" stroke="#7e57c2" d="M529.76,-1370.94C550.89,-1373.29 573.4,-1375.8 594.49,-1378.15"/>
<polygon fill="#7e57c2" stroke="#7e57c2" points="594.39,-1381.66 604.72,-1379.28 595.17,-1374.7 594.39,-1381.66"/>
</g>
<!-- codeborn_baby -->
<g id="node72" class="node">
<title>codeborn_baby</title>
<path fill="#e0e0e0" stroke="black" d="M112,-1541C112,-1541 12,-1541 12,-1541 6,-1541 0,-1535 0,-1529 0,-1529 0,-1517 0,-1517 0,-1511 6,-1505 12,-1505 12,-1505 112,-1505 112,-1505 118,-1505 124,-1511 124,-1517 124,-1517 124,-1529 124,-1529 124,-1535 118,-1541 112,-1541"/>
<text text-anchor="middle" x="62" y="-1519.3" font-family="Times,serif" font-size="14.00">codeborn_baby</text>
</g>
<!-- codeborn_rookie -->
<g id="node73" class="node">
<title>codeborn_rookie</title>
<path fill="#e0e0e0" stroke="black" d="M282,-1541C282,-1541 172,-1541 172,-1541 166,-1541 160,-1535 160,-1529 160,-1529 160,-1517 160,-1517 160,-1511 166,-1505 172,-1505 172,-1505 282,-1505 282,-1505 288,-1505 294,-1511 294,-1517 294,-1517 294,-1529 294,-1529 294,-1535 288,-1541 282,-1541"/>
<text text-anchor="middle" x="227" y="-1519.3" font-family="Times,serif" font-size="14.00">codeborn_rookie</text>
</g>
<!-- codeborn_baby&#45;&gt;codeborn_rookie -->
<g id="edge91" class="edge">
<title>codeborn_baby&#45;&gt;codeborn_rookie</title>
<path fill="none" stroke="black" d="M124.16,-1523C132.53,-1523 141.22,-1523 149.82,-1523"/>
<polygon fill="black" stroke="black" points="149.86,-1526.5 159.86,-1523 149.86,-1519.5 149.86,-1526.5"/>
</g>
<!-- codeborn_champion -->
<g id="node74" class="node">
<title>codeborn_champion</title>
<path fill="#e0e0e0" stroke="black" d="M506.5,-1541C506.5,-1541 372.5,-1541 372.5,-1541 366.5,-1541 360.5,-1535 360.5,-1529 360.5,-1529 360.5,-1517 360.5,-1517 360.5,-1511 366.5,-1505 372.5,-1505 372.5,-1505 506.5,-1505 506.5,-1505 512.5,-1505 518.5,-1511 518.5,-1517 518.5,-1517 518.5,-1529 518.5,-1529 518.5,-1535 512.5,-1541 506.5,-1541"/>
<text text-anchor="middle" x="439.5" y="-1519.3" font-family="Times,serif" font-size="14.00">codeborn_champion</text>
</g>
<!-- codeborn_rookie&#45;&gt;codeborn_champion -->
<g id="edge92" class="edge">
<title>codeborn_rookie&#45;&gt;codeborn_champion</title>
<path fill="none" stroke="black" d="M294.03,-1523C311.81,-1523 331.34,-1523 350.13,-1523"/>
<polygon fill="black" stroke="black" points="350.17,-1526.5 360.17,-1523 350.17,-1519.5 350.17,-1526.5"/>
</g>
<!-- codeborn_final -->
<g id="node75" class="node">
<title>codeborn_final</title>
<path fill="lightgrey" stroke="black" d="M732,-1541C732,-1541 636,-1541 636,-1541 630,-1541 624,-1535 624,-1529 624,-1529 624,-1517 624,-1517 624,-1511 630,-1505 636,-1505 636,-1505 732,-1505 732,-1505 738,-1505 744,-1511 744,-1517 744,-1517 744,-1529 744,-1529 744,-1535 738,-1541 732,-1541"/>
<text text-anchor="middle" x="684" y="-1519.3" font-family="Times,serif" font-size="14.00" fill="white">codeborn_final</text>
</g>
<!-- codeborn_champion&#45;&gt;codeborn_final -->
<g id="edge93" class="edge">
<title>codeborn_champion&#45;&gt;codeborn_final</title>
<path fill="none" stroke="black" d="M518.56,-1523C549.16,-1523 583.97,-1523 613.66,-1523"/>
<polygon fill="black" stroke="black" points="613.93,-1526.5 623.93,-1523 613.93,-1519.5 613.93,-1526.5"/>
</g>
<!-- cloud_baby -->
<g id="node76" class="node">
<title>cloud_baby</title>
<path fill="#90caf9" stroke="black" d="M98,-1649C98,-1649 26,-1649 26,-1649 20,-1649 14,-1643 14,-1637 14,-1637 14,-1625 14,-1625 14,-1619 20,-1613 26,-1613 26,-1613 98,-1613 98,-1613 104,-1613 110,-1619 110,-1625 110,-1625 110,-1637 110,-1637 110,-1643 104,-1649 98,-1649"/>
<text text-anchor="middle" x="62" y="-1627.3" font-family="Times,serif" font-size="14.00">cloud_baby</text>
</g>
<!-- cloud_rookie -->
<g id="node77" class="node">
<title>cloud_rookie</title>
<path fill="#90caf9" stroke="black" d="M268,-1649C268,-1649 186,-1649 186,-1649 180,-1649 174,-1643 174,-1637 174,-1637 174,-1625 174,-1625 174,-1619 180,-1613 186,-1613 186,-1613 268,-1613 268,-1613 274,-1613 280,-1619 280,-1625 280,-1625 280,-1637 280,-1637 280,-1643 274,-1649 268,-1649"/>
<text text-anchor="middle" x="227" y="-1627.3" font-family="Times,serif" font-size="14.00">cloud_rookie</text>
</g>
<!-- cloud_baby&#45;&gt;cloud_rookie -->
<g id="edge94" class="edge">
<title>cloud_baby&#45;&gt;cloud_rookie</title>
<path fill="none" stroke="black" d="M110.15,-1631C126.81,-1631 145.82,-1631 163.55,-1631"/>
<polygon fill="black" stroke="black" points="163.82,-1634.5 173.82,-1631 163.82,-1627.5 163.82,-1634.5"/>
</g>
<!-- cloud_champion_wind -->
<g id="node78" class="node">
<title>cloud_champion_wind</title>
<path fill="#90caf9" stroke="black" d="M513.5,-1649C513.5,-1649 365.5,-1649 365.5,-1649 359.5,-1649 353.5,-1643 353.5,-1637 353.5,-1637 353.5,-1625 353.5,-1625 353.5,-1619 359.5,-1613 365.5,-1613 365.5,-1613 513.5,-1613 513.5,-1613 519.5,-1613 525.5,-1619 525.5,-1625 525.5,-1625 525.5,-1637 525.5,-1637 525.5,-1643 519.5,-1649 513.5,-1649"/>
<text text-anchor="middle" x="439.5" y="-1627.3" font-family="Times,serif" font-size="14.00">cloud_champion_wind</text>
</g>
<!-- cloud_rookie&#45;&gt;cloud_champion_wind -->
<g id="edge95" class="edge">
<title>cloud_rookie&#45;&gt;cloud_champion_wind</title>
<path fill="none" stroke="#7e57c2" d="M280.03,-1631C299.16,-1631 321.47,-1631 343.21,-1631"/>
<polygon fill="#7e57c2" stroke="#7e57c2" points="343.48,-1634.5 353.48,-1631 343.48,-1627.5 343.48,-1634.5"/>
</g>
<!-- cloud_champion_rain -->
<g id="node79" class="node">
<title>cloud_champion_rain</title>
<path fill="#90caf9" stroke="black" d="M510.5,-1595C510.5,-1595 368.5,-1595 368.5,-1595 362.5,-1595 356.5,-1589 356.5,-1583 356.5,-1583 356.5,-1571 356.5,-1571 356.5,-1565 362.5,-1559 368.5,-1559 368.5,-1559 510.5,-1559 510.5,-1559 516.5,-1559 522.5,-1565 522.5,-1571 522.5,-1571 522.5,-1583 522.5,-1583 522.5,-1589 516.5,-1595 510.5,-1595"/>
<text text-anchor="middle" x="439.5" y="-1573.3" font-family="Times,serif" font-size="14.00">cloud_champion_rain</text>
</g>
<!-- cloud_rookie&#45;&gt;cloud_champion_rain -->
<g id="edge96" class="edge">
<title>cloud_rookie&#45;&gt;cloud_champion_rain</title>
<path fill="none" stroke="#7e57c2" d="M280.11,-1617.05C296.11,-1612.81 313.77,-1608.17 330,-1604 338.33,-1601.86 347.03,-1599.65 355.72,-1597.46"/>
<polygon fill="#7e57c2" stroke="#7e57c2" points="356.66,-1600.84 365.51,-1595.01 354.96,-1594.05 356.66,-1600.84"/>
</g>
<!-- cloud_champion_storm -->
<g id="node80" class="node">
<title>cloud_champion_storm</title>
<path fill="#90caf9" stroke="black" d="M517,-1703C517,-1703 362,-1703 362,-1703 356,-1703 350,-1697 350,-1691 350,-1691 350,-1679 350,-1679 350,-1673 356,-1667 362,-1667 362,-1667 517,-1667 517,-1667 523,-1667 529,-1673 529,-1679 529,-1679 529,-1691 529,-1691 529,-1697 523,-1703 517,-1703"/>
<text text-anchor="middle" x="439.5" y="-1681.3" font-family="Times,serif" font-size="14.00">cloud_champion_storm</text>
</g>
<!-- cloud_rookie&#45;&gt;cloud_champion_storm -->
<g id="edge97" class="edge">
<title>cloud_rookie&#45;&gt;cloud_champion_storm</title>
<path fill="none" stroke="#7e57c2" d="M280.11,-1644.95C296.11,-1649.19 313.77,-1653.83 330,-1658 338.33,-1660.14 347.03,-1662.35 355.72,-1664.54"/>
<polygon fill="#7e57c2" stroke="#7e57c2" points="354.96,-1667.95 365.51,-1666.99 356.66,-1661.16 354.96,-1667.95"/>
</g>
<!-- cloud_final_jetstream -->
<g id="node81" class="node">
<title>cloud_final_jetstream</title>
<path fill="lightgrey" stroke="black" d="M756,-1703C756,-1703 612,-1703 612,-1703 606,-1703 600,-1697 600,-1691 600,-1691 600,-1679 600,-1679 600,-1673 606,-1667 612,-1667 612,-1667 756,-1667 756,-1667 762,-1667 768,-1673 768,-1679 768,-1679 768,-1691 768,-1691 768,-1697 762,-1703 756,-1703"/>
<text text-anchor="middle" x="684" y="-1681.3" font-family="Times,serif" font-size="14.00" fill="white">cloud_final_jetstream</text>
</g>
<!-- cloud_champion_wind&#45;&gt;cloud_final_jetstream -->
<g id="edge98" class="edge">
<title>cloud_champion_wind&#45;&gt;cloud_final_jetstream</title>
<path fill="none" stroke="#7e57c2" d="M521.59,-1649.06C544.24,-1654.1 568.99,-1659.61 592.17,-1664.77"/>
<polygon fill="#7e57c2" stroke="#7e57c2" points="591.47,-1668.2 601.99,-1666.96 592.99,-1661.37 591.47,-1668.2"/>
</g>
<!-- cloud_final_halo -->
<g id="node82" class="node">
<title>cloud_final_halo</title>
<path fill="lightgrey" stroke="black" d="M736.5,-1595C736.5,-1595 631.5,-1595 631.5,-1595 625.5,-1595 619.5,-1589 619.5,-1583 619.5,-1583 619.5,-1571 619.5,-1571 619.5,-1565 625.5,-1559 631.5,-1559 631.5,-1559 736.5,-1559 736.5,-1559 742.5,-1559 748.5,-1565 748.5,-1571 748.5,-1571 748.5,-1583 748.5,-1583 748.5,-1589 742.5,-1595 736.5,-1595"/>
<text text-anchor="middle" x="684" y="-1573.3" font-family="Times,serif" font-size="14.00" fill="white">cloud_final_halo</text>
</g>
<!-- cloud_champion_wind&#45;&gt;cloud_final_halo -->
<g id="edge99" class="edge">
<title>cloud_champion_wind&#45;&gt;cloud_final_halo</title>
<path fill="none" stroke="#7e57c2" d="M521.59,-1612.94C549.91,-1606.64 581.54,-1599.59 609.24,-1593.43"/>
<polygon fill="#7e57c2" stroke="#7e57c2" points="610.25,-1596.79 619.25,-1591.2 608.73,-1589.95 610.25,-1596.79"/>
</g>
<!-- cloud_champion_rain&#45;&gt;cloud_final_halo -->
<g id="edge100" class="edge">
<title>cloud_champion_rain&#45;&gt;cloud_final_halo</title>
<path fill="none" stroke="#7e57c2" d="M522.6,-1577C550.62,-1577 581.77,-1577 609.11,-1577"/>
<polygon fill="#7e57c2" stroke="#7e57c2" points="609.39,-1580.5 619.39,-1577 609.38,-1573.5 609.39,-1580.5"/>
</g>
<!-- cloud_final_tempest -->
<g id="node83" class="node">
<title>cloud_final_tempest</title>
<path fill="lightgrey" stroke="black" d="M751,-1649C751,-1649 617,-1649 617,-1649 611,-1649 605,-1643 605,-1637 605,-1637 605,-1625 605,-1625 605,-1619 611,-1613 617,-1613 617,-1613 751,-1613 751,-1613 757,-1613 763,-1619 763,-1625 763,-1625 763,-1637 763,-1637 763,-1643 757,-1649 751,-1649"/>
<text text-anchor="middle" x="684" y="-1627.3" font-family="Times,serif" font-size="14.00" fill="white">cloud_final_tempest</text>
</g>
<!-- cloud_champion_rain&#45;&gt;cloud_final_tempest -->
<g id="edge101" class="edge">
<title>cloud_champion_rain&#45;&gt;cloud_final_tempest</title>
<path fill="none" stroke="#7e57c2" d="M521.59,-1595.06C545.18,-1600.31 571.07,-1606.08 595.07,-1611.42"/>
<polygon fill="#7e57c2" stroke="#7e57c2" points="594.35,-1614.84 604.87,-1613.6 595.87,-1608.01 594.35,-1614.84"/>
</g>
<!-- cloud_champion_storm&#45;&gt;cloud_final_jetstream -->
<g id="edge103" class="edge">
<title>cloud_champion_storm&#45;&gt;cloud_final_jetstream</title>
<path fill="none" stroke="#7e57c2" d="M529.08,-1685C548.87,-1685 569.92,-1685 589.89,-1685"/>
<polygon fill="#7e57c2" stroke="#7e57c2" points="589.91,-1688.5 599.91,-1685 589.91,-1681.5 589.91,-1688.5"/>
</g>
<!-- cloud_champion_storm&#45;&gt;cloud_final_tempest -->
<g id="edge102" class="edge">
<title>cloud_champion_storm&#45;&gt;cloud_final_tempest</title>
<path fill="none" stroke="#7e57c2" d="M521.59,-1666.94C545.18,-1661.69 571.07,-1655.92 595.07,-1650.58"/>
<polygon fill="#7e57c2" stroke="#7e57c2" points="595.87,-1653.99 604.87,-1648.4 594.35,-1647.16 595.87,-1653.99"/>
</g>
</g>
</svg>
