<?xml version="1.0" encoding="UTF-8" standalone="no"?>
<!DOCTYPE svg PUBLIC "-//W3C//DTD SVG 1.1//EN"
 "http://www.w3.org/Graphics/SVG/1.1/DTD/svg11.dtd">
<!-- Generated by graphviz version 2.43.0 (0)
 -->
<!-- Title: EvolutionTree Pages: 1 -->
<svg width="791pt" height="1785pt"
 viewBox="0.00 0.00 791.00 1785.00" xmlns="http://www.w3.org/2000/svg" xmlns:xlink="http://www.w3.org/1999/xlink">
<g id="graph0" class="graph" transform="scale(1 1) rotate(0) translate(4 1781)">
<title>EvolutionTree</title>
<polygon fill="#1e1e1e" stroke="transparent" points="-4,4 -4,-1781 787,-1781 787,4 -4,4"/>
<!-- pulse_baby -->
<g id="node1" class="node">
<title>pulse_baby</title>
<path fill="#f06292" stroke="black" d="M98,-90C98,-90 26,-90 26,-90 20,-90 14,-84 14,-78 14,-78 14,-66 14,-66 14,-60 20,-54 26,-54 26,-54 98,-54 98,-54 104,-54 110,-60 110,-66 110,-66 110,-78 110,-78 110,-84 104,-90 98,-90"/>
<text text-anchor="middle" x="62" y="-68.3" font-family="Times,serif" font-size="14.00">pulse_baby</text>
</g>
<!-- pulse_rookie -->
<g id="node2" class="node">
<title>pulse_rookie</title>
<path fill="#f06292" stroke="black" d="M268,-90C268,-90 186,-90 186,-90 180,-90 174,-84 174,-78 174,-78 174,-66 174,-66 174,-60 180,-54 186,-54 186,-54 268,-54 268,-54 274,-54 280,-60 280,-66 280,-66 280,-78 280,-78 280,-84 274,-90 268,-90"/>
<text text-anchor="middle" x="227" y="-68.3" font-family="Times,serif" font-size="14.00">pulse_rookie</text>
</g>
<!-- pulse_baby&#45;&gt;pulse_rookie -->
<g id="edge1" class="edge">
<title>pulse_baby&#45;&gt;pulse_rookie</title>
<path fill="none" stroke="black" d="M110.15,-72C126.81,-72 145.82,-72 163.55,-72"/>
<polygon fill="black" stroke="black" points="163.82,-75.5 173.82,-72 163.82,-68.5 163.82,-75.5"/>
</g>
<!-- pulse_champion_surge -->
<g id="node3" class="node">
<title>pulse_champion_surge</title>
<path fill="#f06292" stroke="black" d="M516.5,-90C516.5,-90 362.5,-90 362.5,-90 356.5,-90 350.5,-84 350.5,-78 350.5,-78 350.5,-66 350.5,-66 350.5,-60 356.5,-54 362.5,-54 362.5,-54 516.5,-54 516.5,-54 522.5,-54 528.5,-60 528.5,-66 528.5,-66 528.5,-78 528.5,-78 528.5,-84 522.5,-90 516.5,-90"/>
<text text-anchor="middle" x="439.5" y="-68.3" font-family="Times,serif" font-size="14.00">pulse_champion_surge</text>
</g>
<!-- pulse_rookie&#45;&gt;pulse_champion_surge -->
<g id="edge2" class="edge">
<title>pulse_rookie&#45;&gt;pulse_champion_surge</title>
<path fill="none" stroke="#7e57c2" d="M280.03,-72C298.24,-72 319.33,-72 340.06,-72"/>
<polygon fill="#7e57c2" stroke="#7e57c2" points="340.2,-75.5 350.2,-72 340.2,-68.5 340.2,-75.5"/>
</g>
<!-- pulse_champion_resonance -->
<g id="node4" class="node">
<title>pulse_champion_resonance</title>
<path fill="#f06292" stroke="black" d="M532.5,-36C532.5,-36 346.5,-36 346.5,-36 340.5,-36 334.5,-30 334.5,-24 334.5,-24 334.5,-12 334.5,-12 334.5,-6 340.5,0 346.5,0 346.5,0 532.5,0 532.5,0 538.5,0 544.5,-6 544.5,-12 544.5,-12 544.5,-24 544.5,-24 544.5,-30 538.5,-36 532.5,-36"/>
<text text-anchor="middle" x="439.5" y="-14.3" font-family="Times,serif" font-size="14.00">pulse_champion_resonance</text>
</g>
<!-- pulse_rookie&#45;&gt;pulse_champion_resonance -->
<g id="edge3" class="edge">
<title>pulse_rookie&#45;&gt;pulse_champion_resonance</title>
<path fill="none" stroke="#7e57c2" d="M280.11,-58.05C296.11,-53.81 313.77,-49.17 330,-45 338.33,-42.86 347.03,-40.65 355.72,-38.46"/>
<polygon fill="#7e57c2" stroke="#7e57c2" points="356.66,-41.84 365.51,-36.01 354.96,-35.05 356.66,-41.84"/>
</g>
<!-- pulse_champion_static -->
<g id="node5" class="node">
<title>pulse_champion_static</title>
<path fill="#f06292" stroke="black" d="M516,-144C516,-144 363,-144 363,-144 357,-144 351,-138 351,-132 351,-132 351,-120 351,-120 351,-114 357,-108 363,-108 363,-108 516,-108 516,-108 522,-108 528,-114 528,-120 528,-120 528,-132 528,-132 528,-138 522,-144 516,-144"/>
<text text-anchor="middle" x="439.5" y="-122.3" font-family="Times,serif" font-size="14.00">pulse_champion_static</text>
</g>
<!-- pulse_rookie&#45;&gt;pulse_champion_static -->
<g id="edge4" class="edge">
<title>pulse_rookie&#45;&gt;pulse_champion_static</title>
<path fill="none" stroke="#7e57c2" d="M280.11,-85.95C296.11,-90.19 313.77,-94.83 330,-99 338.33,-101.14 347.03,-103.35 355.72,-105.54"/>
<polygon fill="#7e57c2" stroke="#7e57c2" points="354.96,-108.95 365.51,-107.99 356.66,-102.16 354.96,-108.95"/>
</g>
<!-- pulse_final_overdrive -->
<g id="node6" class="node">
<title>pulse_final_overdrive</title>
<path fill="lightgrey" stroke="black" d="M755.5,-144C755.5,-144 612.5,-144 612.5,-144 606.5,-144 600.5,-138 600.5,-132 600.5,-132 600.5,-120 600.5,-120 600.5,-114 606.5,-108 612.5,-108 612.5,-108 755.5,-108 755.5,-108 761.5,-108 767.5,-114 767.5,-120 767.5,-120 767.5,-132 767.5,-132 767.5,-138 761.5,-144 755.5,-144"/>
<text text-anchor="middle" x="684" y="-122.3" font-family="Times,serif" font-size="14.00" fill="white">pulse_final_overdrive</text>
</g>
<!-- pulse_champion_surge&#45;&gt;pulse_final_overdrive -->
<g id="edge5" class="edge">
<title>pulse_champion_surge&#45;&gt;pulse_final_overdrive</title>
<path fill="none" stroke="#7e57c2" d="M521.59,-90.06C544.24,-95.1 568.99,-100.61 592.17,-105.77"/>
<polygon fill="#7e57c2" stroke="#7e57c2" points="591.47,-109.2 601.99,-107.96 592.99,-102.37 591.47,-109.2"/>
</g>
<!-- pulse_final_sync -->
<g id="node7" class="node">
<title>pulse_final_sync</title>
<path fill="lightgrey" stroke="black" d="M737.5,-36C737.5,-36 630.5,-36 630.5,-36 624.5,-36 618.5,-30 618.5,-24 618.5,-24 618.5,-12 618.5,-12 618.5,-6 624.5,0 630.5,0 630.5,0 737.5,0 737.5,0 743.5,0 749.5,-6 749.5,-12 749.5,-12 749.5,-24 749.5,-24 749.5,-30 743.5,-36 737.5,-36"/>
<text text-anchor="middle" x="684" y="-14.3" font-family="Times,serif" font-size="14.00" fill="white">pulse_final_sync</text>
</g>
<!-- pulse_champion_surge&#45;&gt;pulse_final_sync -->
<g id="edge6" class="edge">
<title>pulse_champion_surge&#45;&gt;pulse_final_sync</title>
<path fill="none" stroke="#7e57c2" d="M521.59,-53.94C549.67,-47.69 580.99,-40.72 608.52,-34.59"/>
<polygon fill="#7e57c2" stroke="#7e57c2" points="609.47,-37.96 618.47,-32.37 607.95,-31.13 609.47,-37.96"/>
</g>
<!-- pulse_champion_resonance&#45;&gt;pulse_final_sync -->
<g id="edge7" class="edge">
<title>pulse_champion_resonance&#45;&gt;pulse_final_sync</title>
<path fill="none" stroke="#7e57c2" d="M544.75,-18C566.16,-18 588.3,-18 608.41,-18"/>
<polygon fill="#7e57c2" stroke="#7e57c2" points="608.42,-21.5 618.42,-18 608.42,-14.5 608.42,-21.5"/>
</g>
<!-- pulse_final_staticstorm -->
<g id="node8" class="node">
<title>pulse_final_staticstorm</title>
<path fill="lightgrey" stroke="black" d="M762.5,-90C762.5,-90 605.5,-90 605.5,-90 599.5,-90 593.5,-84 593.5,-78 593.5,-78 593.5,-66 593.5,-66 593.5,-60 599.5,-54 605.5,-54 605.5,-54 762.5,-54 762.5,-54 768.5,-54 774.5,-60 774.5,-66 774.5,-66 774.5,-78 774.5,-78 774.5,-84 768.5,-90 762.5,-90"/>
<text text-anchor="middle" x="684" y="-68.3" font-family="Times,serif" font-size="14.00" fill="white">pulse_final_staticstorm</text>
</g>
<!-- pulse_champion_resonance&#45;&gt;pulse_final_staticstorm -->
<g id="edge8" class="edge">
<title>pulse_champion_resonance&#45;&gt;pulse_final_staticstorm</title>
<path fill="none" stroke="#7e57c2" d="M521.59,-36.06C544.24,-41.1 568.99,-46.61 592.17,-51.77"/>
<polygon fill="#7e57c2" stroke="#7e57c2" points="591.47,-55.2 601.99,-53.96 592.99,-48.37 591.47,-55.2"/>
</g>
<!-- pulse_champion_static&#45;&gt;pulse_final_overdrive -->
<g id="edge10" class="edge">
<title>pulse_champion_static&#45;&gt;pulse_final_overdrive</title>
<path fill="none" stroke="#7e57c2" d="M528.05,-126C548.24,-126 569.79,-126 590.2,-126"/>
<polygon fill="#7e57c2" stroke="#7e57c2" points="590.44,-129.5 600.44,-126 590.44,-122.5 590.44,-129.5"/>
</g>
<!-- pulse_champion_static&#45;&gt;pulse_final_staticstorm -->
<g id="edge9" class="edge">
<title>pulse_champion_static&#45;&gt;pulse_final_staticstorm</title>
<path fill="none" stroke="#7e57c2" d="M521.59,-107.94C544.24,-102.9 568.99,-97.39 592.17,-92.23"/>
<polygon fill="#7e57c2" stroke="#7e57c2" points="592.99,-95.63 601.99,-90.04 591.47,-88.8 592.99,-95.63"/>
</g>
<!-- root_baby -->
<g id="node9" class="node">
<title>root_baby</title>
<path fill="#81c784" stroke="black" d="M93.5,-279C93.5,-279 30.5,-279 30.5,-279 24.5,-279 18.5,-273 18.5,-267 18.5,-267 18.5,-255 18.5,-255 18.5,-249 24.5,-243 30.5,-243 30.5,-243 93.5,-243 93.5,-243 99.5,-243 105.5,-249 105.5,-255 105.5,-255 105.5,-267 105.5,-267 105.5,-273 99.5,-279 93.5,-279"/>
<text text-anchor="middle" x="62" y="-257.3" font-family="Times,serif" font-size="14.00">root_baby</text>
</g>
<!-- root_rookie -->
<g id="node10" class="node">
<title>root_rookie</title>
<path fill="#81c784" stroke="black" d="M263.5,-279C263.5,-279 190.5,-279 190.5,-279 184.5,-279 178.5,-273 178.5,-267 178.5,-267 178.5,-255 178.5,-255 178.5,-249 184.5,-243 190.5,-243 190.5,-243 263.5,-243 263.5,-243 269.5,-243 275.5,-249 275.5,-255 275.5,-255 275.5,-267 275.5,-267 275.5,-273 269.5,-279 263.5,-279"/>
<text text-anchor="middle" x="227" y="-257.3" font-family="Times,serif" font-size="14.00">root_rookie</text>
</g>
<!-- root_baby&#45;&gt;root_rookie -->
<g id="edge11" class="edge">
<title>root_baby&#45;&gt;root_rookie</title>
<path fill="none" stroke="black" d="M105.83,-261C124.87,-261 147.58,-261 168.1,-261"/>
<polygon fill="black" stroke="black" points="168.29,-264.5 178.29,-261 168.29,-257.5 168.29,-264.5"/>
</g>
<!-- root_champion_thorn -->
<g id="node11" class="node">
<title>root_champion_thorn</title>
<path fill="#81c784" stroke="black" d="M511,-333C511,-333 368,-333 368,-333 362,-333 356,-327 356,-321 356,-321 356,-309 356,-309 356,-303 362,-297 368,-297 368,-297 511,-297 511,-297 517,-297 523,-303 523,-309 523,-309 523,-321 523,-321 523,-327 517,-333 511,-333"/>
<text text-anchor="middle" x="439.5" y="-311.3" font-family="Times,serif" font-size="14.00">root_champion_thorn</text>
</g>
<!-- root_rookie&#45;&gt;root_champion_thorn -->
<g id="edge12" class="edge">
<title>root_rookie&#45;&gt;root_champion_thorn</title>
<path fill="none" stroke="#7e57c2" d="M275.7,-273.78C292.81,-278.33 312.26,-283.44 330,-288 338.33,-290.14 347.03,-292.35 355.72,-294.54"/>
<polygon fill="#7e57c2" stroke="#7e57c2" points="354.96,-297.95 365.51,-296.99 356.66,-291.16 354.96,-297.95"/>
</g>
<!-- root_champion_bloom -->
<g id="node12" class="node">
<title>root_champion_bloom</title>
<path fill="#81c784" stroke="black" d="M513.5,-279C513.5,-279 365.5,-279 365.5,-279 359.5,-279 353.5,-273 353.5,-267 353.5,-267 353.5,-255 353.5,-255 353.5,-249 359.5,-243 365.5,-243 365.5,-243 513.5,-243 513.5,-243 519.5,-243 525.5,-249 525.5,-255 525.5,-255 525.5,-267 525.5,-267 525.5,-273 519.5,-279 513.5,-279"/>
<text text-anchor="middle" x="439.5" y="-257.3" font-family="Times,serif" font-size="14.00">root_champion_bloom</text>
</g>
<!-- root_rookie&#45;&gt;root_champion_bloom -->
<g id="edge13" class="edge">
<title>root_rookie&#45;&gt;root_champion_bloom</title>
<path fill="none" stroke="#7e57c2" d="M275.5,-261C295.47,-261 319.44,-261 342.79,-261"/>
<polygon fill="#7e57c2" stroke="#7e57c2" points="343.1,-264.5 353.1,-261 343.1,-257.5 343.1,-264.5"/>
</g>
<!-- root_champion_bark -->
<g id="node13" class="node">
<title>root_champion_bark</title>
<path fill="#81c784" stroke="black" d="M508,-225C508,-225 371,-225 371,-225 365,-225 359,-219 359,-213 359,-213 359,-201 359,-201 359,-195 365,-189 371,-189 371,-189 508,-189 508,-189 514,-189 520,-195 520,-201 520,-201 520,-213 520,-213 520,-219 514,-225 508,-225"/>
<text text-anchor="middle" x="439.5" y="-203.3" font-family="Times,serif" font-size="14.00">root_champion_bark</text>
</g>
<!-- root_rookie&#45;&gt;root_champion_bark -->
<g id="edge14" class="edge">
<title>root_rookie&#45;&gt;root_champion_bark</title>
<path fill="none" stroke="#7e57c2" d="M275.7,-248.22C292.81,-243.67 312.26,-238.56 330,-234 338.33,-231.86 347.03,-229.65 355.72,-227.46"/>
<polygon fill="#7e57c2" stroke="#7e57c2" points="356.66,-230.84 365.51,-225.01 354.96,-224.05 356.66,-230.84"/>
</g>
<!-- root_final_bramble -->
<g id="node14" class="node">
<title>root_final_bramble</title>
<path fill="lightgrey" stroke="black" d="M746.5,-373C746.5,-373 621.5,-373 621.5,-373 615.5,-373 609.5,-367 609.5,-361 609.5,-361 609.5,-349 609.5,-349 609.5,-343 615.5,-337 621.5,-337 621.5,-337 746.5,-337 746.5,-337 752.5,-337 758.5,-343 758.5,-349 758.5,-349 758.5,-361 758.5,-361 758.5,-367 752.5,-373 746.5,-373"/>
<text text-anchor="middle" x="684" y="-351.3" font-family="Times,serif" font-size="14.00" fill="white">root_final_bramble</text>
</g>
<!-- root_champion_thorn&#45;&gt;root_final_bramble -->
<g id="edge15" class="edge">
<title>root_champion_thorn&#45;&gt;root_final_bramble</title>
<path fill="none" stroke="#7e57c2" d="M523.28,-328.65C547.76,-332.69 574.57,-337.11 599.12,-341.16"/>
<polygon fill="#7e57c2" stroke="#7e57c2" points="598.69,-344.64 609.13,-342.81 599.83,-337.73 598.69,-344.64"/>
</g>
<!-- root_final_ancient -->
<g id="node15" class="node">
<title>root_final_ancient</title>
<path fill="lightgrey" stroke="black" d="M743.5,-319C743.5,-319 624.5,-319 624.5,-319 618.5,-319 612.5,-313 612.5,-307 612.5,-307 612.5,-295 612.5,-295 612.5,-289 618.5,-283 624.5,-283 624.5,-283 743.5,-283 743.5,-283 749.5,-283 755.5,-289 755.5,-295 755.5,-295 755.5,-307 755.5,-307 755.5,-313 749.5,-319 743.5,-319"/>
<text text-anchor="middle" x="684" y="-297.3" font-family="Times,serif" font-size="14.00" fill="white">root_final_ancient</text>
</g>
<!-- root_champion_thorn&#45;&gt;root_final_ancient -->
<g id="edge16" class="edge">
<title>root_champion_thorn&#45;&gt;root_final_ancient</title>
<path fill="none" stroke="#7e57c2" d="M523.28,-310.22C548.72,-308.75 576.69,-307.14 602.01,-305.68"/>
<polygon fill="#7e57c2" stroke="#7e57c2" points="602.53,-309.15 612.32,-305.08 602.13,-302.16 602.53,-309.15"/>
</g>
<!-- root_champion_bloom&#45;&gt;root_final_ancient -->
<g id="edge17" class="edge">
<title>root_champion_bloom&#45;&gt;root_final_ancient</title>
<path fill="none" stroke="#7e57c2" d="M525.66,-275.05C550.6,-279.16 577.8,-283.65 602.45,-287.71"/>
<polygon fill="#7e57c2" stroke="#7e57c2" points="602.05,-291.19 612.48,-289.37 603.19,-284.29 602.05,-291.19"/>
</g>
<!-- root_final_verdant -->
<g id="node16" class="node">
<title>root_final_verdant</title>
<path fill="lightgrey" stroke="black" d="M745,-265C745,-265 623,-265 623,-265 617,-265 611,-259 611,-253 611,-253 611,-241 611,-241 611,-235 617,-229 623,-229 623,-229 745,-229 745,-229 751,-229 757,-235 757,-241 757,-241 757,-253 757,-253 757,-259 751,-265 745,-265"/>
<text text-anchor="middle" x="684" y="-243.3" font-family="Times,serif" font-size="14.00" fill="white">root_final_verdant</text>
</g>
<!-- root_champion_bloom&#45;&gt;root_final_verdant -->
<g id="edge18" class="edge">
<title>root_champion_bloom&#45;&gt;root_final_verdant</title>
<path fill="none" stroke="#7e57c2" d="M525.66,-256.08C550.02,-254.68 576.51,-253.15 600.7,-251.75"/>
<polygon fill="#7e57c2" stroke="#7e57c2" points="601.13,-255.23 610.91,-251.16 600.73,-248.24 601.13,-255.23"/>
</g>
<!-- root_champion_bark&#45;&gt;root_final_ancient -->
<g id="edge20" class="edge">
<title>root_champion_bark&#45;&gt;root_final_ancient</title>
<path fill="none" stroke="#7e57c2" d="M520.05,-220.92C530.18,-224.36 540.1,-228.65 549,-234 569.5,-246.32 564.65,-261.43 585,-274 590.65,-277.49 596.75,-280.54 603.06,-283.2"/>
<polygon fill="#7e57c2" stroke="#7e57c2" points="601.82,-286.47 612.41,-286.82 604.35,-279.94 601.82,-286.47"/>
</g>
<!-- root_final_warden -->
<g id="node17" class="node">
<title>root_final_warden</title>
<path fill="lightgrey" stroke="black" d="M743.5,-211C743.5,-211 624.5,-211 624.5,-211 618.5,-211 612.5,-205 612.5,-199 612.5,-199 612.5,-187 612.5,-187 612.5,-181 618.5,-175 624.5,-175 624.5,-175 743.5,-175 743.5,-175 749.5,-175 755.5,-181 755.5,-187 755.5,-187 755.5,-199 755.5,-199 755.5,-205 749.5,-211 743.5,-211"/>
<text text-anchor="middle" x="684" y="-189.3" font-family="Times,serif" font-size="14.00" fill="white">root_final_warden</text>
</g>
<!-- root_champion_bark&#45;&gt;root_final_warden -->
<g id="edge19" class="edge">
<title>root_champion_bark&#45;&gt;root_final_warden</title>
<path fill="none" stroke="#7e57c2" d="M520.24,-202.4C546.44,-200.88 575.58,-199.2 601.89,-197.68"/>
<polygon fill="#7e57c2" stroke="#7e57c2" points="602.42,-201.16 612.2,-197.09 602.01,-194.17 602.42,-201.16"/>
</g>
<!-- codeborn_baby -->
<g id="node18" class="node">
<title>codeborn_baby</title>
<path fill="#e0e0e0" stroke="black" d="M112,-427C112,-427 12,-427 12,-427 6,-427 0,-421 0,-415 0,-415 0,-403 0,-403 0,-397 6,-391 12,-391 12,-391 112,-391 112,-391 118,-391 124,-397 124,-403 124,-403 124,-415 124,-415 124,-421 118,-427 112,-427"/>
<text text-anchor="middle" x="62" y="-405.3" font-family="Times,serif" font-size="14.00">codeborn_baby</text>
</g>
<!-- codeborn_rookie -->
<g id="node19" class="node">
<title>codeborn_rookie</title>
<path fill="#e0e0e0" stroke="black" d="M282,-427C282,-427 172,-427 172,-427 166,-427 160,-421 160,-415 160,-415 160,-403 160,-403 160,-397 166,-391 172,-391 172,-391 282,-391 282,-391 288,-391 294,-397 294,-403 294,-403 294,-415 294,-415 294,-421 288,-427 282,-427"/>
<text text-anchor="middle" x="227" y="-405.3" font-family="Times,serif" font-size="14.00">codeborn_rookie</text>
</g>
<!-- codeborn_baby&#45;&gt;codeborn_rookie -->
<g id="edge21" class="edge">
<title>codeborn_baby&#45;&gt;codeborn_rookie</title>
<path fill="none" stroke="black" d="M124.16,-409C132.53,-409 141.22,-409 149.82,-409"/>
<polygon fill="black" stroke="black" points="149.86,-412.5 159.86,-409 149.86,-405.5 149.86,-412.5"/>
</g>
<!-- codeborn_champion -->
<g id="node20" class="node">
<title>codeborn_champion</title>
<path fill="#e0e0e0" stroke="black" d="M506.5,-427C506.5,-427 372.5,-427 372.5,-427 366.5,-427 360.5,-421 360.5,-415 360.5,-415 360.5,-403 360.5,-403 360.5,-397 366.5,-391 372.5,-391 372.5,-391 506.5,-391 506.5,-391 512.5,-391 518.5,-397 518.5,-403 518.5,-403 518.5,-415 518.5,-415 518.5,-421 512.5,-427 506.5,-427"/>
<text text-anchor="middle" x="439.5" y="-405.3" font-family="Times,serif" font-size="14.00">codeborn_champion</text>
</g>
<!-- codeborn_rookie&#45;&gt;codeborn_champion -->
<g id="edge22" class="edge">
<title>codeborn_rookie&#45;&gt;codeborn_champion</title>
<path fill="none" stroke="black" d="M294.03,-409C311.81,-409 331.34,-409 350.13,-409"/>
<polygon fill="black" stroke="black" points="350.17,-412.5 360.17,-409 350.17,-405.5 350.17,-412.5"/>
</g>
<!-- codeborn_final -->
<g id="node21" class="node">
<title>codeborn_final</title>
<path fill="lightgrey" stroke="black" d="M732,-427C732,-427 636,-427 636,-427 630,-427 624,-421 624,-415 624,-415 624,-403 624,-403 624,-397 630,-391 636,-391 636,-391 732,-391 732,-391 738,-391 744,-397 744,-403 744,-403 744,-415 744,-415 744,-421 738,-427 732,-427"/>
<text text-anchor="middle" x="684" y="-405.3" font-family="Times,serif" font-size="14.00" fill="white">codeborn_final</text>
</g>
<!-- codeborn_champion&#45;&gt;codeborn_final -->
<g id="edge23" class="edge">
<title>codeborn_champion&#45;&gt;codeborn_final</title>
<path fill="none" stroke="black" d="M518.56,-409C549.16,-409 583.97,-409 613.66,-409"/>
<polygon fill="black" stroke="black" points="613.93,-412.5 623.93,-409 613.93,-405.5 613.93,-412.5"/>
</g>
<!-- dream_baby -->
<g id="node22" class="node">
<title>dream_baby</title>
<path fill="#9575cd" stroke="black" d="M102,-535C102,-535 22,-535 22,-535 16,-535 10,-529 10,-523 10,-523 10,-511 10,-511 10,-505 16,-499 22,-499 22,-499 102,-499 102,-499 108,-499 114,-505 114,-511 114,-511 114,-523 114,-523 114,-529 108,-535 102,-535"/>
<text text-anchor="middle" x="62" y="-513.3" font-family="Times,serif" font-size="14.00">dream_baby</text>
</g>
<!-- dream_rookie -->
<g id="node23" class="node">
<title>dream_rookie</title>
<path fill="#9575cd" stroke="black" d="M271.5,-535C271.5,-535 182.5,-535 182.5,-535 176.5,-535 170.5,-529 170.5,-523 170.5,-523 170.5,-511 170.5,-511 170.5,-505 176.5,-499 182.5,-499 182.5,-499 271.5,-499 271.5,-499 277.5,-499 283.5,-505 283.5,-511 283.5,-511 283.5,-523 283.5,-523 283.5,-529 277.5,-535 271.5,-535"/>
<text text-anchor="middle" x="227" y="-513.3" font-family="Times,serif" font-size="14.00">dream_rookie</text>
</g>
<!-- dream_baby&#45;&gt;dream_rookie -->
<g id="edge24" class="edge">
<title>dream_baby&#45;&gt;dream_rookie</title>
<path fill="none" stroke="black" d="M114.13,-517C128.62,-517 144.6,-517 159.84,-517"/>
<polygon fill="black" stroke="black" points="160.25,-520.5 170.25,-517 160.25,-513.5 160.25,-520.5"/>
</g>
<!-- dream_champion_lucid -->
<g id="node24" class="node">
<title>dream_champion_lucid</title>
<path fill="#9575cd" stroke="black" d="M517,-589C517,-589 362,-589 362,-589 356,-589 350,-583 350,-577 350,-577 350,-565 350,-565 350,-559 356,-553 362,-553 362,-553 517,-553 517,-553 523,-553 529,-559 529,-565 529,-565 529,-577 529,-577 529,-583 523,-589 517,-589"/>
<text text-anchor="middle" x="439.5" y="-567.3" font-family="Times,serif" font-size="14.00">dream_champion_lucid</text>
</g>
<!-- dream_rookie&#45;&gt;dream_champion_lucid -->
<g id="edge25" class="edge">
<title>dream_rookie&#45;&gt;dream_champion_lucid</title>
<path fill="none" stroke="#7e57c2" d="M283.55,-531.86C298.61,-535.85 314.92,-540.13 330,-544 338.33,-546.14 347.03,-548.35 355.72,-550.54"/>
<polygon fill="#7e57c2" stroke="#7e57c2" points="354.96,-553.95 365.51,-552.99 356.66,-547.16 354.96,-553.95"/>
</g>
<!-- dream_champion_nightmare -->
<g id="node25" class="node">
<title>dream_champion_nightmare</title>
<path fill="#9575cd" stroke="black" d="M537,-535C537,-535 342,-535 342,-535 336,-535 330,-529 330,-523 330,-523 330,-511 330,-511 330,-505 336,-499 342,-499 342,-499 537,-499 537,-499 543,-499 549,-505 549,-511 549,-511 549,-523 549,-523 549,-529 543,-535 537,-535"/>
<text text-anchor="middle" x="439.5" y="-513.3" font-family="Times,serif" font-size="14.00">dream_champion_nightmare</text>
</g>
<!-- dream_rookie&#45;&gt;dream_champion_nightmare -->
<g id="edge26" class="edge">
<title>dream_rookie&#45;&gt;dream_champion_nightmare</title>
<path fill="none" stroke="#7e57c2" d="M283.58,-517C294.83,-517 307.05,-517 319.54,-517"/>
<polygon fill="#7e57c2" stroke="#7e57c2" points="319.6,-520.5 329.6,-517 319.6,-513.5 319.6,-520.5"/>
</g>
<!-- dream_champion_whimsy -->
<g id="node26" class="node">
<title>dream_champion_whimsy</title>
<path fill="#9575cd" stroke="black" d="M527.5,-481C527.5,-481 351.5,-481 351.5,-481 345.5,-481 339.5,-475 339.5,-469 339.5,-469 339.5,-457 339.5,-457 339.5,-451 345.5,-445 351.5,-445 351.5,-445 527.5,-445 527.5,-445 533.5,-445 539.5,-451 539.5,-457 539.5,-457 539.5,-469 539.5,-469 539.5,-475 533.5,-481 527.5,-481"/>
<text text-anchor="middle" x="439.5" y="-459.3" font-family="Times,serif" font-size="14.00">dream_champion_whimsy</text>
</g>
<!-- dream_rookie&#45;&gt;dream_champion_whimsy -->
<g id="edge27" class="edge">
<title>dream_rookie&#45;&gt;dream_champion_whimsy</title>
<path fill="none" stroke="#7e57c2" d="M283.55,-502.14C298.61,-498.15 314.92,-493.87 330,-490 338.33,-487.86 347.03,-485.65 355.72,-483.46"/>
<polygon fill="#7e57c2" stroke="#7e57c2" points="356.66,-486.84 365.51,-481.01 354.96,-480.05 356.66,-486.84"/>
</g>
<!-- dream_final_ascended -->
<g id="node27" class="node">
<title>dream_final_ascended</title>
<path fill="lightgrey" stroke="black" d="M758.5,-562C758.5,-562 609.5,-562 609.5,-562 603.5,-562 597.5,-556 597.5,-550 597.5,-550 597.5,-538 597.5,-538 597.5,-532 603.5,-526 609.5,-526 609.5,-526 758.5,-526 758.5,-526 764.5,-526 770.5,-532 770.5,-538 770.5,-538 770.5,-550 770.5,-550 770.5,-556 764.5,-562 758.5,-562"/>
<text text-anchor="middle" x="684" y="-540.3" font-family="Times,serif" font-size="14.00" fill="white">dream_final_ascended</text>
</g>
<!-- dream_champion_lucid&#45;&gt;dream_final_ascended -->
<g id="edge28" class="edge">
<title>dream_champion_lucid&#45;&gt;dream_final_ascended</title>
<path fill="none" stroke="#7e57c2" d="M529.08,-561.14C548.09,-559.02 568.26,-556.78 587.52,-554.63"/>
<polygon fill="#7e57c2" stroke="#7e57c2" points="587.94,-558.11 597.49,-553.52 587.17,-551.15 587.94,-558.11"/>
</g>
<!-- dream_final_chaos -->
<g id="node28" class="node">
<title>dream_final_chaos</title>
<path fill="lightgrey" stroke="black" d="M745.5,-508C745.5,-508 622.5,-508 622.5,-508 616.5,-508 610.5,-502 610.5,-496 610.5,-496 610.5,-484 610.5,-484 610.5,-478 616.5,-472 622.5,-472 622.5,-472 745.5,-472 745.5,-472 751.5,-472 757.5,-478 757.5,-484 757.5,-484 757.5,-496 757.5,-496 757.5,-502 751.5,-508 745.5,-508"/>
<text text-anchor="middle" x="684" y="-486.3" font-family="Times,serif" font-size="14.00" fill="white">dream_final_chaos</text>
</g>
<!-- dream_champion_lucid&#45;&gt;dream_final_chaos -->
<g id="edge29" class="edge">
<title>dream_champion_lucid&#45;&gt;dream_final_chaos</title>
<path fill="none" stroke="#7e57c2" d="M526.62,-552.99C534.33,-550.36 541.9,-547.37 549,-544 567.06,-535.41 567.05,-525.81 585,-517 590,-514.55 595.26,-512.29 600.63,-510.21"/>
<polygon fill="#7e57c2" stroke="#7e57c2" points="602.19,-513.37 610.4,-506.67 599.81,-506.79 602.19,-513.37"/>
</g>
<!-- dream_champion_nightmare&#45;&gt;dream_final_ascended -->
<g id="edge31" class="edge">
<title>dream_champion_nightmare&#45;&gt;dream_final_ascended</title>
<path fill="none" stroke="#7e57c2" d="M549.34,-529.12C562.05,-530.53 574.95,-531.97 587.47,-533.36"/>
<polygon fill="#7e57c2" stroke="#7e57c2" points="587.09,-536.84 597.42,-534.47 587.87,-529.89 587.09,-536.84"/>
</g>
<!-- dream_champion_nightmare&#45;&gt;dream_final_chaos -->
<g id="edge30" class="edge">
<title>dream_champion_nightmare&#45;&gt;dream_final_chaos</title>
<path fill="none" stroke="#7e57c2" d="M549.34,-504.88C566.44,-502.98 583.87,-501.04 600.26,-499.21"/>
<polygon fill="#7e57c2" stroke="#7e57c2" points="600.76,-502.68 610.31,-498.09 599.99,-495.72 600.76,-502.68"/>
</g>
<!-- dream_champion_whimsy&#45;&gt;dream_final_ascended -->
<g id="edge32" class="edge">
<title>dream_champion_whimsy&#45;&gt;dream_final_ascended</title>
<path fill="none" stroke="#7e57c2" d="M526.62,-481.01C534.33,-483.64 541.9,-486.63 549,-490 567.06,-498.59 567.05,-508.19 585,-517 588.83,-518.88 592.81,-520.65 596.89,-522.3"/>
<polygon fill="#7e57c2" stroke="#7e57c2" points="595.92,-525.68 606.51,-525.97 598.42,-519.14 595.92,-525.68"/>
</g>
<!-- dream_champion_whimsy&#45;&gt;dream_final_chaos -->
<g id="edge33" class="edge">
<title>dream_champion_whimsy&#45;&gt;dream_final_chaos</title>
<path fill="none" stroke="#7e57c2" d="M539.83,-474.06C559.88,-476.29 580.76,-478.62 600.17,-480.78"/>
<polygon fill="#7e57c2" stroke="#7e57c2" points="599.85,-484.26 610.18,-481.89 600.62,-477.31 599.85,-484.26"/>
</g>
<!-- cloud_baby -->
<g id="node29" class="node">
<title>cloud_baby</title>
<path fill="#90caf9" stroke="black" d="M98,-697C98,-697 26,-697 26,-697 20,-697 14,-691 14,-685 14,-685 14,-673 14,-673 14,-667 20,-661 26,-661 26,-661 98,-661 98,-661 104,-661 110,-667 110,-673 110,-673 110,-685 110,-685 110,-691 104,-697 98,-697"/>
<text text-anchor="middle" x="62" y="-675.3" font-family="Times,serif" font-size="14.00">cloud_baby</text>
</g>
<!-- cloud_rookie -->
<g id="node30" class="node">
<title>cloud_rookie</title>
<path fill="#90caf9" stroke="black" d="M268,-697C268,-697 186,-697 186,-697 180,-697 174,-691 174,-685 174,-685 174,-673 174,-673 174,-667 180,-661 186,-661 186,-661 268,-661 268,-661 274,-661 280,-667 280,-673 280,-673 280,-685 280,-685 280,-691 274,-697 268,-697"/>
<text text-anchor="middle" x="227" y="-675.3" font-family="Times,serif" font-size="14.00">cloud_rookie</text>
</g>
<!-- cloud_baby&#45;&gt;cloud_rookie -->
<g id="edge34" class="edge">
<title>cloud_baby&#45;&gt;cloud_rookie</title>
<path fill="none" stroke="black" d="M110.15,-679C126.81,-679 145.82,-679 163.55,-679"/>
<polygon fill="black" stroke="black" points="163.82,-682.5 173.82,-679 163.82,-675.5 163.82,-682.5"/>
</g>
<!-- cloud_champion_wind -->
<g id="node31" class="node">
<title>cloud_champion_wind</title>
<path fill="#90caf9" stroke="black" d="M513.5,-697C513.5,-697 365.5,-697 365.5,-697 359.5,-697 353.5,-691 353.5,-685 353.5,-685 353.5,-673 353.5,-673 353.5,-667 359.5,-661 365.5,-661 365.5,-661 513.5,-661 513.5,-661 519.5,-661 525.5,-667 525.5,-673 525.5,-673 525.5,-685 525.5,-685 525.5,-691 519.5,-697 513.5,-697"/>
<text text-anchor="middle" x="439.5" y="-675.3" font-family="Times,serif" font-size="14.00">cloud_champion_wind</text>
</g>
<!-- cloud_rookie&#45;&gt;cloud_champion_wind -->
<g id="edge35" class="edge">
<title>cloud_rookie&#45;&gt;cloud_champion_wind</title>
<path fill="none" stroke="#7e57c2" d="M280.03,-679C299.16,-679 321.47,-679 343.21,-679"/>
<polygon fill="#7e57c2" stroke="#7e57c2" points="343.48,-682.5 353.48,-679 343.48,-675.5 343.48,-682.5"/>
</g>
<!-- cloud_champion_rain -->
<g id="node32" class="node">
<title>cloud_champion_rain</title>
<path fill="#90caf9" stroke="black" d="M510.5,-643C510.5,-643 368.5,-643 368.5,-643 362.5,-643 356.5,-637 356.5,-631 356.5,-631 356.5,-619 356.5,-619 356.5,-613 362.5,-607 368.5,-607 368.5,-607 510.5,-607 510.5,-607 516.5,-607 522.5,-613 522.5,-619 522.5,-619 522.5,-631 522.5,-631 522.5,-637 516.5,-643 510.5,-643"/>
<text text-anchor="middle" x="439.5" y="-621.3" font-family="Times,serif" font-size="14.00">cloud_champion_rain</text>
</g>
<!-- cloud_rookie&#45;&gt;cloud_champion_rain -->
<g id="edge36" class="edge">
<title>cloud_rookie&#45;&gt;cloud_champion_rain</title>
<path fill="none" stroke="#7e57c2" d="M280.11,-665.05C296.11,-660.81 313.77,-656.17 330,-652 338.33,-649.86 347.03,-647.65 355.72,-645.46"/>
<polygon fill="#7e57c2" stroke="#7e57c2" points="356.66,-648.84 365.51,-643.01 354.96,-642.05 356.66,-648.84"/>
</g>
<!-- cloud_champion_storm -->
<g id="node33" class="node">
<title>cloud_champion_storm</title>
<path fill="#90caf9" stroke="black" d="M517,-751C517,-751 362,-751 362,-751 356,-751 350,-745 350,-739 350,-739 350,-727 350,-727 350,-721 356,-715 362,-715 362,-715 517,-715 517,-715 523,-715 529,-721 529,-727 529,-727 529,-739 529,-739 529,-745 523,-751 517,-751"/>
<text text-anchor="middle" x="439.5" y="-729.3" font-family="Times,serif" font-size="14.00">cloud_champion_storm</text>
</g>
<!-- cloud_rookie&#45;&gt;cloud_champion_storm -->
<g id="edge37" class="edge">
<title>cloud_rookie&#45;&gt;cloud_champion_storm</title>
<path fill="none" stroke="#7e57c2" d="M280.11,-692.95C296.11,-697.19 313.77,-701.83 330,-706 338.33,-708.14 347.03,-710.35 355.72,-712.54"/>
<polygon fill="#7e57c2" stroke="#7e57c2" points="354.96,-715.95 365.51,-714.99 356.66,-709.16 354.96,-715.95"/>
</g>
<!-- cloud_final_jetstream -->
<g id="node34" class="node">
<title>cloud_final_jetstream</title>
<path fill="lightgrey" stroke="black" d="M756,-751C756,-751 612,-751 612,-751 606,-751 600,-745 600,-739 600,-739 600,-727 600,-727 600,-721 606,-715 612,-715 612,-715 756,-715 756,-715 762,-715 768,-721 768,-727 768,-727 768,-739 768,-739 768,-745 762,-751 756,-751"/>
<text text-anchor="middle" x="684" y="-729.3" font-family="Times,serif" font-size="14.00" fill="white">cloud_final_jetstream</text>
</g>
<!-- cloud_champion_wind&#45;&gt;cloud_final_jetstream -->
<g id="edge38" class="edge">
<title>cloud_champion_wind&#45;&gt;cloud_final_jetstream</title>
<path fill="none" stroke="#7e57c2" d="M521.59,-697.06C544.24,-702.1 568.99,-707.61 592.17,-712.77"/>
<polygon fill="#7e57c2" stroke="#7e57c2" points="591.47,-716.2 601.99,-714.96 592.99,-709.37 591.47,-716.2"/>
</g>
<!-- cloud_final_halo -->
<g id="node35" class="node">
<title>cloud_final_halo</title>
<path fill="lightgrey" stroke="black" d="M736.5,-643C736.5,-643 631.5,-643 631.5,-643 625.5,-643 619.5,-637 619.5,-631 619.5,-631 619.5,-619 619.5,-619 619.5,-613 625.5,-607 631.5,-607 631.5,-607 736.5,-607 736.5,-607 742.5,-607 748.5,-613 748.5,-619 748.5,-619 748.5,-631 748.5,-631 748.5,-637 742.5,-643 736.5,-643"/>
<text text-anchor="middle" x="684" y="-621.3" font-family="Times,serif" font-size="14.00" fill="white">cloud_final_halo</text>
</g>
<!-- cloud_champion_wind&#45;&gt;cloud_final_halo -->
<g id="edge39" class="edge">
<title>cloud_champion_wind&#45;&gt;cloud_final_halo</title>
<path fill="none" stroke="#7e57c2" d="M521.59,-660.94C549.91,-654.64 581.54,-647.59 609.24,-641.43"/>
<polygon fill="#7e57c2" stroke="#7e57c2" points="610.25,-644.79 619.25,-639.2 608.73,-637.95 610.25,-644.79"/>
</g>
<!-- cloud_champion_rain&#45;&gt;cloud_final_halo -->
<g id="edge40" class="edge">
<title>cloud_champion_rain&#45;&gt;cloud_final_halo</title>
<path fill="none" stroke="#7e57c2" d="M522.6,-625C550.62,-625 581.77,-625 609.11,-625"/>
<polygon fill="#7e57c2" stroke="#7e57c2" points="609.39,-628.5 619.39,-625 609.38,-621.5 609.39,-628.5"/>
</g>
<!-- cloud_final_tempest -->
<g id="node36" class="node">
<title>cloud_final_tempest</title>
<path fill="lightgrey" stroke="black" d="M751,-697C751,-697 617,-697 617,-697 611,-697 605,-691 605,-685 605,-685 605,-673 605,-673 605,-667 611,-661 617,-661 617,-661 751,-661 751,-661 757,-661 763,-667 763,-673 763,-673 763,-685 763,-685 763,-691 757,-697 751,-697"/>
<text text-anchor="middle" x="684" y="-675.3" font-family="Times,serif" font-size="14.00" fill="white">cloud_final_tempest</text>
</g>
<!-- cloud_champion_rain&#45;&gt;cloud_final_tempest -->
<g id="edge41" class="edge">
<title>cloud_champion_rain&#45;&gt;cloud_final_tempest</title>
<path fill="none" stroke="#7e57c2" d="M521.59,-643.06C545.18,-648.31 571.07,-654.08 595.07,-659.42"/>
<polygon fill="#7e57c2" stroke="#7e57c2" points="594.35,-662.84 604.87,-661.6 595.87,-656.01 594.35,-662.84"/>
</g>
<!-- cloud_champion_storm&#45;&gt;cloud_final_jetstream -->
<g id="edge43" class="edge">
<title>cloud_champion_storm&#45;&gt;cloud_final_jetstream</title>
<path fill="none" stroke="#7e57c2" d="M529.08,-733C548.87,-733 569.92,-733 589.89,-733"/>
<polygon fill="#7e57c2" stroke="#7e57c2" points="589.91,-736.5 599.91,-733 589.91,-729.5 589.91,-736.5"/>
</g>
<!-- cloud_champion_storm&#45;&gt;cloud_final_tempest -->
<g id="edge42" class="edge">
<title>cloud_champion_storm&#45;&gt;cloud_final_tempest</title>
<path fill="none" stroke="#7e57c2" d="M521.59,-714.94C545.18,-709.69 571.07,-703.92 595.07,-698.58"/>
<polygon fill="#7e57c2" stroke="#7e57c2" points="595.87,-701.99 604.87,-696.4 594.35,-695.16 595.87,-701.99"/>
</g>
<!-- corrupt_baby -->
<g id="node37" class="node">
<title>corrupt_baby</title>
<path fill="#ef5350" stroke="black" d="M105.5,-859C105.5,-859 18.5,-859 18.5,-859 12.5,-859 6.5,-853 6.5,-847 6.5,-847 6.5,-835 6.5,-835 6.5,-829 12.5,-823 18.5,-823 18.5,-823 105.5,-823 105.5,-823 111.5,-823 117.5,-829 117.5,-835 117.5,-835 117.5,-847 117.5,-847 117.5,-853 111.5,-859 105.5,-859"/>
<text text-anchor="middle" x="62" y="-837.3" font-family="Times,serif" font-size="14.00">corrupt_baby</text>
</g>
<!-- corrupt_rookie -->
<g id="node38" class="node">
<title>corrupt_rookie</title>
<path fill="#ef5350" stroke="black" d="M275.5,-859C275.5,-859 178.5,-859 178.5,-859 172.5,-859 166.5,-853 166.5,-847 166.5,-847 166.5,-835 166.5,-835 166.5,-829 172.5,-823 178.5,-823 178.5,-823 275.5,-823 275.5,-823 281.5,-823 287.5,-829 287.5,-835 287.5,-835 287.5,-847 287.5,-847 287.5,-853 281.5,-859 275.5,-859"/>
<text text-anchor="middle" x="227" y="-837.3" font-family="Times,serif" font-size="14.00">corrupt_rookie</text>
</g>
<!-- corrupt_baby&#45;&gt;corrupt_rookie -->
<g id="edge44" class="edge">
<title>corrupt_baby&#45;&gt;corrupt_rookie</title>
<path fill="none" stroke="black" d="M117.73,-841C130.06,-841 143.32,-841 156.17,-841"/>
<polygon fill="black" stroke="black" points="156.38,-844.5 166.38,-841 156.38,-837.5 156.38,-844.5"/>
</g>
<!-- corrupt_champion_glitch -->
<g id="node39" class="node">
<title>corrupt_champion_glitch</title>
<path fill="#ef5350" stroke="black" d="M524,-913C524,-913 355,-913 355,-913 349,-913 343,-907 343,-901 343,-901 343,-889 343,-889 343,-883 349,-877 355,-877 355,-877 524,-877 524,-877 530,-877 536,-883 536,-889 536,-889 536,-901 536,-901 536,-907 530,-913 524,-913"/>
<text text-anchor="middle" x="439.5" y="-891.3" font-family="Times,serif" font-size="14.00">corrupt_champion_glitch</text>
</g>
<!-- corrupt_rookie&#45;&gt;corrupt_champion_glitch -->
<g id="edge45" class="edge">
<title>corrupt_rookie&#45;&gt;corrupt_champion_glitch</title>
<path fill="none" stroke="#7e57c2" d="M287.56,-856.93C301.48,-860.6 316.25,-864.47 330,-868 338.33,-870.14 347.03,-872.35 355.72,-874.54"/>
<polygon fill="#7e57c2" stroke="#7e57c2" points="354.96,-877.95 365.51,-876.99 356.66,-871.16 354.96,-877.95"/>
</g>
<!-- corrupt_champion_error -->
<g id="node40" class="node">
<title>corrupt_champion_error</title>
<path fill="#ef5350" stroke="black" d="M522,-859C522,-859 357,-859 357,-859 351,-859 345,-853 345,-847 345,-847 345,-835 345,-835 345,-829 351,-823 357,-823 357,-823 522,-823 522,-823 528,-823 534,-829 534,-835 534,-835 534,-847 534,-847 534,-853 528,-859 522,-859"/>
<text text-anchor="middle" x="439.5" y="-837.3" font-family="Times,serif" font-size="14.00">corrupt_champion_error</text>
</g>
<!-- corrupt_rookie&#45;&gt;corrupt_champion_error -->
<g id="edge46" class="edge">
<title>corrupt_rookie&#45;&gt;corrupt_champion_error</title>
<path fill="none" stroke="#7e57c2" d="M287.76,-841C302.45,-841 318.62,-841 334.73,-841"/>
<polygon fill="#7e57c2" stroke="#7e57c2" points="334.74,-844.5 344.74,-841 334.74,-837.5 334.74,-844.5"/>
</g>
<!-- corrupt_champion_patchfail -->
<g id="node41" class="node">
<title>corrupt_champion_patchfail</title>
<path fill="#ef5350" stroke="black" d="M535,-805C535,-805 344,-805 344,-805 338,-805 332,-799 332,-793 332,-793 332,-781 332,-781 332,-775 338,-769 344,-769 344,-769 535,-769 535,-769 541,-769 547,-775 547,-781 547,-781 547,-793 547,-793 547,-799 541,-805 535,-805"/>
<text text-anchor="middle" x="439.5" y="-783.3" font-family="Times,serif" font-size="14.00">corrupt_champion_patchfail</text>
</g>
<!-- corrupt_rookie&#45;&gt;corrupt_champion_patchfail -->
<g id="edge47" class="edge">
<title>corrupt_rookie&#45;&gt;corrupt_champion_patchfail</title>
<path fill="none" stroke="#7e57c2" d="M287.56,-825.07C301.48,-821.4 316.25,-817.53 330,-814 338.33,-811.86 347.03,-809.65 355.72,-807.46"/>
<polygon fill="#7e57c2" stroke="#7e57c2" points="356.66,-810.84 365.51,-805.01 354.96,-804.05 356.66,-810.84"/>
</g>
<!-- corrupt_final_corruptcore -->
<g id="node42" class="node">
<title>corrupt_final_corruptcore</title>
<path fill="lightgrey" stroke="black" d="M771,-886C771,-886 597,-886 597,-886 591,-886 585,-880 585,-874 585,-874 585,-862 585,-862 585,-856 591,-850 597,-850 597,-850 771,-850 771,-850 777,-850 783,-856 783,-862 783,-862 783,-874 783,-874 783,-880 777,-886 771,-886"/>
<text text-anchor="middle" x="684" y="-864.3" font-family="Times,serif" font-size="14.00" fill="white">corrupt_final_corruptcore</text>
</g>
<!-- corrupt_champion_glitch&#45;&gt;corrupt_final_corruptcore -->
<g id="edge48" class="edge">
<title>corrupt_champion_glitch&#45;&gt;corrupt_final_corruptcore</title>
<path fill="none" stroke="#7e57c2" d="M536.34,-884.33C548.88,-882.93 561.79,-881.5 574.52,-880.08"/>
<polygon fill="#7e57c2" stroke="#7e57c2" points="575.12,-883.53 584.67,-878.95 574.35,-876.58 575.12,-883.53"/>
</g>
<!-- corrupt_final_overrun -->
<g id="node43" class="node">
<title>corrupt_final_overrun</title>
<path fill="lightgrey" stroke="black" d="M757,-832C757,-832 611,-832 611,-832 605,-832 599,-826 599,-820 599,-820 599,-808 599,-808 599,-802 605,-796 611,-796 611,-796 757,-796 757,-796 763,-796 769,-802 769,-808 769,-808 769,-820 769,-820 769,-826 763,-832 757,-832"/>
<text text-anchor="middle" x="684" y="-810.3" font-family="Times,serif" font-size="14.00" fill="white">corrupt_final_overrun</text>
</g>
<!-- corrupt_champion_glitch&#45;&gt;corrupt_final_overrun -->
<g id="edge49" class="edge">
<title>corrupt_champion_glitch&#45;&gt;corrupt_final_overrun</title>
<path fill="none" stroke="#7e57c2" d="M526.62,-876.99C534.33,-874.36 541.9,-871.37 549,-868 567.06,-859.41 567.05,-849.81 585,-841 588.83,-839.12 592.81,-837.35 596.89,-835.7"/>
<polygon fill="#7e57c2" stroke="#7e57c2" points="598.42,-838.86 606.51,-832.03 595.92,-832.32 598.42,-838.86"/>
</g>
<!-- corrupt_champion_error&#45;&gt;corrupt_final_corruptcore -->
<g id="edge51" class="edge">
<title>corrupt_champion_error&#45;&gt;corrupt_final_corruptcore</title>
<path fill="none" stroke="#7e57c2" d="M534.26,-851.44C547.43,-852.91 561.05,-854.42 574.47,-855.92"/>
<polygon fill="#7e57c2" stroke="#7e57c2" points="574.35,-859.42 584.68,-857.05 575.13,-852.47 574.35,-859.42"/>
</g>
<!-- corrupt_champion_error&#45;&gt;corrupt_final_overrun -->
<g id="edge50" class="edge">
<title>corrupt_champion_error&#45;&gt;corrupt_final_overrun</title>
<path fill="none" stroke="#7e57c2" d="M534.26,-830.56C552.17,-828.57 570.92,-826.48 588.84,-824.48"/>
<polygon fill="#7e57c2" stroke="#7e57c2" points="589.44,-827.94 598.99,-823.35 588.67,-820.98 589.44,-827.94"/>
</g>
<!-- corrupt_champion_patchfail&#45;&gt;corrupt_final_corruptcore -->
<g id="edge52" class="edge">
<title>corrupt_champion_patchfail&#45;&gt;corrupt_final_corruptcore</title>
<path fill="none" stroke="#7e57c2" d="M526.62,-805.01C534.33,-807.64 541.9,-810.63 549,-814 567.06,-822.59 567.05,-832.19 585,-841 588.83,-842.88 592.81,-844.65 596.89,-846.3"/>
<polygon fill="#7e57c2" stroke="#7e57c2" points="595.92,-849.68 606.51,-849.97 598.42,-843.14 595.92,-849.68"/>
</g>
<!-- corrupt_champion_patchfail&#45;&gt;corrupt_final_overrun -->
<g id="edge53" class="edge">
<title>corrupt_champion_patchfail&#45;&gt;corrupt_final_overrun</title>
<path fill="none" stroke="#7e57c2" d="M547.22,-798.88C560.99,-800.42 575.01,-801.98 588.57,-803.49"/>
<polygon fill="#7e57c2" stroke="#7e57c2" points="588.5,-807 598.83,-804.63 589.28,-800.04 588.5,-807"/>
</g>
<!-- void_baby -->
<g id="node44" class="node">
<title>void_baby</title>
<path fill="#b0bec5" stroke="black" d="M94,-1021C94,-1021 30,-1021 30,-1021 24,-1021 18,-1015 18,-1009 18,-1009 18,-997 18,-997 18,-991 24,-985 30,-985 30,-985 94,-985 94,-985 100,-985 106,-991 106,-997 106,-997 106,-1009 106,-1009 106,-1015 100,-1021 94,-1021"/>
<text text-anchor="middle" x="62" y="-999.3" font-family="Times,serif" font-size="14.00">void_baby</text>
</g>
<!-- void_rookie -->
<g id="node45" class="node">
<title>void_rookie</title>
<path fill="#b0bec5" stroke="black" d="M264,-1021C264,-1021 190,-1021 190,-1021 184,-1021 178,-1015 178,-1009 178,-1009 178,-997 178,-997 178,-991 184,-985 190,-985 190,-985 264,-985 264,-985 270,-985 276,-991 276,-997 276,-997 276,-1009 276,-1009 276,-1015 270,-1021 264,-1021"/>
<text text-anchor="middle" x="227" y="-999.3" font-family="Times,serif" font-size="14.00">void_rookie</text>
</g>
<!-- void_baby&#45;&gt;void_rookie -->
<g id="edge54" class="edge">
<title>void_baby&#45;&gt;void_rookie</title>
<path fill="none" stroke="black" d="M106.25,-1003C125.13,-1003 147.55,-1003 167.86,-1003"/>
<polygon fill="black" stroke="black" points="167.95,-1006.5 177.95,-1003 167.95,-999.5 167.95,-1006.5"/>
</g>
<!-- void_champion_entropy -->
<g id="node46" class="node">
<title>void_champion_entropy</title>
<path fill="#b0bec5" stroke="black" d="M520,-1075C520,-1075 359,-1075 359,-1075 353,-1075 347,-1069 347,-1063 347,-1063 347,-1051 347,-1051 347,-1045 353,-1039 359,-1039 359,-1039 520,-1039 520,-1039 526,-1039 532,-1045 532,-1051 532,-1051 532,-1063 532,-1063 532,-1069 526,-1075 520,-1075"/>
<text text-anchor="middle" x="439.5" y="-1053.3" font-family="Times,serif" font-size="14.00">void_champion_entropy</text>
</g>
<!-- void_rookie&#45;&gt;void_champion_entropy -->
<g id="edge55" class="edge">
<title>void_rookie&#45;&gt;void_champion_entropy</title>
<path fill="none" stroke="#7e57c2" d="M276.22,-1015.92C293.2,-1020.43 312.43,-1025.49 330,-1030 338.33,-1032.14 347.03,-1034.35 355.72,-1036.54"/>
<polygon fill="#7e57c2" stroke="#7e57c2" points="354.96,-1039.95 365.51,-1038.99 356.66,-1033.16 354.96,-1039.95"/>
</g>
<!-- void_champion_gravity -->
<g id="node47" class="node">
<title>void_champion_gravity</title>
<path fill="#b0bec5" stroke="black" d="M517.5,-967C517.5,-967 361.5,-967 361.5,-967 355.5,-967 349.5,-961 349.5,-955 349.5,-955 349.5,-943 349.5,-943 349.5,-937 355.5,-931 361.5,-931 361.5,-931 517.5,-931 517.5,-931 523.5,-931 529.5,-937 529.5,-943 529.5,-943 529.5,-955 529.5,-955 529.5,-961 523.5,-967 517.5,-967"/>
<text text-anchor="middle" x="439.5" y="-945.3" font-family="Times,serif" font-size="14.00">void_champion_gravity</text>
</g>
<!-- void_rookie&#45;&gt;void_champion_gravity -->
<g id="edge56" class="edge">
<title>void_rookie&#45;&gt;void_champion_gravity</title>
<path fill="none" stroke="#7e57c2" d="M276.22,-990.08C293.2,-985.57 312.43,-980.51 330,-976 338.33,-973.86 347.03,-971.65 355.72,-969.46"/>
<polygon fill="#7e57c2" stroke="#7e57c2" points="356.66,-972.84 365.51,-967.01 354.96,-966.05 356.66,-972.84"/>
</g>
<!-- void_champion_null -->
<g id="node48" class="node">
<title>void_champion_null</title>
<path fill="#b0bec5" stroke="black" d="M505.5,-1021C505.5,-1021 373.5,-1021 373.5,-1021 367.5,-1021 361.5,-1015 361.5,-1009 361.5,-1009 361.5,-997 361.5,-997 361.5,-991 367.5,-985 373.5,-985 373.5,-985 505.5,-985 505.5,-985 511.5,-985 517.5,-991 517.5,-997 517.5,-997 517.5,-1009 517.5,-1009 517.5,-1015 511.5,-1021 505.5,-1021"/>
<text text-anchor="middle" x="439.5" y="-999.3" font-family="Times,serif" font-size="14.00">void_champion_null</text>
</g>
<!-- void_rookie&#45;&gt;void_champion_null -->
<g id="edge57" class="edge">
<title>void_rookie&#45;&gt;void_champion_null</title>
<path fill="none" stroke="#7e57c2" d="M276.03,-1003C298.31,-1003 325.51,-1003 351.23,-1003"/>
<polygon fill="#7e57c2" stroke="#7e57c2" points="351.38,-1006.5 361.38,-1003 351.38,-999.5 351.38,-1006.5"/>
</g>
<!-- corrupt_final_glitch -->
<g id="node49" class="node">
<title>corrupt_final_glitch</title>
<path fill="lightgrey" stroke="black" d="M749.5,-1075C749.5,-1075 618.5,-1075 618.5,-1075 612.5,-1075 606.5,-1069 606.5,-1063 606.5,-1063 606.5,-1051 606.5,-1051 606.5,-1045 612.5,-1039 618.5,-1039 618.5,-1039 749.5,-1039 749.5,-1039 755.5,-1039 761.5,-1045 761.5,-1051 761.5,-1051 761.5,-1063 761.5,-1063 761.5,-1069 755.5,-1075 749.5,-1075"/>
<text text-anchor="middle" x="684" y="-1053.3" font-family="Times,serif" font-size="14.00" fill="white">corrupt_final_glitch</text>
</g>
<!-- void_champion_entropy&#45;&gt;corrupt_final_glitch -->
<g id="edge58" class="edge">
<title>void_champion_entropy&#45;&gt;corrupt_final_glitch</title>
<path fill="none" stroke="#7e57c2" d="M532.18,-1057C553.16,-1057 575.39,-1057 596.16,-1057"/>
<polygon fill="#7e57c2" stroke="#7e57c2" points="596.22,-1060.5 606.22,-1057 596.22,-1053.5 596.22,-1060.5"/>
</g>
<!-- void_final_oblivion -->
<g id="node50" class="node">
<title>void_final_oblivion</title>
<path fill="lightgrey" stroke="black" d="M745.5,-1021C745.5,-1021 622.5,-1021 622.5,-1021 616.5,-1021 610.5,-1015 610.5,-1009 610.5,-1009 610.5,-997 610.5,-997 610.5,-991 616.5,-985 622.5,-985 622.5,-985 745.5,-985 745.5,-985 751.5,-985 757.5,-991 757.5,-997 757.5,-997 757.5,-1009 757.5,-1009 757.5,-1015 751.5,-1021 745.5,-1021"/>
<text text-anchor="middle" x="684" y="-999.3" font-family="Times,serif" font-size="14.00" fill="white">void_final_oblivion</text>
</g>
<!-- void_champion_entropy&#45;&gt;void_final_oblivion -->
<g id="edge59" class="edge">
<title>void_champion_entropy&#45;&gt;void_final_oblivion</title>
<path fill="none" stroke="#7e57c2" d="M521.59,-1038.94C546.87,-1033.31 574.78,-1027.1 600.18,-1021.44"/>
<polygon fill="#7e57c2" stroke="#7e57c2" points="601.15,-1024.81 610.15,-1019.22 599.63,-1017.98 601.15,-1024.81"/>
</g>
<!-- void_champion_gravity&#45;&gt;void_final_oblivion -->
<g id="edge61" class="edge">
<title>void_champion_gravity&#45;&gt;void_final_oblivion</title>
<path fill="none" stroke="#7e57c2" d="M521.59,-967.06C546.87,-972.69 574.78,-978.9 600.18,-984.56"/>
<polygon fill="#7e57c2" stroke="#7e57c2" points="599.63,-988.02 610.15,-986.78 601.15,-981.19 599.63,-988.02"/>
</g>
<!-- void_final_singularity -->
<g id="node51" class="node">
<title>void_final_singularity</title>
<path fill="lightgrey" stroke="black" d="M756,-967C756,-967 612,-967 612,-967 606,-967 600,-961 600,-955 600,-955 600,-943 600,-943 600,-937 606,-931 612,-931 612,-931 756,-931 756,-931 762,-931 768,-937 768,-943 768,-943 768,-955 768,-955 768,-961 762,-967 756,-967"/>
<text text-anchor="middle" x="684" y="-945.3" font-family="Times,serif" font-size="14.00" fill="white">void_final_singularity</text>
</g>
<!-- void_champion_gravity&#45;&gt;void_final_singularity -->
<g id="edge60" class="edge">
<title>void_champion_gravity&#45;&gt;void_final_singularity</title>
<path fill="none" stroke="#7e57c2" d="M529.76,-949C549.32,-949 570.06,-949 589.76,-949"/>
<polygon fill="#7e57c2" stroke="#7e57c2" points="589.96,-952.5 599.96,-949 589.96,-945.5 589.96,-952.5"/>
</g>
<!-- void_champion_null&#45;&gt;void_final_oblivion -->
<g id="edge62" class="edge">
<title>void_champion_null&#45;&gt;void_final_oblivion</title>
<path fill="none" stroke="#7e57c2" d="M517.56,-1003C543.88,-1003 573.41,-1003 600.16,-1003"/>
<polygon fill="#7e57c2" stroke="#7e57c2" points="600.27,-1006.5 610.27,-1003 600.27,-999.5 600.27,-1006.5"/>
</g>
<!-- void_champion_null&#45;&gt;void_final_singularity -->
<g id="edge63" class="edge">
<title>void_champion_null&#45;&gt;void_final_singularity</title>
<path fill="none" stroke="#7e57c2" d="M517.56,-985.84C541.21,-980.57 567.45,-974.73 591.94,-969.28"/>
<polygon fill="#7e57c2" stroke="#7e57c2" points="592.95,-972.64 601.95,-967.05 591.43,-965.8 592.95,-972.64"/>
</g>
<!-- archive_baby -->
<g id="node52" class="node">
<title>archive_baby</title>
<path fill="#ce93d8" stroke="black" d="M105,-1183C105,-1183 19,-1183 19,-1183 13,-1183 7,-1177 7,-1171 7,-1171 7,-1159 7,-1159 7,-1153 13,-1147 19,-1147 19,-1147 105,-1147 105,-1147 111,-1147 117,-1153 117,-1159 117,-1159 117,-1171 117,-1171 117,-1177 111,-1183 105,-1183"/>
<text text-anchor="middle" x="62" y="-1161.3" font-family="Times,serif" font-size="14.00">archive_baby</text>
</g>
<!-- archive_rookie -->
<g id="node53" class="node">
<title>archive_rookie</title>
<path fill="#ce93d8" stroke="black" d="M275,-1183C275,-1183 179,-1183 179,-1183 173,-1183 167,-1177 167,-1171 167,-1171 167,-1159 167,-1159 167,-1153 173,-1147 179,-1147 179,-1147 275,-1147 275,-1147 281,-1147 287,-1153 287,-1159 287,-1159 287,-1171 287,-1171 287,-1177 281,-1183 275,-1183"/>
<text text-anchor="middle" x="227" y="-1161.3" font-family="Times,serif" font-size="14.00">archive_rookie</text>
</g>
<!-- archive_baby&#45;&gt;archive_rookie -->
<g id="edge64" class="edge">
<title>archive_baby&#45;&gt;archive_rookie</title>
<path fill="none" stroke="black" d="M117.28,-1165C129.97,-1165 143.66,-1165 156.9,-1165"/>
<polygon fill="black" stroke="black" points="156.92,-1168.5 166.92,-1165 156.92,-1161.5 156.92,-1168.5"/>
</g>
<!-- archive_champion_logic -->
<g id="node54" class="node">
<title>archive_champion_logic</title>
<path fill="#ce93d8" stroke="black" d="M520,-1183C520,-1183 359,-1183 359,-1183 353,-1183 347,-1177 347,-1171 347,-1171 347,-1159 347,-1159 347,-1153 353,-1147 359,-1147 359,-1147 520,-1147 520,-1147 526,-1147 532,-1153 532,-1159 532,-1159 532,-1171 532,-1171 532,-1177 526,-1183 520,-1183"/>
<text text-anchor="middle" x="439.5" y="-1161.3" font-family="Times,serif" font-size="14.00">archive_champion_logic</text>
</g>
<!-- archive_rookie&#45;&gt;archive_champion_logic -->
<g id="edge65" class="edge">
<title>archive_rookie&#45;&gt;archive_champion_logic</title>
<path fill="none" stroke="#7e57c2" d="M287.2,-1165C302.5,-1165 319.43,-1165 336.25,-1165"/>
<polygon fill="#7e57c2" stroke="#7e57c2" points="336.7,-1168.5 346.7,-1165 336.7,-1161.5 336.7,-1168.5"/>
</g>
<!-- archive_champion_index -->
<g id="node55" class="node">
<title>archive_champion_index</title>
<path fill="#ce93d8" stroke="black" d="M523,-1129C523,-1129 356,-1129 356,-1129 350,-1129 344,-1123 344,-1117 344,-1117 344,-1105 344,-1105 344,-1099 350,-1093 356,-1093 356,-1093 523,-1093 523,-1093 529,-1093 535,-1099 535,-1105 535,-1105 535,-1117 535,-1117 535,-1123 529,-1129 523,-1129"/>
<text text-anchor="middle" x="439.5" y="-1107.3" font-family="Times,serif" font-size="14.00">archive_champion_index</text>
</g>
<!-- archive_rookie&#45;&gt;archive_champion_index -->
<g id="edge66" class="edge">
<title>archive_rookie&#45;&gt;archive_champion_index</title>
<path fill="none" stroke="#7e57c2" d="M287.02,-1149.22C301.09,-1145.5 316.07,-1141.58 330,-1138 338.33,-1135.86 347.03,-1133.65 355.72,-1131.46"/>
<polygon fill="#7e57c2" stroke="#7e57c2" points="356.66,-1134.84 365.51,-1129.01 354.96,-1128.05 356.66,-1134.84"/>
</g>
<!-- archive_champion_fragment -->
<g id="node56" class="node">
<title>archive_champion_fragment</title>
<path fill="#ce93d8" stroke="black" d="M536.5,-1237C536.5,-1237 342.5,-1237 342.5,-1237 336.5,-1237 330.5,-1231 330.5,-1225 330.5,-1225 330.5,-1213 330.5,-1213 330.5,-1207 336.5,-1201 342.5,-1201 342.5,-1201 536.5,-1201 536.5,-1201 542.5,-1201 548.5,-1207 548.5,-1213 548.5,-1213 548.5,-1225 548.5,-1225 548.5,-1231 542.5,-1237 536.5,-1237"/>
<text text-anchor="middle" x="439.5" y="-1215.3" font-family="Times,serif" font-size="14.00">archive_champion_fragment</text>
</g>
<!-- archive_rookie&#45;&gt;archive_champion_fragment -->
<g id="edge67" class="edge">
<title>archive_rookie&#45;&gt;archive_champion_fragment</title>
<path fill="none" stroke="#7e57c2" d="M287.02,-1180.78C301.09,-1184.5 316.07,-1188.42 330,-1192 338.33,-1194.14 347.03,-1196.35 355.72,-1198.54"/>
<polygon fill="#7e57c2" stroke="#7e57c2" points="354.96,-1201.95 365.51,-1200.99 356.66,-1195.16 354.96,-1201.95"/>
</g>
<!-- archive_final_compiler -->
<g id="node57" class="node">
<title>archive_final_compiler</title>
<path fill="lightgrey" stroke="black" d="M760,-1237C760,-1237 608,-1237 608,-1237 602,-1237 596,-1231 596,-1225 596,-1225 596,-1213 596,-1213 596,-1207 602,-1201 608,-1201 608,-1201 760,-1201 760,-1201 766,-1201 772,-1207 772,-1213 772,-1213 772,-1225 772,-1225 772,-1231 766,-1237 760,-1237"/>
<text text-anchor="middle" x="684" y="-1215.3" font-family="Times,serif" font-size="14.00" fill="white">archive_final_compiler</text>
</g>
<!-- archive_champion_logic&#45;&gt;archive_final_compiler -->
<g id="edge68" class="edge">
<title>archive_champion_logic&#45;&gt;archive_final_compiler</title>
<path fill="none" stroke="#7e57c2" d="M521.59,-1183.06C544.24,-1188.1 568.99,-1193.61 592.17,-1198.77"/>
<polygon fill="#7e57c2" stroke="#7e57c2" points="591.47,-1202.2 601.99,-1200.96 592.99,-1195.37 591.47,-1202.2"/>
</g>
<!-- archive_final_librarian -->
<g id="node58" class="node">
<title>archive_final_librarian</title>
<path fill="lightgrey" stroke="black" d="M759.5,-1129C759.5,-1129 608.5,-1129 608.5,-1129 602.5,-1129 596.5,-1123 596.5,-1117 596.5,-1117 596.5,-1105 596.5,-1105 596.5,-1099 602.5,-1093 608.5,-1093 608.5,-1093 759.5,-1093 759.5,-1093 765.5,-1093 771.5,-1099 771.5,-1105 771.5,-1105 771.5,-1117 771.5,-1117 771.5,-1123 765.5,-1129 759.5,-1129"/>
<text text-anchor="middle" x="684" y="-1107.3" font-family="Times,serif" font-size="14.00" fill="white">archive_final_librarian</text>
</g>
<!-- archive_champion_logic&#45;&gt;archive_final_librarian -->
<g id="edge69" class="edge">
<title>archive_champion_logic&#45;&gt;archive_final_librarian</title>
<path fill="none" stroke="#7e57c2" d="M521.59,-1146.94C544.24,-1141.9 568.99,-1136.39 592.17,-1131.23"/>
<polygon fill="#7e57c2" stroke="#7e57c2" points="592.99,-1134.63 601.99,-1129.04 591.47,-1127.8 592.99,-1134.63"/>
</g>
<!-- archive_champion_index&#45;&gt;archive_final_librarian -->
<g id="edge70" class="edge">
<title>archive_champion_index&#45;&gt;archive_final_librarian</title>
<path fill="none" stroke="#7e57c2" d="M535.3,-1111C551.91,-1111 569.22,-1111 585.89,-1111"/>
<polygon fill="#7e57c2" stroke="#7e57c2" points="586.18,-1114.5 596.18,-1111 586.18,-1107.5 586.18,-1114.5"/>
</g>
<!-- archive_final_corrupt -->
<g id="node59" class="node">
<title>archive_final_corrupt</title>
<path fill="lightgrey" stroke="black" d="M755.5,-1183C755.5,-1183 612.5,-1183 612.5,-1183 606.5,-1183 600.5,-1177 600.5,-1171 600.5,-1171 600.5,-1159 600.5,-1159 600.5,-1153 606.5,-1147 612.5,-1147 612.5,-1147 755.5,-1147 755.5,-1147 761.5,-1147 767.5,-1153 767.5,-1159 767.5,-1159 767.5,-1171 767.5,-1171 767.5,-1177 761.5,-1183 755.5,-1183"/>
<text text-anchor="middle" x="684" y="-1161.3" font-family="Times,serif" font-size="14.00" fill="white">archive_final_corrupt</text>
</g>
<!-- archive_champion_index&#45;&gt;archive_final_corrupt -->
<g id="edge71" class="edge">
<title>archive_champion_index&#45;&gt;archive_final_corrupt</title>
<path fill="none" stroke="#7e57c2" d="M521.59,-1129.06C544.24,-1134.1 568.99,-1139.61 592.17,-1144.77"/>
<polygon fill="#7e57c2" stroke="#7e57c2" points="591.47,-1148.2 601.99,-1146.96 592.99,-1141.37 591.47,-1148.2"/>
</g>
<!-- archive_champion_fragment&#45;&gt;archive_final_compiler -->
<g id="edge73" class="edge">
<title>archive_champion_fragment&#45;&gt;archive_final_compiler</title>
<path fill="none" stroke="#7e57c2" d="M548.63,-1219C560.96,-1219 573.48,-1219 585.66,-1219"/>
<polygon fill="#7e57c2" stroke="#7e57c2" points="585.81,-1222.5 595.81,-1219 585.81,-1215.5 585.81,-1222.5"/>
</g>
<!-- archive_champion_fragment&#45;&gt;archive_final_corrupt -->
<g id="edge72" class="edge">
<title>archive_champion_fragment&#45;&gt;archive_final_corrupt</title>
<path fill="none" stroke="#7e57c2" d="M521.59,-1200.94C544.24,-1195.9 568.99,-1190.39 592.17,-1185.23"/>
<polygon fill="#7e57c2" stroke="#7e57c2" points="592.99,-1188.63 601.99,-1183.04 591.47,-1181.8 592.99,-1188.63"/>
</g>
<!-- core_baby -->
<g id="node60" class="node">
<title>core_baby</title>
<path fill="#4fc3f7" stroke="black" d="M94.5,-1372C94.5,-1372 29.5,-1372 29.5,-1372 23.5,-1372 17.5,-1366 17.5,-1360 17.5,-1360 17.5,-1348 17.5,-1348 17.5,-1342 23.5,-1336 29.5,-1336 29.5,-1336 94.5,-1336 94.5,-1336 100.5,-1336 106.5,-1342 106.5,-1348 106.5,-1348 106.5,-1360 106.5,-1360 106.5,-1366 100.5,-1372 94.5,-1372"/>
<text text-anchor="middle" x="62" y="-1350.3" font-family="Times,serif" font-size="14.00">core_baby</text>
</g>
<!-- core_rookie -->
<g id="node61" class="node">
<title>core_rookie</title>
<path fill="#4fc3f7" stroke="black" d="M264,-1372C264,-1372 190,-1372 190,-1372 184,-1372 178,-1366 178,-1360 178,-1360 178,-1348 178,-1348 178,-1342 184,-1336 190,-1336 190,-1336 264,-1336 264,-1336 270,-1336 276,-1342 276,-1348 276,-1348 276,-1360 276,-1360 276,-1366 270,-1372 264,-1372"/>
<text text-anchor="middle" x="227" y="-1350.3" font-family="Times,serif" font-size="14.00">core_rookie</text>
</g>
<!-- core_baby&#45;&gt;core_rookie -->
<g id="edge74" class="edge">
<title>core_baby&#45;&gt;core_rookie</title>
<path fill="none" stroke="black" d="M106.68,-1354C125.48,-1354 147.72,-1354 167.88,-1354"/>
<polygon fill="black" stroke="black" points="167.9,-1357.5 177.9,-1354 167.9,-1350.5 167.9,-1357.5"/>
</g>
<!-- core_champion_power -->
<g id="node62" class="node">
<title>core_champion_power</title>
<path fill="#4fc3f7" stroke="black" d="M514.5,-1426C514.5,-1426 364.5,-1426 364.5,-1426 358.5,-1426 352.5,-1420 352.5,-1414 352.5,-1414 352.5,-1402 352.5,-1402 352.5,-1396 358.5,-1390 364.5,-1390 364.5,-1390 514.5,-1390 514.5,-1390 520.5,-1390 526.5,-1396 526.5,-1402 526.5,-1402 526.5,-1414 526.5,-1414 526.5,-1420 520.5,-1426 514.5,-1426"/>
<text text-anchor="middle" x="439.5" y="-1404.3" font-family="Times,serif" font-size="14.00">core_champion_power</text>
</g>
<!-- core_rookie&#45;&gt;core_champion_power -->
<g id="edge75" class="edge">
<title>core_rookie&#45;&gt;core_champion_power</title>
<path fill="none" stroke="#7e57c2" d="M276.22,-1366.92C293.2,-1371.43 312.43,-1376.49 330,-1381 338.33,-1383.14 347.03,-1385.35 355.72,-1387.54"/>
<polygon fill="#7e57c2" stroke="#7e57c2" points="354.96,-1390.95 365.51,-1389.99 356.66,-1384.16 354.96,-1390.95"/>
</g>
<!-- core_champion_guard -->
<g id="node63" class="node">
<title>core_champion_guard</title>
<path fill="#4fc3f7" stroke="black" d="M513.5,-1372C513.5,-1372 365.5,-1372 365.5,-1372 359.5,-1372 353.5,-1366 353.5,-1360 353.5,-1360 353.5,-1348 353.5,-1348 353.5,-1342 359.5,-1336 365.5,-1336 365.5,-1336 513.5,-1336 513.5,-1336 519.5,-1336 525.5,-1342 525.5,-1348 525.5,-1348 525.5,-1360 525.5,-1360 525.5,-1366 519.5,-1372 513.5,-1372"/>
<text text-anchor="middle" x="439.5" y="-1350.3" font-family="Times,serif" font-size="14.00">core_champion_guard</text>
</g>
<!-- core_rookie&#45;&gt;core_champion_guard -->
<g id="edge76" class="edge">
<title>core_rookie&#45;&gt;core_champion_guard</title>
<path fill="none" stroke="#7e57c2" d="M276.03,-1354C296.01,-1354 319.94,-1354 343.21,-1354"/>
<polygon fill="#7e57c2" stroke="#7e57c2" points="343.48,-1357.5 353.48,-1354 343.48,-1350.5 343.48,-1357.5"/>
</g>
<!-- core_champion_speed -->
<g id="node64" class="node">
<title>core_champion_speed</title>
<path fill="#4fc3f7" stroke="black" d="M513.5,-1318C513.5,-1318 365.5,-1318 365.5,-1318 359.5,-1318 353.5,-1312 353.5,-1306 353.5,-1306 353.5,-1294 353.5,-1294 353.5,-1288 359.5,-1282 365.5,-1282 365.5,-1282 513.5,-1282 513.5,-1282 519.5,-1282 525.5,-1288 525.5,-1294 525.5,-1294 525.5,-1306 525.5,-1306 525.5,-1312 519.5,-1318 513.5,-1318"/>
<text text-anchor="middle" x="439.5" y="-1296.3" font-family="Times,serif" font-size="14.00">core_champion_speed</text>
</g>
<!-- core_rookie&#45;&gt;core_champion_speed -->
<g id="edge77" class="edge">
<title>core_rookie&#45;&gt;core_champion_speed</title>
<path fill="none" stroke="#7e57c2" d="M276.22,-1341.08C293.2,-1336.57 312.43,-1331.51 330,-1327 338.33,-1324.86 347.03,-1322.65 355.72,-1320.46"/>
<polygon fill="#7e57c2" stroke="#7e57c2" points="356.66,-1323.84 365.51,-1318.01 354.96,-1317.05 356.66,-1323.84"/>
</g>
<!-- core_final_overclock -->
<g id="node65" class="node">
<title>core_final_overclock</title>
<path fill="lightgrey" stroke="black" d="M751.5,-1453C751.5,-1453 616.5,-1453 616.5,-1453 610.5,-1453 604.5,-1447 604.5,-1441 604.5,-1441 604.5,-1429 604.5,-1429 604.5,-1423 610.5,-1417 616.5,-1417 616.5,-1417 751.5,-1417 751.5,-1417 757.5,-1417 763.5,-1423 763.5,-1429 763.5,-1429 763.5,-1441 763.5,-1441 763.5,-1447 757.5,-1453 751.5,-1453"/>
<text text-anchor="middle" x="684" y="-1431.3" font-family="Times,serif" font-size="14.00" fill="white">core_final_overclock</text>
</g>
<!-- core_champion_power&#45;&gt;core_final_overclock -->
<g id="edge78" class="edge">
<title>core_champion_power&#45;&gt;core_final_overclock</title>
<path fill="none" stroke="#7e57c2" d="M526.68,-1417.6C548.64,-1420.04 572.27,-1422.67 594.35,-1425.13"/>
<polygon fill="#7e57c2" stroke="#7e57c2" points="594.05,-1428.62 604.38,-1426.25 594.83,-1421.66 594.05,-1428.62"/>
</g>
<!-- core_final_prime -->
<g id="node66" class="node">
<title>core_final_prime</title>
<path fill="lightgrey" stroke="black" d="M739,-1399C739,-1399 629,-1399 629,-1399 623,-1399 617,-1393 617,-1387 617,-1387 617,-1375 617,-1375 617,-1369 623,-1363 629,-1363 629,-1363 739,-1363 739,-1363 745,-1363 751,-1369 751,-1375 751,-1375 751,-1387 751,-1387 751,-1393 745,-1399 739,-1399"/>
<text text-anchor="middle" x="684" y="-1377.3" font-family="Times,serif" font-size="14.00" fill="white">core_final_prime</text>
</g>
<!-- core_champion_power&#45;&gt;core_final_prime -->
<g id="edge79" class="edge">
<title>core_champion_power&#45;&gt;core_final_prime</title>
<path fill="none" stroke="#7e57c2" d="M526.68,-1398.4C552.88,-1395.49 581.47,-1392.3 606.95,-1389.47"/>
<polygon fill="#7e57c2" stroke="#7e57c2" points="607.37,-1392.94 616.92,-1388.36 606.6,-1385.99 607.37,-1392.94"/>
</g>
<!-- core_champion_guard&#45;&gt;core_final_prime -->
<g id="edge81" class="edge">
<title>core_champion_guard&#45;&gt;core_final_prime</title>
<path fill="none" stroke="#7e57c2" d="M525.66,-1363.48C552.04,-1366.42 580.93,-1369.64 606.68,-1372.5"/>
<polygon fill="#7e57c2" stroke="#7e57c2" points="606.43,-1376 616.75,-1373.62 607.2,-1369.04 606.43,-1376"/>
</g>
<!-- core_final_bastion -->
<g id="node67" class="node">
<title>core_final_bastion</title>
<path fill="lightgrey" stroke="black" d="M744,-1345C744,-1345 624,-1345 624,-1345 618,-1345 612,-1339 612,-1333 612,-1333 612,-1321 612,-1321 612,-1315 618,-1309 624,-1309 624,-1309 744,-1309 744,-1309 750,-1309 756,-1315 756,-1321 756,-1321 756,-1333 756,-1333 756,-1339 750,-1345 744,-1345"/>
<text text-anchor="middle" x="684" y="-1323.3" font-family="Times,serif" font-size="14.00" fill="white">core_final_bastion</text>
</g>
<!-- core_champion_guard&#45;&gt;core_final_bastion -->
<g id="edge80" class="edge">
<title>core_champion_guard&#45;&gt;core_final_bastion</title>
<path fill="none" stroke="#7e57c2" d="M525.66,-1344.52C550.36,-1341.77 577.27,-1338.77 601.74,-1336.05"/>
<polygon fill="#7e57c2" stroke="#7e57c2" points="602.15,-1339.52 611.7,-1334.94 601.37,-1332.57 602.15,-1339.52"/>
</g>
<!-- core_champion_speed&#45;&gt;core_final_prime -->
<g id="edge83" class="edge">
<title>core_champion_speed&#45;&gt;core_final_prime</title>
<path fill="none" stroke="#7e57c2" d="M525.76,-1317.72C533.77,-1320.42 541.64,-1323.5 549,-1327 567.06,-1335.59 567.05,-1345.19 585,-1354 592.02,-1357.44 599.54,-1360.5 607.19,-1363.21"/>
<polygon fill="#7e57c2" stroke="#7e57c2" points="606.31,-1366.61 616.9,-1366.45 608.52,-1359.97 606.31,-1366.61"/>
</g>
<!-- core_final_photon -->
<g id="node68" class="node">
<title>core_final_photon</title>
<path fill="lightgrey" stroke="black" d="M742.5,-1291C742.5,-1291 625.5,-1291 625.5,-1291 619.5,-1291 613.5,-1285 613.5,-1279 613.5,-1279 613.5,-1267 613.5,-1267 613.5,-1261 619.5,-1255 625.5,-1255 625.5,-1255 742.5,-1255 742.5,-1255 748.5,-1255 754.5,-1261 754.5,-1267 754.5,-1267 754.5,-1279 754.5,-1279 754.5,-1285 748.5,-1291 742.5,-1291"/>
<text text-anchor="middle" x="684" y="-1269.3" font-family="Times,serif" font-size="14.00" fill="white">core_final_photon</text>
</g>
<!-- core_champion_speed&#45;&gt;core_final_photon -->
<g id="edge82" class="edge">
<title>core_champion_speed&#45;&gt;core_final_photon</title>
<path fill="none" stroke="#7e57c2" d="M525.66,-1290.52C550.84,-1287.71 578.32,-1284.66 603.16,-1281.89"/>
<polygon fill="#7e57c2" stroke="#7e57c2" points="603.71,-1285.35 613.26,-1280.76 602.94,-1278.39 603.71,-1285.35"/>
</g>
<!-- firewall_baby -->
<g id="node69" class="node">
<title>firewall_baby</title>
<path fill="#ff8a65" stroke="black" d="M105.5,-1561C105.5,-1561 18.5,-1561 18.5,-1561 12.5,-1561 6.5,-1555 6.5,-1549 6.5,-1549 6.5,-1537 6.5,-1537 6.5,-1531 12.5,-1525 18.5,-1525 18.5,-1525 105.5,-1525 105.5,-1525 111.5,-1525 117.5,-1531 117.5,-1537 117.5,-1537 117.5,-1549 117.5,-1549 117.5,-1555 111.5,-1561 105.5,-1561"/>
<text text-anchor="middle" x="62" y="-1539.3" font-family="Times,serif" font-size="14.00">firewall_baby</text>
</g>
<!-- firewall_rookie -->
<g id="node70" class="node">
<title>firewall_rookie</title>
<path fill="#ff8a65" stroke="black" d="M275.5,-1561C275.5,-1561 178.5,-1561 178.5,-1561 172.5,-1561 166.5,-1555 166.5,-1549 166.5,-1549 166.5,-1537 166.5,-1537 166.5,-1531 172.5,-1525 178.5,-1525 178.5,-1525 275.5,-1525 275.5,-1525 281.5,-1525 287.5,-1531 287.5,-1537 287.5,-1537 287.5,-1549 287.5,-1549 287.5,-1555 281.5,-1561 275.5,-1561"/>
<text text-anchor="middle" x="227" y="-1539.3" font-family="Times,serif" font-size="14.00">firewall_rookie</text>
</g>
<!-- firewall_baby&#45;&gt;firewall_rookie -->
<g id="edge84" class="edge">
<title>firewall_baby&#45;&gt;firewall_rookie</title>
<path fill="none" stroke="black" d="M117.73,-1543C130.06,-1543 143.32,-1543 156.17,-1543"/>
<polygon fill="black" stroke="black" points="156.38,-1546.5 166.38,-1543 156.38,-1539.5 156.38,-1546.5"/>
</g>
<!-- firewall_champion_barrier -->
<g id="node71" class="node">
<title>firewall_champion_barrier</title>
<path fill="#ff8a65" stroke="black" d="M529,-1561C529,-1561 350,-1561 350,-1561 344,-1561 338,-1555 338,-1549 338,-1549 338,-1537 338,-1537 338,-1531 344,-1525 350,-1525 350,-1525 529,-1525 529,-1525 535,-1525 541,-1531 541,-1537 541,-1537 541,-1549 541,-1549 541,-1555 535,-1561 529,-1561"/>
<text text-anchor="middle" x="439.5" y="-1539.3" font-family="Times,serif" font-size="14.00">firewall_champion_barrier</text>
</g>
<!-- firewall_rookie&#45;&gt;firewall_champion_barrier -->
<g id="edge85" class="edge">
<title>firewall_rookie&#45;&gt;firewall_champion_barrier</title>
<path fill="none" stroke="#7e57c2" d="M287.76,-1543C300.38,-1543 314.07,-1543 327.89,-1543"/>
<polygon fill="#7e57c2" stroke="#7e57c2" points="327.97,-1546.5 337.97,-1543 327.97,-1539.5 327.97,-1546.5"/>
</g>
<!-- firewall_champion_counter -->
<g id="node72" class="node">
<title>firewall_champion_counter</title>
<path fill="#ff8a65" stroke="black" d="M531,-1507C531,-1507 348,-1507 348,-1507 342,-1507 336,-1501 336,-1495 336,-1495 336,-1483 336,-1483 336,-1477 342,-1471 348,-1471 348,-1471 531,-1471 531,-1471 537,-1471 543,-1477 543,-1483 543,-1483 543,-1495 543,-1495 543,-1501 537,-1507 531,-1507"/>
<text text-anchor="middle" x="439.5" y="-1485.3" font-family="Times,serif" font-size="14.00">firewall_champion_counter</text>
</g>
<!-- firewall_rookie&#45;&gt;firewall_champion_counter -->
<g id="edge86" class="edge">
<title>firewall_rookie&#45;&gt;firewall_champion_counter</title>
<path fill="none" stroke="#7e57c2" d="M287.56,-1527.07C301.48,-1523.4 316.25,-1519.53 330,-1516 338.33,-1513.86 347.03,-1511.65 355.72,-1509.46"/>
<polygon fill="#7e57c2" stroke="#7e57c2" points="356.66,-1512.84 365.51,-1507.01 354.96,-1506.05 356.66,-1512.84"/>
</g>
<!-- firewall_champion_patch -->
<g id="node73" class="node">
<title>firewall_champion_patch</title>
<path fill="#ff8a65" stroke="black" d="M523.5,-1615C523.5,-1615 355.5,-1615 355.5,-1615 349.5,-1615 343.5,-1609 343.5,-1603 343.5,-1603 343.5,-1591 343.5,-1591 343.5,-1585 349.5,-1579 355.5,-1579 355.5,-1579 523.5,-1579 523.5,-1579 529.5,-1579 535.5,-1585 535.5,-1591 535.5,-1591 535.5,-1603 535.5,-1603 535.5,-1609 529.5,-1615 523.5,-1615"/>
<text text-anchor="middle" x="439.5" y="-1593.3" font-family="Times,serif" font-size="14.00">firewall_champion_patch</text>
</g>
<!-- firewall_rookie&#45;&gt;firewall_champion_patch -->
<g id="edge87" class="edge">
<title>firewall_rookie&#45;&gt;firewall_champion_patch</title>
<path fill="none" stroke="#7e57c2" d="M287.56,-1558.93C301.48,-1562.6 316.25,-1566.47 330,-1570 338.33,-1572.14 347.03,-1574.35 355.72,-1576.54"/>
<polygon fill="#7e57c2" stroke="#7e57c2" points="354.96,-1579.95 365.51,-1578.99 356.66,-1573.16 354.96,-1579.95"/>
</g>
<!-- firewall_final_fortress -->
<g id="node74" class="node">
<title>firewall_final_fortress</title>
<path fill="lightgrey" stroke="black" d="M757,-1615C757,-1615 611,-1615 611,-1615 605,-1615 599,-1609 599,-1603 599,-1603 599,-1591 599,-1591 599,-1585 605,-1579 611,-1579 611,-1579 757,-1579 757,-1579 763,-1579 769,-1585 769,-1591 769,-1591 769,-1603 769,-1603 769,-1609 763,-1615 757,-1615"/>
<text text-anchor="middle" x="684" y="-1593.3" font-family="Times,serif" font-size="14.00" fill="white">firewall_final_fortress</text>
</g>
<!-- firewall_champion_barrier&#45;&gt;firewall_final_fortress -->
<g id="edge88" class="edge">
<title>firewall_champion_barrier&#45;&gt;firewall_final_fortress</title>
<path fill="none" stroke="#7e57c2" d="M521.59,-1561.06C544.24,-1566.1 568.99,-1571.61 592.17,-1576.77"/>
<polygon fill="#7e57c2" stroke="#7e57c2" points="591.47,-1580.2 601.99,-1578.96 592.99,-1573.37 591.47,-1580.2"/>
</g>
<!-- firewall_final_protocol -->
<g id="node75" class="node">
<title>firewall_final_protocol</title>
<path fill="lightgrey" stroke="black" d="M758.5,-1561C758.5,-1561 609.5,-1561 609.5,-1561 603.5,-1561 597.5,-1555 597.5,-1549 597.5,-1549 597.5,-1537 597.5,-1537 597.5,-1531 603.5,-1525 609.5,-1525 609.5,-1525 758.5,-1525 758.5,-1525 764.5,-1525 770.5,-1531 770.5,-1537 770.5,-1537 770.5,-1549 770.5,-1549 770.5,-1555 764.5,-1561 758.5,-1561"/>
<text text-anchor="middle" x="684" y="-1539.3" font-family="Times,serif" font-size="14.00" fill="white">firewall_final_protocol</text>
</g>
<!-- firewall_champion_barrier&#45;&gt;firewall_final_protocol -->
<g id="edge89" class="edge">
<title>firewall_champion_barrier&#45;&gt;firewall_final_protocol</title>
<path fill="none" stroke="#7e57c2" d="M541.24,-1543C556.35,-1543 571.91,-1543 586.93,-1543"/>
<polygon fill="#7e57c2" stroke="#7e57c2" points="587.23,-1546.5 597.23,-1543 587.23,-1539.5 587.23,-1546.5"/>
</g>
<!-- firewall_champion_counter&#45;&gt;firewall_final_protocol -->
<g id="edge91" class="edge">
<title>firewall_champion_counter&#45;&gt;firewall_final_protocol</title>
<path fill="none" stroke="#7e57c2" d="M521.59,-1507.06C544.24,-1512.1 568.99,-1517.61 592.17,-1522.77"/>
<polygon fill="#7e57c2" stroke="#7e57c2" points="591.47,-1526.2 601.99,-1524.96 592.99,-1519.37 591.47,-1526.2"/>
</g>
<!-- firewall_final_retaliate -->
<g id="node76" class="node">
<title>firewall_final_retaliate</title>
<path fill="lightgrey" stroke="black" d="M759.5,-1507C759.5,-1507 608.5,-1507 608.5,-1507 602.5,-1507 596.5,-1501 596.5,-1495 596.5,-1495 596.5,-1483 596.5,-1483 596.5,-1477 602.5,-1471 608.5,-1471 608.5,-1471 759.5,-1471 759.5,-1471 765.5,-1471 771.5,-1477 771.5,-1483 771.5,-1483 771.5,-1495 771.5,-1495 771.5,-1501 765.5,-1507 759.5,-1507"/>
<text text-anchor="middle" x="684" y="-1485.3" font-family="Times,serif" font-size="14.00" fill="white">firewall_final_retaliate</text>
</g>
<!-- firewall_champion_counter&#45;&gt;firewall_final_retaliate -->
<g id="edge90" class="edge">
<title>firewall_champion_counter&#45;&gt;firewall_final_retaliate</title>
<path fill="none" stroke="#7e57c2" d="M543.34,-1489C557.57,-1489 572.15,-1489 586.27,-1489"/>
<polygon fill="#7e57c2" stroke="#7e57c2" points="586.45,-1492.5 596.45,-1489 586.45,-1485.5 586.45,-1492.5"/>
</g>
<!-- firewall_champion_patch&#45;&gt;firewall_final_fortress -->
<g id="edge93" class="edge">
<title>firewall_champion_patch&#45;&gt;firewall_final_fortress</title>
<path fill="none" stroke="#7e57c2" d="M535.65,-1597C553.06,-1597 571.23,-1597 588.62,-1597"/>
<polygon fill="#7e57c2" stroke="#7e57c2" points="588.76,-1600.5 598.76,-1597 588.76,-1593.5 588.76,-1600.5"/>
</g>
<!-- firewall_champion_patch&#45;&gt;firewall_final_protocol -->
<g id="edge92" class="edge">
<title>firewall_champion_patch&#45;&gt;firewall_final_protocol</title>
<path fill="none" stroke="#7e57c2" d="M521.59,-1578.94C544.24,-1573.9 568.99,-1568.39 592.17,-1563.23"/>
<polygon fill="#7e57c2" stroke="#7e57c2" points="592.99,-1566.63 601.99,-1561.04 591.47,-1559.8 592.99,-1566.63"/>
</g>
<!-- echo_baby -->
<g id="node77" class="node">
<title>echo_baby</title>
<path fill="#ba68c8" stroke="black" d="M95.5,-1723C95.5,-1723 28.5,-1723 28.5,-1723 22.5,-1723 16.5,-1717 16.5,-1711 16.5,-1711 16.5,-1699 16.5,-1699 16.5,-1693 22.5,-1687 28.5,-1687 28.5,-1687 95.5,-1687 95.5,-1687 101.5,-1687 107.5,-1693 107.5,-1699 107.5,-1699 107.5,-1711 107.5,-1711 107.5,-1717 101.5,-1723 95.5,-1723"/>
<text text-anchor="middle" x="62" y="-1701.3" font-family="Times,serif" font-size="14.00">echo_baby</text>
</g>
<!-- echo_rookie -->
<g id="node78" class="node">
<title>echo_rookie</title>
<path fill="#ba68c8" stroke="black" d="M265.5,-1723C265.5,-1723 188.5,-1723 188.5,-1723 182.5,-1723 176.5,-1717 176.5,-1711 176.5,-1711 176.5,-1699 176.5,-1699 176.5,-1693 182.5,-1687 188.5,-1687 188.5,-1687 265.5,-1687 265.5,-1687 271.5,-1687 277.5,-1693 277.5,-1699 277.5,-1699 277.5,-1711 277.5,-1711 277.5,-1717 271.5,-1723 265.5,-1723"/>
<text text-anchor="middle" x="227" y="-1701.3" font-family="Times,serif" font-size="14.00">echo_rookie</text>
</g>
<!-- echo_baby&#45;&gt;echo_rookie -->
<g id="edge94" class="edge">
<title>echo_baby&#45;&gt;echo_rookie</title>
<path fill="none" stroke="black" d="M107.54,-1705C125.6,-1705 146.73,-1705 166.1,-1705"/>
<polygon fill="black" stroke="black" points="166.35,-1708.5 176.35,-1705 166.35,-1701.5 166.35,-1708.5"/>
</g>
<!-- echo_champion_resonate -->
<g id="node79" class="node">
<title>echo_champion_resonate</title>
<path fill="#ba68c8" stroke="black" d="M524.5,-1777C524.5,-1777 354.5,-1777 354.5,-1777 348.5,-1777 342.5,-1771 342.5,-1765 342.5,-1765 342.5,-1753 342.5,-1753 342.5,-1747 348.5,-1741 354.5,-1741 354.5,-1741 524.5,-1741 524.5,-1741 530.5,-1741 536.5,-1747 536.5,-1753 536.5,-1753 536.5,-1765 536.5,-1765 536.5,-1771 530.5,-1777 524.5,-1777"/>
<text text-anchor="middle" x="439.5" y="-1755.3" font-family="Times,serif" font-size="14.00">echo_champion_resonate</text>
</g>
<!-- echo_rookie&#45;&gt;echo_champion_resonate -->
<g id="edge95" class="edge">
<title>echo_rookie&#45;&gt;echo_champion_resonate</title>
<path fill="none" stroke="#7e57c2" d="M277.51,-1718.26C294.17,-1722.69 312.88,-1727.6 330,-1732 338.33,-1734.14 347.03,-1736.35 355.72,-1738.54"/>
<polygon fill="#7e57c2" stroke="#7e57c2" points="354.96,-1741.95 365.51,-1740.99 356.66,-1735.16 354.96,-1741.95"/>
</g>
<!-- echo_champion_reverb -->
<g id="node80" class="node">
<title>echo_champion_reverb</title>
<path fill="#ba68c8" stroke="black" d="M517,-1723C517,-1723 362,-1723 362,-1723 356,-1723 350,-1717 350,-1711 350,-1711 350,-1699 350,-1699 350,-1693 356,-1687 362,-1687 362,-1687 517,-1687 517,-1687 523,-1687 529,-1693 529,-1699 529,-1699 529,-1711 529,-1711 529,-1717 523,-1723 517,-1723"/>
<text text-anchor="middle" x="439.5" y="-1701.3" font-family="Times,serif" font-size="14.00">echo_champion_reverb</text>
</g>
<!-- echo_rookie&#45;&gt;echo_champion_reverb -->
<g id="edge96" class="edge">
<title>echo_rookie&#45;&gt;echo_champion_reverb</title>
<path fill="none" stroke="#7e57c2" d="M277.62,-1705C296.19,-1705 318.01,-1705 339.48,-1705"/>
<polygon fill="#7e57c2" stroke="#7e57c2" points="339.64,-1708.5 349.64,-1705 339.64,-1701.5 339.64,-1708.5"/>
</g>
<!-- echo_champion_distort -->
<g id="node81" class="node">
<title>echo_champion_distort</title>
<path fill="#ba68c8" stroke="black" d="M517.5,-1669C517.5,-1669 361.5,-1669 361.5,-1669 355.5,-1669 349.5,-1663 349.5,-1657 349.5,-1657 349.5,-1645 349.5,-1645 349.5,-1639 355.5,-1633 361.5,-1633 361.5,-1633 517.5,-1633 517.5,-1633 523.5,-1633 529.5,-1639 529.5,-1645 529.5,-1645 529.5,-1657 529.5,-1657 529.5,-1663 523.5,-1669 517.5,-1669"/>
<text text-anchor="middle" x="439.5" y="-1647.3" font-family="Times,serif" font-size="14.00">echo_champion_distort</text>
</g>
<!-- echo_rookie&#45;&gt;echo_champion_distort -->
<g id="edge97" class="edge">
<title>echo_rookie&#45;&gt;echo_champion_distort</title>
<path fill="none" stroke="#7e57c2" d="M277.51,-1691.74C294.17,-1687.31 312.88,-1682.4 330,-1678 338.33,-1675.86 347.03,-1673.65 355.72,-1671.46"/>
<polygon fill="#7e57c2" stroke="#7e57c2" points="356.66,-1674.84 365.51,-1669.01 354.96,-1668.05 356.66,-1674.84"/>
</g>
<!-- echo_final_harmonic -->
<g id="node82" class="node">
<title>echo_final_harmonic</title>
<path fill="lightgrey" stroke="black" d="M752.5,-1750C752.5,-1750 615.5,-1750 615.5,-1750 609.5,-1750 603.5,-1744 603.5,-1738 603.5,-1738 603.5,-1726 603.5,-1726 603.5,-1720 609.5,-1714 615.5,-1714 615.5,-1714 752.5,-1714 752.5,-1714 758.5,-1714 764.5,-1720 764.5,-1726 764.5,-1726 764.5,-1738 764.5,-1738 764.5,-1744 758.5,-1750 752.5,-1750"/>
<text text-anchor="middle" x="684" y="-1728.3" font-family="Times,serif" font-size="14.00" fill="white">echo_final_harmonic</text>
</g>
<!-- echo_champion_resonate&#45;&gt;echo_final_harmonic -->
<g id="edge98" class="edge">
<title>echo_champion_resonate&#45;&gt;echo_final_harmonic</title>
<path fill="none" stroke="#7e57c2" d="M536.69,-1748.29C555.32,-1746.22 574.78,-1744.05 593.2,-1742"/>
<polygon fill="#7e57c2" stroke="#7e57c2" points="593.76,-1745.46 603.31,-1740.87 592.99,-1738.5 593.76,-1745.46"/>
</g>
<!-- echo_final_feedback -->
<g id="node83" class="node">
<title>echo_final_feedback</title>
<path fill="lightgrey" stroke="black" d="M751,-1696C751,-1696 617,-1696 617,-1696 611,-1696 605,-1690 605,-1684 605,-1684 605,-1672 605,-1672 605,-1666 611,-1660 617,-1660 617,-1660 751,-1660 751,-1660 757,-1660 763,-1666 763,-1672 763,-1672 763,-1684 763,-1684 763,-1690 757,-1696 751,-1696"/>
<text text-anchor="middle" x="684" y="-1674.3" font-family="Times,serif" font-size="14.00" fill="white">echo_final_feedback</text>
</g>
<!-- echo_champion_resonate&#45;&gt;echo_final_feedback -->
<g id="edge99" class="edge">
<title>echo_champion_resonate&#45;&gt;echo_final_feedback</title>
<path fill="none" stroke="#7e57c2" d="M526.62,-1740.99C534.33,-1738.36 541.9,-1735.37 549,-1732 567.06,-1723.41 567.05,-1713.81 585,-1705 588.83,-1703.12 592.81,-1701.35 596.89,-1699.7"/>
<polygon fill="#7e57c2" stroke="#7e57c2" points="598.42,-1702.86 606.51,-1696.03 595.92,-1696.32 598.42,-1702.86"/>
</g>
<!-- echo_champion_reverb&#45;&gt;echo_final_harmonic -->
<g id="edge101" class="edge">
<title>echo_champion_reverb&#45;&gt;echo_final_harmonic</title>
<path fill="none" stroke="#7e57c2" d="M529.08,-1714.86C550.01,-1717.19 572.34,-1719.68 593.32,-1722.01"/>
<polygon fill="#7e57c2" stroke="#7e57c2" points="593.17,-1725.52 603.49,-1723.15 593.94,-1718.56 593.17,-1725.52"/>
</g>
<!-- echo_champion_reverb&#45;&gt;echo_final_feedback -->
<g id="edge100" class="edge">
<title>echo_champion_reverb&#45;&gt;echo_final_feedback</title>
<path fill="none" stroke="#7e57c2" d="M529.08,-1695.14C550.45,-1692.76 573.29,-1690.22 594.65,-1687.84"/>
<polygon fill="#7e57c2" stroke="#7e57c2" points="595.13,-1691.31 604.68,-1686.72 594.36,-1684.35 595.13,-1691.31"/>
</g>
<!-- echo_champion_distort&#45;&gt;echo_final_harmonic -->
<g id="edge103" class="edge">
<title>echo_champion_distort&#45;&gt;echo_final_harmonic</title>
<path fill="none" stroke="#7e57c2" d="M526.62,-1669.01C534.33,-1671.64 541.9,-1674.63 549,-1678 567.06,-1686.59 567.05,-1696.19 585,-1705 588.83,-1706.88 592.81,-1708.65 596.89,-1710.3"/>
<polygon fill="#7e57c2" stroke="#7e57c2" points="595.92,-1713.68 606.51,-1713.97 598.42,-1707.14 595.92,-1713.68"/>
</g>
<!-- echo_champion_distort&#45;&gt;echo_final_feedback -->
<g id="edge102" class="edge">
<title>echo_champion_distort&#45;&gt;echo_final_feedback</title>
<path fill="none" stroke="#7e57c2" d="M529.76,-1660.94C550.89,-1663.29 573.4,-1665.8 594.49,-1668.15"/>
<polygon fill="#7e57c2" stroke="#7e57c2" points="594.39,-1671.66 604.72,-1669.28 595.17,-1664.7 594.39,-1671.66"/>
</g>
</g>
</svg>
