<?xml version="1.0" encoding="UTF-8" standalone="no"?>
<!DOCTYPE svg PUBLIC "-//W3C//DTD SVG 1.1//EN"
 "http://www.w3.org/Graphics/SVG/1.1/DTD/svg11.dtd">
<!-- Generated by graphviz version 2.43.0 (0)
 -->
<!-- Title: EvolutionTree Pages: 1 -->
<svg width="663pt" height="152pt"
 viewBox="0.00 0.00 663.00 152.00" xmlns="http://www.w3.org/2000/svg" xmlns:xlink="http://www.w3.org/1999/xlink">
<g id="graph0" class="graph" transform="scale(1 1) rotate(0) translate(4 148)">
<title>EvolutionTree</title>
<polygon fill="white" stroke="transparent" points="-4,4 -4,-148 659,-148 659,4 -4,4"/>
<!-- echo_baby -->
<g id="node1" class="node">
<title>echo_baby</title>
<path fill="#ba68c8" stroke="black" d="M79,-90C79,-90 12,-90 12,-90 6,-90 0,-84 0,-78 0,-78 0,-66 0,-66 0,-60 6,-54 12,-54 12,-54 79,-54 79,-54 85,-54 91,-60 91,-66 91,-66 91,-78 91,-78 91,-84 85,-90 79,-90"/>
<text text-anchor="middle" x="45.5" y="-68.3" font-family="Times,serif" font-size="14.00">echo_baby</text>
</g>
<!-- echo_rookie -->
<g id="node2" class="node">
<title>echo_rookie</title>
<path fill="#ba68c8" stroke="black" d="M216,-90C216,-90 139,-90 139,-90 133,-90 127,-84 127,-78 127,-78 127,-66 127,-66 127,-60 133,-54 139,-54 139,-54 216,-54 216,-54 222,-54 228,-60 228,-66 228,-66 228,-78 228,-78 228,-84 222,-90 216,-90"/>
<text text-anchor="middle" x="177.5" y="-68.3" font-family="Times,serif" font-size="14.00">echo_rookie</text>
</g>
<!-- echo_baby&#45;&gt;echo_rookie -->
<g id="edge1" class="edge">
<title>echo_baby&#45;&gt;echo_rookie</title>
<path fill="none" stroke="black" d="M91.24,-72C99.38,-72 108,-72 116.5,-72"/>
<polygon fill="black" stroke="black" points="116.78,-75.5 126.78,-72 116.78,-68.5 116.78,-75.5"/>
</g>
<!-- echo_champion_resonate -->
<g id="node3" class="node">
<title>echo_champion_resonate</title>
<path fill="#ba68c8" stroke="black" d="M446,-144C446,-144 276,-144 276,-144 270,-144 264,-138 264,-132 264,-132 264,-120 264,-120 264,-114 270,-108 276,-108 276,-108 446,-108 446,-108 452,-108 458,-114 458,-120 458,-120 458,-132 458,-132 458,-138 452,-144 446,-144"/>
<text text-anchor="middle" x="361" y="-122.3" font-family="Times,serif" font-size="14.00">echo_champion_resonate</text>
</g>
<!-- echo_rookie&#45;&gt;echo_champion_resonate -->
<g id="edge2" class="edge">
<title>echo_rookie&#45;&gt;echo_champion_resonate</title>
<path fill="none" stroke="#7e57c2" d="M228.15,-87.97C239.88,-91.66 252.37,-95.53 264,-99 270.84,-101.04 277.97,-103.13 285.12,-105.19"/>
<polygon fill="#7e57c2" stroke="#7e57c2" points="284.28,-108.59 294.85,-107.98 286.2,-101.86 284.28,-108.59"/>
</g>
<!-- echo_champion_reverb -->
<g id="node4" class="node">
<title>echo_champion_reverb</title>
<path fill="#ba68c8" stroke="black" d="M438.5,-90C438.5,-90 283.5,-90 283.5,-90 277.5,-90 271.5,-84 271.5,-78 271.5,-78 271.5,-66 271.5,-66 271.5,-60 277.5,-54 283.5,-54 283.5,-54 438.5,-54 438.5,-54 444.5,-54 450.5,-60 450.5,-66 450.5,-66 450.5,-78 450.5,-78 450.5,-84 444.5,-90 438.5,-90"/>
<text text-anchor="middle" x="361" y="-68.3" font-family="Times,serif" font-size="14.00">echo_champion_reverb</text>
</g>
<!-- echo_rookie&#45;&gt;echo_champion_reverb -->
<g id="edge3" class="edge">
<title>echo_rookie&#45;&gt;echo_champion_reverb</title>
<path fill="none" stroke="#7e57c2" d="M228.1,-72C238.49,-72 249.79,-72 261.27,-72"/>
<polygon fill="#7e57c2" stroke="#7e57c2" points="261.38,-75.5 271.38,-72 261.38,-68.5 261.38,-75.5"/>
</g>
<!-- echo_champion_distort -->
<g id="node5" class="node">
<title>echo_champion_distort</title>
<path fill="#ba68c8" stroke="black" d="M439,-36C439,-36 283,-36 283,-36 277,-36 271,-30 271,-24 271,-24 271,-12 271,-12 271,-6 277,0 283,0 283,0 439,0 439,0 445,0 451,-6 451,-12 451,-12 451,-24 451,-24 451,-30 445,-36 439,-36"/>
<text text-anchor="middle" x="361" y="-14.3" font-family="Times,serif" font-size="14.00">echo_champion_distort</text>
</g>
<!-- echo_rookie&#45;&gt;echo_champion_distort -->
<g id="edge4" class="edge">
<title>echo_rookie&#45;&gt;echo_champion_distort</title>
<path fill="none" stroke="#7e57c2" d="M228.15,-56.03C239.88,-52.34 252.37,-48.47 264,-45 270.84,-42.96 277.97,-40.87 285.12,-38.81"/>
<polygon fill="#7e57c2" stroke="#7e57c2" points="286.2,-42.14 294.85,-36.02 284.28,-35.41 286.2,-42.14"/>
</g>
<!-- echo_final_harmonic -->
<g id="node6" class="node">
<title>echo_final_harmonic</title>
<path fill="lightgrey" stroke="black" d="M643,-117C643,-117 506,-117 506,-117 500,-117 494,-111 494,-105 494,-105 494,-93 494,-93 494,-87 500,-81 506,-81 506,-81 643,-81 643,-81 649,-81 655,-87 655,-93 655,-93 655,-105 655,-105 655,-111 649,-117 643,-117"/>
<text text-anchor="middle" x="574.5" y="-95.3" font-family="Times,serif" font-size="14.00">echo_final_harmonic</text>
</g>
<!-- echo_champion_resonate&#45;&gt;echo_final_harmonic -->
<g id="edge5" class="edge">
<title>echo_champion_resonate&#45;&gt;echo_final_harmonic</title>
<path fill="none" stroke="#7e57c2" d="M458.16,-113.72C466.61,-112.65 475.15,-111.56 483.55,-110.48"/>
<polygon fill="#7e57c2" stroke="#7e57c2" points="484.25,-113.92 493.72,-109.18 483.36,-106.98 484.25,-113.92"/>
</g>
<!-- echo_final_feedback -->
<g id="node7" class="node">
<title>echo_final_feedback</title>
<path fill="lightgrey" stroke="black" d="M641.5,-63C641.5,-63 507.5,-63 507.5,-63 501.5,-63 495.5,-57 495.5,-51 495.5,-51 495.5,-39 495.5,-39 495.5,-33 501.5,-27 507.5,-27 507.5,-27 641.5,-27 641.5,-27 647.5,-27 653.5,-33 653.5,-39 653.5,-39 653.5,-51 653.5,-51 653.5,-57 647.5,-63 641.5,-63"/>
<text text-anchor="middle" x="574.5" y="-41.3" font-family="Times,serif" font-size="14.00">echo_final_feedback</text>
</g>
<!-- echo_champion_resonate&#45;&gt;echo_final_feedback -->
<g id="edge6" class="edge">
<title>echo_champion_resonate&#45;&gt;echo_final_feedback</title>
<path fill="none" stroke="#7e57c2" d="M436.67,-107.97C444.02,-105.32 451.25,-102.34 458,-99 475.93,-90.14 476.31,-81.33 494,-72 497.29,-70.27 500.71,-68.61 504.2,-67.03"/>
<polygon fill="#7e57c2" stroke="#7e57c2" points="505.76,-70.17 513.59,-63.04 503.02,-63.73 505.76,-70.17"/>
</g>
<!-- echo_champion_reverb&#45;&gt;echo_final_harmonic -->
<g id="edge8" class="edge">
<title>echo_champion_reverb&#45;&gt;echo_final_harmonic</title>
<path fill="none" stroke="#7e57c2" d="M450.78,-83.33C461.68,-84.73 472.83,-86.15 483.75,-87.54"/>
<polygon fill="#7e57c2" stroke="#7e57c2" points="483.34,-91.02 493.7,-88.81 484.23,-84.07 483.34,-91.02"/>
</g>
<!-- echo_champion_reverb&#45;&gt;echo_final_feedback -->
<g id="edge7" class="edge">
<title>echo_champion_reverb&#45;&gt;echo_final_feedback</title>
<path fill="none" stroke="#7e57c2" d="M450.78,-60.67C462.23,-59.2 473.96,-57.71 485.4,-56.25"/>
<polygon fill="#7e57c2" stroke="#7e57c2" points="485.89,-59.71 495.37,-54.97 485.01,-52.77 485.89,-59.71"/>
</g>
<!-- echo_champion_distort&#45;&gt;echo_final_harmonic -->
<g id="edge10" class="edge">
<title>echo_champion_distort&#45;&gt;echo_final_harmonic</title>
<path fill="none" stroke="#7e57c2" d="M436.67,-36.03C444.02,-38.68 451.25,-41.66 458,-45 475.93,-53.86 476.31,-62.67 494,-72 497.29,-73.73 500.71,-75.39 504.2,-76.97"/>
<polygon fill="#7e57c2" stroke="#7e57c2" points="503.02,-80.27 513.59,-80.96 505.76,-73.83 503.02,-80.27"/>
</g>
<!-- echo_champion_distort&#45;&gt;echo_final_feedback -->
<g id="edge9" class="edge">
<title>echo_champion_distort&#45;&gt;echo_final_feedback</title>
<path fill="none" stroke="#7e57c2" d="M451.08,-29.37C462.32,-30.81 473.81,-32.27 485.04,-33.71"/>
<polygon fill="#7e57c2" stroke="#7e57c2" points="484.9,-37.22 495.26,-35.01 485.78,-30.27 484.9,-37.22"/>
</g>
</g>
</svg>
